<?xml version="1.0" encoding="UTF-8" standalone="no"?><svg xmlns="http://www.w3.org/2000/svg" xmlns:xlink="http://www.w3.org/1999/xlink" contentScriptType="application/ecmascript" contentStyleType="text/css" height="279px" preserveAspectRatio="none" style="width:442px;height:279px;background:#00000000;" version="1.1" viewBox="0 0 442 279" width="442px" zoomAndPan="magnify"><defs><filter height="300%" id="f1ixh2w3akvmz6" width="300%" x="-1" y="-1"><feGaussianBlur result="blurOut" stdDeviation="2.0"/><feColorMatrix in="blurOut" result="blurOut2" type="matrix" values="0 0 0 0 0 0 0 0 0 0 0 0 0 0 0 0 0 0 .4 0"/><feOffset dx="4.0" dy="4.0" in="blurOut2" result="blurOut3"/><feBlend in="SourceGraphic" in2="blurOut3" mode="normal"/></filter></defs><g><!--MD5=[3298442fb4c503edc1a8b7df95e67ef8]
class AlibabaResourceOrchestrationServiceComponent<PropsType>--><rect codeLine="4" fill="#FEFECE" filter="url(#f1ixh2w3akvmz6)" height="99.2188" id="AlibabaResourceOrchestrationServiceComponent&lt;PropsType&gt;" style="stroke:#A80036;stroke-width:1.5;" width="421" x="7" y="166"/><ellipse cx="22" cy="182" fill="#A9DCDF" rx="11" ry="11" style="stroke:#A80036;stroke-width:1.0;"/><path d="M22.1094,177.3438 L20.9531,182.4219 L23.2813,182.4219 L22.1094,177.3438 Z M20.625,175.1094 L23.6094,175.1094 L26.9688,187.5 L24.5156,187.5 L23.75,184.4375 L20.4688,184.4375 L19.7188,187.5 L17.2813,187.5 L20.625,175.1094 Z " fill="#000000"/><text fill="#000000" font-family="sans-serif" font-size="12" font-style="italic" lengthAdjust="spacing" textLength="389" x="36" y="186.1543">AlibabaResourceOrchestrationServiceComponent&lt;PropsType&gt;</text><line style="stroke:#A80036;stroke-width:1.5;" x1="8" x2="427" y1="198" y2="198"/><ellipse cx="18" cy="209" rx="3" ry="3" style="stroke:#038048;stroke-width:1.0;fill:none;"/><text fill="#000000" font-family="sans-serif" font-size="11" lengthAdjust="spacing" textLength="163" x="27" y="212.2104">[ComponentHandle] : Handle</text><line style="stroke:#A80036;stroke-width:1.5;" x1="8" x2="427" y1="218.8047" y2="218.8047"/><ellipse cx="18" cy="229.8047" fill="#84BE84" rx="3" ry="3" style="stroke:#038048;stroke-width:1.0;"/><text fill="#000000" font-family="sans-serif" font-size="11" lengthAdjust="spacing" textLength="220" x="27" y="233.0151">[ComponentRender](output: any) : void</text><ellipse cx="18" cy="242.6094" fill="#84BE84" rx="3" ry="3" style="stroke:#038048;stroke-width:1.0;"/><text fill="#000000" font-family="sans-serif" font-size="11" lengthAdjust="spacing" textLength="221" x="27" y="245.8198">[ComponentUpdate]() : Promise&lt;void&gt;</text><ellipse cx="18" cy="255.4141" fill="#84BE84" rx="3" ry="3" style="stroke:#038048;stroke-width:1.0;"/><text fill="#000000" font-family="sans-serif" font-size="11" lengthAdjust="spacing" textLength="248" x="27" y="258.6245">[ComponentVerify]() : void | Promise&lt;void&gt;</text><!--MD5=[4e13963c9dc916a21a8436ef39422b32]
class Component--><rect codeLine="10" fill="#FEFECE" filter="url(#f1ixh2w3akvmz6)" height="99.2188" id="Component" style="stroke:#A80036;stroke-width:1.5;" width="331" x="52" y="7"/><ellipse cx="177.25" cy="23" fill="#A9DCDF" rx="11" ry="11" style="stroke:#A80036;stroke-width:1.0;"/><path d="M177.3594,18.3438 L176.2031,23.4219 L178.5313,23.4219 L177.3594,18.3438 Z M175.875,16.1094 L178.8594,16.1094 L182.2188,28.5 L179.7656,28.5 L179,25.4375 L175.7188,25.4375 L174.9688,28.5 L172.5313,28.5 L175.875,16.1094 Z " fill="#000000"/><text fill="#000000" font-family="sans-serif" font-size="12" font-style="italic" lengthAdjust="spacing" textLength="72" x="197.75" y="27.1543">Component</text><line style="stroke:#A80036;stroke-width:1.5;" x1="53" x2="382" y1="39" y2="39"/><ellipse cx="63" cy="50" rx="3" ry="3" style="stroke:#038048;stroke-width:1.0;fill:none;"/><text fill="#000000" font-family="sans-serif" font-size="11" lengthAdjust="spacing" textLength="163" x="72" y="53.2104">[ComponentHandle] : Handle</text><line style="stroke:#A80036;stroke-width:1.5;" x1="53" x2="382" y1="59.8047" y2="59.8047"/><ellipse cx="63" cy="70.8047" fill="#84BE84" rx="3" ry="3" style="stroke:#038048;stroke-width:1.0;"/><text fill="#000000" font-family="sans-serif" font-size="11" font-style="italic" lengthAdjust="spacing" textLength="305" x="72" y="74.0151">[ComponentRender](out: any) : void | Promise&lt;void&gt;</text><ellipse cx="63" cy="83.6094" fill="#84BE84" rx="3" ry="3" style="stroke:#038048;stroke-width:1.0;"/><text fill="#000000" font-family="sans-serif" font-size="11" lengthAdjust="spacing" textLength="221" x="72" y="86.8198">[ComponentUpdate]() : Promise&lt;void&gt;</text><ellipse cx="63" cy="96.4141" fill="#84BE84" rx="3" ry="3" style="stroke:#038048;stroke-width:1.0;"/><text fill="#000000" font-family="sans-serif" font-size="11" lengthAdjust="spacing" textLength="248" x="72" y="99.6245">[ComponentVerify]() : void | Promise&lt;void&gt;</text><!--MD5=[6e76b2c188552a4c84ac9ebf3dde502c]
reverse link Component to AlibabaResourceOrchestrationServiceComponent<PropsType>--><path codeLine="16" d="M217.5,126.64 C217.5,139.91 217.5,153.54 217.5,165.98 " fill="none" id="Component-backto-AlibabaResourceOrchestrationServiceComponent&lt;PropsType&gt;" style="stroke:#A80036;stroke-width:1.0;"/><polygon fill="none" points="210.5,126.32,217.5,106.32,224.5,126.32,210.5,126.32" style="stroke:#A80036;stroke-width:1.0;"/><!--MD5=[69fdfa967391961001456662c7204e88]
@startuml
skinparam BackgroundColor transparent
hide empty methods
hide empty fields
abstract class "AlibabaResourceOrchestrationServiceComponent<PropsType>" {
    +[ComponentHandle] : Handle
    +[ComponentRender](output: any) : void
    +[ComponentUpdate]() : Promise<void>
    +[ComponentVerify]() : void | Promise<void>
}
abstract class "Component" {
    +[ComponentHandle] : Handle
    {abstract} +[ComponentRender](out: any) : void | Promise<void>
    +[ComponentUpdate]() : Promise<void>
    +[ComponentVerify]() : void | Promise<void>
}
"Component" <|- - "AlibabaResourceOrchestrationServiceComponent<PropsType>"
@enduml

PlantUML version 1.2021.14(Fri Nov 12 16:46:50 UTC 2021)
(GPL source distribution)
Java Runtime: OpenJDK Runtime Environment
JVM: OpenJDK 64-Bit Server VM
Default Encoding: UTF-8
Language: en
Country: null
--></g></svg>