<?xml version="1.0" encoding="UTF-8" standalone="no"?><svg xmlns="http://www.w3.org/2000/svg" xmlns:xlink="http://www.w3.org/1999/xlink" contentScriptType="application/ecmascript" contentStyleType="text/css" height="330px" preserveAspectRatio="none" style="width:352px;height:330px;background:#00000000;" version="1.1" viewBox="0 0 352 330" width="352px" zoomAndPan="magnify"><defs><filter height="300%" id="frt9jvb5hxm0t" width="300%" x="-1" y="-1"><feGaussianBlur result="blurOut" stdDeviation="2.0"/><feColorMatrix in="blurOut" result="blurOut2" type="matrix" values="0 0 0 0 0 0 0 0 0 0 0 0 0 0 0 0 0 0 .4 0"/><feOffset dx="4.0" dy="4.0" in="blurOut2" result="blurOut3"/><feBlend in="SourceGraphic" in2="blurOut3" mode="normal"/></filter></defs><g><!--MD5=[6db78307cb0c986cdbe572ae5f30b773]
class ArmBaseResource<PropsType>--><rect codeLine="4" fill="#FEFECE" filter="url(#frt9jvb5hxm0t)" height="150.4375" id="ArmBaseResource&lt;PropsType&gt;" style="stroke:#A80036;stroke-width:1.5;" width="261" x="42" y="166"/><ellipse cx="71.85" cy="182" fill="#A9DCDF" rx="11" ry="11" style="stroke:#A80036;stroke-width:1.0;"/><path d="M71.9594,177.3438 L70.8031,182.4219 L73.1313,182.4219 L71.9594,177.3438 Z M70.475,175.1094 L73.4594,175.1094 L76.8188,187.5 L74.3656,187.5 L73.6,184.4375 L70.3188,184.4375 L69.5688,187.5 L67.1313,187.5 L70.475,175.1094 Z " fill="#000000"/><text fill="#000000" font-family="sans-serif" font-size="12" font-style="italic" lengthAdjust="spacing" textLength="196" x="89.15" y="186.1543">ArmBaseResource&lt;PropsType&gt;</text><line style="stroke:#A80036;stroke-width:1.5;" x1="43" x2="302" y1="198" y2="198"/><ellipse cx="53" cy="209" rx="3" ry="3" style="stroke:#038048;stroke-width:1.0;fill:none;"/><text fill="#000000" font-family="sans-serif" font-size="11" lengthAdjust="spacing" textLength="105" x="62" y="212.2104">apiVersion : string</text><ellipse cx="53" cy="221.8047" rx="3" ry="3" style="stroke:#038048;stroke-width:1.0;fill:none;"/><text fill="#000000" font-family="sans-serif" font-size="11" lengthAdjust="spacing" textLength="77" x="62" y="225.0151">name : string</text><ellipse cx="53" cy="234.6094" rx="3" ry="3" style="stroke:#038048;stroke-width:1.0;fill:none;"/><text fill="#000000" font-family="sans-serif" font-size="11" lengthAdjust="spacing" textLength="131" x="62" y="237.8198">properties : PropsType</text><ellipse cx="53" cy="247.4141" rx="3" ry="3" style="stroke:#038048;stroke-width:1.0;fill:none;"/><text fill="#000000" font-family="sans-serif" font-size="11" lengthAdjust="spacing" textLength="69" x="62" y="250.6245">type : string</text><ellipse cx="53" cy="260.2188" rx="3" ry="3" style="stroke:#038048;stroke-width:1.0;fill:none;"/><text fill="#000000" font-family="sans-serif" font-size="11" lengthAdjust="spacing" textLength="163" x="62" y="263.4292">[ComponentHandle] : Handle</text><line style="stroke:#A80036;stroke-width:1.5;" x1="43" x2="302" y1="270.0234" y2="270.0234"/><ellipse cx="53" cy="281.0234" fill="#84BE84" rx="3" ry="3" style="stroke:#038048;stroke-width:1.0;"/><text fill="#000000" font-family="sans-serif" font-size="11" lengthAdjust="spacing" textLength="220" x="62" y="284.2339">[ComponentRender](output: any) : void</text><ellipse cx="53" cy="293.8281" fill="#84BE84" rx="3" ry="3" style="stroke:#038048;stroke-width:1.0;"/><text fill="#000000" font-family="sans-serif" font-size="11" lengthAdjust="spacing" textLength="221" x="62" y="297.0386">[ComponentUpdate]() : Promise&lt;void&gt;</text><ellipse cx="53" cy="306.6328" fill="#84BE84" rx="3" ry="3" style="stroke:#038048;stroke-width:1.0;"/><text fill="#000000" font-family="sans-serif" font-size="11" lengthAdjust="spacing" textLength="235" x="62" y="309.8433">[ComponentVerify]() : Promise&lt;boolean&gt;</text><!--MD5=[41d4fac774e0e723492089dc4b99a6f3]
class Resolvable--><rect codeLine="14" fill="#FEFECE" filter="url(#frt9jvb5hxm0t)" height="99.2188" id="Resolvable" style="stroke:#A80036;stroke-width:1.5;" width="331" x="7" y="7"/><ellipse cx="135.25" cy="23" fill="#A9DCDF" rx="11" ry="11" style="stroke:#A80036;stroke-width:1.0;"/><path d="M135.3594,18.3438 L134.2031,23.4219 L136.5313,23.4219 L135.3594,18.3438 Z M133.875,16.1094 L136.8594,16.1094 L140.2188,28.5 L137.7656,28.5 L137,25.4375 L133.7188,25.4375 L132.9688,28.5 L130.5313,28.5 L133.875,16.1094 Z " fill="#000000"/><text fill="#000000" font-family="sans-serif" font-size="12" font-style="italic" lengthAdjust="spacing" textLength="66" x="155.75" y="27.1543">Resolvable</text><line style="stroke:#A80036;stroke-width:1.5;" x1="8" x2="337" y1="39" y2="39"/><ellipse cx="18" cy="50" rx="3" ry="3" style="stroke:#038048;stroke-width:1.0;fill:none;"/><text fill="#000000" font-family="sans-serif" font-size="11" lengthAdjust="spacing" textLength="163" x="27" y="53.2104">[ComponentHandle] : Handle</text><line style="stroke:#A80036;stroke-width:1.5;" x1="8" x2="337" y1="59.8047" y2="59.8047"/><ellipse cx="18" cy="70.8047" fill="#84BE84" rx="3" ry="3" style="stroke:#038048;stroke-width:1.0;"/><text fill="#000000" font-family="sans-serif" font-size="11" font-style="italic" lengthAdjust="spacing" textLength="305" x="27" y="74.0151">[ComponentRender](out: any) : void | Promise&lt;void&gt;</text><ellipse cx="18" cy="83.6094" fill="#84BE84" rx="3" ry="3" style="stroke:#038048;stroke-width:1.0;"/><text fill="#000000" font-family="sans-serif" font-size="11" lengthAdjust="spacing" textLength="221" x="27" y="86.8198">[ComponentUpdate]() : Promise&lt;void&gt;</text><ellipse cx="18" cy="96.4141" fill="#84BE84" rx="3" ry="3" style="stroke:#038048;stroke-width:1.0;"/><text fill="#000000" font-family="sans-serif" font-size="11" lengthAdjust="spacing" textLength="235" x="27" y="99.6245">[ComponentVerify]() : Promise&lt;boolean&gt;</text><!--MD5=[0ada434a6fc57ce02e1b75328617f6ec]
reverse link Resolvable to ArmBaseResource<PropsType>--><path codeLine="20" d="M172.5,126.57 C172.5,139.42 172.5,152.89 172.5,165.88 " fill="none" id="Resolvable-backto-ArmBaseResource&lt;PropsType&gt;" style="stroke:#A80036;stroke-width:1.0;"/><polygon fill="none" points="165.5,126.41,172.5,106.41,179.5,126.41,165.5,126.41" style="stroke:#A80036;stroke-width:1.0;"/><!--MD5=[835342804ca0180ad563cd5127a84b77]
@startuml
skinparam BackgroundColor transparent
hide empty methods
hide empty fields
abstract class "ArmBaseResource<PropsType>" {
    +apiVersion : string
    +name : string
    +properties : PropsType
    +type : string
    +[ComponentHandle] : Handle
    +[ComponentRender](output: any) : void
    +[ComponentUpdate]() : Promise<void>
    +[ComponentVerify]() : Promise<boolean>
}
abstract class "Resolvable" {
    +[ComponentHandle] : Handle
    {abstract} +[ComponentRender](out: any) : void | Promise<void>
    +[ComponentUpdate]() : Promise<void>
    +[ComponentVerify]() : Promise<boolean>
}
"Resolvable" <|- - "ArmBaseResource<PropsType>"
@enduml

PlantUML version 1.2021.14(Fri Nov 12 16:46:50 UTC 2021)
(GPL source distribution)
Java Runtime: OpenJDK Runtime Environment
JVM: OpenJDK 64-Bit Server VM
Default Encoding: UTF-8
Language: en
Country: null
--></g></svg>