<?xml version="1.0" encoding="UTF-8" standalone="no"?><svg xmlns="http://www.w3.org/2000/svg" xmlns:xlink="http://www.w3.org/1999/xlink" contentScriptType="application/ecmascript" contentStyleType="text/css" height="489px" preserveAspectRatio="none" style="width:352px;height:489px;background:#00000000;" version="1.1" viewBox="0 0 352 489" width="352px" zoomAndPan="magnify"><defs><filter height="300%" id="f17rrf0hpvfynb" width="300%" x="-1" y="-1"><feGaussianBlur result="blurOut" stdDeviation="2.0"/><feColorMatrix in="blurOut" result="blurOut2" type="matrix" values="0 0 0 0 0 0 0 0 0 0 0 0 0 0 0 0 0 0 .4 0"/><feOffset dx="4.0" dy="4.0" in="blurOut2" result="blurOut3"/><feBlend in="SourceGraphic" in2="blurOut3" mode="normal"/></filter></defs><g><!--MD5=[30f5b541ec4659a2fd7c50e7543b8294]
class ArmComponent--><rect codeLine="4" fill="#FEFECE" filter="url(#f17rrf0hpvfynb)" height="99.2188" id="ArmComponent" style="stroke:#A80036;stroke-width:1.5;" width="331" x="7" y="166"/><ellipse cx="120.25" cy="182" fill="#A9DCDF" rx="11" ry="11" style="stroke:#A80036;stroke-width:1.0;"/><path d="M120.3594,177.3438 L119.2031,182.4219 L121.5313,182.4219 L120.3594,177.3438 Z M118.875,175.1094 L121.8594,175.1094 L125.2188,187.5 L122.7656,187.5 L122,184.4375 L118.7188,184.4375 L117.9688,187.5 L115.5313,187.5 L118.875,175.1094 Z " fill="#000000"/><text fill="#000000" font-family="sans-serif" font-size="12" font-style="italic" lengthAdjust="spacing" textLength="96" x="140.75" y="186.1543">ArmComponent</text><line style="stroke:#A80036;stroke-width:1.5;" x1="8" x2="337" y1="198" y2="198"/><ellipse cx="18" cy="209" rx="3" ry="3" style="stroke:#038048;stroke-width:1.0;fill:none;"/><text fill="#000000" font-family="sans-serif" font-size="11" lengthAdjust="spacing" textLength="163" x="27" y="212.2104">[ComponentHandle] : Handle</text><line style="stroke:#A80036;stroke-width:1.5;" x1="8" x2="337" y1="218.8047" y2="218.8047"/><ellipse cx="18" cy="229.8047" fill="#84BE84" rx="3" ry="3" style="stroke:#038048;stroke-width:1.0;"/><text fill="#000000" font-family="sans-serif" font-size="11" font-style="italic" lengthAdjust="spacing" textLength="305" x="27" y="233.0151">[ComponentRender](out: any) : void | Promise&lt;void&gt;</text><ellipse cx="18" cy="242.6094" fill="#84BE84" rx="3" ry="3" style="stroke:#038048;stroke-width:1.0;"/><text fill="#000000" font-family="sans-serif" font-size="11" lengthAdjust="spacing" textLength="221" x="27" y="245.8198">[ComponentUpdate]() : Promise&lt;void&gt;</text><ellipse cx="18" cy="255.4141" fill="#84BE84" rx="3" ry="3" style="stroke:#038048;stroke-width:1.0;"/><text fill="#000000" font-family="sans-serif" font-size="11" lengthAdjust="spacing" textLength="248" x="27" y="258.6245">[ComponentVerify]() : void | Promise&lt;void&gt;</text><!--MD5=[bc00f38760f5c998ab68abb0e19452fc]
class CloudComponent--><rect codeLine="10" fill="#FEFECE" filter="url(#f17rrf0hpvfynb)" height="99.2188" id="CloudComponent" style="stroke:#A80036;stroke-width:1.5;" width="331" x="7" y="7"/><ellipse cx="114.75" cy="23" fill="#A9DCDF" rx="11" ry="11" style="stroke:#A80036;stroke-width:1.0;"/><path d="M114.8594,18.3438 L113.7031,23.4219 L116.0313,23.4219 L114.8594,18.3438 Z M113.375,16.1094 L116.3594,16.1094 L119.7188,28.5 L117.2656,28.5 L116.5,25.4375 L113.2188,25.4375 L112.4688,28.5 L110.0313,28.5 L113.375,16.1094 Z " fill="#000000"/><text fill="#000000" font-family="sans-serif" font-size="12" font-style="italic" lengthAdjust="spacing" textLength="107" x="135.25" y="27.1543">CloudComponent</text><line style="stroke:#A80036;stroke-width:1.5;" x1="8" x2="337" y1="39" y2="39"/><ellipse cx="18" cy="50" rx="3" ry="3" style="stroke:#038048;stroke-width:1.0;fill:none;"/><text fill="#000000" font-family="sans-serif" font-size="11" lengthAdjust="spacing" textLength="163" x="27" y="53.2104">[ComponentHandle] : Handle</text><line style="stroke:#A80036;stroke-width:1.5;" x1="8" x2="337" y1="59.8047" y2="59.8047"/><ellipse cx="18" cy="70.8047" fill="#84BE84" rx="3" ry="3" style="stroke:#038048;stroke-width:1.0;"/><text fill="#000000" font-family="sans-serif" font-size="11" font-style="italic" lengthAdjust="spacing" textLength="305" x="27" y="74.0151">[ComponentRender](out: any) : void | Promise&lt;void&gt;</text><ellipse cx="18" cy="83.6094" fill="#84BE84" rx="3" ry="3" style="stroke:#038048;stroke-width:1.0;"/><text fill="#000000" font-family="sans-serif" font-size="11" lengthAdjust="spacing" textLength="221" x="27" y="86.8198">[ComponentUpdate]() : Promise&lt;void&gt;</text><ellipse cx="18" cy="96.4141" fill="#84BE84" rx="3" ry="3" style="stroke:#038048;stroke-width:1.0;"/><text fill="#000000" font-family="sans-serif" font-size="11" lengthAdjust="spacing" textLength="248" x="27" y="99.6245">[ComponentVerify]() : void | Promise&lt;void&gt;</text><!--MD5=[2132cc28dbf6457b9f213c6ae3e4cc21]
class ArmResource<void>--><rect codeLine="17" fill="#FEFECE" filter="url(#f17rrf0hpvfynb)" height="150.4375" id="ArmResource&lt;void&gt;" style="stroke:#A80036;stroke-width:1.5;" width="279" x="33" y="325"/><ellipse cx="104.75" cy="341" fill="#A9DCDF" rx="11" ry="11" style="stroke:#A80036;stroke-width:1.0;"/><path d="M104.8594,336.3438 L103.7031,341.4219 L106.0313,341.4219 L104.8594,336.3438 Z M103.375,334.1094 L106.3594,334.1094 L109.7188,346.5 L107.2656,346.5 L106.5,343.4375 L103.2188,343.4375 L102.4688,346.5 L100.0313,346.5 L103.375,334.1094 Z " fill="#000000"/><text fill="#000000" font-family="sans-serif" font-size="12" font-style="italic" lengthAdjust="spacing" textLength="127" x="125.25" y="345.1543">ArmResource&lt;void&gt;</text><line style="stroke:#A80036;stroke-width:1.5;" x1="34" x2="311" y1="357" y2="357"/><ellipse cx="44" cy="368" rx="3" ry="3" style="stroke:#038048;stroke-width:1.0;fill:none;"/><text fill="#000000" font-family="sans-serif" font-size="11" lengthAdjust="spacing" textLength="105" x="53" y="371.2104">apiVersion : string</text><ellipse cx="44" cy="380.8047" rx="3" ry="3" style="stroke:#038048;stroke-width:1.0;fill:none;"/><text fill="#000000" font-family="sans-serif" font-size="11" lengthAdjust="spacing" textLength="77" x="53" y="384.0151">name : string</text><ellipse cx="44" cy="393.6094" rx="3" ry="3" style="stroke:#038048;stroke-width:1.0;fill:none;"/><text fill="#000000" font-family="sans-serif" font-size="11" lengthAdjust="spacing" textLength="94" x="53" y="396.8198">properties : void</text><ellipse cx="44" cy="406.4141" rx="3" ry="3" style="stroke:#038048;stroke-width:1.0;fill:none;"/><text fill="#000000" font-family="sans-serif" font-size="11" lengthAdjust="spacing" textLength="69" x="53" y="409.6245">type : string</text><ellipse cx="44" cy="419.2188" rx="3" ry="3" style="stroke:#038048;stroke-width:1.0;fill:none;"/><text fill="#000000" font-family="sans-serif" font-size="11" lengthAdjust="spacing" textLength="163" x="53" y="422.4292">[ComponentHandle] : Handle</text><line style="stroke:#A80036;stroke-width:1.5;" x1="34" x2="311" y1="429.0234" y2="429.0234"/><ellipse cx="44" cy="440.0234" fill="#84BE84" rx="3" ry="3" style="stroke:#038048;stroke-width:1.0;"/><text fill="#000000" font-family="sans-serif" font-size="11" lengthAdjust="spacing" textLength="253" x="53" y="443.2339">[ComponentRender](output: Template) : void</text><ellipse cx="44" cy="452.8281" fill="#84BE84" rx="3" ry="3" style="stroke:#038048;stroke-width:1.0;"/><text fill="#000000" font-family="sans-serif" font-size="11" lengthAdjust="spacing" textLength="221" x="53" y="456.0386">[ComponentUpdate]() : Promise&lt;void&gt;</text><ellipse cx="44" cy="465.6328" fill="#84BE84" rx="3" ry="3" style="stroke:#038048;stroke-width:1.0;"/><text fill="#000000" font-family="sans-serif" font-size="11" lengthAdjust="spacing" textLength="248" x="53" y="468.8433">[ComponentVerify]() : void | Promise&lt;void&gt;</text><!--MD5=[c7be72ff7369bcdaf4fdd3c2d19cc8ca]
reverse link CloudComponent to ArmComponent--><path codeLine="16" d="M172.5,126.64 C172.5,139.91 172.5,153.54 172.5,165.98 " fill="none" id="CloudComponent-backto-ArmComponent" style="stroke:#A80036;stroke-width:1.0;"/><polygon fill="none" points="165.5,126.32,172.5,106.32,179.5,126.32,165.5,126.32" style="stroke:#A80036;stroke-width:1.0;"/><!--MD5=[ee8b695f3d3f9ba631f9ddb5d326b43f]
reverse link ArmComponent to ArmResource<void>--><path codeLine="27" d="M172.5,285.57 C172.5,298.42 172.5,311.89 172.5,324.88 " fill="none" id="ArmComponent-backto-ArmResource&lt;void&gt;" style="stroke:#A80036;stroke-width:1.0;"/><polygon fill="none" points="165.5,285.41,172.5,265.41,179.5,285.41,165.5,285.41" style="stroke:#A80036;stroke-width:1.0;"/><!--MD5=[d84dfb4f17ddf20cc522c9fddb2a14bf]
@startuml
skinparam BackgroundColor transparent
hide empty methods
hide empty fields
abstract class "ArmComponent" {
    +[ComponentHandle] : Handle
    {abstract} +[ComponentRender](out: any) : void | Promise<void>
    +[ComponentUpdate]() : Promise<void>
    +[ComponentVerify]() : void | Promise<void>
}
abstract class "CloudComponent" {
    +[ComponentHandle] : Handle
    {abstract} +[ComponentRender](out: any) : void | Promise<void>
    +[ComponentUpdate]() : Promise<void>
    +[ComponentVerify]() : void | Promise<void>
}
"CloudComponent" <|- - "ArmComponent"
abstract class "ArmResource<void>" {
    +apiVersion : string
    +name : string
    +properties : void
    +type : string
    +[ComponentHandle] : Handle
    +[ComponentRender](output: Template) : void
    +[ComponentUpdate]() : Promise<void>
    +[ComponentVerify]() : void | Promise<void>
}
"ArmComponent" <|- - "ArmResource<void>"
@enduml

PlantUML version 1.2021.14(Fri Nov 12 16:46:50 UTC 2021)
(GPL source distribution)
Java Runtime: OpenJDK Runtime Environment
JVM: OpenJDK 64-Bit Server VM
Default Encoding: UTF-8
Language: en
Country: null
--></g></svg>