<?xml version="1.0" encoding="UTF-8" standalone="no"?><svg xmlns="http://www.w3.org/2000/svg" xmlns:xlink="http://www.w3.org/1999/xlink" contentScriptType="application/ecmascript" contentStyleType="text/css" height="317px" preserveAspectRatio="none" style="width:300px;height:317px;background:#00000000;" version="1.1" viewBox="0 0 300 317" width="300px" zoomAndPan="magnify"><defs><filter height="300%" id="fust12h6net1w" width="300%" x="-1" y="-1"><feGaussianBlur result="blurOut" stdDeviation="2.0"/><feColorMatrix in="blurOut" result="blurOut2" type="matrix" values="0 0 0 0 0 0 0 0 0 0 0 0 0 0 0 0 0 0 .4 0"/><feOffset dx="4.0" dy="4.0" in="blurOut2" result="blurOut3"/><feBlend in="SourceGraphic" in2="blurOut3" mode="normal"/></filter></defs><g><!--MD5=[30f5b541ec4659a2fd7c50e7543b8294]
class ArmComponent--><rect codeLine="4" fill="#FEFECE" filter="url(#fust12h6net1w)" height="32" id="ArmComponent" style="stroke:#A80036;stroke-width:1.5;" width="128" x="82.5" y="99"/><ellipse cx="97.5" cy="115" fill="#A9DCDF" rx="11" ry="11" style="stroke:#A80036;stroke-width:1.0;"/><path d="M97.6094,110.3438 L96.4531,115.4219 L98.7813,115.4219 L97.6094,110.3438 Z M96.125,108.1094 L99.1094,108.1094 L102.4688,120.5 L100.0156,120.5 L99.25,117.4375 L95.9688,117.4375 L95.2188,120.5 L92.7813,120.5 L96.125,108.1094 Z " fill="#000000"/><text fill="#000000" font-family="sans-serif" font-size="12" font-style="italic" lengthAdjust="spacing" textLength="96" x="111.5" y="119.1543">ArmComponent</text><!--MD5=[bc00f38760f5c998ab68abb0e19452fc]
class CloudComponent--><rect codeLine="6" fill="#FEFECE" filter="url(#fust12h6net1w)" height="32" id="CloudComponent" style="stroke:#A80036;stroke-width:1.5;" width="139" x="77" y="7"/><ellipse cx="92" cy="23" fill="#A9DCDF" rx="11" ry="11" style="stroke:#A80036;stroke-width:1.0;"/><path d="M92.1094,18.3438 L90.9531,23.4219 L93.2813,23.4219 L92.1094,18.3438 Z M90.625,16.1094 L93.6094,16.1094 L96.9688,28.5 L94.5156,28.5 L93.75,25.4375 L90.4688,25.4375 L89.7188,28.5 L87.2813,28.5 L90.625,16.1094 Z " fill="#000000"/><text fill="#000000" font-family="sans-serif" font-size="12" font-style="italic" lengthAdjust="spacing" textLength="107" x="106" y="27.1543">CloudComponent</text><!--MD5=[2132cc28dbf6457b9f213c6ae3e4cc21]
class ArmResource<void>--><rect codeLine="9" fill="#FEFECE" filter="url(#fust12h6net1w)" height="112.0234" id="ArmResource&lt;void&gt;" style="stroke:#A80036;stroke-width:1.5;" width="279" x="7" y="191"/><ellipse cx="78.75" cy="207" fill="#A9DCDF" rx="11" ry="11" style="stroke:#A80036;stroke-width:1.0;"/><path d="M78.8594,202.3438 L77.7031,207.4219 L80.0313,207.4219 L78.8594,202.3438 Z M77.375,200.1094 L80.3594,200.1094 L83.7188,212.5 L81.2656,212.5 L80.5,209.4375 L77.2188,209.4375 L76.4688,212.5 L74.0313,212.5 L77.375,200.1094 Z " fill="#000000"/><text fill="#000000" font-family="sans-serif" font-size="12" font-style="italic" lengthAdjust="spacing" textLength="127" x="99.25" y="211.1543">ArmResource&lt;void&gt;</text><line style="stroke:#A80036;stroke-width:1.5;" x1="8" x2="285" y1="223" y2="223"/><ellipse cx="18" cy="234" rx="3" ry="3" style="stroke:#038048;stroke-width:1.0;fill:none;"/><text fill="#000000" font-family="sans-serif" font-size="11" lengthAdjust="spacing" textLength="105" x="27" y="237.2104">apiVersion : string</text><ellipse cx="18" cy="246.8047" rx="3" ry="3" style="stroke:#038048;stroke-width:1.0;fill:none;"/><text fill="#000000" font-family="sans-serif" font-size="11" lengthAdjust="spacing" textLength="77" x="27" y="250.0151">name : string</text><ellipse cx="18" cy="259.6094" rx="3" ry="3" style="stroke:#038048;stroke-width:1.0;fill:none;"/><text fill="#000000" font-family="sans-serif" font-size="11" lengthAdjust="spacing" textLength="94" x="27" y="262.8198">properties : void</text><ellipse cx="18" cy="272.4141" rx="3" ry="3" style="stroke:#038048;stroke-width:1.0;fill:none;"/><text fill="#000000" font-family="sans-serif" font-size="11" lengthAdjust="spacing" textLength="69" x="27" y="275.6245">type : string</text><line style="stroke:#A80036;stroke-width:1.5;" x1="8" x2="285" y1="282.2188" y2="282.2188"/><ellipse cx="18" cy="293.2188" fill="#84BE84" rx="3" ry="3" style="stroke:#038048;stroke-width:1.0;"/><text fill="#000000" font-family="sans-serif" font-size="11" lengthAdjust="spacing" textLength="253" x="27" y="296.4292">[ComponentRender](output: Template) : void</text><!--MD5=[c7be72ff7369bcdaf4fdd3c2d19cc8ca]
reverse link CloudComponent to ArmComponent--><path codeLine="8" d="M146.5,59.61 C146.5,73.31 146.5,88.22 146.5,98.96 " fill="none" id="CloudComponent-backto-ArmComponent" style="stroke:#A80036;stroke-width:1.0;"/><polygon fill="none" points="139.5,59.27,146.5,39.27,153.5,59.27,139.5,59.27" style="stroke:#A80036;stroke-width:1.0;"/><!--MD5=[ee8b695f3d3f9ba631f9ddb5d326b43f]
reverse link ArmComponent to ArmResource<void>--><path codeLine="16" d="M146.5,151.28 C146.5,163.5 146.5,177.5 146.5,190.93 " fill="none" id="ArmComponent-backto-ArmResource&lt;void&gt;" style="stroke:#A80036;stroke-width:1.0;"/><polygon fill="none" points="139.5,151.17,146.5,131.17,153.5,151.17,139.5,151.17" style="stroke:#A80036;stroke-width:1.0;"/><!--MD5=[a6793b752b5b2b5e45d97983f66edabd]
@startuml
skinparam BackgroundColor transparent
hide empty methods
hide empty fields
abstract class "ArmComponent" {
}
abstract class "CloudComponent" {
}
"CloudComponent" <|- - "ArmComponent"
abstract class "ArmResource<void>" {
    +apiVersion : string
    +name : string
    +properties : void
    +type : string
    +[ComponentRender](output: Template) : void
}
"ArmComponent" <|- - "ArmResource<void>"
@enduml

PlantUML version 1.2021.14(Fri Nov 12 16:46:50 UTC 2021)
(GPL source distribution)
Java Runtime: OpenJDK Runtime Environment
JVM: OpenJDK 64-Bit Server VM
Default Encoding: UTF-8
Language: en
Country: null
--></g></svg>