<?xml version="1.0" encoding="UTF-8" standalone="no"?><svg xmlns="http://www.w3.org/2000/svg" xmlns:xlink="http://www.w3.org/1999/xlink" contentScriptType="application/ecmascript" contentStyleType="text/css" height="225px" preserveAspectRatio="none" style="width:300px;height:225px;background:#00000000;" version="1.1" viewBox="0 0 300 225" width="300px" zoomAndPan="magnify"><defs><filter height="300%" id="f1qwvmngy7zb2e" width="300%" x="-1" y="-1"><feGaussianBlur result="blurOut" stdDeviation="2.0"/><feColorMatrix in="blurOut" result="blurOut2" type="matrix" values="0 0 0 0 0 0 0 0 0 0 0 0 0 0 0 0 0 0 .4 0"/><feOffset dx="4.0" dy="4.0" in="blurOut2" result="blurOut3"/><feBlend in="SourceGraphic" in2="blurOut3" mode="normal"/></filter></defs><g><!--MD5=[d681ab4d9e5b3200cb8dc35dfeabc0b5]
class ArmResource<PropsType>--><rect codeLine="4" fill="#FEFECE" filter="url(#f1qwvmngy7zb2e)" height="112.0234" id="ArmResource&lt;PropsType&gt;" style="stroke:#A80036;stroke-width:1.5;" width="279" x="7" y="99"/><ellipse cx="59.25" cy="115" fill="#A9DCDF" rx="11" ry="11" style="stroke:#A80036;stroke-width:1.0;"/><path d="M59.3594,110.3438 L58.2031,115.4219 L60.5313,115.4219 L59.3594,110.3438 Z M57.875,108.1094 L60.8594,108.1094 L64.2188,120.5 L61.7656,120.5 L61,117.4375 L57.7188,117.4375 L56.9688,120.5 L54.5313,120.5 L57.875,108.1094 Z " fill="#000000"/><text fill="#000000" font-family="sans-serif" font-size="12" font-style="italic" lengthAdjust="spacing" textLength="166" x="79.75" y="119.1543">ArmResource&lt;PropsType&gt;</text><line style="stroke:#A80036;stroke-width:1.5;" x1="8" x2="285" y1="131" y2="131"/><ellipse cx="18" cy="142" rx="3" ry="3" style="stroke:#038048;stroke-width:1.0;fill:none;"/><text fill="#000000" font-family="sans-serif" font-size="11" lengthAdjust="spacing" textLength="105" x="27" y="145.2104">apiVersion : string</text><ellipse cx="18" cy="154.8047" rx="3" ry="3" style="stroke:#038048;stroke-width:1.0;fill:none;"/><text fill="#000000" font-family="sans-serif" font-size="11" lengthAdjust="spacing" textLength="77" x="27" y="158.0151">name : string</text><ellipse cx="18" cy="167.6094" rx="3" ry="3" style="stroke:#038048;stroke-width:1.0;fill:none;"/><text fill="#000000" font-family="sans-serif" font-size="11" lengthAdjust="spacing" textLength="131" x="27" y="170.8198">properties : PropsType</text><ellipse cx="18" cy="180.4141" rx="3" ry="3" style="stroke:#038048;stroke-width:1.0;fill:none;"/><text fill="#000000" font-family="sans-serif" font-size="11" lengthAdjust="spacing" textLength="69" x="27" y="183.6245">type : string</text><line style="stroke:#A80036;stroke-width:1.5;" x1="8" x2="285" y1="190.2188" y2="190.2188"/><ellipse cx="18" cy="201.2188" fill="#84BE84" rx="3" ry="3" style="stroke:#038048;stroke-width:1.0;"/><text fill="#000000" font-family="sans-serif" font-size="11" lengthAdjust="spacing" textLength="253" x="27" y="204.4292">[ComponentRender](output: Template) : void</text><!--MD5=[30f5b541ec4659a2fd7c50e7543b8294]
class ArmComponent--><rect codeLine="11" fill="#FEFECE" filter="url(#f1qwvmngy7zb2e)" height="32" id="ArmComponent" style="stroke:#A80036;stroke-width:1.5;" width="128" x="82.5" y="7"/><ellipse cx="97.5" cy="23" fill="#A9DCDF" rx="11" ry="11" style="stroke:#A80036;stroke-width:1.0;"/><path d="M97.6094,18.3438 L96.4531,23.4219 L98.7813,23.4219 L97.6094,18.3438 Z M96.125,16.1094 L99.1094,16.1094 L102.4688,28.5 L100.0156,28.5 L99.25,25.4375 L95.9688,25.4375 L95.2188,28.5 L92.7813,28.5 L96.125,16.1094 Z " fill="#000000"/><text fill="#000000" font-family="sans-serif" font-size="12" font-style="italic" lengthAdjust="spacing" textLength="96" x="111.5" y="27.1543">ArmComponent</text><!--MD5=[9853c9ab17ad6d60b90b08e2d96fe1b4]
reverse link ArmComponent to ArmResource<PropsType>--><path codeLine="13" d="M146.5,59.28 C146.5,71.5 146.5,85.5 146.5,98.93 " fill="none" id="ArmComponent-backto-ArmResource&lt;PropsType&gt;" style="stroke:#A80036;stroke-width:1.0;"/><polygon fill="none" points="139.5,59.17,146.5,39.17,153.5,59.17,139.5,59.17" style="stroke:#A80036;stroke-width:1.0;"/><!--MD5=[fa4953f65c9a649a6364037c62f9d8e3]
@startuml
skinparam BackgroundColor transparent
hide empty methods
hide empty fields
abstract class "ArmResource<PropsType>" {
    +apiVersion : string
    +name : string
    +properties : PropsType
    +type : string
    +[ComponentRender](output: Template) : void
}
abstract class "ArmComponent" {
}
"ArmComponent" <|- - "ArmResource<PropsType>"
@enduml

PlantUML version 1.2021.14(Fri Nov 12 16:46:50 UTC 2021)
(GPL source distribution)
Java Runtime: OpenJDK Runtime Environment
JVM: OpenJDK 64-Bit Server VM
Default Encoding: UTF-8
Language: en
Country: null
--></g></svg>