<?xml version="1.0" encoding="UTF-8" standalone="no"?><svg xmlns="http://www.w3.org/2000/svg" xmlns:xlink="http://www.w3.org/1999/xlink" contentScriptType="application/ecmascript" contentStyleType="text/css" height="330px" preserveAspectRatio="none" style="width:352px;height:330px;background:#00000000;" version="1.1" viewBox="0 0 352 330" width="352px" zoomAndPan="magnify"><defs><filter height="300%" id="f1h01m8jqpmhxb" width="300%" x="-1" y="-1"><feGaussianBlur result="blurOut" stdDeviation="2.0"/><feColorMatrix in="blurOut" result="blurOut2" type="matrix" values="0 0 0 0 0 0 0 0 0 0 0 0 0 0 0 0 0 0 .4 0"/><feOffset dx="4.0" dy="4.0" in="blurOut2" result="blurOut3"/><feBlend in="SourceGraphic" in2="blurOut3" mode="normal"/></filter></defs><g><!--MD5=[d681ab4d9e5b3200cb8dc35dfeabc0b5]
class ArmResource<PropsType>--><rect codeLine="4" fill="#FEFECE" filter="url(#f1h01m8jqpmhxb)" height="150.4375" id="ArmResource&lt;PropsType&gt;" style="stroke:#A80036;stroke-width:1.5;" width="279" x="33" y="166"/><ellipse cx="85.25" cy="182" fill="#A9DCDF" rx="11" ry="11" style="stroke:#A80036;stroke-width:1.0;"/><path d="M85.3594,177.3438 L84.2031,182.4219 L86.5313,182.4219 L85.3594,177.3438 Z M83.875,175.1094 L86.8594,175.1094 L90.2188,187.5 L87.7656,187.5 L87,184.4375 L83.7188,184.4375 L82.9688,187.5 L80.5313,187.5 L83.875,175.1094 Z " fill="#000000"/><text fill="#000000" font-family="sans-serif" font-size="12" font-style="italic" lengthAdjust="spacing" textLength="166" x="105.75" y="186.1543">ArmResource&lt;PropsType&gt;</text><line style="stroke:#A80036;stroke-width:1.5;" x1="34" x2="311" y1="198" y2="198"/><ellipse cx="44" cy="209" rx="3" ry="3" style="stroke:#038048;stroke-width:1.0;fill:none;"/><text fill="#000000" font-family="sans-serif" font-size="11" lengthAdjust="spacing" textLength="105" x="53" y="212.2104">apiVersion : string</text><ellipse cx="44" cy="221.8047" rx="3" ry="3" style="stroke:#038048;stroke-width:1.0;fill:none;"/><text fill="#000000" font-family="sans-serif" font-size="11" lengthAdjust="spacing" textLength="77" x="53" y="225.0151">name : string</text><ellipse cx="44" cy="234.6094" rx="3" ry="3" style="stroke:#038048;stroke-width:1.0;fill:none;"/><text fill="#000000" font-family="sans-serif" font-size="11" lengthAdjust="spacing" textLength="131" x="53" y="237.8198">properties : PropsType</text><ellipse cx="44" cy="247.4141" rx="3" ry="3" style="stroke:#038048;stroke-width:1.0;fill:none;"/><text fill="#000000" font-family="sans-serif" font-size="11" lengthAdjust="spacing" textLength="69" x="53" y="250.6245">type : string</text><ellipse cx="44" cy="260.2188" rx="3" ry="3" style="stroke:#038048;stroke-width:1.0;fill:none;"/><text fill="#000000" font-family="sans-serif" font-size="11" lengthAdjust="spacing" textLength="163" x="53" y="263.4292">[ComponentHandle] : Handle</text><line style="stroke:#A80036;stroke-width:1.5;" x1="34" x2="311" y1="270.0234" y2="270.0234"/><ellipse cx="44" cy="281.0234" fill="#84BE84" rx="3" ry="3" style="stroke:#038048;stroke-width:1.0;"/><text fill="#000000" font-family="sans-serif" font-size="11" lengthAdjust="spacing" textLength="253" x="53" y="284.2339">[ComponentRender](output: Template) : void</text><ellipse cx="44" cy="293.8281" fill="#84BE84" rx="3" ry="3" style="stroke:#038048;stroke-width:1.0;"/><text fill="#000000" font-family="sans-serif" font-size="11" lengthAdjust="spacing" textLength="221" x="53" y="297.0386">[ComponentUpdate]() : Promise&lt;void&gt;</text><ellipse cx="44" cy="306.6328" fill="#84BE84" rx="3" ry="3" style="stroke:#038048;stroke-width:1.0;"/><text fill="#000000" font-family="sans-serif" font-size="11" lengthAdjust="spacing" textLength="248" x="53" y="309.8433">[ComponentVerify]() : void | Promise&lt;void&gt;</text><!--MD5=[30f5b541ec4659a2fd7c50e7543b8294]
class ArmComponent--><rect codeLine="14" fill="#FEFECE" filter="url(#f1h01m8jqpmhxb)" height="99.2188" id="ArmComponent" style="stroke:#A80036;stroke-width:1.5;" width="331" x="7" y="7"/><ellipse cx="120.25" cy="23" fill="#A9DCDF" rx="11" ry="11" style="stroke:#A80036;stroke-width:1.0;"/><path d="M120.3594,18.3438 L119.2031,23.4219 L121.5313,23.4219 L120.3594,18.3438 Z M118.875,16.1094 L121.8594,16.1094 L125.2188,28.5 L122.7656,28.5 L122,25.4375 L118.7188,25.4375 L117.9688,28.5 L115.5313,28.5 L118.875,16.1094 Z " fill="#000000"/><text fill="#000000" font-family="sans-serif" font-size="12" font-style="italic" lengthAdjust="spacing" textLength="96" x="140.75" y="27.1543">ArmComponent</text><line style="stroke:#A80036;stroke-width:1.5;" x1="8" x2="337" y1="39" y2="39"/><ellipse cx="18" cy="50" rx="3" ry="3" style="stroke:#038048;stroke-width:1.0;fill:none;"/><text fill="#000000" font-family="sans-serif" font-size="11" lengthAdjust="spacing" textLength="163" x="27" y="53.2104">[ComponentHandle] : Handle</text><line style="stroke:#A80036;stroke-width:1.5;" x1="8" x2="337" y1="59.8047" y2="59.8047"/><ellipse cx="18" cy="70.8047" fill="#84BE84" rx="3" ry="3" style="stroke:#038048;stroke-width:1.0;"/><text fill="#000000" font-family="sans-serif" font-size="11" font-style="italic" lengthAdjust="spacing" textLength="305" x="27" y="74.0151">[ComponentRender](out: any) : void | Promise&lt;void&gt;</text><ellipse cx="18" cy="83.6094" fill="#84BE84" rx="3" ry="3" style="stroke:#038048;stroke-width:1.0;"/><text fill="#000000" font-family="sans-serif" font-size="11" lengthAdjust="spacing" textLength="221" x="27" y="86.8198">[ComponentUpdate]() : Promise&lt;void&gt;</text><ellipse cx="18" cy="96.4141" fill="#84BE84" rx="3" ry="3" style="stroke:#038048;stroke-width:1.0;"/><text fill="#000000" font-family="sans-serif" font-size="11" lengthAdjust="spacing" textLength="248" x="27" y="99.6245">[ComponentVerify]() : void | Promise&lt;void&gt;</text><!--MD5=[9853c9ab17ad6d60b90b08e2d96fe1b4]
reverse link ArmComponent to ArmResource<PropsType>--><path codeLine="20" d="M172.5,126.57 C172.5,139.42 172.5,152.89 172.5,165.88 " fill="none" id="ArmComponent-backto-ArmResource&lt;PropsType&gt;" style="stroke:#A80036;stroke-width:1.0;"/><polygon fill="none" points="165.5,126.41,172.5,106.41,179.5,126.41,165.5,126.41" style="stroke:#A80036;stroke-width:1.0;"/><!--MD5=[3c9f4ae63a2273d54337fc3f9a37e550]
@startuml
skinparam BackgroundColor transparent
hide empty methods
hide empty fields
abstract class "ArmResource<PropsType>" {
    +apiVersion : string
    +name : string
    +properties : PropsType
    +type : string
    +[ComponentHandle] : Handle
    +[ComponentRender](output: Template) : void
    +[ComponentUpdate]() : Promise<void>
    +[ComponentVerify]() : void | Promise<void>
}
abstract class "ArmComponent" {
    +[ComponentHandle] : Handle
    {abstract} +[ComponentRender](out: any) : void | Promise<void>
    +[ComponentUpdate]() : Promise<void>
    +[ComponentVerify]() : void | Promise<void>
}
"ArmComponent" <|- - "ArmResource<PropsType>"
@enduml

PlantUML version 1.2021.14(Fri Nov 12 16:46:50 UTC 2021)
(GPL source distribution)
Java Runtime: OpenJDK Runtime Environment
JVM: OpenJDK 64-Bit Server VM
Default Encoding: UTF-8
Language: en
Country: null
--></g></svg>