<?xml version="1.0" encoding="UTF-8" standalone="no"?><svg xmlns="http://www.w3.org/2000/svg" xmlns:xlink="http://www.w3.org/1999/xlink" contentScriptType="application/ecmascript" contentStyleType="text/css" height="191px" preserveAspectRatio="none" style="width:274px;height:191px;background:#00000000;" version="1.1" viewBox="0 0 274 191" width="274px" zoomAndPan="magnify"><defs><filter height="300%" id="f19vnnlg0axfz1" width="300%" x="-1" y="-1"><feGaussianBlur result="blurOut" stdDeviation="2.0"/><feColorMatrix in="blurOut" result="blurOut2" type="matrix" values="0 0 0 0 0 0 0 0 0 0 0 0 0 0 0 0 0 0 .4 0"/><feOffset dx="4.0" dy="4.0" in="blurOut2" result="blurOut3"/><feBlend in="SourceGraphic" in2="blurOut3" mode="normal"/></filter></defs><g><!--MD5=[af02f0d337078dcde1f9aa32f35b9ebc]
class ArmScene--><rect codeLine="4" fill="#FEFECE" filter="url(#f19vnnlg0axfz1)" height="78.4141" id="ArmScene" style="stroke:#A80036;stroke-width:1.5;" width="253" x="7" y="99"/><ellipse cx="97.75" cy="115" fill="#ADD1B2" rx="11" ry="11" style="stroke:#A80036;stroke-width:1.0;"/><path d="M100.7188,120.6406 Q100.1406,120.9375 99.5,121.0781 Q98.8594,121.2344 98.1563,121.2344 Q95.6563,121.2344 94.3281,119.5938 Q93.0156,117.9375 93.0156,114.8125 Q93.0156,111.6875 94.3281,110.0313 Q95.6563,108.375 98.1563,108.375 Q98.8594,108.375 99.5,108.5313 Q100.1563,108.6875 100.7188,108.9844 L100.7188,111.7031 Q100.0938,111.125 99.5,110.8594 Q98.9063,110.5781 98.2813,110.5781 Q96.9375,110.5781 96.25,111.6563 Q95.5625,112.7188 95.5625,114.8125 Q95.5625,116.9063 96.25,117.9844 Q96.9375,119.0469 98.2813,119.0469 Q98.9063,119.0469 99.5,118.7813 Q100.0938,118.5 100.7188,117.9219 L100.7188,120.6406 Z " fill="#000000"/><text fill="#000000" font-family="sans-serif" font-size="12" lengthAdjust="spacing" textLength="63" x="118.25" y="119.1543">ArmScene</text><line style="stroke:#A80036;stroke-width:1.5;" x1="8" x2="259" y1="131" y2="131"/><ellipse cx="18" cy="142" fill="#84BE84" rx="3" ry="3" style="stroke:#038048;stroke-width:1.0;"/><text fill="#000000" font-family="sans-serif" font-size="11" lengthAdjust="spacing" textLength="108" x="27" y="145.2104">empty() : Template</text><ellipse cx="18" cy="154.8047" fill="#84BE84" rx="3" ry="3" style="stroke:#038048;stroke-width:1.0;"/><text fill="#000000" font-family="sans-serif" font-size="11" lengthAdjust="spacing" textLength="227" x="27" y="158.0151">filter(component: Component) : boolean</text><ellipse cx="18" cy="167.6094" fill="#84BE84" rx="3" ry="3" style="stroke:#038048;stroke-width:1.0;"/><text fill="#000000" font-family="sans-serif" font-size="11" lengthAdjust="spacing" textLength="221" x="27" y="170.8198">update(token: Token&lt;any, any&gt;) : void</text><!--MD5=[effa4f851d4b5ff2cb787c330b681cb8]
class CloudScene--><rect codeLine="9" fill="#FEFECE" filter="url(#f19vnnlg0axfz1)" height="32" id="CloudScene" style="stroke:#A80036;stroke-width:1.5;" width="106" x="80.5" y="7"/><ellipse cx="95.5" cy="23" fill="#A9DCDF" rx="11" ry="11" style="stroke:#A80036;stroke-width:1.0;"/><path d="M95.6094,18.3438 L94.4531,23.4219 L96.7813,23.4219 L95.6094,18.3438 Z M94.125,16.1094 L97.1094,16.1094 L100.4688,28.5 L98.0156,28.5 L97.25,25.4375 L93.9688,25.4375 L93.2188,28.5 L90.7813,28.5 L94.125,16.1094 Z " fill="#000000"/><text fill="#000000" font-family="sans-serif" font-size="12" font-style="italic" lengthAdjust="spacing" textLength="74" x="109.5" y="27.1543">CloudScene</text><!--MD5=[c09e78d60b0ac51814d16ca2d2446bb5]
reverse link CloudScene to ArmScene--><path codeLine="11" d="M133.5,59.36 C133.5,71.86 133.5,85.98 133.5,98.72 " fill="none" id="CloudScene-backto-ArmScene" style="stroke:#A80036;stroke-width:1.0;"/><polygon fill="none" points="126.5,59.24,133.5,39.24,140.5,59.24,126.5,59.24" style="stroke:#A80036;stroke-width:1.0;"/><!--MD5=[61d4ff93f3acbf8f39ba535b78195c20]
@startuml
skinparam BackgroundColor transparent
hide empty methods
hide empty fields
class "ArmScene" {
    +empty() : Template
    +filter(component: Component) : boolean
    +update(token: Token<any, any>) : void
}
abstract class "CloudScene" {
}
"CloudScene" <|- - "ArmScene"
@enduml

PlantUML version 1.2021.14(Fri Nov 12 16:46:50 UTC 2021)
(GPL source distribution)
Java Runtime: OpenJDK Runtime Environment
JVM: OpenJDK 64-Bit Server VM
Default Encoding: UTF-8
Language: en
Country: null
--></g></svg>