<?xml version="1.0" encoding="UTF-8" standalone="no"?><svg xmlns="http://www.w3.org/2000/svg" xmlns:xlink="http://www.w3.org/1999/xlink" contentScriptType="application/ecmascript" contentStyleType="text/css" height="279px" preserveAspectRatio="none" style="width:352px;height:279px;background:#00000000;" version="1.1" viewBox="0 0 352 279" width="352px" zoomAndPan="magnify"><defs><filter height="300%" id="f14pxe420iahy5" width="300%" x="-1" y="-1"><feGaussianBlur result="blurOut" stdDeviation="2.0"/><feColorMatrix in="blurOut" result="blurOut2" type="matrix" values="0 0 0 0 0 0 0 0 0 0 0 0 0 0 0 0 0 0 .4 0"/><feOffset dx="4.0" dy="4.0" in="blurOut2" result="blurOut3"/><feBlend in="SourceGraphic" in2="blurOut3" mode="normal"/></filter></defs><g><!--MD5=[f835b7ffeb4a4a7375770078f3ed013b]
class AWSCloudFormationComponent<PropsType>--><rect codeLine="4" fill="#FEFECE" filter="url(#f14pxe420iahy5)" height="99.2188" id="AWSCloudFormationComponent&lt;PropsType&gt;" style="stroke:#A80036;stroke-width:1.5;" width="314" x="15.5" y="166"/><ellipse cx="30.5" cy="182" fill="#A9DCDF" rx="11" ry="11" style="stroke:#A80036;stroke-width:1.0;"/><path d="M30.6094,177.3438 L29.4531,182.4219 L31.7813,182.4219 L30.6094,177.3438 Z M29.125,175.1094 L32.1094,175.1094 L35.4688,187.5 L33.0156,187.5 L32.25,184.4375 L28.9688,184.4375 L28.2188,187.5 L25.7813,187.5 L29.125,175.1094 Z " fill="#000000"/><text fill="#000000" font-family="sans-serif" font-size="12" font-style="italic" lengthAdjust="spacing" textLength="282" x="44.5" y="186.1543">AWSCloudFormationComponent&lt;PropsType&gt;</text><line style="stroke:#A80036;stroke-width:1.5;" x1="16.5" x2="328.5" y1="198" y2="198"/><ellipse cx="26.5" cy="209" rx="3" ry="3" style="stroke:#038048;stroke-width:1.0;fill:none;"/><text fill="#000000" font-family="sans-serif" font-size="11" lengthAdjust="spacing" textLength="163" x="35.5" y="212.2104">[ComponentHandle] : Handle</text><line style="stroke:#A80036;stroke-width:1.5;" x1="16.5" x2="328.5" y1="218.8047" y2="218.8047"/><ellipse cx="26.5" cy="229.8047" fill="#84BE84" rx="3" ry="3" style="stroke:#038048;stroke-width:1.0;"/><text fill="#000000" font-family="sans-serif" font-size="11" lengthAdjust="spacing" textLength="285" x="35.5" y="233.0151">[ComponentRender](output: any) : Promise&lt;void&gt;</text><ellipse cx="26.5" cy="242.6094" fill="#84BE84" rx="3" ry="3" style="stroke:#038048;stroke-width:1.0;"/><text fill="#000000" font-family="sans-serif" font-size="11" lengthAdjust="spacing" textLength="221" x="35.5" y="245.8198">[ComponentUpdate]() : Promise&lt;void&gt;</text><ellipse cx="26.5" cy="255.4141" fill="#84BE84" rx="3" ry="3" style="stroke:#038048;stroke-width:1.0;"/><text fill="#000000" font-family="sans-serif" font-size="11" lengthAdjust="spacing" textLength="248" x="35.5" y="258.6245">[ComponentVerify]() : void | Promise&lt;void&gt;</text><!--MD5=[4e13963c9dc916a21a8436ef39422b32]
class Component--><rect codeLine="10" fill="#FEFECE" filter="url(#f14pxe420iahy5)" height="99.2188" id="Component" style="stroke:#A80036;stroke-width:1.5;" width="331" x="7" y="7"/><ellipse cx="132.25" cy="23" fill="#A9DCDF" rx="11" ry="11" style="stroke:#A80036;stroke-width:1.0;"/><path d="M132.3594,18.3438 L131.2031,23.4219 L133.5313,23.4219 L132.3594,18.3438 Z M130.875,16.1094 L133.8594,16.1094 L137.2188,28.5 L134.7656,28.5 L134,25.4375 L130.7188,25.4375 L129.9688,28.5 L127.5313,28.5 L130.875,16.1094 Z " fill="#000000"/><text fill="#000000" font-family="sans-serif" font-size="12" font-style="italic" lengthAdjust="spacing" textLength="72" x="152.75" y="27.1543">Component</text><line style="stroke:#A80036;stroke-width:1.5;" x1="8" x2="337" y1="39" y2="39"/><ellipse cx="18" cy="50" rx="3" ry="3" style="stroke:#038048;stroke-width:1.0;fill:none;"/><text fill="#000000" font-family="sans-serif" font-size="11" lengthAdjust="spacing" textLength="163" x="27" y="53.2104">[ComponentHandle] : Handle</text><line style="stroke:#A80036;stroke-width:1.5;" x1="8" x2="337" y1="59.8047" y2="59.8047"/><ellipse cx="18" cy="70.8047" fill="#84BE84" rx="3" ry="3" style="stroke:#038048;stroke-width:1.0;"/><text fill="#000000" font-family="sans-serif" font-size="11" font-style="italic" lengthAdjust="spacing" textLength="305" x="27" y="74.0151">[ComponentRender](out: any) : void | Promise&lt;void&gt;</text><ellipse cx="18" cy="83.6094" fill="#84BE84" rx="3" ry="3" style="stroke:#038048;stroke-width:1.0;"/><text fill="#000000" font-family="sans-serif" font-size="11" lengthAdjust="spacing" textLength="221" x="27" y="86.8198">[ComponentUpdate]() : Promise&lt;void&gt;</text><ellipse cx="18" cy="96.4141" fill="#84BE84" rx="3" ry="3" style="stroke:#038048;stroke-width:1.0;"/><text fill="#000000" font-family="sans-serif" font-size="11" lengthAdjust="spacing" textLength="248" x="27" y="99.6245">[ComponentVerify]() : void | Promise&lt;void&gt;</text><!--MD5=[ed14069b8b13099f77b6d76ae55a935d]
reverse link Component to AWSCloudFormationComponent<PropsType>--><path codeLine="16" d="M172.5,126.64 C172.5,139.91 172.5,153.54 172.5,165.98 " fill="none" id="Component-backto-AWSCloudFormationComponent&lt;PropsType&gt;" style="stroke:#A80036;stroke-width:1.0;"/><polygon fill="none" points="165.5,126.32,172.5,106.32,179.5,126.32,165.5,126.32" style="stroke:#A80036;stroke-width:1.0;"/><!--MD5=[efe8e924c8e21c943f8de38b9b927c52]
@startuml
skinparam BackgroundColor transparent
hide empty methods
hide empty fields
abstract class "AWSCloudFormationComponent<PropsType>" {
    +[ComponentHandle] : Handle
    +[ComponentRender](output: any) : Promise<void>
    +[ComponentUpdate]() : Promise<void>
    +[ComponentVerify]() : void | Promise<void>
}
abstract class "Component" {
    +[ComponentHandle] : Handle
    {abstract} +[ComponentRender](out: any) : void | Promise<void>
    +[ComponentUpdate]() : Promise<void>
    +[ComponentVerify]() : void | Promise<void>
}
"Component" <|- - "AWSCloudFormationComponent<PropsType>"
@enduml

PlantUML version 1.2021.14(Fri Nov 12 16:46:50 UTC 2021)
(GPL source distribution)
Java Runtime: OpenJDK Runtime Environment
JVM: OpenJDK 64-Bit Server VM
Default Encoding: UTF-8
Language: en
Country: null
--></g></svg>