<?xml version="1.0" encoding="UTF-8" standalone="no"?><svg xmlns="http://www.w3.org/2000/svg" xmlns:xlink="http://www.w3.org/1999/xlink" contentScriptType="application/ecmascript" contentStyleType="text/css" height="330px" preserveAspectRatio="none" style="width:357px;height:330px;background:#00000000;" version="1.1" viewBox="0 0 357 330" width="357px" zoomAndPan="magnify"><defs><filter height="300%" id="f1ois0yam3ucw7" width="300%" x="-1" y="-1"><feGaussianBlur result="blurOut" stdDeviation="2.0"/><feColorMatrix in="blurOut" result="blurOut2" type="matrix" values="0 0 0 0 0 0 0 0 0 0 0 0 0 0 0 0 0 0 .4 0"/><feOffset dx="4.0" dy="4.0" in="blurOut2" result="blurOut3"/><feBlend in="SourceGraphic" in2="blurOut3" mode="normal"/></filter></defs><g><!--MD5=[98491600c9cf892ad8212f9aeb525910]
class AzureResourceManagerComponent<PropsType>--><rect codeLine="4" fill="#FEFECE" filter="url(#f1ois0yam3ucw7)" height="150.4375" id="AzureResourceManagerComponent&lt;PropsType&gt;" style="stroke:#A80036;stroke-width:1.5;" width="336" x="7" y="166"/><ellipse cx="22" cy="182" fill="#A9DCDF" rx="11" ry="11" style="stroke:#A80036;stroke-width:1.0;"/><path d="M22.1094,177.3438 L20.9531,182.4219 L23.2813,182.4219 L22.1094,177.3438 Z M20.625,175.1094 L23.6094,175.1094 L26.9688,187.5 L24.5156,187.5 L23.75,184.4375 L20.4688,184.4375 L19.7188,187.5 L17.2813,187.5 L20.625,175.1094 Z " fill="#000000"/><text fill="#000000" font-family="sans-serif" font-size="12" font-style="italic" lengthAdjust="spacing" textLength="304" x="36" y="186.1543">AzureResourceManagerComponent&lt;PropsType&gt;</text><line style="stroke:#A80036;stroke-width:1.5;" x1="8" x2="342" y1="198" y2="198"/><ellipse cx="18" cy="209" rx="3" ry="3" style="stroke:#038048;stroke-width:1.0;fill:none;"/><text fill="#000000" font-family="sans-serif" font-size="11" lengthAdjust="spacing" textLength="105" x="27" y="212.2104">apiVersion : string</text><ellipse cx="18" cy="221.8047" rx="3" ry="3" style="stroke:#038048;stroke-width:1.0;fill:none;"/><text fill="#000000" font-family="sans-serif" font-size="11" lengthAdjust="spacing" textLength="77" x="27" y="225.0151">name : string</text><ellipse cx="18" cy="234.6094" rx="3" ry="3" style="stroke:#038048;stroke-width:1.0;fill:none;"/><text fill="#000000" font-family="sans-serif" font-size="11" lengthAdjust="spacing" textLength="131" x="27" y="237.8198">properties : PropsType</text><ellipse cx="18" cy="247.4141" rx="3" ry="3" style="stroke:#038048;stroke-width:1.0;fill:none;"/><text fill="#000000" font-family="sans-serif" font-size="11" lengthAdjust="spacing" textLength="69" x="27" y="250.6245">type : string</text><ellipse cx="18" cy="260.2188" rx="3" ry="3" style="stroke:#038048;stroke-width:1.0;fill:none;"/><text fill="#000000" font-family="sans-serif" font-size="11" lengthAdjust="spacing" textLength="163" x="27" y="263.4292">[ComponentHandle] : Handle</text><line style="stroke:#A80036;stroke-width:1.5;" x1="8" x2="342" y1="270.0234" y2="270.0234"/><ellipse cx="18" cy="281.0234" fill="#84BE84" rx="3" ry="3" style="stroke:#038048;stroke-width:1.0;"/><text fill="#000000" font-family="sans-serif" font-size="11" lengthAdjust="spacing" textLength="220" x="27" y="284.2339">[ComponentRender](output: any) : void</text><ellipse cx="18" cy="293.8281" fill="#84BE84" rx="3" ry="3" style="stroke:#038048;stroke-width:1.0;"/><text fill="#000000" font-family="sans-serif" font-size="11" lengthAdjust="spacing" textLength="221" x="27" y="297.0386">[ComponentUpdate]() : Promise&lt;void&gt;</text><ellipse cx="18" cy="306.6328" fill="#84BE84" rx="3" ry="3" style="stroke:#038048;stroke-width:1.0;"/><text fill="#000000" font-family="sans-serif" font-size="11" lengthAdjust="spacing" textLength="248" x="27" y="309.8433">[ComponentVerify]() : void | Promise&lt;void&gt;</text><!--MD5=[4e13963c9dc916a21a8436ef39422b32]
class Component--><rect codeLine="14" fill="#FEFECE" filter="url(#f1ois0yam3ucw7)" height="99.2188" id="Component" style="stroke:#A80036;stroke-width:1.5;" width="331" x="9.5" y="7"/><ellipse cx="134.75" cy="23" fill="#A9DCDF" rx="11" ry="11" style="stroke:#A80036;stroke-width:1.0;"/><path d="M134.8594,18.3438 L133.7031,23.4219 L136.0313,23.4219 L134.8594,18.3438 Z M133.375,16.1094 L136.3594,16.1094 L139.7188,28.5 L137.2656,28.5 L136.5,25.4375 L133.2188,25.4375 L132.4688,28.5 L130.0313,28.5 L133.375,16.1094 Z " fill="#000000"/><text fill="#000000" font-family="sans-serif" font-size="12" font-style="italic" lengthAdjust="spacing" textLength="72" x="155.25" y="27.1543">Component</text><line style="stroke:#A80036;stroke-width:1.5;" x1="10.5" x2="339.5" y1="39" y2="39"/><ellipse cx="20.5" cy="50" rx="3" ry="3" style="stroke:#038048;stroke-width:1.0;fill:none;"/><text fill="#000000" font-family="sans-serif" font-size="11" lengthAdjust="spacing" textLength="163" x="29.5" y="53.2104">[ComponentHandle] : Handle</text><line style="stroke:#A80036;stroke-width:1.5;" x1="10.5" x2="339.5" y1="59.8047" y2="59.8047"/><ellipse cx="20.5" cy="70.8047" fill="#84BE84" rx="3" ry="3" style="stroke:#038048;stroke-width:1.0;"/><text fill="#000000" font-family="sans-serif" font-size="11" font-style="italic" lengthAdjust="spacing" textLength="305" x="29.5" y="74.0151">[ComponentRender](out: any) : void | Promise&lt;void&gt;</text><ellipse cx="20.5" cy="83.6094" fill="#84BE84" rx="3" ry="3" style="stroke:#038048;stroke-width:1.0;"/><text fill="#000000" font-family="sans-serif" font-size="11" lengthAdjust="spacing" textLength="221" x="29.5" y="86.8198">[ComponentUpdate]() : Promise&lt;void&gt;</text><ellipse cx="20.5" cy="96.4141" fill="#84BE84" rx="3" ry="3" style="stroke:#038048;stroke-width:1.0;"/><text fill="#000000" font-family="sans-serif" font-size="11" lengthAdjust="spacing" textLength="248" x="29.5" y="99.6245">[ComponentVerify]() : void | Promise&lt;void&gt;</text><!--MD5=[abd16c2e8500df1d79e8bd377b0bd13a]
reverse link Component to AzureResourceManagerComponent<PropsType>--><path codeLine="20" d="M175,126.57 C175,139.42 175,152.89 175,165.88 " fill="none" id="Component-backto-AzureResourceManagerComponent&lt;PropsType&gt;" style="stroke:#A80036;stroke-width:1.0;"/><polygon fill="none" points="168,126.41,175,106.41,182,126.41,168,126.41" style="stroke:#A80036;stroke-width:1.0;"/><!--MD5=[5dbe753142652e8cbc03da33171cdf86]
@startuml
skinparam BackgroundColor transparent
hide empty methods
hide empty fields
abstract class "AzureResourceManagerComponent<PropsType>" {
    +apiVersion : string
    +name : string
    +properties : PropsType
    +type : string
    +[ComponentHandle] : Handle
    +[ComponentRender](output: any) : void
    +[ComponentUpdate]() : Promise<void>
    +[ComponentVerify]() : void | Promise<void>
}
abstract class "Component" {
    +[ComponentHandle] : Handle
    {abstract} +[ComponentRender](out: any) : void | Promise<void>
    +[ComponentUpdate]() : Promise<void>
    +[ComponentVerify]() : void | Promise<void>
}
"Component" <|- - "AzureResourceManagerComponent<PropsType>"
@enduml

PlantUML version 1.2021.14(Fri Nov 12 16:46:50 UTC 2021)
(GPL source distribution)
Java Runtime: OpenJDK Runtime Environment
JVM: OpenJDK 64-Bit Server VM
Default Encoding: UTF-8
Language: en
Country: null
--></g></svg>