<?xml version="1.0" encoding="UTF-8" standalone="no"?><svg xmlns="http://www.w3.org/2000/svg" xmlns:xlink="http://www.w3.org/1999/xlink" contentScriptType="application/ecmascript" contentStyleType="text/css" height="276px" preserveAspectRatio="none" style="width:413px;height:276px;background:#00000000;" version="1.1" viewBox="0 0 413 276" width="413px" zoomAndPan="magnify"><defs><filter height="300%" id="fr5pv7quh71ru" width="300%" x="-1" y="-1"><feGaussianBlur result="blurOut" stdDeviation="2.0"/><feColorMatrix in="blurOut" result="blurOut2" type="matrix" values="0 0 0 0 0 0 0 0 0 0 0 0 0 0 0 0 0 0 .4 0"/><feOffset dx="4.0" dy="4.0" in="blurOut2" result="blurOut3"/><feBlend in="SourceGraphic" in2="blurOut3" mode="normal"/></filter></defs><g><!--MD5=[79f0f4ae532647d45948a0e2f5e2989f]
class BaseOptions<ConcreteType>--><rect codeLine="4" fill="#FEFECE" filter="url(#fr5pv7quh71ru)" height="91.2188" id="BaseOptions&lt;ConcreteType&gt;" style="stroke:#A80036;stroke-width:1.5;" width="230" x="91.5" y="7"/><ellipse cx="113.25" cy="23" fill="#B4A7E5" rx="11" ry="11" style="stroke:#A80036;stroke-width:1.0;"/><path d="M109.1719,18.7656 L109.1719,16.6094 L116.5625,16.6094 L116.5625,18.7656 L114.0938,18.7656 L114.0938,26.8438 L116.5625,26.8438 L116.5625,29 L109.1719,29 L109.1719,26.8438 L111.6406,26.8438 L111.6406,18.7656 L109.1719,18.7656 Z " fill="#000000"/><text fill="#000000" font-family="sans-serif" font-size="12" font-style="italic" lengthAdjust="spacing" textLength="183" x="128.75" y="27.1543">BaseOptions&lt;ConcreteType&gt;</text><line style="stroke:#A80036;stroke-width:1.5;" x1="92.5" x2="320.5" y1="39" y2="39"/><ellipse cx="102.5" cy="50" rx="3" ry="3" style="stroke:#038048;stroke-width:1.0;fill:none;"/><text fill="#000000" font-family="sans-serif" font-size="11" lengthAdjust="spacing" textLength="77" x="111.5" y="53.2104">name : Name</text><ellipse cx="102.5" cy="62.8047" rx="3" ry="3" style="stroke:#038048;stroke-width:1.0;fill:none;"/><text fill="#000000" font-family="sans-serif" font-size="11" lengthAdjust="spacing" textLength="102" x="111.5" y="66.0151">registry : Registry</text><ellipse cx="102.5" cy="75.6094" rx="3" ry="3" style="stroke:#038048;stroke-width:1.0;fill:none;"/><text fill="#000000" font-family="sans-serif" font-size="11" lengthAdjust="spacing" textLength="204" x="111.5" y="78.8198">resolver : Resolver&lt;ConcreteType&gt;</text><ellipse cx="102.5" cy="88.4141" rx="3" ry="3" style="stroke:#038048;stroke-width:1.0;fill:none;"/><text fill="#000000" font-family="sans-serif" font-size="11" lengthAdjust="spacing" textLength="135" x="111.5" y="91.6245">root : Token&lt;any, any&gt;</text><!--MD5=[b169cbe14338f823d5c4fff58eabe76b]
class MakeOptions<any, any>--><rect codeLine="10" fill="#FEFECE" filter="url(#fr5pv7quh71ru)" height="104.0234" id="MakeOptions&lt;any, any&gt;" style="stroke:#A80036;stroke-width:1.5;" width="185" x="7" y="158"/><ellipse cx="22" cy="174" fill="#B4A7E5" rx="11" ry="11" style="stroke:#A80036;stroke-width:1.0;"/><path d="M17.9219,169.7656 L17.9219,167.6094 L25.3125,167.6094 L25.3125,169.7656 L22.8438,169.7656 L22.8438,177.8438 L25.3125,177.8438 L25.3125,180 L17.9219,180 L17.9219,177.8438 L20.3906,177.8438 L20.3906,169.7656 L17.9219,169.7656 Z " fill="#000000"/><text fill="#000000" font-family="sans-serif" font-size="12" font-style="italic" lengthAdjust="spacing" textLength="153" x="36" y="178.1543">MakeOptions&lt;any, any&gt;</text><line style="stroke:#A80036;stroke-width:1.5;" x1="8" x2="191" y1="190" y2="190"/><ellipse cx="18" cy="201" rx="3" ry="3" style="stroke:#038048;stroke-width:1.0;fill:none;"/><text fill="#000000" font-family="sans-serif" font-size="11" lengthAdjust="spacing" textLength="57" x="27" y="204.2104">data : any</text><ellipse cx="18" cy="213.8047" rx="3" ry="3" style="stroke:#038048;stroke-width:1.0;fill:none;"/><text fill="#000000" font-family="sans-serif" font-size="11" lengthAdjust="spacing" textLength="77" x="27" y="217.0151">name : Name</text><ellipse cx="18" cy="226.6094" rx="3" ry="3" style="stroke:#038048;stroke-width:1.0;fill:none;"/><text fill="#000000" font-family="sans-serif" font-size="11" lengthAdjust="spacing" textLength="102" x="27" y="229.8198">registry : Registry</text><ellipse cx="18" cy="239.4141" rx="3" ry="3" style="stroke:#038048;stroke-width:1.0;fill:none;"/><text fill="#000000" font-family="sans-serif" font-size="11" lengthAdjust="spacing" textLength="146" x="27" y="242.6245">resolver : Resolver&lt;any&gt;</text><ellipse cx="18" cy="252.2188" rx="3" ry="3" style="stroke:#038048;stroke-width:1.0;fill:none;"/><text fill="#000000" font-family="sans-serif" font-size="11" lengthAdjust="spacing" textLength="135" x="27" y="255.4292">root : Token&lt;any, any&gt;</text><!--MD5=[b30391c82b898a164c45ec681efca4e7]
class WrapOptions<any>--><rect codeLine="18" fill="#FEFECE" filter="url(#fr5pv7quh71ru)" height="104.0234" id="WrapOptions&lt;any&gt;" style="stroke:#A80036;stroke-width:1.5;" width="172" x="227.5" y="158"/><ellipse cx="250.6" cy="174" fill="#B4A7E5" rx="11" ry="11" style="stroke:#A80036;stroke-width:1.0;"/><path d="M246.5219,169.7656 L246.5219,167.6094 L253.9125,167.6094 L253.9125,169.7656 L251.4438,169.7656 L251.4438,177.8438 L253.9125,177.8438 L253.9125,180 L246.5219,180 L246.5219,177.8438 L248.9906,177.8438 L248.9906,169.7656 L246.5219,169.7656 Z " fill="#000000"/><text fill="#000000" font-family="sans-serif" font-size="12" font-style="italic" lengthAdjust="spacing" textLength="122" x="266.4" y="178.1543">WrapOptions&lt;any&gt;</text><line style="stroke:#A80036;stroke-width:1.5;" x1="228.5" x2="398.5" y1="190" y2="190"/><ellipse cx="238.5" cy="201" rx="3" ry="3" style="stroke:#038048;stroke-width:1.0;fill:none;"/><text fill="#000000" font-family="sans-serif" font-size="11" lengthAdjust="spacing" textLength="77" x="247.5" y="204.2104">name : Name</text><ellipse cx="238.5" cy="213.8047" rx="3" ry="3" style="stroke:#038048;stroke-width:1.0;fill:none;"/><text fill="#000000" font-family="sans-serif" font-size="11" lengthAdjust="spacing" textLength="102" x="247.5" y="217.0151">registry : Registry</text><ellipse cx="238.5" cy="226.6094" rx="3" ry="3" style="stroke:#038048;stroke-width:1.0;fill:none;"/><text fill="#000000" font-family="sans-serif" font-size="11" lengthAdjust="spacing" textLength="146" x="247.5" y="229.8198">resolver : Resolver&lt;any&gt;</text><ellipse cx="238.5" cy="239.4141" rx="3" ry="3" style="stroke:#038048;stroke-width:1.0;fill:none;"/><text fill="#000000" font-family="sans-serif" font-size="11" lengthAdjust="spacing" textLength="135" x="247.5" y="242.6245">root : Token&lt;any, any&gt;</text><ellipse cx="238.5" cy="252.2188" rx="3" ry="3" style="stroke:#038048;stroke-width:1.0;fill:none;"/><text fill="#000000" font-family="sans-serif" font-size="11" lengthAdjust="spacing" textLength="60" x="247.5" y="255.4292">wrap : any</text><!--MD5=[37decd372133a68202894e6e1c516f22]
reverse link BaseOptions<ConcreteType> to MakeOptions<any, any>--><path codeLine="17" d="M164.25,114.9 C154.46,129.13 144.14,144.12 134.69,157.85 " fill="none" id="BaseOptions&lt;ConcreteType&gt;-backto-MakeOptions&lt;any, any&gt;" style="stroke:#A80036;stroke-width:1.0;"/><polygon fill="none" points="158.73,110.57,175.84,98.06,170.27,118.5,158.73,110.57" style="stroke:#A80036;stroke-width:1.0;"/><!--MD5=[8af990e975b3f4a29f4a895894083459]
reverse link BaseOptions<ConcreteType> to WrapOptions<any>--><path codeLine="25" d="M248.75,114.9 C258.54,129.13 268.86,144.12 278.31,157.85 " fill="none" id="BaseOptions&lt;ConcreteType&gt;-backto-WrapOptions&lt;any&gt;" style="stroke:#A80036;stroke-width:1.0;"/><polygon fill="none" points="242.73,118.5,237.16,98.06,254.27,110.57,242.73,118.5" style="stroke:#A80036;stroke-width:1.0;"/><!--MD5=[9960b09bb0f8ed101e976e80c9302959]
@startuml
skinparam BackgroundColor transparent
hide empty methods
hide empty fields
interface "BaseOptions<ConcreteType>" {
    +name : Name
    +registry : Registry
    +resolver : Resolver<ConcreteType>
    +root : Token<any, any>
}
interface "MakeOptions<any, any>" {
    +data : any
    +name : Name
    +registry : Registry
    +resolver : Resolver<any>
    +root : Token<any, any>
}
"BaseOptions<ConcreteType>" <|- - "MakeOptions<any, any>"
interface "WrapOptions<any>" {
    +name : Name
    +registry : Registry
    +resolver : Resolver<any>
    +root : Token<any, any>
    +wrap : any
}
"BaseOptions<ConcreteType>" <|- - "WrapOptions<any>"
@enduml

PlantUML version 1.2021.14(Fri Nov 12 16:46:50 UTC 2021)
(GPL source distribution)
Java Runtime: OpenJDK Runtime Environment
JVM: OpenJDK 64-Bit Server VM
Default Encoding: UTF-8
Language: en
Country: null
--></g></svg>