<?xml version="1.0" encoding="UTF-8" standalone="no"?><svg xmlns="http://www.w3.org/2000/svg" xmlns:xlink="http://www.w3.org/1999/xlink" contentScriptType="application/ecmascript" contentStyleType="text/css" height="279px" preserveAspectRatio="none" style="width:352px;height:279px;background:#00000000;" version="1.1" viewBox="0 0 352 279" width="352px" zoomAndPan="magnify"><defs><filter height="300%" id="f1rwve7jhwkdy1" width="300%" x="-1" y="-1"><feGaussianBlur result="blurOut" stdDeviation="2.0"/><feColorMatrix in="blurOut" result="blurOut2" type="matrix" values="0 0 0 0 0 0 0 0 0 0 0 0 0 0 0 0 0 0 .4 0"/><feOffset dx="4.0" dy="4.0" in="blurOut2" result="blurOut3"/><feBlend in="SourceGraphic" in2="blurOut3" mode="normal"/></filter></defs><g><!--MD5=[7868f996aea33918a9edc5d46c81b1ba]
class CfnBaseResource<PropsType>--><rect codeLine="4" fill="#FEFECE" filter="url(#f1rwve7jhwkdy1)" height="99.2188" id="CfnBaseResource&lt;PropsType&gt;" style="stroke:#A80036;stroke-width:1.5;" width="311" x="17" y="166"/><ellipse cx="72.25" cy="182" fill="#A9DCDF" rx="11" ry="11" style="stroke:#A80036;stroke-width:1.0;"/><path d="M72.3594,177.3438 L71.2031,182.4219 L73.5313,182.4219 L72.3594,177.3438 Z M70.875,175.1094 L73.8594,175.1094 L77.2188,187.5 L74.7656,187.5 L74,184.4375 L70.7188,184.4375 L69.9688,187.5 L67.5313,187.5 L70.875,175.1094 Z " fill="#000000"/><text fill="#000000" font-family="sans-serif" font-size="12" font-style="italic" lengthAdjust="spacing" textLength="192" x="92.75" y="186.1543">CfnBaseResource&lt;PropsType&gt;</text><line style="stroke:#A80036;stroke-width:1.5;" x1="18" x2="327" y1="198" y2="198"/><ellipse cx="28" cy="209" rx="3" ry="3" style="stroke:#038048;stroke-width:1.0;fill:none;"/><text fill="#000000" font-family="sans-serif" font-size="11" lengthAdjust="spacing" textLength="163" x="37" y="212.2104">[ComponentHandle] : Handle</text><line style="stroke:#A80036;stroke-width:1.5;" x1="18" x2="327" y1="218.8047" y2="218.8047"/><ellipse cx="28" cy="229.8047" fill="#84BE84" rx="3" ry="3" style="stroke:#038048;stroke-width:1.0;"/><text fill="#000000" font-family="sans-serif" font-size="11" lengthAdjust="spacing" textLength="285" x="37" y="233.0151">[ComponentRender](output: any) : Promise&lt;void&gt;</text><ellipse cx="28" cy="242.6094" fill="#84BE84" rx="3" ry="3" style="stroke:#038048;stroke-width:1.0;"/><text fill="#000000" font-family="sans-serif" font-size="11" lengthAdjust="spacing" textLength="221" x="37" y="245.8198">[ComponentUpdate]() : Promise&lt;void&gt;</text><ellipse cx="28" cy="255.4141" fill="#84BE84" rx="3" ry="3" style="stroke:#038048;stroke-width:1.0;"/><text fill="#000000" font-family="sans-serif" font-size="11" lengthAdjust="spacing" textLength="235" x="37" y="258.6245">[ComponentVerify]() : Promise&lt;boolean&gt;</text><!--MD5=[41d4fac774e0e723492089dc4b99a6f3]
class Resolvable--><rect codeLine="10" fill="#FEFECE" filter="url(#f1rwve7jhwkdy1)" height="99.2188" id="Resolvable" style="stroke:#A80036;stroke-width:1.5;" width="331" x="7" y="7"/><ellipse cx="135.25" cy="23" fill="#A9DCDF" rx="11" ry="11" style="stroke:#A80036;stroke-width:1.0;"/><path d="M135.3594,18.3438 L134.2031,23.4219 L136.5313,23.4219 L135.3594,18.3438 Z M133.875,16.1094 L136.8594,16.1094 L140.2188,28.5 L137.7656,28.5 L137,25.4375 L133.7188,25.4375 L132.9688,28.5 L130.5313,28.5 L133.875,16.1094 Z " fill="#000000"/><text fill="#000000" font-family="sans-serif" font-size="12" font-style="italic" lengthAdjust="spacing" textLength="66" x="155.75" y="27.1543">Resolvable</text><line style="stroke:#A80036;stroke-width:1.5;" x1="8" x2="337" y1="39" y2="39"/><ellipse cx="18" cy="50" rx="3" ry="3" style="stroke:#038048;stroke-width:1.0;fill:none;"/><text fill="#000000" font-family="sans-serif" font-size="11" lengthAdjust="spacing" textLength="163" x="27" y="53.2104">[ComponentHandle] : Handle</text><line style="stroke:#A80036;stroke-width:1.5;" x1="8" x2="337" y1="59.8047" y2="59.8047"/><ellipse cx="18" cy="70.8047" fill="#84BE84" rx="3" ry="3" style="stroke:#038048;stroke-width:1.0;"/><text fill="#000000" font-family="sans-serif" font-size="11" font-style="italic" lengthAdjust="spacing" textLength="305" x="27" y="74.0151">[ComponentRender](out: any) : void | Promise&lt;void&gt;</text><ellipse cx="18" cy="83.6094" fill="#84BE84" rx="3" ry="3" style="stroke:#038048;stroke-width:1.0;"/><text fill="#000000" font-family="sans-serif" font-size="11" lengthAdjust="spacing" textLength="221" x="27" y="86.8198">[ComponentUpdate]() : Promise&lt;void&gt;</text><ellipse cx="18" cy="96.4141" fill="#84BE84" rx="3" ry="3" style="stroke:#038048;stroke-width:1.0;"/><text fill="#000000" font-family="sans-serif" font-size="11" lengthAdjust="spacing" textLength="235" x="27" y="99.6245">[ComponentVerify]() : Promise&lt;boolean&gt;</text><!--MD5=[018d1d17511a97ffc1fdc77c799dc0b9]
reverse link Resolvable to CfnBaseResource<PropsType>--><path codeLine="16" d="M172.5,126.64 C172.5,139.91 172.5,153.54 172.5,165.98 " fill="none" id="Resolvable-backto-CfnBaseResource&lt;PropsType&gt;" style="stroke:#A80036;stroke-width:1.0;"/><polygon fill="none" points="165.5,126.32,172.5,106.32,179.5,126.32,165.5,126.32" style="stroke:#A80036;stroke-width:1.0;"/><!--MD5=[29c30741cc5aaf3b5c63b9cb12d030e3]
@startuml
skinparam BackgroundColor transparent
hide empty methods
hide empty fields
abstract class "CfnBaseResource<PropsType>" {
    +[ComponentHandle] : Handle
    +[ComponentRender](output: any) : Promise<void>
    +[ComponentUpdate]() : Promise<void>
    +[ComponentVerify]() : Promise<boolean>
}
abstract class "Resolvable" {
    +[ComponentHandle] : Handle
    {abstract} +[ComponentRender](out: any) : void | Promise<void>
    +[ComponentUpdate]() : Promise<void>
    +[ComponentVerify]() : Promise<boolean>
}
"Resolvable" <|- - "CfnBaseResource<PropsType>"
@enduml

PlantUML version 1.2021.14(Fri Nov 12 16:46:50 UTC 2021)
(GPL source distribution)
Java Runtime: OpenJDK Runtime Environment
JVM: OpenJDK 64-Bit Server VM
Default Encoding: UTF-8
Language: en
Country: null
--></g></svg>