<?xml version="1.0" encoding="UTF-8" standalone="no"?><svg xmlns="http://www.w3.org/2000/svg" xmlns:xlink="http://www.w3.org/1999/xlink" contentScriptType="application/ecmascript" contentStyleType="text/css" height="257px" preserveAspectRatio="none" style="width:365px;height:257px;background:#00000000;" version="1.1" viewBox="0 0 365 257" width="365px" zoomAndPan="magnify"><defs><filter height="300%" id="f1zd6n9j6t2f" width="300%" x="-1" y="-1"><feGaussianBlur result="blurOut" stdDeviation="2.0"/><feColorMatrix in="blurOut" result="blurOut2" type="matrix" values="0 0 0 0 0 0 0 0 0 0 0 0 0 0 0 0 0 0 .4 0"/><feOffset dx="4.0" dy="4.0" in="blurOut2" result="blurOut3"/><feBlend in="SourceGraphic" in2="blurOut3" mode="normal"/></filter></defs><g><!--MD5=[bfe287da6c7cd3045c3e35f9132246ba]
class CfnComponent--><rect codeLine="4" fill="#FEFECE" filter="url(#f1zd6n9j6t2f)" height="32" id="CfnComponent" style="stroke:#A80036;stroke-width:1.5;" width="124" x="117" y="99"/><ellipse cx="132" cy="115" fill="#A9DCDF" rx="11" ry="11" style="stroke:#A80036;stroke-width:1.0;"/><path d="M132.1094,110.3438 L130.9531,115.4219 L133.2813,115.4219 L132.1094,110.3438 Z M130.625,108.1094 L133.6094,108.1094 L136.9688,120.5 L134.5156,120.5 L133.75,117.4375 L130.4688,117.4375 L129.7188,120.5 L127.2813,120.5 L130.625,108.1094 Z " fill="#000000"/><text fill="#000000" font-family="sans-serif" font-size="12" font-style="italic" lengthAdjust="spacing" textLength="92" x="146" y="119.1543">CfnComponent</text><!--MD5=[bc00f38760f5c998ab68abb0e19452fc]
class CloudComponent--><rect codeLine="6" fill="#FEFECE" filter="url(#f1zd6n9j6t2f)" height="32" id="CloudComponent" style="stroke:#A80036;stroke-width:1.5;" width="139" x="109.5" y="7"/><ellipse cx="124.5" cy="23" fill="#A9DCDF" rx="11" ry="11" style="stroke:#A80036;stroke-width:1.0;"/><path d="M124.6094,18.3438 L123.4531,23.4219 L125.7813,23.4219 L124.6094,18.3438 Z M123.125,16.1094 L126.1094,16.1094 L129.4688,28.5 L127.0156,28.5 L126.25,25.4375 L122.9688,25.4375 L122.2188,28.5 L119.7813,28.5 L123.125,16.1094 Z " fill="#000000"/><text fill="#000000" font-family="sans-serif" font-size="12" font-style="italic" lengthAdjust="spacing" textLength="107" x="138.5" y="27.1543">CloudComponent</text><!--MD5=[a0ae2860d6d8cf2c447c6d6f2d934334]
class CfnResource<void>--><rect codeLine="9" fill="#FEFECE" filter="url(#f1zd6n9j6t2f)" height="52.8047" id="CfnResource&lt;void&gt;" style="stroke:#A80036;stroke-width:1.5;" width="344" x="7" y="191"/><ellipse cx="113.25" cy="207" fill="#A9DCDF" rx="11" ry="11" style="stroke:#A80036;stroke-width:1.0;"/><path d="M113.3594,202.3438 L112.2031,207.4219 L114.5313,207.4219 L113.3594,202.3438 Z M111.875,200.1094 L114.8594,200.1094 L118.2188,212.5 L115.7656,212.5 L115,209.4375 L111.7188,209.4375 L110.9688,212.5 L108.5313,212.5 L111.875,200.1094 Z " fill="#000000"/><text fill="#000000" font-family="sans-serif" font-size="12" font-style="italic" lengthAdjust="spacing" textLength="123" x="133.75" y="211.1543">CfnResource&lt;void&gt;</text><line style="stroke:#A80036;stroke-width:1.5;" x1="8" x2="350" y1="223" y2="223"/><ellipse cx="18" cy="234" fill="#84BE84" rx="3" ry="3" style="stroke:#038048;stroke-width:1.0;"/><text fill="#000000" font-family="sans-serif" font-size="11" lengthAdjust="spacing" textLength="318" x="27" y="237.2104">[ComponentRender](output: Template) : Promise&lt;void&gt;</text><!--MD5=[695d8c8dd5b38eec1e5696f3461e8ab2]
reverse link CloudComponent to CfnComponent--><path codeLine="8" d="M179,59.61 C179,73.31 179,88.22 179,98.96 " fill="none" id="CloudComponent-backto-CfnComponent" style="stroke:#A80036;stroke-width:1.0;"/><polygon fill="none" points="172,59.27,179,39.27,186,59.27,172,59.27" style="stroke:#A80036;stroke-width:1.0;"/><!--MD5=[867dbb9df5059437ef1c57d209f85f83]
reverse link CfnComponent to CfnResource<void>--><path codeLine="12" d="M179,151.64 C179,164.6 179,178.99 179,190.91 " fill="none" id="CfnComponent-backto-CfnResource&lt;void&gt;" style="stroke:#A80036;stroke-width:1.0;"/><polygon fill="none" points="172,151.26,179,131.26,186,151.26,172,151.26" style="stroke:#A80036;stroke-width:1.0;"/><!--MD5=[095a16b33c8d21ea407d8b840c64f1b7]
@startuml
skinparam BackgroundColor transparent
hide empty methods
hide empty fields
abstract class "CfnComponent" {
}
abstract class "CloudComponent" {
}
"CloudComponent" <|- - "CfnComponent"
abstract class "CfnResource<void>" {
    +[ComponentRender](output: Template) : Promise<void>
}
"CfnComponent" <|- - "CfnResource<void>"
@enduml

PlantUML version 1.2021.14(Fri Nov 12 16:46:50 UTC 2021)
(GPL source distribution)
Java Runtime: OpenJDK Runtime Environment
JVM: OpenJDK 64-Bit Server VM
Default Encoding: UTF-8
Language: en
Country: null
--></g></svg>