<?xml version="1.0" encoding="UTF-8" standalone="no"?><svg xmlns="http://www.w3.org/2000/svg" xmlns:xlink="http://www.w3.org/1999/xlink" contentScriptType="application/ecmascript" contentStyleType="text/css" height="438px" preserveAspectRatio="none" style="width:365px;height:438px;background:#00000000;" version="1.1" viewBox="0 0 365 438" width="365px" zoomAndPan="magnify"><defs><filter height="300%" id="f49wje1nm0xge" width="300%" x="-1" y="-1"><feGaussianBlur result="blurOut" stdDeviation="2.0"/><feColorMatrix in="blurOut" result="blurOut2" type="matrix" values="0 0 0 0 0 0 0 0 0 0 0 0 0 0 0 0 0 0 .4 0"/><feOffset dx="4.0" dy="4.0" in="blurOut2" result="blurOut3"/><feBlend in="SourceGraphic" in2="blurOut3" mode="normal"/></filter></defs><g><!--MD5=[bfe287da6c7cd3045c3e35f9132246ba]
class CfnComponent--><rect codeLine="4" fill="#FEFECE" filter="url(#f49wje1nm0xge)" height="99.2188" id="CfnComponent" style="stroke:#A80036;stroke-width:1.5;" width="331" x="13.5" y="166"/><ellipse cx="128.75" cy="182" fill="#A9DCDF" rx="11" ry="11" style="stroke:#A80036;stroke-width:1.0;"/><path d="M128.8594,177.3438 L127.7031,182.4219 L130.0313,182.4219 L128.8594,177.3438 Z M127.375,175.1094 L130.3594,175.1094 L133.7188,187.5 L131.2656,187.5 L130.5,184.4375 L127.2188,184.4375 L126.4688,187.5 L124.0313,187.5 L127.375,175.1094 Z " fill="#000000"/><text fill="#000000" font-family="sans-serif" font-size="12" font-style="italic" lengthAdjust="spacing" textLength="92" x="149.25" y="186.1543">CfnComponent</text><line style="stroke:#A80036;stroke-width:1.5;" x1="14.5" x2="343.5" y1="198" y2="198"/><ellipse cx="24.5" cy="209" rx="3" ry="3" style="stroke:#038048;stroke-width:1.0;fill:none;"/><text fill="#000000" font-family="sans-serif" font-size="11" lengthAdjust="spacing" textLength="163" x="33.5" y="212.2104">[ComponentHandle] : Handle</text><line style="stroke:#A80036;stroke-width:1.5;" x1="14.5" x2="343.5" y1="218.8047" y2="218.8047"/><ellipse cx="24.5" cy="229.8047" fill="#84BE84" rx="3" ry="3" style="stroke:#038048;stroke-width:1.0;"/><text fill="#000000" font-family="sans-serif" font-size="11" font-style="italic" lengthAdjust="spacing" textLength="305" x="33.5" y="233.0151">[ComponentRender](out: any) : void | Promise&lt;void&gt;</text><ellipse cx="24.5" cy="242.6094" fill="#84BE84" rx="3" ry="3" style="stroke:#038048;stroke-width:1.0;"/><text fill="#000000" font-family="sans-serif" font-size="11" lengthAdjust="spacing" textLength="221" x="33.5" y="245.8198">[ComponentUpdate]() : Promise&lt;void&gt;</text><ellipse cx="24.5" cy="255.4141" fill="#84BE84" rx="3" ry="3" style="stroke:#038048;stroke-width:1.0;"/><text fill="#000000" font-family="sans-serif" font-size="11" lengthAdjust="spacing" textLength="248" x="33.5" y="258.6245">[ComponentVerify]() : void | Promise&lt;void&gt;</text><!--MD5=[bc00f38760f5c998ab68abb0e19452fc]
class CloudComponent--><rect codeLine="10" fill="#FEFECE" filter="url(#f49wje1nm0xge)" height="99.2188" id="CloudComponent" style="stroke:#A80036;stroke-width:1.5;" width="331" x="13.5" y="7"/><ellipse cx="121.25" cy="23" fill="#A9DCDF" rx="11" ry="11" style="stroke:#A80036;stroke-width:1.0;"/><path d="M121.3594,18.3438 L120.2031,23.4219 L122.5313,23.4219 L121.3594,18.3438 Z M119.875,16.1094 L122.8594,16.1094 L126.2188,28.5 L123.7656,28.5 L123,25.4375 L119.7188,25.4375 L118.9688,28.5 L116.5313,28.5 L119.875,16.1094 Z " fill="#000000"/><text fill="#000000" font-family="sans-serif" font-size="12" font-style="italic" lengthAdjust="spacing" textLength="107" x="141.75" y="27.1543">CloudComponent</text><line style="stroke:#A80036;stroke-width:1.5;" x1="14.5" x2="343.5" y1="39" y2="39"/><ellipse cx="24.5" cy="50" rx="3" ry="3" style="stroke:#038048;stroke-width:1.0;fill:none;"/><text fill="#000000" font-family="sans-serif" font-size="11" lengthAdjust="spacing" textLength="163" x="33.5" y="53.2104">[ComponentHandle] : Handle</text><line style="stroke:#A80036;stroke-width:1.5;" x1="14.5" x2="343.5" y1="59.8047" y2="59.8047"/><ellipse cx="24.5" cy="70.8047" fill="#84BE84" rx="3" ry="3" style="stroke:#038048;stroke-width:1.0;"/><text fill="#000000" font-family="sans-serif" font-size="11" font-style="italic" lengthAdjust="spacing" textLength="305" x="33.5" y="74.0151">[ComponentRender](out: any) : void | Promise&lt;void&gt;</text><ellipse cx="24.5" cy="83.6094" fill="#84BE84" rx="3" ry="3" style="stroke:#038048;stroke-width:1.0;"/><text fill="#000000" font-family="sans-serif" font-size="11" lengthAdjust="spacing" textLength="221" x="33.5" y="86.8198">[ComponentUpdate]() : Promise&lt;void&gt;</text><ellipse cx="24.5" cy="96.4141" fill="#84BE84" rx="3" ry="3" style="stroke:#038048;stroke-width:1.0;"/><text fill="#000000" font-family="sans-serif" font-size="11" lengthAdjust="spacing" textLength="248" x="33.5" y="99.6245">[ComponentVerify]() : void | Promise&lt;void&gt;</text><!--MD5=[a0ae2860d6d8cf2c447c6d6f2d934334]
class CfnResource<void>--><rect codeLine="17" fill="#FEFECE" filter="url(#f49wje1nm0xge)" height="99.2188" id="CfnResource&lt;void&gt;" style="stroke:#A80036;stroke-width:1.5;" width="344" x="7" y="325"/><ellipse cx="113.25" cy="341" fill="#A9DCDF" rx="11" ry="11" style="stroke:#A80036;stroke-width:1.0;"/><path d="M113.3594,336.3438 L112.2031,341.4219 L114.5313,341.4219 L113.3594,336.3438 Z M111.875,334.1094 L114.8594,334.1094 L118.2188,346.5 L115.7656,346.5 L115,343.4375 L111.7188,343.4375 L110.9688,346.5 L108.5313,346.5 L111.875,334.1094 Z " fill="#000000"/><text fill="#000000" font-family="sans-serif" font-size="12" font-style="italic" lengthAdjust="spacing" textLength="123" x="133.75" y="345.1543">CfnResource&lt;void&gt;</text><line style="stroke:#A80036;stroke-width:1.5;" x1="8" x2="350" y1="357" y2="357"/><ellipse cx="18" cy="368" rx="3" ry="3" style="stroke:#038048;stroke-width:1.0;fill:none;"/><text fill="#000000" font-family="sans-serif" font-size="11" lengthAdjust="spacing" textLength="163" x="27" y="371.2104">[ComponentHandle] : Handle</text><line style="stroke:#A80036;stroke-width:1.5;" x1="8" x2="350" y1="377.8047" y2="377.8047"/><ellipse cx="18" cy="388.8047" fill="#84BE84" rx="3" ry="3" style="stroke:#038048;stroke-width:1.0;"/><text fill="#000000" font-family="sans-serif" font-size="11" lengthAdjust="spacing" textLength="318" x="27" y="392.0151">[ComponentRender](output: Template) : Promise&lt;void&gt;</text><ellipse cx="18" cy="401.6094" fill="#84BE84" rx="3" ry="3" style="stroke:#038048;stroke-width:1.0;"/><text fill="#000000" font-family="sans-serif" font-size="11" lengthAdjust="spacing" textLength="221" x="27" y="404.8198">[ComponentUpdate]() : Promise&lt;void&gt;</text><ellipse cx="18" cy="414.4141" fill="#84BE84" rx="3" ry="3" style="stroke:#038048;stroke-width:1.0;"/><text fill="#000000" font-family="sans-serif" font-size="11" lengthAdjust="spacing" textLength="248" x="27" y="417.6245">[ComponentVerify]() : void | Promise&lt;void&gt;</text><!--MD5=[695d8c8dd5b38eec1e5696f3461e8ab2]
reverse link CloudComponent to CfnComponent--><path codeLine="16" d="M179,126.64 C179,139.91 179,153.54 179,165.98 " fill="none" id="CloudComponent-backto-CfnComponent" style="stroke:#A80036;stroke-width:1.0;"/><polygon fill="none" points="172,126.32,179,106.32,186,126.32,172,126.32" style="stroke:#A80036;stroke-width:1.0;"/><!--MD5=[867dbb9df5059437ef1c57d209f85f83]
reverse link CfnComponent to CfnResource<void>--><path codeLine="23" d="M179,285.64 C179,298.91 179,312.54 179,324.98 " fill="none" id="CfnComponent-backto-CfnResource&lt;void&gt;" style="stroke:#A80036;stroke-width:1.0;"/><polygon fill="none" points="172,285.32,179,265.32,186,285.32,172,285.32" style="stroke:#A80036;stroke-width:1.0;"/><!--MD5=[22cef333c671057ff68aebba50ea547a]
@startuml
skinparam BackgroundColor transparent
hide empty methods
hide empty fields
abstract class "CfnComponent" {
    +[ComponentHandle] : Handle
    {abstract} +[ComponentRender](out: any) : void | Promise<void>
    +[ComponentUpdate]() : Promise<void>
    +[ComponentVerify]() : void | Promise<void>
}
abstract class "CloudComponent" {
    +[ComponentHandle] : Handle
    {abstract} +[ComponentRender](out: any) : void | Promise<void>
    +[ComponentUpdate]() : Promise<void>
    +[ComponentVerify]() : void | Promise<void>
}
"CloudComponent" <|- - "CfnComponent"
abstract class "CfnResource<void>" {
    +[ComponentHandle] : Handle
    +[ComponentRender](output: Template) : Promise<void>
    +[ComponentUpdate]() : Promise<void>
    +[ComponentVerify]() : void | Promise<void>
}
"CfnComponent" <|- - "CfnResource<void>"
@enduml

PlantUML version 1.2021.14(Fri Nov 12 16:46:50 UTC 2021)
(GPL source distribution)
Java Runtime: OpenJDK Runtime Environment
JVM: OpenJDK 64-Bit Server VM
Default Encoding: UTF-8
Language: en
Country: null
--></g></svg>