<?xml version="1.0" encoding="UTF-8" standalone="no"?><svg xmlns="http://www.w3.org/2000/svg" xmlns:xlink="http://www.w3.org/1999/xlink" contentScriptType="application/ecmascript" contentStyleType="text/css" height="165px" preserveAspectRatio="none" style="width:365px;height:165px;background:#00000000;" version="1.1" viewBox="0 0 365 165" width="365px" zoomAndPan="magnify"><defs><filter height="300%" id="fk1h5d5kk3nic" width="300%" x="-1" y="-1"><feGaussianBlur result="blurOut" stdDeviation="2.0"/><feColorMatrix in="blurOut" result="blurOut2" type="matrix" values="0 0 0 0 0 0 0 0 0 0 0 0 0 0 0 0 0 0 .4 0"/><feOffset dx="4.0" dy="4.0" in="blurOut2" result="blurOut3"/><feBlend in="SourceGraphic" in2="blurOut3" mode="normal"/></filter></defs><g><!--MD5=[1de3f1ddc418c85949e35ef92acadfcd]
class CfnResource<PropsType>--><rect codeLine="4" fill="#FEFECE" filter="url(#fk1h5d5kk3nic)" height="52.8047" id="CfnResource&lt;PropsType&gt;" style="stroke:#A80036;stroke-width:1.5;" width="344" x="7" y="99"/><ellipse cx="93.75" cy="115" fill="#A9DCDF" rx="11" ry="11" style="stroke:#A80036;stroke-width:1.0;"/><path d="M93.8594,110.3438 L92.7031,115.4219 L95.0313,115.4219 L93.8594,110.3438 Z M92.375,108.1094 L95.3594,108.1094 L98.7188,120.5 L96.2656,120.5 L95.5,117.4375 L92.2188,117.4375 L91.4688,120.5 L89.0313,120.5 L92.375,108.1094 Z " fill="#000000"/><text fill="#000000" font-family="sans-serif" font-size="12" font-style="italic" lengthAdjust="spacing" textLength="162" x="114.25" y="119.1543">CfnResource&lt;PropsType&gt;</text><line style="stroke:#A80036;stroke-width:1.5;" x1="8" x2="350" y1="131" y2="131"/><ellipse cx="18" cy="142" fill="#84BE84" rx="3" ry="3" style="stroke:#038048;stroke-width:1.0;"/><text fill="#000000" font-family="sans-serif" font-size="11" lengthAdjust="spacing" textLength="318" x="27" y="145.2104">[ComponentRender](output: Template) : Promise&lt;void&gt;</text><!--MD5=[bfe287da6c7cd3045c3e35f9132246ba]
class CfnComponent--><rect codeLine="7" fill="#FEFECE" filter="url(#fk1h5d5kk3nic)" height="32" id="CfnComponent" style="stroke:#A80036;stroke-width:1.5;" width="124" x="117" y="7"/><ellipse cx="132" cy="23" fill="#A9DCDF" rx="11" ry="11" style="stroke:#A80036;stroke-width:1.0;"/><path d="M132.1094,18.3438 L130.9531,23.4219 L133.2813,23.4219 L132.1094,18.3438 Z M130.625,16.1094 L133.6094,16.1094 L136.9688,28.5 L134.5156,28.5 L133.75,25.4375 L130.4688,25.4375 L129.7188,28.5 L127.2813,28.5 L130.625,16.1094 Z " fill="#000000"/><text fill="#000000" font-family="sans-serif" font-size="12" font-style="italic" lengthAdjust="spacing" textLength="92" x="146" y="27.1543">CfnComponent</text><!--MD5=[dfd058d22aff14a2b33423261b9e92a5]
reverse link CfnComponent to CfnResource<PropsType>--><path codeLine="9" d="M179,59.64 C179,72.6 179,86.99 179,98.91 " fill="none" id="CfnComponent-backto-CfnResource&lt;PropsType&gt;" style="stroke:#A80036;stroke-width:1.0;"/><polygon fill="none" points="172,59.26,179,39.26,186,59.26,172,59.26" style="stroke:#A80036;stroke-width:1.0;"/><!--MD5=[19fef5d7d15ffb6cfa5b377865905899]
@startuml
skinparam BackgroundColor transparent
hide empty methods
hide empty fields
abstract class "CfnResource<PropsType>" {
    +[ComponentRender](output: Template) : Promise<void>
}
abstract class "CfnComponent" {
}
"CfnComponent" <|- - "CfnResource<PropsType>"
@enduml

PlantUML version 1.2021.14(Fri Nov 12 16:46:50 UTC 2021)
(GPL source distribution)
Java Runtime: OpenJDK Runtime Environment
JVM: OpenJDK 64-Bit Server VM
Default Encoding: UTF-8
Language: en
Country: null
--></g></svg>