<?xml version="1.0" encoding="UTF-8" standalone="no"?><svg xmlns="http://www.w3.org/2000/svg" xmlns:xlink="http://www.w3.org/1999/xlink" contentScriptType="application/ecmascript" contentStyleType="text/css" height="279px" preserveAspectRatio="none" style="width:365px;height:279px;background:#00000000;" version="1.1" viewBox="0 0 365 279" width="365px" zoomAndPan="magnify"><defs><filter height="300%" id="fc5dnjb674pkx" width="300%" x="-1" y="-1"><feGaussianBlur result="blurOut" stdDeviation="2.0"/><feColorMatrix in="blurOut" result="blurOut2" type="matrix" values="0 0 0 0 0 0 0 0 0 0 0 0 0 0 0 0 0 0 .4 0"/><feOffset dx="4.0" dy="4.0" in="blurOut2" result="blurOut3"/><feBlend in="SourceGraphic" in2="blurOut3" mode="normal"/></filter></defs><g><!--MD5=[1de3f1ddc418c85949e35ef92acadfcd]
class CfnResource<PropsType>--><rect codeLine="4" fill="#FEFECE" filter="url(#fc5dnjb674pkx)" height="99.2188" id="CfnResource&lt;PropsType&gt;" style="stroke:#A80036;stroke-width:1.5;" width="344" x="7" y="166"/><ellipse cx="93.75" cy="182" fill="#A9DCDF" rx="11" ry="11" style="stroke:#A80036;stroke-width:1.0;"/><path d="M93.8594,177.3438 L92.7031,182.4219 L95.0313,182.4219 L93.8594,177.3438 Z M92.375,175.1094 L95.3594,175.1094 L98.7188,187.5 L96.2656,187.5 L95.5,184.4375 L92.2188,184.4375 L91.4688,187.5 L89.0313,187.5 L92.375,175.1094 Z " fill="#000000"/><text fill="#000000" font-family="sans-serif" font-size="12" font-style="italic" lengthAdjust="spacing" textLength="162" x="114.25" y="186.1543">CfnResource&lt;PropsType&gt;</text><line style="stroke:#A80036;stroke-width:1.5;" x1="8" x2="350" y1="198" y2="198"/><ellipse cx="18" cy="209" rx="3" ry="3" style="stroke:#038048;stroke-width:1.0;fill:none;"/><text fill="#000000" font-family="sans-serif" font-size="11" lengthAdjust="spacing" textLength="163" x="27" y="212.2104">[ComponentHandle] : Handle</text><line style="stroke:#A80036;stroke-width:1.5;" x1="8" x2="350" y1="218.8047" y2="218.8047"/><ellipse cx="18" cy="229.8047" fill="#84BE84" rx="3" ry="3" style="stroke:#038048;stroke-width:1.0;"/><text fill="#000000" font-family="sans-serif" font-size="11" lengthAdjust="spacing" textLength="318" x="27" y="233.0151">[ComponentRender](output: Template) : Promise&lt;void&gt;</text><ellipse cx="18" cy="242.6094" fill="#84BE84" rx="3" ry="3" style="stroke:#038048;stroke-width:1.0;"/><text fill="#000000" font-family="sans-serif" font-size="11" lengthAdjust="spacing" textLength="221" x="27" y="245.8198">[ComponentUpdate]() : Promise&lt;void&gt;</text><ellipse cx="18" cy="255.4141" fill="#84BE84" rx="3" ry="3" style="stroke:#038048;stroke-width:1.0;"/><text fill="#000000" font-family="sans-serif" font-size="11" lengthAdjust="spacing" textLength="248" x="27" y="258.6245">[ComponentVerify]() : void | Promise&lt;void&gt;</text><!--MD5=[bfe287da6c7cd3045c3e35f9132246ba]
class CfnComponent--><rect codeLine="10" fill="#FEFECE" filter="url(#fc5dnjb674pkx)" height="99.2188" id="CfnComponent" style="stroke:#A80036;stroke-width:1.5;" width="331" x="13.5" y="7"/><ellipse cx="128.75" cy="23" fill="#A9DCDF" rx="11" ry="11" style="stroke:#A80036;stroke-width:1.0;"/><path d="M128.8594,18.3438 L127.7031,23.4219 L130.0313,23.4219 L128.8594,18.3438 Z M127.375,16.1094 L130.3594,16.1094 L133.7188,28.5 L131.2656,28.5 L130.5,25.4375 L127.2188,25.4375 L126.4688,28.5 L124.0313,28.5 L127.375,16.1094 Z " fill="#000000"/><text fill="#000000" font-family="sans-serif" font-size="12" font-style="italic" lengthAdjust="spacing" textLength="92" x="149.25" y="27.1543">CfnComponent</text><line style="stroke:#A80036;stroke-width:1.5;" x1="14.5" x2="343.5" y1="39" y2="39"/><ellipse cx="24.5" cy="50" rx="3" ry="3" style="stroke:#038048;stroke-width:1.0;fill:none;"/><text fill="#000000" font-family="sans-serif" font-size="11" lengthAdjust="spacing" textLength="163" x="33.5" y="53.2104">[ComponentHandle] : Handle</text><line style="stroke:#A80036;stroke-width:1.5;" x1="14.5" x2="343.5" y1="59.8047" y2="59.8047"/><ellipse cx="24.5" cy="70.8047" fill="#84BE84" rx="3" ry="3" style="stroke:#038048;stroke-width:1.0;"/><text fill="#000000" font-family="sans-serif" font-size="11" font-style="italic" lengthAdjust="spacing" textLength="305" x="33.5" y="74.0151">[ComponentRender](out: any) : void | Promise&lt;void&gt;</text><ellipse cx="24.5" cy="83.6094" fill="#84BE84" rx="3" ry="3" style="stroke:#038048;stroke-width:1.0;"/><text fill="#000000" font-family="sans-serif" font-size="11" lengthAdjust="spacing" textLength="221" x="33.5" y="86.8198">[ComponentUpdate]() : Promise&lt;void&gt;</text><ellipse cx="24.5" cy="96.4141" fill="#84BE84" rx="3" ry="3" style="stroke:#038048;stroke-width:1.0;"/><text fill="#000000" font-family="sans-serif" font-size="11" lengthAdjust="spacing" textLength="248" x="33.5" y="99.6245">[ComponentVerify]() : void | Promise&lt;void&gt;</text><!--MD5=[dfd058d22aff14a2b33423261b9e92a5]
reverse link CfnComponent to CfnResource<PropsType>--><path codeLine="16" d="M179,126.64 C179,139.91 179,153.54 179,165.98 " fill="none" id="CfnComponent-backto-CfnResource&lt;PropsType&gt;" style="stroke:#A80036;stroke-width:1.0;"/><polygon fill="none" points="172,126.32,179,106.32,186,126.32,172,126.32" style="stroke:#A80036;stroke-width:1.0;"/><!--MD5=[07441b008c289c3a3a84cd10cb04099f]
@startuml
skinparam BackgroundColor transparent
hide empty methods
hide empty fields
abstract class "CfnResource<PropsType>" {
    +[ComponentHandle] : Handle
    +[ComponentRender](output: Template) : Promise<void>
    +[ComponentUpdate]() : Promise<void>
    +[ComponentVerify]() : void | Promise<void>
}
abstract class "CfnComponent" {
    +[ComponentHandle] : Handle
    {abstract} +[ComponentRender](out: any) : void | Promise<void>
    +[ComponentUpdate]() : Promise<void>
    +[ComponentVerify]() : void | Promise<void>
}
"CfnComponent" <|- - "CfnResource<PropsType>"
@enduml

PlantUML version 1.2021.14(Fri Nov 12 16:46:50 UTC 2021)
(GPL source distribution)
Java Runtime: OpenJDK Runtime Environment
JVM: OpenJDK 64-Bit Server VM
Default Encoding: UTF-8
Language: en
Country: null
--></g></svg>