<?xml version="1.0" encoding="UTF-8" standalone="no"?><svg xmlns="http://www.w3.org/2000/svg" xmlns:xlink="http://www.w3.org/1999/xlink" contentScriptType="application/ecmascript" contentStyleType="text/css" height="438px" preserveAspectRatio="none" style="width:1816px;height:438px;background:#00000000;" version="1.1" viewBox="0 0 1816 438" width="1816px" zoomAndPan="magnify"><defs><filter height="300%" id="fcbgh34m6n543" width="300%" x="-1" y="-1"><feGaussianBlur result="blurOut" stdDeviation="2.0"/><feColorMatrix in="blurOut" result="blurOut2" type="matrix" values="0 0 0 0 0 0 0 0 0 0 0 0 0 0 0 0 0 0 .4 0"/><feOffset dx="4.0" dy="4.0" in="blurOut2" result="blurOut3"/><feBlend in="SourceGraphic" in2="blurOut3" mode="normal"/></filter></defs><g><!--MD5=[bc00f38760f5c998ab68abb0e19452fc]
class CloudComponent--><rect codeLine="4" fill="#FEFECE" filter="url(#fcbgh34m6n543)" height="99.2188" id="CloudComponent" style="stroke:#A80036;stroke-width:1.5;" width="331" x="739" y="166"/><ellipse cx="846.75" cy="182" fill="#A9DCDF" rx="11" ry="11" style="stroke:#A80036;stroke-width:1.0;"/><path d="M846.8594,177.3438 L845.7031,182.4219 L848.0313,182.4219 L846.8594,177.3438 Z M845.375,175.1094 L848.3594,175.1094 L851.7188,187.5 L849.2656,187.5 L848.5,184.4375 L845.2188,184.4375 L844.4688,187.5 L842.0313,187.5 L845.375,175.1094 Z " fill="#000000"/><text fill="#000000" font-family="sans-serif" font-size="12" font-style="italic" lengthAdjust="spacing" textLength="107" x="867.25" y="186.1543">CloudComponent</text><line style="stroke:#A80036;stroke-width:1.5;" x1="740" x2="1069" y1="198" y2="198"/><ellipse cx="750" cy="209" rx="3" ry="3" style="stroke:#038048;stroke-width:1.0;fill:none;"/><text fill="#000000" font-family="sans-serif" font-size="11" lengthAdjust="spacing" textLength="163" x="759" y="212.2104">[ComponentHandle] : Handle</text><line style="stroke:#A80036;stroke-width:1.5;" x1="740" x2="1069" y1="218.8047" y2="218.8047"/><ellipse cx="750" cy="229.8047" fill="#84BE84" rx="3" ry="3" style="stroke:#038048;stroke-width:1.0;"/><text fill="#000000" font-family="sans-serif" font-size="11" font-style="italic" lengthAdjust="spacing" textLength="305" x="759" y="233.0151">[ComponentRender](out: any) : void | Promise&lt;void&gt;</text><ellipse cx="750" cy="242.6094" fill="#84BE84" rx="3" ry="3" style="stroke:#038048;stroke-width:1.0;"/><text fill="#000000" font-family="sans-serif" font-size="11" lengthAdjust="spacing" textLength="221" x="759" y="245.8198">[ComponentUpdate]() : Promise&lt;void&gt;</text><ellipse cx="750" cy="255.4141" fill="#84BE84" rx="3" ry="3" style="stroke:#038048;stroke-width:1.0;"/><text fill="#000000" font-family="sans-serif" font-size="11" lengthAdjust="spacing" textLength="248" x="759" y="258.6245">[ComponentVerify]() : void | Promise&lt;void&gt;</text><!--MD5=[4e13963c9dc916a21a8436ef39422b32]
class Component--><rect codeLine="10" fill="#FEFECE" filter="url(#fcbgh34m6n543)" height="99.2188" id="Component" style="stroke:#A80036;stroke-width:1.5;" width="331" x="739" y="7"/><ellipse cx="864.25" cy="23" fill="#A9DCDF" rx="11" ry="11" style="stroke:#A80036;stroke-width:1.0;"/><path d="M864.3594,18.3438 L863.2031,23.4219 L865.5313,23.4219 L864.3594,18.3438 Z M862.875,16.1094 L865.8594,16.1094 L869.2188,28.5 L866.7656,28.5 L866,25.4375 L862.7188,25.4375 L861.9688,28.5 L859.5313,28.5 L862.875,16.1094 Z " fill="#000000"/><text fill="#000000" font-family="sans-serif" font-size="12" font-style="italic" lengthAdjust="spacing" textLength="72" x="884.75" y="27.1543">Component</text><line style="stroke:#A80036;stroke-width:1.5;" x1="740" x2="1069" y1="39" y2="39"/><ellipse cx="750" cy="50" rx="3" ry="3" style="stroke:#038048;stroke-width:1.0;fill:none;"/><text fill="#000000" font-family="sans-serif" font-size="11" lengthAdjust="spacing" textLength="163" x="759" y="53.2104">[ComponentHandle] : Handle</text><line style="stroke:#A80036;stroke-width:1.5;" x1="740" x2="1069" y1="59.8047" y2="59.8047"/><ellipse cx="750" cy="70.8047" fill="#84BE84" rx="3" ry="3" style="stroke:#038048;stroke-width:1.0;"/><text fill="#000000" font-family="sans-serif" font-size="11" font-style="italic" lengthAdjust="spacing" textLength="305" x="759" y="74.0151">[ComponentRender](out: any) : void | Promise&lt;void&gt;</text><ellipse cx="750" cy="83.6094" fill="#84BE84" rx="3" ry="3" style="stroke:#038048;stroke-width:1.0;"/><text fill="#000000" font-family="sans-serif" font-size="11" lengthAdjust="spacing" textLength="221" x="759" y="86.8198">[ComponentUpdate]() : Promise&lt;void&gt;</text><ellipse cx="750" cy="96.4141" fill="#84BE84" rx="3" ry="3" style="stroke:#038048;stroke-width:1.0;"/><text fill="#000000" font-family="sans-serif" font-size="11" lengthAdjust="spacing" textLength="248" x="759" y="99.6245">[ComponentVerify]() : void | Promise&lt;void&gt;</text><!--MD5=[30f5b541ec4659a2fd7c50e7543b8294]
class ArmComponent--><rect codeLine="17" fill="#FEFECE" filter="url(#fcbgh34m6n543)" height="99.2188" id="ArmComponent" style="stroke:#A80036;stroke-width:1.5;" width="331" x="7" y="325"/><ellipse cx="120.25" cy="341" fill="#A9DCDF" rx="11" ry="11" style="stroke:#A80036;stroke-width:1.0;"/><path d="M120.3594,336.3438 L119.2031,341.4219 L121.5313,341.4219 L120.3594,336.3438 Z M118.875,334.1094 L121.8594,334.1094 L125.2188,346.5 L122.7656,346.5 L122,343.4375 L118.7188,343.4375 L117.9688,346.5 L115.5313,346.5 L118.875,334.1094 Z " fill="#000000"/><text fill="#000000" font-family="sans-serif" font-size="12" font-style="italic" lengthAdjust="spacing" textLength="96" x="140.75" y="345.1543">ArmComponent</text><line style="stroke:#A80036;stroke-width:1.5;" x1="8" x2="337" y1="357" y2="357"/><ellipse cx="18" cy="368" rx="3" ry="3" style="stroke:#038048;stroke-width:1.0;fill:none;"/><text fill="#000000" font-family="sans-serif" font-size="11" lengthAdjust="spacing" textLength="163" x="27" y="371.2104">[ComponentHandle] : Handle</text><line style="stroke:#A80036;stroke-width:1.5;" x1="8" x2="337" y1="377.8047" y2="377.8047"/><ellipse cx="18" cy="388.8047" fill="#84BE84" rx="3" ry="3" style="stroke:#038048;stroke-width:1.0;"/><text fill="#000000" font-family="sans-serif" font-size="11" font-style="italic" lengthAdjust="spacing" textLength="305" x="27" y="392.0151">[ComponentRender](out: any) : void | Promise&lt;void&gt;</text><ellipse cx="18" cy="401.6094" fill="#84BE84" rx="3" ry="3" style="stroke:#038048;stroke-width:1.0;"/><text fill="#000000" font-family="sans-serif" font-size="11" lengthAdjust="spacing" textLength="221" x="27" y="404.8198">[ComponentUpdate]() : Promise&lt;void&gt;</text><ellipse cx="18" cy="414.4141" fill="#84BE84" rx="3" ry="3" style="stroke:#038048;stroke-width:1.0;"/><text fill="#000000" font-family="sans-serif" font-size="11" lengthAdjust="spacing" textLength="248" x="27" y="417.6245">[ComponentVerify]() : void | Promise&lt;void&gt;</text><!--MD5=[bfe287da6c7cd3045c3e35f9132246ba]
class CfnComponent--><rect codeLine="24" fill="#FEFECE" filter="url(#fcbgh34m6n543)" height="99.2188" id="CfnComponent" style="stroke:#A80036;stroke-width:1.5;" width="331" x="373" y="325"/><ellipse cx="488.25" cy="341" fill="#A9DCDF" rx="11" ry="11" style="stroke:#A80036;stroke-width:1.0;"/><path d="M488.3594,336.3438 L487.2031,341.4219 L489.5313,341.4219 L488.3594,336.3438 Z M486.875,334.1094 L489.8594,334.1094 L493.2188,346.5 L490.7656,346.5 L490,343.4375 L486.7188,343.4375 L485.9688,346.5 L483.5313,346.5 L486.875,334.1094 Z " fill="#000000"/><text fill="#000000" font-family="sans-serif" font-size="12" font-style="italic" lengthAdjust="spacing" textLength="92" x="508.75" y="345.1543">CfnComponent</text><line style="stroke:#A80036;stroke-width:1.5;" x1="374" x2="703" y1="357" y2="357"/><ellipse cx="384" cy="368" rx="3" ry="3" style="stroke:#038048;stroke-width:1.0;fill:none;"/><text fill="#000000" font-family="sans-serif" font-size="11" lengthAdjust="spacing" textLength="163" x="393" y="371.2104">[ComponentHandle] : Handle</text><line style="stroke:#A80036;stroke-width:1.5;" x1="374" x2="703" y1="377.8047" y2="377.8047"/><ellipse cx="384" cy="388.8047" fill="#84BE84" rx="3" ry="3" style="stroke:#038048;stroke-width:1.0;"/><text fill="#000000" font-family="sans-serif" font-size="11" font-style="italic" lengthAdjust="spacing" textLength="305" x="393" y="392.0151">[ComponentRender](out: any) : void | Promise&lt;void&gt;</text><ellipse cx="384" cy="401.6094" fill="#84BE84" rx="3" ry="3" style="stroke:#038048;stroke-width:1.0;"/><text fill="#000000" font-family="sans-serif" font-size="11" lengthAdjust="spacing" textLength="221" x="393" y="404.8198">[ComponentUpdate]() : Promise&lt;void&gt;</text><ellipse cx="384" cy="414.4141" fill="#84BE84" rx="3" ry="3" style="stroke:#038048;stroke-width:1.0;"/><text fill="#000000" font-family="sans-serif" font-size="11" lengthAdjust="spacing" textLength="248" x="393" y="417.6245">[ComponentVerify]() : void | Promise&lt;void&gt;</text><!--MD5=[d77ed4ab7ef1f9f95ed1968f51617b7c]
class GdmComponent--><rect codeLine="31" fill="#FEFECE" filter="url(#fcbgh34m6n543)" height="99.2188" id="GdmComponent" style="stroke:#A80036;stroke-width:1.5;" width="331" x="739" y="325"/><ellipse cx="850.25" cy="341" fill="#A9DCDF" rx="11" ry="11" style="stroke:#A80036;stroke-width:1.0;"/><path d="M850.3594,336.3438 L849.2031,341.4219 L851.5313,341.4219 L850.3594,336.3438 Z M848.875,334.1094 L851.8594,334.1094 L855.2188,346.5 L852.7656,346.5 L852,343.4375 L848.7188,343.4375 L847.9688,346.5 L845.5313,346.5 L848.875,334.1094 Z " fill="#000000"/><text fill="#000000" font-family="sans-serif" font-size="12" font-style="italic" lengthAdjust="spacing" textLength="100" x="870.75" y="345.1543">GdmComponent</text><line style="stroke:#A80036;stroke-width:1.5;" x1="740" x2="1069" y1="357" y2="357"/><ellipse cx="750" cy="368" rx="3" ry="3" style="stroke:#038048;stroke-width:1.0;fill:none;"/><text fill="#000000" font-family="sans-serif" font-size="11" lengthAdjust="spacing" textLength="163" x="759" y="371.2104">[ComponentHandle] : Handle</text><line style="stroke:#A80036;stroke-width:1.5;" x1="740" x2="1069" y1="377.8047" y2="377.8047"/><ellipse cx="750" cy="388.8047" fill="#84BE84" rx="3" ry="3" style="stroke:#038048;stroke-width:1.0;"/><text fill="#000000" font-family="sans-serif" font-size="11" font-style="italic" lengthAdjust="spacing" textLength="305" x="759" y="392.0151">[ComponentRender](out: any) : void | Promise&lt;void&gt;</text><ellipse cx="750" cy="401.6094" fill="#84BE84" rx="3" ry="3" style="stroke:#038048;stroke-width:1.0;"/><text fill="#000000" font-family="sans-serif" font-size="11" lengthAdjust="spacing" textLength="221" x="759" y="404.8198">[ComponentUpdate]() : Promise&lt;void&gt;</text><ellipse cx="750" cy="414.4141" fill="#84BE84" rx="3" ry="3" style="stroke:#038048;stroke-width:1.0;"/><text fill="#000000" font-family="sans-serif" font-size="11" lengthAdjust="spacing" textLength="248" x="759" y="417.6245">[ComponentVerify]() : void | Promise&lt;void&gt;</text><!--MD5=[2329f7cacab1176dd90b22c9456fec03]
class RosComponent--><rect codeLine="38" fill="#FEFECE" filter="url(#fcbgh34m6n543)" height="99.2188" id="RosComponent" style="stroke:#A80036;stroke-width:1.5;" width="331" x="1105" y="325"/><ellipse cx="1219.25" cy="341" fill="#A9DCDF" rx="11" ry="11" style="stroke:#A80036;stroke-width:1.0;"/><path d="M1219.3594,336.3438 L1218.2031,341.4219 L1220.5313,341.4219 L1219.3594,336.3438 Z M1217.875,334.1094 L1220.8594,334.1094 L1224.2188,346.5 L1221.7656,346.5 L1221,343.4375 L1217.7188,343.4375 L1216.9688,346.5 L1214.5313,346.5 L1217.875,334.1094 Z " fill="#000000"/><text fill="#000000" font-family="sans-serif" font-size="12" font-style="italic" lengthAdjust="spacing" textLength="94" x="1239.75" y="345.1543">RosComponent</text><line style="stroke:#A80036;stroke-width:1.5;" x1="1106" x2="1435" y1="357" y2="357"/><ellipse cx="1116" cy="368" rx="3" ry="3" style="stroke:#038048;stroke-width:1.0;fill:none;"/><text fill="#000000" font-family="sans-serif" font-size="11" lengthAdjust="spacing" textLength="163" x="1125" y="371.2104">[ComponentHandle] : Handle</text><line style="stroke:#A80036;stroke-width:1.5;" x1="1106" x2="1435" y1="377.8047" y2="377.8047"/><ellipse cx="1116" cy="388.8047" fill="#84BE84" rx="3" ry="3" style="stroke:#038048;stroke-width:1.0;"/><text fill="#000000" font-family="sans-serif" font-size="11" font-style="italic" lengthAdjust="spacing" textLength="305" x="1125" y="392.0151">[ComponentRender](out: any) : void | Promise&lt;void&gt;</text><ellipse cx="1116" cy="401.6094" fill="#84BE84" rx="3" ry="3" style="stroke:#038048;stroke-width:1.0;"/><text fill="#000000" font-family="sans-serif" font-size="11" lengthAdjust="spacing" textLength="221" x="1125" y="404.8198">[ComponentUpdate]() : Promise&lt;void&gt;</text><ellipse cx="1116" cy="414.4141" fill="#84BE84" rx="3" ry="3" style="stroke:#038048;stroke-width:1.0;"/><text fill="#000000" font-family="sans-serif" font-size="11" lengthAdjust="spacing" textLength="248" x="1125" y="417.6245">[ComponentVerify]() : void | Promise&lt;void&gt;</text><!--MD5=[6413748563b32f3a33cdb07aa07d17f9]
class KrmComponent--><rect codeLine="45" fill="#FEFECE" filter="url(#fcbgh34m6n543)" height="99.2188" id="KrmComponent" style="stroke:#A80036;stroke-width:1.5;" width="331" x="1471" y="325"/><ellipse cx="1584.25" cy="341" fill="#A9DCDF" rx="11" ry="11" style="stroke:#A80036;stroke-width:1.0;"/><path d="M1584.3594,336.3438 L1583.2031,341.4219 L1585.5313,341.4219 L1584.3594,336.3438 Z M1582.875,334.1094 L1585.8594,334.1094 L1589.2188,346.5 L1586.7656,346.5 L1586,343.4375 L1582.7188,343.4375 L1581.9688,346.5 L1579.5313,346.5 L1582.875,334.1094 Z " fill="#000000"/><text fill="#000000" font-family="sans-serif" font-size="12" font-style="italic" lengthAdjust="spacing" textLength="96" x="1604.75" y="345.1543">KrmComponent</text><line style="stroke:#A80036;stroke-width:1.5;" x1="1472" x2="1801" y1="357" y2="357"/><ellipse cx="1482" cy="368" rx="3" ry="3" style="stroke:#038048;stroke-width:1.0;fill:none;"/><text fill="#000000" font-family="sans-serif" font-size="11" lengthAdjust="spacing" textLength="163" x="1491" y="371.2104">[ComponentHandle] : Handle</text><line style="stroke:#A80036;stroke-width:1.5;" x1="1472" x2="1801" y1="377.8047" y2="377.8047"/><ellipse cx="1482" cy="388.8047" fill="#84BE84" rx="3" ry="3" style="stroke:#038048;stroke-width:1.0;"/><text fill="#000000" font-family="sans-serif" font-size="11" font-style="italic" lengthAdjust="spacing" textLength="305" x="1491" y="392.0151">[ComponentRender](out: any) : void | Promise&lt;void&gt;</text><ellipse cx="1482" cy="401.6094" fill="#84BE84" rx="3" ry="3" style="stroke:#038048;stroke-width:1.0;"/><text fill="#000000" font-family="sans-serif" font-size="11" lengthAdjust="spacing" textLength="221" x="1491" y="404.8198">[ComponentUpdate]() : Promise&lt;void&gt;</text><ellipse cx="1482" cy="414.4141" fill="#84BE84" rx="3" ry="3" style="stroke:#038048;stroke-width:1.0;"/><text fill="#000000" font-family="sans-serif" font-size="11" lengthAdjust="spacing" textLength="248" x="1491" y="417.6245">[ComponentVerify]() : void | Promise&lt;void&gt;</text><!--MD5=[a5058f62afae2244539c1a5e64c2d230]
reverse link Component to CloudComponent--><path codeLine="16" d="M904.5,126.64 C904.5,139.91 904.5,153.54 904.5,165.98 " fill="none" id="Component-backto-CloudComponent" style="stroke:#A80036;stroke-width:1.0;"/><polygon fill="none" points="897.5,126.32,904.5,106.32,911.5,126.32,897.5,126.32" style="stroke:#A80036;stroke-width:1.0;"/><!--MD5=[c7be72ff7369bcdaf4fdd3c2d19cc8ca]
reverse link CloudComponent to ArmComponent--><path codeLine="23" d="M718.85,250.13 C612.19,270.22 475.9,297.18 355.5,325 C349.9,326.3 344.2,327.64 338.46,329.02 " fill="none" id="CloudComponent-backto-ArmComponent" style="stroke:#A80036;stroke-width:1.0;"/><polygon fill="none" points="717.8,243.21,738.75,246.4,720.38,256.97,717.8,243.21" style="stroke:#A80036;stroke-width:1.0;"/><!--MD5=[695d8c8dd5b38eec1e5696f3461e8ab2]
reverse link CloudComponent to CfnComponent--><path codeLine="30" d="M772.66,273.05 C733.02,290.06 689.89,308.56 651.58,324.99 " fill="none" id="CloudComponent-backto-CfnComponent" style="stroke:#A80036;stroke-width:1.0;"/><polygon fill="none" points="770.06,266.55,791.2,265.1,775.58,279.42,770.06,266.55" style="stroke:#A80036;stroke-width:1.0;"/><!--MD5=[33af4b293e12872a0c53a141ec18b135]
reverse link CloudComponent to GdmComponent--><path codeLine="37" d="M904.5,285.64 C904.5,298.91 904.5,312.54 904.5,324.98 " fill="none" id="CloudComponent-backto-GdmComponent" style="stroke:#A80036;stroke-width:1.0;"/><polygon fill="none" points="897.5,285.32,904.5,265.32,911.5,285.32,897.5,285.32" style="stroke:#A80036;stroke-width:1.0;"/><!--MD5=[72aae16b76cd3e59a5470f8f9f356aaa]
reverse link CloudComponent to RosComponent--><path codeLine="44" d="M1036.34,273.05 C1075.98,290.06 1119.11,308.56 1157.42,324.99 " fill="none" id="CloudComponent-backto-RosComponent" style="stroke:#A80036;stroke-width:1.0;"/><polygon fill="none" points="1033.42,279.42,1017.8,265.1,1038.94,266.55,1033.42,279.42" style="stroke:#A80036;stroke-width:1.0;"/><!--MD5=[5f23bd69df86afb22b42a0f3d03ba215]
reverse link CloudComponent to KrmComponent--><path codeLine="51" d="M1090.15,250.13 C1196.81,270.22 1333.1,297.18 1453.5,325 C1459.1,326.3 1464.8,327.64 1470.54,329.02 " fill="none" id="CloudComponent-backto-KrmComponent" style="stroke:#A80036;stroke-width:1.0;"/><polygon fill="none" points="1088.62,256.97,1070.25,246.4,1091.2,243.21,1088.62,256.97" style="stroke:#A80036;stroke-width:1.0;"/><!--MD5=[31cdf2bd11a104b54e1ee6966e35dcdf]
@startuml
skinparam BackgroundColor transparent
hide empty methods
hide empty fields
abstract class "CloudComponent" {
    +[ComponentHandle] : Handle
    {abstract} +[ComponentRender](out: any) : void | Promise<void>
    +[ComponentUpdate]() : Promise<void>
    +[ComponentVerify]() : void | Promise<void>
}
abstract class "Component" {
    +[ComponentHandle] : Handle
    {abstract} +[ComponentRender](out: any) : void | Promise<void>
    +[ComponentUpdate]() : Promise<void>
    +[ComponentVerify]() : void | Promise<void>
}
"Component" <|- - "CloudComponent"
abstract class "ArmComponent" {
    +[ComponentHandle] : Handle
    {abstract} +[ComponentRender](out: any) : void | Promise<void>
    +[ComponentUpdate]() : Promise<void>
    +[ComponentVerify]() : void | Promise<void>
}
"CloudComponent" <|- - "ArmComponent"
abstract class "CfnComponent" {
    +[ComponentHandle] : Handle
    {abstract} +[ComponentRender](out: any) : void | Promise<void>
    +[ComponentUpdate]() : Promise<void>
    +[ComponentVerify]() : void | Promise<void>
}
"CloudComponent" <|- - "CfnComponent"
abstract class "GdmComponent" {
    +[ComponentHandle] : Handle
    {abstract} +[ComponentRender](out: any) : void | Promise<void>
    +[ComponentUpdate]() : Promise<void>
    +[ComponentVerify]() : void | Promise<void>
}
"CloudComponent" <|- - "GdmComponent"
abstract class "RosComponent" {
    +[ComponentHandle] : Handle
    {abstract} +[ComponentRender](out: any) : void | Promise<void>
    +[ComponentUpdate]() : Promise<void>
    +[ComponentVerify]() : void | Promise<void>
}
"CloudComponent" <|- - "RosComponent"
abstract class "KrmComponent" {
    +[ComponentHandle] : Handle
    {abstract} +[ComponentRender](out: any) : void | Promise<void>
    +[ComponentUpdate]() : Promise<void>
    +[ComponentVerify]() : void | Promise<void>
}
"CloudComponent" <|- - "KrmComponent"
@enduml

PlantUML version 1.2021.14(Fri Nov 12 16:46:50 UTC 2021)
(GPL source distribution)
Java Runtime: OpenJDK Runtime Environment
JVM: OpenJDK 64-Bit Server VM
Default Encoding: UTF-8
Language: en
Country: null
--></g></svg>