<?xml version="1.0" encoding="UTF-8" standalone="no"?><svg xmlns="http://www.w3.org/2000/svg" xmlns:xlink="http://www.w3.org/1999/xlink" contentScriptType="application/ecmascript" contentStyleType="text/css" height="401px" preserveAspectRatio="none" style="width:1138px;height:401px;background:#00000000;" version="1.1" viewBox="0 0 1138 401" width="1138px" zoomAndPan="magnify"><defs><filter height="300%" id="f1nso3jxlbae0y" width="300%" x="-1" y="-1"><feGaussianBlur result="blurOut" stdDeviation="2.0"/><feColorMatrix in="blurOut" result="blurOut2" type="matrix" values="0 0 0 0 0 0 0 0 0 0 0 0 0 0 0 0 0 0 .4 0"/><feOffset dx="4.0" dy="4.0" in="blurOut2" result="blurOut3"/><feBlend in="SourceGraphic" in2="blurOut3" mode="normal"/></filter></defs><g><!--MD5=[effa4f851d4b5ff2cb787c330b681cb8]
class CloudScene--><rect codeLine="4" fill="#FEFECE" filter="url(#f1nso3jxlbae0y)" height="32" id="CloudScene" style="stroke:#A80036;stroke-width:1.5;" width="106" x="512.5" y="217"/><ellipse cx="527.5" cy="233" fill="#A9DCDF" rx="11" ry="11" style="stroke:#A80036;stroke-width:1.0;"/><path d="M527.6094,228.3438 L526.4531,233.4219 L528.7813,233.4219 L527.6094,228.3438 Z M526.125,226.1094 L529.1094,226.1094 L532.4688,238.5 L530.0156,238.5 L529.25,235.4375 L525.9688,235.4375 L525.2188,238.5 L522.7813,238.5 L526.125,226.1094 Z " fill="#000000"/><text fill="#000000" font-family="sans-serif" font-size="12" font-style="italic" lengthAdjust="spacing" textLength="74" x="541.5" y="237.1543">CloudScene</text><!--MD5=[e4faacc5b8aef66b11ab0c816bbbc7f8]
class Scene--><rect codeLine="6" fill="#FEFECE" filter="url(#f1nso3jxlbae0y)" height="150.4375" id="Scene" style="stroke:#A80036;stroke-width:1.5;" width="347" x="392" y="7"/><ellipse cx="541.75" cy="23" fill="#A9DCDF" rx="11" ry="11" style="stroke:#A80036;stroke-width:1.0;"/><path d="M541.8594,18.3438 L540.7031,23.4219 L543.0313,23.4219 L541.8594,18.3438 Z M540.375,16.1094 L543.3594,16.1094 L546.7188,28.5 L544.2656,28.5 L543.5,25.4375 L540.2188,25.4375 L539.4688,28.5 L537.0313,28.5 L540.375,16.1094 Z " fill="#000000"/><text fill="#000000" font-family="sans-serif" font-size="12" font-style="italic" lengthAdjust="spacing" textLength="39" x="562.25" y="27.1543">Scene</text><line style="stroke:#A80036;stroke-width:1.5;" x1="393" x2="738" y1="39" y2="39"/><ellipse cx="403" cy="50" rx="3" ry="3" style="stroke:#038048;stroke-width:1.0;fill:none;"/><text fill="#000000" font-family="sans-serif" font-size="11" lengthAdjust="spacing" textLength="184" x="412" y="53.2104">components : Set&lt;Component&gt;</text><ellipse cx="403" cy="62.8047" rx="3" ry="3" style="stroke:#038048;stroke-width:1.0;fill:none;"/><text fill="#000000" font-family="sans-serif" font-size="11" lengthAdjust="spacing" textLength="97" x="412" y="66.0151">system : System</text><line style="stroke:#A80036;stroke-width:1.5;" x1="393" x2="738" y1="72.6094" y2="72.6094"/><ellipse cx="403" cy="83.6094" fill="#84BE84" rx="3" ry="3" style="stroke:#038048;stroke-width:1.0;"/><text fill="#000000" font-family="sans-serif" font-size="11" lengthAdjust="spacing" textLength="75" x="412" y="86.8198">empty() : any</text><ellipse cx="403" cy="96.4141" fill="#84BE84" rx="3" ry="3" style="stroke:#038048;stroke-width:1.0;"/><text fill="#000000" font-family="sans-serif" font-size="11" font-style="italic" lengthAdjust="spacing" textLength="227" x="412" y="99.6245">filter(component: Component) : boolean</text><ellipse cx="403" cy="109.2188" fill="#84BE84" rx="3" ry="3" style="stroke:#038048;stroke-width:1.0;"/><text fill="#000000" font-family="sans-serif" font-size="11" lengthAdjust="spacing" textLength="80" x="412" y="112.4292">gizmos() : any</text><ellipse cx="403" cy="122.0234" fill="#84BE84" rx="3" ry="3" style="stroke:#038048;stroke-width:1.0;"/><text fill="#000000" font-family="sans-serif" font-size="11" lengthAdjust="spacing" textLength="240" x="412" y="125.2339">render(view: View) : void | Promise&lt;void&gt;</text><ellipse cx="403" cy="134.8281" fill="#84BE84" rx="3" ry="3" style="stroke:#038048;stroke-width:1.0;"/><text fill="#000000" font-family="sans-serif" font-size="11" lengthAdjust="spacing" textLength="321" x="412" y="138.0386">update(token: Token&lt;any, any&gt;) : void | Promise&lt;void&gt;</text><ellipse cx="403" cy="147.6328" fill="#84BE84" rx="3" ry="3" style="stroke:#038048;stroke-width:1.0;"/><text fill="#000000" font-family="sans-serif" font-size="11" lengthAdjust="spacing" textLength="233" x="412" y="150.8433">verify(view: View) : void | Promise&lt;void&gt;</text><!--MD5=[6b683f5ba6b4e0f839617a2f6d8c0742]
class AwsScene--><rect codeLine="17" fill="#FEFECE" filter="url(#f1nso3jxlbae0y)" height="78.4141" id="AwsScene" style="stroke:#A80036;stroke-width:1.5;" width="253" x="7" y="309"/><ellipse cx="97.75" cy="325" fill="#ADD1B2" rx="11" ry="11" style="stroke:#A80036;stroke-width:1.0;"/><path d="M100.7188,330.6406 Q100.1406,330.9375 99.5,331.0781 Q98.8594,331.2344 98.1563,331.2344 Q95.6563,331.2344 94.3281,329.5938 Q93.0156,327.9375 93.0156,324.8125 Q93.0156,321.6875 94.3281,320.0313 Q95.6563,318.375 98.1563,318.375 Q98.8594,318.375 99.5,318.5313 Q100.1563,318.6875 100.7188,318.9844 L100.7188,321.7031 Q100.0938,321.125 99.5,320.8594 Q98.9063,320.5781 98.2813,320.5781 Q96.9375,320.5781 96.25,321.6563 Q95.5625,322.7188 95.5625,324.8125 Q95.5625,326.9063 96.25,327.9844 Q96.9375,329.0469 98.2813,329.0469 Q98.9063,329.0469 99.5,328.7813 Q100.0938,328.5 100.7188,327.9219 L100.7188,330.6406 Z " fill="#000000"/><text fill="#000000" font-family="sans-serif" font-size="12" lengthAdjust="spacing" textLength="63" x="118.25" y="329.1543">AwsScene</text><line style="stroke:#A80036;stroke-width:1.5;" x1="8" x2="259" y1="341" y2="341"/><ellipse cx="18" cy="352" fill="#84BE84" rx="3" ry="3" style="stroke:#038048;stroke-width:1.0;"/><text fill="#000000" font-family="sans-serif" font-size="11" lengthAdjust="spacing" textLength="108" x="27" y="355.2104">empty() : Template</text><ellipse cx="18" cy="364.8047" fill="#84BE84" rx="3" ry="3" style="stroke:#038048;stroke-width:1.0;"/><text fill="#000000" font-family="sans-serif" font-size="11" lengthAdjust="spacing" textLength="227" x="27" y="368.0151">filter(component: Component) : boolean</text><ellipse cx="18" cy="377.6094" fill="#84BE84" rx="3" ry="3" style="stroke:#038048;stroke-width:1.0;"/><text fill="#000000" font-family="sans-serif" font-size="11" lengthAdjust="spacing" textLength="221" x="27" y="380.8198">update(token: Token&lt;any, any&gt;) : void</text><!--MD5=[5d8791e0b0f57b17cd74ab5b0f357d8a]
class RosScene--><rect codeLine="23" fill="#FEFECE" filter="url(#f1nso3jxlbae0y)" height="78.4141" id="RosScene" style="stroke:#A80036;stroke-width:1.5;" width="253" x="295" y="309"/><ellipse cx="386.25" cy="325" fill="#ADD1B2" rx="11" ry="11" style="stroke:#A80036;stroke-width:1.0;"/><path d="M389.2188,330.6406 Q388.6406,330.9375 388,331.0781 Q387.3594,331.2344 386.6563,331.2344 Q384.1563,331.2344 382.8281,329.5938 Q381.5156,327.9375 381.5156,324.8125 Q381.5156,321.6875 382.8281,320.0313 Q384.1563,318.375 386.6563,318.375 Q387.3594,318.375 388,318.5313 Q388.6563,318.6875 389.2188,318.9844 L389.2188,321.7031 Q388.5938,321.125 388,320.8594 Q387.4063,320.5781 386.7813,320.5781 Q385.4375,320.5781 384.75,321.6563 Q384.0625,322.7188 384.0625,324.8125 Q384.0625,326.9063 384.75,327.9844 Q385.4375,329.0469 386.7813,329.0469 Q387.4063,329.0469 388,328.7813 Q388.5938,328.5 389.2188,327.9219 L389.2188,330.6406 Z " fill="#000000"/><text fill="#000000" font-family="sans-serif" font-size="12" lengthAdjust="spacing" textLength="62" x="406.75" y="329.1543">RosScene</text><line style="stroke:#A80036;stroke-width:1.5;" x1="296" x2="547" y1="341" y2="341"/><ellipse cx="306" cy="352" fill="#84BE84" rx="3" ry="3" style="stroke:#038048;stroke-width:1.0;"/><text fill="#000000" font-family="sans-serif" font-size="11" lengthAdjust="spacing" textLength="108" x="315" y="355.2104">empty() : Template</text><ellipse cx="306" cy="364.8047" fill="#84BE84" rx="3" ry="3" style="stroke:#038048;stroke-width:1.0;"/><text fill="#000000" font-family="sans-serif" font-size="11" lengthAdjust="spacing" textLength="227" x="315" y="368.0151">filter(component: Component) : boolean</text><ellipse cx="306" cy="377.6094" fill="#84BE84" rx="3" ry="3" style="stroke:#038048;stroke-width:1.0;"/><text fill="#000000" font-family="sans-serif" font-size="11" lengthAdjust="spacing" textLength="221" x="315" y="380.8198">update(token: Token&lt;any, any&gt;) : void</text><!--MD5=[7cc8d463400a80c8d2dac75cb81a1a89]
class GdmScene--><rect codeLine="29" fill="#FEFECE" filter="url(#f1nso3jxlbae0y)" height="78.4141" id="GdmScene" style="stroke:#A80036;stroke-width:1.5;" width="253" x="583" y="309"/><ellipse cx="671.75" cy="325" fill="#ADD1B2" rx="11" ry="11" style="stroke:#A80036;stroke-width:1.0;"/><path d="M674.7188,330.6406 Q674.1406,330.9375 673.5,331.0781 Q672.8594,331.2344 672.1563,331.2344 Q669.6563,331.2344 668.3281,329.5938 Q667.0156,327.9375 667.0156,324.8125 Q667.0156,321.6875 668.3281,320.0313 Q669.6563,318.375 672.1563,318.375 Q672.8594,318.375 673.5,318.5313 Q674.1563,318.6875 674.7188,318.9844 L674.7188,321.7031 Q674.0938,321.125 673.5,320.8594 Q672.9063,320.5781 672.2813,320.5781 Q670.9375,320.5781 670.25,321.6563 Q669.5625,322.7188 669.5625,324.8125 Q669.5625,326.9063 670.25,327.9844 Q670.9375,329.0469 672.2813,329.0469 Q672.9063,329.0469 673.5,328.7813 Q674.0938,328.5 674.7188,327.9219 L674.7188,330.6406 Z " fill="#000000"/><text fill="#000000" font-family="sans-serif" font-size="12" lengthAdjust="spacing" textLength="67" x="692.25" y="329.1543">GdmScene</text><line style="stroke:#A80036;stroke-width:1.5;" x1="584" x2="835" y1="341" y2="341"/><ellipse cx="594" cy="352" fill="#84BE84" rx="3" ry="3" style="stroke:#038048;stroke-width:1.0;"/><text fill="#000000" font-family="sans-serif" font-size="11" lengthAdjust="spacing" textLength="108" x="603" y="355.2104">empty() : Template</text><ellipse cx="594" cy="364.8047" fill="#84BE84" rx="3" ry="3" style="stroke:#038048;stroke-width:1.0;"/><text fill="#000000" font-family="sans-serif" font-size="11" lengthAdjust="spacing" textLength="227" x="603" y="368.0151">filter(component: Component) : boolean</text><ellipse cx="594" cy="377.6094" fill="#84BE84" rx="3" ry="3" style="stroke:#038048;stroke-width:1.0;"/><text fill="#000000" font-family="sans-serif" font-size="11" lengthAdjust="spacing" textLength="221" x="603" y="380.8198">update(token: Token&lt;any, any&gt;) : void</text><!--MD5=[af02f0d337078dcde1f9aa32f35b9ebc]
class ArmScene--><rect codeLine="35" fill="#FEFECE" filter="url(#f1nso3jxlbae0y)" height="78.4141" id="ArmScene" style="stroke:#A80036;stroke-width:1.5;" width="253" x="871" y="309"/><ellipse cx="961.75" cy="325" fill="#ADD1B2" rx="11" ry="11" style="stroke:#A80036;stroke-width:1.0;"/><path d="M964.7188,330.6406 Q964.1406,330.9375 963.5,331.0781 Q962.8594,331.2344 962.1563,331.2344 Q959.6563,331.2344 958.3281,329.5938 Q957.0156,327.9375 957.0156,324.8125 Q957.0156,321.6875 958.3281,320.0313 Q959.6563,318.375 962.1563,318.375 Q962.8594,318.375 963.5,318.5313 Q964.1563,318.6875 964.7188,318.9844 L964.7188,321.7031 Q964.0938,321.125 963.5,320.8594 Q962.9063,320.5781 962.2813,320.5781 Q960.9375,320.5781 960.25,321.6563 Q959.5625,322.7188 959.5625,324.8125 Q959.5625,326.9063 960.25,327.9844 Q960.9375,329.0469 962.2813,329.0469 Q962.9063,329.0469 963.5,328.7813 Q964.0938,328.5 964.7188,327.9219 L964.7188,330.6406 Z " fill="#000000"/><text fill="#000000" font-family="sans-serif" font-size="12" lengthAdjust="spacing" textLength="63" x="982.25" y="329.1543">ArmScene</text><line style="stroke:#A80036;stroke-width:1.5;" x1="872" x2="1123" y1="341" y2="341"/><ellipse cx="882" cy="352" fill="#84BE84" rx="3" ry="3" style="stroke:#038048;stroke-width:1.0;"/><text fill="#000000" font-family="sans-serif" font-size="11" lengthAdjust="spacing" textLength="108" x="891" y="355.2104">empty() : Template</text><ellipse cx="882" cy="364.8047" fill="#84BE84" rx="3" ry="3" style="stroke:#038048;stroke-width:1.0;"/><text fill="#000000" font-family="sans-serif" font-size="11" lengthAdjust="spacing" textLength="227" x="891" y="368.0151">filter(component: Component) : boolean</text><ellipse cx="882" cy="377.6094" fill="#84BE84" rx="3" ry="3" style="stroke:#038048;stroke-width:1.0;"/><text fill="#000000" font-family="sans-serif" font-size="11" lengthAdjust="spacing" textLength="221" x="891" y="380.8198">update(token: Token&lt;any, any&gt;) : void</text><!--MD5=[3dcd8b67d58bc44d5ae980402595f4f8]
reverse link Scene to CloudScene--><path codeLine="16" d="M565.5,177.28 C565.5,192.61 565.5,206.73 565.5,216.78 " fill="none" id="Scene-backto-CloudScene" style="stroke:#A80036;stroke-width:1.0;"/><polygon fill="none" points="558.5,177.06,565.5,157.06,572.5,177.06,558.5,177.06" style="stroke:#A80036;stroke-width:1.0;"/><!--MD5=[ac6bb23a04ca04b4ebb5f346c91691b2]
reverse link CloudScene to AwsScene--><path codeLine="22" d="M492.93,252.83 C434.69,267.96 350.82,289.78 277.5,309 C271.87,310.48 266.12,311.98 260.31,313.51 " fill="none" id="CloudScene-backto-AwsScene" style="stroke:#A80036;stroke-width:1.0;"/><polygon fill="none" points="491.29,246.02,512.41,247.77,494.81,259.57,491.29,246.02" style="stroke:#A80036;stroke-width:1.0;"/><!--MD5=[73fc246f228ee7038096cd574ebf572b]
reverse link CloudScene to RosScene--><path codeLine="28" d="M530.54,261.43 C512.41,275.66 489.98,293.27 470.18,308.8 " fill="none" id="CloudScene-backto-RosScene" style="stroke:#A80036;stroke-width:1.0;"/><polygon fill="none" points="526.32,255.85,546.38,249.01,534.97,266.86,526.32,255.85" style="stroke:#A80036;stroke-width:1.0;"/><!--MD5=[89bcabeb63ef5aa4eff8c8971ccc2ce5]
reverse link CloudScene to GdmScene--><path codeLine="34" d="M600.46,261.43 C618.59,275.66 641.02,293.27 660.82,308.8 " fill="none" id="CloudScene-backto-GdmScene" style="stroke:#A80036;stroke-width:1.0;"/><polygon fill="none" points="596.03,266.86,584.62,249.01,604.68,255.85,596.03,266.86" style="stroke:#A80036;stroke-width:1.0;"/><!--MD5=[c09e78d60b0ac51814d16ca2d2446bb5]
reverse link CloudScene to ArmScene--><path codeLine="40" d="M638.07,252.83 C696.31,267.96 780.18,289.78 853.5,309 C859.13,310.48 864.88,311.98 870.69,313.51 " fill="none" id="CloudScene-backto-ArmScene" style="stroke:#A80036;stroke-width:1.0;"/><polygon fill="none" points="636.19,259.57,618.59,247.77,639.71,246.02,636.19,259.57" style="stroke:#A80036;stroke-width:1.0;"/><!--MD5=[d4e12c805ed77915134c6ecc52d9fd60]
@startuml
skinparam BackgroundColor transparent
hide empty methods
hide empty fields
abstract class "CloudScene" {
}
abstract class "Scene" {
    +components : Set<Component>
    +system : System
    +empty() : any
    {abstract} +filter(component: Component) : boolean
    +gizmos() : any
    +render(view: View) : void | Promise<void>
    +update(token: Token<any, any>) : void | Promise<void>
    +verify(view: View) : void | Promise<void>
}
"Scene" <|- - "CloudScene"
class "AwsScene" {
    +empty() : Template
    +filter(component: Component) : boolean
    +update(token: Token<any, any>) : void
}
"CloudScene" <|- - "AwsScene"
class "RosScene" {
    +empty() : Template
    +filter(component: Component) : boolean
    +update(token: Token<any, any>) : void
}
"CloudScene" <|- - "RosScene"
class "GdmScene" {
    +empty() : Template
    +filter(component: Component) : boolean
    +update(token: Token<any, any>) : void
}
"CloudScene" <|- - "GdmScene"
class "ArmScene" {
    +empty() : Template
    +filter(component: Component) : boolean
    +update(token: Token<any, any>) : void
}
"CloudScene" <|- - "ArmScene"
@enduml

PlantUML version 1.2021.14(Fri Nov 12 16:46:50 UTC 2021)
(GPL source distribution)
Java Runtime: OpenJDK Runtime Environment
JVM: OpenJDK 64-Bit Server VM
Default Encoding: UTF-8
Language: en
Country: null
--></g></svg>