<?xml version="1.0" encoding="UTF-8" standalone="no"?><svg xmlns="http://www.w3.org/2000/svg" xmlns:xlink="http://www.w3.org/1999/xlink" contentScriptType="application/ecmascript" contentStyleType="text/css" height="604px" preserveAspectRatio="none" style="width:1514px;height:604px;background:#00000000;" version="1.1" viewBox="0 0 1514 604" width="1514px" zoomAndPan="magnify"><defs><filter height="300%" id="f8o4wljpgzp2y" width="300%" x="-1" y="-1"><feGaussianBlur result="blurOut" stdDeviation="2.0"/><feColorMatrix in="blurOut" result="blurOut2" type="matrix" values="0 0 0 0 0 0 0 0 0 0 0 0 0 0 0 0 0 0 .4 0"/><feOffset dx="4.0" dy="4.0" in="blurOut2" result="blurOut3"/><feBlend in="SourceGraphic" in2="blurOut3" mode="normal"/></filter></defs><g><!--MD5=[effa4f851d4b5ff2cb787c330b681cb8]
class CloudScene--><rect codeLine="4" fill="#FEFECE" filter="url(#f8o4wljpgzp2y)" height="150.4375" id="CloudScene" style="stroke:#A80036;stroke-width:1.5;" width="347" x="580" y="217"/><ellipse cx="712.25" cy="233" fill="#A9DCDF" rx="11" ry="11" style="stroke:#A80036;stroke-width:1.0;"/><path d="M712.3594,228.3438 L711.2031,233.4219 L713.5313,233.4219 L712.3594,228.3438 Z M710.875,226.1094 L713.8594,226.1094 L717.2188,238.5 L714.7656,238.5 L714,235.4375 L710.7188,235.4375 L709.9688,238.5 L707.5313,238.5 L710.875,226.1094 Z " fill="#000000"/><text fill="#000000" font-family="sans-serif" font-size="12" font-style="italic" lengthAdjust="spacing" textLength="74" x="732.75" y="237.1543">CloudScene</text><line style="stroke:#A80036;stroke-width:1.5;" x1="581" x2="926" y1="249" y2="249"/><ellipse cx="591" cy="260" rx="3" ry="3" style="stroke:#038048;stroke-width:1.0;fill:none;"/><text fill="#000000" font-family="sans-serif" font-size="11" lengthAdjust="spacing" textLength="184" x="600" y="263.2104">components : Set&lt;Component&gt;</text><ellipse cx="591" cy="272.8047" rx="3" ry="3" style="stroke:#038048;stroke-width:1.0;fill:none;"/><text fill="#000000" font-family="sans-serif" font-size="11" lengthAdjust="spacing" textLength="97" x="600" y="276.0151">system : System</text><line style="stroke:#A80036;stroke-width:1.5;" x1="581" x2="926" y1="282.6094" y2="282.6094"/><ellipse cx="591" cy="293.6094" fill="#84BE84" rx="3" ry="3" style="stroke:#038048;stroke-width:1.0;"/><text fill="#000000" font-family="sans-serif" font-size="11" lengthAdjust="spacing" textLength="75" x="600" y="296.8198">empty() : any</text><ellipse cx="591" cy="306.4141" fill="#84BE84" rx="3" ry="3" style="stroke:#038048;stroke-width:1.0;"/><text fill="#000000" font-family="sans-serif" font-size="11" font-style="italic" lengthAdjust="spacing" textLength="227" x="600" y="309.6245">filter(component: Component) : boolean</text><ellipse cx="591" cy="319.2188" fill="#84BE84" rx="3" ry="3" style="stroke:#038048;stroke-width:1.0;"/><text fill="#000000" font-family="sans-serif" font-size="11" lengthAdjust="spacing" textLength="80" x="600" y="322.4292">gizmos() : any</text><ellipse cx="591" cy="332.0234" fill="#84BE84" rx="3" ry="3" style="stroke:#038048;stroke-width:1.0;"/><text fill="#000000" font-family="sans-serif" font-size="11" lengthAdjust="spacing" textLength="240" x="600" y="335.2339">render(view: View) : void | Promise&lt;void&gt;</text><ellipse cx="591" cy="344.8281" fill="#84BE84" rx="3" ry="3" style="stroke:#038048;stroke-width:1.0;"/><text fill="#000000" font-family="sans-serif" font-size="11" lengthAdjust="spacing" textLength="321" x="600" y="348.0386">update(token: Token&lt;any, any&gt;) : void | Promise&lt;void&gt;</text><ellipse cx="591" cy="357.6328" fill="#84BE84" rx="3" ry="3" style="stroke:#038048;stroke-width:1.0;"/><text fill="#000000" font-family="sans-serif" font-size="11" lengthAdjust="spacing" textLength="233" x="600" y="360.8433">verify(view: View) : void | Promise&lt;void&gt;</text><!--MD5=[e4faacc5b8aef66b11ab0c816bbbc7f8]
class Scene--><rect codeLine="14" fill="#FEFECE" filter="url(#f8o4wljpgzp2y)" height="150.4375" id="Scene" style="stroke:#A80036;stroke-width:1.5;" width="347" x="580" y="7"/><ellipse cx="729.75" cy="23" fill="#A9DCDF" rx="11" ry="11" style="stroke:#A80036;stroke-width:1.0;"/><path d="M729.8594,18.3438 L728.7031,23.4219 L731.0313,23.4219 L729.8594,18.3438 Z M728.375,16.1094 L731.3594,16.1094 L734.7188,28.5 L732.2656,28.5 L731.5,25.4375 L728.2188,25.4375 L727.4688,28.5 L725.0313,28.5 L728.375,16.1094 Z " fill="#000000"/><text fill="#000000" font-family="sans-serif" font-size="12" font-style="italic" lengthAdjust="spacing" textLength="39" x="750.25" y="27.1543">Scene</text><line style="stroke:#A80036;stroke-width:1.5;" x1="581" x2="926" y1="39" y2="39"/><ellipse cx="591" cy="50" rx="3" ry="3" style="stroke:#038048;stroke-width:1.0;fill:none;"/><text fill="#000000" font-family="sans-serif" font-size="11" lengthAdjust="spacing" textLength="184" x="600" y="53.2104">components : Set&lt;Component&gt;</text><ellipse cx="591" cy="62.8047" rx="3" ry="3" style="stroke:#038048;stroke-width:1.0;fill:none;"/><text fill="#000000" font-family="sans-serif" font-size="11" lengthAdjust="spacing" textLength="97" x="600" y="66.0151">system : System</text><line style="stroke:#A80036;stroke-width:1.5;" x1="581" x2="926" y1="72.6094" y2="72.6094"/><ellipse cx="591" cy="83.6094" fill="#84BE84" rx="3" ry="3" style="stroke:#038048;stroke-width:1.0;"/><text fill="#000000" font-family="sans-serif" font-size="11" lengthAdjust="spacing" textLength="75" x="600" y="86.8198">empty() : any</text><ellipse cx="591" cy="96.4141" fill="#84BE84" rx="3" ry="3" style="stroke:#038048;stroke-width:1.0;"/><text fill="#000000" font-family="sans-serif" font-size="11" font-style="italic" lengthAdjust="spacing" textLength="227" x="600" y="99.6245">filter(component: Component) : boolean</text><ellipse cx="591" cy="109.2188" fill="#84BE84" rx="3" ry="3" style="stroke:#038048;stroke-width:1.0;"/><text fill="#000000" font-family="sans-serif" font-size="11" lengthAdjust="spacing" textLength="80" x="600" y="112.4292">gizmos() : any</text><ellipse cx="591" cy="122.0234" fill="#84BE84" rx="3" ry="3" style="stroke:#038048;stroke-width:1.0;"/><text fill="#000000" font-family="sans-serif" font-size="11" lengthAdjust="spacing" textLength="240" x="600" y="125.2339">render(view: View) : void | Promise&lt;void&gt;</text><ellipse cx="591" cy="134.8281" fill="#84BE84" rx="3" ry="3" style="stroke:#038048;stroke-width:1.0;"/><text fill="#000000" font-family="sans-serif" font-size="11" lengthAdjust="spacing" textLength="321" x="600" y="138.0386">update(token: Token&lt;any, any&gt;) : void | Promise&lt;void&gt;</text><ellipse cx="591" cy="147.6328" fill="#84BE84" rx="3" ry="3" style="stroke:#038048;stroke-width:1.0;"/><text fill="#000000" font-family="sans-serif" font-size="11" lengthAdjust="spacing" textLength="233" x="600" y="150.8433">verify(view: View) : void | Promise&lt;void&gt;</text><!--MD5=[6b683f5ba6b4e0f839617a2f6d8c0742]
class AwsScene--><rect codeLine="25" fill="#FEFECE" filter="url(#f8o4wljpgzp2y)" height="163.2422" id="AwsScene" style="stroke:#A80036;stroke-width:1.5;" width="347" x="7" y="427"/><ellipse cx="144.75" cy="443" fill="#ADD1B2" rx="11" ry="11" style="stroke:#A80036;stroke-width:1.0;"/><path d="M147.7188,448.6406 Q147.1406,448.9375 146.5,449.0781 Q145.8594,449.2344 145.1563,449.2344 Q142.6563,449.2344 141.3281,447.5938 Q140.0156,445.9375 140.0156,442.8125 Q140.0156,439.6875 141.3281,438.0313 Q142.6563,436.375 145.1563,436.375 Q145.8594,436.375 146.5,436.5313 Q147.1563,436.6875 147.7188,436.9844 L147.7188,439.7031 Q147.0938,439.125 146.5,438.8594 Q145.9063,438.5781 145.2813,438.5781 Q143.9375,438.5781 143.25,439.6563 Q142.5625,440.7188 142.5625,442.8125 Q142.5625,444.9063 143.25,445.9844 Q143.9375,447.0469 145.2813,447.0469 Q145.9063,447.0469 146.5,446.7813 Q147.0938,446.5 147.7188,445.9219 L147.7188,448.6406 Z " fill="#000000"/><text fill="#000000" font-family="sans-serif" font-size="12" lengthAdjust="spacing" textLength="63" x="165.25" y="447.1543">AwsScene</text><line style="stroke:#A80036;stroke-width:1.5;" x1="8" x2="353" y1="459" y2="459"/><ellipse cx="18" cy="470" rx="3" ry="3" style="stroke:#038048;stroke-width:1.0;fill:none;"/><text fill="#000000" font-family="sans-serif" font-size="11" lengthAdjust="spacing" textLength="184" x="27" y="473.2104">components : Set&lt;Component&gt;</text><ellipse cx="18" cy="482.8047" rx="3" ry="3" style="stroke:#038048;stroke-width:1.0;fill:none;"/><text fill="#000000" font-family="sans-serif" font-size="11" lengthAdjust="spacing" textLength="97" x="27" y="486.0151">system : System</text><rect fill="none" height="6" style="stroke:#C82930;stroke-width:1.0;" width="6" x="15" y="492.6094"/><text fill="#000000" font-family="sans-serif" font-size="11" lengthAdjust="spacing" textLength="107" x="27" y="498.8198">_output : Template</text><line style="stroke:#A80036;stroke-width:1.5;" x1="8" x2="353" y1="505.4141" y2="505.4141"/><ellipse cx="18" cy="516.4141" fill="#84BE84" rx="3" ry="3" style="stroke:#038048;stroke-width:1.0;"/><text fill="#000000" font-family="sans-serif" font-size="11" lengthAdjust="spacing" textLength="108" x="27" y="519.6245">empty() : Template</text><ellipse cx="18" cy="529.2188" fill="#84BE84" rx="3" ry="3" style="stroke:#038048;stroke-width:1.0;"/><text fill="#000000" font-family="sans-serif" font-size="11" lengthAdjust="spacing" textLength="227" x="27" y="532.4292">filter(component: Component) : boolean</text><ellipse cx="18" cy="542.0234" fill="#84BE84" rx="3" ry="3" style="stroke:#038048;stroke-width:1.0;"/><text fill="#000000" font-family="sans-serif" font-size="11" lengthAdjust="spacing" textLength="80" x="27" y="545.2339">gizmos() : any</text><ellipse cx="18" cy="554.8281" fill="#84BE84" rx="3" ry="3" style="stroke:#038048;stroke-width:1.0;"/><text fill="#000000" font-family="sans-serif" font-size="11" lengthAdjust="spacing" textLength="240" x="27" y="558.0386">render(view: View) : void | Promise&lt;void&gt;</text><ellipse cx="18" cy="567.6328" fill="#84BE84" rx="3" ry="3" style="stroke:#038048;stroke-width:1.0;"/><text fill="#000000" font-family="sans-serif" font-size="11" lengthAdjust="spacing" textLength="321" x="27" y="570.8433">update(token: Token&lt;any, any&gt;) : void | Promise&lt;void&gt;</text><ellipse cx="18" cy="580.4375" fill="#84BE84" rx="3" ry="3" style="stroke:#038048;stroke-width:1.0;"/><text fill="#000000" font-family="sans-serif" font-size="11" lengthAdjust="spacing" textLength="233" x="27" y="583.6479">verify(view: View) : void | Promise&lt;void&gt;</text><!--MD5=[5d8791e0b0f57b17cd74ab5b0f357d8a]
class RosScene--><rect codeLine="37" fill="#FEFECE" filter="url(#f8o4wljpgzp2y)" height="163.2422" id="RosScene" style="stroke:#A80036;stroke-width:1.5;" width="347" x="389" y="427"/><ellipse cx="527.25" cy="443" fill="#ADD1B2" rx="11" ry="11" style="stroke:#A80036;stroke-width:1.0;"/><path d="M530.2188,448.6406 Q529.6406,448.9375 529,449.0781 Q528.3594,449.2344 527.6563,449.2344 Q525.1563,449.2344 523.8281,447.5938 Q522.5156,445.9375 522.5156,442.8125 Q522.5156,439.6875 523.8281,438.0313 Q525.1563,436.375 527.6563,436.375 Q528.3594,436.375 529,436.5313 Q529.6563,436.6875 530.2188,436.9844 L530.2188,439.7031 Q529.5938,439.125 529,438.8594 Q528.4063,438.5781 527.7813,438.5781 Q526.4375,438.5781 525.75,439.6563 Q525.0625,440.7188 525.0625,442.8125 Q525.0625,444.9063 525.75,445.9844 Q526.4375,447.0469 527.7813,447.0469 Q528.4063,447.0469 529,446.7813 Q529.5938,446.5 530.2188,445.9219 L530.2188,448.6406 Z " fill="#000000"/><text fill="#000000" font-family="sans-serif" font-size="12" lengthAdjust="spacing" textLength="62" x="547.75" y="447.1543">RosScene</text><line style="stroke:#A80036;stroke-width:1.5;" x1="390" x2="735" y1="459" y2="459"/><ellipse cx="400" cy="470" rx="3" ry="3" style="stroke:#038048;stroke-width:1.0;fill:none;"/><text fill="#000000" font-family="sans-serif" font-size="11" lengthAdjust="spacing" textLength="184" x="409" y="473.2104">components : Set&lt;Component&gt;</text><ellipse cx="400" cy="482.8047" rx="3" ry="3" style="stroke:#038048;stroke-width:1.0;fill:none;"/><text fill="#000000" font-family="sans-serif" font-size="11" lengthAdjust="spacing" textLength="97" x="409" y="486.0151">system : System</text><rect fill="none" height="6" style="stroke:#C82930;stroke-width:1.0;" width="6" x="397" y="492.6094"/><text fill="#000000" font-family="sans-serif" font-size="11" lengthAdjust="spacing" textLength="107" x="409" y="498.8198">_output : Template</text><line style="stroke:#A80036;stroke-width:1.5;" x1="390" x2="735" y1="505.4141" y2="505.4141"/><ellipse cx="400" cy="516.4141" fill="#84BE84" rx="3" ry="3" style="stroke:#038048;stroke-width:1.0;"/><text fill="#000000" font-family="sans-serif" font-size="11" lengthAdjust="spacing" textLength="108" x="409" y="519.6245">empty() : Template</text><ellipse cx="400" cy="529.2188" fill="#84BE84" rx="3" ry="3" style="stroke:#038048;stroke-width:1.0;"/><text fill="#000000" font-family="sans-serif" font-size="11" lengthAdjust="spacing" textLength="227" x="409" y="532.4292">filter(component: Component) : boolean</text><ellipse cx="400" cy="542.0234" fill="#84BE84" rx="3" ry="3" style="stroke:#038048;stroke-width:1.0;"/><text fill="#000000" font-family="sans-serif" font-size="11" lengthAdjust="spacing" textLength="80" x="409" y="545.2339">gizmos() : any</text><ellipse cx="400" cy="554.8281" fill="#84BE84" rx="3" ry="3" style="stroke:#038048;stroke-width:1.0;"/><text fill="#000000" font-family="sans-serif" font-size="11" lengthAdjust="spacing" textLength="240" x="409" y="558.0386">render(view: View) : void | Promise&lt;void&gt;</text><ellipse cx="400" cy="567.6328" fill="#84BE84" rx="3" ry="3" style="stroke:#038048;stroke-width:1.0;"/><text fill="#000000" font-family="sans-serif" font-size="11" lengthAdjust="spacing" textLength="321" x="409" y="570.8433">update(token: Token&lt;any, any&gt;) : void | Promise&lt;void&gt;</text><ellipse cx="400" cy="580.4375" fill="#84BE84" rx="3" ry="3" style="stroke:#038048;stroke-width:1.0;"/><text fill="#000000" font-family="sans-serif" font-size="11" lengthAdjust="spacing" textLength="233" x="409" y="583.6479">verify(view: View) : void | Promise&lt;void&gt;</text><!--MD5=[7cc8d463400a80c8d2dac75cb81a1a89]
class GdmScene--><rect codeLine="49" fill="#FEFECE" filter="url(#f8o4wljpgzp2y)" height="163.2422" id="GdmScene" style="stroke:#A80036;stroke-width:1.5;" width="347" x="771" y="427"/><ellipse cx="906.75" cy="443" fill="#ADD1B2" rx="11" ry="11" style="stroke:#A80036;stroke-width:1.0;"/><path d="M909.7188,448.6406 Q909.1406,448.9375 908.5,449.0781 Q907.8594,449.2344 907.1563,449.2344 Q904.6563,449.2344 903.3281,447.5938 Q902.0156,445.9375 902.0156,442.8125 Q902.0156,439.6875 903.3281,438.0313 Q904.6563,436.375 907.1563,436.375 Q907.8594,436.375 908.5,436.5313 Q909.1563,436.6875 909.7188,436.9844 L909.7188,439.7031 Q909.0938,439.125 908.5,438.8594 Q907.9063,438.5781 907.2813,438.5781 Q905.9375,438.5781 905.25,439.6563 Q904.5625,440.7188 904.5625,442.8125 Q904.5625,444.9063 905.25,445.9844 Q905.9375,447.0469 907.2813,447.0469 Q907.9063,447.0469 908.5,446.7813 Q909.0938,446.5 909.7188,445.9219 L909.7188,448.6406 Z " fill="#000000"/><text fill="#000000" font-family="sans-serif" font-size="12" lengthAdjust="spacing" textLength="67" x="927.25" y="447.1543">GdmScene</text><line style="stroke:#A80036;stroke-width:1.5;" x1="772" x2="1117" y1="459" y2="459"/><ellipse cx="782" cy="470" rx="3" ry="3" style="stroke:#038048;stroke-width:1.0;fill:none;"/><text fill="#000000" font-family="sans-serif" font-size="11" lengthAdjust="spacing" textLength="184" x="791" y="473.2104">components : Set&lt;Component&gt;</text><ellipse cx="782" cy="482.8047" rx="3" ry="3" style="stroke:#038048;stroke-width:1.0;fill:none;"/><text fill="#000000" font-family="sans-serif" font-size="11" lengthAdjust="spacing" textLength="97" x="791" y="486.0151">system : System</text><rect fill="none" height="6" style="stroke:#C82930;stroke-width:1.0;" width="6" x="779" y="492.6094"/><text fill="#000000" font-family="sans-serif" font-size="11" lengthAdjust="spacing" textLength="107" x="791" y="498.8198">_output : Template</text><line style="stroke:#A80036;stroke-width:1.5;" x1="772" x2="1117" y1="505.4141" y2="505.4141"/><ellipse cx="782" cy="516.4141" fill="#84BE84" rx="3" ry="3" style="stroke:#038048;stroke-width:1.0;"/><text fill="#000000" font-family="sans-serif" font-size="11" lengthAdjust="spacing" textLength="108" x="791" y="519.6245">empty() : Template</text><ellipse cx="782" cy="529.2188" fill="#84BE84" rx="3" ry="3" style="stroke:#038048;stroke-width:1.0;"/><text fill="#000000" font-family="sans-serif" font-size="11" lengthAdjust="spacing" textLength="227" x="791" y="532.4292">filter(component: Component) : boolean</text><ellipse cx="782" cy="542.0234" fill="#84BE84" rx="3" ry="3" style="stroke:#038048;stroke-width:1.0;"/><text fill="#000000" font-family="sans-serif" font-size="11" lengthAdjust="spacing" textLength="80" x="791" y="545.2339">gizmos() : any</text><ellipse cx="782" cy="554.8281" fill="#84BE84" rx="3" ry="3" style="stroke:#038048;stroke-width:1.0;"/><text fill="#000000" font-family="sans-serif" font-size="11" lengthAdjust="spacing" textLength="240" x="791" y="558.0386">render(view: View) : void | Promise&lt;void&gt;</text><ellipse cx="782" cy="567.6328" fill="#84BE84" rx="3" ry="3" style="stroke:#038048;stroke-width:1.0;"/><text fill="#000000" font-family="sans-serif" font-size="11" lengthAdjust="spacing" textLength="321" x="791" y="570.8433">update(token: Token&lt;any, any&gt;) : void | Promise&lt;void&gt;</text><ellipse cx="782" cy="580.4375" fill="#84BE84" rx="3" ry="3" style="stroke:#038048;stroke-width:1.0;"/><text fill="#000000" font-family="sans-serif" font-size="11" lengthAdjust="spacing" textLength="233" x="791" y="583.6479">verify(view: View) : void | Promise&lt;void&gt;</text><!--MD5=[af02f0d337078dcde1f9aa32f35b9ebc]
class ArmScene--><rect codeLine="61" fill="#FEFECE" filter="url(#f8o4wljpgzp2y)" height="163.2422" id="ArmScene" style="stroke:#A80036;stroke-width:1.5;" width="347" x="1153" y="427"/><ellipse cx="1290.75" cy="443" fill="#ADD1B2" rx="11" ry="11" style="stroke:#A80036;stroke-width:1.0;"/><path d="M1293.7188,448.6406 Q1293.1406,448.9375 1292.5,449.0781 Q1291.8594,449.2344 1291.1563,449.2344 Q1288.6563,449.2344 1287.3281,447.5938 Q1286.0156,445.9375 1286.0156,442.8125 Q1286.0156,439.6875 1287.3281,438.0313 Q1288.6563,436.375 1291.1563,436.375 Q1291.8594,436.375 1292.5,436.5313 Q1293.1563,436.6875 1293.7188,436.9844 L1293.7188,439.7031 Q1293.0938,439.125 1292.5,438.8594 Q1291.9063,438.5781 1291.2813,438.5781 Q1289.9375,438.5781 1289.25,439.6563 Q1288.5625,440.7188 1288.5625,442.8125 Q1288.5625,444.9063 1289.25,445.9844 Q1289.9375,447.0469 1291.2813,447.0469 Q1291.9063,447.0469 1292.5,446.7813 Q1293.0938,446.5 1293.7188,445.9219 L1293.7188,448.6406 Z " fill="#000000"/><text fill="#000000" font-family="sans-serif" font-size="12" lengthAdjust="spacing" textLength="63" x="1311.25" y="447.1543">ArmScene</text><line style="stroke:#A80036;stroke-width:1.5;" x1="1154" x2="1499" y1="459" y2="459"/><ellipse cx="1164" cy="470" rx="3" ry="3" style="stroke:#038048;stroke-width:1.0;fill:none;"/><text fill="#000000" font-family="sans-serif" font-size="11" lengthAdjust="spacing" textLength="184" x="1173" y="473.2104">components : Set&lt;Component&gt;</text><ellipse cx="1164" cy="482.8047" rx="3" ry="3" style="stroke:#038048;stroke-width:1.0;fill:none;"/><text fill="#000000" font-family="sans-serif" font-size="11" lengthAdjust="spacing" textLength="97" x="1173" y="486.0151">system : System</text><rect fill="none" height="6" style="stroke:#C82930;stroke-width:1.0;" width="6" x="1161" y="492.6094"/><text fill="#000000" font-family="sans-serif" font-size="11" lengthAdjust="spacing" textLength="107" x="1173" y="498.8198">_output : Template</text><line style="stroke:#A80036;stroke-width:1.5;" x1="1154" x2="1499" y1="505.4141" y2="505.4141"/><ellipse cx="1164" cy="516.4141" fill="#84BE84" rx="3" ry="3" style="stroke:#038048;stroke-width:1.0;"/><text fill="#000000" font-family="sans-serif" font-size="11" lengthAdjust="spacing" textLength="108" x="1173" y="519.6245">empty() : Template</text><ellipse cx="1164" cy="529.2188" fill="#84BE84" rx="3" ry="3" style="stroke:#038048;stroke-width:1.0;"/><text fill="#000000" font-family="sans-serif" font-size="11" lengthAdjust="spacing" textLength="227" x="1173" y="532.4292">filter(component: Component) : boolean</text><ellipse cx="1164" cy="542.0234" fill="#84BE84" rx="3" ry="3" style="stroke:#038048;stroke-width:1.0;"/><text fill="#000000" font-family="sans-serif" font-size="11" lengthAdjust="spacing" textLength="80" x="1173" y="545.2339">gizmos() : any</text><ellipse cx="1164" cy="554.8281" fill="#84BE84" rx="3" ry="3" style="stroke:#038048;stroke-width:1.0;"/><text fill="#000000" font-family="sans-serif" font-size="11" lengthAdjust="spacing" textLength="240" x="1173" y="558.0386">render(view: View) : void | Promise&lt;void&gt;</text><ellipse cx="1164" cy="567.6328" fill="#84BE84" rx="3" ry="3" style="stroke:#038048;stroke-width:1.0;"/><text fill="#000000" font-family="sans-serif" font-size="11" lengthAdjust="spacing" textLength="321" x="1173" y="570.8433">update(token: Token&lt;any, any&gt;) : void | Promise&lt;void&gt;</text><ellipse cx="1164" cy="580.4375" fill="#84BE84" rx="3" ry="3" style="stroke:#038048;stroke-width:1.0;"/><text fill="#000000" font-family="sans-serif" font-size="11" lengthAdjust="spacing" textLength="233" x="1173" y="583.6479">verify(view: View) : void | Promise&lt;void&gt;</text><!--MD5=[3dcd8b67d58bc44d5ae980402595f4f8]
reverse link Scene to CloudScene--><path codeLine="24" d="M753.5,177.6 C753.5,190.75 753.5,204.11 753.5,216.82 " fill="none" id="Scene-backto-CloudScene" style="stroke:#A80036;stroke-width:1.0;"/><polygon fill="none" points="746.5,177.21,753.5,157.21,760.5,177.21,746.5,177.21" style="stroke:#A80036;stroke-width:1.0;"/><!--MD5=[ac6bb23a04ca04b4ebb5f346c91691b2]
reverse link CloudScene to AwsScene--><path codeLine="36" d="M560.56,358.09 C499.78,379.29 432.58,403.44 371.5,427 C365.79,429.2 360,431.47 354.16,433.77 " fill="none" id="CloudScene-backto-AwsScene" style="stroke:#A80036;stroke-width:1.0;"/><polygon fill="none" points="558.44,351.42,579.63,351.46,563.04,364.64,558.44,351.42" style="stroke:#A80036;stroke-width:1.0;"/><!--MD5=[73fc246f228ee7038096cd574ebf572b]
reverse link CloudScene to RosScene--><path codeLine="48" d="M674,382.28 C660.87,397.03 647.31,412.25 634.37,426.78 " fill="none" id="CloudScene-backto-RosScene" style="stroke:#A80036;stroke-width:1.0;"/><polygon fill="none" points="668.97,377.4,687.5,367.12,679.43,386.71,668.97,377.4" style="stroke:#A80036;stroke-width:1.0;"/><!--MD5=[89bcabeb63ef5aa4eff8c8971ccc2ce5]
reverse link CloudScene to GdmScene--><path codeLine="60" d="M833,382.28 C846.13,397.03 859.69,412.25 872.63,426.78 " fill="none" id="CloudScene-backto-GdmScene" style="stroke:#A80036;stroke-width:1.0;"/><polygon fill="none" points="827.57,386.71,819.5,367.12,838.03,377.4,827.57,386.71" style="stroke:#A80036;stroke-width:1.0;"/><!--MD5=[c09e78d60b0ac51814d16ca2d2446bb5]
reverse link CloudScene to ArmScene--><path codeLine="72" d="M946.44,358.09 C1007.22,379.29 1074.42,403.44 1135.5,427 C1141.21,429.2 1147,431.47 1152.84,433.77 " fill="none" id="CloudScene-backto-ArmScene" style="stroke:#A80036;stroke-width:1.0;"/><polygon fill="none" points="943.96,364.64,927.37,351.46,948.56,351.42,943.96,364.64" style="stroke:#A80036;stroke-width:1.0;"/><!--MD5=[8c26ed104fead0b8eb95542eca0511ac]
@startuml
skinparam BackgroundColor transparent
hide empty methods
hide empty fields
abstract class "CloudScene" {
    +components : Set<Component>
    +system : System
    +empty() : any
    {abstract} +filter(component: Component) : boolean
    +gizmos() : any
    +render(view: View) : void | Promise<void>
    +update(token: Token<any, any>) : void | Promise<void>
    +verify(view: View) : void | Promise<void>
}
abstract class "Scene" {
    +components : Set<Component>
    +system : System
    +empty() : any
    {abstract} +filter(component: Component) : boolean
    +gizmos() : any
    +render(view: View) : void | Promise<void>
    +update(token: Token<any, any>) : void | Promise<void>
    +verify(view: View) : void | Promise<void>
}
"Scene" <|- - "CloudScene"
class "AwsScene" {
    +components : Set<Component>
    +system : System
    -_output : Template
    +empty() : Template
    +filter(component: Component) : boolean
    +gizmos() : any
    +render(view: View) : void | Promise<void>
    +update(token: Token<any, any>) : void | Promise<void>
    +verify(view: View) : void | Promise<void>
}
"CloudScene" <|- - "AwsScene"
class "RosScene" {
    +components : Set<Component>
    +system : System
    -_output : Template
    +empty() : Template
    +filter(component: Component) : boolean
    +gizmos() : any
    +render(view: View) : void | Promise<void>
    +update(token: Token<any, any>) : void | Promise<void>
    +verify(view: View) : void | Promise<void>
}
"CloudScene" <|- - "RosScene"
class "GdmScene" {
    +components : Set<Component>
    +system : System
    -_output : Template
    +empty() : Template
    +filter(component: Component) : boolean
    +gizmos() : any
    +render(view: View) : void | Promise<void>
    +update(token: Token<any, any>) : void | Promise<void>
    +verify(view: View) : void | Promise<void>
}
"CloudScene" <|- - "GdmScene"
class "ArmScene" {
    +components : Set<Component>
    +system : System
    -_output : Template
    +empty() : Template
    +filter(component: Component) : boolean
    +gizmos() : any
    +render(view: View) : void | Promise<void>
    +update(token: Token<any, any>) : void | Promise<void>
    +verify(view: View) : void | Promise<void>
}
"CloudScene" <|- - "ArmScene"
@enduml

PlantUML version 1.2021.14(Fri Nov 12 16:46:50 UTC 2021)
(GPL source distribution)
Java Runtime: OpenJDK Runtime Environment
JVM: OpenJDK 64-Bit Server VM
Default Encoding: UTF-8
Language: en
Country: null
--></g></svg>