<?xml version="1.0" encoding="UTF-8" standalone="no"?><svg xmlns="http://www.w3.org/2000/svg" xmlns:xlink="http://www.w3.org/1999/xlink" contentScriptType="application/ecmascript" contentStyleType="text/css" height="304px" preserveAspectRatio="none" style="width:799px;height:304px;background:#00000000;" version="1.1" viewBox="0 0 799 304" width="799px" zoomAndPan="magnify"><defs><filter height="300%" id="fuxi16alrq4mb" width="300%" x="-1" y="-1"><feGaussianBlur result="blurOut" stdDeviation="2.0"/><feColorMatrix in="blurOut" result="blurOut2" type="matrix" values="0 0 0 0 0 0 0 0 0 0 0 0 0 0 0 0 0 0 .4 0"/><feOffset dx="4.0" dy="4.0" in="blurOut2" result="blurOut3"/><feBlend in="SourceGraphic" in2="blurOut3" mode="normal"/></filter></defs><g><!--MD5=[bc00f38760f5c998ab68abb0e19452fc]
class CloudComponent--><rect codeLine="4" fill="#FEFECE" filter="url(#fuxi16alrq4mb)" height="32" id="CloudComponent" style="stroke:#A80036;stroke-width:1.5;" width="139" x="325.5" y="166"/><ellipse cx="340.5" cy="182" fill="#A9DCDF" rx="11" ry="11" style="stroke:#A80036;stroke-width:1.0;"/><path d="M340.6094,177.3438 L339.4531,182.4219 L341.7813,182.4219 L340.6094,177.3438 Z M339.125,175.1094 L342.1094,175.1094 L345.4688,187.5 L343.0156,187.5 L342.25,184.4375 L338.9688,184.4375 L338.2188,187.5 L335.7813,187.5 L339.125,175.1094 Z " fill="#000000"/><text fill="#000000" font-family="sans-serif" font-size="12" font-style="italic" lengthAdjust="spacing" textLength="107" x="354.5" y="186.1543">CloudComponent</text><!--MD5=[4e13963c9dc916a21a8436ef39422b32]
class Component--><rect codeLine="6" fill="#FEFECE" filter="url(#fuxi16alrq4mb)" height="99.2188" id="Component" style="stroke:#A80036;stroke-width:1.5;" width="331" x="229.5" y="7"/><ellipse cx="354.75" cy="23" fill="#A9DCDF" rx="11" ry="11" style="stroke:#A80036;stroke-width:1.0;"/><path d="M354.8594,18.3438 L353.7031,23.4219 L356.0313,23.4219 L354.8594,18.3438 Z M353.375,16.1094 L356.3594,16.1094 L359.7188,28.5 L357.2656,28.5 L356.5,25.4375 L353.2188,25.4375 L352.4688,28.5 L350.0313,28.5 L353.375,16.1094 Z " fill="#000000"/><text fill="#000000" font-family="sans-serif" font-size="12" font-style="italic" lengthAdjust="spacing" textLength="72" x="375.25" y="27.1543">Component</text><line style="stroke:#A80036;stroke-width:1.5;" x1="230.5" x2="559.5" y1="39" y2="39"/><ellipse cx="240.5" cy="50" rx="3" ry="3" style="stroke:#038048;stroke-width:1.0;fill:none;"/><text fill="#000000" font-family="sans-serif" font-size="11" lengthAdjust="spacing" textLength="163" x="249.5" y="53.2104">[ComponentHandle] : Handle</text><line style="stroke:#A80036;stroke-width:1.5;" x1="230.5" x2="559.5" y1="59.8047" y2="59.8047"/><ellipse cx="240.5" cy="70.8047" fill="#84BE84" rx="3" ry="3" style="stroke:#038048;stroke-width:1.0;"/><text fill="#000000" font-family="sans-serif" font-size="11" font-style="italic" lengthAdjust="spacing" textLength="305" x="249.5" y="74.0151">[ComponentRender](out: any) : void | Promise&lt;void&gt;</text><ellipse cx="240.5" cy="83.6094" fill="#84BE84" rx="3" ry="3" style="stroke:#038048;stroke-width:1.0;"/><text fill="#000000" font-family="sans-serif" font-size="11" lengthAdjust="spacing" textLength="221" x="249.5" y="86.8198">[ComponentUpdate]() : Promise&lt;void&gt;</text><ellipse cx="240.5" cy="96.4141" fill="#84BE84" rx="3" ry="3" style="stroke:#038048;stroke-width:1.0;"/><text fill="#000000" font-family="sans-serif" font-size="11" lengthAdjust="spacing" textLength="248" x="249.5" y="99.6245">[ComponentVerify]() : void | Promise&lt;void&gt;</text><!--MD5=[30f5b541ec4659a2fd7c50e7543b8294]
class ArmComponent--><rect codeLine="13" fill="#FEFECE" filter="url(#fuxi16alrq4mb)" height="32" id="ArmComponent" style="stroke:#A80036;stroke-width:1.5;" width="128" x="7" y="258"/><ellipse cx="22" cy="274" fill="#A9DCDF" rx="11" ry="11" style="stroke:#A80036;stroke-width:1.0;"/><path d="M22.1094,269.3438 L20.9531,274.4219 L23.2813,274.4219 L22.1094,269.3438 Z M20.625,267.1094 L23.6094,267.1094 L26.9688,279.5 L24.5156,279.5 L23.75,276.4375 L20.4688,276.4375 L19.7188,279.5 L17.2813,279.5 L20.625,267.1094 Z " fill="#000000"/><text fill="#000000" font-family="sans-serif" font-size="12" font-style="italic" lengthAdjust="spacing" textLength="96" x="36" y="278.1543">ArmComponent</text><!--MD5=[bfe287da6c7cd3045c3e35f9132246ba]
class CfnComponent--><rect codeLine="16" fill="#FEFECE" filter="url(#fuxi16alrq4mb)" height="32" id="CfnComponent" style="stroke:#A80036;stroke-width:1.5;" width="124" x="170" y="258"/><ellipse cx="185" cy="274" fill="#A9DCDF" rx="11" ry="11" style="stroke:#A80036;stroke-width:1.0;"/><path d="M185.1094,269.3438 L183.9531,274.4219 L186.2813,274.4219 L185.1094,269.3438 Z M183.625,267.1094 L186.6094,267.1094 L189.9688,279.5 L187.5156,279.5 L186.75,276.4375 L183.4688,276.4375 L182.7188,279.5 L180.2813,279.5 L183.625,267.1094 Z " fill="#000000"/><text fill="#000000" font-family="sans-serif" font-size="12" font-style="italic" lengthAdjust="spacing" textLength="92" x="199" y="278.1543">CfnComponent</text><!--MD5=[d77ed4ab7ef1f9f95ed1968f51617b7c]
class GdmComponent--><rect codeLine="19" fill="#FEFECE" filter="url(#fuxi16alrq4mb)" height="32" id="GdmComponent" style="stroke:#A80036;stroke-width:1.5;" width="132" x="329" y="258"/><ellipse cx="344" cy="274" fill="#A9DCDF" rx="11" ry="11" style="stroke:#A80036;stroke-width:1.0;"/><path d="M344.1094,269.3438 L342.9531,274.4219 L345.2813,274.4219 L344.1094,269.3438 Z M342.625,267.1094 L345.6094,267.1094 L348.9688,279.5 L346.5156,279.5 L345.75,276.4375 L342.4688,276.4375 L341.7188,279.5 L339.2813,279.5 L342.625,267.1094 Z " fill="#000000"/><text fill="#000000" font-family="sans-serif" font-size="12" font-style="italic" lengthAdjust="spacing" textLength="100" x="358" y="278.1543">GdmComponent</text><!--MD5=[2329f7cacab1176dd90b22c9456fec03]
class RosComponent--><rect codeLine="22" fill="#FEFECE" filter="url(#fuxi16alrq4mb)" height="32" id="RosComponent" style="stroke:#A80036;stroke-width:1.5;" width="126" x="496" y="258"/><ellipse cx="511" cy="274" fill="#A9DCDF" rx="11" ry="11" style="stroke:#A80036;stroke-width:1.0;"/><path d="M511.1094,269.3438 L509.9531,274.4219 L512.2813,274.4219 L511.1094,269.3438 Z M509.625,267.1094 L512.6094,267.1094 L515.9688,279.5 L513.5156,279.5 L512.75,276.4375 L509.4688,276.4375 L508.7188,279.5 L506.2813,279.5 L509.625,267.1094 Z " fill="#000000"/><text fill="#000000" font-family="sans-serif" font-size="12" font-style="italic" lengthAdjust="spacing" textLength="94" x="525" y="278.1543">RosComponent</text><!--MD5=[6413748563b32f3a33cdb07aa07d17f9]
class KrmComponent--><rect codeLine="25" fill="#FEFECE" filter="url(#fuxi16alrq4mb)" height="32" id="KrmComponent" style="stroke:#A80036;stroke-width:1.5;" width="128" x="657" y="258"/><ellipse cx="672" cy="274" fill="#A9DCDF" rx="11" ry="11" style="stroke:#A80036;stroke-width:1.0;"/><path d="M672.1094,269.3438 L670.9531,274.4219 L673.2813,274.4219 L672.1094,269.3438 Z M670.625,267.1094 L673.6094,267.1094 L676.9688,279.5 L674.5156,279.5 L673.75,276.4375 L670.4688,276.4375 L669.7188,279.5 L667.2813,279.5 L670.625,267.1094 Z " fill="#000000"/><text fill="#000000" font-family="sans-serif" font-size="12" font-style="italic" lengthAdjust="spacing" textLength="96" x="686" y="278.1543">KrmComponent</text><!--MD5=[a5058f62afae2244539c1a5e64c2d230]
reverse link Component to CloudComponent--><path codeLine="12" d="M395,126.33 C395,141.27 395,155.65 395,165.91 " fill="none" id="Component-backto-CloudComponent" style="stroke:#A80036;stroke-width:1.0;"/><polygon fill="none" points="388,126.31,395,106.31,402,126.31,388,126.31" style="stroke:#A80036;stroke-width:1.0;"/><!--MD5=[c7be72ff7369bcdaf4fdd3c2d19cc8ca]
reverse link CloudComponent to ArmComponent--><path codeLine="15" d="M321.48,203.42 C261.77,220.01 178.92,243.02 125.14,257.96 " fill="none" id="CloudComponent-backto-ArmComponent" style="stroke:#A80036;stroke-width:1.0;"/><polygon fill="none" points="319.63,196.67,340.77,198.06,323.37,210.16,319.63,196.67" style="stroke:#A80036;stroke-width:1.0;"/><!--MD5=[695d8c8dd5b38eec1e5696f3461e8ab2]
reverse link CloudComponent to CfnComponent--><path codeLine="18" d="M349.96,207.87 C320.91,223.91 284.08,244.24 259.37,257.89 " fill="none" id="CloudComponent-backto-CfnComponent" style="stroke:#A80036;stroke-width:1.0;"/><polygon fill="none" points="346.83,201.6,367.72,198.06,353.59,213.86,346.83,201.6" style="stroke:#A80036;stroke-width:1.0;"/><!--MD5=[33af4b293e12872a0c53a141ec18b135]
reverse link CloudComponent to GdmComponent--><path codeLine="21" d="M395,218.61 C395,232.31 395,247.22 395,257.96 " fill="none" id="CloudComponent-backto-GdmComponent" style="stroke:#A80036;stroke-width:1.0;"/><polygon fill="none" points="388,218.27,395,198.27,402,218.27,388,218.27" style="stroke:#A80036;stroke-width:1.0;"/><!--MD5=[72aae16b76cd3e59a5470f8f9f356aaa]
reverse link CloudComponent to RosComponent--><path codeLine="24" d="M440.32,207.87 C469.54,223.91 506.6,244.24 531.46,257.89 " fill="none" id="CloudComponent-backto-RosComponent" style="stroke:#A80036;stroke-width:1.0;"/><polygon fill="none" points="436.62,213.82,422.45,198.06,443.35,201.55,436.62,213.82" style="stroke:#A80036;stroke-width:1.0;"/><!--MD5=[5f23bd69df86afb22b42a0f3d03ba215]
reverse link CloudComponent to KrmComponent--><path codeLine="27" d="M468.97,203.42 C529.05,220.01 612.42,243.02 666.53,257.96 " fill="none" id="CloudComponent-backto-KrmComponent" style="stroke:#A80036;stroke-width:1.0;"/><polygon fill="none" points="466.98,210.13,449.57,198.06,470.71,196.64,466.98,210.13" style="stroke:#A80036;stroke-width:1.0;"/><!--MD5=[8fd374377611f53c4b63ec1b24304709]
@startuml
skinparam BackgroundColor transparent
hide empty methods
hide empty fields
abstract class "CloudComponent" {
}
abstract class "Component" {
    +[ComponentHandle] : Handle
    {abstract} +[ComponentRender](out: any) : void | Promise<void>
    +[ComponentUpdate]() : Promise<void>
    +[ComponentVerify]() : void | Promise<void>
}
"Component" <|- - "CloudComponent"
abstract class "ArmComponent" {
}
"CloudComponent" <|- - "ArmComponent"
abstract class "CfnComponent" {
}
"CloudComponent" <|- - "CfnComponent"
abstract class "GdmComponent" {
}
"CloudComponent" <|- - "GdmComponent"
abstract class "RosComponent" {
}
"CloudComponent" <|- - "RosComponent"
abstract class "KrmComponent" {
}
"CloudComponent" <|- - "KrmComponent"
@enduml

PlantUML version 1.2021.14(Fri Nov 12 16:46:50 UTC 2021)
(GPL source distribution)
Java Runtime: OpenJDK Runtime Environment
JVM: OpenJDK 64-Bit Server VM
Default Encoding: UTF-8
Language: en
Country: null
--></g></svg>