<?xml version="1.0" encoding="UTF-8" standalone="no"?><svg xmlns="http://www.w3.org/2000/svg" xmlns:xlink="http://www.w3.org/1999/xlink" contentScriptType="application/ecmascript" contentStyleType="text/css" height="604px" preserveAspectRatio="none" style="width:1190px;height:604px;background:#00000000;" version="1.1" viewBox="0 0 1190 604" width="1190px" zoomAndPan="magnify"><defs><filter height="300%" id="f1rgviknbswsa" width="300%" x="-1" y="-1"><feGaussianBlur result="blurOut" stdDeviation="2.0"/><feColorMatrix in="blurOut" result="blurOut2" type="matrix" values="0 0 0 0 0 0 0 0 0 0 0 0 0 0 0 0 0 0 .4 0"/><feOffset dx="4.0" dy="4.0" in="blurOut2" result="blurOut3"/><feBlend in="SourceGraphic" in2="blurOut3" mode="normal"/></filter></defs><g><!--MD5=[effa4f851d4b5ff2cb787c330b681cb8]
class CloudScene--><rect codeLine="4" fill="#FEFECE" filter="url(#f1rgviknbswsa)" height="150.4375" id="CloudScene" style="stroke:#A80036;stroke-width:1.5;" width="347" x="417.5" y="217"/><ellipse cx="549.75" cy="233" fill="#A9DCDF" rx="11" ry="11" style="stroke:#A80036;stroke-width:1.0;"/><path d="M549.8594,228.3438 L548.7031,233.4219 L551.0313,233.4219 L549.8594,228.3438 Z M548.375,226.1094 L551.3594,226.1094 L554.7188,238.5 L552.2656,238.5 L551.5,235.4375 L548.2188,235.4375 L547.4688,238.5 L545.0313,238.5 L548.375,226.1094 Z " fill="#000000"/><text fill="#000000" font-family="sans-serif" font-size="12" font-style="italic" lengthAdjust="spacing" textLength="74" x="570.25" y="237.1543">CloudScene</text><line style="stroke:#A80036;stroke-width:1.5;" x1="418.5" x2="763.5" y1="249" y2="249"/><ellipse cx="428.5" cy="260" rx="3" ry="3" style="stroke:#038048;stroke-width:1.0;fill:none;"/><text fill="#000000" font-family="sans-serif" font-size="11" lengthAdjust="spacing" textLength="184" x="437.5" y="263.2104">components : Set&lt;Component&gt;</text><ellipse cx="428.5" cy="272.8047" rx="3" ry="3" style="stroke:#038048;stroke-width:1.0;fill:none;"/><text fill="#000000" font-family="sans-serif" font-size="11" lengthAdjust="spacing" textLength="97" x="437.5" y="276.0151">system : System</text><line style="stroke:#A80036;stroke-width:1.5;" x1="418.5" x2="763.5" y1="282.6094" y2="282.6094"/><ellipse cx="428.5" cy="293.6094" fill="#84BE84" rx="3" ry="3" style="stroke:#038048;stroke-width:1.0;"/><text fill="#000000" font-family="sans-serif" font-size="11" lengthAdjust="spacing" textLength="75" x="437.5" y="296.8198">empty() : any</text><ellipse cx="428.5" cy="306.4141" fill="#84BE84" rx="3" ry="3" style="stroke:#038048;stroke-width:1.0;"/><text fill="#000000" font-family="sans-serif" font-size="11" font-style="italic" lengthAdjust="spacing" textLength="227" x="437.5" y="309.6245">filter(component: Component) : boolean</text><ellipse cx="428.5" cy="319.2188" fill="#84BE84" rx="3" ry="3" style="stroke:#038048;stroke-width:1.0;"/><text fill="#000000" font-family="sans-serif" font-size="11" lengthAdjust="spacing" textLength="80" x="437.5" y="322.4292">gizmos() : any</text><ellipse cx="428.5" cy="332.0234" fill="#84BE84" rx="3" ry="3" style="stroke:#038048;stroke-width:1.0;"/><text fill="#000000" font-family="sans-serif" font-size="11" lengthAdjust="spacing" textLength="240" x="437.5" y="335.2339">render(view: View) : void | Promise&lt;void&gt;</text><ellipse cx="428.5" cy="344.8281" fill="#84BE84" rx="3" ry="3" style="stroke:#038048;stroke-width:1.0;"/><text fill="#000000" font-family="sans-serif" font-size="11" lengthAdjust="spacing" textLength="321" x="437.5" y="348.0386">update(token: Token&lt;any, any&gt;) : void | Promise&lt;void&gt;</text><ellipse cx="428.5" cy="357.6328" fill="#84BE84" rx="3" ry="3" style="stroke:#038048;stroke-width:1.0;"/><text fill="#000000" font-family="sans-serif" font-size="11" lengthAdjust="spacing" textLength="233" x="437.5" y="360.8433">verify(view: View) : void | Promise&lt;void&gt;</text><!--MD5=[e4faacc5b8aef66b11ab0c816bbbc7f8]
class Scene--><rect codeLine="14" fill="#FEFECE" filter="url(#f1rgviknbswsa)" height="150.4375" id="Scene" style="stroke:#A80036;stroke-width:1.5;" width="347" x="417.5" y="7"/><ellipse cx="567.25" cy="23" fill="#A9DCDF" rx="11" ry="11" style="stroke:#A80036;stroke-width:1.0;"/><path d="M567.3594,18.3438 L566.2031,23.4219 L568.5313,23.4219 L567.3594,18.3438 Z M565.875,16.1094 L568.8594,16.1094 L572.2188,28.5 L569.7656,28.5 L569,25.4375 L565.7188,25.4375 L564.9688,28.5 L562.5313,28.5 L565.875,16.1094 Z " fill="#000000"/><text fill="#000000" font-family="sans-serif" font-size="12" font-style="italic" lengthAdjust="spacing" textLength="39" x="587.75" y="27.1543">Scene</text><line style="stroke:#A80036;stroke-width:1.5;" x1="418.5" x2="763.5" y1="39" y2="39"/><ellipse cx="428.5" cy="50" rx="3" ry="3" style="stroke:#038048;stroke-width:1.0;fill:none;"/><text fill="#000000" font-family="sans-serif" font-size="11" lengthAdjust="spacing" textLength="184" x="437.5" y="53.2104">components : Set&lt;Component&gt;</text><ellipse cx="428.5" cy="62.8047" rx="3" ry="3" style="stroke:#038048;stroke-width:1.0;fill:none;"/><text fill="#000000" font-family="sans-serif" font-size="11" lengthAdjust="spacing" textLength="97" x="437.5" y="66.0151">system : System</text><line style="stroke:#A80036;stroke-width:1.5;" x1="418.5" x2="763.5" y1="72.6094" y2="72.6094"/><ellipse cx="428.5" cy="83.6094" fill="#84BE84" rx="3" ry="3" style="stroke:#038048;stroke-width:1.0;"/><text fill="#000000" font-family="sans-serif" font-size="11" lengthAdjust="spacing" textLength="75" x="437.5" y="86.8198">empty() : any</text><ellipse cx="428.5" cy="96.4141" fill="#84BE84" rx="3" ry="3" style="stroke:#038048;stroke-width:1.0;"/><text fill="#000000" font-family="sans-serif" font-size="11" font-style="italic" lengthAdjust="spacing" textLength="227" x="437.5" y="99.6245">filter(component: Component) : boolean</text><ellipse cx="428.5" cy="109.2188" fill="#84BE84" rx="3" ry="3" style="stroke:#038048;stroke-width:1.0;"/><text fill="#000000" font-family="sans-serif" font-size="11" lengthAdjust="spacing" textLength="80" x="437.5" y="112.4292">gizmos() : any</text><ellipse cx="428.5" cy="122.0234" fill="#84BE84" rx="3" ry="3" style="stroke:#038048;stroke-width:1.0;"/><text fill="#000000" font-family="sans-serif" font-size="11" lengthAdjust="spacing" textLength="240" x="437.5" y="125.2339">render(view: View) : void | Promise&lt;void&gt;</text><ellipse cx="428.5" cy="134.8281" fill="#84BE84" rx="3" ry="3" style="stroke:#038048;stroke-width:1.0;"/><text fill="#000000" font-family="sans-serif" font-size="11" lengthAdjust="spacing" textLength="321" x="437.5" y="138.0386">update(token: Token&lt;any, any&gt;) : void | Promise&lt;void&gt;</text><ellipse cx="428.5" cy="147.6328" fill="#84BE84" rx="3" ry="3" style="stroke:#038048;stroke-width:1.0;"/><text fill="#000000" font-family="sans-serif" font-size="11" lengthAdjust="spacing" textLength="233" x="437.5" y="150.8433">verify(view: View) : void | Promise&lt;void&gt;</text><!--MD5=[6b683f5ba6b4e0f839617a2f6d8c0742]
class AwsScene--><rect codeLine="25" fill="#FEFECE" filter="url(#f1rgviknbswsa)" height="163.2422" id="AwsScene" style="stroke:#A80036;stroke-width:1.5;" width="266" x="7" y="427"/><ellipse cx="104.25" cy="443" fill="#ADD1B2" rx="11" ry="11" style="stroke:#A80036;stroke-width:1.0;"/><path d="M107.2188,448.6406 Q106.6406,448.9375 106,449.0781 Q105.3594,449.2344 104.6563,449.2344 Q102.1563,449.2344 100.8281,447.5938 Q99.5156,445.9375 99.5156,442.8125 Q99.5156,439.6875 100.8281,438.0313 Q102.1563,436.375 104.6563,436.375 Q105.3594,436.375 106,436.5313 Q106.6563,436.6875 107.2188,436.9844 L107.2188,439.7031 Q106.5938,439.125 106,438.8594 Q105.4063,438.5781 104.7813,438.5781 Q103.4375,438.5781 102.75,439.6563 Q102.0625,440.7188 102.0625,442.8125 Q102.0625,444.9063 102.75,445.9844 Q103.4375,447.0469 104.7813,447.0469 Q105.4063,447.0469 106,446.7813 Q106.5938,446.5 107.2188,445.9219 L107.2188,448.6406 Z " fill="#000000"/><text fill="#000000" font-family="sans-serif" font-size="12" lengthAdjust="spacing" textLength="63" x="124.75" y="447.1543">AwsScene</text><line style="stroke:#A80036;stroke-width:1.5;" x1="8" x2="272" y1="459" y2="459"/><ellipse cx="18" cy="470" rx="3" ry="3" style="stroke:#038048;stroke-width:1.0;fill:none;"/><text fill="#000000" font-family="sans-serif" font-size="11" lengthAdjust="spacing" textLength="184" x="27" y="473.2104">components : Set&lt;Component&gt;</text><ellipse cx="18" cy="482.8047" rx="3" ry="3" style="stroke:#038048;stroke-width:1.0;fill:none;"/><text fill="#000000" font-family="sans-serif" font-size="11" lengthAdjust="spacing" textLength="97" x="27" y="486.0151">system : System</text><rect fill="none" height="6" style="stroke:#C82930;stroke-width:1.0;" width="6" x="15" y="492.6094"/><text fill="#000000" font-family="sans-serif" font-size="11" lengthAdjust="spacing" textLength="107" x="27" y="498.8198">_output : Template</text><line style="stroke:#A80036;stroke-width:1.5;" x1="8" x2="272" y1="505.4141" y2="505.4141"/><ellipse cx="18" cy="516.4141" fill="#84BE84" rx="3" ry="3" style="stroke:#038048;stroke-width:1.0;"/><text fill="#000000" font-family="sans-serif" font-size="11" lengthAdjust="spacing" textLength="108" x="27" y="519.6245">empty() : Template</text><ellipse cx="18" cy="529.2188" fill="#84BE84" rx="3" ry="3" style="stroke:#038048;stroke-width:1.0;"/><text fill="#000000" font-family="sans-serif" font-size="11" lengthAdjust="spacing" textLength="227" x="27" y="532.4292">filter(component: Component) : boolean</text><ellipse cx="18" cy="542.0234" fill="#84BE84" rx="3" ry="3" style="stroke:#038048;stroke-width:1.0;"/><text fill="#000000" font-family="sans-serif" font-size="11" lengthAdjust="spacing" textLength="80" x="27" y="545.2339">gizmos() : any</text><ellipse cx="18" cy="554.8281" fill="#84BE84" rx="3" ry="3" style="stroke:#038048;stroke-width:1.0;"/><text fill="#000000" font-family="sans-serif" font-size="11" lengthAdjust="spacing" textLength="240" x="27" y="558.0386">render(view: View) : void | Promise&lt;void&gt;</text><ellipse cx="18" cy="567.6328" fill="#84BE84" rx="3" ry="3" style="stroke:#038048;stroke-width:1.0;"/><text fill="#000000" font-family="sans-serif" font-size="11" lengthAdjust="spacing" textLength="221" x="27" y="570.8433">update(token: Token&lt;any, any&gt;) : void</text><ellipse cx="18" cy="580.4375" fill="#84BE84" rx="3" ry="3" style="stroke:#038048;stroke-width:1.0;"/><text fill="#000000" font-family="sans-serif" font-size="11" lengthAdjust="spacing" textLength="233" x="27" y="583.6479">verify(view: View) : void | Promise&lt;void&gt;</text><!--MD5=[5d8791e0b0f57b17cd74ab5b0f357d8a]
class RosScene--><rect codeLine="37" fill="#FEFECE" filter="url(#f1rgviknbswsa)" height="163.2422" id="RosScene" style="stroke:#A80036;stroke-width:1.5;" width="266" x="308" y="427"/><ellipse cx="405.75" cy="443" fill="#ADD1B2" rx="11" ry="11" style="stroke:#A80036;stroke-width:1.0;"/><path d="M408.7188,448.6406 Q408.1406,448.9375 407.5,449.0781 Q406.8594,449.2344 406.1563,449.2344 Q403.6563,449.2344 402.3281,447.5938 Q401.0156,445.9375 401.0156,442.8125 Q401.0156,439.6875 402.3281,438.0313 Q403.6563,436.375 406.1563,436.375 Q406.8594,436.375 407.5,436.5313 Q408.1563,436.6875 408.7188,436.9844 L408.7188,439.7031 Q408.0938,439.125 407.5,438.8594 Q406.9063,438.5781 406.2813,438.5781 Q404.9375,438.5781 404.25,439.6563 Q403.5625,440.7188 403.5625,442.8125 Q403.5625,444.9063 404.25,445.9844 Q404.9375,447.0469 406.2813,447.0469 Q406.9063,447.0469 407.5,446.7813 Q408.0938,446.5 408.7188,445.9219 L408.7188,448.6406 Z " fill="#000000"/><text fill="#000000" font-family="sans-serif" font-size="12" lengthAdjust="spacing" textLength="62" x="426.25" y="447.1543">RosScene</text><line style="stroke:#A80036;stroke-width:1.5;" x1="309" x2="573" y1="459" y2="459"/><ellipse cx="319" cy="470" rx="3" ry="3" style="stroke:#038048;stroke-width:1.0;fill:none;"/><text fill="#000000" font-family="sans-serif" font-size="11" lengthAdjust="spacing" textLength="184" x="328" y="473.2104">components : Set&lt;Component&gt;</text><ellipse cx="319" cy="482.8047" rx="3" ry="3" style="stroke:#038048;stroke-width:1.0;fill:none;"/><text fill="#000000" font-family="sans-serif" font-size="11" lengthAdjust="spacing" textLength="97" x="328" y="486.0151">system : System</text><rect fill="none" height="6" style="stroke:#C82930;stroke-width:1.0;" width="6" x="316" y="492.6094"/><text fill="#000000" font-family="sans-serif" font-size="11" lengthAdjust="spacing" textLength="107" x="328" y="498.8198">_output : Template</text><line style="stroke:#A80036;stroke-width:1.5;" x1="309" x2="573" y1="505.4141" y2="505.4141"/><ellipse cx="319" cy="516.4141" fill="#84BE84" rx="3" ry="3" style="stroke:#038048;stroke-width:1.0;"/><text fill="#000000" font-family="sans-serif" font-size="11" lengthAdjust="spacing" textLength="108" x="328" y="519.6245">empty() : Template</text><ellipse cx="319" cy="529.2188" fill="#84BE84" rx="3" ry="3" style="stroke:#038048;stroke-width:1.0;"/><text fill="#000000" font-family="sans-serif" font-size="11" lengthAdjust="spacing" textLength="227" x="328" y="532.4292">filter(component: Component) : boolean</text><ellipse cx="319" cy="542.0234" fill="#84BE84" rx="3" ry="3" style="stroke:#038048;stroke-width:1.0;"/><text fill="#000000" font-family="sans-serif" font-size="11" lengthAdjust="spacing" textLength="80" x="328" y="545.2339">gizmos() : any</text><ellipse cx="319" cy="554.8281" fill="#84BE84" rx="3" ry="3" style="stroke:#038048;stroke-width:1.0;"/><text fill="#000000" font-family="sans-serif" font-size="11" lengthAdjust="spacing" textLength="240" x="328" y="558.0386">render(view: View) : void | Promise&lt;void&gt;</text><ellipse cx="319" cy="567.6328" fill="#84BE84" rx="3" ry="3" style="stroke:#038048;stroke-width:1.0;"/><text fill="#000000" font-family="sans-serif" font-size="11" lengthAdjust="spacing" textLength="221" x="328" y="570.8433">update(token: Token&lt;any, any&gt;) : void</text><ellipse cx="319" cy="580.4375" fill="#84BE84" rx="3" ry="3" style="stroke:#038048;stroke-width:1.0;"/><text fill="#000000" font-family="sans-serif" font-size="11" lengthAdjust="spacing" textLength="233" x="328" y="583.6479">verify(view: View) : void | Promise&lt;void&gt;</text><!--MD5=[7cc8d463400a80c8d2dac75cb81a1a89]
class GdmScene--><rect codeLine="49" fill="#FEFECE" filter="url(#f1rgviknbswsa)" height="163.2422" id="GdmScene" style="stroke:#A80036;stroke-width:1.5;" width="266" x="609" y="427"/><ellipse cx="704.25" cy="443" fill="#ADD1B2" rx="11" ry="11" style="stroke:#A80036;stroke-width:1.0;"/><path d="M707.2188,448.6406 Q706.6406,448.9375 706,449.0781 Q705.3594,449.2344 704.6563,449.2344 Q702.1563,449.2344 700.8281,447.5938 Q699.5156,445.9375 699.5156,442.8125 Q699.5156,439.6875 700.8281,438.0313 Q702.1563,436.375 704.6563,436.375 Q705.3594,436.375 706,436.5313 Q706.6563,436.6875 707.2188,436.9844 L707.2188,439.7031 Q706.5938,439.125 706,438.8594 Q705.4063,438.5781 704.7813,438.5781 Q703.4375,438.5781 702.75,439.6563 Q702.0625,440.7188 702.0625,442.8125 Q702.0625,444.9063 702.75,445.9844 Q703.4375,447.0469 704.7813,447.0469 Q705.4063,447.0469 706,446.7813 Q706.5938,446.5 707.2188,445.9219 L707.2188,448.6406 Z " fill="#000000"/><text fill="#000000" font-family="sans-serif" font-size="12" lengthAdjust="spacing" textLength="67" x="724.75" y="447.1543">GdmScene</text><line style="stroke:#A80036;stroke-width:1.5;" x1="610" x2="874" y1="459" y2="459"/><ellipse cx="620" cy="470" rx="3" ry="3" style="stroke:#038048;stroke-width:1.0;fill:none;"/><text fill="#000000" font-family="sans-serif" font-size="11" lengthAdjust="spacing" textLength="184" x="629" y="473.2104">components : Set&lt;Component&gt;</text><ellipse cx="620" cy="482.8047" rx="3" ry="3" style="stroke:#038048;stroke-width:1.0;fill:none;"/><text fill="#000000" font-family="sans-serif" font-size="11" lengthAdjust="spacing" textLength="97" x="629" y="486.0151">system : System</text><rect fill="none" height="6" style="stroke:#C82930;stroke-width:1.0;" width="6" x="617" y="492.6094"/><text fill="#000000" font-family="sans-serif" font-size="11" lengthAdjust="spacing" textLength="107" x="629" y="498.8198">_output : Template</text><line style="stroke:#A80036;stroke-width:1.5;" x1="610" x2="874" y1="505.4141" y2="505.4141"/><ellipse cx="620" cy="516.4141" fill="#84BE84" rx="3" ry="3" style="stroke:#038048;stroke-width:1.0;"/><text fill="#000000" font-family="sans-serif" font-size="11" lengthAdjust="spacing" textLength="108" x="629" y="519.6245">empty() : Template</text><ellipse cx="620" cy="529.2188" fill="#84BE84" rx="3" ry="3" style="stroke:#038048;stroke-width:1.0;"/><text fill="#000000" font-family="sans-serif" font-size="11" lengthAdjust="spacing" textLength="227" x="629" y="532.4292">filter(component: Component) : boolean</text><ellipse cx="620" cy="542.0234" fill="#84BE84" rx="3" ry="3" style="stroke:#038048;stroke-width:1.0;"/><text fill="#000000" font-family="sans-serif" font-size="11" lengthAdjust="spacing" textLength="80" x="629" y="545.2339">gizmos() : any</text><ellipse cx="620" cy="554.8281" fill="#84BE84" rx="3" ry="3" style="stroke:#038048;stroke-width:1.0;"/><text fill="#000000" font-family="sans-serif" font-size="11" lengthAdjust="spacing" textLength="240" x="629" y="558.0386">render(view: View) : void | Promise&lt;void&gt;</text><ellipse cx="620" cy="567.6328" fill="#84BE84" rx="3" ry="3" style="stroke:#038048;stroke-width:1.0;"/><text fill="#000000" font-family="sans-serif" font-size="11" lengthAdjust="spacing" textLength="221" x="629" y="570.8433">update(token: Token&lt;any, any&gt;) : void</text><ellipse cx="620" cy="580.4375" fill="#84BE84" rx="3" ry="3" style="stroke:#038048;stroke-width:1.0;"/><text fill="#000000" font-family="sans-serif" font-size="11" lengthAdjust="spacing" textLength="233" x="629" y="583.6479">verify(view: View) : void | Promise&lt;void&gt;</text><!--MD5=[af02f0d337078dcde1f9aa32f35b9ebc]
class ArmScene--><rect codeLine="61" fill="#FEFECE" filter="url(#f1rgviknbswsa)" height="163.2422" id="ArmScene" style="stroke:#A80036;stroke-width:1.5;" width="266" x="910" y="427"/><ellipse cx="1007.25" cy="443" fill="#ADD1B2" rx="11" ry="11" style="stroke:#A80036;stroke-width:1.0;"/><path d="M1010.2188,448.6406 Q1009.6406,448.9375 1009,449.0781 Q1008.3594,449.2344 1007.6563,449.2344 Q1005.1563,449.2344 1003.8281,447.5938 Q1002.5156,445.9375 1002.5156,442.8125 Q1002.5156,439.6875 1003.8281,438.0313 Q1005.1563,436.375 1007.6563,436.375 Q1008.3594,436.375 1009,436.5313 Q1009.6563,436.6875 1010.2188,436.9844 L1010.2188,439.7031 Q1009.5938,439.125 1009,438.8594 Q1008.4063,438.5781 1007.7813,438.5781 Q1006.4375,438.5781 1005.75,439.6563 Q1005.0625,440.7188 1005.0625,442.8125 Q1005.0625,444.9063 1005.75,445.9844 Q1006.4375,447.0469 1007.7813,447.0469 Q1008.4063,447.0469 1009,446.7813 Q1009.5938,446.5 1010.2188,445.9219 L1010.2188,448.6406 Z " fill="#000000"/><text fill="#000000" font-family="sans-serif" font-size="12" lengthAdjust="spacing" textLength="63" x="1027.75" y="447.1543">ArmScene</text><line style="stroke:#A80036;stroke-width:1.5;" x1="911" x2="1175" y1="459" y2="459"/><ellipse cx="921" cy="470" rx="3" ry="3" style="stroke:#038048;stroke-width:1.0;fill:none;"/><text fill="#000000" font-family="sans-serif" font-size="11" lengthAdjust="spacing" textLength="184" x="930" y="473.2104">components : Set&lt;Component&gt;</text><ellipse cx="921" cy="482.8047" rx="3" ry="3" style="stroke:#038048;stroke-width:1.0;fill:none;"/><text fill="#000000" font-family="sans-serif" font-size="11" lengthAdjust="spacing" textLength="97" x="930" y="486.0151">system : System</text><rect fill="none" height="6" style="stroke:#C82930;stroke-width:1.0;" width="6" x="918" y="492.6094"/><text fill="#000000" font-family="sans-serif" font-size="11" lengthAdjust="spacing" textLength="107" x="930" y="498.8198">_output : Template</text><line style="stroke:#A80036;stroke-width:1.5;" x1="911" x2="1175" y1="505.4141" y2="505.4141"/><ellipse cx="921" cy="516.4141" fill="#84BE84" rx="3" ry="3" style="stroke:#038048;stroke-width:1.0;"/><text fill="#000000" font-family="sans-serif" font-size="11" lengthAdjust="spacing" textLength="108" x="930" y="519.6245">empty() : Template</text><ellipse cx="921" cy="529.2188" fill="#84BE84" rx="3" ry="3" style="stroke:#038048;stroke-width:1.0;"/><text fill="#000000" font-family="sans-serif" font-size="11" lengthAdjust="spacing" textLength="227" x="930" y="532.4292">filter(component: Component) : boolean</text><ellipse cx="921" cy="542.0234" fill="#84BE84" rx="3" ry="3" style="stroke:#038048;stroke-width:1.0;"/><text fill="#000000" font-family="sans-serif" font-size="11" lengthAdjust="spacing" textLength="80" x="930" y="545.2339">gizmos() : any</text><ellipse cx="921" cy="554.8281" fill="#84BE84" rx="3" ry="3" style="stroke:#038048;stroke-width:1.0;"/><text fill="#000000" font-family="sans-serif" font-size="11" lengthAdjust="spacing" textLength="240" x="930" y="558.0386">render(view: View) : void | Promise&lt;void&gt;</text><ellipse cx="921" cy="567.6328" fill="#84BE84" rx="3" ry="3" style="stroke:#038048;stroke-width:1.0;"/><text fill="#000000" font-family="sans-serif" font-size="11" lengthAdjust="spacing" textLength="221" x="930" y="570.8433">update(token: Token&lt;any, any&gt;) : void</text><ellipse cx="921" cy="580.4375" fill="#84BE84" rx="3" ry="3" style="stroke:#038048;stroke-width:1.0;"/><text fill="#000000" font-family="sans-serif" font-size="11" lengthAdjust="spacing" textLength="233" x="930" y="583.6479">verify(view: View) : void | Promise&lt;void&gt;</text><!--MD5=[3dcd8b67d58bc44d5ae980402595f4f8]
reverse link Scene to CloudScene--><path codeLine="24" d="M591,177.6 C591,190.75 591,204.11 591,216.82 " fill="none" id="Scene-backto-CloudScene" style="stroke:#A80036;stroke-width:1.0;"/><polygon fill="none" points="584,177.21,591,157.21,598,177.21,584,177.21" style="stroke:#A80036;stroke-width:1.0;"/><!--MD5=[ac6bb23a04ca04b4ebb5f346c91691b2]
reverse link CloudScene to AwsScene--><path codeLine="36" d="M400.58,375.22 C363.67,391.88 325.45,409.62 290,427 C284.43,429.73 278.76,432.56 273.05,435.44 " fill="none" id="CloudScene-backto-AwsScene" style="stroke:#A80036;stroke-width:1.0;"/><polygon fill="none" points="397.76,368.82,418.87,367.01,403.49,381.59,397.76,368.82" style="stroke:#A80036;stroke-width:1.0;"/><!--MD5=[73fc246f228ee7038096cd574ebf572b]
reverse link CloudScene to RosScene--><path codeLine="48" d="M527.59,383.68 C517.58,397.99 507.29,412.71 497.45,426.78 " fill="none" id="CloudScene-backto-RosScene" style="stroke:#A80036;stroke-width:1.0;"/><polygon fill="none" points="521.97,379.5,539.17,367.12,533.44,387.52,521.97,379.5" style="stroke:#A80036;stroke-width:1.0;"/><!--MD5=[89bcabeb63ef5aa4eff8c8971ccc2ce5]
reverse link CloudScene to GdmScene--><path codeLine="60" d="M654.83,383.68 C664.91,397.99 675.27,412.71 685.18,426.78 " fill="none" id="CloudScene-backto-GdmScene" style="stroke:#A80036;stroke-width:1.0;"/><polygon fill="none" points="648.97,387.5,643.18,367.12,660.41,379.44,648.97,387.5" style="stroke:#A80036;stroke-width:1.0;"/><!--MD5=[c09e78d60b0ac51814d16ca2d2446bb5]
reverse link CloudScene to ArmScene--><path codeLine="72" d="M782.41,375.34 C819.34,391.95 857.55,409.65 893,427 C898.57,429.73 904.24,432.55 909.96,435.43 " fill="none" id="CloudScene-backto-ArmScene" style="stroke:#A80036;stroke-width:1.0;"/><polygon fill="none" points="779.51,381.71,764.11,367.14,785.23,368.93,779.51,381.71" style="stroke:#A80036;stroke-width:1.0;"/><!--MD5=[4a88da97612b6769de44791fa363e3eb]
@startuml
skinparam BackgroundColor transparent
hide empty methods
hide empty fields
abstract class "CloudScene" {
    +components : Set<Component>
    +system : System
    +empty() : any
    {abstract} +filter(component: Component) : boolean
    +gizmos() : any
    +render(view: View) : void | Promise<void>
    +update(token: Token<any, any>) : void | Promise<void>
    +verify(view: View) : void | Promise<void>
}
abstract class "Scene" {
    +components : Set<Component>
    +system : System
    +empty() : any
    {abstract} +filter(component: Component) : boolean
    +gizmos() : any
    +render(view: View) : void | Promise<void>
    +update(token: Token<any, any>) : void | Promise<void>
    +verify(view: View) : void | Promise<void>
}
"Scene" <|- - "CloudScene"
class "AwsScene" {
    +components : Set<Component>
    +system : System
    -_output : Template
    +empty() : Template
    +filter(component: Component) : boolean
    +gizmos() : any
    +render(view: View) : void | Promise<void>
    +update(token: Token<any, any>) : void
    +verify(view: View) : void | Promise<void>
}
"CloudScene" <|- - "AwsScene"
class "RosScene" {
    +components : Set<Component>
    +system : System
    -_output : Template
    +empty() : Template
    +filter(component: Component) : boolean
    +gizmos() : any
    +render(view: View) : void | Promise<void>
    +update(token: Token<any, any>) : void
    +verify(view: View) : void | Promise<void>
}
"CloudScene" <|- - "RosScene"
class "GdmScene" {
    +components : Set<Component>
    +system : System
    -_output : Template
    +empty() : Template
    +filter(component: Component) : boolean
    +gizmos() : any
    +render(view: View) : void | Promise<void>
    +update(token: Token<any, any>) : void
    +verify(view: View) : void | Promise<void>
}
"CloudScene" <|- - "GdmScene"
class "ArmScene" {
    +components : Set<Component>
    +system : System
    -_output : Template
    +empty() : Template
    +filter(component: Component) : boolean
    +gizmos() : any
    +render(view: View) : void | Promise<void>
    +update(token: Token<any, any>) : void
    +verify(view: View) : void | Promise<void>
}
"CloudScene" <|- - "ArmScene"
@enduml

PlantUML version 1.2021.14(Fri Nov 12 16:46:50 UTC 2021)
(GPL source distribution)
Java Runtime: OpenJDK Runtime Environment
JVM: OpenJDK 64-Bit Server VM
Default Encoding: UTF-8
Language: en
Country: null
--></g></svg>