<?xml version="1.0" encoding="UTF-8" standalone="no"?><svg xmlns="http://www.w3.org/2000/svg" xmlns:xlink="http://www.w3.org/1999/xlink" contentScriptType="application/ecmascript" contentStyleType="text/css" height="438px" preserveAspectRatio="none" style="width:1450px;height:438px;background:#00000000;" version="1.1" viewBox="0 0 1450 438" width="1450px" zoomAndPan="magnify"><defs><filter height="300%" id="fewp5rh40p0b8" width="300%" x="-1" y="-1"><feGaussianBlur result="blurOut" stdDeviation="2.0"/><feColorMatrix in="blurOut" result="blurOut2" type="matrix" values="0 0 0 0 0 0 0 0 0 0 0 0 0 0 0 0 0 0 .4 0"/><feOffset dx="4.0" dy="4.0" in="blurOut2" result="blurOut3"/><feBlend in="SourceGraphic" in2="blurOut3" mode="normal"/></filter></defs><g><!--MD5=[bc00f38760f5c998ab68abb0e19452fc]
class CloudComponent--><rect codeLine="4" fill="#FEFECE" filter="url(#fewp5rh40p0b8)" height="99.2188" id="CloudComponent" style="stroke:#A80036;stroke-width:1.5;" width="331" x="556" y="166"/><ellipse cx="663.75" cy="182" fill="#A9DCDF" rx="11" ry="11" style="stroke:#A80036;stroke-width:1.0;"/><path d="M663.8594,177.3438 L662.7031,182.4219 L665.0313,182.4219 L663.8594,177.3438 Z M662.375,175.1094 L665.3594,175.1094 L668.7188,187.5 L666.2656,187.5 L665.5,184.4375 L662.2188,184.4375 L661.4688,187.5 L659.0313,187.5 L662.375,175.1094 Z " fill="#000000"/><text fill="#000000" font-family="sans-serif" font-size="12" font-style="italic" lengthAdjust="spacing" textLength="107" x="684.25" y="186.1543">CloudComponent</text><line style="stroke:#A80036;stroke-width:1.5;" x1="557" x2="886" y1="198" y2="198"/><ellipse cx="567" cy="209" rx="3" ry="3" style="stroke:#038048;stroke-width:1.0;fill:none;"/><text fill="#000000" font-family="sans-serif" font-size="11" lengthAdjust="spacing" textLength="163" x="576" y="212.2104">[ComponentHandle] : Handle</text><line style="stroke:#A80036;stroke-width:1.5;" x1="557" x2="886" y1="218.8047" y2="218.8047"/><ellipse cx="567" cy="229.8047" fill="#84BE84" rx="3" ry="3" style="stroke:#038048;stroke-width:1.0;"/><text fill="#000000" font-family="sans-serif" font-size="11" font-style="italic" lengthAdjust="spacing" textLength="305" x="576" y="233.0151">[ComponentRender](out: any) : void | Promise&lt;void&gt;</text><ellipse cx="567" cy="242.6094" fill="#84BE84" rx="3" ry="3" style="stroke:#038048;stroke-width:1.0;"/><text fill="#000000" font-family="sans-serif" font-size="11" lengthAdjust="spacing" textLength="221" x="576" y="245.8198">[ComponentUpdate]() : Promise&lt;void&gt;</text><ellipse cx="567" cy="255.4141" fill="#84BE84" rx="3" ry="3" style="stroke:#038048;stroke-width:1.0;"/><text fill="#000000" font-family="sans-serif" font-size="11" lengthAdjust="spacing" textLength="248" x="576" y="258.6245">[ComponentVerify]() : void | Promise&lt;void&gt;</text><!--MD5=[4e13963c9dc916a21a8436ef39422b32]
class Component--><rect codeLine="10" fill="#FEFECE" filter="url(#fewp5rh40p0b8)" height="99.2188" id="Component" style="stroke:#A80036;stroke-width:1.5;" width="331" x="556" y="7"/><ellipse cx="681.25" cy="23" fill="#A9DCDF" rx="11" ry="11" style="stroke:#A80036;stroke-width:1.0;"/><path d="M681.3594,18.3438 L680.2031,23.4219 L682.5313,23.4219 L681.3594,18.3438 Z M679.875,16.1094 L682.8594,16.1094 L686.2188,28.5 L683.7656,28.5 L683,25.4375 L679.7188,25.4375 L678.9688,28.5 L676.5313,28.5 L679.875,16.1094 Z " fill="#000000"/><text fill="#000000" font-family="sans-serif" font-size="12" font-style="italic" lengthAdjust="spacing" textLength="72" x="701.75" y="27.1543">Component</text><line style="stroke:#A80036;stroke-width:1.5;" x1="557" x2="886" y1="39" y2="39"/><ellipse cx="567" cy="50" rx="3" ry="3" style="stroke:#038048;stroke-width:1.0;fill:none;"/><text fill="#000000" font-family="sans-serif" font-size="11" lengthAdjust="spacing" textLength="163" x="576" y="53.2104">[ComponentHandle] : Handle</text><line style="stroke:#A80036;stroke-width:1.5;" x1="557" x2="886" y1="59.8047" y2="59.8047"/><ellipse cx="567" cy="70.8047" fill="#84BE84" rx="3" ry="3" style="stroke:#038048;stroke-width:1.0;"/><text fill="#000000" font-family="sans-serif" font-size="11" font-style="italic" lengthAdjust="spacing" textLength="305" x="576" y="74.0151">[ComponentRender](out: any) : void | Promise&lt;void&gt;</text><ellipse cx="567" cy="83.6094" fill="#84BE84" rx="3" ry="3" style="stroke:#038048;stroke-width:1.0;"/><text fill="#000000" font-family="sans-serif" font-size="11" lengthAdjust="spacing" textLength="221" x="576" y="86.8198">[ComponentUpdate]() : Promise&lt;void&gt;</text><ellipse cx="567" cy="96.4141" fill="#84BE84" rx="3" ry="3" style="stroke:#038048;stroke-width:1.0;"/><text fill="#000000" font-family="sans-serif" font-size="11" lengthAdjust="spacing" textLength="248" x="576" y="99.6245">[ComponentVerify]() : void | Promise&lt;void&gt;</text><!--MD5=[30f5b541ec4659a2fd7c50e7543b8294]
class ArmComponent--><rect codeLine="17" fill="#FEFECE" filter="url(#fewp5rh40p0b8)" height="99.2188" id="ArmComponent" style="stroke:#A80036;stroke-width:1.5;" width="331" x="7" y="325"/><ellipse cx="120.25" cy="341" fill="#A9DCDF" rx="11" ry="11" style="stroke:#A80036;stroke-width:1.0;"/><path d="M120.3594,336.3438 L119.2031,341.4219 L121.5313,341.4219 L120.3594,336.3438 Z M118.875,334.1094 L121.8594,334.1094 L125.2188,346.5 L122.7656,346.5 L122,343.4375 L118.7188,343.4375 L117.9688,346.5 L115.5313,346.5 L118.875,334.1094 Z " fill="#000000"/><text fill="#000000" font-family="sans-serif" font-size="12" font-style="italic" lengthAdjust="spacing" textLength="96" x="140.75" y="345.1543">ArmComponent</text><line style="stroke:#A80036;stroke-width:1.5;" x1="8" x2="337" y1="357" y2="357"/><ellipse cx="18" cy="368" rx="3" ry="3" style="stroke:#038048;stroke-width:1.0;fill:none;"/><text fill="#000000" font-family="sans-serif" font-size="11" lengthAdjust="spacing" textLength="163" x="27" y="371.2104">[ComponentHandle] : Handle</text><line style="stroke:#A80036;stroke-width:1.5;" x1="8" x2="337" y1="377.8047" y2="377.8047"/><ellipse cx="18" cy="388.8047" fill="#84BE84" rx="3" ry="3" style="stroke:#038048;stroke-width:1.0;"/><text fill="#000000" font-family="sans-serif" font-size="11" font-style="italic" lengthAdjust="spacing" textLength="305" x="27" y="392.0151">[ComponentRender](out: any) : void | Promise&lt;void&gt;</text><ellipse cx="18" cy="401.6094" fill="#84BE84" rx="3" ry="3" style="stroke:#038048;stroke-width:1.0;"/><text fill="#000000" font-family="sans-serif" font-size="11" lengthAdjust="spacing" textLength="221" x="27" y="404.8198">[ComponentUpdate]() : Promise&lt;void&gt;</text><ellipse cx="18" cy="414.4141" fill="#84BE84" rx="3" ry="3" style="stroke:#038048;stroke-width:1.0;"/><text fill="#000000" font-family="sans-serif" font-size="11" lengthAdjust="spacing" textLength="248" x="27" y="417.6245">[ComponentVerify]() : void | Promise&lt;void&gt;</text><!--MD5=[bfe287da6c7cd3045c3e35f9132246ba]
class CfnComponent--><rect codeLine="24" fill="#FEFECE" filter="url(#fewp5rh40p0b8)" height="99.2188" id="CfnComponent" style="stroke:#A80036;stroke-width:1.5;" width="331" x="373" y="325"/><ellipse cx="488.25" cy="341" fill="#A9DCDF" rx="11" ry="11" style="stroke:#A80036;stroke-width:1.0;"/><path d="M488.3594,336.3438 L487.2031,341.4219 L489.5313,341.4219 L488.3594,336.3438 Z M486.875,334.1094 L489.8594,334.1094 L493.2188,346.5 L490.7656,346.5 L490,343.4375 L486.7188,343.4375 L485.9688,346.5 L483.5313,346.5 L486.875,334.1094 Z " fill="#000000"/><text fill="#000000" font-family="sans-serif" font-size="12" font-style="italic" lengthAdjust="spacing" textLength="92" x="508.75" y="345.1543">CfnComponent</text><line style="stroke:#A80036;stroke-width:1.5;" x1="374" x2="703" y1="357" y2="357"/><ellipse cx="384" cy="368" rx="3" ry="3" style="stroke:#038048;stroke-width:1.0;fill:none;"/><text fill="#000000" font-family="sans-serif" font-size="11" lengthAdjust="spacing" textLength="163" x="393" y="371.2104">[ComponentHandle] : Handle</text><line style="stroke:#A80036;stroke-width:1.5;" x1="374" x2="703" y1="377.8047" y2="377.8047"/><ellipse cx="384" cy="388.8047" fill="#84BE84" rx="3" ry="3" style="stroke:#038048;stroke-width:1.0;"/><text fill="#000000" font-family="sans-serif" font-size="11" font-style="italic" lengthAdjust="spacing" textLength="305" x="393" y="392.0151">[ComponentRender](out: any) : void | Promise&lt;void&gt;</text><ellipse cx="384" cy="401.6094" fill="#84BE84" rx="3" ry="3" style="stroke:#038048;stroke-width:1.0;"/><text fill="#000000" font-family="sans-serif" font-size="11" lengthAdjust="spacing" textLength="221" x="393" y="404.8198">[ComponentUpdate]() : Promise&lt;void&gt;</text><ellipse cx="384" cy="414.4141" fill="#84BE84" rx="3" ry="3" style="stroke:#038048;stroke-width:1.0;"/><text fill="#000000" font-family="sans-serif" font-size="11" lengthAdjust="spacing" textLength="248" x="393" y="417.6245">[ComponentVerify]() : void | Promise&lt;void&gt;</text><!--MD5=[d77ed4ab7ef1f9f95ed1968f51617b7c]
class GdmComponent--><rect codeLine="31" fill="#FEFECE" filter="url(#fewp5rh40p0b8)" height="99.2188" id="GdmComponent" style="stroke:#A80036;stroke-width:1.5;" width="331" x="739" y="325"/><ellipse cx="850.25" cy="341" fill="#A9DCDF" rx="11" ry="11" style="stroke:#A80036;stroke-width:1.0;"/><path d="M850.3594,336.3438 L849.2031,341.4219 L851.5313,341.4219 L850.3594,336.3438 Z M848.875,334.1094 L851.8594,334.1094 L855.2188,346.5 L852.7656,346.5 L852,343.4375 L848.7188,343.4375 L847.9688,346.5 L845.5313,346.5 L848.875,334.1094 Z " fill="#000000"/><text fill="#000000" font-family="sans-serif" font-size="12" font-style="italic" lengthAdjust="spacing" textLength="100" x="870.75" y="345.1543">GdmComponent</text><line style="stroke:#A80036;stroke-width:1.5;" x1="740" x2="1069" y1="357" y2="357"/><ellipse cx="750" cy="368" rx="3" ry="3" style="stroke:#038048;stroke-width:1.0;fill:none;"/><text fill="#000000" font-family="sans-serif" font-size="11" lengthAdjust="spacing" textLength="163" x="759" y="371.2104">[ComponentHandle] : Handle</text><line style="stroke:#A80036;stroke-width:1.5;" x1="740" x2="1069" y1="377.8047" y2="377.8047"/><ellipse cx="750" cy="388.8047" fill="#84BE84" rx="3" ry="3" style="stroke:#038048;stroke-width:1.0;"/><text fill="#000000" font-family="sans-serif" font-size="11" font-style="italic" lengthAdjust="spacing" textLength="305" x="759" y="392.0151">[ComponentRender](out: any) : void | Promise&lt;void&gt;</text><ellipse cx="750" cy="401.6094" fill="#84BE84" rx="3" ry="3" style="stroke:#038048;stroke-width:1.0;"/><text fill="#000000" font-family="sans-serif" font-size="11" lengthAdjust="spacing" textLength="221" x="759" y="404.8198">[ComponentUpdate]() : Promise&lt;void&gt;</text><ellipse cx="750" cy="414.4141" fill="#84BE84" rx="3" ry="3" style="stroke:#038048;stroke-width:1.0;"/><text fill="#000000" font-family="sans-serif" font-size="11" lengthAdjust="spacing" textLength="248" x="759" y="417.6245">[ComponentVerify]() : void | Promise&lt;void&gt;</text><!--MD5=[2329f7cacab1176dd90b22c9456fec03]
class RosComponent--><rect codeLine="38" fill="#FEFECE" filter="url(#fewp5rh40p0b8)" height="99.2188" id="RosComponent" style="stroke:#A80036;stroke-width:1.5;" width="331" x="1105" y="325"/><ellipse cx="1219.25" cy="341" fill="#A9DCDF" rx="11" ry="11" style="stroke:#A80036;stroke-width:1.0;"/><path d="M1219.3594,336.3438 L1218.2031,341.4219 L1220.5313,341.4219 L1219.3594,336.3438 Z M1217.875,334.1094 L1220.8594,334.1094 L1224.2188,346.5 L1221.7656,346.5 L1221,343.4375 L1217.7188,343.4375 L1216.9688,346.5 L1214.5313,346.5 L1217.875,334.1094 Z " fill="#000000"/><text fill="#000000" font-family="sans-serif" font-size="12" font-style="italic" lengthAdjust="spacing" textLength="94" x="1239.75" y="345.1543">RosComponent</text><line style="stroke:#A80036;stroke-width:1.5;" x1="1106" x2="1435" y1="357" y2="357"/><ellipse cx="1116" cy="368" rx="3" ry="3" style="stroke:#038048;stroke-width:1.0;fill:none;"/><text fill="#000000" font-family="sans-serif" font-size="11" lengthAdjust="spacing" textLength="163" x="1125" y="371.2104">[ComponentHandle] : Handle</text><line style="stroke:#A80036;stroke-width:1.5;" x1="1106" x2="1435" y1="377.8047" y2="377.8047"/><ellipse cx="1116" cy="388.8047" fill="#84BE84" rx="3" ry="3" style="stroke:#038048;stroke-width:1.0;"/><text fill="#000000" font-family="sans-serif" font-size="11" font-style="italic" lengthAdjust="spacing" textLength="305" x="1125" y="392.0151">[ComponentRender](out: any) : void | Promise&lt;void&gt;</text><ellipse cx="1116" cy="401.6094" fill="#84BE84" rx="3" ry="3" style="stroke:#038048;stroke-width:1.0;"/><text fill="#000000" font-family="sans-serif" font-size="11" lengthAdjust="spacing" textLength="221" x="1125" y="404.8198">[ComponentUpdate]() : Promise&lt;void&gt;</text><ellipse cx="1116" cy="414.4141" fill="#84BE84" rx="3" ry="3" style="stroke:#038048;stroke-width:1.0;"/><text fill="#000000" font-family="sans-serif" font-size="11" lengthAdjust="spacing" textLength="248" x="1125" y="417.6245">[ComponentVerify]() : void | Promise&lt;void&gt;</text><!--MD5=[a5058f62afae2244539c1a5e64c2d230]
reverse link Component to CloudComponent--><path codeLine="16" d="M721.5,126.64 C721.5,139.91 721.5,153.54 721.5,165.98 " fill="none" id="Component-backto-CloudComponent" style="stroke:#A80036;stroke-width:1.0;"/><polygon fill="none" points="714.5,126.32,721.5,106.32,728.5,126.32,714.5,126.32" style="stroke:#A80036;stroke-width:1.0;"/><!--MD5=[c7be72ff7369bcdaf4fdd3c2d19cc8ca]
reverse link CloudComponent to ArmComponent--><path codeLine="23" d="M536.04,269.54 C472.01,287.85 400.72,308.23 338.36,326.07 " fill="none" id="CloudComponent-backto-ArmComponent" style="stroke:#A80036;stroke-width:1.0;"/><polygon fill="none" points="534.51,262.69,555.66,263.92,538.36,276.15,534.51,262.69" style="stroke:#A80036;stroke-width:1.0;"/><!--MD5=[695d8c8dd5b38eec1e5696f3461e8ab2]
reverse link CloudComponent to CfnComponent--><path codeLine="30" d="M649.41,278.35 C631.35,293.84 612.23,310.24 595.05,324.98 " fill="none" id="CloudComponent-backto-CfnComponent" style="stroke:#A80036;stroke-width:1.0;"/><polygon fill="none" points="644.86,273.03,664.6,265.32,653.98,283.65,644.86,273.03" style="stroke:#A80036;stroke-width:1.0;"/><!--MD5=[33af4b293e12872a0c53a141ec18b135]
reverse link CloudComponent to GdmComponent--><path codeLine="37" d="M793.59,278.35 C811.65,293.84 830.77,310.24 847.95,324.98 " fill="none" id="CloudComponent-backto-GdmComponent" style="stroke:#A80036;stroke-width:1.0;"/><polygon fill="none" points="789.02,283.65,778.4,265.32,798.14,273.03,789.02,283.65" style="stroke:#A80036;stroke-width:1.0;"/><!--MD5=[72aae16b76cd3e59a5470f8f9f356aaa]
reverse link CloudComponent to RosComponent--><path codeLine="44" d="M906.96,269.54 C970.99,287.85 1042.28,308.23 1104.64,326.07 " fill="none" id="CloudComponent-backto-RosComponent" style="stroke:#A80036;stroke-width:1.0;"/><polygon fill="none" points="904.64,276.15,887.34,263.92,908.49,262.69,904.64,276.15" style="stroke:#A80036;stroke-width:1.0;"/><!--MD5=[a1b4652163337c7f527b745965696a09]
@startuml
skinparam BackgroundColor transparent
hide empty methods
hide empty fields
abstract class "CloudComponent" {
    +[ComponentHandle] : Handle
    {abstract} +[ComponentRender](out: any) : void | Promise<void>
    +[ComponentUpdate]() : Promise<void>
    +[ComponentVerify]() : void | Promise<void>
}
abstract class "Component" {
    +[ComponentHandle] : Handle
    {abstract} +[ComponentRender](out: any) : void | Promise<void>
    +[ComponentUpdate]() : Promise<void>
    +[ComponentVerify]() : void | Promise<void>
}
"Component" <|- - "CloudComponent"
abstract class "ArmComponent" {
    +[ComponentHandle] : Handle
    {abstract} +[ComponentRender](out: any) : void | Promise<void>
    +[ComponentUpdate]() : Promise<void>
    +[ComponentVerify]() : void | Promise<void>
}
"CloudComponent" <|- - "ArmComponent"
abstract class "CfnComponent" {
    +[ComponentHandle] : Handle
    {abstract} +[ComponentRender](out: any) : void | Promise<void>
    +[ComponentUpdate]() : Promise<void>
    +[ComponentVerify]() : void | Promise<void>
}
"CloudComponent" <|- - "CfnComponent"
abstract class "GdmComponent" {
    +[ComponentHandle] : Handle
    {abstract} +[ComponentRender](out: any) : void | Promise<void>
    +[ComponentUpdate]() : Promise<void>
    +[ComponentVerify]() : void | Promise<void>
}
"CloudComponent" <|- - "GdmComponent"
abstract class "RosComponent" {
    +[ComponentHandle] : Handle
    {abstract} +[ComponentRender](out: any) : void | Promise<void>
    +[ComponentUpdate]() : Promise<void>
    +[ComponentVerify]() : void | Promise<void>
}
"CloudComponent" <|- - "RosComponent"
@enduml

PlantUML version 1.2021.14(Fri Nov 12 16:46:50 UTC 2021)
(GPL source distribution)
Java Runtime: OpenJDK Runtime Environment
JVM: OpenJDK 64-Bit Server VM
Default Encoding: UTF-8
Language: en
Country: null
--></g></svg>