<?xml version="1.0" encoding="UTF-8" standalone="no"?><svg xmlns="http://www.w3.org/2000/svg" xmlns:xlink="http://www.w3.org/1999/xlink" contentScriptType="application/ecmascript" contentStyleType="text/css" height="330px" preserveAspectRatio="none" style="width:1887px;height:330px;background:#00000000;" version="1.1" viewBox="0 0 1887 330" width="1887px" zoomAndPan="magnify"><defs><filter height="300%" id="ftfnpgeyj260k" width="300%" x="-1" y="-1"><feGaussianBlur result="blurOut" stdDeviation="2.0"/><feColorMatrix in="blurOut" result="blurOut2" type="matrix" values="0 0 0 0 0 0 0 0 0 0 0 0 0 0 0 0 0 0 .4 0"/><feOffset dx="4.0" dy="4.0" in="blurOut2" result="blurOut3"/><feBlend in="SourceGraphic" in2="blurOut3" mode="normal"/></filter></defs><g><!--MD5=[4e13963c9dc916a21a8436ef39422b32]
class Component--><rect codeLine="4" fill="#FEFECE" filter="url(#ftfnpgeyj260k)" height="99.2188" id="Component" style="stroke:#A80036;stroke-width:1.5;" width="331" x="704" y="7"/><ellipse cx="829.25" cy="23" fill="#A9DCDF" rx="11" ry="11" style="stroke:#A80036;stroke-width:1.0;"/><path d="M829.3594,18.3438 L828.2031,23.4219 L830.5313,23.4219 L829.3594,18.3438 Z M827.875,16.1094 L830.8594,16.1094 L834.2188,28.5 L831.7656,28.5 L831,25.4375 L827.7188,25.4375 L826.9688,28.5 L824.5313,28.5 L827.875,16.1094 Z " fill="#000000"/><text fill="#000000" font-family="sans-serif" font-size="12" font-style="italic" lengthAdjust="spacing" textLength="72" x="849.75" y="27.1543">Component</text><line style="stroke:#A80036;stroke-width:1.5;" x1="705" x2="1034" y1="39" y2="39"/><ellipse cx="715" cy="50" rx="3" ry="3" style="stroke:#038048;stroke-width:1.0;fill:none;"/><text fill="#000000" font-family="sans-serif" font-size="11" lengthAdjust="spacing" textLength="163" x="724" y="53.2104">[ComponentHandle] : Handle</text><line style="stroke:#A80036;stroke-width:1.5;" x1="705" x2="1034" y1="59.8047" y2="59.8047"/><ellipse cx="715" cy="70.8047" fill="#84BE84" rx="3" ry="3" style="stroke:#038048;stroke-width:1.0;"/><text fill="#000000" font-family="sans-serif" font-size="11" font-style="italic" lengthAdjust="spacing" textLength="305" x="724" y="74.0151">[ComponentRender](out: any) : void | Promise&lt;void&gt;</text><ellipse cx="715" cy="83.6094" fill="#84BE84" rx="3" ry="3" style="stroke:#038048;stroke-width:1.0;"/><text fill="#000000" font-family="sans-serif" font-size="11" lengthAdjust="spacing" textLength="221" x="724" y="86.8198">[ComponentUpdate]() : Promise&lt;void&gt;</text><ellipse cx="715" cy="96.4141" fill="#84BE84" rx="3" ry="3" style="stroke:#038048;stroke-width:1.0;"/><text fill="#000000" font-family="sans-serif" font-size="11" lengthAdjust="spacing" textLength="248" x="724" y="99.6245">[ComponentVerify]() : void | Promise&lt;void&gt;</text><!--MD5=[d895f236f4ab01a61772d583878a0d98]
class AzureResourceManagerComponent<void>--><rect codeLine="10" fill="#FEFECE" filter="url(#ftfnpgeyj260k)" height="150.4375" id="AzureResourceManagerComponent&lt;void&gt;" style="stroke:#A80036;stroke-width:1.5;" width="297" x="7" y="166"/><ellipse cx="22" cy="182" fill="#A9DCDF" rx="11" ry="11" style="stroke:#A80036;stroke-width:1.0;"/><path d="M22.1094,177.3438 L20.9531,182.4219 L23.2813,182.4219 L22.1094,177.3438 Z M20.625,175.1094 L23.6094,175.1094 L26.9688,187.5 L24.5156,187.5 L23.75,184.4375 L20.4688,184.4375 L19.7188,187.5 L17.2813,187.5 L20.625,175.1094 Z " fill="#000000"/><text fill="#000000" font-family="sans-serif" font-size="12" font-style="italic" lengthAdjust="spacing" textLength="265" x="36" y="186.1543">AzureResourceManagerComponent&lt;void&gt;</text><line style="stroke:#A80036;stroke-width:1.5;" x1="8" x2="303" y1="198" y2="198"/><ellipse cx="18" cy="209" rx="3" ry="3" style="stroke:#038048;stroke-width:1.0;fill:none;"/><text fill="#000000" font-family="sans-serif" font-size="11" lengthAdjust="spacing" textLength="105" x="27" y="212.2104">apiVersion : string</text><ellipse cx="18" cy="221.8047" rx="3" ry="3" style="stroke:#038048;stroke-width:1.0;fill:none;"/><text fill="#000000" font-family="sans-serif" font-size="11" lengthAdjust="spacing" textLength="77" x="27" y="225.0151">name : string</text><ellipse cx="18" cy="234.6094" rx="3" ry="3" style="stroke:#038048;stroke-width:1.0;fill:none;"/><text fill="#000000" font-family="sans-serif" font-size="11" lengthAdjust="spacing" textLength="94" x="27" y="237.8198">properties : void</text><ellipse cx="18" cy="247.4141" rx="3" ry="3" style="stroke:#038048;stroke-width:1.0;fill:none;"/><text fill="#000000" font-family="sans-serif" font-size="11" lengthAdjust="spacing" textLength="69" x="27" y="250.6245">type : string</text><ellipse cx="18" cy="260.2188" rx="3" ry="3" style="stroke:#038048;stroke-width:1.0;fill:none;"/><text fill="#000000" font-family="sans-serif" font-size="11" lengthAdjust="spacing" textLength="163" x="27" y="263.4292">[ComponentHandle] : Handle</text><line style="stroke:#A80036;stroke-width:1.5;" x1="8" x2="303" y1="270.0234" y2="270.0234"/><ellipse cx="18" cy="281.0234" fill="#84BE84" rx="3" ry="3" style="stroke:#038048;stroke-width:1.0;"/><text fill="#000000" font-family="sans-serif" font-size="11" lengthAdjust="spacing" textLength="220" x="27" y="284.2339">[ComponentRender](output: any) : void</text><ellipse cx="18" cy="293.8281" fill="#84BE84" rx="3" ry="3" style="stroke:#038048;stroke-width:1.0;"/><text fill="#000000" font-family="sans-serif" font-size="11" lengthAdjust="spacing" textLength="221" x="27" y="297.0386">[ComponentUpdate]() : Promise&lt;void&gt;</text><ellipse cx="18" cy="306.6328" fill="#84BE84" rx="3" ry="3" style="stroke:#038048;stroke-width:1.0;"/><text fill="#000000" font-family="sans-serif" font-size="11" lengthAdjust="spacing" textLength="248" x="27" y="309.8433">[ComponentVerify]() : void | Promise&lt;void&gt;</text><!--MD5=[f835b7ffeb4a4a7375770078f3ed013b]
class AWSCloudFormationComponent<PropsType>--><rect codeLine="21" fill="#FEFECE" filter="url(#ftfnpgeyj260k)" height="99.2188" id="AWSCloudFormationComponent&lt;PropsType&gt;" style="stroke:#A80036;stroke-width:1.5;" width="314" x="339.5" y="191.5"/><ellipse cx="354.5" cy="207.5" fill="#A9DCDF" rx="11" ry="11" style="stroke:#A80036;stroke-width:1.0;"/><path d="M354.6094,202.8438 L353.4531,207.9219 L355.7813,207.9219 L354.6094,202.8438 Z M353.125,200.6094 L356.1094,200.6094 L359.4688,213 L357.0156,213 L356.25,209.9375 L352.9688,209.9375 L352.2188,213 L349.7813,213 L353.125,200.6094 Z " fill="#000000"/><text fill="#000000" font-family="sans-serif" font-size="12" font-style="italic" lengthAdjust="spacing" textLength="282" x="368.5" y="211.6543">AWSCloudFormationComponent&lt;PropsType&gt;</text><line style="stroke:#A80036;stroke-width:1.5;" x1="340.5" x2="652.5" y1="223.5" y2="223.5"/><ellipse cx="350.5" cy="234.5" rx="3" ry="3" style="stroke:#038048;stroke-width:1.0;fill:none;"/><text fill="#000000" font-family="sans-serif" font-size="11" lengthAdjust="spacing" textLength="163" x="359.5" y="237.7104">[ComponentHandle] : Handle</text><line style="stroke:#A80036;stroke-width:1.5;" x1="340.5" x2="652.5" y1="244.3047" y2="244.3047"/><ellipse cx="350.5" cy="255.3047" fill="#84BE84" rx="3" ry="3" style="stroke:#038048;stroke-width:1.0;"/><text fill="#000000" font-family="sans-serif" font-size="11" lengthAdjust="spacing" textLength="285" x="359.5" y="258.5151">[ComponentRender](output: any) : Promise&lt;void&gt;</text><ellipse cx="350.5" cy="268.1094" fill="#84BE84" rx="3" ry="3" style="stroke:#038048;stroke-width:1.0;"/><text fill="#000000" font-family="sans-serif" font-size="11" lengthAdjust="spacing" textLength="221" x="359.5" y="271.3198">[ComponentUpdate]() : Promise&lt;void&gt;</text><ellipse cx="350.5" cy="280.9141" fill="#84BE84" rx="3" ry="3" style="stroke:#038048;stroke-width:1.0;"/><text fill="#000000" font-family="sans-serif" font-size="11" lengthAdjust="spacing" textLength="248" x="359.5" y="284.1245">[ComponentVerify]() : void | Promise&lt;void&gt;</text><!--MD5=[5aa95876f21f08a9468fa81cc52afafb]
class GoogleDeploymentManagerComponent<PropsType>--><rect codeLine="28" fill="#FEFECE" filter="url(#ftfnpgeyj260k)" height="137.6328" id="GoogleDeploymentManagerComponent&lt;PropsType&gt;" style="stroke:#A80036;stroke-width:1.5;" width="362" x="688.5" y="172"/><ellipse cx="703.5" cy="188" fill="#A9DCDF" rx="11" ry="11" style="stroke:#A80036;stroke-width:1.0;"/><path d="M703.6094,183.3438 L702.4531,188.4219 L704.7813,188.4219 L703.6094,183.3438 Z M702.125,181.1094 L705.1094,181.1094 L708.4688,193.5 L706.0156,193.5 L705.25,190.4375 L701.9688,190.4375 L701.2188,193.5 L698.7813,193.5 L702.125,181.1094 Z " fill="#000000"/><text fill="#000000" font-family="sans-serif" font-size="12" font-style="italic" lengthAdjust="spacing" textLength="330" x="717.5" y="192.1543">GoogleDeploymentManagerComponent&lt;PropsType&gt;</text><line style="stroke:#A80036;stroke-width:1.5;" x1="689.5" x2="1049.5" y1="204" y2="204"/><ellipse cx="699.5" cy="215" rx="3" ry="3" style="stroke:#038048;stroke-width:1.0;fill:none;"/><text fill="#000000" font-family="sans-serif" font-size="11" lengthAdjust="spacing" textLength="77" x="708.5" y="218.2104">name : string</text><ellipse cx="699.5" cy="227.8047" rx="3" ry="3" style="stroke:#038048;stroke-width:1.0;fill:none;"/><text fill="#000000" font-family="sans-serif" font-size="11" lengthAdjust="spacing" textLength="131" x="708.5" y="231.0151">properties : PropsType</text><ellipse cx="699.5" cy="240.6094" rx="3" ry="3" style="stroke:#038048;stroke-width:1.0;fill:none;"/><text fill="#000000" font-family="sans-serif" font-size="11" lengthAdjust="spacing" textLength="69" x="708.5" y="243.8198">type : string</text><ellipse cx="699.5" cy="253.4141" rx="3" ry="3" style="stroke:#038048;stroke-width:1.0;fill:none;"/><text fill="#000000" font-family="sans-serif" font-size="11" lengthAdjust="spacing" textLength="163" x="708.5" y="256.6245">[ComponentHandle] : Handle</text><line style="stroke:#A80036;stroke-width:1.5;" x1="689.5" x2="1049.5" y1="263.2188" y2="263.2188"/><ellipse cx="699.5" cy="274.2188" fill="#84BE84" rx="3" ry="3" style="stroke:#038048;stroke-width:1.0;"/><text fill="#000000" font-family="sans-serif" font-size="11" lengthAdjust="spacing" textLength="220" x="708.5" y="277.4292">[ComponentRender](output: any) : void</text><ellipse cx="699.5" cy="287.0234" fill="#84BE84" rx="3" ry="3" style="stroke:#038048;stroke-width:1.0;"/><text fill="#000000" font-family="sans-serif" font-size="11" lengthAdjust="spacing" textLength="221" x="708.5" y="290.2339">[ComponentUpdate]() : Promise&lt;void&gt;</text><ellipse cx="699.5" cy="299.8281" fill="#84BE84" rx="3" ry="3" style="stroke:#038048;stroke-width:1.0;"/><text fill="#000000" font-family="sans-serif" font-size="11" lengthAdjust="spacing" textLength="248" x="708.5" y="303.0386">[ComponentVerify]() : void | Promise&lt;void&gt;</text><!--MD5=[3298442fb4c503edc1a8b7df95e67ef8]
class AlibabaResourceOrchestrationServiceComponent<PropsType>--><rect codeLine="38" fill="#FEFECE" filter="url(#ftfnpgeyj260k)" height="99.2188" id="AlibabaResourceOrchestrationServiceComponent&lt;PropsType&gt;" style="stroke:#A80036;stroke-width:1.5;" width="421" x="1086" y="191.5"/><ellipse cx="1101" cy="207.5" fill="#A9DCDF" rx="11" ry="11" style="stroke:#A80036;stroke-width:1.0;"/><path d="M1101.1094,202.8438 L1099.9531,207.9219 L1102.2813,207.9219 L1101.1094,202.8438 Z M1099.625,200.6094 L1102.6094,200.6094 L1105.9688,213 L1103.5156,213 L1102.75,209.9375 L1099.4688,209.9375 L1098.7188,213 L1096.2813,213 L1099.625,200.6094 Z " fill="#000000"/><text fill="#000000" font-family="sans-serif" font-size="12" font-style="italic" lengthAdjust="spacing" textLength="389" x="1115" y="211.6543">AlibabaResourceOrchestrationServiceComponent&lt;PropsType&gt;</text><line style="stroke:#A80036;stroke-width:1.5;" x1="1087" x2="1506" y1="223.5" y2="223.5"/><ellipse cx="1097" cy="234.5" rx="3" ry="3" style="stroke:#038048;stroke-width:1.0;fill:none;"/><text fill="#000000" font-family="sans-serif" font-size="11" lengthAdjust="spacing" textLength="163" x="1106" y="237.7104">[ComponentHandle] : Handle</text><line style="stroke:#A80036;stroke-width:1.5;" x1="1087" x2="1506" y1="244.3047" y2="244.3047"/><ellipse cx="1097" cy="255.3047" fill="#84BE84" rx="3" ry="3" style="stroke:#038048;stroke-width:1.0;"/><text fill="#000000" font-family="sans-serif" font-size="11" lengthAdjust="spacing" textLength="220" x="1106" y="258.5151">[ComponentRender](output: any) : void</text><ellipse cx="1097" cy="268.1094" fill="#84BE84" rx="3" ry="3" style="stroke:#038048;stroke-width:1.0;"/><text fill="#000000" font-family="sans-serif" font-size="11" lengthAdjust="spacing" textLength="221" x="1106" y="271.3198">[ComponentUpdate]() : Promise&lt;void&gt;</text><ellipse cx="1097" cy="280.9141" fill="#84BE84" rx="3" ry="3" style="stroke:#038048;stroke-width:1.0;"/><text fill="#000000" font-family="sans-serif" font-size="11" lengthAdjust="spacing" textLength="248" x="1106" y="284.1245">[ComponentVerify]() : void | Promise&lt;void&gt;</text><!--MD5=[946cf32c4909f60ec87eb8fd56ac8dfa]
class FileSystemComponent--><rect codeLine="45" fill="#FEFECE" filter="url(#ftfnpgeyj260k)" height="124.8281" id="FileSystemComponent" style="stroke:#A80036;stroke-width:1.5;" width="331" x="1542" y="178.5"/><ellipse cx="1634.25" cy="194.5" fill="#A9DCDF" rx="11" ry="11" style="stroke:#A80036;stroke-width:1.0;"/><path d="M1634.3594,189.8438 L1633.2031,194.9219 L1635.5313,194.9219 L1634.3594,189.8438 Z M1632.875,187.6094 L1635.8594,187.6094 L1639.2188,200 L1636.7656,200 L1636,196.9375 L1632.7188,196.9375 L1631.9688,200 L1629.5313,200 L1632.875,187.6094 Z " fill="#000000"/><text fill="#000000" font-family="sans-serif" font-size="12" font-style="italic" lengthAdjust="spacing" textLength="138" x="1654.75" y="198.6543">FileSystemComponent</text><line style="stroke:#A80036;stroke-width:1.5;" x1="1543" x2="1872" y1="210.5" y2="210.5"/><ellipse cx="1553" cy="221.5" rx="3" ry="3" style="stroke:#038048;stroke-width:1.0;fill:none;"/><text fill="#000000" font-family="sans-serif" font-size="11" lengthAdjust="spacing" textLength="95" x="1562" y="224.7104">directory : string</text><ellipse cx="1553" cy="234.3047" rx="3" ry="3" style="stroke:#038048;stroke-width:1.0;fill:none;"/><text fill="#000000" font-family="sans-serif" font-size="11" lengthAdjust="spacing" textLength="77" x="1562" y="237.5151">name : string</text><ellipse cx="1553" cy="247.1094" rx="3" ry="3" style="stroke:#038048;stroke-width:1.0;fill:none;"/><text fill="#000000" font-family="sans-serif" font-size="11" lengthAdjust="spacing" textLength="163" x="1562" y="250.3198">[ComponentHandle] : Handle</text><line style="stroke:#A80036;stroke-width:1.5;" x1="1543" x2="1872" y1="256.9141" y2="256.9141"/><ellipse cx="1553" cy="267.9141" fill="#84BE84" rx="3" ry="3" style="stroke:#038048;stroke-width:1.0;"/><text fill="#000000" font-family="sans-serif" font-size="11" font-style="italic" lengthAdjust="spacing" textLength="305" x="1562" y="271.1245">[ComponentRender](out: any) : void | Promise&lt;void&gt;</text><ellipse cx="1553" cy="280.7188" fill="#84BE84" rx="3" ry="3" style="stroke:#038048;stroke-width:1.0;"/><text fill="#000000" font-family="sans-serif" font-size="11" lengthAdjust="spacing" textLength="221" x="1562" y="283.9292">[ComponentUpdate]() : Promise&lt;void&gt;</text><ellipse cx="1553" cy="293.5234" fill="#84BE84" rx="3" ry="3" style="stroke:#038048;stroke-width:1.0;"/><text fill="#000000" font-family="sans-serif" font-size="11" lengthAdjust="spacing" textLength="248" x="1562" y="296.7339">[ComponentVerify]() : void | Promise&lt;void&gt;</text><!--MD5=[a169c70c0c74ca5b62aee81c8cc4e9c5]
reverse link Component to AzureResourceManagerComponent<void>--><path codeLine="20" d="M683.69,83.67 C576.35,101.4 439.62,128.5 321.5,166 C315.79,167.81 310.01,169.77 304.2,171.83 " fill="none" id="Component-backto-AzureResourceManagerComponent&lt;void&gt;" style="stroke:#A80036;stroke-width:1.0;"/><polygon fill="none" points="682.86,76.71,703.72,80.41,685.1,90.53,682.86,76.71" style="stroke:#A80036;stroke-width:1.0;"/><!--MD5=[ed14069b8b13099f77b6d76ae55a935d]
reverse link Component to AWSCloudFormationComponent<PropsType>--><path codeLine="27" d="M751.91,115.03 C701.69,139.61 643.7,167.98 595.69,191.47 " fill="none" id="Component-backto-AWSCloudFormationComponent&lt;PropsType&gt;" style="stroke:#A80036;stroke-width:1.0;"/><polygon fill="none" points="748.99,108.67,770.03,106.17,755.14,121.24,748.99,108.67" style="stroke:#A80036;stroke-width:1.0;"/><!--MD5=[985271ecae0d2e5f0f207b2b33f37fce]
reverse link Component to GoogleDeploymentManagerComponent<PropsType>--><path codeLine="37" d="M869.5,126.59 C869.5,141.38 869.5,156.99 869.5,171.75 " fill="none" id="Component-backto-GoogleDeploymentManagerComponent&lt;PropsType&gt;" style="stroke:#A80036;stroke-width:1.0;"/><polygon fill="none" points="862.5,126.41,869.5,106.41,876.5,126.41,862.5,126.41" style="stroke:#A80036;stroke-width:1.0;"/><!--MD5=[6e76b2c188552a4c84ac9ebf3dde502c]
reverse link Component to AlibabaResourceOrchestrationServiceComponent<PropsType>--><path codeLine="44" d="M1001.57,113.95 C1059.59,138.75 1127.06,167.58 1182.81,191.41 " fill="none" id="Component-backto-AlibabaResourceOrchestrationServiceComponent&lt;PropsType&gt;" style="stroke:#A80036;stroke-width:1.0;"/><polygon fill="none" points="998.73,120.34,983.09,106.05,1004.23,107.47,998.73,120.34" style="stroke:#A80036;stroke-width:1.0;"/><!--MD5=[d9a29ed4a00d52d05f54626eeca35afc]
reverse link Component to FileSystemComponent--><path codeLine="53" d="M1055.22,77.21 C1187.67,93.93 1369.09,122.28 1524.5,166 C1537.37,169.62 1550.56,173.85 1563.68,178.43 " fill="none" id="Component-backto-FileSystemComponent" style="stroke:#A80036;stroke-width:1.0;"/><polygon fill="none" points="1054.21,84.13,1035.22,74.72,1055.93,70.24,1054.21,84.13" style="stroke:#A80036;stroke-width:1.0;"/><!--MD5=[a18cf68cc6eb550fc0dd323aa6488f2b]
@startuml
skinparam BackgroundColor transparent
hide empty methods
hide empty fields
abstract class "Component" {
    +[ComponentHandle] : Handle
    {abstract} +[ComponentRender](out: any) : void | Promise<void>
    +[ComponentUpdate]() : Promise<void>
    +[ComponentVerify]() : void | Promise<void>
}
abstract class "AzureResourceManagerComponent<void>" {
    +apiVersion : string
    +name : string
    +properties : void
    +type : string
    +[ComponentHandle] : Handle
    +[ComponentRender](output: any) : void
    +[ComponentUpdate]() : Promise<void>
    +[ComponentVerify]() : void | Promise<void>
}
"Component" <|- - "AzureResourceManagerComponent<void>"
abstract class "AWSCloudFormationComponent<PropsType>" {
    +[ComponentHandle] : Handle
    +[ComponentRender](output: any) : Promise<void>
    +[ComponentUpdate]() : Promise<void>
    +[ComponentVerify]() : void | Promise<void>
}
"Component" <|- - "AWSCloudFormationComponent<PropsType>"
abstract class "GoogleDeploymentManagerComponent<PropsType>" {
    +name : string
    +properties : PropsType
    +type : string
    +[ComponentHandle] : Handle
    +[ComponentRender](output: any) : void
    +[ComponentUpdate]() : Promise<void>
    +[ComponentVerify]() : void | Promise<void>
}
"Component" <|- - "GoogleDeploymentManagerComponent<PropsType>"
abstract class "AlibabaResourceOrchestrationServiceComponent<PropsType>" {
    +[ComponentHandle] : Handle
    +[ComponentRender](output: any) : void
    +[ComponentUpdate]() : Promise<void>
    +[ComponentVerify]() : void | Promise<void>
}
"Component" <|- - "AlibabaResourceOrchestrationServiceComponent<PropsType>"
abstract class "FileSystemComponent" {
    +directory : string
    +name : string
    +[ComponentHandle] : Handle
    {abstract} +[ComponentRender](out: any) : void | Promise<void>
    +[ComponentUpdate]() : Promise<void>
    +[ComponentVerify]() : void | Promise<void>
}
"Component" <|- - "FileSystemComponent"
@enduml

PlantUML version 1.2021.14(Fri Nov 12 16:46:50 UTC 2021)
(GPL source distribution)
Java Runtime: OpenJDK Runtime Environment
JVM: OpenJDK 64-Bit Server VM
Default Encoding: UTF-8
Language: en
Country: null
--></g></svg>