<?xml version="1.0" encoding="UTF-8" standalone="no"?><svg xmlns="http://www.w3.org/2000/svg" xmlns:xlink="http://www.w3.org/1999/xlink" contentScriptType="application/ecmascript" contentStyleType="text/css" height="304px" preserveAspectRatio="none" style="width:718px;height:304px;background:#00000000;" version="1.1" viewBox="0 0 718 304" width="718px" zoomAndPan="magnify"><defs><filter height="300%" id="fi2l7urmauawm" width="300%" x="-1" y="-1"><feGaussianBlur result="blurOut" stdDeviation="2.0"/><feColorMatrix in="blurOut" result="blurOut2" type="matrix" values="0 0 0 0 0 0 0 0 0 0 0 0 0 0 0 0 0 0 .4 0"/><feOffset dx="4.0" dy="4.0" in="blurOut2" result="blurOut3"/><feBlend in="SourceGraphic" in2="blurOut3" mode="normal"/></filter></defs><g><!--MD5=[4e13963c9dc916a21a8436ef39422b32]
class Component--><rect codeLine="4" fill="#FEFECE" filter="url(#fi2l7urmauawm)" height="99.2188" id="Component" style="stroke:#A80036;stroke-width:1.5;" width="331" x="190" y="7"/><ellipse cx="315.25" cy="23" fill="#A9DCDF" rx="11" ry="11" style="stroke:#A80036;stroke-width:1.0;"/><path d="M315.3594,18.3438 L314.2031,23.4219 L316.5313,23.4219 L315.3594,18.3438 Z M313.875,16.1094 L316.8594,16.1094 L320.2188,28.5 L317.7656,28.5 L317,25.4375 L313.7188,25.4375 L312.9688,28.5 L310.5313,28.5 L313.875,16.1094 Z " fill="#000000"/><text fill="#000000" font-family="sans-serif" font-size="12" font-style="italic" lengthAdjust="spacing" textLength="72" x="335.75" y="27.1543">Component</text><line style="stroke:#A80036;stroke-width:1.5;" x1="191" x2="520" y1="39" y2="39"/><ellipse cx="201" cy="50" rx="3" ry="3" style="stroke:#038048;stroke-width:1.0;fill:none;"/><text fill="#000000" font-family="sans-serif" font-size="11" lengthAdjust="spacing" textLength="163" x="210" y="53.2104">[ComponentHandle] : Handle</text><line style="stroke:#A80036;stroke-width:1.5;" x1="191" x2="520" y1="59.8047" y2="59.8047"/><ellipse cx="201" cy="70.8047" fill="#84BE84" rx="3" ry="3" style="stroke:#038048;stroke-width:1.0;"/><text fill="#000000" font-family="sans-serif" font-size="11" font-style="italic" lengthAdjust="spacing" textLength="305" x="210" y="74.0151">[ComponentRender](out: any) : void | Promise&lt;void&gt;</text><ellipse cx="201" cy="83.6094" fill="#84BE84" rx="3" ry="3" style="stroke:#038048;stroke-width:1.0;"/><text fill="#000000" font-family="sans-serif" font-size="11" lengthAdjust="spacing" textLength="221" x="210" y="86.8198">[ComponentUpdate]() : Promise&lt;void&gt;</text><ellipse cx="201" cy="96.4141" fill="#84BE84" rx="3" ry="3" style="stroke:#038048;stroke-width:1.0;"/><text fill="#000000" font-family="sans-serif" font-size="11" lengthAdjust="spacing" textLength="248" x="210" y="99.6245">[ComponentVerify]() : void | Promise&lt;void&gt;</text><!--MD5=[946cf32c4909f60ec87eb8fd56ac8dfa]
class FileSystemComponent--><rect codeLine="10" fill="#FEFECE" filter="url(#fi2l7urmauawm)" height="124.8281" id="FileSystemComponent" style="stroke:#A80036;stroke-width:1.5;" width="331" x="7" y="166"/><ellipse cx="99.25" cy="182" fill="#A9DCDF" rx="11" ry="11" style="stroke:#A80036;stroke-width:1.0;"/><path d="M99.3594,177.3438 L98.2031,182.4219 L100.5313,182.4219 L99.3594,177.3438 Z M97.875,175.1094 L100.8594,175.1094 L104.2188,187.5 L101.7656,187.5 L101,184.4375 L97.7188,184.4375 L96.9688,187.5 L94.5313,187.5 L97.875,175.1094 Z " fill="#000000"/><text fill="#000000" font-family="sans-serif" font-size="12" font-style="italic" lengthAdjust="spacing" textLength="138" x="119.75" y="186.1543">FileSystemComponent</text><line style="stroke:#A80036;stroke-width:1.5;" x1="8" x2="337" y1="198" y2="198"/><ellipse cx="18" cy="209" rx="3" ry="3" style="stroke:#038048;stroke-width:1.0;fill:none;"/><text fill="#000000" font-family="sans-serif" font-size="11" lengthAdjust="spacing" textLength="95" x="27" y="212.2104">directory : string</text><ellipse cx="18" cy="221.8047" rx="3" ry="3" style="stroke:#038048;stroke-width:1.0;fill:none;"/><text fill="#000000" font-family="sans-serif" font-size="11" lengthAdjust="spacing" textLength="77" x="27" y="225.0151">name : string</text><ellipse cx="18" cy="234.6094" rx="3" ry="3" style="stroke:#038048;stroke-width:1.0;fill:none;"/><text fill="#000000" font-family="sans-serif" font-size="11" lengthAdjust="spacing" textLength="163" x="27" y="237.8198">[ComponentHandle] : Handle</text><line style="stroke:#A80036;stroke-width:1.5;" x1="8" x2="337" y1="244.4141" y2="244.4141"/><ellipse cx="18" cy="255.4141" fill="#84BE84" rx="3" ry="3" style="stroke:#038048;stroke-width:1.0;"/><text fill="#000000" font-family="sans-serif" font-size="11" font-style="italic" lengthAdjust="spacing" textLength="305" x="27" y="258.6245">[ComponentRender](out: any) : void | Promise&lt;void&gt;</text><ellipse cx="18" cy="268.2188" fill="#84BE84" rx="3" ry="3" style="stroke:#038048;stroke-width:1.0;"/><text fill="#000000" font-family="sans-serif" font-size="11" lengthAdjust="spacing" textLength="221" x="27" y="271.4292">[ComponentUpdate]() : Promise&lt;void&gt;</text><ellipse cx="18" cy="281.0234" fill="#84BE84" rx="3" ry="3" style="stroke:#038048;stroke-width:1.0;"/><text fill="#000000" font-family="sans-serif" font-size="11" lengthAdjust="spacing" textLength="248" x="27" y="284.2339">[ComponentVerify]() : void | Promise&lt;void&gt;</text><!--MD5=[bc00f38760f5c998ab68abb0e19452fc]
class CloudComponent--><rect codeLine="19" fill="#FEFECE" filter="url(#fi2l7urmauawm)" height="99.2188" id="CloudComponent" style="stroke:#A80036;stroke-width:1.5;" width="331" x="373" y="179"/><ellipse cx="480.75" cy="195" fill="#A9DCDF" rx="11" ry="11" style="stroke:#A80036;stroke-width:1.0;"/><path d="M480.8594,190.3438 L479.7031,195.4219 L482.0313,195.4219 L480.8594,190.3438 Z M479.375,188.1094 L482.3594,188.1094 L485.7188,200.5 L483.2656,200.5 L482.5,197.4375 L479.2188,197.4375 L478.4688,200.5 L476.0313,200.5 L479.375,188.1094 Z " fill="#000000"/><text fill="#000000" font-family="sans-serif" font-size="12" font-style="italic" lengthAdjust="spacing" textLength="107" x="501.25" y="199.1543">CloudComponent</text><line style="stroke:#A80036;stroke-width:1.5;" x1="374" x2="703" y1="211" y2="211"/><ellipse cx="384" cy="222" rx="3" ry="3" style="stroke:#038048;stroke-width:1.0;fill:none;"/><text fill="#000000" font-family="sans-serif" font-size="11" lengthAdjust="spacing" textLength="163" x="393" y="225.2104">[ComponentHandle] : Handle</text><line style="stroke:#A80036;stroke-width:1.5;" x1="374" x2="703" y1="231.8047" y2="231.8047"/><ellipse cx="384" cy="242.8047" fill="#84BE84" rx="3" ry="3" style="stroke:#038048;stroke-width:1.0;"/><text fill="#000000" font-family="sans-serif" font-size="11" font-style="italic" lengthAdjust="spacing" textLength="305" x="393" y="246.0151">[ComponentRender](out: any) : void | Promise&lt;void&gt;</text><ellipse cx="384" cy="255.6094" fill="#84BE84" rx="3" ry="3" style="stroke:#038048;stroke-width:1.0;"/><text fill="#000000" font-family="sans-serif" font-size="11" lengthAdjust="spacing" textLength="221" x="393" y="258.8198">[ComponentUpdate]() : Promise&lt;void&gt;</text><ellipse cx="384" cy="268.4141" fill="#84BE84" rx="3" ry="3" style="stroke:#038048;stroke-width:1.0;"/><text fill="#000000" font-family="sans-serif" font-size="11" lengthAdjust="spacing" textLength="248" x="393" y="271.6245">[ComponentVerify]() : void | Promise&lt;void&gt;</text><!--MD5=[d9a29ed4a00d52d05f54626eeca35afc]
reverse link Component to FileSystemComponent--><path codeLine="18" d="M288.09,120.12 C272.06,135.01 254.97,150.88 238.99,165.73 " fill="none" id="Component-backto-FileSystemComponent" style="stroke:#A80036;stroke-width:1.0;"/><polygon fill="none" points="283.64,114.7,303.06,106.22,293.17,124.96,283.64,114.7" style="stroke:#A80036;stroke-width:1.0;"/><!--MD5=[a5058f62afae2244539c1a5e64c2d230]
reverse link Component to CloudComponent--><path codeLine="25" d="M422.76,119.98 C443.64,139.38 466.33,160.46 486.05,178.78 " fill="none" id="Component-backto-CloudComponent" style="stroke:#A80036;stroke-width:1.0;"/><polygon fill="none" points="417.83,124.96,407.94,106.22,427.36,114.7,417.83,124.96" style="stroke:#A80036;stroke-width:1.0;"/><!--MD5=[f08d829d433b5406d7ff65f6a98d1bde]
@startuml
skinparam BackgroundColor transparent
hide empty methods
hide empty fields
abstract class "Component" {
    +[ComponentHandle] : Handle
    {abstract} +[ComponentRender](out: any) : void | Promise<void>
    +[ComponentUpdate]() : Promise<void>
    +[ComponentVerify]() : void | Promise<void>
}
abstract class "FileSystemComponent" {
    +directory : string
    +name : string
    +[ComponentHandle] : Handle
    {abstract} +[ComponentRender](out: any) : void | Promise<void>
    +[ComponentUpdate]() : Promise<void>
    +[ComponentVerify]() : void | Promise<void>
}
"Component" <|- - "FileSystemComponent"
abstract class "CloudComponent" {
    +[ComponentHandle] : Handle
    {abstract} +[ComponentRender](out: any) : void | Promise<void>
    +[ComponentUpdate]() : Promise<void>
    +[ComponentVerify]() : void | Promise<void>
}
"Component" <|- - "CloudComponent"
@enduml

PlantUML version 1.2021.14(Fri Nov 12 16:46:50 UTC 2021)
(GPL source distribution)
Java Runtime: OpenJDK Runtime Environment
JVM: OpenJDK 64-Bit Server VM
Default Encoding: UTF-8
Language: en
Country: null
--></g></svg>