<?xml version="1.0" encoding="UTF-8" standalone="no"?><svg xmlns="http://www.w3.org/2000/svg" xmlns:xlink="http://www.w3.org/1999/xlink" contentScriptType="application/ecmascript" contentStyleType="text/css" height="212px" preserveAspectRatio="none" style="width:352px;height:212px;background:#00000000;" version="1.1" viewBox="0 0 352 212" width="352px" zoomAndPan="magnify"><defs><filter height="300%" id="f1b5roop1l5hhc" width="300%" x="-1" y="-1"><feGaussianBlur result="blurOut" stdDeviation="2.0"/><feColorMatrix in="blurOut" result="blurOut2" type="matrix" values="0 0 0 0 0 0 0 0 0 0 0 0 0 0 0 0 0 0 .4 0"/><feOffset dx="4.0" dy="4.0" in="blurOut2" result="blurOut3"/><feBlend in="SourceGraphic" in2="blurOut3" mode="normal"/></filter></defs><g><!--MD5=[4e13963c9dc916a21a8436ef39422b32]
class Component--><rect codeLine="4" fill="#FEFECE" filter="url(#f1b5roop1l5hhc)" height="99.2188" id="Component" style="stroke:#A80036;stroke-width:1.5;" width="331" x="7" y="7"/><ellipse cx="132.25" cy="23" fill="#A9DCDF" rx="11" ry="11" style="stroke:#A80036;stroke-width:1.0;"/><path d="M132.3594,18.3438 L131.2031,23.4219 L133.5313,23.4219 L132.3594,18.3438 Z M130.875,16.1094 L133.8594,16.1094 L137.2188,28.5 L134.7656,28.5 L134,25.4375 L130.7188,25.4375 L129.9688,28.5 L127.5313,28.5 L130.875,16.1094 Z " fill="#000000"/><text fill="#000000" font-family="sans-serif" font-size="12" font-style="italic" lengthAdjust="spacing" textLength="72" x="152.75" y="27.1543">Component</text><line style="stroke:#A80036;stroke-width:1.5;" x1="8" x2="337" y1="39" y2="39"/><ellipse cx="18" cy="50" rx="3" ry="3" style="stroke:#038048;stroke-width:1.0;fill:none;"/><text fill="#000000" font-family="sans-serif" font-size="11" lengthAdjust="spacing" textLength="163" x="27" y="53.2104">[ComponentHandle] : Handle</text><line style="stroke:#A80036;stroke-width:1.5;" x1="8" x2="337" y1="59.8047" y2="59.8047"/><ellipse cx="18" cy="70.8047" fill="#84BE84" rx="3" ry="3" style="stroke:#038048;stroke-width:1.0;"/><text fill="#000000" font-family="sans-serif" font-size="11" font-style="italic" lengthAdjust="spacing" textLength="305" x="27" y="74.0151">[ComponentRender](out: any) : void | Promise&lt;void&gt;</text><ellipse cx="18" cy="83.6094" fill="#84BE84" rx="3" ry="3" style="stroke:#038048;stroke-width:1.0;"/><text fill="#000000" font-family="sans-serif" font-size="11" lengthAdjust="spacing" textLength="221" x="27" y="86.8198">[ComponentUpdate]() : Promise&lt;void&gt;</text><ellipse cx="18" cy="96.4141" fill="#84BE84" rx="3" ry="3" style="stroke:#038048;stroke-width:1.0;"/><text fill="#000000" font-family="sans-serif" font-size="11" lengthAdjust="spacing" textLength="248" x="27" y="99.6245">[ComponentVerify]() : void | Promise&lt;void&gt;</text><!--MD5=[2a461eb4260764374d34fdd0fc1cbd0f]
class LocalComponent--><rect codeLine="10" fill="#FEFECE" filter="url(#f1b5roop1l5hhc)" height="32" id="LocalComponent" style="stroke:#A80036;stroke-width:1.5;" width="137" x="18" y="166"/><ellipse cx="33" cy="182" fill="#A9DCDF" rx="11" ry="11" style="stroke:#A80036;stroke-width:1.0;"/><path d="M33.1094,177.3438 L31.9531,182.4219 L34.2813,182.4219 L33.1094,177.3438 Z M31.625,175.1094 L34.6094,175.1094 L37.9688,187.5 L35.5156,187.5 L34.75,184.4375 L31.4688,184.4375 L30.7188,187.5 L28.2813,187.5 L31.625,175.1094 Z " fill="#000000"/><text fill="#000000" font-family="sans-serif" font-size="12" font-style="italic" lengthAdjust="spacing" textLength="105" x="47" y="186.1543">LocalComponent</text><!--MD5=[bc00f38760f5c998ab68abb0e19452fc]
class CloudComponent--><rect codeLine="13" fill="#FEFECE" filter="url(#f1b5roop1l5hhc)" height="32" id="CloudComponent" style="stroke:#A80036;stroke-width:1.5;" width="139" x="190" y="166"/><ellipse cx="205" cy="182" fill="#A9DCDF" rx="11" ry="11" style="stroke:#A80036;stroke-width:1.0;"/><path d="M205.1094,177.3438 L203.9531,182.4219 L206.2813,182.4219 L205.1094,177.3438 Z M203.625,175.1094 L206.6094,175.1094 L209.9688,187.5 L207.5156,187.5 L206.75,184.4375 L203.4688,184.4375 L202.7188,187.5 L200.2813,187.5 L203.625,175.1094 Z " fill="#000000"/><text fill="#000000" font-family="sans-serif" font-size="12" font-style="italic" lengthAdjust="spacing" textLength="107" x="219" y="186.1543">CloudComponent</text><!--MD5=[335750beae628780592b0a2069cdb252]
reverse link Component to LocalComponent--><path codeLine="12" d="M127.04,122.78 C115.77,138.97 104.72,154.84 97.01,165.91 " fill="none" id="Component-backto-LocalComponent" style="stroke:#A80036;stroke-width:1.0;"/><polygon fill="none" points="121.34,118.72,138.51,106.31,132.83,126.72,121.34,118.72" style="stroke:#A80036;stroke-width:1.0;"/><!--MD5=[a5058f62afae2244539c1a5e64c2d230]
reverse link Component to CloudComponent--><path codeLine="15" d="M218.49,122.78 C229.89,138.97 241.07,154.84 248.87,165.91 " fill="none" id="Component-backto-CloudComponent" style="stroke:#A80036;stroke-width:1.0;"/><polygon fill="none" points="212.68,126.69,206.88,106.31,224.13,118.63,212.68,126.69" style="stroke:#A80036;stroke-width:1.0;"/><!--MD5=[983be31741794f978f4b7d547a5966bb]
@startuml
skinparam BackgroundColor transparent
hide empty methods
hide empty fields
abstract class "Component" {
    +[ComponentHandle] : Handle
    {abstract} +[ComponentRender](out: any) : void | Promise<void>
    +[ComponentUpdate]() : Promise<void>
    +[ComponentVerify]() : void | Promise<void>
}
abstract class "LocalComponent" {
}
"Component" <|- - "LocalComponent"
abstract class "CloudComponent" {
}
"Component" <|- - "CloudComponent"
@enduml

PlantUML version 1.2021.14(Fri Nov 12 16:46:50 UTC 2021)
(GPL source distribution)
Java Runtime: OpenJDK Runtime Environment
JVM: OpenJDK 64-Bit Server VM
Default Encoding: UTF-8
Language: en
Country: null
--></g></svg>