<?xml version="1.0" encoding="UTF-8" standalone="no"?><svg xmlns="http://www.w3.org/2000/svg" xmlns:xlink="http://www.w3.org/1999/xlink" contentScriptType="application/ecmascript" contentStyleType="text/css" height="304px" preserveAspectRatio="none" style="width:718px;height:304px;background:#00000000;" version="1.1" viewBox="0 0 718 304" width="718px" zoomAndPan="magnify"><defs><filter height="300%" id="f8l2bagse6na8" width="300%" x="-1" y="-1"><feGaussianBlur result="blurOut" stdDeviation="2.0"/><feColorMatrix in="blurOut" result="blurOut2" type="matrix" values="0 0 0 0 0 0 0 0 0 0 0 0 0 0 0 0 0 0 .4 0"/><feOffset dx="4.0" dy="4.0" in="blurOut2" result="blurOut3"/><feBlend in="SourceGraphic" in2="blurOut3" mode="normal"/></filter></defs><g><!--MD5=[4e13963c9dc916a21a8436ef39422b32]
class Component--><rect codeLine="4" fill="#FEFECE" filter="url(#f8l2bagse6na8)" height="99.2188" id="Component" style="stroke:#A80036;stroke-width:1.5;" width="331" x="190" y="7"/><ellipse cx="315.25" cy="23" fill="#A9DCDF" rx="11" ry="11" style="stroke:#A80036;stroke-width:1.0;"/><path d="M315.3594,18.3438 L314.2031,23.4219 L316.5313,23.4219 L315.3594,18.3438 Z M313.875,16.1094 L316.8594,16.1094 L320.2188,28.5 L317.7656,28.5 L317,25.4375 L313.7188,25.4375 L312.9688,28.5 L310.5313,28.5 L313.875,16.1094 Z " fill="#000000"/><text fill="#000000" font-family="sans-serif" font-size="12" font-style="italic" lengthAdjust="spacing" textLength="72" x="335.75" y="27.1543">Component</text><line style="stroke:#A80036;stroke-width:1.5;" x1="191" x2="520" y1="39" y2="39"/><ellipse cx="201" cy="50" rx="3" ry="3" style="stroke:#038048;stroke-width:1.0;fill:none;"/><text fill="#000000" font-family="sans-serif" font-size="11" lengthAdjust="spacing" textLength="163" x="210" y="53.2104">[ComponentHandle] : Handle</text><line style="stroke:#A80036;stroke-width:1.5;" x1="191" x2="520" y1="59.8047" y2="59.8047"/><ellipse cx="201" cy="70.8047" fill="#84BE84" rx="3" ry="3" style="stroke:#038048;stroke-width:1.0;"/><text fill="#000000" font-family="sans-serif" font-size="11" font-style="italic" lengthAdjust="spacing" textLength="305" x="210" y="74.0151">[ComponentRender](out: any) : void | Promise&lt;void&gt;</text><ellipse cx="201" cy="83.6094" fill="#84BE84" rx="3" ry="3" style="stroke:#038048;stroke-width:1.0;"/><text fill="#000000" font-family="sans-serif" font-size="11" lengthAdjust="spacing" textLength="221" x="210" y="86.8198">[ComponentUpdate]() : Promise&lt;void&gt;</text><ellipse cx="201" cy="96.4141" fill="#84BE84" rx="3" ry="3" style="stroke:#038048;stroke-width:1.0;"/><text fill="#000000" font-family="sans-serif" font-size="11" lengthAdjust="spacing" textLength="248" x="210" y="99.6245">[ComponentVerify]() : void | Promise&lt;void&gt;</text><!--MD5=[41d4fac774e0e723492089dc4b99a6f3]
class Resolvable--><rect codeLine="10" fill="#FEFECE" filter="url(#f8l2bagse6na8)" height="99.2188" id="Resolvable" style="stroke:#A80036;stroke-width:1.5;" width="331" x="7" y="179"/><ellipse cx="135.25" cy="195" fill="#A9DCDF" rx="11" ry="11" style="stroke:#A80036;stroke-width:1.0;"/><path d="M135.3594,190.3438 L134.2031,195.4219 L136.5313,195.4219 L135.3594,190.3438 Z M133.875,188.1094 L136.8594,188.1094 L140.2188,200.5 L137.7656,200.5 L137,197.4375 L133.7188,197.4375 L132.9688,200.5 L130.5313,200.5 L133.875,188.1094 Z " fill="#000000"/><text fill="#000000" font-family="sans-serif" font-size="12" font-style="italic" lengthAdjust="spacing" textLength="66" x="155.75" y="199.1543">Resolvable</text><line style="stroke:#A80036;stroke-width:1.5;" x1="8" x2="337" y1="211" y2="211"/><ellipse cx="18" cy="222" rx="3" ry="3" style="stroke:#038048;stroke-width:1.0;fill:none;"/><text fill="#000000" font-family="sans-serif" font-size="11" lengthAdjust="spacing" textLength="163" x="27" y="225.2104">[ComponentHandle] : Handle</text><line style="stroke:#A80036;stroke-width:1.5;" x1="8" x2="337" y1="231.8047" y2="231.8047"/><ellipse cx="18" cy="242.8047" fill="#84BE84" rx="3" ry="3" style="stroke:#038048;stroke-width:1.0;"/><text fill="#000000" font-family="sans-serif" font-size="11" font-style="italic" lengthAdjust="spacing" textLength="305" x="27" y="246.0151">[ComponentRender](out: any) : void | Promise&lt;void&gt;</text><ellipse cx="18" cy="255.6094" fill="#84BE84" rx="3" ry="3" style="stroke:#038048;stroke-width:1.0;"/><text fill="#000000" font-family="sans-serif" font-size="11" lengthAdjust="spacing" textLength="221" x="27" y="258.8198">[ComponentUpdate]() : Promise&lt;void&gt;</text><ellipse cx="18" cy="268.4141" fill="#84BE84" rx="3" ry="3" style="stroke:#038048;stroke-width:1.0;"/><text fill="#000000" font-family="sans-serif" font-size="11" lengthAdjust="spacing" textLength="248" x="27" y="271.6245">[ComponentVerify]() : void | Promise&lt;void&gt;</text><!--MD5=[946cf32c4909f60ec87eb8fd56ac8dfa]
class FileSystemComponent--><rect codeLine="17" fill="#FEFECE" filter="url(#f8l2bagse6na8)" height="124.8281" id="FileSystemComponent" style="stroke:#A80036;stroke-width:1.5;" width="331" x="373" y="166"/><ellipse cx="465.25" cy="182" fill="#A9DCDF" rx="11" ry="11" style="stroke:#A80036;stroke-width:1.0;"/><path d="M465.3594,177.3438 L464.2031,182.4219 L466.5313,182.4219 L465.3594,177.3438 Z M463.875,175.1094 L466.8594,175.1094 L470.2188,187.5 L467.7656,187.5 L467,184.4375 L463.7188,184.4375 L462.9688,187.5 L460.5313,187.5 L463.875,175.1094 Z " fill="#000000"/><text fill="#000000" font-family="sans-serif" font-size="12" font-style="italic" lengthAdjust="spacing" textLength="138" x="485.75" y="186.1543">FileSystemComponent</text><line style="stroke:#A80036;stroke-width:1.5;" x1="374" x2="703" y1="198" y2="198"/><ellipse cx="384" cy="209" rx="3" ry="3" style="stroke:#038048;stroke-width:1.0;fill:none;"/><text fill="#000000" font-family="sans-serif" font-size="11" lengthAdjust="spacing" textLength="95" x="393" y="212.2104">directory : string</text><ellipse cx="384" cy="221.8047" rx="3" ry="3" style="stroke:#038048;stroke-width:1.0;fill:none;"/><text fill="#000000" font-family="sans-serif" font-size="11" lengthAdjust="spacing" textLength="77" x="393" y="225.0151">name : string</text><ellipse cx="384" cy="234.6094" rx="3" ry="3" style="stroke:#038048;stroke-width:1.0;fill:none;"/><text fill="#000000" font-family="sans-serif" font-size="11" lengthAdjust="spacing" textLength="163" x="393" y="237.8198">[ComponentHandle] : Handle</text><line style="stroke:#A80036;stroke-width:1.5;" x1="374" x2="703" y1="244.4141" y2="244.4141"/><ellipse cx="384" cy="255.4141" fill="#84BE84" rx="3" ry="3" style="stroke:#038048;stroke-width:1.0;"/><text fill="#000000" font-family="sans-serif" font-size="11" font-style="italic" lengthAdjust="spacing" textLength="305" x="393" y="258.6245">[ComponentRender](out: any) : void | Promise&lt;void&gt;</text><ellipse cx="384" cy="268.2188" fill="#84BE84" rx="3" ry="3" style="stroke:#038048;stroke-width:1.0;"/><text fill="#000000" font-family="sans-serif" font-size="11" lengthAdjust="spacing" textLength="221" x="393" y="271.4292">[ComponentUpdate]() : Promise&lt;void&gt;</text><ellipse cx="384" cy="281.0234" fill="#84BE84" rx="3" ry="3" style="stroke:#038048;stroke-width:1.0;"/><text fill="#000000" font-family="sans-serif" font-size="11" lengthAdjust="spacing" textLength="248" x="393" y="284.2339">[ComponentVerify]() : void | Promise&lt;void&gt;</text><!--MD5=[43e3e291d07608bc79def5292a0cb654]
reverse link Component to Resolvable--><path codeLine="16" d="M288.24,119.98 C267.36,139.38 244.67,160.46 224.95,178.78 " fill="none" id="Component-backto-Resolvable" style="stroke:#A80036;stroke-width:1.0;"/><polygon fill="none" points="283.64,114.7,303.06,106.22,293.17,124.96,283.64,114.7" style="stroke:#A80036;stroke-width:1.0;"/><!--MD5=[d9a29ed4a00d52d05f54626eeca35afc]
reverse link Component to FileSystemComponent--><path codeLine="25" d="M422.91,120.12 C438.94,135.01 456.03,150.88 472.01,165.73 " fill="none" id="Component-backto-FileSystemComponent" style="stroke:#A80036;stroke-width:1.0;"/><polygon fill="none" points="417.83,124.96,407.94,106.22,427.36,114.7,417.83,124.96" style="stroke:#A80036;stroke-width:1.0;"/><!--MD5=[ab1d8f0e275cff7eaf9732af50f71e51]
@startuml
skinparam BackgroundColor transparent
hide empty methods
hide empty fields
abstract class "Component" {
    +[ComponentHandle] : Handle
    {abstract} +[ComponentRender](out: any) : void | Promise<void>
    +[ComponentUpdate]() : Promise<void>
    +[ComponentVerify]() : void | Promise<void>
}
abstract class "Resolvable" {
    +[ComponentHandle] : Handle
    {abstract} +[ComponentRender](out: any) : void | Promise<void>
    +[ComponentUpdate]() : Promise<void>
    +[ComponentVerify]() : void | Promise<void>
}
"Component" <|- - "Resolvable"
abstract class "FileSystemComponent" {
    +directory : string
    +name : string
    +[ComponentHandle] : Handle
    {abstract} +[ComponentRender](out: any) : void | Promise<void>
    +[ComponentUpdate]() : Promise<void>
    +[ComponentVerify]() : void | Promise<void>
}
"Component" <|- - "FileSystemComponent"
@enduml

PlantUML version 1.2021.14(Fri Nov 12 16:46:50 UTC 2021)
(GPL source distribution)
Java Runtime: OpenJDK Runtime Environment
JVM: OpenJDK 64-Bit Server VM
Default Encoding: UTF-8
Language: en
Country: null
--></g></svg>