<?xml version="1.0" encoding="UTF-8" standalone="no"?><svg xmlns="http://www.w3.org/2000/svg" xmlns:xlink="http://www.w3.org/1999/xlink" contentScriptType="application/ecmascript" contentStyleType="text/css" height="279px" preserveAspectRatio="none" style="width:718px;height:279px;background:#00000000;" version="1.1" viewBox="0 0 718 279" width="718px" zoomAndPan="magnify"><defs><filter height="300%" id="f16qh4mlkxo14w" width="300%" x="-1" y="-1"><feGaussianBlur result="blurOut" stdDeviation="2.0"/><feColorMatrix in="blurOut" result="blurOut2" type="matrix" values="0 0 0 0 0 0 0 0 0 0 0 0 0 0 0 0 0 0 .4 0"/><feOffset dx="4.0" dy="4.0" in="blurOut2" result="blurOut3"/><feBlend in="SourceGraphic" in2="blurOut3" mode="normal"/></filter></defs><g><!--MD5=[4e13963c9dc916a21a8436ef39422b32]
class Component--><rect codeLine="4" fill="#FEFECE" filter="url(#f16qh4mlkxo14w)" height="99.2188" id="Component" style="stroke:#A80036;stroke-width:1.5;" width="331" x="190" y="7"/><ellipse cx="315.25" cy="23" fill="#A9DCDF" rx="11" ry="11" style="stroke:#A80036;stroke-width:1.0;"/><path d="M315.3594,18.3438 L314.2031,23.4219 L316.5313,23.4219 L315.3594,18.3438 Z M313.875,16.1094 L316.8594,16.1094 L320.2188,28.5 L317.7656,28.5 L317,25.4375 L313.7188,25.4375 L312.9688,28.5 L310.5313,28.5 L313.875,16.1094 Z " fill="#000000"/><text fill="#000000" font-family="sans-serif" font-size="12" font-style="italic" lengthAdjust="spacing" textLength="72" x="335.75" y="27.1543">Component</text><line style="stroke:#A80036;stroke-width:1.5;" x1="191" x2="520" y1="39" y2="39"/><ellipse cx="201" cy="50" rx="3" ry="3" style="stroke:#038048;stroke-width:1.0;fill:none;"/><text fill="#000000" font-family="sans-serif" font-size="11" lengthAdjust="spacing" textLength="163" x="210" y="53.2104">[ComponentHandle] : Handle</text><line style="stroke:#A80036;stroke-width:1.5;" x1="191" x2="520" y1="59.8047" y2="59.8047"/><ellipse cx="201" cy="70.8047" fill="#84BE84" rx="3" ry="3" style="stroke:#038048;stroke-width:1.0;"/><text fill="#000000" font-family="sans-serif" font-size="11" font-style="italic" lengthAdjust="spacing" textLength="305" x="210" y="74.0151">[ComponentRender](out: any) : void | Promise&lt;void&gt;</text><ellipse cx="201" cy="83.6094" fill="#84BE84" rx="3" ry="3" style="stroke:#038048;stroke-width:1.0;"/><text fill="#000000" font-family="sans-serif" font-size="11" lengthAdjust="spacing" textLength="221" x="210" y="86.8198">[ComponentUpdate]() : Promise&lt;void&gt;</text><ellipse cx="201" cy="96.4141" fill="#84BE84" rx="3" ry="3" style="stroke:#038048;stroke-width:1.0;"/><text fill="#000000" font-family="sans-serif" font-size="11" lengthAdjust="spacing" textLength="248" x="210" y="99.6245">[ComponentVerify]() : void | Promise&lt;void&gt;</text><!--MD5=[2a461eb4260764374d34fdd0fc1cbd0f]
class LocalComponent--><rect codeLine="10" fill="#FEFECE" filter="url(#f16qh4mlkxo14w)" height="99.2188" id="LocalComponent" style="stroke:#A80036;stroke-width:1.5;" width="331" x="7" y="166"/><ellipse cx="115.75" cy="182" fill="#A9DCDF" rx="11" ry="11" style="stroke:#A80036;stroke-width:1.0;"/><path d="M115.8594,177.3438 L114.7031,182.4219 L117.0313,182.4219 L115.8594,177.3438 Z M114.375,175.1094 L117.3594,175.1094 L120.7188,187.5 L118.2656,187.5 L117.5,184.4375 L114.2188,184.4375 L113.4688,187.5 L111.0313,187.5 L114.375,175.1094 Z " fill="#000000"/><text fill="#000000" font-family="sans-serif" font-size="12" font-style="italic" lengthAdjust="spacing" textLength="105" x="136.25" y="186.1543">LocalComponent</text><line style="stroke:#A80036;stroke-width:1.5;" x1="8" x2="337" y1="198" y2="198"/><ellipse cx="18" cy="209" rx="3" ry="3" style="stroke:#038048;stroke-width:1.0;fill:none;"/><text fill="#000000" font-family="sans-serif" font-size="11" lengthAdjust="spacing" textLength="163" x="27" y="212.2104">[ComponentHandle] : Handle</text><line style="stroke:#A80036;stroke-width:1.5;" x1="8" x2="337" y1="218.8047" y2="218.8047"/><ellipse cx="18" cy="229.8047" fill="#84BE84" rx="3" ry="3" style="stroke:#038048;stroke-width:1.0;"/><text fill="#000000" font-family="sans-serif" font-size="11" font-style="italic" lengthAdjust="spacing" textLength="305" x="27" y="233.0151">[ComponentRender](out: any) : void | Promise&lt;void&gt;</text><ellipse cx="18" cy="242.6094" fill="#84BE84" rx="3" ry="3" style="stroke:#038048;stroke-width:1.0;"/><text fill="#000000" font-family="sans-serif" font-size="11" lengthAdjust="spacing" textLength="221" x="27" y="245.8198">[ComponentUpdate]() : Promise&lt;void&gt;</text><ellipse cx="18" cy="255.4141" fill="#84BE84" rx="3" ry="3" style="stroke:#038048;stroke-width:1.0;"/><text fill="#000000" font-family="sans-serif" font-size="11" lengthAdjust="spacing" textLength="248" x="27" y="258.6245">[ComponentVerify]() : void | Promise&lt;void&gt;</text><!--MD5=[bc00f38760f5c998ab68abb0e19452fc]
class CloudComponent--><rect codeLine="17" fill="#FEFECE" filter="url(#f16qh4mlkxo14w)" height="99.2188" id="CloudComponent" style="stroke:#A80036;stroke-width:1.5;" width="331" x="373" y="166"/><ellipse cx="480.75" cy="182" fill="#A9DCDF" rx="11" ry="11" style="stroke:#A80036;stroke-width:1.0;"/><path d="M480.8594,177.3438 L479.7031,182.4219 L482.0313,182.4219 L480.8594,177.3438 Z M479.375,175.1094 L482.3594,175.1094 L485.7188,187.5 L483.2656,187.5 L482.5,184.4375 L479.2188,184.4375 L478.4688,187.5 L476.0313,187.5 L479.375,175.1094 Z " fill="#000000"/><text fill="#000000" font-family="sans-serif" font-size="12" font-style="italic" lengthAdjust="spacing" textLength="107" x="501.25" y="186.1543">CloudComponent</text><line style="stroke:#A80036;stroke-width:1.5;" x1="374" x2="703" y1="198" y2="198"/><ellipse cx="384" cy="209" rx="3" ry="3" style="stroke:#038048;stroke-width:1.0;fill:none;"/><text fill="#000000" font-family="sans-serif" font-size="11" lengthAdjust="spacing" textLength="163" x="393" y="212.2104">[ComponentHandle] : Handle</text><line style="stroke:#A80036;stroke-width:1.5;" x1="374" x2="703" y1="218.8047" y2="218.8047"/><ellipse cx="384" cy="229.8047" fill="#84BE84" rx="3" ry="3" style="stroke:#038048;stroke-width:1.0;"/><text fill="#000000" font-family="sans-serif" font-size="11" font-style="italic" lengthAdjust="spacing" textLength="305" x="393" y="233.0151">[ComponentRender](out: any) : void | Promise&lt;void&gt;</text><ellipse cx="384" cy="242.6094" fill="#84BE84" rx="3" ry="3" style="stroke:#038048;stroke-width:1.0;"/><text fill="#000000" font-family="sans-serif" font-size="11" lengthAdjust="spacing" textLength="221" x="393" y="245.8198">[ComponentUpdate]() : Promise&lt;void&gt;</text><ellipse cx="384" cy="255.4141" fill="#84BE84" rx="3" ry="3" style="stroke:#038048;stroke-width:1.0;"/><text fill="#000000" font-family="sans-serif" font-size="11" lengthAdjust="spacing" textLength="248" x="393" y="258.6245">[ComponentVerify]() : void | Promise&lt;void&gt;</text><!--MD5=[335750beae628780592b0a2069cdb252]
reverse link Component to LocalComponent--><path codeLine="16" d="M283.41,119.35 C265.35,134.84 246.23,151.24 229.05,165.98 " fill="none" id="Component-backto-LocalComponent" style="stroke:#A80036;stroke-width:1.0;"/><polygon fill="none" points="278.86,114.03,298.6,106.32,287.98,124.65,278.86,114.03" style="stroke:#A80036;stroke-width:1.0;"/><!--MD5=[a5058f62afae2244539c1a5e64c2d230]
reverse link Component to CloudComponent--><path codeLine="23" d="M427.59,119.35 C445.65,134.84 464.77,151.24 481.95,165.98 " fill="none" id="Component-backto-CloudComponent" style="stroke:#A80036;stroke-width:1.0;"/><polygon fill="none" points="423.02,124.65,412.4,106.32,432.14,114.03,423.02,124.65" style="stroke:#A80036;stroke-width:1.0;"/><!--MD5=[729736a17beaa320feb5c011c5dee07e]
@startuml
skinparam BackgroundColor transparent
hide empty methods
hide empty fields
abstract class "Component" {
    +[ComponentHandle] : Handle
    {abstract} +[ComponentRender](out: any) : void | Promise<void>
    +[ComponentUpdate]() : Promise<void>
    +[ComponentVerify]() : void | Promise<void>
}
abstract class "LocalComponent" {
    +[ComponentHandle] : Handle
    {abstract} +[ComponentRender](out: any) : void | Promise<void>
    +[ComponentUpdate]() : Promise<void>
    +[ComponentVerify]() : void | Promise<void>
}
"Component" <|- - "LocalComponent"
abstract class "CloudComponent" {
    +[ComponentHandle] : Handle
    {abstract} +[ComponentRender](out: any) : void | Promise<void>
    +[ComponentUpdate]() : Promise<void>
    +[ComponentVerify]() : void | Promise<void>
}
"Component" <|- - "CloudComponent"
@enduml

PlantUML version 1.2021.14(Fri Nov 12 16:46:50 UTC 2021)
(GPL source distribution)
Java Runtime: OpenJDK Runtime Environment
JVM: OpenJDK 64-Bit Server VM
Default Encoding: UTF-8
Language: en
Country: null
--></g></svg>