<?xml version="1.0" encoding="UTF-8" standalone="no"?><svg xmlns="http://www.w3.org/2000/svg" xmlns:xlink="http://www.w3.org/1999/xlink" contentScriptType="application/ecmascript" contentStyleType="text/css" height="292px" preserveAspectRatio="none" style="width:227px;height:292px;background:#00000000;" version="1.1" viewBox="0 0 227 292" width="227px" zoomAndPan="magnify"><defs><filter height="300%" id="f1fab7bquyeig8" width="300%" x="-1" y="-1"><feGaussianBlur result="blurOut" stdDeviation="2.0"/><feColorMatrix in="blurOut" result="blurOut2" type="matrix" values="0 0 0 0 0 0 0 0 0 0 0 0 0 0 0 0 0 0 .4 0"/><feOffset dx="4.0" dy="4.0" in="blurOut2" result="blurOut3"/><feBlend in="SourceGraphic" in2="blurOut3" mode="normal"/></filter></defs><g><!--MD5=[be996cdb8e6bf2fc7cb89c555f2cd144]
class Entity--><rect codeLine="4" fill="#FEFECE" filter="url(#f1fab7bquyeig8)" height="112.0234" id="Entity" style="stroke:#A80036;stroke-width:1.5;" width="181" x="19.5" y="166"/><ellipse cx="88.25" cy="182" fill="#ADD1B2" rx="11" ry="11" style="stroke:#A80036;stroke-width:1.0;"/><path d="M91.2188,187.6406 Q90.6406,187.9375 90,188.0781 Q89.3594,188.2344 88.6563,188.2344 Q86.1563,188.2344 84.8281,186.5938 Q83.5156,184.9375 83.5156,181.8125 Q83.5156,178.6875 84.8281,177.0313 Q86.1563,175.375 88.6563,175.375 Q89.3594,175.375 90,175.5313 Q90.6563,175.6875 91.2188,175.9844 L91.2188,178.7031 Q90.5938,178.125 90,177.8594 Q89.4063,177.5781 88.7813,177.5781 Q87.4375,177.5781 86.75,178.6563 Q86.0625,179.7188 86.0625,181.8125 Q86.0625,183.9063 86.75,184.9844 Q87.4375,186.0469 88.7813,186.0469 Q89.4063,186.0469 90,185.7813 Q90.5938,185.5 91.2188,184.9219 L91.2188,187.6406 Z " fill="#000000"/><text fill="#000000" font-family="sans-serif" font-size="12" lengthAdjust="spacing" textLength="35" x="108.75" y="186.1543">Entity</text><line style="stroke:#A80036;stroke-width:1.5;" x1="20.5" x2="199.5" y1="198" y2="198"/><ellipse cx="30.5" cy="209" rx="3" ry="3" style="stroke:#038048;stroke-width:1.0;fill:none;"/><text fill="#000000" font-family="sans-serif" font-size="11" lengthAdjust="spacing" textLength="155" x="39.5" y="212.2104">components : Component[]</text><ellipse cx="30.5" cy="221.8047" rx="3" ry="3" style="stroke:#038048;stroke-width:1.0;fill:none;"/><text fill="#000000" font-family="sans-serif" font-size="11" lengthAdjust="spacing" textLength="77" x="39.5" y="225.0151">name : string</text><ellipse cx="30.5" cy="234.6094" rx="3" ry="3" style="stroke:#038048;stroke-width:1.0;fill:none;"/><text fill="#000000" font-family="sans-serif" font-size="11" lengthAdjust="spacing" textLength="97" x="39.5" y="237.8198">system : System</text><line style="stroke:#A80036;stroke-width:1.5;" x1="20.5" x2="199.5" y1="244.4141" y2="244.4141"/><ellipse cx="30.5" cy="255.4141" fill="#84BE84" rx="3" ry="3" style="stroke:#038048;stroke-width:1.0;"/><text fill="#000000" font-family="sans-serif" font-size="11" lengthAdjust="spacing" textLength="81" x="39.5" y="258.6245">render() : void</text><ellipse cx="30.5" cy="268.2188" fill="#84BE84" rx="3" ry="3" style="stroke:#038048;stroke-width:1.0;"/><text fill="#000000" font-family="sans-serif" font-size="11" lengthAdjust="spacing" textLength="147" x="39.5" y="271.4292">update() : Promise&lt;void&gt;</text><!--MD5=[bb7f1c801adcc1c297b2d9190618259c]
class Tree--><rect codeLine="11" fill="#FEFECE" filter="url(#f1fab7bquyeig8)" height="99.2188" id="Tree" style="stroke:#A80036;stroke-width:1.5;" width="206" x="7" y="7"/><ellipse cx="91.75" cy="23" fill="#ADD1B2" rx="11" ry="11" style="stroke:#A80036;stroke-width:1.0;"/><path d="M94.7188,28.6406 Q94.1406,28.9375 93.5,29.0781 Q92.8594,29.2344 92.1563,29.2344 Q89.6563,29.2344 88.3281,27.5938 Q87.0156,25.9375 87.0156,22.8125 Q87.0156,19.6875 88.3281,18.0313 Q89.6563,16.375 92.1563,16.375 Q92.8594,16.375 93.5,16.5313 Q94.1563,16.6875 94.7188,16.9844 L94.7188,19.7031 Q94.0938,19.125 93.5,18.8594 Q92.9063,18.5781 92.2813,18.5781 Q90.9375,18.5781 90.25,19.6563 Q89.5625,20.7188 89.5625,22.8125 Q89.5625,24.9063 90.25,25.9844 Q90.9375,27.0469 92.2813,27.0469 Q92.9063,27.0469 93.5,26.7813 Q94.0938,26.5 94.7188,25.9219 L94.7188,28.6406 Z " fill="#000000"/><text fill="#000000" font-family="sans-serif" font-size="12" lengthAdjust="spacing" textLength="28" x="112.25" y="27.1543">Tree</text><line style="stroke:#A80036;stroke-width:1.5;" x1="8" x2="212" y1="39" y2="39"/><ellipse cx="18" cy="50" rx="3" ry="3" style="stroke:#038048;stroke-width:1.0;fill:none;"/><text fill="#000000" font-family="sans-serif" font-size="11" lengthAdjust="spacing" textLength="75" x="27" y="53.2104">parent : Tree</text><line style="stroke:#A80036;stroke-width:1.5;" x1="8" x2="212" y1="59.8047" y2="59.8047"/><ellipse cx="18" cy="70.8047" fill="#84BE84" rx="3" ry="3" style="stroke:#038048;stroke-width:1.0;"/><text fill="#000000" font-family="sans-serif" font-size="11" lengthAdjust="spacing" textLength="99" x="27" y="74.0151">children() : Tree[]</text><ellipse cx="18" cy="83.6094" fill="#84BE84" rx="3" ry="3" style="stroke:#038048;stroke-width:1.0;"/><text fill="#000000" font-family="sans-serif" font-size="11" lengthAdjust="spacing" textLength="180" x="27" y="86.8198">path(opts: PathOptions) : string</text><ellipse cx="18" cy="96.4141" fill="#84BE84" rx="3" ry="3" style="stroke:#038048;stroke-width:1.0;"/><text fill="#000000" font-family="sans-serif" font-size="11" lengthAdjust="spacing" textLength="69" x="27" y="99.6245">root() : Tree</text><!--MD5=[8b4f67f469fa192496a1491a0151fc70]
reverse link Tree to Entity--><path codeLine="17" d="M110,126.32 C110,139.56 110,153.25 110,165.98 " fill="none" id="Tree-backto-Entity" style="stroke:#A80036;stroke-width:1.0;"/><polygon fill="none" points="103,126.11,110,106.11,117,126.11,103,126.11" style="stroke:#A80036;stroke-width:1.0;"/><!--MD5=[1884ba87aa167dec52e41718aee8e07d]
@startuml
skinparam BackgroundColor transparent
hide empty methods
hide empty fields
class "Entity" {
    +components : Component[]
    +name : string
    +system : System
    +render() : void
    +update() : Promise<void>
}
class "Tree" {
    +parent : Tree
    +children() : Tree[]
    +path(opts: PathOptions) : string
    +root() : Tree
}
"Tree" <|- - "Entity"
@enduml

PlantUML version 1.2021.14(Fri Nov 12 16:46:50 UTC 2021)
(GPL source distribution)
Java Runtime: OpenJDK Runtime Environment
JVM: OpenJDK 64-Bit Server VM
Default Encoding: UTF-8
Language: en
Country: null
--></g></svg>