<?xml version="1.0" encoding="UTF-8" standalone="no"?><svg xmlns="http://www.w3.org/2000/svg" xmlns:xlink="http://www.w3.org/1999/xlink" contentScriptType="application/ecmascript" contentStyleType="text/css" height="414px" preserveAspectRatio="none" style="width:2806px;height:414px;background:#00000000;" version="1.1" viewBox="0 0 2806 414" width="2806px" zoomAndPan="magnify"><defs><filter height="300%" id="f1ay8f6ifnw5bm" width="300%" x="-1" y="-1"><feGaussianBlur result="blurOut" stdDeviation="2.0"/><feColorMatrix in="blurOut" result="blurOut2" type="matrix" values="0 0 0 0 0 0 0 0 0 0 0 0 0 0 0 0 0 0 .4 0"/><feOffset dx="4.0" dy="4.0" in="blurOut2" result="blurOut3"/><feBlend in="SourceGraphic" in2="blurOut3" mode="normal"/></filter></defs><g><!--MD5=[8db60afef7a3447bbe27c5ed187fdac2]
class Exception--><rect codeLine="4" fill="#FEFECE" filter="url(#f1ay8f6ifnw5bm)" height="124.8281" id="Exception" style="stroke:#A80036;stroke-width:1.5;" width="435" x="1182" y="91"/><ellipse cx="1364.75" cy="107" fill="#ADD1B2" rx="11" ry="11" style="stroke:#A80036;stroke-width:1.0;"/><path d="M1367.7188,112.6406 Q1367.1406,112.9375 1366.5,113.0781 Q1365.8594,113.2344 1365.1563,113.2344 Q1362.6563,113.2344 1361.3281,111.5938 Q1360.0156,109.9375 1360.0156,106.8125 Q1360.0156,103.6875 1361.3281,102.0313 Q1362.6563,100.375 1365.1563,100.375 Q1365.8594,100.375 1366.5,100.5313 Q1367.1563,100.6875 1367.7188,100.9844 L1367.7188,103.7031 Q1367.0938,103.125 1366.5,102.8594 Q1365.9063,102.5781 1365.2813,102.5781 Q1363.9375,102.5781 1363.25,103.6563 Q1362.5625,104.7188 1362.5625,106.8125 Q1362.5625,108.9063 1363.25,109.9844 Q1363.9375,111.0469 1365.2813,111.0469 Q1365.9063,111.0469 1366.5,110.7813 Q1367.0938,110.5 1367.7188,109.9219 L1367.7188,112.6406 Z " fill="#000000"/><text fill="#000000" font-family="sans-serif" font-size="12" lengthAdjust="spacing" textLength="61" x="1385.25" y="111.1543">Exception</text><line style="stroke:#A80036;stroke-width:1.5;" x1="1183" x2="1616" y1="123" y2="123"/><ellipse cx="1193" cy="134" rx="3" ry="3" style="stroke:#038048;stroke-width:1.0;fill:none;"/><text fill="#000000" font-family="sans-serif" font-size="11" lengthAdjust="spacing" textLength="98" x="1202" y="137.2104">message : string</text><ellipse cx="1193" cy="146.8047" rx="3" ry="3" style="stroke:#038048;stroke-width:1.0;fill:none;"/><text fill="#000000" font-family="sans-serif" font-size="11" lengthAdjust="spacing" textLength="77" x="1202" y="150.0151">name : string</text><ellipse cx="1193" cy="159.6094" rx="3" ry="3" style="stroke:#038048;stroke-width:1.0;fill:none;"/><text fill="#000000" font-family="sans-serif" font-size="11" lengthAdjust="spacing" text-decoration="underline" textLength="167" x="1202" y="162.8198">prepareStackTrace : Function</text><ellipse cx="1193" cy="172.4141" rx="3" ry="3" style="stroke:#038048;stroke-width:1.0;fill:none;"/><text fill="#000000" font-family="sans-serif" font-size="11" lengthAdjust="spacing" textLength="75" x="1202" y="175.6245">stack : string</text><ellipse cx="1193" cy="185.2188" rx="3" ry="3" style="stroke:#038048;stroke-width:1.0;fill:none;"/><text fill="#000000" font-family="sans-serif" font-size="11" lengthAdjust="spacing" text-decoration="underline" textLength="145" x="1202" y="188.4292">stackTraceLimit : number</text><line style="stroke:#A80036;stroke-width:1.5;" x1="1183" x2="1616" y1="195.0234" y2="195.0234"/><ellipse cx="1193" cy="206.0234" fill="#84BE84" rx="3" ry="3" style="stroke:#038048;stroke-width:1.0;"/><text fill="#000000" font-family="sans-serif" font-size="11" lengthAdjust="spacing" text-decoration="underline" textLength="409" x="1202" y="209.2339">captureStackTrace(targetObject: object, constructorOpt: Function) : void</text><!--MD5=[b8cfd8c4119a3b0a7a46bfc5fc780f85]
class Error--><rect codeLine="12" fill="#FEFECE" filter="url(#f1ay8f6ifnw5bm)" height="23.9688" id="Error" style="stroke:#A80036;stroke-width:1.5;" width="37" x="1381" y="7"/><text fill="#000000" font-family="sans-serif" font-size="12" lengthAdjust="spacing" textLength="31" x="1384" y="23.1387">Error</text><!--MD5=[2923825ebbe2778fc0ea944643e352ed]
class InvalidTokenName--><rect codeLine="15" fill="#FEFECE" filter="url(#f1ay8f6ifnw5bm)" height="124.8281" id="InvalidTokenName" style="stroke:#A80036;stroke-width:1.5;" width="435" x="7" y="276"/><ellipse cx="163.75" cy="292" fill="#ADD1B2" rx="11" ry="11" style="stroke:#A80036;stroke-width:1.0;"/><path d="M166.7188,297.6406 Q166.1406,297.9375 165.5,298.0781 Q164.8594,298.2344 164.1563,298.2344 Q161.6563,298.2344 160.3281,296.5938 Q159.0156,294.9375 159.0156,291.8125 Q159.0156,288.6875 160.3281,287.0313 Q161.6563,285.375 164.1563,285.375 Q164.8594,285.375 165.5,285.5313 Q166.1563,285.6875 166.7188,285.9844 L166.7188,288.7031 Q166.0938,288.125 165.5,287.8594 Q164.9063,287.5781 164.2813,287.5781 Q162.9375,287.5781 162.25,288.6563 Q161.5625,289.7188 161.5625,291.8125 Q161.5625,293.9063 162.25,294.9844 Q162.9375,296.0469 164.2813,296.0469 Q164.9063,296.0469 165.5,295.7813 Q166.0938,295.5 166.7188,294.9219 L166.7188,297.6406 Z " fill="#000000"/><text fill="#000000" font-family="sans-serif" font-size="12" lengthAdjust="spacing" textLength="113" x="184.25" y="296.1543">InvalidTokenName</text><line style="stroke:#A80036;stroke-width:1.5;" x1="8" x2="441" y1="308" y2="308"/><ellipse cx="18" cy="319" rx="3" ry="3" style="stroke:#038048;stroke-width:1.0;fill:none;"/><text fill="#000000" font-family="sans-serif" font-size="11" lengthAdjust="spacing" textLength="98" x="27" y="322.2104">message : string</text><ellipse cx="18" cy="331.8047" rx="3" ry="3" style="stroke:#038048;stroke-width:1.0;fill:none;"/><text fill="#000000" font-family="sans-serif" font-size="11" lengthAdjust="spacing" textLength="77" x="27" y="335.0151">name : string</text><ellipse cx="18" cy="344.6094" rx="3" ry="3" style="stroke:#038048;stroke-width:1.0;fill:none;"/><text fill="#000000" font-family="sans-serif" font-size="11" lengthAdjust="spacing" text-decoration="underline" textLength="167" x="27" y="347.8198">prepareStackTrace : Function</text><ellipse cx="18" cy="357.4141" rx="3" ry="3" style="stroke:#038048;stroke-width:1.0;fill:none;"/><text fill="#000000" font-family="sans-serif" font-size="11" lengthAdjust="spacing" textLength="75" x="27" y="360.6245">stack : string</text><ellipse cx="18" cy="370.2188" rx="3" ry="3" style="stroke:#038048;stroke-width:1.0;fill:none;"/><text fill="#000000" font-family="sans-serif" font-size="11" lengthAdjust="spacing" text-decoration="underline" textLength="145" x="27" y="373.4292">stackTraceLimit : number</text><line style="stroke:#A80036;stroke-width:1.5;" x1="8" x2="441" y1="380.0234" y2="380.0234"/><ellipse cx="18" cy="391.0234" fill="#84BE84" rx="3" ry="3" style="stroke:#038048;stroke-width:1.0;"/><text fill="#000000" font-family="sans-serif" font-size="11" lengthAdjust="spacing" text-decoration="underline" textLength="409" x="27" y="394.2339">captureStackTrace(targetObject: object, constructorOpt: Function) : void</text><!--MD5=[2bfeb435a665e66f13a2d50867190245]
class CyclicComponentTokenPair--><rect codeLine="24" fill="#FEFECE" filter="url(#f1ay8f6ifnw5bm)" height="124.8281" id="CyclicComponentTokenPair" style="stroke:#A80036;stroke-width:1.5;" width="435" x="477" y="276"/><ellipse cx="606.25" cy="292" fill="#ADD1B2" rx="11" ry="11" style="stroke:#A80036;stroke-width:1.0;"/><path d="M609.2188,297.6406 Q608.6406,297.9375 608,298.0781 Q607.3594,298.2344 606.6563,298.2344 Q604.1563,298.2344 602.8281,296.5938 Q601.5156,294.9375 601.5156,291.8125 Q601.5156,288.6875 602.8281,287.0313 Q604.1563,285.375 606.6563,285.375 Q607.3594,285.375 608,285.5313 Q608.6563,285.6875 609.2188,285.9844 L609.2188,288.7031 Q608.5938,288.125 608,287.8594 Q607.4063,287.5781 606.7813,287.5781 Q605.4375,287.5781 604.75,288.6563 Q604.0625,289.7188 604.0625,291.8125 Q604.0625,293.9063 604.75,294.9844 Q605.4375,296.0469 606.7813,296.0469 Q607.4063,296.0469 608,295.7813 Q608.5938,295.5 609.2188,294.9219 L609.2188,297.6406 Z " fill="#000000"/><text fill="#000000" font-family="sans-serif" font-size="12" lengthAdjust="spacing" textLength="168" x="626.75" y="296.1543">CyclicComponentTokenPair</text><line style="stroke:#A80036;stroke-width:1.5;" x1="478" x2="911" y1="308" y2="308"/><ellipse cx="488" cy="319" rx="3" ry="3" style="stroke:#038048;stroke-width:1.0;fill:none;"/><text fill="#000000" font-family="sans-serif" font-size="11" lengthAdjust="spacing" textLength="98" x="497" y="322.2104">message : string</text><ellipse cx="488" cy="331.8047" rx="3" ry="3" style="stroke:#038048;stroke-width:1.0;fill:none;"/><text fill="#000000" font-family="sans-serif" font-size="11" lengthAdjust="spacing" textLength="77" x="497" y="335.0151">name : string</text><ellipse cx="488" cy="344.6094" rx="3" ry="3" style="stroke:#038048;stroke-width:1.0;fill:none;"/><text fill="#000000" font-family="sans-serif" font-size="11" lengthAdjust="spacing" text-decoration="underline" textLength="167" x="497" y="347.8198">prepareStackTrace : Function</text><ellipse cx="488" cy="357.4141" rx="3" ry="3" style="stroke:#038048;stroke-width:1.0;fill:none;"/><text fill="#000000" font-family="sans-serif" font-size="11" lengthAdjust="spacing" textLength="75" x="497" y="360.6245">stack : string</text><ellipse cx="488" cy="370.2188" rx="3" ry="3" style="stroke:#038048;stroke-width:1.0;fill:none;"/><text fill="#000000" font-family="sans-serif" font-size="11" lengthAdjust="spacing" text-decoration="underline" textLength="145" x="497" y="373.4292">stackTraceLimit : number</text><line style="stroke:#A80036;stroke-width:1.5;" x1="478" x2="911" y1="380.0234" y2="380.0234"/><ellipse cx="488" cy="391.0234" fill="#84BE84" rx="3" ry="3" style="stroke:#038048;stroke-width:1.0;"/><text fill="#000000" font-family="sans-serif" font-size="11" lengthAdjust="spacing" text-decoration="underline" textLength="409" x="497" y="394.2339">captureStackTrace(targetObject: object, constructorOpt: Function) : void</text><!--MD5=[d3203dc3d844051399072ffe925d2994]
class CyclicDependencyResolver--><rect codeLine="33" fill="#FEFECE" filter="url(#f1ay8f6ifnw5bm)" height="124.8281" id="CyclicDependencyResolver" style="stroke:#A80036;stroke-width:1.5;" width="435" x="947" y="276"/><ellipse cx="1077.75" cy="292" fill="#ADD1B2" rx="11" ry="11" style="stroke:#A80036;stroke-width:1.0;"/><path d="M1080.7188,297.6406 Q1080.1406,297.9375 1079.5,298.0781 Q1078.8594,298.2344 1078.1563,298.2344 Q1075.6563,298.2344 1074.3281,296.5938 Q1073.0156,294.9375 1073.0156,291.8125 Q1073.0156,288.6875 1074.3281,287.0313 Q1075.6563,285.375 1078.1563,285.375 Q1078.8594,285.375 1079.5,285.5313 Q1080.1563,285.6875 1080.7188,285.9844 L1080.7188,288.7031 Q1080.0938,288.125 1079.5,287.8594 Q1078.9063,287.5781 1078.2813,287.5781 Q1076.9375,287.5781 1076.25,288.6563 Q1075.5625,289.7188 1075.5625,291.8125 Q1075.5625,293.9063 1076.25,294.9844 Q1076.9375,296.0469 1078.2813,296.0469 Q1078.9063,296.0469 1079.5,295.7813 Q1080.0938,295.5 1080.7188,294.9219 L1080.7188,297.6406 Z " fill="#000000"/><text fill="#000000" font-family="sans-serif" font-size="12" lengthAdjust="spacing" textLength="165" x="1098.25" y="296.1543">CyclicDependencyResolver</text><line style="stroke:#A80036;stroke-width:1.5;" x1="948" x2="1381" y1="308" y2="308"/><ellipse cx="958" cy="319" rx="3" ry="3" style="stroke:#038048;stroke-width:1.0;fill:none;"/><text fill="#000000" font-family="sans-serif" font-size="11" lengthAdjust="spacing" textLength="98" x="967" y="322.2104">message : string</text><ellipse cx="958" cy="331.8047" rx="3" ry="3" style="stroke:#038048;stroke-width:1.0;fill:none;"/><text fill="#000000" font-family="sans-serif" font-size="11" lengthAdjust="spacing" textLength="77" x="967" y="335.0151">name : string</text><ellipse cx="958" cy="344.6094" rx="3" ry="3" style="stroke:#038048;stroke-width:1.0;fill:none;"/><text fill="#000000" font-family="sans-serif" font-size="11" lengthAdjust="spacing" text-decoration="underline" textLength="167" x="967" y="347.8198">prepareStackTrace : Function</text><ellipse cx="958" cy="357.4141" rx="3" ry="3" style="stroke:#038048;stroke-width:1.0;fill:none;"/><text fill="#000000" font-family="sans-serif" font-size="11" lengthAdjust="spacing" textLength="75" x="967" y="360.6245">stack : string</text><ellipse cx="958" cy="370.2188" rx="3" ry="3" style="stroke:#038048;stroke-width:1.0;fill:none;"/><text fill="#000000" font-family="sans-serif" font-size="11" lengthAdjust="spacing" text-decoration="underline" textLength="145" x="967" y="373.4292">stackTraceLimit : number</text><line style="stroke:#A80036;stroke-width:1.5;" x1="948" x2="1381" y1="380.0234" y2="380.0234"/><ellipse cx="958" cy="391.0234" fill="#84BE84" rx="3" ry="3" style="stroke:#038048;stroke-width:1.0;"/><text fill="#000000" font-family="sans-serif" font-size="11" lengthAdjust="spacing" text-decoration="underline" textLength="409" x="967" y="394.2339">captureStackTrace(targetObject: object, constructorOpt: Function) : void</text><!--MD5=[23505c2363aa9f569ad8cd7644413875]
class ComponentVerificationViolation--><rect codeLine="42" fill="#FEFECE" filter="url(#f1ay8f6ifnw5bm)" height="124.8281" id="ComponentVerificationViolation" style="stroke:#A80036;stroke-width:1.5;" width="435" x="1417" y="276"/><ellipse cx="1532.25" cy="292" fill="#ADD1B2" rx="11" ry="11" style="stroke:#A80036;stroke-width:1.0;"/><path d="M1535.2188,297.6406 Q1534.6406,297.9375 1534,298.0781 Q1533.3594,298.2344 1532.6563,298.2344 Q1530.1563,298.2344 1528.8281,296.5938 Q1527.5156,294.9375 1527.5156,291.8125 Q1527.5156,288.6875 1528.8281,287.0313 Q1530.1563,285.375 1532.6563,285.375 Q1533.3594,285.375 1534,285.5313 Q1534.6563,285.6875 1535.2188,285.9844 L1535.2188,288.7031 Q1534.5938,288.125 1534,287.8594 Q1533.4063,287.5781 1532.7813,287.5781 Q1531.4375,287.5781 1530.75,288.6563 Q1530.0625,289.7188 1530.0625,291.8125 Q1530.0625,293.9063 1530.75,294.9844 Q1531.4375,296.0469 1532.7813,296.0469 Q1533.4063,296.0469 1534,295.7813 Q1534.5938,295.5 1535.2188,294.9219 L1535.2188,297.6406 Z " fill="#000000"/><text fill="#000000" font-family="sans-serif" font-size="12" lengthAdjust="spacing" textLength="196" x="1552.75" y="296.1543">ComponentVerificationViolation</text><line style="stroke:#A80036;stroke-width:1.5;" x1="1418" x2="1851" y1="308" y2="308"/><ellipse cx="1428" cy="319" rx="3" ry="3" style="stroke:#038048;stroke-width:1.0;fill:none;"/><text fill="#000000" font-family="sans-serif" font-size="11" lengthAdjust="spacing" textLength="98" x="1437" y="322.2104">message : string</text><ellipse cx="1428" cy="331.8047" rx="3" ry="3" style="stroke:#038048;stroke-width:1.0;fill:none;"/><text fill="#000000" font-family="sans-serif" font-size="11" lengthAdjust="spacing" textLength="77" x="1437" y="335.0151">name : string</text><ellipse cx="1428" cy="344.6094" rx="3" ry="3" style="stroke:#038048;stroke-width:1.0;fill:none;"/><text fill="#000000" font-family="sans-serif" font-size="11" lengthAdjust="spacing" text-decoration="underline" textLength="167" x="1437" y="347.8198">prepareStackTrace : Function</text><ellipse cx="1428" cy="357.4141" rx="3" ry="3" style="stroke:#038048;stroke-width:1.0;fill:none;"/><text fill="#000000" font-family="sans-serif" font-size="11" lengthAdjust="spacing" textLength="75" x="1437" y="360.6245">stack : string</text><ellipse cx="1428" cy="370.2188" rx="3" ry="3" style="stroke:#038048;stroke-width:1.0;fill:none;"/><text fill="#000000" font-family="sans-serif" font-size="11" lengthAdjust="spacing" text-decoration="underline" textLength="145" x="1437" y="373.4292">stackTraceLimit : number</text><line style="stroke:#A80036;stroke-width:1.5;" x1="1418" x2="1851" y1="380.0234" y2="380.0234"/><ellipse cx="1428" cy="391.0234" fill="#84BE84" rx="3" ry="3" style="stroke:#038048;stroke-width:1.0;"/><text fill="#000000" font-family="sans-serif" font-size="11" lengthAdjust="spacing" text-decoration="underline" textLength="409" x="1437" y="394.2339">captureStackTrace(targetObject: object, constructorOpt: Function) : void</text><!--MD5=[1a49a7ec223319d5833defa887e340fc]
class AmbiguousCrossSceneReference--><rect codeLine="51" fill="#FEFECE" filter="url(#f1ay8f6ifnw5bm)" height="124.8281" id="AmbiguousCrossSceneReference" style="stroke:#A80036;stroke-width:1.5;" width="435" x="1887" y="276"/><ellipse cx="1996.75" cy="292" fill="#ADD1B2" rx="11" ry="11" style="stroke:#A80036;stroke-width:1.0;"/><path d="M1999.7188,297.6406 Q1999.1406,297.9375 1998.5,298.0781 Q1997.8594,298.2344 1997.1563,298.2344 Q1994.6563,298.2344 1993.3281,296.5938 Q1992.0156,294.9375 1992.0156,291.8125 Q1992.0156,288.6875 1993.3281,287.0313 Q1994.6563,285.375 1997.1563,285.375 Q1997.8594,285.375 1998.5,285.5313 Q1999.1563,285.6875 1999.7188,285.9844 L1999.7188,288.7031 Q1999.0938,288.125 1998.5,287.8594 Q1997.9063,287.5781 1997.2813,287.5781 Q1995.9375,287.5781 1995.25,288.6563 Q1994.5625,289.7188 1994.5625,291.8125 Q1994.5625,293.9063 1995.25,294.9844 Q1995.9375,296.0469 1997.2813,296.0469 Q1997.9063,296.0469 1998.5,295.7813 Q1999.0938,295.5 1999.7188,294.9219 L1999.7188,297.6406 Z " fill="#000000"/><text fill="#000000" font-family="sans-serif" font-size="12" lengthAdjust="spacing" textLength="207" x="2017.25" y="296.1543">AmbiguousCrossSceneReference</text><line style="stroke:#A80036;stroke-width:1.5;" x1="1888" x2="2321" y1="308" y2="308"/><ellipse cx="1898" cy="319" rx="3" ry="3" style="stroke:#038048;stroke-width:1.0;fill:none;"/><text fill="#000000" font-family="sans-serif" font-size="11" lengthAdjust="spacing" textLength="98" x="1907" y="322.2104">message : string</text><ellipse cx="1898" cy="331.8047" rx="3" ry="3" style="stroke:#038048;stroke-width:1.0;fill:none;"/><text fill="#000000" font-family="sans-serif" font-size="11" lengthAdjust="spacing" textLength="77" x="1907" y="335.0151">name : string</text><ellipse cx="1898" cy="344.6094" rx="3" ry="3" style="stroke:#038048;stroke-width:1.0;fill:none;"/><text fill="#000000" font-family="sans-serif" font-size="11" lengthAdjust="spacing" text-decoration="underline" textLength="167" x="1907" y="347.8198">prepareStackTrace : Function</text><ellipse cx="1898" cy="357.4141" rx="3" ry="3" style="stroke:#038048;stroke-width:1.0;fill:none;"/><text fill="#000000" font-family="sans-serif" font-size="11" lengthAdjust="spacing" textLength="75" x="1907" y="360.6245">stack : string</text><ellipse cx="1898" cy="370.2188" rx="3" ry="3" style="stroke:#038048;stroke-width:1.0;fill:none;"/><text fill="#000000" font-family="sans-serif" font-size="11" lengthAdjust="spacing" text-decoration="underline" textLength="145" x="1907" y="373.4292">stackTraceLimit : number</text><line style="stroke:#A80036;stroke-width:1.5;" x1="1888" x2="2321" y1="380.0234" y2="380.0234"/><ellipse cx="1898" cy="391.0234" fill="#84BE84" rx="3" ry="3" style="stroke:#038048;stroke-width:1.0;"/><text fill="#000000" font-family="sans-serif" font-size="11" lengthAdjust="spacing" text-decoration="underline" textLength="409" x="1907" y="394.2339">captureStackTrace(targetObject: object, constructorOpt: Function) : void</text><!--MD5=[6b62ce995880f604ec1a00aee76bc2c8]
class DuplicateComponentScenePair--><rect codeLine="60" fill="#FEFECE" filter="url(#f1ay8f6ifnw5bm)" height="124.8281" id="DuplicateComponentScenePair" style="stroke:#A80036;stroke-width:1.5;" width="435" x="2357" y="276"/><ellipse cx="2473.25" cy="292" fill="#ADD1B2" rx="11" ry="11" style="stroke:#A80036;stroke-width:1.0;"/><path d="M2476.2188,297.6406 Q2475.6406,297.9375 2475,298.0781 Q2474.3594,298.2344 2473.6563,298.2344 Q2471.1563,298.2344 2469.8281,296.5938 Q2468.5156,294.9375 2468.5156,291.8125 Q2468.5156,288.6875 2469.8281,287.0313 Q2471.1563,285.375 2473.6563,285.375 Q2474.3594,285.375 2475,285.5313 Q2475.6563,285.6875 2476.2188,285.9844 L2476.2188,288.7031 Q2475.5938,288.125 2475,287.8594 Q2474.4063,287.5781 2473.7813,287.5781 Q2472.4375,287.5781 2471.75,288.6563 Q2471.0625,289.7188 2471.0625,291.8125 Q2471.0625,293.9063 2471.75,294.9844 Q2472.4375,296.0469 2473.7813,296.0469 Q2474.4063,296.0469 2475,295.7813 Q2475.5938,295.5 2476.2188,294.9219 L2476.2188,297.6406 Z " fill="#000000"/><text fill="#000000" font-family="sans-serif" font-size="12" lengthAdjust="spacing" textLength="194" x="2493.75" y="296.1543">DuplicateComponentScenePair</text><line style="stroke:#A80036;stroke-width:1.5;" x1="2358" x2="2791" y1="308" y2="308"/><ellipse cx="2368" cy="319" rx="3" ry="3" style="stroke:#038048;stroke-width:1.0;fill:none;"/><text fill="#000000" font-family="sans-serif" font-size="11" lengthAdjust="spacing" textLength="98" x="2377" y="322.2104">message : string</text><ellipse cx="2368" cy="331.8047" rx="3" ry="3" style="stroke:#038048;stroke-width:1.0;fill:none;"/><text fill="#000000" font-family="sans-serif" font-size="11" lengthAdjust="spacing" textLength="77" x="2377" y="335.0151">name : string</text><ellipse cx="2368" cy="344.6094" rx="3" ry="3" style="stroke:#038048;stroke-width:1.0;fill:none;"/><text fill="#000000" font-family="sans-serif" font-size="11" lengthAdjust="spacing" text-decoration="underline" textLength="167" x="2377" y="347.8198">prepareStackTrace : Function</text><ellipse cx="2368" cy="357.4141" rx="3" ry="3" style="stroke:#038048;stroke-width:1.0;fill:none;"/><text fill="#000000" font-family="sans-serif" font-size="11" lengthAdjust="spacing" textLength="75" x="2377" y="360.6245">stack : string</text><ellipse cx="2368" cy="370.2188" rx="3" ry="3" style="stroke:#038048;stroke-width:1.0;fill:none;"/><text fill="#000000" font-family="sans-serif" font-size="11" lengthAdjust="spacing" text-decoration="underline" textLength="145" x="2377" y="373.4292">stackTraceLimit : number</text><line style="stroke:#A80036;stroke-width:1.5;" x1="2358" x2="2791" y1="380.0234" y2="380.0234"/><ellipse cx="2368" cy="391.0234" fill="#84BE84" rx="3" ry="3" style="stroke:#038048;stroke-width:1.0;"/><text fill="#000000" font-family="sans-serif" font-size="11" lengthAdjust="spacing" text-decoration="underline" textLength="409" x="2377" y="394.2339">captureStackTrace(targetObject: object, constructorOpt: Function) : void</text><!--MD5=[8f1117c6285cc7678b3b63862a7182f2]
reverse link Error to Exception--><path codeLine="14" d="M1399.5,51.38 C1399.5,63.2 1399.5,77.09 1399.5,90.73 " fill="none" id="Error-backto-Exception" style="stroke:#A80036;stroke-width:1.0;"/><polygon fill="none" points="1392.5,51.3,1399.5,31.3,1406.5,51.3,1392.5,51.3" style="stroke:#A80036;stroke-width:1.0;"/><!--MD5=[506cfc9b40a92a5bbf2b6c36cafb57cc]
reverse link Exception to InvalidTokenName--><path codeLine="23" d="M1161.75,176.77 C970.9,196.67 696.62,229.84 459.5,276 C453.81,277.11 448.05,278.27 442.25,279.49 " fill="none" id="Exception-backto-InvalidTokenName" style="stroke:#A80036;stroke-width:1.0;"/><polygon fill="none" points="1161.08,169.8,1181.7,174.7,1162.52,183.72,1161.08,169.8" style="stroke:#A80036;stroke-width:1.0;"/><!--MD5=[88bf2233eea0a69e64ca8d0f4c5637b4]
reverse link Exception to CyclicComponentTokenPair--><path codeLine="32" d="M1162.09,215.73 C1087.62,234.97 1005.12,256.33 929.5,276 C923.79,277.49 917.99,278.99 912.15,280.52 " fill="none" id="Exception-backto-CyclicComponentTokenPair" style="stroke:#A80036;stroke-width:1.0;"/><polygon fill="none" points="1160.73,208.85,1181.85,210.62,1164.24,222.4,1160.73,208.85" style="stroke:#A80036;stroke-width:1.0;"/><!--MD5=[6349d4b9f1175148240a1af64064491e]
reverse link Exception to CyclicDependencyResolver--><path codeLine="41" d="M1304.38,228.57 C1284.26,244.24 1263.24,260.61 1243.79,275.76 " fill="none" id="Exception-backto-CyclicDependencyResolver" style="stroke:#A80036;stroke-width:1.0;"/><polygon fill="none" points="1300.19,222.97,1320.27,216.2,1308.79,234.01,1300.19,222.97" style="stroke:#A80036;stroke-width:1.0;"/><!--MD5=[4b1d51a4adcc369592a50db4b1bdf62c]
reverse link Exception to ComponentVerificationViolation--><path codeLine="50" d="M1494.62,228.57 C1514.74,244.24 1535.76,260.61 1555.21,275.76 " fill="none" id="Exception-backto-ComponentVerificationViolation" style="stroke:#A80036;stroke-width:1.0;"/><polygon fill="none" points="1490.21,234.01,1478.73,216.2,1498.81,222.97,1490.21,234.01" style="stroke:#A80036;stroke-width:1.0;"/><!--MD5=[f92f1492294c758f751a7d6069ac70b7]
reverse link Exception to AmbiguousCrossSceneReference--><path codeLine="59" d="M1636.91,215.73 C1711.38,234.97 1793.88,256.33 1869.5,276 C1875.21,277.49 1881.01,278.99 1886.85,280.52 " fill="none" id="Exception-backto-AmbiguousCrossSceneReference" style="stroke:#A80036;stroke-width:1.0;"/><polygon fill="none" points="1634.76,222.4,1617.15,210.62,1638.27,208.85,1634.76,222.4" style="stroke:#A80036;stroke-width:1.0;"/><!--MD5=[4fd3fca13f1465a7603cdd2def7f87ca]
reverse link Exception to DuplicateComponentScenePair--><path codeLine="68" d="M1637.25,176.77 C1828.1,196.67 2102.38,229.84 2339.5,276 C2345.19,277.11 2350.95,278.27 2356.75,279.49 " fill="none" id="Exception-backto-DuplicateComponentScenePair" style="stroke:#A80036;stroke-width:1.0;"/><polygon fill="none" points="1636.48,183.72,1617.3,174.7,1637.92,169.8,1636.48,183.72" style="stroke:#A80036;stroke-width:1.0;"/><!--MD5=[919262e1b84bd87dcfe64da9d1816f9e]
@startuml
skinparam BackgroundColor transparent
hide empty methods
hide empty fields
class "Exception" {
    +message : string
    +name : string
    {static} +prepareStackTrace : Function
    +stack : string
    {static} +stackTraceLimit : number
    {static} +captureStackTrace(targetObject: object, constructorOpt: Function) : void
}
class "Error"
hide "Error" circle
"Error" <|- - "Exception"
class "InvalidTokenName" {
    +message : string
    +name : string
    {static} +prepareStackTrace : Function
    +stack : string
    {static} +stackTraceLimit : number
    {static} +captureStackTrace(targetObject: object, constructorOpt: Function) : void
}
"Exception" <|- - "InvalidTokenName"
class "CyclicComponentTokenPair" {
    +message : string
    +name : string
    {static} +prepareStackTrace : Function
    +stack : string
    {static} +stackTraceLimit : number
    {static} +captureStackTrace(targetObject: object, constructorOpt: Function) : void
}
"Exception" <|- - "CyclicComponentTokenPair"
class "CyclicDependencyResolver" {
    +message : string
    +name : string
    {static} +prepareStackTrace : Function
    +stack : string
    {static} +stackTraceLimit : number
    {static} +captureStackTrace(targetObject: object, constructorOpt: Function) : void
}
"Exception" <|- - "CyclicDependencyResolver"
class "ComponentVerificationViolation" {
    +message : string
    +name : string
    {static} +prepareStackTrace : Function
    +stack : string
    {static} +stackTraceLimit : number
    {static} +captureStackTrace(targetObject: object, constructorOpt: Function) : void
}
"Exception" <|- - "ComponentVerificationViolation"
class "AmbiguousCrossSceneReference" {
    +message : string
    +name : string
    {static} +prepareStackTrace : Function
    +stack : string
    {static} +stackTraceLimit : number
    {static} +captureStackTrace(targetObject: object, constructorOpt: Function) : void
}
"Exception" <|- - "AmbiguousCrossSceneReference"
class "DuplicateComponentScenePair" {
    +message : string
    +name : string
    {static} +prepareStackTrace : Function
    +stack : string
    {static} +stackTraceLimit : number
    {static} +captureStackTrace(targetObject: object, constructorOpt: Function) : void
}
"Exception" <|- - "DuplicateComponentScenePair"
@enduml

PlantUML version 1.2021.14(Fri Nov 12 16:46:50 UTC 2021)
(GPL source distribution)
Java Runtime: OpenJDK Runtime Environment
JVM: OpenJDK 64-Bit Server VM
Default Encoding: UTF-8
Language: en
Country: null
--></g></svg>