<?xml version="1.0" encoding="UTF-8" standalone="no"?><svg xmlns="http://www.w3.org/2000/svg" xmlns:xlink="http://www.w3.org/1999/xlink" contentScriptType="application/ecmascript" contentStyleType="text/css" height="1105px" preserveAspectRatio="none" style="width:1048px;height:1105px;background:#00000000;" version="1.1" viewBox="0 0 1048 1105" width="1048px" zoomAndPan="magnify"><defs><filter height="300%" id="fdv9ugdz5jlz0" width="300%" x="-1" y="-1"><feGaussianBlur result="blurOut" stdDeviation="2.0"/><feColorMatrix in="blurOut" result="blurOut2" type="matrix" values="0 0 0 0 0 0 0 0 0 0 0 0 0 0 0 0 0 0 .4 0"/><feOffset dx="4.0" dy="4.0" in="blurOut2" result="blurOut3"/><feBlend in="SourceGraphic" in2="blurOut3" mode="normal"/></filter></defs><g><!--MD5=[8db60afef7a3447bbe27c5ed187fdac2]
class Exception--><rect codeLine="5" fill="#FEFECE" filter="url(#fdv9ugdz5jlz0)" height="124.8281" id="Exception" style="stroke:#A80036;stroke-width:1.5;" width="435" x="104" y="487"/><ellipse cx="286.75" cy="503" fill="#ADD1B2" rx="11" ry="11" style="stroke:#A80036;stroke-width:1.0;"/><path d="M289.7188,508.6406 Q289.1406,508.9375 288.5,509.0781 Q287.8594,509.2344 287.1563,509.2344 Q284.6563,509.2344 283.3281,507.5938 Q282.0156,505.9375 282.0156,502.8125 Q282.0156,499.6875 283.3281,498.0313 Q284.6563,496.375 287.1563,496.375 Q287.8594,496.375 288.5,496.5313 Q289.1563,496.6875 289.7188,496.9844 L289.7188,499.7031 Q289.0938,499.125 288.5,498.8594 Q287.9063,498.5781 287.2813,498.5781 Q285.9375,498.5781 285.25,499.6563 Q284.5625,500.7188 284.5625,502.8125 Q284.5625,504.9063 285.25,505.9844 Q285.9375,507.0469 287.2813,507.0469 Q287.9063,507.0469 288.5,506.7813 Q289.0938,506.5 289.7188,505.9219 L289.7188,508.6406 Z " fill="#000000"/><text fill="#000000" font-family="sans-serif" font-size="12" lengthAdjust="spacing" textLength="61" x="307.25" y="507.1543">Exception</text><line style="stroke:#A80036;stroke-width:1.5;" x1="105" x2="538" y1="519" y2="519"/><ellipse cx="115" cy="530" rx="3" ry="3" style="stroke:#038048;stroke-width:1.0;fill:none;"/><text fill="#000000" font-family="sans-serif" font-size="11" lengthAdjust="spacing" textLength="98" x="124" y="533.2104">message : string</text><ellipse cx="115" cy="542.8047" rx="3" ry="3" style="stroke:#038048;stroke-width:1.0;fill:none;"/><text fill="#000000" font-family="sans-serif" font-size="11" lengthAdjust="spacing" textLength="77" x="124" y="546.0151">name : string</text><ellipse cx="115" cy="555.6094" rx="3" ry="3" style="stroke:#038048;stroke-width:1.0;fill:none;"/><text fill="#000000" font-family="sans-serif" font-size="11" lengthAdjust="spacing" text-decoration="underline" textLength="167" x="124" y="558.8198">prepareStackTrace : Function</text><ellipse cx="115" cy="568.4141" rx="3" ry="3" style="stroke:#038048;stroke-width:1.0;fill:none;"/><text fill="#000000" font-family="sans-serif" font-size="11" lengthAdjust="spacing" textLength="75" x="124" y="571.6245">stack : string</text><ellipse cx="115" cy="581.2188" rx="3" ry="3" style="stroke:#038048;stroke-width:1.0;fill:none;"/><text fill="#000000" font-family="sans-serif" font-size="11" lengthAdjust="spacing" text-decoration="underline" textLength="145" x="124" y="584.4292">stackTraceLimit : number</text><line style="stroke:#A80036;stroke-width:1.5;" x1="105" x2="538" y1="591.0234" y2="591.0234"/><ellipse cx="115" cy="602.0234" fill="#84BE84" rx="3" ry="3" style="stroke:#038048;stroke-width:1.0;"/><text fill="#000000" font-family="sans-serif" font-size="11" lengthAdjust="spacing" text-decoration="underline" textLength="409" x="124" y="605.2339">captureStackTrace(targetObject: object, constructorOpt: Function) : void</text><!--MD5=[b8cfd8c4119a3b0a7a46bfc5fc780f85]
class Error--><rect codeLine="13" fill="#FEFECE" filter="url(#fdv9ugdz5jlz0)" height="23.9688" id="Error" style="stroke:#A80036;stroke-width:1.5;" width="37" x="7" y="537.5"/><text fill="#000000" font-family="sans-serif" font-size="12" lengthAdjust="spacing" textLength="31" x="10" y="553.6387">Error</text><!--MD5=[2923825ebbe2778fc0ea944643e352ed]
class InvalidTokenName--><rect codeLine="16" fill="#FEFECE" filter="url(#fdv9ugdz5jlz0)" height="124.8281" id="InvalidTokenName" style="stroke:#A80036;stroke-width:1.5;" width="435" x="599" y="7"/><ellipse cx="755.75" cy="23" fill="#ADD1B2" rx="11" ry="11" style="stroke:#A80036;stroke-width:1.0;"/><path d="M758.7188,28.6406 Q758.1406,28.9375 757.5,29.0781 Q756.8594,29.2344 756.1563,29.2344 Q753.6563,29.2344 752.3281,27.5938 Q751.0156,25.9375 751.0156,22.8125 Q751.0156,19.6875 752.3281,18.0313 Q753.6563,16.375 756.1563,16.375 Q756.8594,16.375 757.5,16.5313 Q758.1563,16.6875 758.7188,16.9844 L758.7188,19.7031 Q758.0938,19.125 757.5,18.8594 Q756.9063,18.5781 756.2813,18.5781 Q754.9375,18.5781 754.25,19.6563 Q753.5625,20.7188 753.5625,22.8125 Q753.5625,24.9063 754.25,25.9844 Q754.9375,27.0469 756.2813,27.0469 Q756.9063,27.0469 757.5,26.7813 Q758.0938,26.5 758.7188,25.9219 L758.7188,28.6406 Z " fill="#000000"/><text fill="#000000" font-family="sans-serif" font-size="12" lengthAdjust="spacing" textLength="113" x="776.25" y="27.1543">InvalidTokenName</text><line style="stroke:#A80036;stroke-width:1.5;" x1="600" x2="1033" y1="39" y2="39"/><ellipse cx="610" cy="50" rx="3" ry="3" style="stroke:#038048;stroke-width:1.0;fill:none;"/><text fill="#000000" font-family="sans-serif" font-size="11" lengthAdjust="spacing" textLength="98" x="619" y="53.2104">message : string</text><ellipse cx="610" cy="62.8047" rx="3" ry="3" style="stroke:#038048;stroke-width:1.0;fill:none;"/><text fill="#000000" font-family="sans-serif" font-size="11" lengthAdjust="spacing" textLength="77" x="619" y="66.0151">name : string</text><ellipse cx="610" cy="75.6094" rx="3" ry="3" style="stroke:#038048;stroke-width:1.0;fill:none;"/><text fill="#000000" font-family="sans-serif" font-size="11" lengthAdjust="spacing" text-decoration="underline" textLength="167" x="619" y="78.8198">prepareStackTrace : Function</text><ellipse cx="610" cy="88.4141" rx="3" ry="3" style="stroke:#038048;stroke-width:1.0;fill:none;"/><text fill="#000000" font-family="sans-serif" font-size="11" lengthAdjust="spacing" textLength="75" x="619" y="91.6245">stack : string</text><ellipse cx="610" cy="101.2188" rx="3" ry="3" style="stroke:#038048;stroke-width:1.0;fill:none;"/><text fill="#000000" font-family="sans-serif" font-size="11" lengthAdjust="spacing" text-decoration="underline" textLength="145" x="619" y="104.4292">stackTraceLimit : number</text><line style="stroke:#A80036;stroke-width:1.5;" x1="600" x2="1033" y1="111.0234" y2="111.0234"/><ellipse cx="610" cy="122.0234" fill="#84BE84" rx="3" ry="3" style="stroke:#038048;stroke-width:1.0;"/><text fill="#000000" font-family="sans-serif" font-size="11" lengthAdjust="spacing" text-decoration="underline" textLength="409" x="619" y="125.2339">captureStackTrace(targetObject: object, constructorOpt: Function) : void</text><!--MD5=[2bfeb435a665e66f13a2d50867190245]
class CyclicComponentTokenPair--><rect codeLine="25" fill="#FEFECE" filter="url(#fdv9ugdz5jlz0)" height="124.8281" id="CyclicComponentTokenPair" style="stroke:#A80036;stroke-width:1.5;" width="435" x="599" y="167"/><ellipse cx="728.25" cy="183" fill="#ADD1B2" rx="11" ry="11" style="stroke:#A80036;stroke-width:1.0;"/><path d="M731.2188,188.6406 Q730.6406,188.9375 730,189.0781 Q729.3594,189.2344 728.6563,189.2344 Q726.1563,189.2344 724.8281,187.5938 Q723.5156,185.9375 723.5156,182.8125 Q723.5156,179.6875 724.8281,178.0313 Q726.1563,176.375 728.6563,176.375 Q729.3594,176.375 730,176.5313 Q730.6563,176.6875 731.2188,176.9844 L731.2188,179.7031 Q730.5938,179.125 730,178.8594 Q729.4063,178.5781 728.7813,178.5781 Q727.4375,178.5781 726.75,179.6563 Q726.0625,180.7188 726.0625,182.8125 Q726.0625,184.9063 726.75,185.9844 Q727.4375,187.0469 728.7813,187.0469 Q729.4063,187.0469 730,186.7813 Q730.5938,186.5 731.2188,185.9219 L731.2188,188.6406 Z " fill="#000000"/><text fill="#000000" font-family="sans-serif" font-size="12" lengthAdjust="spacing" textLength="168" x="748.75" y="187.1543">CyclicComponentTokenPair</text><line style="stroke:#A80036;stroke-width:1.5;" x1="600" x2="1033" y1="199" y2="199"/><ellipse cx="610" cy="210" rx="3" ry="3" style="stroke:#038048;stroke-width:1.0;fill:none;"/><text fill="#000000" font-family="sans-serif" font-size="11" lengthAdjust="spacing" textLength="98" x="619" y="213.2104">message : string</text><ellipse cx="610" cy="222.8047" rx="3" ry="3" style="stroke:#038048;stroke-width:1.0;fill:none;"/><text fill="#000000" font-family="sans-serif" font-size="11" lengthAdjust="spacing" textLength="77" x="619" y="226.0151">name : string</text><ellipse cx="610" cy="235.6094" rx="3" ry="3" style="stroke:#038048;stroke-width:1.0;fill:none;"/><text fill="#000000" font-family="sans-serif" font-size="11" lengthAdjust="spacing" text-decoration="underline" textLength="167" x="619" y="238.8198">prepareStackTrace : Function</text><ellipse cx="610" cy="248.4141" rx="3" ry="3" style="stroke:#038048;stroke-width:1.0;fill:none;"/><text fill="#000000" font-family="sans-serif" font-size="11" lengthAdjust="spacing" textLength="75" x="619" y="251.6245">stack : string</text><ellipse cx="610" cy="261.2188" rx="3" ry="3" style="stroke:#038048;stroke-width:1.0;fill:none;"/><text fill="#000000" font-family="sans-serif" font-size="11" lengthAdjust="spacing" text-decoration="underline" textLength="145" x="619" y="264.4292">stackTraceLimit : number</text><line style="stroke:#A80036;stroke-width:1.5;" x1="600" x2="1033" y1="271.0234" y2="271.0234"/><ellipse cx="610" cy="282.0234" fill="#84BE84" rx="3" ry="3" style="stroke:#038048;stroke-width:1.0;"/><text fill="#000000" font-family="sans-serif" font-size="11" lengthAdjust="spacing" text-decoration="underline" textLength="409" x="619" y="285.2339">captureStackTrace(targetObject: object, constructorOpt: Function) : void</text><!--MD5=[d3203dc3d844051399072ffe925d2994]
class CyclicDependencyResolver--><rect codeLine="34" fill="#FEFECE" filter="url(#fdv9ugdz5jlz0)" height="124.8281" id="CyclicDependencyResolver" style="stroke:#A80036;stroke-width:1.5;" width="435" x="599" y="327"/><ellipse cx="729.75" cy="343" fill="#ADD1B2" rx="11" ry="11" style="stroke:#A80036;stroke-width:1.0;"/><path d="M732.7188,348.6406 Q732.1406,348.9375 731.5,349.0781 Q730.8594,349.2344 730.1563,349.2344 Q727.6563,349.2344 726.3281,347.5938 Q725.0156,345.9375 725.0156,342.8125 Q725.0156,339.6875 726.3281,338.0313 Q727.6563,336.375 730.1563,336.375 Q730.8594,336.375 731.5,336.5313 Q732.1563,336.6875 732.7188,336.9844 L732.7188,339.7031 Q732.0938,339.125 731.5,338.8594 Q730.9063,338.5781 730.2813,338.5781 Q728.9375,338.5781 728.25,339.6563 Q727.5625,340.7188 727.5625,342.8125 Q727.5625,344.9063 728.25,345.9844 Q728.9375,347.0469 730.2813,347.0469 Q730.9063,347.0469 731.5,346.7813 Q732.0938,346.5 732.7188,345.9219 L732.7188,348.6406 Z " fill="#000000"/><text fill="#000000" font-family="sans-serif" font-size="12" lengthAdjust="spacing" textLength="165" x="750.25" y="347.1543">CyclicDependencyResolver</text><line style="stroke:#A80036;stroke-width:1.5;" x1="600" x2="1033" y1="359" y2="359"/><ellipse cx="610" cy="370" rx="3" ry="3" style="stroke:#038048;stroke-width:1.0;fill:none;"/><text fill="#000000" font-family="sans-serif" font-size="11" lengthAdjust="spacing" textLength="98" x="619" y="373.2104">message : string</text><ellipse cx="610" cy="382.8047" rx="3" ry="3" style="stroke:#038048;stroke-width:1.0;fill:none;"/><text fill="#000000" font-family="sans-serif" font-size="11" lengthAdjust="spacing" textLength="77" x="619" y="386.0151">name : string</text><ellipse cx="610" cy="395.6094" rx="3" ry="3" style="stroke:#038048;stroke-width:1.0;fill:none;"/><text fill="#000000" font-family="sans-serif" font-size="11" lengthAdjust="spacing" text-decoration="underline" textLength="167" x="619" y="398.8198">prepareStackTrace : Function</text><ellipse cx="610" cy="408.4141" rx="3" ry="3" style="stroke:#038048;stroke-width:1.0;fill:none;"/><text fill="#000000" font-family="sans-serif" font-size="11" lengthAdjust="spacing" textLength="75" x="619" y="411.6245">stack : string</text><ellipse cx="610" cy="421.2188" rx="3" ry="3" style="stroke:#038048;stroke-width:1.0;fill:none;"/><text fill="#000000" font-family="sans-serif" font-size="11" lengthAdjust="spacing" text-decoration="underline" textLength="145" x="619" y="424.4292">stackTraceLimit : number</text><line style="stroke:#A80036;stroke-width:1.5;" x1="600" x2="1033" y1="431.0234" y2="431.0234"/><ellipse cx="610" cy="442.0234" fill="#84BE84" rx="3" ry="3" style="stroke:#038048;stroke-width:1.0;"/><text fill="#000000" font-family="sans-serif" font-size="11" lengthAdjust="spacing" text-decoration="underline" textLength="409" x="619" y="445.2339">captureStackTrace(targetObject: object, constructorOpt: Function) : void</text><!--MD5=[114b993d6b327866511a8d75cccf5c50]
class SceneVerificationViolation--><rect codeLine="43" fill="#FEFECE" filter="url(#fdv9ugdz5jlz0)" height="124.8281" id="SceneVerificationViolation" style="stroke:#A80036;stroke-width:1.5;" width="435" x="599" y="487"/><ellipse cx="730.75" cy="503" fill="#ADD1B2" rx="11" ry="11" style="stroke:#A80036;stroke-width:1.0;"/><path d="M733.7188,508.6406 Q733.1406,508.9375 732.5,509.0781 Q731.8594,509.2344 731.1563,509.2344 Q728.6563,509.2344 727.3281,507.5938 Q726.0156,505.9375 726.0156,502.8125 Q726.0156,499.6875 727.3281,498.0313 Q728.6563,496.375 731.1563,496.375 Q731.8594,496.375 732.5,496.5313 Q733.1563,496.6875 733.7188,496.9844 L733.7188,499.7031 Q733.0938,499.125 732.5,498.8594 Q731.9063,498.5781 731.2813,498.5781 Q729.9375,498.5781 729.25,499.6563 Q728.5625,500.7188 728.5625,502.8125 Q728.5625,504.9063 729.25,505.9844 Q729.9375,507.0469 731.2813,507.0469 Q731.9063,507.0469 732.5,506.7813 Q733.0938,506.5 733.7188,505.9219 L733.7188,508.6406 Z " fill="#000000"/><text fill="#000000" font-family="sans-serif" font-size="12" lengthAdjust="spacing" textLength="163" x="751.25" y="507.1543">SceneVerificationViolation</text><line style="stroke:#A80036;stroke-width:1.5;" x1="600" x2="1033" y1="519" y2="519"/><ellipse cx="610" cy="530" rx="3" ry="3" style="stroke:#038048;stroke-width:1.0;fill:none;"/><text fill="#000000" font-family="sans-serif" font-size="11" lengthAdjust="spacing" textLength="98" x="619" y="533.2104">message : string</text><ellipse cx="610" cy="542.8047" rx="3" ry="3" style="stroke:#038048;stroke-width:1.0;fill:none;"/><text fill="#000000" font-family="sans-serif" font-size="11" lengthAdjust="spacing" textLength="77" x="619" y="546.0151">name : string</text><ellipse cx="610" cy="555.6094" rx="3" ry="3" style="stroke:#038048;stroke-width:1.0;fill:none;"/><text fill="#000000" font-family="sans-serif" font-size="11" lengthAdjust="spacing" text-decoration="underline" textLength="167" x="619" y="558.8198">prepareStackTrace : Function</text><ellipse cx="610" cy="568.4141" rx="3" ry="3" style="stroke:#038048;stroke-width:1.0;fill:none;"/><text fill="#000000" font-family="sans-serif" font-size="11" lengthAdjust="spacing" textLength="75" x="619" y="571.6245">stack : string</text><ellipse cx="610" cy="581.2188" rx="3" ry="3" style="stroke:#038048;stroke-width:1.0;fill:none;"/><text fill="#000000" font-family="sans-serif" font-size="11" lengthAdjust="spacing" text-decoration="underline" textLength="145" x="619" y="584.4292">stackTraceLimit : number</text><line style="stroke:#A80036;stroke-width:1.5;" x1="600" x2="1033" y1="591.0234" y2="591.0234"/><ellipse cx="610" cy="602.0234" fill="#84BE84" rx="3" ry="3" style="stroke:#038048;stroke-width:1.0;"/><text fill="#000000" font-family="sans-serif" font-size="11" lengthAdjust="spacing" text-decoration="underline" textLength="409" x="619" y="605.2339">captureStackTrace(targetObject: object, constructorOpt: Function) : void</text><!--MD5=[23505c2363aa9f569ad8cd7644413875]
class ComponentVerificationViolation--><rect codeLine="52" fill="#FEFECE" filter="url(#fdv9ugdz5jlz0)" height="124.8281" id="ComponentVerificationViolation" style="stroke:#A80036;stroke-width:1.5;" width="435" x="599" y="647"/><ellipse cx="714.25" cy="663" fill="#ADD1B2" rx="11" ry="11" style="stroke:#A80036;stroke-width:1.0;"/><path d="M717.2188,668.6406 Q716.6406,668.9375 716,669.0781 Q715.3594,669.2344 714.6563,669.2344 Q712.1563,669.2344 710.8281,667.5938 Q709.5156,665.9375 709.5156,662.8125 Q709.5156,659.6875 710.8281,658.0313 Q712.1563,656.375 714.6563,656.375 Q715.3594,656.375 716,656.5313 Q716.6563,656.6875 717.2188,656.9844 L717.2188,659.7031 Q716.5938,659.125 716,658.8594 Q715.4063,658.5781 714.7813,658.5781 Q713.4375,658.5781 712.75,659.6563 Q712.0625,660.7188 712.0625,662.8125 Q712.0625,664.9063 712.75,665.9844 Q713.4375,667.0469 714.7813,667.0469 Q715.4063,667.0469 716,666.7813 Q716.5938,666.5 717.2188,665.9219 L717.2188,668.6406 Z " fill="#000000"/><text fill="#000000" font-family="sans-serif" font-size="12" lengthAdjust="spacing" textLength="196" x="734.75" y="667.1543">ComponentVerificationViolation</text><line style="stroke:#A80036;stroke-width:1.5;" x1="600" x2="1033" y1="679" y2="679"/><ellipse cx="610" cy="690" rx="3" ry="3" style="stroke:#038048;stroke-width:1.0;fill:none;"/><text fill="#000000" font-family="sans-serif" font-size="11" lengthAdjust="spacing" textLength="98" x="619" y="693.2104">message : string</text><ellipse cx="610" cy="702.8047" rx="3" ry="3" style="stroke:#038048;stroke-width:1.0;fill:none;"/><text fill="#000000" font-family="sans-serif" font-size="11" lengthAdjust="spacing" textLength="77" x="619" y="706.0151">name : string</text><ellipse cx="610" cy="715.6094" rx="3" ry="3" style="stroke:#038048;stroke-width:1.0;fill:none;"/><text fill="#000000" font-family="sans-serif" font-size="11" lengthAdjust="spacing" text-decoration="underline" textLength="167" x="619" y="718.8198">prepareStackTrace : Function</text><ellipse cx="610" cy="728.4141" rx="3" ry="3" style="stroke:#038048;stroke-width:1.0;fill:none;"/><text fill="#000000" font-family="sans-serif" font-size="11" lengthAdjust="spacing" textLength="75" x="619" y="731.6245">stack : string</text><ellipse cx="610" cy="741.2188" rx="3" ry="3" style="stroke:#038048;stroke-width:1.0;fill:none;"/><text fill="#000000" font-family="sans-serif" font-size="11" lengthAdjust="spacing" text-decoration="underline" textLength="145" x="619" y="744.4292">stackTraceLimit : number</text><line style="stroke:#A80036;stroke-width:1.5;" x1="600" x2="1033" y1="751.0234" y2="751.0234"/><ellipse cx="610" cy="762.0234" fill="#84BE84" rx="3" ry="3" style="stroke:#038048;stroke-width:1.0;"/><text fill="#000000" font-family="sans-serif" font-size="11" lengthAdjust="spacing" text-decoration="underline" textLength="409" x="619" y="765.2339">captureStackTrace(targetObject: object, constructorOpt: Function) : void</text><!--MD5=[1a49a7ec223319d5833defa887e340fc]
class AmbiguousCrossSceneReference--><rect codeLine="61" fill="#FEFECE" filter="url(#fdv9ugdz5jlz0)" height="124.8281" id="AmbiguousCrossSceneReference" style="stroke:#A80036;stroke-width:1.5;" width="435" x="599" y="807"/><ellipse cx="708.75" cy="823" fill="#ADD1B2" rx="11" ry="11" style="stroke:#A80036;stroke-width:1.0;"/><path d="M711.7188,828.6406 Q711.1406,828.9375 710.5,829.0781 Q709.8594,829.2344 709.1563,829.2344 Q706.6563,829.2344 705.3281,827.5938 Q704.0156,825.9375 704.0156,822.8125 Q704.0156,819.6875 705.3281,818.0313 Q706.6563,816.375 709.1563,816.375 Q709.8594,816.375 710.5,816.5313 Q711.1563,816.6875 711.7188,816.9844 L711.7188,819.7031 Q711.0938,819.125 710.5,818.8594 Q709.9063,818.5781 709.2813,818.5781 Q707.9375,818.5781 707.25,819.6563 Q706.5625,820.7188 706.5625,822.8125 Q706.5625,824.9063 707.25,825.9844 Q707.9375,827.0469 709.2813,827.0469 Q709.9063,827.0469 710.5,826.7813 Q711.0938,826.5 711.7188,825.9219 L711.7188,828.6406 Z " fill="#000000"/><text fill="#000000" font-family="sans-serif" font-size="12" lengthAdjust="spacing" textLength="207" x="729.25" y="827.1543">AmbiguousCrossSceneReference</text><line style="stroke:#A80036;stroke-width:1.5;" x1="600" x2="1033" y1="839" y2="839"/><ellipse cx="610" cy="850" rx="3" ry="3" style="stroke:#038048;stroke-width:1.0;fill:none;"/><text fill="#000000" font-family="sans-serif" font-size="11" lengthAdjust="spacing" textLength="98" x="619" y="853.2104">message : string</text><ellipse cx="610" cy="862.8047" rx="3" ry="3" style="stroke:#038048;stroke-width:1.0;fill:none;"/><text fill="#000000" font-family="sans-serif" font-size="11" lengthAdjust="spacing" textLength="77" x="619" y="866.0151">name : string</text><ellipse cx="610" cy="875.6094" rx="3" ry="3" style="stroke:#038048;stroke-width:1.0;fill:none;"/><text fill="#000000" font-family="sans-serif" font-size="11" lengthAdjust="spacing" text-decoration="underline" textLength="167" x="619" y="878.8198">prepareStackTrace : Function</text><ellipse cx="610" cy="888.4141" rx="3" ry="3" style="stroke:#038048;stroke-width:1.0;fill:none;"/><text fill="#000000" font-family="sans-serif" font-size="11" lengthAdjust="spacing" textLength="75" x="619" y="891.6245">stack : string</text><ellipse cx="610" cy="901.2188" rx="3" ry="3" style="stroke:#038048;stroke-width:1.0;fill:none;"/><text fill="#000000" font-family="sans-serif" font-size="11" lengthAdjust="spacing" text-decoration="underline" textLength="145" x="619" y="904.4292">stackTraceLimit : number</text><line style="stroke:#A80036;stroke-width:1.5;" x1="600" x2="1033" y1="911.0234" y2="911.0234"/><ellipse cx="610" cy="922.0234" fill="#84BE84" rx="3" ry="3" style="stroke:#038048;stroke-width:1.0;"/><text fill="#000000" font-family="sans-serif" font-size="11" lengthAdjust="spacing" text-decoration="underline" textLength="409" x="619" y="925.2339">captureStackTrace(targetObject: object, constructorOpt: Function) : void</text><!--MD5=[6b62ce995880f604ec1a00aee76bc2c8]
class DuplicateComponentScenePair--><rect codeLine="70" fill="#FEFECE" filter="url(#fdv9ugdz5jlz0)" height="124.8281" id="DuplicateComponentScenePair" style="stroke:#A80036;stroke-width:1.5;" width="435" x="599" y="967"/><ellipse cx="715.25" cy="983" fill="#ADD1B2" rx="11" ry="11" style="stroke:#A80036;stroke-width:1.0;"/><path d="M718.2188,988.6406 Q717.6406,988.9375 717,989.0781 Q716.3594,989.2344 715.6563,989.2344 Q713.1563,989.2344 711.8281,987.5938 Q710.5156,985.9375 710.5156,982.8125 Q710.5156,979.6875 711.8281,978.0313 Q713.1563,976.375 715.6563,976.375 Q716.3594,976.375 717,976.5313 Q717.6563,976.6875 718.2188,976.9844 L718.2188,979.7031 Q717.5938,979.125 717,978.8594 Q716.4063,978.5781 715.7813,978.5781 Q714.4375,978.5781 713.75,979.6563 Q713.0625,980.7188 713.0625,982.8125 Q713.0625,984.9063 713.75,985.9844 Q714.4375,987.0469 715.7813,987.0469 Q716.4063,987.0469 717,986.7813 Q717.5938,986.5 718.2188,985.9219 L718.2188,988.6406 Z " fill="#000000"/><text fill="#000000" font-family="sans-serif" font-size="12" lengthAdjust="spacing" textLength="194" x="735.75" y="987.1543">DuplicateComponentScenePair</text><line style="stroke:#A80036;stroke-width:1.5;" x1="600" x2="1033" y1="999" y2="999"/><ellipse cx="610" cy="1010" rx="3" ry="3" style="stroke:#038048;stroke-width:1.0;fill:none;"/><text fill="#000000" font-family="sans-serif" font-size="11" lengthAdjust="spacing" textLength="98" x="619" y="1013.2104">message : string</text><ellipse cx="610" cy="1022.8047" rx="3" ry="3" style="stroke:#038048;stroke-width:1.0;fill:none;"/><text fill="#000000" font-family="sans-serif" font-size="11" lengthAdjust="spacing" textLength="77" x="619" y="1026.0151">name : string</text><ellipse cx="610" cy="1035.6094" rx="3" ry="3" style="stroke:#038048;stroke-width:1.0;fill:none;"/><text fill="#000000" font-family="sans-serif" font-size="11" lengthAdjust="spacing" text-decoration="underline" textLength="167" x="619" y="1038.8198">prepareStackTrace : Function</text><ellipse cx="610" cy="1048.4141" rx="3" ry="3" style="stroke:#038048;stroke-width:1.0;fill:none;"/><text fill="#000000" font-family="sans-serif" font-size="11" lengthAdjust="spacing" textLength="75" x="619" y="1051.6245">stack : string</text><ellipse cx="610" cy="1061.2188" rx="3" ry="3" style="stroke:#038048;stroke-width:1.0;fill:none;"/><text fill="#000000" font-family="sans-serif" font-size="11" lengthAdjust="spacing" text-decoration="underline" textLength="145" x="619" y="1064.4292">stackTraceLimit : number</text><line style="stroke:#A80036;stroke-width:1.5;" x1="600" x2="1033" y1="1071.0234" y2="1071.0234"/><ellipse cx="610" cy="1082.0234" fill="#84BE84" rx="3" ry="3" style="stroke:#038048;stroke-width:1.0;"/><text fill="#000000" font-family="sans-serif" font-size="11" lengthAdjust="spacing" text-decoration="underline" textLength="409" x="619" y="1085.2339">captureStackTrace(targetObject: object, constructorOpt: Function) : void</text><!--MD5=[8f1117c6285cc7678b3b63862a7182f2]
reverse link Error to Exception--><path codeLine="15" d="M64.39,549.5 C75.82,549.5 89.27,549.5 103.92,549.5 " fill="none" id="Error-backto-Exception" style="stroke:#A80036;stroke-width:1.0;"/><polygon fill="none" points="64.01,556.5,44.01,549.5,64.01,542.5,64.01,556.5" style="stroke:#A80036;stroke-width:1.0;"/><!--MD5=[506cfc9b40a92a5bbf2b6c36cafb57cc]
reverse link Exception to InvalidTokenName--><path codeLine="24" d="M359.47,468.75 C404.31,379.11 487.9,235.72 599,149.5 C607.07,143.24 615.68,137.43 624.65,132.04 " fill="none" id="Exception-backto-InvalidTokenName" style="stroke:#A80036;stroke-width:1.0;"/><polygon fill="none" points="365.73,471.89,350.62,486.75,353.16,465.72,365.73,471.89" style="stroke:#A80036;stroke-width:1.0;"/><!--MD5=[88bf2233eea0a69e64ca8d0f4c5637b4]
reverse link Exception to CyclicComponentTokenPair--><path codeLine="33" d="M395.66,472.8 C448.3,421.11 523.12,354.41 599,309.5 C609.43,303.33 620.42,297.49 631.69,292.01 " fill="none" id="Exception-backto-CyclicComponentTokenPair" style="stroke:#A80036;stroke-width:1.0;"/><polygon fill="none" points="400.54,477.82,381.42,486.96,390.67,467.89,400.54,477.82" style="stroke:#A80036;stroke-width:1.0;"/><!--MD5=[6349d4b9f1175148240a1af64064491e]
reverse link Exception to CyclicDependencyResolver--><path codeLine="42" d="M534.43,480.72 C563.83,471.18 593.89,461.42 622.91,452 " fill="none" id="Exception-backto-CyclicDependencyResolver" style="stroke:#A80036;stroke-width:1.0;"/><polygon fill="none" points="536.41,487.44,515.22,486.95,532.09,474.12,536.41,487.44" style="stroke:#A80036;stroke-width:1.0;"/><!--MD5=[afb2b8f4fc6d3703db10170e1c70c869]
reverse link Exception to SceneVerificationViolation--><path codeLine="51" d="M559.1,549.5 C572.31,549.5 585.56,549.5 598.69,549.5 " fill="none" id="Exception-backto-SceneVerificationViolation" style="stroke:#A80036;stroke-width:1.0;"/><polygon fill="none" points="559.1,556.5,539.1,549.5,559.1,542.5,559.1,556.5" style="stroke:#A80036;stroke-width:1.0;"/><!--MD5=[4b1d51a4adcc369592a50db4b1bdf62c]
reverse link Exception to ComponentVerificationViolation--><path codeLine="60" d="M534.43,618.28 C563.83,627.82 593.89,637.58 622.91,647 " fill="none" id="Exception-backto-ComponentVerificationViolation" style="stroke:#A80036;stroke-width:1.0;"/><polygon fill="none" points="532.09,624.88,515.22,612.05,536.41,611.56,532.09,624.88" style="stroke:#A80036;stroke-width:1.0;"/><!--MD5=[f92f1492294c758f751a7d6069ac70b7]
reverse link Exception to AmbiguousCrossSceneReference--><path codeLine="69" d="M395.66,626.2 C448.3,677.89 523.12,744.59 599,789.5 C609.43,795.67 620.42,801.51 631.69,806.99 " fill="none" id="Exception-backto-AmbiguousCrossSceneReference" style="stroke:#A80036;stroke-width:1.0;"/><polygon fill="none" points="390.67,631.11,381.42,612.04,400.54,621.18,390.67,631.11" style="stroke:#A80036;stroke-width:1.0;"/><!--MD5=[4fd3fca13f1465a7603cdd2def7f87ca]
reverse link Exception to DuplicateComponentScenePair--><path codeLine="78" d="M359.47,630.25 C404.31,719.89 487.9,863.28 599,949.5 C607.07,955.76 615.68,961.57 624.65,966.96 " fill="none" id="Exception-backto-DuplicateComponentScenePair" style="stroke:#A80036;stroke-width:1.0;"/><polygon fill="none" points="353.16,633.28,350.62,612.25,365.73,627.11,353.16,633.28" style="stroke:#A80036;stroke-width:1.0;"/><!--MD5=[0c35ee1ea05ab39603f267ffa4fd8d1b]
@startuml
skinparam BackgroundColor transparent
left to right direction
hide empty methods
hide empty fields
class "Exception" {
    +message : string
    +name : string
    {static} +prepareStackTrace : Function
    +stack : string
    {static} +stackTraceLimit : number
    {static} +captureStackTrace(targetObject: object, constructorOpt: Function) : void
}
class "Error"
hide "Error" circle
"Error" <|- - "Exception"
class "InvalidTokenName" {
    +message : string
    +name : string
    {static} +prepareStackTrace : Function
    +stack : string
    {static} +stackTraceLimit : number
    {static} +captureStackTrace(targetObject: object, constructorOpt: Function) : void
}
"Exception" <|- - "InvalidTokenName"
class "CyclicComponentTokenPair" {
    +message : string
    +name : string
    {static} +prepareStackTrace : Function
    +stack : string
    {static} +stackTraceLimit : number
    {static} +captureStackTrace(targetObject: object, constructorOpt: Function) : void
}
"Exception" <|- - "CyclicComponentTokenPair"
class "CyclicDependencyResolver" {
    +message : string
    +name : string
    {static} +prepareStackTrace : Function
    +stack : string
    {static} +stackTraceLimit : number
    {static} +captureStackTrace(targetObject: object, constructorOpt: Function) : void
}
"Exception" <|- - "CyclicDependencyResolver"
class "SceneVerificationViolation" {
    +message : string
    +name : string
    {static} +prepareStackTrace : Function
    +stack : string
    {static} +stackTraceLimit : number
    {static} +captureStackTrace(targetObject: object, constructorOpt: Function) : void
}
"Exception" <|- - "SceneVerificationViolation"
class "ComponentVerificationViolation" {
    +message : string
    +name : string
    {static} +prepareStackTrace : Function
    +stack : string
    {static} +stackTraceLimit : number
    {static} +captureStackTrace(targetObject: object, constructorOpt: Function) : void
}
"Exception" <|- - "ComponentVerificationViolation"
class "AmbiguousCrossSceneReference" {
    +message : string
    +name : string
    {static} +prepareStackTrace : Function
    +stack : string
    {static} +stackTraceLimit : number
    {static} +captureStackTrace(targetObject: object, constructorOpt: Function) : void
}
"Exception" <|- - "AmbiguousCrossSceneReference"
class "DuplicateComponentScenePair" {
    +message : string
    +name : string
    {static} +prepareStackTrace : Function
    +stack : string
    {static} +stackTraceLimit : number
    {static} +captureStackTrace(targetObject: object, constructorOpt: Function) : void
}
"Exception" <|- - "DuplicateComponentScenePair"
@enduml

PlantUML version 1.2021.14(Fri Nov 12 16:46:50 UTC 2021)
(GPL source distribution)
Java Runtime: OpenJDK Runtime Environment
JVM: OpenJDK 64-Bit Server VM
Default Encoding: UTF-8
Language: en
Country: null
--></g></svg>