<?xml version="1.0" encoding="UTF-8" standalone="no"?><svg xmlns="http://www.w3.org/2000/svg" xmlns:xlink="http://www.w3.org/1999/xlink" contentScriptType="application/ecmascript" contentStyleType="text/css" height="502px" preserveAspectRatio="none" style="width:1072px;height:502px;background:#00000000;" version="1.1" viewBox="0 0 1072 502" width="1072px" zoomAndPan="magnify"><defs><filter height="300%" id="f1nofxju326ooa" width="300%" x="-1" y="-1"><feGaussianBlur result="blurOut" stdDeviation="2.0"/><feColorMatrix in="blurOut" result="blurOut2" type="matrix" values="0 0 0 0 0 0 0 0 0 0 0 0 0 0 0 0 0 0 .4 0"/><feOffset dx="4.0" dy="4.0" in="blurOut2" result="blurOut3"/><feBlend in="SourceGraphic" in2="blurOut3" mode="normal"/></filter></defs><g><!--MD5=[946cf32c4909f60ec87eb8fd56ac8dfa]
class FileSystemComponent--><rect codeLine="4" fill="#FEFECE" filter="url(#f1nofxju326ooa)" height="124.8281" id="FileSystemComponent" style="stroke:#A80036;stroke-width:1.5;" width="331" x="367" y="166"/><ellipse cx="459.25" cy="182" fill="#A9DCDF" rx="11" ry="11" style="stroke:#A80036;stroke-width:1.0;"/><path d="M459.3594,177.3438 L458.2031,182.4219 L460.5313,182.4219 L459.3594,177.3438 Z M457.875,175.1094 L460.8594,175.1094 L464.2188,187.5 L461.7656,187.5 L461,184.4375 L457.7188,184.4375 L456.9688,187.5 L454.5313,187.5 L457.875,175.1094 Z " fill="#000000"/><text fill="#000000" font-family="sans-serif" font-size="12" font-style="italic" lengthAdjust="spacing" textLength="138" x="479.75" y="186.1543">FileSystemComponent</text><line style="stroke:#A80036;stroke-width:1.5;" x1="368" x2="697" y1="198" y2="198"/><ellipse cx="378" cy="209" rx="3" ry="3" style="stroke:#038048;stroke-width:1.0;fill:none;"/><text fill="#000000" font-family="sans-serif" font-size="11" lengthAdjust="spacing" textLength="95" x="387" y="212.2104">directory : string</text><ellipse cx="378" cy="221.8047" rx="3" ry="3" style="stroke:#038048;stroke-width:1.0;fill:none;"/><text fill="#000000" font-family="sans-serif" font-size="11" lengthAdjust="spacing" textLength="77" x="387" y="225.0151">name : string</text><ellipse cx="378" cy="234.6094" rx="3" ry="3" style="stroke:#038048;stroke-width:1.0;fill:none;"/><text fill="#000000" font-family="sans-serif" font-size="11" lengthAdjust="spacing" textLength="163" x="387" y="237.8198">[ComponentHandle] : Handle</text><line style="stroke:#A80036;stroke-width:1.5;" x1="368" x2="697" y1="244.4141" y2="244.4141"/><ellipse cx="378" cy="255.4141" fill="#84BE84" rx="3" ry="3" style="stroke:#038048;stroke-width:1.0;"/><text fill="#000000" font-family="sans-serif" font-size="11" font-style="italic" lengthAdjust="spacing" textLength="305" x="387" y="258.6245">[ComponentRender](out: any) : void | Promise&lt;void&gt;</text><ellipse cx="378" cy="268.2188" fill="#84BE84" rx="3" ry="3" style="stroke:#038048;stroke-width:1.0;"/><text fill="#000000" font-family="sans-serif" font-size="11" lengthAdjust="spacing" textLength="221" x="387" y="271.4292">[ComponentUpdate]() : Promise&lt;void&gt;</text><ellipse cx="378" cy="281.0234" fill="#84BE84" rx="3" ry="3" style="stroke:#038048;stroke-width:1.0;"/><text fill="#000000" font-family="sans-serif" font-size="11" lengthAdjust="spacing" textLength="248" x="387" y="284.2339">[ComponentVerify]() : void | Promise&lt;void&gt;</text><!--MD5=[4e13963c9dc916a21a8436ef39422b32]
class Component--><rect codeLine="12" fill="#FEFECE" filter="url(#f1nofxju326ooa)" height="99.2188" id="Component" style="stroke:#A80036;stroke-width:1.5;" width="331" x="367" y="7"/><ellipse cx="492.25" cy="23" fill="#A9DCDF" rx="11" ry="11" style="stroke:#A80036;stroke-width:1.0;"/><path d="M492.3594,18.3438 L491.2031,23.4219 L493.5313,23.4219 L492.3594,18.3438 Z M490.875,16.1094 L493.8594,16.1094 L497.2188,28.5 L494.7656,28.5 L494,25.4375 L490.7188,25.4375 L489.9688,28.5 L487.5313,28.5 L490.875,16.1094 Z " fill="#000000"/><text fill="#000000" font-family="sans-serif" font-size="12" font-style="italic" lengthAdjust="spacing" textLength="72" x="512.75" y="27.1543">Component</text><line style="stroke:#A80036;stroke-width:1.5;" x1="368" x2="697" y1="39" y2="39"/><ellipse cx="378" cy="50" rx="3" ry="3" style="stroke:#038048;stroke-width:1.0;fill:none;"/><text fill="#000000" font-family="sans-serif" font-size="11" lengthAdjust="spacing" textLength="163" x="387" y="53.2104">[ComponentHandle] : Handle</text><line style="stroke:#A80036;stroke-width:1.5;" x1="368" x2="697" y1="59.8047" y2="59.8047"/><ellipse cx="378" cy="70.8047" fill="#84BE84" rx="3" ry="3" style="stroke:#038048;stroke-width:1.0;"/><text fill="#000000" font-family="sans-serif" font-size="11" font-style="italic" lengthAdjust="spacing" textLength="305" x="387" y="74.0151">[ComponentRender](out: any) : void | Promise&lt;void&gt;</text><ellipse cx="378" cy="83.6094" fill="#84BE84" rx="3" ry="3" style="stroke:#038048;stroke-width:1.0;"/><text fill="#000000" font-family="sans-serif" font-size="11" lengthAdjust="spacing" textLength="221" x="387" y="86.8198">[ComponentUpdate]() : Promise&lt;void&gt;</text><ellipse cx="378" cy="96.4141" fill="#84BE84" rx="3" ry="3" style="stroke:#038048;stroke-width:1.0;"/><text fill="#000000" font-family="sans-serif" font-size="11" lengthAdjust="spacing" textLength="248" x="387" y="99.6245">[ComponentVerify]() : void | Promise&lt;void&gt;</text><!--MD5=[3fed11c3e57101741c7916d75e588464]
class TextFile--><rect codeLine="19" fill="#FEFECE" filter="url(#f1nofxju326ooa)" height="137.6328" id="TextFile" style="stroke:#A80036;stroke-width:1.5;" width="327" x="7" y="351"/><ellipse cx="142.25" cy="367" fill="#A9DCDF" rx="11" ry="11" style="stroke:#A80036;stroke-width:1.0;"/><path d="M142.3594,362.3438 L141.2031,367.4219 L143.5313,367.4219 L142.3594,362.3438 Z M140.875,360.1094 L143.8594,360.1094 L147.2188,372.5 L144.7656,372.5 L144,369.4375 L140.7188,369.4375 L139.9688,372.5 L137.5313,372.5 L140.875,360.1094 Z " fill="#000000"/><text fill="#000000" font-family="sans-serif" font-size="12" font-style="italic" lengthAdjust="spacing" textLength="48" x="162.75" y="371.1543">TextFile</text><line style="stroke:#A80036;stroke-width:1.5;" x1="8" x2="333" y1="383" y2="383"/><ellipse cx="18" cy="394" rx="3" ry="3" style="stroke:#038048;stroke-width:1.0;fill:none;"/><text fill="#000000" font-family="sans-serif" font-size="11" lengthAdjust="spacing" textLength="87" x="27" y="397.2104">content : string</text><ellipse cx="18" cy="406.8047" rx="3" ry="3" style="stroke:#038048;stroke-width:1.0;fill:none;"/><text fill="#000000" font-family="sans-serif" font-size="11" lengthAdjust="spacing" textLength="95" x="27" y="410.0151">directory : string</text><ellipse cx="18" cy="419.6094" rx="3" ry="3" style="stroke:#038048;stroke-width:1.0;fill:none;"/><text fill="#000000" font-family="sans-serif" font-size="11" lengthAdjust="spacing" textLength="77" x="27" y="422.8198">name : string</text><ellipse cx="18" cy="432.4141" rx="3" ry="3" style="stroke:#038048;stroke-width:1.0;fill:none;"/><text fill="#000000" font-family="sans-serif" font-size="11" lengthAdjust="spacing" textLength="163" x="27" y="435.6245">[ComponentHandle] : Handle</text><line style="stroke:#A80036;stroke-width:1.5;" x1="8" x2="333" y1="442.2188" y2="442.2188"/><ellipse cx="18" cy="453.2188" fill="#84BE84" rx="3" ry="3" style="stroke:#038048;stroke-width:1.0;"/><text fill="#000000" font-family="sans-serif" font-size="11" lengthAdjust="spacing" textLength="301" x="27" y="456.4292">[ComponentRender](out: __module) : Promise&lt;void&gt;</text><ellipse cx="18" cy="466.0234" fill="#84BE84" rx="3" ry="3" style="stroke:#038048;stroke-width:1.0;"/><text fill="#000000" font-family="sans-serif" font-size="11" lengthAdjust="spacing" textLength="221" x="27" y="469.2339">[ComponentUpdate]() : Promise&lt;void&gt;</text><ellipse cx="18" cy="478.8281" fill="#84BE84" rx="3" ry="3" style="stroke:#038048;stroke-width:1.0;"/><text fill="#000000" font-family="sans-serif" font-size="11" lengthAdjust="spacing" textLength="248" x="27" y="482.0386">[ComponentVerify]() : void | Promise&lt;void&gt;</text><!--MD5=[715128bba345a62fb0ee618baa868826]
class JsonFile--><rect codeLine="29" fill="#FEFECE" filter="url(#f1nofxju326ooa)" height="137.6328" id="JsonFile" style="stroke:#A80036;stroke-width:1.5;" width="327" x="369" y="351"/><ellipse cx="504.75" cy="367" fill="#A9DCDF" rx="11" ry="11" style="stroke:#A80036;stroke-width:1.0;"/><path d="M504.8594,362.3438 L503.7031,367.4219 L506.0313,367.4219 L504.8594,362.3438 Z M503.375,360.1094 L506.3594,360.1094 L509.7188,372.5 L507.2656,372.5 L506.5,369.4375 L503.2188,369.4375 L502.4688,372.5 L500.0313,372.5 L503.375,360.1094 Z " fill="#000000"/><text fill="#000000" font-family="sans-serif" font-size="12" font-style="italic" lengthAdjust="spacing" textLength="47" x="525.25" y="371.1543">JsonFile</text><line style="stroke:#A80036;stroke-width:1.5;" x1="370" x2="695" y1="383" y2="383"/><ellipse cx="380" cy="394" rx="3" ry="3" style="stroke:#038048;stroke-width:1.0;fill:none;"/><text fill="#000000" font-family="sans-serif" font-size="11" lengthAdjust="spacing" textLength="57" x="389" y="397.2104">data : any</text><ellipse cx="380" cy="406.8047" rx="3" ry="3" style="stroke:#038048;stroke-width:1.0;fill:none;"/><text fill="#000000" font-family="sans-serif" font-size="11" lengthAdjust="spacing" textLength="95" x="389" y="410.0151">directory : string</text><ellipse cx="380" cy="419.6094" rx="3" ry="3" style="stroke:#038048;stroke-width:1.0;fill:none;"/><text fill="#000000" font-family="sans-serif" font-size="11" lengthAdjust="spacing" textLength="77" x="389" y="422.8198">name : string</text><ellipse cx="380" cy="432.4141" rx="3" ry="3" style="stroke:#038048;stroke-width:1.0;fill:none;"/><text fill="#000000" font-family="sans-serif" font-size="11" lengthAdjust="spacing" textLength="163" x="389" y="435.6245">[ComponentHandle] : Handle</text><line style="stroke:#A80036;stroke-width:1.5;" x1="370" x2="695" y1="442.2188" y2="442.2188"/><ellipse cx="380" cy="453.2188" fill="#84BE84" rx="3" ry="3" style="stroke:#038048;stroke-width:1.0;"/><text fill="#000000" font-family="sans-serif" font-size="11" lengthAdjust="spacing" textLength="301" x="389" y="456.4292">[ComponentRender](out: __module) : Promise&lt;void&gt;</text><ellipse cx="380" cy="466.0234" fill="#84BE84" rx="3" ry="3" style="stroke:#038048;stroke-width:1.0;"/><text fill="#000000" font-family="sans-serif" font-size="11" lengthAdjust="spacing" textLength="221" x="389" y="469.2339">[ComponentUpdate]() : Promise&lt;void&gt;</text><ellipse cx="380" cy="478.8281" fill="#84BE84" rx="3" ry="3" style="stroke:#038048;stroke-width:1.0;"/><text fill="#000000" font-family="sans-serif" font-size="11" lengthAdjust="spacing" textLength="248" x="389" y="482.0386">[ComponentVerify]() : void | Promise&lt;void&gt;</text><!--MD5=[d1dcc9c41ef051a777528f9336a950e3]
class Folder--><rect codeLine="39" fill="#FEFECE" filter="url(#f1nofxju326ooa)" height="137.6328" id="Folder" style="stroke:#A80036;stroke-width:1.5;" width="327" x="731" y="351"/><ellipse cx="870.75" cy="367" fill="#A9DCDF" rx="11" ry="11" style="stroke:#A80036;stroke-width:1.0;"/><path d="M870.8594,362.3438 L869.7031,367.4219 L872.0313,367.4219 L870.8594,362.3438 Z M869.375,360.1094 L872.3594,360.1094 L875.7188,372.5 L873.2656,372.5 L872.5,369.4375 L869.2188,369.4375 L868.4688,372.5 L866.0313,372.5 L869.375,360.1094 Z " fill="#000000"/><text fill="#000000" font-family="sans-serif" font-size="12" font-style="italic" lengthAdjust="spacing" textLength="39" x="891.25" y="371.1543">Folder</text><line style="stroke:#A80036;stroke-width:1.5;" x1="732" x2="1057" y1="383" y2="383"/><ellipse cx="742" cy="394" rx="3" ry="3" style="stroke:#038048;stroke-width:1.0;fill:none;"/><text fill="#000000" font-family="sans-serif" font-size="11" lengthAdjust="spacing" textLength="95" x="751" y="397.2104">directory : string</text><ellipse cx="742" cy="406.8047" rx="3" ry="3" style="stroke:#038048;stroke-width:1.0;fill:none;"/><text fill="#000000" font-family="sans-serif" font-size="11" lengthAdjust="spacing" textLength="98" x="751" y="410.0151">gitkeep : boolean</text><ellipse cx="742" cy="419.6094" rx="3" ry="3" style="stroke:#038048;stroke-width:1.0;fill:none;"/><text fill="#000000" font-family="sans-serif" font-size="11" lengthAdjust="spacing" textLength="77" x="751" y="422.8198">name : string</text><ellipse cx="742" cy="432.4141" rx="3" ry="3" style="stroke:#038048;stroke-width:1.0;fill:none;"/><text fill="#000000" font-family="sans-serif" font-size="11" lengthAdjust="spacing" textLength="163" x="751" y="435.6245">[ComponentHandle] : Handle</text><line style="stroke:#A80036;stroke-width:1.5;" x1="732" x2="1057" y1="442.2188" y2="442.2188"/><ellipse cx="742" cy="453.2188" fill="#84BE84" rx="3" ry="3" style="stroke:#038048;stroke-width:1.0;"/><text fill="#000000" font-family="sans-serif" font-size="11" lengthAdjust="spacing" textLength="301" x="751" y="456.4292">[ComponentRender](out: __module) : Promise&lt;void&gt;</text><ellipse cx="742" cy="466.0234" fill="#84BE84" rx="3" ry="3" style="stroke:#038048;stroke-width:1.0;"/><text fill="#000000" font-family="sans-serif" font-size="11" lengthAdjust="spacing" textLength="221" x="751" y="469.2339">[ComponentUpdate]() : Promise&lt;void&gt;</text><ellipse cx="742" cy="478.8281" fill="#84BE84" rx="3" ry="3" style="stroke:#038048;stroke-width:1.0;"/><text fill="#000000" font-family="sans-serif" font-size="11" lengthAdjust="spacing" textLength="248" x="751" y="482.0386">[ComponentVerify]() : void | Promise&lt;void&gt;</text><!--MD5=[d9a29ed4a00d52d05f54626eeca35afc]
reverse link Component to FileSystemComponent--><path codeLine="18" d="M532.5,126.62 C532.5,139.57 532.5,153.03 532.5,165.73 " fill="none" id="Component-backto-FileSystemComponent" style="stroke:#A80036;stroke-width:1.0;"/><polygon fill="none" points="525.5,126.22,532.5,106.22,539.5,126.22,525.5,126.22" style="stroke:#A80036;stroke-width:1.0;"/><!--MD5=[e9c0f2da9c5ccef4608f4755289239d6]
reverse link FileSystemComponent to TextFile--><path codeLine="28" d="M397.14,300.36 C365.54,316.9 331.95,334.48 300.59,350.9 " fill="none" id="FileSystemComponent-backto-TextFile" style="stroke:#A80036;stroke-width:1.0;"/><polygon fill="none" points="394,294.1,414.97,291.03,400.5,306.5,394,294.1" style="stroke:#A80036;stroke-width:1.0;"/><!--MD5=[53795116d30c488577c8abf3c893359e]
reverse link FileSystemComponent to JsonFile--><path codeLine="38" d="M532.5,311.33 C532.5,324.53 532.5,338.07 532.5,350.9 " fill="none" id="FileSystemComponent-backto-JsonFile" style="stroke:#A80036;stroke-width:1.0;"/><polygon fill="none" points="525.5,311.03,532.5,291.03,539.5,311.03,525.5,311.03" style="stroke:#A80036;stroke-width:1.0;"/><!--MD5=[40ea2660ab55c0ee684eaad0582ec93f]
reverse link FileSystemComponent to Folder--><path codeLine="48" d="M667.86,300.36 C699.46,316.9 733.05,334.48 764.41,350.9 " fill="none" id="FileSystemComponent-backto-Folder" style="stroke:#A80036;stroke-width:1.0;"/><polygon fill="none" points="664.5,306.5,650.03,291.03,671,294.1,664.5,306.5" style="stroke:#A80036;stroke-width:1.0;"/><!--MD5=[eb35acdbe318a41447b0f9bd03603dd7]
@startuml
skinparam BackgroundColor transparent
hide empty methods
hide empty fields
abstract class "FileSystemComponent" {
    +directory : string
    +name : string
    +[ComponentHandle] : Handle
    {abstract} +[ComponentRender](out: any) : void | Promise<void>
    +[ComponentUpdate]() : Promise<void>
    +[ComponentVerify]() : void | Promise<void>
}
abstract class "Component" {
    +[ComponentHandle] : Handle
    {abstract} +[ComponentRender](out: any) : void | Promise<void>
    +[ComponentUpdate]() : Promise<void>
    +[ComponentVerify]() : void | Promise<void>
}
"Component" <|- - "FileSystemComponent"
abstract class "TextFile" {
    +content : string
    +directory : string
    +name : string
    +[ComponentHandle] : Handle
    +[ComponentRender](out: __module) : Promise<void>
    +[ComponentUpdate]() : Promise<void>
    +[ComponentVerify]() : void | Promise<void>
}
"FileSystemComponent" <|- - "TextFile"
abstract class "JsonFile" {
    +data : any
    +directory : string
    +name : string
    +[ComponentHandle] : Handle
    +[ComponentRender](out: __module) : Promise<void>
    +[ComponentUpdate]() : Promise<void>
    +[ComponentVerify]() : void | Promise<void>
}
"FileSystemComponent" <|- - "JsonFile"
abstract class "Folder" {
    +directory : string
    +gitkeep : boolean
    +name : string
    +[ComponentHandle] : Handle
    +[ComponentRender](out: __module) : Promise<void>
    +[ComponentUpdate]() : Promise<void>
    +[ComponentVerify]() : void | Promise<void>
}
"FileSystemComponent" <|- - "Folder"
@enduml

PlantUML version 1.2021.14(Fri Nov 12 16:46:50 UTC 2021)
(GPL source distribution)
Java Runtime: OpenJDK Runtime Environment
JVM: OpenJDK 64-Bit Server VM
Default Encoding: UTF-8
Language: en
Country: null
--></g></svg>