<?xml version="1.0" encoding="UTF-8" standalone="no"?><svg xmlns="http://www.w3.org/2000/svg" xmlns:xlink="http://www.w3.org/1999/xlink" contentScriptType="application/ecmascript" contentStyleType="text/css" height="515px" preserveAspectRatio="none" style="width:1255px;height:515px;background:#00000000;" version="1.1" viewBox="0 0 1255 515" width="1255px" zoomAndPan="magnify"><defs><filter height="300%" id="f1phrvex31oskq" width="300%" x="-1" y="-1"><feGaussianBlur result="blurOut" stdDeviation="2.0"/><feColorMatrix in="blurOut" result="blurOut2" type="matrix" values="0 0 0 0 0 0 0 0 0 0 0 0 0 0 0 0 0 0 .4 0"/><feOffset dx="4.0" dy="4.0" in="blurOut2" result="blurOut3"/><feBlend in="SourceGraphic" in2="blurOut3" mode="normal"/></filter></defs><g><!--MD5=[946cf32c4909f60ec87eb8fd56ac8dfa]
class FileSystemComponent--><rect codeLine="4" fill="#FEFECE" filter="url(#f1phrvex31oskq)" height="124.8281" id="FileSystemComponent" style="stroke:#A80036;stroke-width:1.5;" width="331" x="458.5" y="166"/><ellipse cx="550.75" cy="182" fill="#A9DCDF" rx="11" ry="11" style="stroke:#A80036;stroke-width:1.0;"/><path d="M550.8594,177.3438 L549.7031,182.4219 L552.0313,182.4219 L550.8594,177.3438 Z M549.375,175.1094 L552.3594,175.1094 L555.7188,187.5 L553.2656,187.5 L552.5,184.4375 L549.2188,184.4375 L548.4688,187.5 L546.0313,187.5 L549.375,175.1094 Z " fill="#000000"/><text fill="#000000" font-family="sans-serif" font-size="12" font-style="italic" lengthAdjust="spacing" textLength="138" x="571.25" y="186.1543">FileSystemComponent</text><line style="stroke:#A80036;stroke-width:1.5;" x1="459.5" x2="788.5" y1="198" y2="198"/><ellipse cx="469.5" cy="209" rx="3" ry="3" style="stroke:#038048;stroke-width:1.0;fill:none;"/><text fill="#000000" font-family="sans-serif" font-size="11" lengthAdjust="spacing" textLength="95" x="478.5" y="212.2104">directory : string</text><ellipse cx="469.5" cy="221.8047" rx="3" ry="3" style="stroke:#038048;stroke-width:1.0;fill:none;"/><text fill="#000000" font-family="sans-serif" font-size="11" lengthAdjust="spacing" textLength="77" x="478.5" y="225.0151">name : string</text><ellipse cx="469.5" cy="234.6094" rx="3" ry="3" style="stroke:#038048;stroke-width:1.0;fill:none;"/><text fill="#000000" font-family="sans-serif" font-size="11" lengthAdjust="spacing" textLength="163" x="478.5" y="237.8198">[ComponentHandle] : Handle</text><line style="stroke:#A80036;stroke-width:1.5;" x1="459.5" x2="788.5" y1="244.4141" y2="244.4141"/><ellipse cx="469.5" cy="255.4141" fill="#84BE84" rx="3" ry="3" style="stroke:#038048;stroke-width:1.0;"/><text fill="#000000" font-family="sans-serif" font-size="11" font-style="italic" lengthAdjust="spacing" textLength="305" x="478.5" y="258.6245">[ComponentRender](out: any) : void | Promise&lt;void&gt;</text><ellipse cx="469.5" cy="268.2188" fill="#84BE84" rx="3" ry="3" style="stroke:#038048;stroke-width:1.0;"/><text fill="#000000" font-family="sans-serif" font-size="11" lengthAdjust="spacing" textLength="221" x="478.5" y="271.4292">[ComponentUpdate]() : Promise&lt;void&gt;</text><ellipse cx="469.5" cy="281.0234" fill="#84BE84" rx="3" ry="3" style="stroke:#038048;stroke-width:1.0;"/><text fill="#000000" font-family="sans-serif" font-size="11" lengthAdjust="spacing" textLength="248" x="478.5" y="284.2339">[ComponentVerify]() : void | Promise&lt;void&gt;</text><!--MD5=[4e13963c9dc916a21a8436ef39422b32]
class Component--><rect codeLine="12" fill="#FEFECE" filter="url(#f1phrvex31oskq)" height="99.2188" id="Component" style="stroke:#A80036;stroke-width:1.5;" width="331" x="458.5" y="7"/><ellipse cx="583.75" cy="23" fill="#A9DCDF" rx="11" ry="11" style="stroke:#A80036;stroke-width:1.0;"/><path d="M583.8594,18.3438 L582.7031,23.4219 L585.0313,23.4219 L583.8594,18.3438 Z M582.375,16.1094 L585.3594,16.1094 L588.7188,28.5 L586.2656,28.5 L585.5,25.4375 L582.2188,25.4375 L581.4688,28.5 L579.0313,28.5 L582.375,16.1094 Z " fill="#000000"/><text fill="#000000" font-family="sans-serif" font-size="12" font-style="italic" lengthAdjust="spacing" textLength="72" x="604.25" y="27.1543">Component</text><line style="stroke:#A80036;stroke-width:1.5;" x1="459.5" x2="788.5" y1="39" y2="39"/><ellipse cx="469.5" cy="50" rx="3" ry="3" style="stroke:#038048;stroke-width:1.0;fill:none;"/><text fill="#000000" font-family="sans-serif" font-size="11" lengthAdjust="spacing" textLength="163" x="478.5" y="53.2104">[ComponentHandle] : Handle</text><line style="stroke:#A80036;stroke-width:1.5;" x1="459.5" x2="788.5" y1="59.8047" y2="59.8047"/><ellipse cx="469.5" cy="70.8047" fill="#84BE84" rx="3" ry="3" style="stroke:#038048;stroke-width:1.0;"/><text fill="#000000" font-family="sans-serif" font-size="11" font-style="italic" lengthAdjust="spacing" textLength="305" x="478.5" y="74.0151">[ComponentRender](out: any) : void | Promise&lt;void&gt;</text><ellipse cx="469.5" cy="83.6094" fill="#84BE84" rx="3" ry="3" style="stroke:#038048;stroke-width:1.0;"/><text fill="#000000" font-family="sans-serif" font-size="11" lengthAdjust="spacing" textLength="221" x="478.5" y="86.8198">[ComponentUpdate]() : Promise&lt;void&gt;</text><ellipse cx="469.5" cy="96.4141" fill="#84BE84" rx="3" ry="3" style="stroke:#038048;stroke-width:1.0;"/><text fill="#000000" font-family="sans-serif" font-size="11" lengthAdjust="spacing" textLength="248" x="478.5" y="99.6245">[ComponentVerify]() : void | Promise&lt;void&gt;</text><!--MD5=[3fed11c3e57101741c7916d75e588464]
class TextFile--><rect codeLine="19" fill="#FEFECE" filter="url(#f1phrvex31oskq)" height="150.4375" id="TextFile" style="stroke:#A80036;stroke-width:1.5;" width="388" x="7" y="351"/><ellipse cx="173.25" cy="367" fill="#ADD1B2" rx="11" ry="11" style="stroke:#A80036;stroke-width:1.0;"/><path d="M176.2188,372.6406 Q175.6406,372.9375 175,373.0781 Q174.3594,373.2344 173.6563,373.2344 Q171.1563,373.2344 169.8281,371.5938 Q168.5156,369.9375 168.5156,366.8125 Q168.5156,363.6875 169.8281,362.0313 Q171.1563,360.375 173.6563,360.375 Q174.3594,360.375 175,360.5313 Q175.6563,360.6875 176.2188,360.9844 L176.2188,363.7031 Q175.5938,363.125 175,362.8594 Q174.4063,362.5781 173.7813,362.5781 Q172.4375,362.5781 171.75,363.6563 Q171.0625,364.7188 171.0625,366.8125 Q171.0625,368.9063 171.75,369.9844 Q172.4375,371.0469 173.7813,371.0469 Q174.4063,371.0469 175,370.7813 Q175.5938,370.5 176.2188,369.9219 L176.2188,372.6406 Z " fill="#000000"/><text fill="#000000" font-family="sans-serif" font-size="12" lengthAdjust="spacing" textLength="47" x="193.75" y="371.1543">TextFile</text><line style="stroke:#A80036;stroke-width:1.5;" x1="8" x2="394" y1="383" y2="383"/><ellipse cx="18" cy="394" rx="3" ry="3" style="stroke:#038048;stroke-width:1.0;fill:none;"/><text fill="#000000" font-family="sans-serif" font-size="11" lengthAdjust="spacing" textLength="87" x="27" y="397.2104">content : string</text><ellipse cx="18" cy="406.8047" rx="3" ry="3" style="stroke:#038048;stroke-width:1.0;fill:none;"/><text fill="#000000" font-family="sans-serif" font-size="11" lengthAdjust="spacing" textLength="95" x="27" y="410.0151">directory : string</text><ellipse cx="18" cy="419.6094" rx="3" ry="3" style="stroke:#038048;stroke-width:1.0;fill:none;"/><text fill="#000000" font-family="sans-serif" font-size="11" lengthAdjust="spacing" textLength="80" x="27" y="422.8198">lines : string[]</text><ellipse cx="18" cy="432.4141" rx="3" ry="3" style="stroke:#038048;stroke-width:1.0;fill:none;"/><text fill="#000000" font-family="sans-serif" font-size="11" lengthAdjust="spacing" textLength="77" x="27" y="435.6245">name : string</text><ellipse cx="18" cy="445.2188" rx="3" ry="3" style="stroke:#038048;stroke-width:1.0;fill:none;"/><text fill="#000000" font-family="sans-serif" font-size="11" lengthAdjust="spacing" textLength="163" x="27" y="448.4292">[ComponentHandle] : Handle</text><line style="stroke:#A80036;stroke-width:1.5;" x1="8" x2="394" y1="455.0234" y2="455.0234"/><ellipse cx="18" cy="466.0234" fill="#84BE84" rx="3" ry="3" style="stroke:#038048;stroke-width:1.0;"/><text fill="#000000" font-family="sans-serif" font-size="11" lengthAdjust="spacing" textLength="362" x="27" y="469.2339">[ComponentRender](out: Map&lt;string, string&gt;) : Promise&lt;void&gt;</text><ellipse cx="18" cy="478.8281" fill="#84BE84" rx="3" ry="3" style="stroke:#038048;stroke-width:1.0;"/><text fill="#000000" font-family="sans-serif" font-size="11" lengthAdjust="spacing" textLength="221" x="27" y="482.0386">[ComponentUpdate]() : Promise&lt;void&gt;</text><ellipse cx="18" cy="491.6328" fill="#84BE84" rx="3" ry="3" style="stroke:#038048;stroke-width:1.0;"/><text fill="#000000" font-family="sans-serif" font-size="11" lengthAdjust="spacing" textLength="248" x="27" y="494.8433">[ComponentVerify]() : void | Promise&lt;void&gt;</text><!--MD5=[715128bba345a62fb0ee618baa868826]
class JsonFile--><rect codeLine="30" fill="#FEFECE" filter="url(#f1phrvex31oskq)" height="137.6328" id="JsonFile" style="stroke:#A80036;stroke-width:1.5;" width="388" x="430" y="357"/><ellipse cx="596.25" cy="373" fill="#ADD1B2" rx="11" ry="11" style="stroke:#A80036;stroke-width:1.0;"/><path d="M599.2188,378.6406 Q598.6406,378.9375 598,379.0781 Q597.3594,379.2344 596.6563,379.2344 Q594.1563,379.2344 592.8281,377.5938 Q591.5156,375.9375 591.5156,372.8125 Q591.5156,369.6875 592.8281,368.0313 Q594.1563,366.375 596.6563,366.375 Q597.3594,366.375 598,366.5313 Q598.6563,366.6875 599.2188,366.9844 L599.2188,369.7031 Q598.5938,369.125 598,368.8594 Q597.4063,368.5781 596.7813,368.5781 Q595.4375,368.5781 594.75,369.6563 Q594.0625,370.7188 594.0625,372.8125 Q594.0625,374.9063 594.75,375.9844 Q595.4375,377.0469 596.7813,377.0469 Q597.4063,377.0469 598,376.7813 Q598.5938,376.5 599.2188,375.9219 L599.2188,378.6406 Z " fill="#000000"/><text fill="#000000" font-family="sans-serif" font-size="12" lengthAdjust="spacing" textLength="47" x="616.75" y="377.1543">JsonFile</text><line style="stroke:#A80036;stroke-width:1.5;" x1="431" x2="817" y1="389" y2="389"/><ellipse cx="441" cy="400" rx="3" ry="3" style="stroke:#038048;stroke-width:1.0;fill:none;"/><text fill="#000000" font-family="sans-serif" font-size="11" lengthAdjust="spacing" textLength="57" x="450" y="403.2104">data : any</text><ellipse cx="441" cy="412.8047" rx="3" ry="3" style="stroke:#038048;stroke-width:1.0;fill:none;"/><text fill="#000000" font-family="sans-serif" font-size="11" lengthAdjust="spacing" textLength="95" x="450" y="416.0151">directory : string</text><ellipse cx="441" cy="425.6094" rx="3" ry="3" style="stroke:#038048;stroke-width:1.0;fill:none;"/><text fill="#000000" font-family="sans-serif" font-size="11" lengthAdjust="spacing" textLength="77" x="450" y="428.8198">name : string</text><ellipse cx="441" cy="438.4141" rx="3" ry="3" style="stroke:#038048;stroke-width:1.0;fill:none;"/><text fill="#000000" font-family="sans-serif" font-size="11" lengthAdjust="spacing" textLength="163" x="450" y="441.6245">[ComponentHandle] : Handle</text><line style="stroke:#A80036;stroke-width:1.5;" x1="431" x2="817" y1="448.2188" y2="448.2188"/><ellipse cx="441" cy="459.2188" fill="#84BE84" rx="3" ry="3" style="stroke:#038048;stroke-width:1.0;"/><text fill="#000000" font-family="sans-serif" font-size="11" lengthAdjust="spacing" textLength="362" x="450" y="462.4292">[ComponentRender](out: Map&lt;string, string&gt;) : Promise&lt;void&gt;</text><ellipse cx="441" cy="472.0234" fill="#84BE84" rx="3" ry="3" style="stroke:#038048;stroke-width:1.0;"/><text fill="#000000" font-family="sans-serif" font-size="11" lengthAdjust="spacing" textLength="221" x="450" y="475.2339">[ComponentUpdate]() : Promise&lt;void&gt;</text><ellipse cx="441" cy="484.8281" fill="#84BE84" rx="3" ry="3" style="stroke:#038048;stroke-width:1.0;"/><text fill="#000000" font-family="sans-serif" font-size="11" lengthAdjust="spacing" textLength="248" x="450" y="488.0386">[ComponentVerify]() : void | Promise&lt;void&gt;</text><!--MD5=[d1dcc9c41ef051a777528f9336a950e3]
class Folder--><rect codeLine="40" fill="#FEFECE" filter="url(#f1phrvex31oskq)" height="137.6328" id="Folder" style="stroke:#A80036;stroke-width:1.5;" width="388" x="853" y="357"/><ellipse cx="1023.25" cy="373" fill="#ADD1B2" rx="11" ry="11" style="stroke:#A80036;stroke-width:1.0;"/><path d="M1026.2188,378.6406 Q1025.6406,378.9375 1025,379.0781 Q1024.3594,379.2344 1023.6563,379.2344 Q1021.1563,379.2344 1019.8281,377.5938 Q1018.5156,375.9375 1018.5156,372.8125 Q1018.5156,369.6875 1019.8281,368.0313 Q1021.1563,366.375 1023.6563,366.375 Q1024.3594,366.375 1025,366.5313 Q1025.6563,366.6875 1026.2188,366.9844 L1026.2188,369.7031 Q1025.5938,369.125 1025,368.8594 Q1024.4063,368.5781 1023.7813,368.5781 Q1022.4375,368.5781 1021.75,369.6563 Q1021.0625,370.7188 1021.0625,372.8125 Q1021.0625,374.9063 1021.75,375.9844 Q1022.4375,377.0469 1023.7813,377.0469 Q1024.4063,377.0469 1025,376.7813 Q1025.5938,376.5 1026.2188,375.9219 L1026.2188,378.6406 Z " fill="#000000"/><text fill="#000000" font-family="sans-serif" font-size="12" lengthAdjust="spacing" textLength="39" x="1043.75" y="377.1543">Folder</text><line style="stroke:#A80036;stroke-width:1.5;" x1="854" x2="1240" y1="389" y2="389"/><ellipse cx="864" cy="400" rx="3" ry="3" style="stroke:#038048;stroke-width:1.0;fill:none;"/><text fill="#000000" font-family="sans-serif" font-size="11" lengthAdjust="spacing" textLength="95" x="873" y="403.2104">directory : string</text><ellipse cx="864" cy="412.8047" rx="3" ry="3" style="stroke:#038048;stroke-width:1.0;fill:none;"/><text fill="#000000" font-family="sans-serif" font-size="11" lengthAdjust="spacing" textLength="98" x="873" y="416.0151">gitkeep : boolean</text><ellipse cx="864" cy="425.6094" rx="3" ry="3" style="stroke:#038048;stroke-width:1.0;fill:none;"/><text fill="#000000" font-family="sans-serif" font-size="11" lengthAdjust="spacing" textLength="77" x="873" y="428.8198">name : string</text><ellipse cx="864" cy="438.4141" rx="3" ry="3" style="stroke:#038048;stroke-width:1.0;fill:none;"/><text fill="#000000" font-family="sans-serif" font-size="11" lengthAdjust="spacing" textLength="163" x="873" y="441.6245">[ComponentHandle] : Handle</text><line style="stroke:#A80036;stroke-width:1.5;" x1="854" x2="1240" y1="448.2188" y2="448.2188"/><ellipse cx="864" cy="459.2188" fill="#84BE84" rx="3" ry="3" style="stroke:#038048;stroke-width:1.0;"/><text fill="#000000" font-family="sans-serif" font-size="11" lengthAdjust="spacing" textLength="362" x="873" y="462.4292">[ComponentRender](out: Map&lt;string, string&gt;) : Promise&lt;void&gt;</text><ellipse cx="864" cy="472.0234" fill="#84BE84" rx="3" ry="3" style="stroke:#038048;stroke-width:1.0;"/><text fill="#000000" font-family="sans-serif" font-size="11" lengthAdjust="spacing" textLength="221" x="873" y="475.2339">[ComponentUpdate]() : Promise&lt;void&gt;</text><ellipse cx="864" cy="484.8281" fill="#84BE84" rx="3" ry="3" style="stroke:#038048;stroke-width:1.0;"/><text fill="#000000" font-family="sans-serif" font-size="11" lengthAdjust="spacing" textLength="248" x="873" y="488.0386">[ComponentVerify]() : void | Promise&lt;void&gt;</text><!--MD5=[d9a29ed4a00d52d05f54626eeca35afc]
reverse link Component to FileSystemComponent--><path codeLine="18" d="M624,126.62 C624,139.57 624,153.03 624,165.73 " fill="none" id="Component-backto-FileSystemComponent" style="stroke:#A80036;stroke-width:1.0;"/><polygon fill="none" points="617,126.22,624,106.22,631,126.22,617,126.22" style="stroke:#A80036;stroke-width:1.0;"/><!--MD5=[e9c0f2da9c5ccef4608f4755289239d6]
reverse link FileSystemComponent to TextFile--><path codeLine="29" d="M472.18,299.67 C436.21,316.29 397.73,334.07 361.4,350.87 " fill="none" id="FileSystemComponent-backto-TextFile" style="stroke:#A80036;stroke-width:1.0;"/><polygon fill="none" points="469.65,293.13,490.74,291.09,475.52,305.83,469.65,293.13" style="stroke:#A80036;stroke-width:1.0;"/><!--MD5=[53795116d30c488577c8abf3c893359e]
reverse link FileSystemComponent to JsonFile--><path codeLine="39" d="M624,311.32 C624,326.5 624,342.21 624,356.93 " fill="none" id="FileSystemComponent-backto-JsonFile" style="stroke:#A80036;stroke-width:1.0;"/><polygon fill="none" points="617,311.09,624,291.09,631,311.09,617,311.09" style="stroke:#A80036;stroke-width:1.0;"/><!--MD5=[40ea2660ab55c0ee684eaad0582ec93f]
reverse link FileSystemComponent to Folder--><path codeLine="49" d="M775.57,299.55 C815.97,318.23 859.55,338.37 899.72,356.93 " fill="none" id="FileSystemComponent-backto-Folder" style="stroke:#A80036;stroke-width:1.0;"/><polygon fill="none" points="772.48,305.83,757.26,291.09,778.35,293.13,772.48,305.83" style="stroke:#A80036;stroke-width:1.0;"/><!--MD5=[5a9a552e440a6a32239841d3cc9f97da]
@startuml
skinparam BackgroundColor transparent
hide empty methods
hide empty fields
abstract class "FileSystemComponent" {
    +directory : string
    +name : string
    +[ComponentHandle] : Handle
    {abstract} +[ComponentRender](out: any) : void | Promise<void>
    +[ComponentUpdate]() : Promise<void>
    +[ComponentVerify]() : void | Promise<void>
}
abstract class "Component" {
    +[ComponentHandle] : Handle
    {abstract} +[ComponentRender](out: any) : void | Promise<void>
    +[ComponentUpdate]() : Promise<void>
    +[ComponentVerify]() : void | Promise<void>
}
"Component" <|- - "FileSystemComponent"
class "TextFile" {
    +content : string
    +directory : string
    +lines : string[]
    +name : string
    +[ComponentHandle] : Handle
    +[ComponentRender](out: Map<string, string>) : Promise<void>
    +[ComponentUpdate]() : Promise<void>
    +[ComponentVerify]() : void | Promise<void>
}
"FileSystemComponent" <|- - "TextFile"
class "JsonFile" {
    +data : any
    +directory : string
    +name : string
    +[ComponentHandle] : Handle
    +[ComponentRender](out: Map<string, string>) : Promise<void>
    +[ComponentUpdate]() : Promise<void>
    +[ComponentVerify]() : void | Promise<void>
}
"FileSystemComponent" <|- - "JsonFile"
class "Folder" {
    +directory : string
    +gitkeep : boolean
    +name : string
    +[ComponentHandle] : Handle
    +[ComponentRender](out: Map<string, string>) : Promise<void>
    +[ComponentUpdate]() : Promise<void>
    +[ComponentVerify]() : void | Promise<void>
}
"FileSystemComponent" <|- - "Folder"
@enduml

PlantUML version 1.2021.14(Fri Nov 12 16:46:50 UTC 2021)
(GPL source distribution)
Java Runtime: OpenJDK Runtime Environment
JVM: OpenJDK 64-Bit Server VM
Default Encoding: UTF-8
Language: en
Country: null
--></g></svg>