<?xml version="1.0" encoding="UTF-8" standalone="no"?><svg xmlns="http://www.w3.org/2000/svg" xmlns:xlink="http://www.w3.org/1999/xlink" contentScriptType="application/ecmascript" contentStyleType="text/css" height="204px" preserveAspectRatio="none" style="width:274px;height:204px;background:#00000000;" version="1.1" viewBox="0 0 274 204" width="274px" zoomAndPan="magnify"><defs><filter height="300%" id="fcqi6ll7lyn6t" width="300%" x="-1" y="-1"><feGaussianBlur result="blurOut" stdDeviation="2.0"/><feColorMatrix in="blurOut" result="blurOut2" type="matrix" values="0 0 0 0 0 0 0 0 0 0 0 0 0 0 0 0 0 0 .4 0"/><feOffset dx="4.0" dy="4.0" in="blurOut2" result="blurOut3"/><feBlend in="SourceGraphic" in2="blurOut3" mode="normal"/></filter></defs><g><!--MD5=[5e7d7a1aea2f0e1483d0fe7817583a8d]
class FileSystemScene--><rect codeLine="4" fill="#FEFECE" filter="url(#fcqi6ll7lyn6t)" height="91.2188" id="FileSystemScene" style="stroke:#A80036;stroke-width:1.5;" width="253" x="7" y="99"/><ellipse cx="76.75" cy="115" fill="#ADD1B2" rx="11" ry="11" style="stroke:#A80036;stroke-width:1.0;"/><path d="M79.7188,120.6406 Q79.1406,120.9375 78.5,121.0781 Q77.8594,121.2344 77.1563,121.2344 Q74.6563,121.2344 73.3281,119.5938 Q72.0156,117.9375 72.0156,114.8125 Q72.0156,111.6875 73.3281,110.0313 Q74.6563,108.375 77.1563,108.375 Q77.8594,108.375 78.5,108.5313 Q79.1563,108.6875 79.7188,108.9844 L79.7188,111.7031 Q79.0938,111.125 78.5,110.8594 Q77.9063,110.5781 77.2813,110.5781 Q75.9375,110.5781 75.25,111.6563 Q74.5625,112.7188 74.5625,114.8125 Q74.5625,116.9063 75.25,117.9844 Q75.9375,119.0469 77.2813,119.0469 Q77.9063,119.0469 78.5,118.7813 Q79.0938,118.5 79.7188,117.9219 L79.7188,120.6406 Z " fill="#000000"/><text fill="#000000" font-family="sans-serif" font-size="12" lengthAdjust="spacing" textLength="105" x="97.25" y="119.1543">FileSystemScene</text><line style="stroke:#A80036;stroke-width:1.5;" x1="8" x2="259" y1="131" y2="131"/><ellipse cx="18" cy="142" fill="#84BE84" rx="3" ry="3" style="stroke:#038048;stroke-width:1.0;"/><text fill="#000000" font-family="sans-serif" font-size="11" lengthAdjust="spacing" textLength="170" x="27" y="145.2104">empty() : Map&lt;string, string&gt;</text><ellipse cx="18" cy="154.8047" fill="#84BE84" rx="3" ry="3" style="stroke:#038048;stroke-width:1.0;"/><text fill="#000000" font-family="sans-serif" font-size="11" lengthAdjust="spacing" textLength="227" x="27" y="158.0151">filter(component: Component) : boolean</text><ellipse cx="18" cy="167.6094" fill="#84BE84" rx="3" ry="3" style="stroke:#038048;stroke-width:1.0;"/><text fill="#000000" font-family="sans-serif" font-size="11" lengthAdjust="spacing" textLength="205" x="27" y="170.8198">render(view: View) : Promise&lt;void&gt;</text><ellipse cx="18" cy="180.4141" fill="#84BE84" rx="3" ry="3" style="stroke:#038048;stroke-width:1.0;"/><text fill="#000000" font-family="sans-serif" font-size="11" lengthAdjust="spacing" textLength="221" x="27" y="183.6245">update(token: Token&lt;any, any&gt;) : void</text><!--MD5=[6a84e6f5b4704aafa5c16dde6b3ccb57]
class LocalScene--><rect codeLine="10" fill="#FEFECE" filter="url(#fcqi6ll7lyn6t)" height="32" id="LocalScene" style="stroke:#A80036;stroke-width:1.5;" width="104" x="81.5" y="7"/><ellipse cx="96.5" cy="23" fill="#A9DCDF" rx="11" ry="11" style="stroke:#A80036;stroke-width:1.0;"/><path d="M96.6094,18.3438 L95.4531,23.4219 L97.7813,23.4219 L96.6094,18.3438 Z M95.125,16.1094 L98.1094,16.1094 L101.4688,28.5 L99.0156,28.5 L98.25,25.4375 L94.9688,25.4375 L94.2188,28.5 L91.7813,28.5 L95.125,16.1094 Z " fill="#000000"/><text fill="#000000" font-family="sans-serif" font-size="12" font-style="italic" lengthAdjust="spacing" textLength="72" x="110.5" y="27.1543">LocalScene</text><!--MD5=[f159488968e956e4e0eb1794172eeb41]
reverse link LocalScene to FileSystemScene--><path codeLine="12" d="M133.5,59.57 C133.5,71.92 133.5,85.94 133.5,98.93 " fill="none" id="LocalScene-backto-FileSystemScene" style="stroke:#A80036;stroke-width:1.0;"/><polygon fill="none" points="126.5,59.13,133.5,39.13,140.5,59.13,126.5,59.13" style="stroke:#A80036;stroke-width:1.0;"/><!--MD5=[7b28956c9c77bded3717296a4823d6bb]
@startuml
skinparam BackgroundColor transparent
hide empty methods
hide empty fields
class "FileSystemScene" {
    +empty() : Map<string, string>
    +filter(component: Component) : boolean
    +render(view: View) : Promise<void>
    +update(token: Token<any, any>) : void
}
abstract class "LocalScene" {
}
"LocalScene" <|- - "FileSystemScene"
@enduml

PlantUML version 1.2021.14(Fri Nov 12 16:46:50 UTC 2021)
(GPL source distribution)
Java Runtime: OpenJDK Runtime Environment
JVM: OpenJDK 64-Bit Server VM
Default Encoding: UTF-8
Language: en
Country: null
--></g></svg>