<?xml version="1.0" encoding="UTF-8" standalone="no"?><svg xmlns="http://www.w3.org/2000/svg" xmlns:xlink="http://www.w3.org/1999/xlink" contentScriptType="application/ecmascript" contentStyleType="text/css" height="407px" preserveAspectRatio="none" style="width:345px;height:407px;background:#00000000;" version="1.1" viewBox="0 0 345 407" width="345px" zoomAndPan="magnify"><defs><filter height="300%" id="f17s27g2t2paje" width="300%" x="-1" y="-1"><feGaussianBlur result="blurOut" stdDeviation="2.0"/><feColorMatrix in="blurOut" result="blurOut2" type="matrix" values="0 0 0 0 0 0 0 0 0 0 0 0 0 0 0 0 0 0 .4 0"/><feOffset dx="4.0" dy="4.0" in="blurOut2" result="blurOut3"/><feBlend in="SourceGraphic" in2="blurOut3" mode="normal"/></filter></defs><g><!--MD5=[5e7d7a1aea2f0e1483d0fe7817583a8d]
class FileSystemScene--><rect codeLine="4" fill="#FEFECE" filter="url(#f17s27g2t2paje)" height="176.0469" id="FileSystemScene" style="stroke:#A80036;stroke-width:1.5;" width="324" x="7" y="217"/><ellipse cx="112.25" cy="233" fill="#ADD1B2" rx="11" ry="11" style="stroke:#A80036;stroke-width:1.0;"/><path d="M115.2188,238.6406 Q114.6406,238.9375 114,239.0781 Q113.3594,239.2344 112.6563,239.2344 Q110.1563,239.2344 108.8281,237.5938 Q107.5156,235.9375 107.5156,232.8125 Q107.5156,229.6875 108.8281,228.0313 Q110.1563,226.375 112.6563,226.375 Q113.3594,226.375 114,226.5313 Q114.6563,226.6875 115.2188,226.9844 L115.2188,229.7031 Q114.5938,229.125 114,228.8594 Q113.4063,228.5781 112.7813,228.5781 Q111.4375,228.5781 110.75,229.6563 Q110.0625,230.7188 110.0625,232.8125 Q110.0625,234.9063 110.75,235.9844 Q111.4375,237.0469 112.7813,237.0469 Q113.4063,237.0469 114,236.7813 Q114.5938,236.5 115.2188,235.9219 L115.2188,238.6406 Z " fill="#000000"/><text fill="#000000" font-family="sans-serif" font-size="12" lengthAdjust="spacing" textLength="105" x="132.75" y="237.1543">FileSystemScene</text><line style="stroke:#A80036;stroke-width:1.5;" x1="8" x2="330" y1="249" y2="249"/><ellipse cx="18" cy="260" rx="3" ry="3" style="stroke:#038048;stroke-width:1.0;fill:none;"/><text fill="#000000" font-family="sans-serif" font-size="11" lengthAdjust="spacing" textLength="184" x="27" y="263.2104">components : Set&lt;Component&gt;</text><rect fill="none" height="6" style="stroke:#C82930;stroke-width:1.0;" width="6" x="15" y="269.8047"/><text fill="#000000" font-family="sans-serif" font-size="11" lengthAdjust="spacing" textLength="83" x="27" y="276.0151">_fs : __module</text><rect fill="none" height="6" style="stroke:#C82930;stroke-width:1.0;" width="6" x="15" y="282.6094"/><text fill="#000000" font-family="sans-serif" font-size="11" lengthAdjust="spacing" textLength="169" x="27" y="288.8198">_output : Map&lt;string, string&gt;</text><line style="stroke:#A80036;stroke-width:1.5;" x1="8" x2="330" y1="295.4141" y2="295.4141"/><ellipse cx="18" cy="306.4141" fill="#84BE84" rx="3" ry="3" style="stroke:#038048;stroke-width:1.0;"/><text fill="#000000" font-family="sans-serif" font-size="11" lengthAdjust="spacing" textLength="152" x="27" y="309.6245">cluster(view: View) : View[]</text><ellipse cx="18" cy="319.2188" fill="#84BE84" rx="3" ry="3" style="stroke:#038048;stroke-width:1.0;"/><text fill="#000000" font-family="sans-serif" font-size="11" lengthAdjust="spacing" textLength="170" x="27" y="322.4292">empty() : Map&lt;string, string&gt;</text><ellipse cx="18" cy="332.0234" fill="#84BE84" rx="3" ry="3" style="stroke:#038048;stroke-width:1.0;"/><text fill="#000000" font-family="sans-serif" font-size="11" lengthAdjust="spacing" textLength="227" x="27" y="335.2339">filter(component: Component) : boolean</text><ellipse cx="18" cy="344.8281" fill="#84BE84" rx="3" ry="3" style="stroke:#038048;stroke-width:1.0;"/><text fill="#000000" font-family="sans-serif" font-size="11" lengthAdjust="spacing" textLength="80" x="27" y="348.0386">gizmos() : any</text><ellipse cx="18" cy="357.6328" fill="#84BE84" rx="3" ry="3" style="stroke:#038048;stroke-width:1.0;"/><text fill="#000000" font-family="sans-serif" font-size="11" lengthAdjust="spacing" textLength="205" x="27" y="360.8433">render(view: View) : Promise&lt;void&gt;</text><ellipse cx="18" cy="370.4375" fill="#84BE84" rx="3" ry="3" style="stroke:#038048;stroke-width:1.0;"/><text fill="#000000" font-family="sans-serif" font-size="11" lengthAdjust="spacing" textLength="298" x="27" y="373.6479">update(token: Token&lt;any, any&gt;) : Token&lt;any, any&gt;</text><ellipse cx="18" cy="383.2422" fill="#84BE84" rx="3" ry="3" style="stroke:#038048;stroke-width:1.0;"/><text fill="#000000" font-family="sans-serif" font-size="11" lengthAdjust="spacing" textLength="233" x="27" y="386.4526">verify(view: View) : void | Promise&lt;void&gt;</text><!--MD5=[e4faacc5b8aef66b11ab0c816bbbc7f8]
class Scene--><rect codeLine="16" fill="#FEFECE" filter="url(#f17s27g2t2paje)" height="150.4375" id="Scene" style="stroke:#A80036;stroke-width:1.5;" width="324" x="7" y="7"/><ellipse cx="145.25" cy="23" fill="#A9DCDF" rx="11" ry="11" style="stroke:#A80036;stroke-width:1.0;"/><path d="M145.3594,18.3438 L144.2031,23.4219 L146.5313,23.4219 L145.3594,18.3438 Z M143.875,16.1094 L146.8594,16.1094 L150.2188,28.5 L147.7656,28.5 L147,25.4375 L143.7188,25.4375 L142.9688,28.5 L140.5313,28.5 L143.875,16.1094 Z " fill="#000000"/><text fill="#000000" font-family="sans-serif" font-size="12" font-style="italic" lengthAdjust="spacing" textLength="39" x="165.75" y="27.1543">Scene</text><line style="stroke:#A80036;stroke-width:1.5;" x1="8" x2="330" y1="39" y2="39"/><ellipse cx="18" cy="50" rx="3" ry="3" style="stroke:#038048;stroke-width:1.0;fill:none;"/><text fill="#000000" font-family="sans-serif" font-size="11" lengthAdjust="spacing" textLength="184" x="27" y="53.2104">components : Set&lt;Component&gt;</text><line style="stroke:#A80036;stroke-width:1.5;" x1="8" x2="330" y1="59.8047" y2="59.8047"/><ellipse cx="18" cy="70.8047" fill="#84BE84" rx="3" ry="3" style="stroke:#038048;stroke-width:1.0;"/><text fill="#000000" font-family="sans-serif" font-size="11" lengthAdjust="spacing" textLength="152" x="27" y="74.0151">cluster(view: View) : View[]</text><ellipse cx="18" cy="83.6094" fill="#84BE84" rx="3" ry="3" style="stroke:#038048;stroke-width:1.0;"/><text fill="#000000" font-family="sans-serif" font-size="11" lengthAdjust="spacing" textLength="75" x="27" y="86.8198">empty() : any</text><ellipse cx="18" cy="96.4141" fill="#84BE84" rx="3" ry="3" style="stroke:#038048;stroke-width:1.0;"/><text fill="#000000" font-family="sans-serif" font-size="11" font-style="italic" lengthAdjust="spacing" textLength="227" x="27" y="99.6245">filter(component: Component) : boolean</text><ellipse cx="18" cy="109.2188" fill="#84BE84" rx="3" ry="3" style="stroke:#038048;stroke-width:1.0;"/><text fill="#000000" font-family="sans-serif" font-size="11" lengthAdjust="spacing" textLength="80" x="27" y="112.4292">gizmos() : any</text><ellipse cx="18" cy="122.0234" fill="#84BE84" rx="3" ry="3" style="stroke:#038048;stroke-width:1.0;"/><text fill="#000000" font-family="sans-serif" font-size="11" lengthAdjust="spacing" textLength="240" x="27" y="125.2339">render(view: View) : void | Promise&lt;void&gt;</text><ellipse cx="18" cy="134.8281" fill="#84BE84" rx="3" ry="3" style="stroke:#038048;stroke-width:1.0;"/><text fill="#000000" font-family="sans-serif" font-size="11" lengthAdjust="spacing" textLength="298" x="27" y="138.0386">update(token: Token&lt;any, any&gt;) : Token&lt;any, any&gt;</text><ellipse cx="18" cy="147.6328" fill="#84BE84" rx="3" ry="3" style="stroke:#038048;stroke-width:1.0;"/><text fill="#000000" font-family="sans-serif" font-size="11" lengthAdjust="spacing" textLength="233" x="27" y="150.8433">verify(view: View) : void | Promise&lt;void&gt;</text><!--MD5=[bd2670f95045d17d0dd635227e71bf1f]
reverse link Scene to FileSystemScene--><path codeLine="26" d="M169,177.46 C169,190.58 169,204.02 169,216.99 " fill="none" id="Scene-backto-FileSystemScene" style="stroke:#A80036;stroke-width:1.0;"/><polygon fill="none" points="162,177.2,169,157.2,176,177.2,162,177.2" style="stroke:#A80036;stroke-width:1.0;"/><!--MD5=[beec83f2eecb463333fa8c1e8cabbc1e]
@startuml
skinparam BackgroundColor transparent
hide empty methods
hide empty fields
class "FileSystemScene" {
    +components : Set<Component>
    -_fs : __module
    -_output : Map<string, string>
    +cluster(view: View) : View[]
    +empty() : Map<string, string>
    +filter(component: Component) : boolean
    +gizmos() : any
    +render(view: View) : Promise<void>
    +update(token: Token<any, any>) : Token<any, any>
    +verify(view: View) : void | Promise<void>
}
abstract class "Scene" {
    +components : Set<Component>
    +cluster(view: View) : View[]
    +empty() : any
    {abstract} +filter(component: Component) : boolean
    +gizmos() : any
    +render(view: View) : void | Promise<void>
    +update(token: Token<any, any>) : Token<any, any>
    +verify(view: View) : void | Promise<void>
}
"Scene" <|- - "FileSystemScene"
@enduml

PlantUML version 1.2021.14(Fri Nov 12 16:46:50 UTC 2021)
(GPL source distribution)
Java Runtime: OpenJDK Runtime Environment
JVM: OpenJDK 64-Bit Server VM
Default Encoding: UTF-8
Language: en
Country: null
--></g></svg>