<?xml version="1.0" encoding="UTF-8" standalone="no"?><svg xmlns="http://www.w3.org/2000/svg" xmlns:xlink="http://www.w3.org/1999/xlink" contentScriptType="application/ecmascript" contentStyleType="text/css" height="351px" preserveAspectRatio="none" style="width:1255px;height:351px;background:#00000000;" version="1.1" viewBox="0 0 1255 351" width="1255px" zoomAndPan="magnify"><defs><filter height="300%" id="f1kvt90bozl9p1" width="300%" x="-1" y="-1"><feGaussianBlur result="blurOut" stdDeviation="2.0"/><feColorMatrix in="blurOut" result="blurOut2" type="matrix" values="0 0 0 0 0 0 0 0 0 0 0 0 0 0 0 0 0 0 .4 0"/><feOffset dx="4.0" dy="4.0" in="blurOut2" result="blurOut3"/><feBlend in="SourceGraphic" in2="blurOut3" mode="normal"/></filter></defs><g><!--MD5=[946cf32c4909f60ec87eb8fd56ac8dfa]
class FileSystemComponent--><rect codeLine="4" fill="#FEFECE" filter="url(#f1kvt90bozl9p1)" height="65.6094" id="FileSystemComponent" style="stroke:#A80036;stroke-width:1.5;" width="170" x="539" y="99"/><ellipse cx="554" cy="115" fill="#A9DCDF" rx="11" ry="11" style="stroke:#A80036;stroke-width:1.0;"/><path d="M554.1094,110.3438 L552.9531,115.4219 L555.2813,115.4219 L554.1094,110.3438 Z M552.625,108.1094 L555.6094,108.1094 L558.9688,120.5 L556.5156,120.5 L555.75,117.4375 L552.4688,117.4375 L551.7188,120.5 L549.2813,120.5 L552.625,108.1094 Z " fill="#000000"/><text fill="#000000" font-family="sans-serif" font-size="12" font-style="italic" lengthAdjust="spacing" textLength="138" x="568" y="119.1543">FileSystemComponent</text><line style="stroke:#A80036;stroke-width:1.5;" x1="540" x2="708" y1="131" y2="131"/><ellipse cx="550" cy="142" rx="3" ry="3" style="stroke:#038048;stroke-width:1.0;fill:none;"/><text fill="#000000" font-family="sans-serif" font-size="11" lengthAdjust="spacing" textLength="95" x="559" y="145.2104">directory : string</text><ellipse cx="550" cy="154.8047" rx="3" ry="3" style="stroke:#038048;stroke-width:1.0;fill:none;"/><text fill="#000000" font-family="sans-serif" font-size="11" lengthAdjust="spacing" textLength="77" x="559" y="158.0151">name : string</text><!--MD5=[2a461eb4260764374d34fdd0fc1cbd0f]
class LocalComponent--><rect codeLine="8" fill="#FEFECE" filter="url(#f1kvt90bozl9p1)" height="32" id="LocalComponent" style="stroke:#A80036;stroke-width:1.5;" width="137" x="555.5" y="7"/><ellipse cx="570.5" cy="23" fill="#A9DCDF" rx="11" ry="11" style="stroke:#A80036;stroke-width:1.0;"/><path d="M570.6094,18.3438 L569.4531,23.4219 L571.7813,23.4219 L570.6094,18.3438 Z M569.125,16.1094 L572.1094,16.1094 L575.4688,28.5 L573.0156,28.5 L572.25,25.4375 L568.9688,25.4375 L568.2188,28.5 L565.7813,28.5 L569.125,16.1094 Z " fill="#000000"/><text fill="#000000" font-family="sans-serif" font-size="12" font-style="italic" lengthAdjust="spacing" textLength="105" x="584.5" y="27.1543">LocalComponent</text><!--MD5=[3fed11c3e57101741c7916d75e588464]
class TextFile--><rect codeLine="11" fill="#FEFECE" filter="url(#f1kvt90bozl9p1)" height="112.0234" id="TextFile" style="stroke:#A80036;stroke-width:1.5;" width="388" x="7" y="225"/><ellipse cx="173.25" cy="241" fill="#ADD1B2" rx="11" ry="11" style="stroke:#A80036;stroke-width:1.0;"/><path d="M176.2188,246.6406 Q175.6406,246.9375 175,247.0781 Q174.3594,247.2344 173.6563,247.2344 Q171.1563,247.2344 169.8281,245.5938 Q168.5156,243.9375 168.5156,240.8125 Q168.5156,237.6875 169.8281,236.0313 Q171.1563,234.375 173.6563,234.375 Q174.3594,234.375 175,234.5313 Q175.6563,234.6875 176.2188,234.9844 L176.2188,237.7031 Q175.5938,237.125 175,236.8594 Q174.4063,236.5781 173.7813,236.5781 Q172.4375,236.5781 171.75,237.6563 Q171.0625,238.7188 171.0625,240.8125 Q171.0625,242.9063 171.75,243.9844 Q172.4375,245.0469 173.7813,245.0469 Q174.4063,245.0469 175,244.7813 Q175.5938,244.5 176.2188,243.9219 L176.2188,246.6406 Z " fill="#000000"/><text fill="#000000" font-family="sans-serif" font-size="12" lengthAdjust="spacing" textLength="47" x="193.75" y="245.1543">TextFile</text><line style="stroke:#A80036;stroke-width:1.5;" x1="8" x2="394" y1="257" y2="257"/><ellipse cx="18" cy="268" rx="3" ry="3" style="stroke:#038048;stroke-width:1.0;fill:none;"/><text fill="#000000" font-family="sans-serif" font-size="11" lengthAdjust="spacing" textLength="87" x="27" y="271.2104">content : string</text><ellipse cx="18" cy="280.8047" rx="3" ry="3" style="stroke:#038048;stroke-width:1.0;fill:none;"/><text fill="#000000" font-family="sans-serif" font-size="11" lengthAdjust="spacing" textLength="95" x="27" y="284.0151">directory : string</text><ellipse cx="18" cy="293.6094" rx="3" ry="3" style="stroke:#038048;stroke-width:1.0;fill:none;"/><text fill="#000000" font-family="sans-serif" font-size="11" lengthAdjust="spacing" textLength="80" x="27" y="296.8198">lines : string[]</text><ellipse cx="18" cy="306.4141" rx="3" ry="3" style="stroke:#038048;stroke-width:1.0;fill:none;"/><text fill="#000000" font-family="sans-serif" font-size="11" lengthAdjust="spacing" textLength="77" x="27" y="309.6245">name : string</text><line style="stroke:#A80036;stroke-width:1.5;" x1="8" x2="394" y1="316.2188" y2="316.2188"/><ellipse cx="18" cy="327.2188" fill="#84BE84" rx="3" ry="3" style="stroke:#038048;stroke-width:1.0;"/><text fill="#000000" font-family="sans-serif" font-size="11" lengthAdjust="spacing" textLength="362" x="27" y="330.4292">[ComponentRender](out: Map&lt;string, string&gt;) : Promise&lt;void&gt;</text><!--MD5=[715128bba345a62fb0ee618baa868826]
class JsonFile--><rect codeLine="19" fill="#FEFECE" filter="url(#f1kvt90bozl9p1)" height="99.2188" id="JsonFile" style="stroke:#A80036;stroke-width:1.5;" width="388" x="430" y="231.5"/><ellipse cx="596.25" cy="247.5" fill="#ADD1B2" rx="11" ry="11" style="stroke:#A80036;stroke-width:1.0;"/><path d="M599.2188,253.1406 Q598.6406,253.4375 598,253.5781 Q597.3594,253.7344 596.6563,253.7344 Q594.1563,253.7344 592.8281,252.0938 Q591.5156,250.4375 591.5156,247.3125 Q591.5156,244.1875 592.8281,242.5313 Q594.1563,240.875 596.6563,240.875 Q597.3594,240.875 598,241.0313 Q598.6563,241.1875 599.2188,241.4844 L599.2188,244.2031 Q598.5938,243.625 598,243.3594 Q597.4063,243.0781 596.7813,243.0781 Q595.4375,243.0781 594.75,244.1563 Q594.0625,245.2188 594.0625,247.3125 Q594.0625,249.4063 594.75,250.4844 Q595.4375,251.5469 596.7813,251.5469 Q597.4063,251.5469 598,251.2813 Q598.5938,251 599.2188,250.4219 L599.2188,253.1406 Z " fill="#000000"/><text fill="#000000" font-family="sans-serif" font-size="12" lengthAdjust="spacing" textLength="47" x="616.75" y="251.6543">JsonFile</text><line style="stroke:#A80036;stroke-width:1.5;" x1="431" x2="817" y1="263.5" y2="263.5"/><ellipse cx="441" cy="274.5" rx="3" ry="3" style="stroke:#038048;stroke-width:1.0;fill:none;"/><text fill="#000000" font-family="sans-serif" font-size="11" lengthAdjust="spacing" textLength="57" x="450" y="277.7104">data : any</text><ellipse cx="441" cy="287.3047" rx="3" ry="3" style="stroke:#038048;stroke-width:1.0;fill:none;"/><text fill="#000000" font-family="sans-serif" font-size="11" lengthAdjust="spacing" textLength="95" x="450" y="290.5151">directory : string</text><ellipse cx="441" cy="300.1094" rx="3" ry="3" style="stroke:#038048;stroke-width:1.0;fill:none;"/><text fill="#000000" font-family="sans-serif" font-size="11" lengthAdjust="spacing" textLength="77" x="450" y="303.3198">name : string</text><line style="stroke:#A80036;stroke-width:1.5;" x1="431" x2="817" y1="309.9141" y2="309.9141"/><ellipse cx="441" cy="320.9141" fill="#84BE84" rx="3" ry="3" style="stroke:#038048;stroke-width:1.0;"/><text fill="#000000" font-family="sans-serif" font-size="11" lengthAdjust="spacing" textLength="362" x="450" y="324.1245">[ComponentRender](out: Map&lt;string, string&gt;) : Promise&lt;void&gt;</text><!--MD5=[d1dcc9c41ef051a777528f9336a950e3]
class Folder--><rect codeLine="26" fill="#FEFECE" filter="url(#f1kvt90bozl9p1)" height="99.2188" id="Folder" style="stroke:#A80036;stroke-width:1.5;" width="388" x="853" y="231.5"/><ellipse cx="1023.25" cy="247.5" fill="#ADD1B2" rx="11" ry="11" style="stroke:#A80036;stroke-width:1.0;"/><path d="M1026.2188,253.1406 Q1025.6406,253.4375 1025,253.5781 Q1024.3594,253.7344 1023.6563,253.7344 Q1021.1563,253.7344 1019.8281,252.0938 Q1018.5156,250.4375 1018.5156,247.3125 Q1018.5156,244.1875 1019.8281,242.5313 Q1021.1563,240.875 1023.6563,240.875 Q1024.3594,240.875 1025,241.0313 Q1025.6563,241.1875 1026.2188,241.4844 L1026.2188,244.2031 Q1025.5938,243.625 1025,243.3594 Q1024.4063,243.0781 1023.7813,243.0781 Q1022.4375,243.0781 1021.75,244.1563 Q1021.0625,245.2188 1021.0625,247.3125 Q1021.0625,249.4063 1021.75,250.4844 Q1022.4375,251.5469 1023.7813,251.5469 Q1024.4063,251.5469 1025,251.2813 Q1025.5938,251 1026.2188,250.4219 L1026.2188,253.1406 Z " fill="#000000"/><text fill="#000000" font-family="sans-serif" font-size="12" lengthAdjust="spacing" textLength="39" x="1043.75" y="251.6543">Folder</text><line style="stroke:#A80036;stroke-width:1.5;" x1="854" x2="1240" y1="263.5" y2="263.5"/><ellipse cx="864" cy="274.5" rx="3" ry="3" style="stroke:#038048;stroke-width:1.0;fill:none;"/><text fill="#000000" font-family="sans-serif" font-size="11" lengthAdjust="spacing" textLength="95" x="873" y="277.7104">directory : string</text><ellipse cx="864" cy="287.3047" rx="3" ry="3" style="stroke:#038048;stroke-width:1.0;fill:none;"/><text fill="#000000" font-family="sans-serif" font-size="11" lengthAdjust="spacing" textLength="98" x="873" y="290.5151">gitkeep : boolean</text><ellipse cx="864" cy="300.1094" rx="3" ry="3" style="stroke:#038048;stroke-width:1.0;fill:none;"/><text fill="#000000" font-family="sans-serif" font-size="11" lengthAdjust="spacing" textLength="77" x="873" y="303.3198">name : string</text><line style="stroke:#A80036;stroke-width:1.5;" x1="854" x2="1240" y1="309.9141" y2="309.9141"/><ellipse cx="864" cy="320.9141" fill="#84BE84" rx="3" ry="3" style="stroke:#038048;stroke-width:1.0;"/><text fill="#000000" font-family="sans-serif" font-size="11" lengthAdjust="spacing" textLength="362" x="873" y="324.1245">[ComponentRender](out: Map&lt;string, string&gt;) : Promise&lt;void&gt;</text><!--MD5=[005b3853e152071bae7f46b5f48dae4f]
reverse link LocalComponent to FileSystemComponent--><path codeLine="10" d="M624,59.79 C624,72.45 624,86.61 624,98.94 " fill="none" id="LocalComponent-backto-FileSystemComponent" style="stroke:#A80036;stroke-width:1.0;"/><polygon fill="none" points="617,59.33,624,39.33,631,59.33,617,59.33" style="stroke:#A80036;stroke-width:1.0;"/><!--MD5=[e9c0f2da9c5ccef4608f4755289239d6]
reverse link FileSystemComponent to TextFile--><path codeLine="18" d="M519.91,169.17 C471.62,185.96 413.16,206.27 359.55,224.9 " fill="none" id="FileSystemComponent-backto-TextFile" style="stroke:#A80036;stroke-width:1.0;"/><polygon fill="none" points="517.72,162.52,538.91,162.57,522.31,175.75,517.72,162.52" style="stroke:#A80036;stroke-width:1.0;"/><!--MD5=[53795116d30c488577c8abf3c893359e]
reverse link FileSystemComponent to JsonFile--><path codeLine="25" d="M624,185.3 C624,200.29 624,216.56 624,231.33 " fill="none" id="FileSystemComponent-backto-JsonFile" style="stroke:#A80036;stroke-width:1.0;"/><polygon fill="none" points="617,185.26,624,165.26,631,185.26,617,185.26" style="stroke:#A80036;stroke-width:1.0;"/><!--MD5=[40ea2660ab55c0ee684eaad0582ec93f]
reverse link FileSystemComponent to Folder--><path codeLine="32" d="M727.99,169.14 C781.96,187.89 848.66,211.07 907.09,231.38 " fill="none" id="FileSystemComponent-backto-Folder" style="stroke:#A80036;stroke-width:1.0;"/><polygon fill="none" points="725.69,175.75,709.09,162.57,730.28,162.52,725.69,175.75" style="stroke:#A80036;stroke-width:1.0;"/><!--MD5=[0315fd098c440acba8dbc959532f3987]
@startuml
skinparam BackgroundColor transparent
hide empty methods
hide empty fields
abstract class "FileSystemComponent" {
    +directory : string
    +name : string
}
abstract class "LocalComponent" {
}
"LocalComponent" <|- - "FileSystemComponent"
class "TextFile" {
    +content : string
    +directory : string
    +lines : string[]
    +name : string
    +[ComponentRender](out: Map<string, string>) : Promise<void>
}
"FileSystemComponent" <|- - "TextFile"
class "JsonFile" {
    +data : any
    +directory : string
    +name : string
    +[ComponentRender](out: Map<string, string>) : Promise<void>
}
"FileSystemComponent" <|- - "JsonFile"
class "Folder" {
    +directory : string
    +gitkeep : boolean
    +name : string
    +[ComponentRender](out: Map<string, string>) : Promise<void>
}
"FileSystemComponent" <|- - "Folder"
@enduml

PlantUML version 1.2021.14(Fri Nov 12 16:46:50 UTC 2021)
(GPL source distribution)
Java Runtime: OpenJDK Runtime Environment
JVM: OpenJDK 64-Bit Server VM
Default Encoding: UTF-8
Language: en
Country: null
--></g></svg>