<?xml version="1.0" encoding="UTF-8" standalone="no"?><svg xmlns="http://www.w3.org/2000/svg" xmlns:xlink="http://www.w3.org/1999/xlink" contentScriptType="application/ecmascript" contentStyleType="text/css" height="317px" preserveAspectRatio="none" style="width:352px;height:317px;background:#00000000;" version="1.1" viewBox="0 0 352 317" width="352px" zoomAndPan="magnify"><defs><filter height="300%" id="f1xm9mvnz54u9y" width="300%" x="-1" y="-1"><feGaussianBlur result="blurOut" stdDeviation="2.0"/><feColorMatrix in="blurOut" result="blurOut2" type="matrix" values="0 0 0 0 0 0 0 0 0 0 0 0 0 0 0 0 0 0 .4 0"/><feOffset dx="4.0" dy="4.0" in="blurOut2" result="blurOut3"/><feBlend in="SourceGraphic" in2="blurOut3" mode="normal"/></filter></defs><g><!--MD5=[1db1c755ee50265688287d293ec3a29f]
class GdmBaseResource<PropsType>--><rect codeLine="4" fill="#FEFECE" filter="url(#f1xm9mvnz54u9y)" height="137.6328" id="GdmBaseResource&lt;PropsType&gt;" style="stroke:#A80036;stroke-width:1.5;" width="261" x="42" y="166"/><ellipse cx="70.05" cy="182" fill="#A9DCDF" rx="11" ry="11" style="stroke:#A80036;stroke-width:1.0;"/><path d="M70.1594,177.3438 L69.0031,182.4219 L71.3313,182.4219 L70.1594,177.3438 Z M68.675,175.1094 L71.6594,175.1094 L75.0188,187.5 L72.5656,187.5 L71.8,184.4375 L68.5188,184.4375 L67.7688,187.5 L65.3313,187.5 L68.675,175.1094 Z " fill="#000000"/><text fill="#000000" font-family="sans-serif" font-size="12" font-style="italic" lengthAdjust="spacing" textLength="200" x="86.95" y="186.1543">GdmBaseResource&lt;PropsType&gt;</text><line style="stroke:#A80036;stroke-width:1.5;" x1="43" x2="302" y1="198" y2="198"/><ellipse cx="53" cy="209" rx="3" ry="3" style="stroke:#038048;stroke-width:1.0;fill:none;"/><text fill="#000000" font-family="sans-serif" font-size="11" lengthAdjust="spacing" textLength="77" x="62" y="212.2104">name : string</text><ellipse cx="53" cy="221.8047" rx="3" ry="3" style="stroke:#038048;stroke-width:1.0;fill:none;"/><text fill="#000000" font-family="sans-serif" font-size="11" lengthAdjust="spacing" textLength="131" x="62" y="225.0151">properties : PropsType</text><ellipse cx="53" cy="234.6094" rx="3" ry="3" style="stroke:#038048;stroke-width:1.0;fill:none;"/><text fill="#000000" font-family="sans-serif" font-size="11" lengthAdjust="spacing" textLength="69" x="62" y="237.8198">type : string</text><ellipse cx="53" cy="247.4141" rx="3" ry="3" style="stroke:#038048;stroke-width:1.0;fill:none;"/><text fill="#000000" font-family="sans-serif" font-size="11" lengthAdjust="spacing" textLength="163" x="62" y="250.6245">[ComponentHandle] : Handle</text><line style="stroke:#A80036;stroke-width:1.5;" x1="43" x2="302" y1="257.2188" y2="257.2188"/><ellipse cx="53" cy="268.2188" fill="#84BE84" rx="3" ry="3" style="stroke:#038048;stroke-width:1.0;"/><text fill="#000000" font-family="sans-serif" font-size="11" lengthAdjust="spacing" textLength="220" x="62" y="271.4292">[ComponentRender](output: any) : void</text><ellipse cx="53" cy="281.0234" fill="#84BE84" rx="3" ry="3" style="stroke:#038048;stroke-width:1.0;"/><text fill="#000000" font-family="sans-serif" font-size="11" lengthAdjust="spacing" textLength="221" x="62" y="284.2339">[ComponentUpdate]() : Promise&lt;void&gt;</text><ellipse cx="53" cy="293.8281" fill="#84BE84" rx="3" ry="3" style="stroke:#038048;stroke-width:1.0;"/><text fill="#000000" font-family="sans-serif" font-size="11" lengthAdjust="spacing" textLength="235" x="62" y="297.0386">[ComponentVerify]() : Promise&lt;boolean&gt;</text><!--MD5=[41d4fac774e0e723492089dc4b99a6f3]
class Resolvable--><rect codeLine="13" fill="#FEFECE" filter="url(#f1xm9mvnz54u9y)" height="99.2188" id="Resolvable" style="stroke:#A80036;stroke-width:1.5;" width="331" x="7" y="7"/><ellipse cx="135.25" cy="23" fill="#A9DCDF" rx="11" ry="11" style="stroke:#A80036;stroke-width:1.0;"/><path d="M135.3594,18.3438 L134.2031,23.4219 L136.5313,23.4219 L135.3594,18.3438 Z M133.875,16.1094 L136.8594,16.1094 L140.2188,28.5 L137.7656,28.5 L137,25.4375 L133.7188,25.4375 L132.9688,28.5 L130.5313,28.5 L133.875,16.1094 Z " fill="#000000"/><text fill="#000000" font-family="sans-serif" font-size="12" font-style="italic" lengthAdjust="spacing" textLength="66" x="155.75" y="27.1543">Resolvable</text><line style="stroke:#A80036;stroke-width:1.5;" x1="8" x2="337" y1="39" y2="39"/><ellipse cx="18" cy="50" rx="3" ry="3" style="stroke:#038048;stroke-width:1.0;fill:none;"/><text fill="#000000" font-family="sans-serif" font-size="11" lengthAdjust="spacing" textLength="163" x="27" y="53.2104">[ComponentHandle] : Handle</text><line style="stroke:#A80036;stroke-width:1.5;" x1="8" x2="337" y1="59.8047" y2="59.8047"/><ellipse cx="18" cy="70.8047" fill="#84BE84" rx="3" ry="3" style="stroke:#038048;stroke-width:1.0;"/><text fill="#000000" font-family="sans-serif" font-size="11" font-style="italic" lengthAdjust="spacing" textLength="305" x="27" y="74.0151">[ComponentRender](out: any) : void | Promise&lt;void&gt;</text><ellipse cx="18" cy="83.6094" fill="#84BE84" rx="3" ry="3" style="stroke:#038048;stroke-width:1.0;"/><text fill="#000000" font-family="sans-serif" font-size="11" lengthAdjust="spacing" textLength="221" x="27" y="86.8198">[ComponentUpdate]() : Promise&lt;void&gt;</text><ellipse cx="18" cy="96.4141" fill="#84BE84" rx="3" ry="3" style="stroke:#038048;stroke-width:1.0;"/><text fill="#000000" font-family="sans-serif" font-size="11" lengthAdjust="spacing" textLength="235" x="27" y="99.6245">[ComponentVerify]() : Promise&lt;boolean&gt;</text><!--MD5=[8ce5ce1663a8de9989a48a02cf003006]
reverse link Resolvable to GdmBaseResource<PropsType>--><path codeLine="19" d="M172.5,126.57 C172.5,139.52 172.5,153.05 172.5,165.98 " fill="none" id="Resolvable-backto-GdmBaseResource&lt;PropsType&gt;" style="stroke:#A80036;stroke-width:1.0;"/><polygon fill="none" points="165.5,126.2,172.5,106.2,179.5,126.2,165.5,126.2" style="stroke:#A80036;stroke-width:1.0;"/><!--MD5=[00af6be9b91ec81df0345637ebb85497]
@startuml
skinparam BackgroundColor transparent
hide empty methods
hide empty fields
abstract class "GdmBaseResource<PropsType>" {
    +name : string
    +properties : PropsType
    +type : string
    +[ComponentHandle] : Handle
    +[ComponentRender](output: any) : void
    +[ComponentUpdate]() : Promise<void>
    +[ComponentVerify]() : Promise<boolean>
}
abstract class "Resolvable" {
    +[ComponentHandle] : Handle
    {abstract} +[ComponentRender](out: any) : void | Promise<void>
    +[ComponentUpdate]() : Promise<void>
    +[ComponentVerify]() : Promise<boolean>
}
"Resolvable" <|- - "GdmBaseResource<PropsType>"
@enduml

PlantUML version 1.2021.14(Fri Nov 12 16:46:50 UTC 2021)
(GPL source distribution)
Java Runtime: OpenJDK Runtime Environment
JVM: OpenJDK 64-Bit Server VM
Default Encoding: UTF-8
Language: en
Country: null
--></g></svg>