<?xml version="1.0" encoding="UTF-8" standalone="no"?><svg xmlns="http://www.w3.org/2000/svg" xmlns:xlink="http://www.w3.org/1999/xlink" contentScriptType="application/ecmascript" contentStyleType="text/css" height="476px" preserveAspectRatio="none" style="width:352px;height:476px;background:#00000000;" version="1.1" viewBox="0 0 352 476" width="352px" zoomAndPan="magnify"><defs><filter height="300%" id="f19ffn62qnnnkg" width="300%" x="-1" y="-1"><feGaussianBlur result="blurOut" stdDeviation="2.0"/><feColorMatrix in="blurOut" result="blurOut2" type="matrix" values="0 0 0 0 0 0 0 0 0 0 0 0 0 0 0 0 0 0 .4 0"/><feOffset dx="4.0" dy="4.0" in="blurOut2" result="blurOut3"/><feBlend in="SourceGraphic" in2="blurOut3" mode="normal"/></filter></defs><g><!--MD5=[d77ed4ab7ef1f9f95ed1968f51617b7c]
class GdmComponent--><rect codeLine="4" fill="#FEFECE" filter="url(#f19ffn62qnnnkg)" height="99.2188" id="GdmComponent" style="stroke:#A80036;stroke-width:1.5;" width="331" x="7" y="166"/><ellipse cx="118.25" cy="182" fill="#A9DCDF" rx="11" ry="11" style="stroke:#A80036;stroke-width:1.0;"/><path d="M118.3594,177.3438 L117.2031,182.4219 L119.5313,182.4219 L118.3594,177.3438 Z M116.875,175.1094 L119.8594,175.1094 L123.2188,187.5 L120.7656,187.5 L120,184.4375 L116.7188,184.4375 L115.9688,187.5 L113.5313,187.5 L116.875,175.1094 Z " fill="#000000"/><text fill="#000000" font-family="sans-serif" font-size="12" font-style="italic" lengthAdjust="spacing" textLength="100" x="138.75" y="186.1543">GdmComponent</text><line style="stroke:#A80036;stroke-width:1.5;" x1="8" x2="337" y1="198" y2="198"/><ellipse cx="18" cy="209" rx="3" ry="3" style="stroke:#038048;stroke-width:1.0;fill:none;"/><text fill="#000000" font-family="sans-serif" font-size="11" lengthAdjust="spacing" textLength="163" x="27" y="212.2104">[ComponentHandle] : Handle</text><line style="stroke:#A80036;stroke-width:1.5;" x1="8" x2="337" y1="218.8047" y2="218.8047"/><ellipse cx="18" cy="229.8047" fill="#84BE84" rx="3" ry="3" style="stroke:#038048;stroke-width:1.0;"/><text fill="#000000" font-family="sans-serif" font-size="11" font-style="italic" lengthAdjust="spacing" textLength="305" x="27" y="233.0151">[ComponentRender](out: any) : void | Promise&lt;void&gt;</text><ellipse cx="18" cy="242.6094" fill="#84BE84" rx="3" ry="3" style="stroke:#038048;stroke-width:1.0;"/><text fill="#000000" font-family="sans-serif" font-size="11" lengthAdjust="spacing" textLength="221" x="27" y="245.8198">[ComponentUpdate]() : Promise&lt;void&gt;</text><ellipse cx="18" cy="255.4141" fill="#84BE84" rx="3" ry="3" style="stroke:#038048;stroke-width:1.0;"/><text fill="#000000" font-family="sans-serif" font-size="11" lengthAdjust="spacing" textLength="248" x="27" y="258.6245">[ComponentVerify]() : void | Promise&lt;void&gt;</text><!--MD5=[bc00f38760f5c998ab68abb0e19452fc]
class CloudComponent--><rect codeLine="10" fill="#FEFECE" filter="url(#f19ffn62qnnnkg)" height="99.2188" id="CloudComponent" style="stroke:#A80036;stroke-width:1.5;" width="331" x="7" y="7"/><ellipse cx="114.75" cy="23" fill="#A9DCDF" rx="11" ry="11" style="stroke:#A80036;stroke-width:1.0;"/><path d="M114.8594,18.3438 L113.7031,23.4219 L116.0313,23.4219 L114.8594,18.3438 Z M113.375,16.1094 L116.3594,16.1094 L119.7188,28.5 L117.2656,28.5 L116.5,25.4375 L113.2188,25.4375 L112.4688,28.5 L110.0313,28.5 L113.375,16.1094 Z " fill="#000000"/><text fill="#000000" font-family="sans-serif" font-size="12" font-style="italic" lengthAdjust="spacing" textLength="107" x="135.25" y="27.1543">CloudComponent</text><line style="stroke:#A80036;stroke-width:1.5;" x1="8" x2="337" y1="39" y2="39"/><ellipse cx="18" cy="50" rx="3" ry="3" style="stroke:#038048;stroke-width:1.0;fill:none;"/><text fill="#000000" font-family="sans-serif" font-size="11" lengthAdjust="spacing" textLength="163" x="27" y="53.2104">[ComponentHandle] : Handle</text><line style="stroke:#A80036;stroke-width:1.5;" x1="8" x2="337" y1="59.8047" y2="59.8047"/><ellipse cx="18" cy="70.8047" fill="#84BE84" rx="3" ry="3" style="stroke:#038048;stroke-width:1.0;"/><text fill="#000000" font-family="sans-serif" font-size="11" font-style="italic" lengthAdjust="spacing" textLength="305" x="27" y="74.0151">[ComponentRender](out: any) : void | Promise&lt;void&gt;</text><ellipse cx="18" cy="83.6094" fill="#84BE84" rx="3" ry="3" style="stroke:#038048;stroke-width:1.0;"/><text fill="#000000" font-family="sans-serif" font-size="11" lengthAdjust="spacing" textLength="221" x="27" y="86.8198">[ComponentUpdate]() : Promise&lt;void&gt;</text><ellipse cx="18" cy="96.4141" fill="#84BE84" rx="3" ry="3" style="stroke:#038048;stroke-width:1.0;"/><text fill="#000000" font-family="sans-serif" font-size="11" lengthAdjust="spacing" textLength="248" x="27" y="99.6245">[ComponentVerify]() : void | Promise&lt;void&gt;</text><!--MD5=[8b986f3bb4aab246cd748cbae17574c6]
class GdmResource<void>--><rect codeLine="17" fill="#FEFECE" filter="url(#f19ffn62qnnnkg)" height="137.6328" id="GdmResource&lt;void&gt;" style="stroke:#A80036;stroke-width:1.5;" width="279" x="33" y="325"/><ellipse cx="102.75" cy="341" fill="#A9DCDF" rx="11" ry="11" style="stroke:#A80036;stroke-width:1.0;"/><path d="M102.8594,336.3438 L101.7031,341.4219 L104.0313,341.4219 L102.8594,336.3438 Z M101.375,334.1094 L104.3594,334.1094 L107.7188,346.5 L105.2656,346.5 L104.5,343.4375 L101.2188,343.4375 L100.4688,346.5 L98.0313,346.5 L101.375,334.1094 Z " fill="#000000"/><text fill="#000000" font-family="sans-serif" font-size="12" font-style="italic" lengthAdjust="spacing" textLength="131" x="123.25" y="345.1543">GdmResource&lt;void&gt;</text><line style="stroke:#A80036;stroke-width:1.5;" x1="34" x2="311" y1="357" y2="357"/><ellipse cx="44" cy="368" rx="3" ry="3" style="stroke:#038048;stroke-width:1.0;fill:none;"/><text fill="#000000" font-family="sans-serif" font-size="11" lengthAdjust="spacing" textLength="77" x="53" y="371.2104">name : string</text><ellipse cx="44" cy="380.8047" rx="3" ry="3" style="stroke:#038048;stroke-width:1.0;fill:none;"/><text fill="#000000" font-family="sans-serif" font-size="11" lengthAdjust="spacing" textLength="94" x="53" y="384.0151">properties : void</text><ellipse cx="44" cy="393.6094" rx="3" ry="3" style="stroke:#038048;stroke-width:1.0;fill:none;"/><text fill="#000000" font-family="sans-serif" font-size="11" lengthAdjust="spacing" textLength="69" x="53" y="396.8198">type : string</text><ellipse cx="44" cy="406.4141" rx="3" ry="3" style="stroke:#038048;stroke-width:1.0;fill:none;"/><text fill="#000000" font-family="sans-serif" font-size="11" lengthAdjust="spacing" textLength="163" x="53" y="409.6245">[ComponentHandle] : Handle</text><line style="stroke:#A80036;stroke-width:1.5;" x1="34" x2="311" y1="416.2188" y2="416.2188"/><ellipse cx="44" cy="427.2188" fill="#84BE84" rx="3" ry="3" style="stroke:#038048;stroke-width:1.0;"/><text fill="#000000" font-family="sans-serif" font-size="11" lengthAdjust="spacing" textLength="253" x="53" y="430.4292">[ComponentRender](output: Template) : void</text><ellipse cx="44" cy="440.0234" fill="#84BE84" rx="3" ry="3" style="stroke:#038048;stroke-width:1.0;"/><text fill="#000000" font-family="sans-serif" font-size="11" lengthAdjust="spacing" textLength="221" x="53" y="443.2339">[ComponentUpdate]() : Promise&lt;void&gt;</text><ellipse cx="44" cy="452.8281" fill="#84BE84" rx="3" ry="3" style="stroke:#038048;stroke-width:1.0;"/><text fill="#000000" font-family="sans-serif" font-size="11" lengthAdjust="spacing" textLength="248" x="53" y="456.0386">[ComponentVerify]() : void | Promise&lt;void&gt;</text><!--MD5=[33af4b293e12872a0c53a141ec18b135]
reverse link CloudComponent to GdmComponent--><path codeLine="16" d="M172.5,126.64 C172.5,139.91 172.5,153.54 172.5,165.98 " fill="none" id="CloudComponent-backto-GdmComponent" style="stroke:#A80036;stroke-width:1.0;"/><polygon fill="none" points="165.5,126.32,172.5,106.32,179.5,126.32,165.5,126.32" style="stroke:#A80036;stroke-width:1.0;"/><!--MD5=[3a019ae353c7c5bb7e2b0cd0c8a331b6]
reverse link GdmComponent to GdmResource<void>--><path codeLine="26" d="M172.5,285.57 C172.5,298.52 172.5,312.05 172.5,324.98 " fill="none" id="GdmComponent-backto-GdmResource&lt;void&gt;" style="stroke:#A80036;stroke-width:1.0;"/><polygon fill="none" points="165.5,285.2,172.5,265.2,179.5,285.2,165.5,285.2" style="stroke:#A80036;stroke-width:1.0;"/><!--MD5=[5ea23d041623ea66fb3440888b577af7]
@startuml
skinparam BackgroundColor transparent
hide empty methods
hide empty fields
abstract class "GdmComponent" {
    +[ComponentHandle] : Handle
    {abstract} +[ComponentRender](out: any) : void | Promise<void>
    +[ComponentUpdate]() : Promise<void>
    +[ComponentVerify]() : void | Promise<void>
}
abstract class "CloudComponent" {
    +[ComponentHandle] : Handle
    {abstract} +[ComponentRender](out: any) : void | Promise<void>
    +[ComponentUpdate]() : Promise<void>
    +[ComponentVerify]() : void | Promise<void>
}
"CloudComponent" <|- - "GdmComponent"
abstract class "GdmResource<void>" {
    +name : string
    +properties : void
    +type : string
    +[ComponentHandle] : Handle
    +[ComponentRender](output: Template) : void
    +[ComponentUpdate]() : Promise<void>
    +[ComponentVerify]() : void | Promise<void>
}
"GdmComponent" <|- - "GdmResource<void>"
@enduml

PlantUML version 1.2021.14(Fri Nov 12 16:46:50 UTC 2021)
(GPL source distribution)
Java Runtime: OpenJDK Runtime Environment
JVM: OpenJDK 64-Bit Server VM
Default Encoding: UTF-8
Language: en
Country: null
--></g></svg>