<?xml version="1.0" encoding="UTF-8" standalone="no"?><svg xmlns="http://www.w3.org/2000/svg" xmlns:xlink="http://www.w3.org/1999/xlink" contentScriptType="application/ecmascript" contentStyleType="text/css" height="304px" preserveAspectRatio="none" style="width:300px;height:304px;background:#00000000;" version="1.1" viewBox="0 0 300 304" width="300px" zoomAndPan="magnify"><defs><filter height="300%" id="fpy42iyq2kpjf" width="300%" x="-1" y="-1"><feGaussianBlur result="blurOut" stdDeviation="2.0"/><feColorMatrix in="blurOut" result="blurOut2" type="matrix" values="0 0 0 0 0 0 0 0 0 0 0 0 0 0 0 0 0 0 .4 0"/><feOffset dx="4.0" dy="4.0" in="blurOut2" result="blurOut3"/><feBlend in="SourceGraphic" in2="blurOut3" mode="normal"/></filter></defs><g><!--MD5=[d77ed4ab7ef1f9f95ed1968f51617b7c]
class GdmComponent--><rect codeLine="4" fill="#FEFECE" filter="url(#fpy42iyq2kpjf)" height="32" id="GdmComponent" style="stroke:#A80036;stroke-width:1.5;" width="132" x="80.5" y="99"/><ellipse cx="95.5" cy="115" fill="#A9DCDF" rx="11" ry="11" style="stroke:#A80036;stroke-width:1.0;"/><path d="M95.6094,110.3438 L94.4531,115.4219 L96.7813,115.4219 L95.6094,110.3438 Z M94.125,108.1094 L97.1094,108.1094 L100.4688,120.5 L98.0156,120.5 L97.25,117.4375 L93.9688,117.4375 L93.2188,120.5 L90.7813,120.5 L94.125,108.1094 Z " fill="#000000"/><text fill="#000000" font-family="sans-serif" font-size="12" font-style="italic" lengthAdjust="spacing" textLength="100" x="109.5" y="119.1543">GdmComponent</text><!--MD5=[bc00f38760f5c998ab68abb0e19452fc]
class CloudComponent--><rect codeLine="6" fill="#FEFECE" filter="url(#fpy42iyq2kpjf)" height="32" id="CloudComponent" style="stroke:#A80036;stroke-width:1.5;" width="139" x="77" y="7"/><ellipse cx="92" cy="23" fill="#A9DCDF" rx="11" ry="11" style="stroke:#A80036;stroke-width:1.0;"/><path d="M92.1094,18.3438 L90.9531,23.4219 L93.2813,23.4219 L92.1094,18.3438 Z M90.625,16.1094 L93.6094,16.1094 L96.9688,28.5 L94.5156,28.5 L93.75,25.4375 L90.4688,25.4375 L89.7188,28.5 L87.2813,28.5 L90.625,16.1094 Z " fill="#000000"/><text fill="#000000" font-family="sans-serif" font-size="12" font-style="italic" lengthAdjust="spacing" textLength="107" x="106" y="27.1543">CloudComponent</text><!--MD5=[8b986f3bb4aab246cd748cbae17574c6]
class GdmResource<void>--><rect codeLine="9" fill="#FEFECE" filter="url(#fpy42iyq2kpjf)" height="99.2188" id="GdmResource&lt;void&gt;" style="stroke:#A80036;stroke-width:1.5;" width="279" x="7" y="191"/><ellipse cx="76.75" cy="207" fill="#A9DCDF" rx="11" ry="11" style="stroke:#A80036;stroke-width:1.0;"/><path d="M76.8594,202.3438 L75.7031,207.4219 L78.0313,207.4219 L76.8594,202.3438 Z M75.375,200.1094 L78.3594,200.1094 L81.7188,212.5 L79.2656,212.5 L78.5,209.4375 L75.2188,209.4375 L74.4688,212.5 L72.0313,212.5 L75.375,200.1094 Z " fill="#000000"/><text fill="#000000" font-family="sans-serif" font-size="12" font-style="italic" lengthAdjust="spacing" textLength="131" x="97.25" y="211.1543">GdmResource&lt;void&gt;</text><line style="stroke:#A80036;stroke-width:1.5;" x1="8" x2="285" y1="223" y2="223"/><ellipse cx="18" cy="234" rx="3" ry="3" style="stroke:#038048;stroke-width:1.0;fill:none;"/><text fill="#000000" font-family="sans-serif" font-size="11" lengthAdjust="spacing" textLength="77" x="27" y="237.2104">name : string</text><ellipse cx="18" cy="246.8047" rx="3" ry="3" style="stroke:#038048;stroke-width:1.0;fill:none;"/><text fill="#000000" font-family="sans-serif" font-size="11" lengthAdjust="spacing" textLength="94" x="27" y="250.0151">properties : void</text><ellipse cx="18" cy="259.6094" rx="3" ry="3" style="stroke:#038048;stroke-width:1.0;fill:none;"/><text fill="#000000" font-family="sans-serif" font-size="11" lengthAdjust="spacing" textLength="69" x="27" y="262.8198">type : string</text><line style="stroke:#A80036;stroke-width:1.5;" x1="8" x2="285" y1="269.4141" y2="269.4141"/><ellipse cx="18" cy="280.4141" fill="#84BE84" rx="3" ry="3" style="stroke:#038048;stroke-width:1.0;"/><text fill="#000000" font-family="sans-serif" font-size="11" lengthAdjust="spacing" textLength="253" x="27" y="283.6245">[ComponentRender](output: Template) : void</text><!--MD5=[33af4b293e12872a0c53a141ec18b135]
reverse link CloudComponent to GdmComponent--><path codeLine="8" d="M146.5,59.61 C146.5,73.31 146.5,88.22 146.5,98.96 " fill="none" id="CloudComponent-backto-GdmComponent" style="stroke:#A80036;stroke-width:1.0;"/><polygon fill="none" points="139.5,59.27,146.5,39.27,153.5,59.27,139.5,59.27" style="stroke:#A80036;stroke-width:1.0;"/><!--MD5=[3a019ae353c7c5bb7e2b0cd0c8a331b6]
reverse link GdmComponent to GdmResource<void>--><path codeLine="15" d="M146.5,151.42 C146.5,163.7 146.5,177.69 146.5,190.86 " fill="none" id="GdmComponent-backto-GdmResource&lt;void&gt;" style="stroke:#A80036;stroke-width:1.0;"/><polygon fill="none" points="139.5,151.14,146.5,131.14,153.5,151.14,139.5,151.14" style="stroke:#A80036;stroke-width:1.0;"/><!--MD5=[47d5df04217bdda4058b1d7fcfa4b406]
@startuml
skinparam BackgroundColor transparent
hide empty methods
hide empty fields
abstract class "GdmComponent" {
}
abstract class "CloudComponent" {
}
"CloudComponent" <|- - "GdmComponent"
abstract class "GdmResource<void>" {
    +name : string
    +properties : void
    +type : string
    +[ComponentRender](output: Template) : void
}
"GdmComponent" <|- - "GdmResource<void>"
@enduml

PlantUML version 1.2021.14(Fri Nov 12 16:46:50 UTC 2021)
(GPL source distribution)
Java Runtime: OpenJDK Runtime Environment
JVM: OpenJDK 64-Bit Server VM
Default Encoding: UTF-8
Language: en
Country: null
--></g></svg>