<?xml version="1.0" encoding="UTF-8" standalone="no"?><svg xmlns="http://www.w3.org/2000/svg" xmlns:xlink="http://www.w3.org/1999/xlink" contentScriptType="application/ecmascript" contentStyleType="text/css" height="317px" preserveAspectRatio="none" style="width:352px;height:317px;background:#00000000;" version="1.1" viewBox="0 0 352 317" width="352px" zoomAndPan="magnify"><defs><filter height="300%" id="fr3afmxio1ohg" width="300%" x="-1" y="-1"><feGaussianBlur result="blurOut" stdDeviation="2.0"/><feColorMatrix in="blurOut" result="blurOut2" type="matrix" values="0 0 0 0 0 0 0 0 0 0 0 0 0 0 0 0 0 0 .4 0"/><feOffset dx="4.0" dy="4.0" in="blurOut2" result="blurOut3"/><feBlend in="SourceGraphic" in2="blurOut3" mode="normal"/></filter></defs><g><!--MD5=[3bcb03b27becb8baabdeabd22c949a68]
class GdmResource<PropsType>--><rect codeLine="4" fill="#FEFECE" filter="url(#fr3afmxio1ohg)" height="137.6328" id="GdmResource&lt;PropsType&gt;" style="stroke:#A80036;stroke-width:1.5;" width="279" x="33" y="166"/><ellipse cx="83.25" cy="182" fill="#A9DCDF" rx="11" ry="11" style="stroke:#A80036;stroke-width:1.0;"/><path d="M83.3594,177.3438 L82.2031,182.4219 L84.5313,182.4219 L83.3594,177.3438 Z M81.875,175.1094 L84.8594,175.1094 L88.2188,187.5 L85.7656,187.5 L85,184.4375 L81.7188,184.4375 L80.9688,187.5 L78.5313,187.5 L81.875,175.1094 Z " fill="#000000"/><text fill="#000000" font-family="sans-serif" font-size="12" font-style="italic" lengthAdjust="spacing" textLength="170" x="103.75" y="186.1543">GdmResource&lt;PropsType&gt;</text><line style="stroke:#A80036;stroke-width:1.5;" x1="34" x2="311" y1="198" y2="198"/><ellipse cx="44" cy="209" rx="3" ry="3" style="stroke:#038048;stroke-width:1.0;fill:none;"/><text fill="#000000" font-family="sans-serif" font-size="11" lengthAdjust="spacing" textLength="77" x="53" y="212.2104">name : string</text><ellipse cx="44" cy="221.8047" rx="3" ry="3" style="stroke:#038048;stroke-width:1.0;fill:none;"/><text fill="#000000" font-family="sans-serif" font-size="11" lengthAdjust="spacing" textLength="131" x="53" y="225.0151">properties : PropsType</text><ellipse cx="44" cy="234.6094" rx="3" ry="3" style="stroke:#038048;stroke-width:1.0;fill:none;"/><text fill="#000000" font-family="sans-serif" font-size="11" lengthAdjust="spacing" textLength="69" x="53" y="237.8198">type : string</text><ellipse cx="44" cy="247.4141" rx="3" ry="3" style="stroke:#038048;stroke-width:1.0;fill:none;"/><text fill="#000000" font-family="sans-serif" font-size="11" lengthAdjust="spacing" textLength="163" x="53" y="250.6245">[ComponentHandle] : Handle</text><line style="stroke:#A80036;stroke-width:1.5;" x1="34" x2="311" y1="257.2188" y2="257.2188"/><ellipse cx="44" cy="268.2188" fill="#84BE84" rx="3" ry="3" style="stroke:#038048;stroke-width:1.0;"/><text fill="#000000" font-family="sans-serif" font-size="11" lengthAdjust="spacing" textLength="253" x="53" y="271.4292">[ComponentRender](output: Template) : void</text><ellipse cx="44" cy="281.0234" fill="#84BE84" rx="3" ry="3" style="stroke:#038048;stroke-width:1.0;"/><text fill="#000000" font-family="sans-serif" font-size="11" lengthAdjust="spacing" textLength="221" x="53" y="284.2339">[ComponentUpdate]() : Promise&lt;void&gt;</text><ellipse cx="44" cy="293.8281" fill="#84BE84" rx="3" ry="3" style="stroke:#038048;stroke-width:1.0;"/><text fill="#000000" font-family="sans-serif" font-size="11" lengthAdjust="spacing" textLength="248" x="53" y="297.0386">[ComponentVerify]() : void | Promise&lt;void&gt;</text><!--MD5=[d77ed4ab7ef1f9f95ed1968f51617b7c]
class GdmComponent--><rect codeLine="13" fill="#FEFECE" filter="url(#fr3afmxio1ohg)" height="99.2188" id="GdmComponent" style="stroke:#A80036;stroke-width:1.5;" width="331" x="7" y="7"/><ellipse cx="118.25" cy="23" fill="#A9DCDF" rx="11" ry="11" style="stroke:#A80036;stroke-width:1.0;"/><path d="M118.3594,18.3438 L117.2031,23.4219 L119.5313,23.4219 L118.3594,18.3438 Z M116.875,16.1094 L119.8594,16.1094 L123.2188,28.5 L120.7656,28.5 L120,25.4375 L116.7188,25.4375 L115.9688,28.5 L113.5313,28.5 L116.875,16.1094 Z " fill="#000000"/><text fill="#000000" font-family="sans-serif" font-size="12" font-style="italic" lengthAdjust="spacing" textLength="100" x="138.75" y="27.1543">GdmComponent</text><line style="stroke:#A80036;stroke-width:1.5;" x1="8" x2="337" y1="39" y2="39"/><ellipse cx="18" cy="50" rx="3" ry="3" style="stroke:#038048;stroke-width:1.0;fill:none;"/><text fill="#000000" font-family="sans-serif" font-size="11" lengthAdjust="spacing" textLength="163" x="27" y="53.2104">[ComponentHandle] : Handle</text><line style="stroke:#A80036;stroke-width:1.5;" x1="8" x2="337" y1="59.8047" y2="59.8047"/><ellipse cx="18" cy="70.8047" fill="#84BE84" rx="3" ry="3" style="stroke:#038048;stroke-width:1.0;"/><text fill="#000000" font-family="sans-serif" font-size="11" font-style="italic" lengthAdjust="spacing" textLength="305" x="27" y="74.0151">[ComponentRender](out: any) : void | Promise&lt;void&gt;</text><ellipse cx="18" cy="83.6094" fill="#84BE84" rx="3" ry="3" style="stroke:#038048;stroke-width:1.0;"/><text fill="#000000" font-family="sans-serif" font-size="11" lengthAdjust="spacing" textLength="221" x="27" y="86.8198">[ComponentUpdate]() : Promise&lt;void&gt;</text><ellipse cx="18" cy="96.4141" fill="#84BE84" rx="3" ry="3" style="stroke:#038048;stroke-width:1.0;"/><text fill="#000000" font-family="sans-serif" font-size="11" lengthAdjust="spacing" textLength="248" x="27" y="99.6245">[ComponentVerify]() : void | Promise&lt;void&gt;</text><!--MD5=[c4f1c773442f8eb05bf78778485ac2dd]
reverse link GdmComponent to GdmResource<PropsType>--><path codeLine="19" d="M172.5,126.57 C172.5,139.52 172.5,153.05 172.5,165.98 " fill="none" id="GdmComponent-backto-GdmResource&lt;PropsType&gt;" style="stroke:#A80036;stroke-width:1.0;"/><polygon fill="none" points="165.5,126.2,172.5,106.2,179.5,126.2,165.5,126.2" style="stroke:#A80036;stroke-width:1.0;"/><!--MD5=[edef7e4e4826c7c88b71fe1f1c007612]
@startuml
skinparam BackgroundColor transparent
hide empty methods
hide empty fields
abstract class "GdmResource<PropsType>" {
    +name : string
    +properties : PropsType
    +type : string
    +[ComponentHandle] : Handle
    +[ComponentRender](output: Template) : void
    +[ComponentUpdate]() : Promise<void>
    +[ComponentVerify]() : void | Promise<void>
}
abstract class "GdmComponent" {
    +[ComponentHandle] : Handle
    {abstract} +[ComponentRender](out: any) : void | Promise<void>
    +[ComponentUpdate]() : Promise<void>
    +[ComponentVerify]() : void | Promise<void>
}
"GdmComponent" <|- - "GdmResource<PropsType>"
@enduml

PlantUML version 1.2021.14(Fri Nov 12 16:46:50 UTC 2021)
(GPL source distribution)
Java Runtime: OpenJDK Runtime Environment
JVM: OpenJDK 64-Bit Server VM
Default Encoding: UTF-8
Language: en
Country: null
--></g></svg>