<?xml version="1.0" encoding="UTF-8" standalone="no"?><svg xmlns="http://www.w3.org/2000/svg" xmlns:xlink="http://www.w3.org/1999/xlink" contentScriptType="application/ecmascript" contentStyleType="text/css" height="212px" preserveAspectRatio="none" style="width:300px;height:212px;background:#00000000;" version="1.1" viewBox="0 0 300 212" width="300px" zoomAndPan="magnify"><defs><filter height="300%" id="fklnxdk58fru7" width="300%" x="-1" y="-1"><feGaussianBlur result="blurOut" stdDeviation="2.0"/><feColorMatrix in="blurOut" result="blurOut2" type="matrix" values="0 0 0 0 0 0 0 0 0 0 0 0 0 0 0 0 0 0 .4 0"/><feOffset dx="4.0" dy="4.0" in="blurOut2" result="blurOut3"/><feBlend in="SourceGraphic" in2="blurOut3" mode="normal"/></filter></defs><g><!--MD5=[3bcb03b27becb8baabdeabd22c949a68]
class GdmResource<PropsType>--><rect codeLine="4" fill="#FEFECE" filter="url(#fklnxdk58fru7)" height="99.2188" id="GdmResource&lt;PropsType&gt;" style="stroke:#A80036;stroke-width:1.5;" width="279" x="7" y="99"/><ellipse cx="57.25" cy="115" fill="#A9DCDF" rx="11" ry="11" style="stroke:#A80036;stroke-width:1.0;"/><path d="M57.3594,110.3438 L56.2031,115.4219 L58.5313,115.4219 L57.3594,110.3438 Z M55.875,108.1094 L58.8594,108.1094 L62.2188,120.5 L59.7656,120.5 L59,117.4375 L55.7188,117.4375 L54.9688,120.5 L52.5313,120.5 L55.875,108.1094 Z " fill="#000000"/><text fill="#000000" font-family="sans-serif" font-size="12" font-style="italic" lengthAdjust="spacing" textLength="170" x="77.75" y="119.1543">GdmResource&lt;PropsType&gt;</text><line style="stroke:#A80036;stroke-width:1.5;" x1="8" x2="285" y1="131" y2="131"/><ellipse cx="18" cy="142" rx="3" ry="3" style="stroke:#038048;stroke-width:1.0;fill:none;"/><text fill="#000000" font-family="sans-serif" font-size="11" lengthAdjust="spacing" textLength="77" x="27" y="145.2104">name : string</text><ellipse cx="18" cy="154.8047" rx="3" ry="3" style="stroke:#038048;stroke-width:1.0;fill:none;"/><text fill="#000000" font-family="sans-serif" font-size="11" lengthAdjust="spacing" textLength="131" x="27" y="158.0151">properties : PropsType</text><ellipse cx="18" cy="167.6094" rx="3" ry="3" style="stroke:#038048;stroke-width:1.0;fill:none;"/><text fill="#000000" font-family="sans-serif" font-size="11" lengthAdjust="spacing" textLength="69" x="27" y="170.8198">type : string</text><line style="stroke:#A80036;stroke-width:1.5;" x1="8" x2="285" y1="177.4141" y2="177.4141"/><ellipse cx="18" cy="188.4141" fill="#84BE84" rx="3" ry="3" style="stroke:#038048;stroke-width:1.0;"/><text fill="#000000" font-family="sans-serif" font-size="11" lengthAdjust="spacing" textLength="253" x="27" y="191.6245">[ComponentRender](output: Template) : void</text><!--MD5=[d77ed4ab7ef1f9f95ed1968f51617b7c]
class GdmComponent--><rect codeLine="10" fill="#FEFECE" filter="url(#fklnxdk58fru7)" height="32" id="GdmComponent" style="stroke:#A80036;stroke-width:1.5;" width="132" x="80.5" y="7"/><ellipse cx="95.5" cy="23" fill="#A9DCDF" rx="11" ry="11" style="stroke:#A80036;stroke-width:1.0;"/><path d="M95.6094,18.3438 L94.4531,23.4219 L96.7813,23.4219 L95.6094,18.3438 Z M94.125,16.1094 L97.1094,16.1094 L100.4688,28.5 L98.0156,28.5 L97.25,25.4375 L93.9688,25.4375 L93.2188,28.5 L90.7813,28.5 L94.125,16.1094 Z " fill="#000000"/><text fill="#000000" font-family="sans-serif" font-size="12" font-style="italic" lengthAdjust="spacing" textLength="100" x="109.5" y="27.1543">GdmComponent</text><!--MD5=[c4f1c773442f8eb05bf78778485ac2dd]
reverse link GdmComponent to GdmResource<PropsType>--><path codeLine="12" d="M146.5,59.42 C146.5,71.7 146.5,85.69 146.5,98.86 " fill="none" id="GdmComponent-backto-GdmResource&lt;PropsType&gt;" style="stroke:#A80036;stroke-width:1.0;"/><polygon fill="none" points="139.5,59.14,146.5,39.14,153.5,59.14,139.5,59.14" style="stroke:#A80036;stroke-width:1.0;"/><!--MD5=[28491c8063d24ad16fe7e83247964f09]
@startuml
skinparam BackgroundColor transparent
hide empty methods
hide empty fields
abstract class "GdmResource<PropsType>" {
    +name : string
    +properties : PropsType
    +type : string
    +[ComponentRender](output: Template) : void
}
abstract class "GdmComponent" {
}
"GdmComponent" <|- - "GdmResource<PropsType>"
@enduml

PlantUML version 1.2021.14(Fri Nov 12 16:46:50 UTC 2021)
(GPL source distribution)
Java Runtime: OpenJDK Runtime Environment
JVM: OpenJDK 64-Bit Server VM
Default Encoding: UTF-8
Language: en
Country: null
--></g></svg>