<?xml version="1.0" encoding="UTF-8" standalone="no"?><svg xmlns="http://www.w3.org/2000/svg" xmlns:xlink="http://www.w3.org/1999/xlink" contentScriptType="application/ecmascript" contentStyleType="text/css" height="394px" preserveAspectRatio="none" style="width:368px;height:394px;background:#00000000;" version="1.1" viewBox="0 0 368 394" width="368px" zoomAndPan="magnify"><defs><filter height="300%" id="fy3nxenlkm43k" width="300%" x="-1" y="-1"><feGaussianBlur result="blurOut" stdDeviation="2.0"/><feColorMatrix in="blurOut" result="blurOut2" type="matrix" values="0 0 0 0 0 0 0 0 0 0 0 0 0 0 0 0 0 0 .4 0"/><feOffset dx="4.0" dy="4.0" in="blurOut2" result="blurOut3"/><feBlend in="SourceGraphic" in2="blurOut3" mode="normal"/></filter></defs><g><!--MD5=[7cc8d463400a80c8d2dac75cb81a1a89]
class GdmScene--><rect codeLine="4" fill="#FEFECE" filter="url(#fy3nxenlkm43k)" height="163.2422" id="GdmScene" style="stroke:#A80036;stroke-width:1.5;" width="347" x="7" y="217"/><ellipse cx="142.75" cy="233" fill="#ADD1B2" rx="11" ry="11" style="stroke:#A80036;stroke-width:1.0;"/><path d="M145.7188,238.6406 Q145.1406,238.9375 144.5,239.0781 Q143.8594,239.2344 143.1563,239.2344 Q140.6563,239.2344 139.3281,237.5938 Q138.0156,235.9375 138.0156,232.8125 Q138.0156,229.6875 139.3281,228.0313 Q140.6563,226.375 143.1563,226.375 Q143.8594,226.375 144.5,226.5313 Q145.1563,226.6875 145.7188,226.9844 L145.7188,229.7031 Q145.0938,229.125 144.5,228.8594 Q143.9063,228.5781 143.2813,228.5781 Q141.9375,228.5781 141.25,229.6563 Q140.5625,230.7188 140.5625,232.8125 Q140.5625,234.9063 141.25,235.9844 Q141.9375,237.0469 143.2813,237.0469 Q143.9063,237.0469 144.5,236.7813 Q145.0938,236.5 145.7188,235.9219 L145.7188,238.6406 Z " fill="#000000"/><text fill="#000000" font-family="sans-serif" font-size="12" lengthAdjust="spacing" textLength="67" x="163.25" y="237.1543">GdmScene</text><line style="stroke:#A80036;stroke-width:1.5;" x1="8" x2="353" y1="249" y2="249"/><ellipse cx="18" cy="260" rx="3" ry="3" style="stroke:#038048;stroke-width:1.0;fill:none;"/><text fill="#000000" font-family="sans-serif" font-size="11" lengthAdjust="spacing" textLength="184" x="27" y="263.2104">components : Set&lt;Component&gt;</text><ellipse cx="18" cy="272.8047" rx="3" ry="3" style="stroke:#038048;stroke-width:1.0;fill:none;"/><text fill="#000000" font-family="sans-serif" font-size="11" lengthAdjust="spacing" textLength="97" x="27" y="276.0151">system : System</text><rect fill="none" height="6" style="stroke:#C82930;stroke-width:1.0;" width="6" x="15" y="282.6094"/><text fill="#000000" font-family="sans-serif" font-size="11" lengthAdjust="spacing" textLength="107" x="27" y="288.8198">_output : Template</text><line style="stroke:#A80036;stroke-width:1.5;" x1="8" x2="353" y1="295.4141" y2="295.4141"/><ellipse cx="18" cy="306.4141" fill="#84BE84" rx="3" ry="3" style="stroke:#038048;stroke-width:1.0;"/><text fill="#000000" font-family="sans-serif" font-size="11" lengthAdjust="spacing" textLength="108" x="27" y="309.6245">empty() : Template</text><ellipse cx="18" cy="319.2188" fill="#84BE84" rx="3" ry="3" style="stroke:#038048;stroke-width:1.0;"/><text fill="#000000" font-family="sans-serif" font-size="11" lengthAdjust="spacing" textLength="227" x="27" y="322.4292">filter(component: Component) : boolean</text><ellipse cx="18" cy="332.0234" fill="#84BE84" rx="3" ry="3" style="stroke:#038048;stroke-width:1.0;"/><text fill="#000000" font-family="sans-serif" font-size="11" lengthAdjust="spacing" textLength="80" x="27" y="335.2339">gizmos() : any</text><ellipse cx="18" cy="344.8281" fill="#84BE84" rx="3" ry="3" style="stroke:#038048;stroke-width:1.0;"/><text fill="#000000" font-family="sans-serif" font-size="11" lengthAdjust="spacing" textLength="240" x="27" y="348.0386">render(view: View) : void | Promise&lt;void&gt;</text><ellipse cx="18" cy="357.6328" fill="#84BE84" rx="3" ry="3" style="stroke:#038048;stroke-width:1.0;"/><text fill="#000000" font-family="sans-serif" font-size="11" lengthAdjust="spacing" textLength="321" x="27" y="360.8433">update(token: Token&lt;any, any&gt;) : void | Promise&lt;void&gt;</text><ellipse cx="18" cy="370.4375" fill="#84BE84" rx="3" ry="3" style="stroke:#038048;stroke-width:1.0;"/><text fill="#000000" font-family="sans-serif" font-size="11" lengthAdjust="spacing" textLength="233" x="27" y="373.6479">verify(view: View) : void | Promise&lt;void&gt;</text><!--MD5=[e4faacc5b8aef66b11ab0c816bbbc7f8]
class Scene--><rect codeLine="15" fill="#FEFECE" filter="url(#fy3nxenlkm43k)" height="150.4375" id="Scene" style="stroke:#A80036;stroke-width:1.5;" width="347" x="7" y="7"/><ellipse cx="156.75" cy="23" fill="#A9DCDF" rx="11" ry="11" style="stroke:#A80036;stroke-width:1.0;"/><path d="M156.8594,18.3438 L155.7031,23.4219 L158.0313,23.4219 L156.8594,18.3438 Z M155.375,16.1094 L158.3594,16.1094 L161.7188,28.5 L159.2656,28.5 L158.5,25.4375 L155.2188,25.4375 L154.4688,28.5 L152.0313,28.5 L155.375,16.1094 Z " fill="#000000"/><text fill="#000000" font-family="sans-serif" font-size="12" font-style="italic" lengthAdjust="spacing" textLength="39" x="177.25" y="27.1543">Scene</text><line style="stroke:#A80036;stroke-width:1.5;" x1="8" x2="353" y1="39" y2="39"/><ellipse cx="18" cy="50" rx="3" ry="3" style="stroke:#038048;stroke-width:1.0;fill:none;"/><text fill="#000000" font-family="sans-serif" font-size="11" lengthAdjust="spacing" textLength="184" x="27" y="53.2104">components : Set&lt;Component&gt;</text><ellipse cx="18" cy="62.8047" rx="3" ry="3" style="stroke:#038048;stroke-width:1.0;fill:none;"/><text fill="#000000" font-family="sans-serif" font-size="11" lengthAdjust="spacing" textLength="97" x="27" y="66.0151">system : System</text><line style="stroke:#A80036;stroke-width:1.5;" x1="8" x2="353" y1="72.6094" y2="72.6094"/><ellipse cx="18" cy="83.6094" fill="#84BE84" rx="3" ry="3" style="stroke:#038048;stroke-width:1.0;"/><text fill="#000000" font-family="sans-serif" font-size="11" lengthAdjust="spacing" textLength="75" x="27" y="86.8198">empty() : any</text><ellipse cx="18" cy="96.4141" fill="#84BE84" rx="3" ry="3" style="stroke:#038048;stroke-width:1.0;"/><text fill="#000000" font-family="sans-serif" font-size="11" font-style="italic" lengthAdjust="spacing" textLength="227" x="27" y="99.6245">filter(component: Component) : boolean</text><ellipse cx="18" cy="109.2188" fill="#84BE84" rx="3" ry="3" style="stroke:#038048;stroke-width:1.0;"/><text fill="#000000" font-family="sans-serif" font-size="11" lengthAdjust="spacing" textLength="80" x="27" y="112.4292">gizmos() : any</text><ellipse cx="18" cy="122.0234" fill="#84BE84" rx="3" ry="3" style="stroke:#038048;stroke-width:1.0;"/><text fill="#000000" font-family="sans-serif" font-size="11" lengthAdjust="spacing" textLength="240" x="27" y="125.2339">render(view: View) : void | Promise&lt;void&gt;</text><ellipse cx="18" cy="134.8281" fill="#84BE84" rx="3" ry="3" style="stroke:#038048;stroke-width:1.0;"/><text fill="#000000" font-family="sans-serif" font-size="11" lengthAdjust="spacing" textLength="321" x="27" y="138.0386">update(token: Token&lt;any, any&gt;) : void | Promise&lt;void&gt;</text><ellipse cx="18" cy="147.6328" fill="#84BE84" rx="3" ry="3" style="stroke:#038048;stroke-width:1.0;"/><text fill="#000000" font-family="sans-serif" font-size="11" lengthAdjust="spacing" textLength="233" x="27" y="150.8433">verify(view: View) : void | Promise&lt;void&gt;</text><!--MD5=[c517c3af2a79e247a5bcc972d88a7702]
reverse link Scene to GdmScene--><path codeLine="25" d="M180.5,177.42 C180.5,190.55 180.5,203.94 180.5,216.78 " fill="none" id="Scene-backto-GdmScene" style="stroke:#A80036;stroke-width:1.0;"/><polygon fill="none" points="173.5,177.12,180.5,157.12,187.5,177.12,173.5,177.12" style="stroke:#A80036;stroke-width:1.0;"/><!--MD5=[421e5885856d0447331ad32a82a8b016]
@startuml
skinparam BackgroundColor transparent
hide empty methods
hide empty fields
class "GdmScene" {
    +components : Set<Component>
    +system : System
    -_output : Template
    +empty() : Template
    +filter(component: Component) : boolean
    +gizmos() : any
    +render(view: View) : void | Promise<void>
    +update(token: Token<any, any>) : void | Promise<void>
    +verify(view: View) : void | Promise<void>
}
abstract class "Scene" {
    +components : Set<Component>
    +system : System
    +empty() : any
    {abstract} +filter(component: Component) : boolean
    +gizmos() : any
    +render(view: View) : void | Promise<void>
    +update(token: Token<any, any>) : void | Promise<void>
    +verify(view: View) : void | Promise<void>
}
"Scene" <|- - "GdmScene"
@enduml

PlantUML version 1.2021.14(Fri Nov 12 16:46:50 UTC 2021)
(GPL source distribution)
Java Runtime: OpenJDK Runtime Environment
JVM: OpenJDK 64-Bit Server VM
Default Encoding: UTF-8
Language: en
Country: null
--></g></svg>