<?xml version="1.0" encoding="UTF-8" standalone="no"?><svg xmlns="http://www.w3.org/2000/svg" xmlns:xlink="http://www.w3.org/1999/xlink" contentScriptType="application/ecmascript" contentStyleType="text/css" height="317px" preserveAspectRatio="none" style="width:383px;height:317px;background:#00000000;" version="1.1" viewBox="0 0 383 317" width="383px" zoomAndPan="magnify"><defs><filter height="300%" id="fos8dmo4i88au" width="300%" x="-1" y="-1"><feGaussianBlur result="blurOut" stdDeviation="2.0"/><feColorMatrix in="blurOut" result="blurOut2" type="matrix" values="0 0 0 0 0 0 0 0 0 0 0 0 0 0 0 0 0 0 .4 0"/><feOffset dx="4.0" dy="4.0" in="blurOut2" result="blurOut3"/><feBlend in="SourceGraphic" in2="blurOut3" mode="normal"/></filter></defs><g><!--MD5=[5aa95876f21f08a9468fa81cc52afafb]
class GoogleDeploymentManagerComponent<PropsType>--><rect codeLine="4" fill="#FEFECE" filter="url(#fos8dmo4i88au)" height="137.6328" id="GoogleDeploymentManagerComponent&lt;PropsType&gt;" style="stroke:#A80036;stroke-width:1.5;" width="362" x="7" y="166"/><ellipse cx="22" cy="182" fill="#A9DCDF" rx="11" ry="11" style="stroke:#A80036;stroke-width:1.0;"/><path d="M22.1094,177.3438 L20.9531,182.4219 L23.2813,182.4219 L22.1094,177.3438 Z M20.625,175.1094 L23.6094,175.1094 L26.9688,187.5 L24.5156,187.5 L23.75,184.4375 L20.4688,184.4375 L19.7188,187.5 L17.2813,187.5 L20.625,175.1094 Z " fill="#000000"/><text fill="#000000" font-family="sans-serif" font-size="12" font-style="italic" lengthAdjust="spacing" textLength="330" x="36" y="186.1543">GoogleDeploymentManagerComponent&lt;PropsType&gt;</text><line style="stroke:#A80036;stroke-width:1.5;" x1="8" x2="368" y1="198" y2="198"/><ellipse cx="18" cy="209" rx="3" ry="3" style="stroke:#038048;stroke-width:1.0;fill:none;"/><text fill="#000000" font-family="sans-serif" font-size="11" lengthAdjust="spacing" textLength="77" x="27" y="212.2104">name : string</text><ellipse cx="18" cy="221.8047" rx="3" ry="3" style="stroke:#038048;stroke-width:1.0;fill:none;"/><text fill="#000000" font-family="sans-serif" font-size="11" lengthAdjust="spacing" textLength="131" x="27" y="225.0151">properties : PropsType</text><ellipse cx="18" cy="234.6094" rx="3" ry="3" style="stroke:#038048;stroke-width:1.0;fill:none;"/><text fill="#000000" font-family="sans-serif" font-size="11" lengthAdjust="spacing" textLength="69" x="27" y="237.8198">type : string</text><ellipse cx="18" cy="247.4141" rx="3" ry="3" style="stroke:#038048;stroke-width:1.0;fill:none;"/><text fill="#000000" font-family="sans-serif" font-size="11" lengthAdjust="spacing" textLength="163" x="27" y="250.6245">[ComponentHandle] : Handle</text><line style="stroke:#A80036;stroke-width:1.5;" x1="8" x2="368" y1="257.2188" y2="257.2188"/><ellipse cx="18" cy="268.2188" fill="#84BE84" rx="3" ry="3" style="stroke:#038048;stroke-width:1.0;"/><text fill="#000000" font-family="sans-serif" font-size="11" lengthAdjust="spacing" textLength="220" x="27" y="271.4292">[ComponentRender](output: any) : void</text><ellipse cx="18" cy="281.0234" fill="#84BE84" rx="3" ry="3" style="stroke:#038048;stroke-width:1.0;"/><text fill="#000000" font-family="sans-serif" font-size="11" lengthAdjust="spacing" textLength="221" x="27" y="284.2339">[ComponentUpdate]() : Promise&lt;void&gt;</text><ellipse cx="18" cy="293.8281" fill="#84BE84" rx="3" ry="3" style="stroke:#038048;stroke-width:1.0;"/><text fill="#000000" font-family="sans-serif" font-size="11" lengthAdjust="spacing" textLength="248" x="27" y="297.0386">[ComponentVerify]() : void | Promise&lt;void&gt;</text><!--MD5=[4e13963c9dc916a21a8436ef39422b32]
class Component--><rect codeLine="13" fill="#FEFECE" filter="url(#fos8dmo4i88au)" height="99.2188" id="Component" style="stroke:#A80036;stroke-width:1.5;" width="331" x="22.5" y="7"/><ellipse cx="147.75" cy="23" fill="#A9DCDF" rx="11" ry="11" style="stroke:#A80036;stroke-width:1.0;"/><path d="M147.8594,18.3438 L146.7031,23.4219 L149.0313,23.4219 L147.8594,18.3438 Z M146.375,16.1094 L149.3594,16.1094 L152.7188,28.5 L150.2656,28.5 L149.5,25.4375 L146.2188,25.4375 L145.4688,28.5 L143.0313,28.5 L146.375,16.1094 Z " fill="#000000"/><text fill="#000000" font-family="sans-serif" font-size="12" font-style="italic" lengthAdjust="spacing" textLength="72" x="168.25" y="27.1543">Component</text><line style="stroke:#A80036;stroke-width:1.5;" x1="23.5" x2="352.5" y1="39" y2="39"/><ellipse cx="33.5" cy="50" rx="3" ry="3" style="stroke:#038048;stroke-width:1.0;fill:none;"/><text fill="#000000" font-family="sans-serif" font-size="11" lengthAdjust="spacing" textLength="163" x="42.5" y="53.2104">[ComponentHandle] : Handle</text><line style="stroke:#A80036;stroke-width:1.5;" x1="23.5" x2="352.5" y1="59.8047" y2="59.8047"/><ellipse cx="33.5" cy="70.8047" fill="#84BE84" rx="3" ry="3" style="stroke:#038048;stroke-width:1.0;"/><text fill="#000000" font-family="sans-serif" font-size="11" font-style="italic" lengthAdjust="spacing" textLength="305" x="42.5" y="74.0151">[ComponentRender](out: any) : void | Promise&lt;void&gt;</text><ellipse cx="33.5" cy="83.6094" fill="#84BE84" rx="3" ry="3" style="stroke:#038048;stroke-width:1.0;"/><text fill="#000000" font-family="sans-serif" font-size="11" lengthAdjust="spacing" textLength="221" x="42.5" y="86.8198">[ComponentUpdate]() : Promise&lt;void&gt;</text><ellipse cx="33.5" cy="96.4141" fill="#84BE84" rx="3" ry="3" style="stroke:#038048;stroke-width:1.0;"/><text fill="#000000" font-family="sans-serif" font-size="11" lengthAdjust="spacing" textLength="248" x="42.5" y="99.6245">[ComponentVerify]() : void | Promise&lt;void&gt;</text><!--MD5=[985271ecae0d2e5f0f207b2b33f37fce]
reverse link Component to GoogleDeploymentManagerComponent<PropsType>--><path codeLine="19" d="M188,126.57 C188,139.52 188,153.05 188,165.98 " fill="none" id="Component-backto-GoogleDeploymentManagerComponent&lt;PropsType&gt;" style="stroke:#A80036;stroke-width:1.0;"/><polygon fill="none" points="181,126.2,188,106.2,195,126.2,181,126.2" style="stroke:#A80036;stroke-width:1.0;"/><!--MD5=[87c0eab9479c698fc6729810ce4620fc]
@startuml
skinparam BackgroundColor transparent
hide empty methods
hide empty fields
abstract class "GoogleDeploymentManagerComponent<PropsType>" {
    +name : string
    +properties : PropsType
    +type : string
    +[ComponentHandle] : Handle
    +[ComponentRender](output: any) : void
    +[ComponentUpdate]() : Promise<void>
    +[ComponentVerify]() : void | Promise<void>
}
abstract class "Component" {
    +[ComponentHandle] : Handle
    {abstract} +[ComponentRender](out: any) : void | Promise<void>
    +[ComponentUpdate]() : Promise<void>
    +[ComponentVerify]() : void | Promise<void>
}
"Component" <|- - "GoogleDeploymentManagerComponent<PropsType>"
@enduml

PlantUML version 1.2021.14(Fri Nov 12 16:46:50 UTC 2021)
(GPL source distribution)
Java Runtime: OpenJDK Runtime Environment
JVM: OpenJDK 64-Bit Server VM
Default Encoding: UTF-8
Language: en
Country: null
--></g></svg>