<?xml version="1.0" encoding="UTF-8" standalone="no"?><svg xmlns="http://www.w3.org/2000/svg" xmlns:xlink="http://www.w3.org/1999/xlink" contentScriptType="application/ecmascript" contentStyleType="text/css" height="246px" preserveAspectRatio="none" style="width:409px;height:246px;background:#00000000;" version="1.1" viewBox="0 0 409 246" width="409px" zoomAndPan="magnify"><defs><filter height="300%" id="f1e1cdw5j0bfez" width="300%" x="-1" y="-1"><feGaussianBlur result="blurOut" stdDeviation="2.0"/><feColorMatrix in="blurOut" result="blurOut2" type="matrix" values="0 0 0 0 0 0 0 0 0 0 0 0 0 0 0 0 0 0 .4 0"/><feOffset dx="4.0" dy="4.0" in="blurOut2" result="blurOut3"/><feBlend in="SourceGraphic" in2="blurOut3" mode="normal"/></filter></defs><g><!--MD5=[715128bba345a62fb0ee618baa868826]
class JsonFile--><rect codeLine="4" fill="#FEFECE" filter="url(#f1e1cdw5j0bfez)" height="99.2188" id="JsonFile" style="stroke:#A80036;stroke-width:1.5;" width="388" x="7" y="133"/><ellipse cx="173.25" cy="149" fill="#ADD1B2" rx="11" ry="11" style="stroke:#A80036;stroke-width:1.0;"/><path d="M176.2188,154.6406 Q175.6406,154.9375 175,155.0781 Q174.3594,155.2344 173.6563,155.2344 Q171.1563,155.2344 169.8281,153.5938 Q168.5156,151.9375 168.5156,148.8125 Q168.5156,145.6875 169.8281,144.0313 Q171.1563,142.375 173.6563,142.375 Q174.3594,142.375 175,142.5313 Q175.6563,142.6875 176.2188,142.9844 L176.2188,145.7031 Q175.5938,145.125 175,144.8594 Q174.4063,144.5781 173.7813,144.5781 Q172.4375,144.5781 171.75,145.6563 Q171.0625,146.7188 171.0625,148.8125 Q171.0625,150.9063 171.75,151.9844 Q172.4375,153.0469 173.7813,153.0469 Q174.4063,153.0469 175,152.7813 Q175.5938,152.5 176.2188,151.9219 L176.2188,154.6406 Z " fill="#000000"/><text fill="#000000" font-family="sans-serif" font-size="12" lengthAdjust="spacing" textLength="47" x="193.75" y="153.1543">JsonFile</text><line style="stroke:#A80036;stroke-width:1.5;" x1="8" x2="394" y1="165" y2="165"/><ellipse cx="18" cy="176" rx="3" ry="3" style="stroke:#038048;stroke-width:1.0;fill:none;"/><text fill="#000000" font-family="sans-serif" font-size="11" lengthAdjust="spacing" textLength="57" x="27" y="179.2104">data : any</text><ellipse cx="18" cy="188.8047" rx="3" ry="3" style="stroke:#038048;stroke-width:1.0;fill:none;"/><text fill="#000000" font-family="sans-serif" font-size="11" lengthAdjust="spacing" textLength="89" x="27" y="192.0151">location : string</text><ellipse cx="18" cy="201.6094" rx="3" ry="3" style="stroke:#038048;stroke-width:1.0;fill:none;"/><text fill="#000000" font-family="sans-serif" font-size="11" lengthAdjust="spacing" textLength="77" x="27" y="204.8198">name : string</text><line style="stroke:#A80036;stroke-width:1.5;" x1="8" x2="394" y1="211.4141" y2="211.4141"/><ellipse cx="18" cy="222.4141" fill="#84BE84" rx="3" ry="3" style="stroke:#038048;stroke-width:1.0;"/><text fill="#000000" font-family="sans-serif" font-size="11" lengthAdjust="spacing" textLength="362" x="27" y="225.6245">[ComponentRender](out: Map&lt;string, string&gt;) : Promise&lt;void&gt;</text><!--MD5=[946cf32c4909f60ec87eb8fd56ac8dfa]
class FileSystemComponent--><rect codeLine="10" fill="#FEFECE" filter="url(#f1e1cdw5j0bfez)" height="65.6094" id="FileSystemComponent" style="stroke:#A80036;stroke-width:1.5;" width="170" x="116" y="7"/><ellipse cx="131" cy="23" fill="#A9DCDF" rx="11" ry="11" style="stroke:#A80036;stroke-width:1.0;"/><path d="M131.1094,18.3438 L129.9531,23.4219 L132.2813,23.4219 L131.1094,18.3438 Z M129.625,16.1094 L132.6094,16.1094 L135.9688,28.5 L133.5156,28.5 L132.75,25.4375 L129.4688,25.4375 L128.7188,28.5 L126.2813,28.5 L129.625,16.1094 Z " fill="#000000"/><text fill="#000000" font-family="sans-serif" font-size="12" font-style="italic" lengthAdjust="spacing" textLength="138" x="145" y="27.1543">FileSystemComponent</text><line style="stroke:#A80036;stroke-width:1.5;" x1="117" x2="285" y1="39" y2="39"/><ellipse cx="127" cy="50" rx="3" ry="3" style="stroke:#038048;stroke-width:1.0;fill:none;"/><text fill="#000000" font-family="sans-serif" font-size="11" lengthAdjust="spacing" textLength="89" x="136" y="53.2104">location : string</text><ellipse cx="127" cy="62.8047" rx="3" ry="3" style="stroke:#038048;stroke-width:1.0;fill:none;"/><text fill="#000000" font-family="sans-serif" font-size="11" lengthAdjust="spacing" textLength="77" x="136" y="66.0151">name : string</text><!--MD5=[53795116d30c488577c8abf3c893359e]
reverse link FileSystemComponent to JsonFile--><path codeLine="14" d="M201,93.25 C201,106.23 201,120.08 201,132.87 " fill="none" id="FileSystemComponent-backto-JsonFile" style="stroke:#A80036;stroke-width:1.0;"/><polygon fill="none" points="194,93.23,201,73.23,208,93.23,194,93.23" style="stroke:#A80036;stroke-width:1.0;"/><!--MD5=[bf4e2cdd50f57a4b521df82beefc9bb7]
@startuml
skinparam BackgroundColor transparent
hide empty methods
hide empty fields
class "JsonFile" {
    +data : any
    +location : string
    +name : string
    +[ComponentRender](out: Map<string, string>) : Promise<void>
}
abstract class "FileSystemComponent" {
    +location : string
    +name : string
}
"FileSystemComponent" <|- - "JsonFile"
@enduml

PlantUML version 1.2021.14(Fri Nov 12 16:46:50 UTC 2021)
(GPL source distribution)
Java Runtime: OpenJDK Runtime Environment
JVM: OpenJDK 64-Bit Server VM
Default Encoding: UTF-8
Language: en
Country: null
--></g></svg>