<?xml version="1.0" encoding="UTF-8" standalone="no"?><svg xmlns="http://www.w3.org/2000/svg" xmlns:xlink="http://www.w3.org/1999/xlink" contentScriptType="application/ecmascript" contentStyleType="text/css" height="291px" preserveAspectRatio="none" style="width:267px;height:291px;background:#00000000;" version="1.1" viewBox="0 0 267 291" width="267px" zoomAndPan="magnify"><defs><filter height="300%" id="f1fi2sks6rg9kd" width="300%" x="-1" y="-1"><feGaussianBlur result="blurOut" stdDeviation="2.0"/><feColorMatrix in="blurOut" result="blurOut2" type="matrix" values="0 0 0 0 0 0 0 0 0 0 0 0 0 0 0 0 0 0 .4 0"/><feOffset dx="4.0" dy="4.0" in="blurOut2" result="blurOut3"/><feBlend in="SourceGraphic" in2="blurOut3" mode="normal"/></filter></defs><g><!--MD5=[6413748563b32f3a33cdb07aa07d17f9]
class KrmComponent--><rect codeLine="4" fill="#FEFECE" filter="url(#f1fi2sks6rg9kd)" height="32" id="KrmComponent" style="stroke:#A80036;stroke-width:1.5;" width="128" x="66" y="99"/><ellipse cx="81" cy="115" fill="#A9DCDF" rx="11" ry="11" style="stroke:#A80036;stroke-width:1.0;"/><path d="M81.1094,110.3438 L79.9531,115.4219 L82.2813,115.4219 L81.1094,110.3438 Z M79.625,108.1094 L82.6094,108.1094 L85.9688,120.5 L83.5156,120.5 L82.75,117.4375 L79.4688,117.4375 L78.7188,120.5 L76.2813,120.5 L79.625,108.1094 Z " fill="#000000"/><text fill="#000000" font-family="sans-serif" font-size="12" font-style="italic" lengthAdjust="spacing" textLength="96" x="95" y="119.1543">KrmComponent</text><!--MD5=[bc00f38760f5c998ab68abb0e19452fc]
class CloudComponent--><rect codeLine="6" fill="#FEFECE" filter="url(#f1fi2sks6rg9kd)" height="32" id="CloudComponent" style="stroke:#A80036;stroke-width:1.5;" width="139" x="60.5" y="7"/><ellipse cx="75.5" cy="23" fill="#A9DCDF" rx="11" ry="11" style="stroke:#A80036;stroke-width:1.0;"/><path d="M75.6094,18.3438 L74.4531,23.4219 L76.7813,23.4219 L75.6094,18.3438 Z M74.125,16.1094 L77.1094,16.1094 L80.4688,28.5 L78.0156,28.5 L77.25,25.4375 L73.9688,25.4375 L73.2188,28.5 L70.7813,28.5 L74.125,16.1094 Z " fill="#000000"/><text fill="#000000" font-family="sans-serif" font-size="12" font-style="italic" lengthAdjust="spacing" textLength="107" x="89.5" y="27.1543">CloudComponent</text><!--MD5=[0058c74faecad95bd45893aafb7718dd]
class KrmResource<void>--><rect codeLine="9" fill="#FEFECE" filter="url(#f1fi2sks6rg9kd)" height="86.4141" id="KrmResource&lt;void&gt;" style="stroke:#A80036;stroke-width:1.5;" width="246" x="7" y="191"/><ellipse cx="62.25" cy="207" fill="#A9DCDF" rx="11" ry="11" style="stroke:#A80036;stroke-width:1.0;"/><path d="M62.3594,202.3438 L61.2031,207.4219 L63.5313,207.4219 L62.3594,202.3438 Z M60.875,200.1094 L63.8594,200.1094 L67.2188,212.5 L64.7656,212.5 L64,209.4375 L60.7188,209.4375 L59.9688,212.5 L57.5313,212.5 L60.875,200.1094 Z " fill="#000000"/><text fill="#000000" font-family="sans-serif" font-size="12" font-style="italic" lengthAdjust="spacing" textLength="127" x="82.75" y="211.1543">KrmResource&lt;void&gt;</text><line style="stroke:#A80036;stroke-width:1.5;" x1="8" x2="252" y1="223" y2="223"/><ellipse cx="18" cy="234" rx="3" ry="3" style="stroke:#038048;stroke-width:1.0;fill:none;"/><text fill="#000000" font-family="sans-serif" font-size="11" lengthAdjust="spacing" textLength="105" x="27" y="237.2104">apiVersion : string</text><ellipse cx="18" cy="246.8047" rx="3" ry="3" style="stroke:#038048;stroke-width:1.0;fill:none;"/><text fill="#000000" font-family="sans-serif" font-size="11" lengthAdjust="spacing" textLength="68" x="27" y="250.0151">kind : string</text><line style="stroke:#A80036;stroke-width:1.5;" x1="8" x2="252" y1="256.6094" y2="256.6094"/><ellipse cx="18" cy="267.6094" fill="#84BE84" rx="3" ry="3" style="stroke:#038048;stroke-width:1.0;"/><text fill="#000000" font-family="sans-serif" font-size="11" lengthAdjust="spacing" textLength="220" x="27" y="270.8198">[ComponentRender](output: any) : void</text><!--MD5=[5f23bd69df86afb22b42a0f3d03ba215]
reverse link CloudComponent to KrmComponent--><path codeLine="8" d="M130,59.61 C130,73.31 130,88.22 130,98.96 " fill="none" id="CloudComponent-backto-KrmComponent" style="stroke:#A80036;stroke-width:1.0;"/><polygon fill="none" points="123,59.27,130,39.27,137,59.27,123,59.27" style="stroke:#A80036;stroke-width:1.0;"/><!--MD5=[59933539b6fcd29c4861d26b6b262604]
reverse link KrmComponent to KrmResource<void>--><path codeLine="14" d="M130,151.35 C130,163.84 130,178.01 130,191 " fill="none" id="KrmComponent-backto-KrmResource&lt;void&gt;" style="stroke:#A80036;stroke-width:1.0;"/><polygon fill="none" points="123,151.3,130,131.3,137,151.3,123,151.3" style="stroke:#A80036;stroke-width:1.0;"/><!--MD5=[5dcf8ac7ffd609a3a0454801b4d8983e]
@startuml
skinparam BackgroundColor transparent
hide empty methods
hide empty fields
abstract class "KrmComponent" {
}
abstract class "CloudComponent" {
}
"CloudComponent" <|- - "KrmComponent"
abstract class "KrmResource<void>" {
    +apiVersion : string
    +kind : string
    +[ComponentRender](output: any) : void
}
"KrmComponent" <|- - "KrmResource<void>"
@enduml

PlantUML version 1.2021.14(Fri Nov 12 16:46:50 UTC 2021)
(GPL source distribution)
Java Runtime: OpenJDK Runtime Environment
JVM: OpenJDK 64-Bit Server VM
Default Encoding: UTF-8
Language: en
Country: null
--></g></svg>