<?xml version="1.0" encoding="UTF-8" standalone="no"?><svg xmlns="http://www.w3.org/2000/svg" xmlns:xlink="http://www.w3.org/1999/xlink" contentScriptType="application/ecmascript" contentStyleType="text/css" height="337px" preserveAspectRatio="none" style="width:352px;height:337px;background:#00000000;" version="1.1" viewBox="0 0 352 337" width="352px" zoomAndPan="magnify"><defs><filter height="300%" id="ftdf51xcfmd5r" width="300%" x="-1" y="-1"><feGaussianBlur result="blurOut" stdDeviation="2.0"/><feColorMatrix in="blurOut" result="blurOut2" type="matrix" values="0 0 0 0 0 0 0 0 0 0 0 0 0 0 0 0 0 0 .4 0"/><feOffset dx="4.0" dy="4.0" in="blurOut2" result="blurOut3"/><feBlend in="SourceGraphic" in2="blurOut3" mode="normal"/></filter></defs><g><!--MD5=[2a461eb4260764374d34fdd0fc1cbd0f]
class LocalComponent--><rect codeLine="4" fill="#FEFECE" filter="url(#ftdf51xcfmd5r)" height="32" id="LocalComponent" style="stroke:#A80036;stroke-width:1.5;" width="137" x="104" y="166"/><ellipse cx="119" cy="182" fill="#A9DCDF" rx="11" ry="11" style="stroke:#A80036;stroke-width:1.0;"/><path d="M119.1094,177.3438 L117.9531,182.4219 L120.2813,182.4219 L119.1094,177.3438 Z M117.625,175.1094 L120.6094,175.1094 L123.9688,187.5 L121.5156,187.5 L120.75,184.4375 L117.4688,184.4375 L116.7188,187.5 L114.2813,187.5 L117.625,175.1094 Z " fill="#000000"/><text fill="#000000" font-family="sans-serif" font-size="12" font-style="italic" lengthAdjust="spacing" textLength="105" x="133" y="186.1543">LocalComponent</text><!--MD5=[4e13963c9dc916a21a8436ef39422b32]
class Component--><rect codeLine="6" fill="#FEFECE" filter="url(#ftdf51xcfmd5r)" height="99.2188" id="Component" style="stroke:#A80036;stroke-width:1.5;" width="331" x="7" y="7"/><ellipse cx="132.25" cy="23" fill="#A9DCDF" rx="11" ry="11" style="stroke:#A80036;stroke-width:1.0;"/><path d="M132.3594,18.3438 L131.2031,23.4219 L133.5313,23.4219 L132.3594,18.3438 Z M130.875,16.1094 L133.8594,16.1094 L137.2188,28.5 L134.7656,28.5 L134,25.4375 L130.7188,25.4375 L129.9688,28.5 L127.5313,28.5 L130.875,16.1094 Z " fill="#000000"/><text fill="#000000" font-family="sans-serif" font-size="12" font-style="italic" lengthAdjust="spacing" textLength="72" x="152.75" y="27.1543">Component</text><line style="stroke:#A80036;stroke-width:1.5;" x1="8" x2="337" y1="39" y2="39"/><ellipse cx="18" cy="50" rx="3" ry="3" style="stroke:#038048;stroke-width:1.0;fill:none;"/><text fill="#000000" font-family="sans-serif" font-size="11" lengthAdjust="spacing" textLength="163" x="27" y="53.2104">[ComponentHandle] : Handle</text><line style="stroke:#A80036;stroke-width:1.5;" x1="8" x2="337" y1="59.8047" y2="59.8047"/><ellipse cx="18" cy="70.8047" fill="#84BE84" rx="3" ry="3" style="stroke:#038048;stroke-width:1.0;"/><text fill="#000000" font-family="sans-serif" font-size="11" font-style="italic" lengthAdjust="spacing" textLength="305" x="27" y="74.0151">[ComponentRender](out: any) : void | Promise&lt;void&gt;</text><ellipse cx="18" cy="83.6094" fill="#84BE84" rx="3" ry="3" style="stroke:#038048;stroke-width:1.0;"/><text fill="#000000" font-family="sans-serif" font-size="11" lengthAdjust="spacing" textLength="221" x="27" y="86.8198">[ComponentUpdate]() : Promise&lt;void&gt;</text><ellipse cx="18" cy="96.4141" fill="#84BE84" rx="3" ry="3" style="stroke:#038048;stroke-width:1.0;"/><text fill="#000000" font-family="sans-serif" font-size="11" lengthAdjust="spacing" textLength="248" x="27" y="99.6245">[ComponentVerify]() : void | Promise&lt;void&gt;</text><!--MD5=[946cf32c4909f60ec87eb8fd56ac8dfa]
class FileSystemComponent--><rect codeLine="13" fill="#FEFECE" filter="url(#ftdf51xcfmd5r)" height="65.6094" id="FileSystemComponent" style="stroke:#A80036;stroke-width:1.5;" width="170" x="87.5" y="258"/><ellipse cx="102.5" cy="274" fill="#A9DCDF" rx="11" ry="11" style="stroke:#A80036;stroke-width:1.0;"/><path d="M102.6094,269.3438 L101.4531,274.4219 L103.7813,274.4219 L102.6094,269.3438 Z M101.125,267.1094 L104.1094,267.1094 L107.4688,279.5 L105.0156,279.5 L104.25,276.4375 L100.9688,276.4375 L100.2188,279.5 L97.7813,279.5 L101.125,267.1094 Z " fill="#000000"/><text fill="#000000" font-family="sans-serif" font-size="12" font-style="italic" lengthAdjust="spacing" textLength="138" x="116.5" y="278.1543">FileSystemComponent</text><line style="stroke:#A80036;stroke-width:1.5;" x1="88.5" x2="256.5" y1="290" y2="290"/><ellipse cx="98.5" cy="301" rx="3" ry="3" style="stroke:#038048;stroke-width:1.0;fill:none;"/><text fill="#000000" font-family="sans-serif" font-size="11" lengthAdjust="spacing" textLength="95" x="107.5" y="304.2104">directory : string</text><ellipse cx="98.5" cy="313.8047" rx="3" ry="3" style="stroke:#038048;stroke-width:1.0;fill:none;"/><text fill="#000000" font-family="sans-serif" font-size="11" lengthAdjust="spacing" textLength="77" x="107.5" y="317.0151">name : string</text><!--MD5=[335750beae628780592b0a2069cdb252]
reverse link Component to LocalComponent--><path codeLine="12" d="M172.5,126.33 C172.5,141.27 172.5,155.65 172.5,165.91 " fill="none" id="Component-backto-LocalComponent" style="stroke:#A80036;stroke-width:1.0;"/><polygon fill="none" points="165.5,126.31,172.5,106.31,179.5,126.31,165.5,126.31" style="stroke:#A80036;stroke-width:1.0;"/><!--MD5=[005b3853e152071bae7f46b5f48dae4f]
reverse link LocalComponent to FileSystemComponent--><path codeLine="17" d="M172.5,218.79 C172.5,231.45 172.5,245.61 172.5,257.94 " fill="none" id="LocalComponent-backto-FileSystemComponent" style="stroke:#A80036;stroke-width:1.0;"/><polygon fill="none" points="165.5,218.33,172.5,198.33,179.5,218.33,165.5,218.33" style="stroke:#A80036;stroke-width:1.0;"/><!--MD5=[6b547dedda0b8c8cfb3b86a36a3c5257]
@startuml
skinparam BackgroundColor transparent
hide empty methods
hide empty fields
abstract class "LocalComponent" {
}
abstract class "Component" {
    +[ComponentHandle] : Handle
    {abstract} +[ComponentRender](out: any) : void | Promise<void>
    +[ComponentUpdate]() : Promise<void>
    +[ComponentVerify]() : void | Promise<void>
}
"Component" <|- - "LocalComponent"
abstract class "FileSystemComponent" {
    +directory : string
    +name : string
}
"LocalComponent" <|- - "FileSystemComponent"
@enduml

PlantUML version 1.2021.14(Fri Nov 12 16:46:50 UTC 2021)
(GPL source distribution)
Java Runtime: OpenJDK Runtime Environment
JVM: OpenJDK 64-Bit Server VM
Default Encoding: UTF-8
Language: en
Country: null
--></g></svg>