<?xml version="1.0" encoding="UTF-8" standalone="no"?><svg xmlns="http://www.w3.org/2000/svg" xmlns:xlink="http://www.w3.org/1999/xlink" contentScriptType="application/ecmascript" contentStyleType="text/css" height="414px" preserveAspectRatio="none" style="width:368px;height:414px;background:#00000000;" version="1.1" viewBox="0 0 368 414" width="368px" zoomAndPan="magnify"><defs><filter height="300%" id="f1p3b261dk2sgv" width="300%" x="-1" y="-1"><feGaussianBlur result="blurOut" stdDeviation="2.0"/><feColorMatrix in="blurOut" result="blurOut2" type="matrix" values="0 0 0 0 0 0 0 0 0 0 0 0 0 0 0 0 0 0 .4 0"/><feOffset dx="4.0" dy="4.0" in="blurOut2" result="blurOut3"/><feBlend in="SourceGraphic" in2="blurOut3" mode="normal"/></filter></defs><g><!--MD5=[6a84e6f5b4704aafa5c16dde6b3ccb57]
class LocalScene--><rect codeLine="4" fill="#FEFECE" filter="url(#f1p3b261dk2sgv)" height="32" id="LocalScene" style="stroke:#A80036;stroke-width:1.5;" width="104" x="128.5" y="217"/><ellipse cx="143.5" cy="233" fill="#A9DCDF" rx="11" ry="11" style="stroke:#A80036;stroke-width:1.0;"/><path d="M143.6094,228.3438 L142.4531,233.4219 L144.7813,233.4219 L143.6094,228.3438 Z M142.125,226.1094 L145.1094,226.1094 L148.4688,238.5 L146.0156,238.5 L145.25,235.4375 L141.9688,235.4375 L141.2188,238.5 L138.7813,238.5 L142.125,226.1094 Z " fill="#000000"/><text fill="#000000" font-family="sans-serif" font-size="12" font-style="italic" lengthAdjust="spacing" textLength="72" x="157.5" y="237.1543">LocalScene</text><!--MD5=[e4faacc5b8aef66b11ab0c816bbbc7f8]
class Scene--><rect codeLine="6" fill="#FEFECE" filter="url(#f1p3b261dk2sgv)" height="150.4375" id="Scene" style="stroke:#A80036;stroke-width:1.5;" width="347" x="7" y="7"/><ellipse cx="156.75" cy="23" fill="#A9DCDF" rx="11" ry="11" style="stroke:#A80036;stroke-width:1.0;"/><path d="M156.8594,18.3438 L155.7031,23.4219 L158.0313,23.4219 L156.8594,18.3438 Z M155.375,16.1094 L158.3594,16.1094 L161.7188,28.5 L159.2656,28.5 L158.5,25.4375 L155.2188,25.4375 L154.4688,28.5 L152.0313,28.5 L155.375,16.1094 Z " fill="#000000"/><text fill="#000000" font-family="sans-serif" font-size="12" font-style="italic" lengthAdjust="spacing" textLength="39" x="177.25" y="27.1543">Scene</text><line style="stroke:#A80036;stroke-width:1.5;" x1="8" x2="353" y1="39" y2="39"/><ellipse cx="18" cy="50" rx="3" ry="3" style="stroke:#038048;stroke-width:1.0;fill:none;"/><text fill="#000000" font-family="sans-serif" font-size="11" lengthAdjust="spacing" textLength="184" x="27" y="53.2104">components : Set&lt;Component&gt;</text><ellipse cx="18" cy="62.8047" rx="3" ry="3" style="stroke:#038048;stroke-width:1.0;fill:none;"/><text fill="#000000" font-family="sans-serif" font-size="11" lengthAdjust="spacing" textLength="97" x="27" y="66.0151">system : System</text><line style="stroke:#A80036;stroke-width:1.5;" x1="8" x2="353" y1="72.6094" y2="72.6094"/><ellipse cx="18" cy="83.6094" fill="#84BE84" rx="3" ry="3" style="stroke:#038048;stroke-width:1.0;"/><text fill="#000000" font-family="sans-serif" font-size="11" lengthAdjust="spacing" textLength="75" x="27" y="86.8198">empty() : any</text><ellipse cx="18" cy="96.4141" fill="#84BE84" rx="3" ry="3" style="stroke:#038048;stroke-width:1.0;"/><text fill="#000000" font-family="sans-serif" font-size="11" font-style="italic" lengthAdjust="spacing" textLength="227" x="27" y="99.6245">filter(component: Component) : boolean</text><ellipse cx="18" cy="109.2188" fill="#84BE84" rx="3" ry="3" style="stroke:#038048;stroke-width:1.0;"/><text fill="#000000" font-family="sans-serif" font-size="11" lengthAdjust="spacing" textLength="80" x="27" y="112.4292">gizmos() : any</text><ellipse cx="18" cy="122.0234" fill="#84BE84" rx="3" ry="3" style="stroke:#038048;stroke-width:1.0;"/><text fill="#000000" font-family="sans-serif" font-size="11" lengthAdjust="spacing" textLength="240" x="27" y="125.2339">render(view: View) : void | Promise&lt;void&gt;</text><ellipse cx="18" cy="134.8281" fill="#84BE84" rx="3" ry="3" style="stroke:#038048;stroke-width:1.0;"/><text fill="#000000" font-family="sans-serif" font-size="11" lengthAdjust="spacing" textLength="321" x="27" y="138.0386">update(token: Token&lt;any, any&gt;) : void | Promise&lt;void&gt;</text><ellipse cx="18" cy="147.6328" fill="#84BE84" rx="3" ry="3" style="stroke:#038048;stroke-width:1.0;"/><text fill="#000000" font-family="sans-serif" font-size="11" lengthAdjust="spacing" textLength="233" x="27" y="150.8433">verify(view: View) : void | Promise&lt;void&gt;</text><!--MD5=[5e7d7a1aea2f0e1483d0fe7817583a8d]
class FileSystemScene--><rect codeLine="17" fill="#FEFECE" filter="url(#f1p3b261dk2sgv)" height="91.2188" id="FileSystemScene" style="stroke:#A80036;stroke-width:1.5;" width="253" x="54" y="309"/><ellipse cx="123.75" cy="325" fill="#ADD1B2" rx="11" ry="11" style="stroke:#A80036;stroke-width:1.0;"/><path d="M126.7188,330.6406 Q126.1406,330.9375 125.5,331.0781 Q124.8594,331.2344 124.1563,331.2344 Q121.6563,331.2344 120.3281,329.5938 Q119.0156,327.9375 119.0156,324.8125 Q119.0156,321.6875 120.3281,320.0313 Q121.6563,318.375 124.1563,318.375 Q124.8594,318.375 125.5,318.5313 Q126.1563,318.6875 126.7188,318.9844 L126.7188,321.7031 Q126.0938,321.125 125.5,320.8594 Q124.9063,320.5781 124.2813,320.5781 Q122.9375,320.5781 122.25,321.6563 Q121.5625,322.7188 121.5625,324.8125 Q121.5625,326.9063 122.25,327.9844 Q122.9375,329.0469 124.2813,329.0469 Q124.9063,329.0469 125.5,328.7813 Q126.0938,328.5 126.7188,327.9219 L126.7188,330.6406 Z " fill="#000000"/><text fill="#000000" font-family="sans-serif" font-size="12" lengthAdjust="spacing" textLength="105" x="144.25" y="329.1543">FileSystemScene</text><line style="stroke:#A80036;stroke-width:1.5;" x1="55" x2="306" y1="341" y2="341"/><ellipse cx="65" cy="352" fill="#84BE84" rx="3" ry="3" style="stroke:#038048;stroke-width:1.0;"/><text fill="#000000" font-family="sans-serif" font-size="11" lengthAdjust="spacing" textLength="170" x="74" y="355.2104">empty() : Map&lt;string, string&gt;</text><ellipse cx="65" cy="364.8047" fill="#84BE84" rx="3" ry="3" style="stroke:#038048;stroke-width:1.0;"/><text fill="#000000" font-family="sans-serif" font-size="11" lengthAdjust="spacing" textLength="227" x="74" y="368.0151">filter(component: Component) : boolean</text><ellipse cx="65" cy="377.6094" fill="#84BE84" rx="3" ry="3" style="stroke:#038048;stroke-width:1.0;"/><text fill="#000000" font-family="sans-serif" font-size="11" lengthAdjust="spacing" textLength="205" x="74" y="380.8198">render(view: View) : Promise&lt;void&gt;</text><ellipse cx="65" cy="390.4141" fill="#84BE84" rx="3" ry="3" style="stroke:#038048;stroke-width:1.0;"/><text fill="#000000" font-family="sans-serif" font-size="11" lengthAdjust="spacing" textLength="221" x="74" y="393.6245">update(token: Token&lt;any, any&gt;) : void</text><!--MD5=[5fb5f9269759da5d1cab07817d482b13]
reverse link Scene to LocalScene--><path codeLine="16" d="M180.5,177.28 C180.5,192.61 180.5,206.73 180.5,216.78 " fill="none" id="Scene-backto-LocalScene" style="stroke:#A80036;stroke-width:1.0;"/><polygon fill="none" points="173.5,177.06,180.5,157.06,187.5,177.06,173.5,177.06" style="stroke:#A80036;stroke-width:1.0;"/><!--MD5=[f159488968e956e4e0eb1794172eeb41]
reverse link LocalScene to FileSystemScene--><path codeLine="23" d="M180.5,269.57 C180.5,281.92 180.5,295.94 180.5,308.93 " fill="none" id="LocalScene-backto-FileSystemScene" style="stroke:#A80036;stroke-width:1.0;"/><polygon fill="none" points="173.5,269.13,180.5,249.13,187.5,269.13,173.5,269.13" style="stroke:#A80036;stroke-width:1.0;"/><!--MD5=[d420dda15c9b3129db82853ea5e8ad6e]
@startuml
skinparam BackgroundColor transparent
hide empty methods
hide empty fields
abstract class "LocalScene" {
}
abstract class "Scene" {
    +components : Set<Component>
    +system : System
    +empty() : any
    {abstract} +filter(component: Component) : boolean
    +gizmos() : any
    +render(view: View) : void | Promise<void>
    +update(token: Token<any, any>) : void | Promise<void>
    +verify(view: View) : void | Promise<void>
}
"Scene" <|- - "LocalScene"
class "FileSystemScene" {
    +empty() : Map<string, string>
    +filter(component: Component) : boolean
    +render(view: View) : Promise<void>
    +update(token: Token<any, any>) : void
}
"LocalScene" <|- - "FileSystemScene"
@enduml

PlantUML version 1.2021.14(Fri Nov 12 16:46:50 UTC 2021)
(GPL source distribution)
Java Runtime: OpenJDK Runtime Environment
JVM: OpenJDK 64-Bit Server VM
Default Encoding: UTF-8
Language: en
Country: null
--></g></svg>