<?xml version="1.0" encoding="UTF-8" standalone="no"?><svg xmlns="http://www.w3.org/2000/svg" xmlns:xlink="http://www.w3.org/1999/xlink" contentScriptType="application/ecmascript" contentStyleType="text/css" height="276px" preserveAspectRatio="none" style="width:335px;height:276px;background:#00000000;" version="1.1" viewBox="0 0 335 276" width="335px" zoomAndPan="magnify"><defs><filter height="300%" id="f14kh9w1awyion" width="300%" x="-1" y="-1"><feGaussianBlur result="blurOut" stdDeviation="2.0"/><feColorMatrix in="blurOut" result="blurOut2" type="matrix" values="0 0 0 0 0 0 0 0 0 0 0 0 0 0 0 0 0 0 .4 0"/><feOffset dx="4.0" dy="4.0" in="blurOut2" result="blurOut3"/><feBlend in="SourceGraphic" in2="blurOut3" mode="normal"/></filter></defs><g><!--MD5=[bff2fd1fff160426780050b3de24b81a]
class MakeOptions<ConcreteType, UserDataType>--><rect codeLine="4" fill="#FEFECE" filter="url(#f14kh9w1awyion)" height="104.0234" id="MakeOptions&lt;ConcreteType, UserDataType&gt;" style="stroke:#A80036;stroke-width:1.5;" width="314" x="7" y="158"/><ellipse cx="22" cy="174" fill="#B4A7E5" rx="11" ry="11" style="stroke:#A80036;stroke-width:1.0;"/><path d="M17.9219,169.7656 L17.9219,167.6094 L25.3125,167.6094 L25.3125,169.7656 L22.8438,169.7656 L22.8438,177.8438 L25.3125,177.8438 L25.3125,180 L17.9219,180 L17.9219,177.8438 L20.3906,177.8438 L20.3906,169.7656 L17.9219,169.7656 Z " fill="#000000"/><text fill="#000000" font-family="sans-serif" font-size="12" font-style="italic" lengthAdjust="spacing" textLength="282" x="36" y="178.1543">MakeOptions&lt;ConcreteType, UserDataType&gt;</text><line style="stroke:#A80036;stroke-width:1.5;" x1="8" x2="320" y1="190" y2="190"/><ellipse cx="18" cy="201" rx="3" ry="3" style="stroke:#038048;stroke-width:1.0;fill:none;"/><text fill="#000000" font-family="sans-serif" font-size="11" lengthAdjust="spacing" textLength="117" x="27" y="204.2104">data : UserDataType</text><ellipse cx="18" cy="213.8047" rx="3" ry="3" style="stroke:#038048;stroke-width:1.0;fill:none;"/><text fill="#000000" font-family="sans-serif" font-size="11" lengthAdjust="spacing" textLength="77" x="27" y="217.0151">name : Name</text><ellipse cx="18" cy="226.6094" rx="3" ry="3" style="stroke:#038048;stroke-width:1.0;fill:none;"/><text fill="#000000" font-family="sans-serif" font-size="11" lengthAdjust="spacing" textLength="102" x="27" y="229.8198">registry : Registry</text><ellipse cx="18" cy="239.4141" rx="3" ry="3" style="stroke:#038048;stroke-width:1.0;fill:none;"/><text fill="#000000" font-family="sans-serif" font-size="11" lengthAdjust="spacing" textLength="204" x="27" y="242.6245">resolver : Resolver&lt;ConcreteType&gt;</text><ellipse cx="18" cy="252.2188" rx="3" ry="3" style="stroke:#038048;stroke-width:1.0;fill:none;"/><text fill="#000000" font-family="sans-serif" font-size="11" lengthAdjust="spacing" textLength="135" x="27" y="255.4292">root : Token&lt;any, any&gt;</text><!--MD5=[79f0f4ae532647d45948a0e2f5e2989f]
class BaseOptions<ConcreteType>--><rect codeLine="11" fill="#FEFECE" filter="url(#f14kh9w1awyion)" height="91.2188" id="BaseOptions&lt;ConcreteType&gt;" style="stroke:#A80036;stroke-width:1.5;" width="230" x="49" y="7"/><ellipse cx="70.75" cy="23" fill="#B4A7E5" rx="11" ry="11" style="stroke:#A80036;stroke-width:1.0;"/><path d="M66.6719,18.7656 L66.6719,16.6094 L74.0625,16.6094 L74.0625,18.7656 L71.5938,18.7656 L71.5938,26.8438 L74.0625,26.8438 L74.0625,29 L66.6719,29 L66.6719,26.8438 L69.1406,26.8438 L69.1406,18.7656 L66.6719,18.7656 Z " fill="#000000"/><text fill="#000000" font-family="sans-serif" font-size="12" font-style="italic" lengthAdjust="spacing" textLength="183" x="86.25" y="27.1543">BaseOptions&lt;ConcreteType&gt;</text><line style="stroke:#A80036;stroke-width:1.5;" x1="50" x2="278" y1="39" y2="39"/><ellipse cx="60" cy="50" rx="3" ry="3" style="stroke:#038048;stroke-width:1.0;fill:none;"/><text fill="#000000" font-family="sans-serif" font-size="11" lengthAdjust="spacing" textLength="77" x="69" y="53.2104">name : Name</text><ellipse cx="60" cy="62.8047" rx="3" ry="3" style="stroke:#038048;stroke-width:1.0;fill:none;"/><text fill="#000000" font-family="sans-serif" font-size="11" lengthAdjust="spacing" textLength="102" x="69" y="66.0151">registry : Registry</text><ellipse cx="60" cy="75.6094" rx="3" ry="3" style="stroke:#038048;stroke-width:1.0;fill:none;"/><text fill="#000000" font-family="sans-serif" font-size="11" lengthAdjust="spacing" textLength="204" x="69" y="78.8198">resolver : Resolver&lt;ConcreteType&gt;</text><ellipse cx="60" cy="88.4141" rx="3" ry="3" style="stroke:#038048;stroke-width:1.0;fill:none;"/><text fill="#000000" font-family="sans-serif" font-size="11" lengthAdjust="spacing" textLength="135" x="69" y="91.6245">root : Token&lt;any, any&gt;</text><!--MD5=[cee3cca18d527578079aca629b7e6342]
reverse link BaseOptions<ConcreteType> to MakeOptions<ConcreteType, UserDataType>--><path codeLine="17" d="M164,118.2 C164,131.43 164,145.18 164,157.85 " fill="none" id="BaseOptions&lt;ConcreteType&gt;-backto-MakeOptions&lt;ConcreteType, UserDataType&gt;" style="stroke:#A80036;stroke-width:1.0;"/><polygon fill="none" points="157,118.06,164,98.06,171,118.06,157,118.06" style="stroke:#A80036;stroke-width:1.0;"/><!--MD5=[1039289eb762f9e05d879362baddf9e0]
@startuml
skinparam BackgroundColor transparent
hide empty methods
hide empty fields
interface "MakeOptions<ConcreteType, UserDataType>" {
    +data : UserDataType
    +name : Name
    +registry : Registry
    +resolver : Resolver<ConcreteType>
    +root : Token<any, any>
}
interface "BaseOptions<ConcreteType>" {
    +name : Name
    +registry : Registry
    +resolver : Resolver<ConcreteType>
    +root : Token<any, any>
}
"BaseOptions<ConcreteType>" <|- - "MakeOptions<ConcreteType, UserDataType>"
@enduml

PlantUML version 1.2021.14(Fri Nov 12 16:46:50 UTC 2021)
(GPL source distribution)
Java Runtime: OpenJDK Runtime Environment
JVM: OpenJDK 64-Bit Server VM
Default Encoding: UTF-8
Language: en
Country: null
--></g></svg>