<?xml version="1.0" encoding="UTF-8" standalone="no"?><svg xmlns="http://www.w3.org/2000/svg" xmlns:xlink="http://www.w3.org/1999/xlink" contentScriptType="application/ecmascript" contentStyleType="text/css" height="394px" preserveAspectRatio="none" style="width:361px;height:394px;background:#00000000;" version="1.1" viewBox="0 0 361 394" width="361px" zoomAndPan="magnify"><defs><filter height="300%" id="f1rl4xsibxo0nx" width="300%" x="-1" y="-1"><feGaussianBlur result="blurOut" stdDeviation="2.0"/><feColorMatrix in="blurOut" result="blurOut2" type="matrix" values="0 0 0 0 0 0 0 0 0 0 0 0 0 0 0 0 0 0 .4 0"/><feOffset dx="4.0" dy="4.0" in="blurOut2" result="blurOut3"/><feBlend in="SourceGraphic" in2="blurOut3" mode="normal"/></filter></defs><g><!--MD5=[eb1b777e706ea13743e0c3438c24e619]
class NodeFileSystemScene--><rect codeLine="4" fill="#FEFECE" filter="url(#f1rl4xsibxo0nx)" height="163.2422" id="NodeFileSystemScene" style="stroke:#A80036;stroke-width:1.5;" width="340" x="7" y="217"/><ellipse cx="103.75" cy="233" fill="#ADD1B2" rx="11" ry="11" style="stroke:#A80036;stroke-width:1.0;"/><path d="M106.7188,238.6406 Q106.1406,238.9375 105.5,239.0781 Q104.8594,239.2344 104.1563,239.2344 Q101.6563,239.2344 100.3281,237.5938 Q99.0156,235.9375 99.0156,232.8125 Q99.0156,229.6875 100.3281,228.0313 Q101.6563,226.375 104.1563,226.375 Q104.8594,226.375 105.5,226.5313 Q106.1563,226.6875 106.7188,226.9844 L106.7188,229.7031 Q106.0938,229.125 105.5,228.8594 Q104.9063,228.5781 104.2813,228.5781 Q102.9375,228.5781 102.25,229.6563 Q101.5625,230.7188 101.5625,232.8125 Q101.5625,234.9063 102.25,235.9844 Q102.9375,237.0469 104.2813,237.0469 Q104.9063,237.0469 105.5,236.7813 Q106.0938,236.5 106.7188,235.9219 L106.7188,238.6406 Z " fill="#000000"/><text fill="#000000" font-family="sans-serif" font-size="12" lengthAdjust="spacing" textLength="138" x="124.25" y="237.1543">NodeFileSystemScene</text><line style="stroke:#A80036;stroke-width:1.5;" x1="8" x2="346" y1="249" y2="249"/><ellipse cx="18" cy="260" rx="3" ry="3" style="stroke:#038048;stroke-width:1.0;fill:none;"/><text fill="#000000" font-family="sans-serif" font-size="11" lengthAdjust="spacing" textLength="184" x="27" y="263.2104">components : Set&lt;Component&gt;</text><rect fill="none" height="6" style="stroke:#C82930;stroke-width:1.0;" width="6" x="15" y="269.8047"/><text fill="#000000" font-family="sans-serif" font-size="11" lengthAdjust="spacing" textLength="77" x="27" y="276.0151">fs : __module</text><line style="stroke:#A80036;stroke-width:1.5;" x1="8" x2="346" y1="282.6094" y2="282.6094"/><ellipse cx="18" cy="293.6094" fill="#84BE84" rx="3" ry="3" style="stroke:#038048;stroke-width:1.0;"/><text fill="#000000" font-family="sans-serif" font-size="11" lengthAdjust="spacing" textLength="152" x="27" y="296.8198">cluster(view: View) : View[]</text><ellipse cx="18" cy="306.4141" fill="#84BE84" rx="3" ry="3" style="stroke:#038048;stroke-width:1.0;"/><text fill="#000000" font-family="sans-serif" font-size="11" lengthAdjust="spacing" textLength="314" x="27" y="309.6245">consume(_composition: Composition) : Promise&lt;void&gt;</text><ellipse cx="18" cy="319.2188" fill="#84BE84" rx="3" ry="3" style="stroke:#038048;stroke-width:1.0;"/><text fill="#000000" font-family="sans-serif" font-size="11" lengthAdjust="spacing" textLength="109" x="27" y="322.4292">empty() : __module</text><ellipse cx="18" cy="332.0234" fill="#84BE84" rx="3" ry="3" style="stroke:#038048;stroke-width:1.0;"/><text fill="#000000" font-family="sans-serif" font-size="11" lengthAdjust="spacing" textLength="227" x="27" y="335.2339">filter(component: Component) : boolean</text><ellipse cx="18" cy="344.8281" fill="#84BE84" rx="3" ry="3" style="stroke:#038048;stroke-width:1.0;"/><text fill="#000000" font-family="sans-serif" font-size="11" lengthAdjust="spacing" textLength="80" x="27" y="348.0386">gizmos() : any</text><ellipse cx="18" cy="357.6328" fill="#84BE84" rx="3" ry="3" style="stroke:#038048;stroke-width:1.0;"/><text fill="#000000" font-family="sans-serif" font-size="11" lengthAdjust="spacing" textLength="264" x="27" y="360.8433">update(delta: UpdateDelta) : Token&lt;any, any&gt;</text><ellipse cx="18" cy="370.4375" fill="#84BE84" rx="3" ry="3" style="stroke:#038048;stroke-width:1.0;"/><text fill="#000000" font-family="sans-serif" font-size="11" lengthAdjust="spacing" textLength="170" x="27" y="373.6479">verify(views: View[]) : boolean</text><!--MD5=[e4faacc5b8aef66b11ab0c816bbbc7f8]
class Scene--><rect codeLine="15" fill="#FEFECE" filter="url(#f1rl4xsibxo0nx)" height="150.4375" id="Scene" style="stroke:#A80036;stroke-width:1.5;" width="340" x="7" y="7"/><ellipse cx="153.25" cy="23" fill="#A9DCDF" rx="11" ry="11" style="stroke:#A80036;stroke-width:1.0;"/><path d="M153.3594,18.3438 L152.2031,23.4219 L154.5313,23.4219 L153.3594,18.3438 Z M151.875,16.1094 L154.8594,16.1094 L158.2188,28.5 L155.7656,28.5 L155,25.4375 L151.7188,25.4375 L150.9688,28.5 L148.5313,28.5 L151.875,16.1094 Z " fill="#000000"/><text fill="#000000" font-family="sans-serif" font-size="12" font-style="italic" lengthAdjust="spacing" textLength="39" x="173.75" y="27.1543">Scene</text><line style="stroke:#A80036;stroke-width:1.5;" x1="8" x2="346" y1="39" y2="39"/><ellipse cx="18" cy="50" rx="3" ry="3" style="stroke:#038048;stroke-width:1.0;fill:none;"/><text fill="#000000" font-family="sans-serif" font-size="11" lengthAdjust="spacing" textLength="184" x="27" y="53.2104">components : Set&lt;Component&gt;</text><line style="stroke:#A80036;stroke-width:1.5;" x1="8" x2="346" y1="59.8047" y2="59.8047"/><ellipse cx="18" cy="70.8047" fill="#84BE84" rx="3" ry="3" style="stroke:#038048;stroke-width:1.0;"/><text fill="#000000" font-family="sans-serif" font-size="11" lengthAdjust="spacing" textLength="152" x="27" y="74.0151">cluster(view: View) : View[]</text><ellipse cx="18" cy="83.6094" fill="#84BE84" rx="3" ry="3" style="stroke:#038048;stroke-width:1.0;"/><text fill="#000000" font-family="sans-serif" font-size="11" lengthAdjust="spacing" textLength="314" x="27" y="86.8198">consume(_composition: Composition) : Promise&lt;void&gt;</text><ellipse cx="18" cy="96.4141" fill="#84BE84" rx="3" ry="3" style="stroke:#038048;stroke-width:1.0;"/><text fill="#000000" font-family="sans-serif" font-size="11" lengthAdjust="spacing" textLength="75" x="27" y="99.6245">empty() : any</text><ellipse cx="18" cy="109.2188" fill="#84BE84" rx="3" ry="3" style="stroke:#038048;stroke-width:1.0;"/><text fill="#000000" font-family="sans-serif" font-size="11" font-style="italic" lengthAdjust="spacing" textLength="227" x="27" y="112.4292">filter(component: Component) : boolean</text><ellipse cx="18" cy="122.0234" fill="#84BE84" rx="3" ry="3" style="stroke:#038048;stroke-width:1.0;"/><text fill="#000000" font-family="sans-serif" font-size="11" lengthAdjust="spacing" textLength="80" x="27" y="125.2339">gizmos() : any</text><ellipse cx="18" cy="134.8281" fill="#84BE84" rx="3" ry="3" style="stroke:#038048;stroke-width:1.0;"/><text fill="#000000" font-family="sans-serif" font-size="11" lengthAdjust="spacing" textLength="264" x="27" y="138.0386">update(delta: UpdateDelta) : Token&lt;any, any&gt;</text><ellipse cx="18" cy="147.6328" fill="#84BE84" rx="3" ry="3" style="stroke:#038048;stroke-width:1.0;"/><text fill="#000000" font-family="sans-serif" font-size="11" lengthAdjust="spacing" textLength="170" x="27" y="150.8433">verify(views: View[]) : boolean</text><!--MD5=[f2f0cfc8cfd1e878173aeadc102d6b55]
reverse link Scene to NodeFileSystemScene--><path codeLine="25" d="M177,177.42 C177,190.55 177,203.94 177,216.78 " fill="none" id="Scene-backto-NodeFileSystemScene" style="stroke:#A80036;stroke-width:1.0;"/><polygon fill="none" points="170,177.12,177,157.12,184,177.12,170,177.12" style="stroke:#A80036;stroke-width:1.0;"/><!--MD5=[e67fdfcdab70d4de6ee90d0d69c80615]
@startuml
skinparam BackgroundColor transparent
hide empty methods
hide empty fields
class "NodeFileSystemScene" {
    +components : Set<Component>
    -fs : __module
    +cluster(view: View) : View[]
    +consume(_composition: Composition) : Promise<void>
    +empty() : __module
    +filter(component: Component) : boolean
    +gizmos() : any
    +update(delta: UpdateDelta) : Token<any, any>
    +verify(views: View[]) : boolean
}
abstract class "Scene" {
    +components : Set<Component>
    +cluster(view: View) : View[]
    +consume(_composition: Composition) : Promise<void>
    +empty() : any
    {abstract} +filter(component: Component) : boolean
    +gizmos() : any
    +update(delta: UpdateDelta) : Token<any, any>
    +verify(views: View[]) : boolean
}
"Scene" <|- - "NodeFileSystemScene"
@enduml

PlantUML version 1.2021.14(Fri Nov 12 16:46:50 UTC 2021)
(GPL source distribution)
Java Runtime: OpenJDK Runtime Environment
JVM: OpenJDK 64-Bit Server VM
Default Encoding: UTF-8
Language: en
Country: null
--></g></svg>