<?xml version="1.0" encoding="UTF-8" standalone="no"?><svg xmlns="http://www.w3.org/2000/svg" xmlns:xlink="http://www.w3.org/1999/xlink" contentScriptType="application/ecmascript" contentStyleType="text/css" height="330px" preserveAspectRatio="none" style="width:456px;height:330px;background:#00000000;" version="1.1" viewBox="0 0 456 330" width="456px" zoomAndPan="magnify"><defs><filter height="300%" id="fkir7cz1spq4k" width="300%" x="-1" y="-1"><feGaussianBlur result="blurOut" stdDeviation="2.0"/><feColorMatrix in="blurOut" result="blurOut2" type="matrix" values="0 0 0 0 0 0 0 0 0 0 0 0 0 0 0 0 0 0 .4 0"/><feOffset dx="4.0" dy="4.0" in="blurOut2" result="blurOut3"/><feBlend in="SourceGraphic" in2="blurOut3" mode="normal"/></filter></defs><g><!--MD5=[55992f863fc18bcca8802d159dba34ac]
class NotSupportedYet--><rect codeLine="4" fill="#FEFECE" filter="url(#fkir7cz1spq4k)" height="124.8281" id="NotSupportedYet" style="stroke:#A80036;stroke-width:1.5;" width="435" x="7" y="192"/><ellipse cx="166.25" cy="208" fill="#ADD1B2" rx="11" ry="11" style="stroke:#A80036;stroke-width:1.0;"/><path d="M169.2188,213.6406 Q168.6406,213.9375 168,214.0781 Q167.3594,214.2344 166.6563,214.2344 Q164.1563,214.2344 162.8281,212.5938 Q161.5156,210.9375 161.5156,207.8125 Q161.5156,204.6875 162.8281,203.0313 Q164.1563,201.375 166.6563,201.375 Q167.3594,201.375 168,201.5313 Q168.6563,201.6875 169.2188,201.9844 L169.2188,204.7031 Q168.5938,204.125 168,203.8594 Q167.4063,203.5781 166.7813,203.5781 Q165.4375,203.5781 164.75,204.6563 Q164.0625,205.7188 164.0625,207.8125 Q164.0625,209.9063 164.75,210.9844 Q165.4375,212.0469 166.7813,212.0469 Q167.4063,212.0469 168,211.7813 Q168.5938,211.5 169.2188,210.9219 L169.2188,213.6406 Z " fill="#000000"/><text fill="#000000" font-family="sans-serif" font-size="12" lengthAdjust="spacing" textLength="108" x="186.75" y="212.1543">NotSupportedYet</text><line style="stroke:#A80036;stroke-width:1.5;" x1="8" x2="441" y1="224" y2="224"/><ellipse cx="18" cy="235" rx="3" ry="3" style="stroke:#038048;stroke-width:1.0;fill:none;"/><text fill="#000000" font-family="sans-serif" font-size="11" lengthAdjust="spacing" textLength="98" x="27" y="238.2104">message : string</text><ellipse cx="18" cy="247.8047" rx="3" ry="3" style="stroke:#038048;stroke-width:1.0;fill:none;"/><text fill="#000000" font-family="sans-serif" font-size="11" lengthAdjust="spacing" textLength="77" x="27" y="251.0151">name : string</text><ellipse cx="18" cy="260.6094" rx="3" ry="3" style="stroke:#038048;stroke-width:1.0;fill:none;"/><text fill="#000000" font-family="sans-serif" font-size="11" lengthAdjust="spacing" text-decoration="underline" textLength="167" x="27" y="263.8198">prepareStackTrace : Function</text><ellipse cx="18" cy="273.4141" rx="3" ry="3" style="stroke:#038048;stroke-width:1.0;fill:none;"/><text fill="#000000" font-family="sans-serif" font-size="11" lengthAdjust="spacing" textLength="75" x="27" y="276.6245">stack : string</text><ellipse cx="18" cy="286.2188" rx="3" ry="3" style="stroke:#038048;stroke-width:1.0;fill:none;"/><text fill="#000000" font-family="sans-serif" font-size="11" lengthAdjust="spacing" text-decoration="underline" textLength="145" x="27" y="289.4292">stackTraceLimit : number</text><line style="stroke:#A80036;stroke-width:1.5;" x1="8" x2="441" y1="296.0234" y2="296.0234"/><ellipse cx="18" cy="307.0234" fill="#84BE84" rx="3" ry="3" style="stroke:#038048;stroke-width:1.0;"/><text fill="#000000" font-family="sans-serif" font-size="11" lengthAdjust="spacing" text-decoration="underline" textLength="409" x="27" y="310.2339">captureStackTrace(targetObject: object, constructorOpt: Function) : void</text><!--MD5=[8db60afef7a3447bbe27c5ed187fdac2]
class Exception--><rect codeLine="12" fill="#FEFECE" filter="url(#fkir7cz1spq4k)" height="124.8281" id="Exception" style="stroke:#A80036;stroke-width:1.5;" width="435" x="7" y="7"/><ellipse cx="189.75" cy="23" fill="#ADD1B2" rx="11" ry="11" style="stroke:#A80036;stroke-width:1.0;"/><path d="M192.7188,28.6406 Q192.1406,28.9375 191.5,29.0781 Q190.8594,29.2344 190.1563,29.2344 Q187.6563,29.2344 186.3281,27.5938 Q185.0156,25.9375 185.0156,22.8125 Q185.0156,19.6875 186.3281,18.0313 Q187.6563,16.375 190.1563,16.375 Q190.8594,16.375 191.5,16.5313 Q192.1563,16.6875 192.7188,16.9844 L192.7188,19.7031 Q192.0938,19.125 191.5,18.8594 Q190.9063,18.5781 190.2813,18.5781 Q188.9375,18.5781 188.25,19.6563 Q187.5625,20.7188 187.5625,22.8125 Q187.5625,24.9063 188.25,25.9844 Q188.9375,27.0469 190.2813,27.0469 Q190.9063,27.0469 191.5,26.7813 Q192.0938,26.5 192.7188,25.9219 L192.7188,28.6406 Z " fill="#000000"/><text fill="#000000" font-family="sans-serif" font-size="12" lengthAdjust="spacing" textLength="61" x="210.25" y="27.1543">Exception</text><line style="stroke:#A80036;stroke-width:1.5;" x1="8" x2="441" y1="39" y2="39"/><ellipse cx="18" cy="50" rx="3" ry="3" style="stroke:#038048;stroke-width:1.0;fill:none;"/><text fill="#000000" font-family="sans-serif" font-size="11" lengthAdjust="spacing" textLength="98" x="27" y="53.2104">message : string</text><ellipse cx="18" cy="62.8047" rx="3" ry="3" style="stroke:#038048;stroke-width:1.0;fill:none;"/><text fill="#000000" font-family="sans-serif" font-size="11" lengthAdjust="spacing" textLength="77" x="27" y="66.0151">name : string</text><ellipse cx="18" cy="75.6094" rx="3" ry="3" style="stroke:#038048;stroke-width:1.0;fill:none;"/><text fill="#000000" font-family="sans-serif" font-size="11" lengthAdjust="spacing" text-decoration="underline" textLength="167" x="27" y="78.8198">prepareStackTrace : Function</text><ellipse cx="18" cy="88.4141" rx="3" ry="3" style="stroke:#038048;stroke-width:1.0;fill:none;"/><text fill="#000000" font-family="sans-serif" font-size="11" lengthAdjust="spacing" textLength="75" x="27" y="91.6245">stack : string</text><ellipse cx="18" cy="101.2188" rx="3" ry="3" style="stroke:#038048;stroke-width:1.0;fill:none;"/><text fill="#000000" font-family="sans-serif" font-size="11" lengthAdjust="spacing" text-decoration="underline" textLength="145" x="27" y="104.4292">stackTraceLimit : number</text><line style="stroke:#A80036;stroke-width:1.5;" x1="8" x2="441" y1="111.0234" y2="111.0234"/><ellipse cx="18" cy="122.0234" fill="#84BE84" rx="3" ry="3" style="stroke:#038048;stroke-width:1.0;"/><text fill="#000000" font-family="sans-serif" font-size="11" lengthAdjust="spacing" text-decoration="underline" textLength="409" x="27" y="125.2339">captureStackTrace(targetObject: object, constructorOpt: Function) : void</text><!--MD5=[016cc17079ccc355cbb5edcdd39b4696]
reverse link Exception to NotSupportedYet--><path codeLine="20" d="M224.5,152.53 C224.5,165.71 224.5,179.16 224.5,191.76 " fill="none" id="Exception-backto-NotSupportedYet" style="stroke:#A80036;stroke-width:1.0;"/><polygon fill="none" points="217.5,152.2,224.5,132.2,231.5,152.2,217.5,152.2" style="stroke:#A80036;stroke-width:1.0;"/><!--MD5=[9807232489dc4fd3b1fe8af8831fd555]
@startuml
skinparam BackgroundColor transparent
hide empty methods
hide empty fields
class "NotSupportedYet" {
    +message : string
    +name : string
    {static} +prepareStackTrace : Function
    +stack : string
    {static} +stackTraceLimit : number
    {static} +captureStackTrace(targetObject: object, constructorOpt: Function) : void
}
class "Exception" {
    +message : string
    +name : string
    {static} +prepareStackTrace : Function
    +stack : string
    {static} +stackTraceLimit : number
    {static} +captureStackTrace(targetObject: object, constructorOpt: Function) : void
}
"Exception" <|- - "NotSupportedYet"
@enduml

PlantUML version 1.2021.14(Fri Nov 12 16:46:50 UTC 2021)
(GPL source distribution)
Java Runtime: OpenJDK Runtime Environment
JVM: OpenJDK 64-Bit Server VM
Default Encoding: UTF-8
Language: en
Country: null
--></g></svg>