<?xml version="1.0" encoding="UTF-8" standalone="no"?><svg xmlns="http://www.w3.org/2000/svg" xmlns:xlink="http://www.w3.org/1999/xlink" contentScriptType="application/ecmascript" contentStyleType="text/css" height="489px" preserveAspectRatio="none" style="width:1887px;height:489px;background:#00000000;" version="1.1" viewBox="0 0 1887 489" width="1887px" zoomAndPan="magnify"><defs><filter height="300%" id="f1jbd5j7kgekpk" width="300%" x="-1" y="-1"><feGaussianBlur result="blurOut" stdDeviation="2.0"/><feColorMatrix in="blurOut" result="blurOut2" type="matrix" values="0 0 0 0 0 0 0 0 0 0 0 0 0 0 0 0 0 0 .4 0"/><feOffset dx="4.0" dy="4.0" in="blurOut2" result="blurOut3"/><feBlend in="SourceGraphic" in2="blurOut3" mode="normal"/></filter></defs><g><!--MD5=[41d4fac774e0e723492089dc4b99a6f3]
class Resolvable--><rect codeLine="4" fill="#FEFECE" filter="url(#f1jbd5j7kgekpk)" height="99.2188" id="Resolvable" style="stroke:#A80036;stroke-width:1.5;" width="331" x="697" y="166"/><ellipse cx="825.25" cy="182" fill="#A9DCDF" rx="11" ry="11" style="stroke:#A80036;stroke-width:1.0;"/><path d="M825.3594,177.3438 L824.2031,182.4219 L826.5313,182.4219 L825.3594,177.3438 Z M823.875,175.1094 L826.8594,175.1094 L830.2188,187.5 L827.7656,187.5 L827,184.4375 L823.7188,184.4375 L822.9688,187.5 L820.5313,187.5 L823.875,175.1094 Z " fill="#000000"/><text fill="#000000" font-family="sans-serif" font-size="12" font-style="italic" lengthAdjust="spacing" textLength="66" x="845.75" y="186.1543">Resolvable</text><line style="stroke:#A80036;stroke-width:1.5;" x1="698" x2="1027" y1="198" y2="198"/><ellipse cx="708" cy="209" rx="3" ry="3" style="stroke:#038048;stroke-width:1.0;fill:none;"/><text fill="#000000" font-family="sans-serif" font-size="11" lengthAdjust="spacing" textLength="163" x="717" y="212.2104">[ComponentHandle] : Handle</text><line style="stroke:#A80036;stroke-width:1.5;" x1="698" x2="1027" y1="218.8047" y2="218.8047"/><ellipse cx="708" cy="229.8047" fill="#84BE84" rx="3" ry="3" style="stroke:#038048;stroke-width:1.0;"/><text fill="#000000" font-family="sans-serif" font-size="11" font-style="italic" lengthAdjust="spacing" textLength="305" x="717" y="233.0151">[ComponentRender](out: any) : void | Promise&lt;void&gt;</text><ellipse cx="708" cy="242.6094" fill="#84BE84" rx="3" ry="3" style="stroke:#038048;stroke-width:1.0;"/><text fill="#000000" font-family="sans-serif" font-size="11" lengthAdjust="spacing" textLength="221" x="717" y="245.8198">[ComponentUpdate]() : Promise&lt;void&gt;</text><ellipse cx="708" cy="255.4141" fill="#84BE84" rx="3" ry="3" style="stroke:#038048;stroke-width:1.0;"/><text fill="#000000" font-family="sans-serif" font-size="11" lengthAdjust="spacing" textLength="248" x="717" y="258.6245">[ComponentVerify]() : void | Promise&lt;void&gt;</text><!--MD5=[4e13963c9dc916a21a8436ef39422b32]
class Component--><rect codeLine="10" fill="#FEFECE" filter="url(#f1jbd5j7kgekpk)" height="99.2188" id="Component" style="stroke:#A80036;stroke-width:1.5;" width="331" x="697" y="7"/><ellipse cx="822.25" cy="23" fill="#A9DCDF" rx="11" ry="11" style="stroke:#A80036;stroke-width:1.0;"/><path d="M822.3594,18.3438 L821.2031,23.4219 L823.5313,23.4219 L822.3594,18.3438 Z M820.875,16.1094 L823.8594,16.1094 L827.2188,28.5 L824.7656,28.5 L824,25.4375 L820.7188,25.4375 L819.9688,28.5 L817.5313,28.5 L820.875,16.1094 Z " fill="#000000"/><text fill="#000000" font-family="sans-serif" font-size="12" font-style="italic" lengthAdjust="spacing" textLength="72" x="842.75" y="27.1543">Component</text><line style="stroke:#A80036;stroke-width:1.5;" x1="698" x2="1027" y1="39" y2="39"/><ellipse cx="708" cy="50" rx="3" ry="3" style="stroke:#038048;stroke-width:1.0;fill:none;"/><text fill="#000000" font-family="sans-serif" font-size="11" lengthAdjust="spacing" textLength="163" x="717" y="53.2104">[ComponentHandle] : Handle</text><line style="stroke:#A80036;stroke-width:1.5;" x1="698" x2="1027" y1="59.8047" y2="59.8047"/><ellipse cx="708" cy="70.8047" fill="#84BE84" rx="3" ry="3" style="stroke:#038048;stroke-width:1.0;"/><text fill="#000000" font-family="sans-serif" font-size="11" font-style="italic" lengthAdjust="spacing" textLength="305" x="717" y="74.0151">[ComponentRender](out: any) : void | Promise&lt;void&gt;</text><ellipse cx="708" cy="83.6094" fill="#84BE84" rx="3" ry="3" style="stroke:#038048;stroke-width:1.0;"/><text fill="#000000" font-family="sans-serif" font-size="11" lengthAdjust="spacing" textLength="221" x="717" y="86.8198">[ComponentUpdate]() : Promise&lt;void&gt;</text><ellipse cx="708" cy="96.4141" fill="#84BE84" rx="3" ry="3" style="stroke:#038048;stroke-width:1.0;"/><text fill="#000000" font-family="sans-serif" font-size="11" lengthAdjust="spacing" textLength="248" x="717" y="99.6245">[ComponentVerify]() : void | Promise&lt;void&gt;</text><!--MD5=[946cf32c4909f60ec87eb8fd56ac8dfa]
class FileSystemComponent--><rect codeLine="17" fill="#FEFECE" filter="url(#f1jbd5j7kgekpk)" height="124.8281" id="FileSystemComponent" style="stroke:#A80036;stroke-width:1.5;" width="331" x="7" y="337.5"/><ellipse cx="99.25" cy="353.5" fill="#A9DCDF" rx="11" ry="11" style="stroke:#A80036;stroke-width:1.0;"/><path d="M99.3594,348.8438 L98.2031,353.9219 L100.5313,353.9219 L99.3594,348.8438 Z M97.875,346.6094 L100.8594,346.6094 L104.2188,359 L101.7656,359 L101,355.9375 L97.7188,355.9375 L96.9688,359 L94.5313,359 L97.875,346.6094 Z " fill="#000000"/><text fill="#000000" font-family="sans-serif" font-size="12" font-style="italic" lengthAdjust="spacing" textLength="138" x="119.75" y="357.6543">FileSystemComponent</text><line style="stroke:#A80036;stroke-width:1.5;" x1="8" x2="337" y1="369.5" y2="369.5"/><ellipse cx="18" cy="380.5" rx="3" ry="3" style="stroke:#038048;stroke-width:1.0;fill:none;"/><text fill="#000000" font-family="sans-serif" font-size="11" lengthAdjust="spacing" textLength="95" x="27" y="383.7104">directory : string</text><ellipse cx="18" cy="393.3047" rx="3" ry="3" style="stroke:#038048;stroke-width:1.0;fill:none;"/><text fill="#000000" font-family="sans-serif" font-size="11" lengthAdjust="spacing" textLength="77" x="27" y="396.5151">name : string</text><ellipse cx="18" cy="406.1094" rx="3" ry="3" style="stroke:#038048;stroke-width:1.0;fill:none;"/><text fill="#000000" font-family="sans-serif" font-size="11" lengthAdjust="spacing" textLength="163" x="27" y="409.3198">[ComponentHandle] : Handle</text><line style="stroke:#A80036;stroke-width:1.5;" x1="8" x2="337" y1="415.9141" y2="415.9141"/><ellipse cx="18" cy="426.9141" fill="#84BE84" rx="3" ry="3" style="stroke:#038048;stroke-width:1.0;"/><text fill="#000000" font-family="sans-serif" font-size="11" font-style="italic" lengthAdjust="spacing" textLength="305" x="27" y="430.1245">[ComponentRender](out: any) : void | Promise&lt;void&gt;</text><ellipse cx="18" cy="439.7188" fill="#84BE84" rx="3" ry="3" style="stroke:#038048;stroke-width:1.0;"/><text fill="#000000" font-family="sans-serif" font-size="11" lengthAdjust="spacing" textLength="221" x="27" y="442.9292">[ComponentUpdate]() : Promise&lt;void&gt;</text><ellipse cx="18" cy="452.5234" fill="#84BE84" rx="3" ry="3" style="stroke:#038048;stroke-width:1.0;"/><text fill="#000000" font-family="sans-serif" font-size="11" lengthAdjust="spacing" textLength="248" x="27" y="455.7339">[ComponentVerify]() : void | Promise&lt;void&gt;</text><!--MD5=[d895f236f4ab01a61772d583878a0d98]
class AzureResourceManagerComponent<void>--><rect codeLine="26" fill="#FEFECE" filter="url(#f1jbd5j7kgekpk)" height="150.4375" id="AzureResourceManagerComponent&lt;void&gt;" style="stroke:#A80036;stroke-width:1.5;" width="297" x="373" y="325"/><ellipse cx="388" cy="341" fill="#A9DCDF" rx="11" ry="11" style="stroke:#A80036;stroke-width:1.0;"/><path d="M388.1094,336.3438 L386.9531,341.4219 L389.2813,341.4219 L388.1094,336.3438 Z M386.625,334.1094 L389.6094,334.1094 L392.9688,346.5 L390.5156,346.5 L389.75,343.4375 L386.4688,343.4375 L385.7188,346.5 L383.2813,346.5 L386.625,334.1094 Z " fill="#000000"/><text fill="#000000" font-family="sans-serif" font-size="12" font-style="italic" lengthAdjust="spacing" textLength="265" x="402" y="345.1543">AzureResourceManagerComponent&lt;void&gt;</text><line style="stroke:#A80036;stroke-width:1.5;" x1="374" x2="669" y1="357" y2="357"/><ellipse cx="384" cy="368" rx="3" ry="3" style="stroke:#038048;stroke-width:1.0;fill:none;"/><text fill="#000000" font-family="sans-serif" font-size="11" lengthAdjust="spacing" textLength="105" x="393" y="371.2104">apiVersion : string</text><ellipse cx="384" cy="380.8047" rx="3" ry="3" style="stroke:#038048;stroke-width:1.0;fill:none;"/><text fill="#000000" font-family="sans-serif" font-size="11" lengthAdjust="spacing" textLength="77" x="393" y="384.0151">name : string</text><ellipse cx="384" cy="393.6094" rx="3" ry="3" style="stroke:#038048;stroke-width:1.0;fill:none;"/><text fill="#000000" font-family="sans-serif" font-size="11" lengthAdjust="spacing" textLength="94" x="393" y="396.8198">properties : void</text><ellipse cx="384" cy="406.4141" rx="3" ry="3" style="stroke:#038048;stroke-width:1.0;fill:none;"/><text fill="#000000" font-family="sans-serif" font-size="11" lengthAdjust="spacing" textLength="69" x="393" y="409.6245">type : string</text><ellipse cx="384" cy="419.2188" rx="3" ry="3" style="stroke:#038048;stroke-width:1.0;fill:none;"/><text fill="#000000" font-family="sans-serif" font-size="11" lengthAdjust="spacing" textLength="163" x="393" y="422.4292">[ComponentHandle] : Handle</text><line style="stroke:#A80036;stroke-width:1.5;" x1="374" x2="669" y1="429.0234" y2="429.0234"/><ellipse cx="384" cy="440.0234" fill="#84BE84" rx="3" ry="3" style="stroke:#038048;stroke-width:1.0;"/><text fill="#000000" font-family="sans-serif" font-size="11" lengthAdjust="spacing" textLength="220" x="393" y="443.2339">[ComponentRender](output: any) : void</text><ellipse cx="384" cy="452.8281" fill="#84BE84" rx="3" ry="3" style="stroke:#038048;stroke-width:1.0;"/><text fill="#000000" font-family="sans-serif" font-size="11" lengthAdjust="spacing" textLength="221" x="393" y="456.0386">[ComponentUpdate]() : Promise&lt;void&gt;</text><ellipse cx="384" cy="465.6328" fill="#84BE84" rx="3" ry="3" style="stroke:#038048;stroke-width:1.0;"/><text fill="#000000" font-family="sans-serif" font-size="11" lengthAdjust="spacing" textLength="248" x="393" y="468.8433">[ComponentVerify]() : void | Promise&lt;void&gt;</text><!--MD5=[f835b7ffeb4a4a7375770078f3ed013b]
class AWSCloudFormationComponent<PropsType>--><rect codeLine="37" fill="#FEFECE" filter="url(#f1jbd5j7kgekpk)" height="99.2188" id="AWSCloudFormationComponent&lt;PropsType&gt;" style="stroke:#A80036;stroke-width:1.5;" width="314" x="705.5" y="350.5"/><ellipse cx="720.5" cy="366.5" fill="#A9DCDF" rx="11" ry="11" style="stroke:#A80036;stroke-width:1.0;"/><path d="M720.6094,361.8438 L719.4531,366.9219 L721.7813,366.9219 L720.6094,361.8438 Z M719.125,359.6094 L722.1094,359.6094 L725.4688,372 L723.0156,372 L722.25,368.9375 L718.9688,368.9375 L718.2188,372 L715.7813,372 L719.125,359.6094 Z " fill="#000000"/><text fill="#000000" font-family="sans-serif" font-size="12" font-style="italic" lengthAdjust="spacing" textLength="282" x="734.5" y="370.6543">AWSCloudFormationComponent&lt;PropsType&gt;</text><line style="stroke:#A80036;stroke-width:1.5;" x1="706.5" x2="1018.5" y1="382.5" y2="382.5"/><ellipse cx="716.5" cy="393.5" rx="3" ry="3" style="stroke:#038048;stroke-width:1.0;fill:none;"/><text fill="#000000" font-family="sans-serif" font-size="11" lengthAdjust="spacing" textLength="163" x="725.5" y="396.7104">[ComponentHandle] : Handle</text><line style="stroke:#A80036;stroke-width:1.5;" x1="706.5" x2="1018.5" y1="403.3047" y2="403.3047"/><ellipse cx="716.5" cy="414.3047" fill="#84BE84" rx="3" ry="3" style="stroke:#038048;stroke-width:1.0;"/><text fill="#000000" font-family="sans-serif" font-size="11" lengthAdjust="spacing" textLength="285" x="725.5" y="417.5151">[ComponentRender](output: any) : Promise&lt;void&gt;</text><ellipse cx="716.5" cy="427.1094" fill="#84BE84" rx="3" ry="3" style="stroke:#038048;stroke-width:1.0;"/><text fill="#000000" font-family="sans-serif" font-size="11" lengthAdjust="spacing" textLength="221" x="725.5" y="430.3198">[ComponentUpdate]() : Promise&lt;void&gt;</text><ellipse cx="716.5" cy="439.9141" fill="#84BE84" rx="3" ry="3" style="stroke:#038048;stroke-width:1.0;"/><text fill="#000000" font-family="sans-serif" font-size="11" lengthAdjust="spacing" textLength="248" x="725.5" y="443.1245">[ComponentVerify]() : void | Promise&lt;void&gt;</text><!--MD5=[5aa95876f21f08a9468fa81cc52afafb]
class GoogleDeploymentManagerComponent<PropsType>--><rect codeLine="44" fill="#FEFECE" filter="url(#f1jbd5j7kgekpk)" height="137.6328" id="GoogleDeploymentManagerComponent&lt;PropsType&gt;" style="stroke:#A80036;stroke-width:1.5;" width="362" x="1054.5" y="331"/><ellipse cx="1069.5" cy="347" fill="#A9DCDF" rx="11" ry="11" style="stroke:#A80036;stroke-width:1.0;"/><path d="M1069.6094,342.3438 L1068.4531,347.4219 L1070.7813,347.4219 L1069.6094,342.3438 Z M1068.125,340.1094 L1071.1094,340.1094 L1074.4688,352.5 L1072.0156,352.5 L1071.25,349.4375 L1067.9688,349.4375 L1067.2188,352.5 L1064.7813,352.5 L1068.125,340.1094 Z " fill="#000000"/><text fill="#000000" font-family="sans-serif" font-size="12" font-style="italic" lengthAdjust="spacing" textLength="330" x="1083.5" y="351.1543">GoogleDeploymentManagerComponent&lt;PropsType&gt;</text><line style="stroke:#A80036;stroke-width:1.5;" x1="1055.5" x2="1415.5" y1="363" y2="363"/><ellipse cx="1065.5" cy="374" rx="3" ry="3" style="stroke:#038048;stroke-width:1.0;fill:none;"/><text fill="#000000" font-family="sans-serif" font-size="11" lengthAdjust="spacing" textLength="77" x="1074.5" y="377.2104">name : string</text><ellipse cx="1065.5" cy="386.8047" rx="3" ry="3" style="stroke:#038048;stroke-width:1.0;fill:none;"/><text fill="#000000" font-family="sans-serif" font-size="11" lengthAdjust="spacing" textLength="131" x="1074.5" y="390.0151">properties : PropsType</text><ellipse cx="1065.5" cy="399.6094" rx="3" ry="3" style="stroke:#038048;stroke-width:1.0;fill:none;"/><text fill="#000000" font-family="sans-serif" font-size="11" lengthAdjust="spacing" textLength="69" x="1074.5" y="402.8198">type : string</text><ellipse cx="1065.5" cy="412.4141" rx="3" ry="3" style="stroke:#038048;stroke-width:1.0;fill:none;"/><text fill="#000000" font-family="sans-serif" font-size="11" lengthAdjust="spacing" textLength="163" x="1074.5" y="415.6245">[ComponentHandle] : Handle</text><line style="stroke:#A80036;stroke-width:1.5;" x1="1055.5" x2="1415.5" y1="422.2188" y2="422.2188"/><ellipse cx="1065.5" cy="433.2188" fill="#84BE84" rx="3" ry="3" style="stroke:#038048;stroke-width:1.0;"/><text fill="#000000" font-family="sans-serif" font-size="11" lengthAdjust="spacing" textLength="220" x="1074.5" y="436.4292">[ComponentRender](output: any) : void</text><ellipse cx="1065.5" cy="446.0234" fill="#84BE84" rx="3" ry="3" style="stroke:#038048;stroke-width:1.0;"/><text fill="#000000" font-family="sans-serif" font-size="11" lengthAdjust="spacing" textLength="221" x="1074.5" y="449.2339">[ComponentUpdate]() : Promise&lt;void&gt;</text><ellipse cx="1065.5" cy="458.8281" fill="#84BE84" rx="3" ry="3" style="stroke:#038048;stroke-width:1.0;"/><text fill="#000000" font-family="sans-serif" font-size="11" lengthAdjust="spacing" textLength="248" x="1074.5" y="462.0386">[ComponentVerify]() : void | Promise&lt;void&gt;</text><!--MD5=[3298442fb4c503edc1a8b7df95e67ef8]
class AlibabaResourceOrchestrationServiceComponent<PropsType>--><rect codeLine="54" fill="#FEFECE" filter="url(#f1jbd5j7kgekpk)" height="99.2188" id="AlibabaResourceOrchestrationServiceComponent&lt;PropsType&gt;" style="stroke:#A80036;stroke-width:1.5;" width="421" x="1452" y="350.5"/><ellipse cx="1467" cy="366.5" fill="#A9DCDF" rx="11" ry="11" style="stroke:#A80036;stroke-width:1.0;"/><path d="M1467.1094,361.8438 L1465.9531,366.9219 L1468.2813,366.9219 L1467.1094,361.8438 Z M1465.625,359.6094 L1468.6094,359.6094 L1471.9688,372 L1469.5156,372 L1468.75,368.9375 L1465.4688,368.9375 L1464.7188,372 L1462.2813,372 L1465.625,359.6094 Z " fill="#000000"/><text fill="#000000" font-family="sans-serif" font-size="12" font-style="italic" lengthAdjust="spacing" textLength="389" x="1481" y="370.6543">AlibabaResourceOrchestrationServiceComponent&lt;PropsType&gt;</text><line style="stroke:#A80036;stroke-width:1.5;" x1="1453" x2="1872" y1="382.5" y2="382.5"/><ellipse cx="1463" cy="393.5" rx="3" ry="3" style="stroke:#038048;stroke-width:1.0;fill:none;"/><text fill="#000000" font-family="sans-serif" font-size="11" lengthAdjust="spacing" textLength="163" x="1472" y="396.7104">[ComponentHandle] : Handle</text><line style="stroke:#A80036;stroke-width:1.5;" x1="1453" x2="1872" y1="403.3047" y2="403.3047"/><ellipse cx="1463" cy="414.3047" fill="#84BE84" rx="3" ry="3" style="stroke:#038048;stroke-width:1.0;"/><text fill="#000000" font-family="sans-serif" font-size="11" lengthAdjust="spacing" textLength="220" x="1472" y="417.5151">[ComponentRender](output: any) : void</text><ellipse cx="1463" cy="427.1094" fill="#84BE84" rx="3" ry="3" style="stroke:#038048;stroke-width:1.0;"/><text fill="#000000" font-family="sans-serif" font-size="11" lengthAdjust="spacing" textLength="221" x="1472" y="430.3198">[ComponentUpdate]() : Promise&lt;void&gt;</text><ellipse cx="1463" cy="439.9141" fill="#84BE84" rx="3" ry="3" style="stroke:#038048;stroke-width:1.0;"/><text fill="#000000" font-family="sans-serif" font-size="11" lengthAdjust="spacing" textLength="248" x="1472" y="443.1245">[ComponentVerify]() : void | Promise&lt;void&gt;</text><!--MD5=[43e3e291d07608bc79def5292a0cb654]
reverse link Component to Resolvable--><path codeLine="16" d="M862.5,126.64 C862.5,139.91 862.5,153.54 862.5,165.98 " fill="none" id="Component-backto-Resolvable" style="stroke:#A80036;stroke-width:1.0;"/><polygon fill="none" points="855.5,126.32,862.5,106.32,869.5,126.32,855.5,126.32" style="stroke:#A80036;stroke-width:1.0;"/><!--MD5=[b5926c9a50f4803a8e39a09be65388cf]
reverse link Resolvable to FileSystemComponent--><path codeLine="25" d="M677.14,248.16 C580.27,266.72 460.37,292.84 355.5,325 C343.3,328.74 330.77,332.96 318.27,337.44 " fill="none" id="Resolvable-backto-FileSystemComponent" style="stroke:#A80036;stroke-width:1.0;"/><polygon fill="none" points="675.87,241.28,696.82,244.44,678.47,255.04,675.87,241.28" style="stroke:#A80036;stroke-width:1.0;"/><!--MD5=[f9df9d661138c8d9d73cb56a0b57f1e6]
reverse link Resolvable to AzureResourceManagerComponent<void>--><path codeLine="36" d="M753.89,274.63 C724.04,290.6 691.27,308.14 659.99,324.88 " fill="none" id="Resolvable-backto-AzureResourceManagerComponent&lt;void&gt;" style="stroke:#A80036;stroke-width:1.0;"/><polygon fill="none" points="750.63,268.43,771.57,265.17,757.24,280.78,750.63,268.43" style="stroke:#A80036;stroke-width:1.0;"/><!--MD5=[dcc0d93e8940dd6dd90ef1375141149f]
reverse link Resolvable to AWSCloudFormationComponent<PropsType>--><path codeLine="43" d="M862.5,285.73 C862.5,307.24 862.5,330.48 862.5,350.28 " fill="none" id="Resolvable-backto-AWSCloudFormationComponent&lt;PropsType&gt;" style="stroke:#A80036;stroke-width:1.0;"/><polygon fill="none" points="855.5,285.41,862.5,265.41,869.5,285.41,855.5,285.41" style="stroke:#A80036;stroke-width:1.0;"/><!--MD5=[19b988b97c59259d54281741915598f3]
reverse link Resolvable to GoogleDeploymentManagerComponent<PropsType>--><path codeLine="53" d="M980.01,274 C1016.95,292.07 1058.09,312.2 1096.37,330.93 " fill="none" id="Resolvable-backto-GoogleDeploymentManagerComponent&lt;PropsType&gt;" style="stroke:#A80036;stroke-width:1.0;"/><polygon fill="none" points="976.86,280.24,961.97,265.17,983.01,267.67,976.86,280.24" style="stroke:#A80036;stroke-width:1.0;"/><!--MD5=[c0439b15b8e40a55c0631c8e54e46164]
reverse link Resolvable to AlibabaResourceOrchestrationServiceComponent<PropsType>--><path codeLine="60" d="M1048.2,245.61 C1160.75,264.76 1306.8,292.3 1434.5,325 C1463.22,332.35 1493.62,341.35 1522.53,350.5 " fill="none" id="Resolvable-backto-AlibabaResourceOrchestrationServiceComponent&lt;PropsType&gt;" style="stroke:#A80036;stroke-width:1.0;"/><polygon fill="none" points="1046.86,252.48,1028.3,242.25,1049.19,238.68,1046.86,252.48" style="stroke:#A80036;stroke-width:1.0;"/><!--MD5=[81b35ebd0d85f712ca55156f432a0cc0]
@startuml
skinparam BackgroundColor transparent
hide empty methods
hide empty fields
abstract class "Resolvable" {
    +[ComponentHandle] : Handle
    {abstract} +[ComponentRender](out: any) : void | Promise<void>
    +[ComponentUpdate]() : Promise<void>
    +[ComponentVerify]() : void | Promise<void>
}
abstract class "Component" {
    +[ComponentHandle] : Handle
    {abstract} +[ComponentRender](out: any) : void | Promise<void>
    +[ComponentUpdate]() : Promise<void>
    +[ComponentVerify]() : void | Promise<void>
}
"Component" <|- - "Resolvable"
abstract class "FileSystemComponent" {
    +directory : string
    +name : string
    +[ComponentHandle] : Handle
    {abstract} +[ComponentRender](out: any) : void | Promise<void>
    +[ComponentUpdate]() : Promise<void>
    +[ComponentVerify]() : void | Promise<void>
}
"Resolvable" <|- - "FileSystemComponent"
abstract class "AzureResourceManagerComponent<void>" {
    +apiVersion : string
    +name : string
    +properties : void
    +type : string
    +[ComponentHandle] : Handle
    +[ComponentRender](output: any) : void
    +[ComponentUpdate]() : Promise<void>
    +[ComponentVerify]() : void | Promise<void>
}
"Resolvable" <|- - "AzureResourceManagerComponent<void>"
abstract class "AWSCloudFormationComponent<PropsType>" {
    +[ComponentHandle] : Handle
    +[ComponentRender](output: any) : Promise<void>
    +[ComponentUpdate]() : Promise<void>
    +[ComponentVerify]() : void | Promise<void>
}
"Resolvable" <|- - "AWSCloudFormationComponent<PropsType>"
abstract class "GoogleDeploymentManagerComponent<PropsType>" {
    +name : string
    +properties : PropsType
    +type : string
    +[ComponentHandle] : Handle
    +[ComponentRender](output: any) : void
    +[ComponentUpdate]() : Promise<void>
    +[ComponentVerify]() : void | Promise<void>
}
"Resolvable" <|- - "GoogleDeploymentManagerComponent<PropsType>"
abstract class "AlibabaResourceOrchestrationServiceComponent<PropsType>" {
    +[ComponentHandle] : Handle
    +[ComponentRender](output: any) : void
    +[ComponentUpdate]() : Promise<void>
    +[ComponentVerify]() : void | Promise<void>
}
"Resolvable" <|- - "AlibabaResourceOrchestrationServiceComponent<PropsType>"
@enduml

PlantUML version 1.2021.14(Fri Nov 12 16:46:50 UTC 2021)
(GPL source distribution)
Java Runtime: OpenJDK Runtime Environment
JVM: OpenJDK 64-Bit Server VM
Default Encoding: UTF-8
Language: en
Country: null
--></g></svg>