<?xml version="1.0" encoding="UTF-8" standalone="no"?><svg xmlns="http://www.w3.org/2000/svg" xmlns:xlink="http://www.w3.org/1999/xlink" contentScriptType="application/ecmascript" contentStyleType="text/css" height="489px" preserveAspectRatio="none" style="width:1220px;height:489px;background:#00000000;" version="1.1" viewBox="0 0 1220 489" width="1220px" zoomAndPan="magnify"><defs><filter height="300%" id="fmqiwcyiw9a8g" width="300%" x="-1" y="-1"><feGaussianBlur result="blurOut" stdDeviation="2.0"/><feColorMatrix in="blurOut" result="blurOut2" type="matrix" values="0 0 0 0 0 0 0 0 0 0 0 0 0 0 0 0 0 0 .4 0"/><feOffset dx="4.0" dy="4.0" in="blurOut2" result="blurOut3"/><feBlend in="SourceGraphic" in2="blurOut3" mode="normal"/></filter></defs><g><!--MD5=[41d4fac774e0e723492089dc4b99a6f3]
class Resolvable--><rect codeLine="4" fill="#FEFECE" filter="url(#fmqiwcyiw9a8g)" height="99.2188" id="Resolvable" style="stroke:#A80036;stroke-width:1.5;" width="331" x="453" y="166"/><ellipse cx="581.25" cy="182" fill="#A9DCDF" rx="11" ry="11" style="stroke:#A80036;stroke-width:1.0;"/><path d="M581.3594,177.3438 L580.2031,182.4219 L582.5313,182.4219 L581.3594,177.3438 Z M579.875,175.1094 L582.8594,175.1094 L586.2188,187.5 L583.7656,187.5 L583,184.4375 L579.7188,184.4375 L578.9688,187.5 L576.5313,187.5 L579.875,175.1094 Z " fill="#000000"/><text fill="#000000" font-family="sans-serif" font-size="12" font-style="italic" lengthAdjust="spacing" textLength="66" x="601.75" y="186.1543">Resolvable</text><line style="stroke:#A80036;stroke-width:1.5;" x1="454" x2="783" y1="198" y2="198"/><ellipse cx="464" cy="209" rx="3" ry="3" style="stroke:#038048;stroke-width:1.0;fill:none;"/><text fill="#000000" font-family="sans-serif" font-size="11" lengthAdjust="spacing" textLength="163" x="473" y="212.2104">[ComponentHandle] : Handle</text><line style="stroke:#A80036;stroke-width:1.5;" x1="454" x2="783" y1="218.8047" y2="218.8047"/><ellipse cx="464" cy="229.8047" fill="#84BE84" rx="3" ry="3" style="stroke:#038048;stroke-width:1.0;"/><text fill="#000000" font-family="sans-serif" font-size="11" font-style="italic" lengthAdjust="spacing" textLength="305" x="473" y="233.0151">[ComponentRender](out: any) : void | Promise&lt;void&gt;</text><ellipse cx="464" cy="242.6094" fill="#84BE84" rx="3" ry="3" style="stroke:#038048;stroke-width:1.0;"/><text fill="#000000" font-family="sans-serif" font-size="11" lengthAdjust="spacing" textLength="221" x="473" y="245.8198">[ComponentUpdate]() : Promise&lt;void&gt;</text><ellipse cx="464" cy="255.4141" fill="#84BE84" rx="3" ry="3" style="stroke:#038048;stroke-width:1.0;"/><text fill="#000000" font-family="sans-serif" font-size="11" lengthAdjust="spacing" textLength="235" x="473" y="258.6245">[ComponentVerify]() : Promise&lt;boolean&gt;</text><!--MD5=[4e13963c9dc916a21a8436ef39422b32]
class Component--><rect codeLine="10" fill="#FEFECE" filter="url(#fmqiwcyiw9a8g)" height="99.2188" id="Component" style="stroke:#A80036;stroke-width:1.5;" width="331" x="453" y="7"/><ellipse cx="578.25" cy="23" fill="#A9DCDF" rx="11" ry="11" style="stroke:#A80036;stroke-width:1.0;"/><path d="M578.3594,18.3438 L577.2031,23.4219 L579.5313,23.4219 L578.3594,18.3438 Z M576.875,16.1094 L579.8594,16.1094 L583.2188,28.5 L580.7656,28.5 L580,25.4375 L576.7188,25.4375 L575.9688,28.5 L573.5313,28.5 L576.875,16.1094 Z " fill="#000000"/><text fill="#000000" font-family="sans-serif" font-size="12" font-style="italic" lengthAdjust="spacing" textLength="72" x="598.75" y="27.1543">Component</text><line style="stroke:#A80036;stroke-width:1.5;" x1="454" x2="783" y1="39" y2="39"/><ellipse cx="464" cy="50" rx="3" ry="3" style="stroke:#038048;stroke-width:1.0;fill:none;"/><text fill="#000000" font-family="sans-serif" font-size="11" lengthAdjust="spacing" textLength="163" x="473" y="53.2104">[ComponentHandle] : Handle</text><line style="stroke:#A80036;stroke-width:1.5;" x1="454" x2="783" y1="59.8047" y2="59.8047"/><ellipse cx="464" cy="70.8047" fill="#84BE84" rx="3" ry="3" style="stroke:#038048;stroke-width:1.0;"/><text fill="#000000" font-family="sans-serif" font-size="11" font-style="italic" lengthAdjust="spacing" textLength="305" x="473" y="74.0151">[ComponentRender](out: any) : void | Promise&lt;void&gt;</text><ellipse cx="464" cy="83.6094" fill="#84BE84" rx="3" ry="3" style="stroke:#038048;stroke-width:1.0;"/><text fill="#000000" font-family="sans-serif" font-size="11" lengthAdjust="spacing" textLength="221" x="473" y="86.8198">[ComponentUpdate]() : Promise&lt;void&gt;</text><ellipse cx="464" cy="96.4141" fill="#84BE84" rx="3" ry="3" style="stroke:#038048;stroke-width:1.0;"/><text fill="#000000" font-family="sans-serif" font-size="11" lengthAdjust="spacing" textLength="235" x="473" y="99.6245">[ComponentVerify]() : Promise&lt;boolean&gt;</text><!--MD5=[fba260c938b70f103acfa2fa30498995]
class ArmBaseResource<void>--><rect codeLine="17" fill="#FEFECE" filter="url(#fmqiwcyiw9a8g)" height="150.4375" id="ArmBaseResource&lt;void&gt;" style="stroke:#A80036;stroke-width:1.5;" width="261" x="7" y="325"/><ellipse cx="54.75" cy="341" fill="#A9DCDF" rx="11" ry="11" style="stroke:#A80036;stroke-width:1.0;"/><path d="M54.8594,336.3438 L53.7031,341.4219 L56.0313,341.4219 L54.8594,336.3438 Z M53.375,334.1094 L56.3594,334.1094 L59.7188,346.5 L57.2656,346.5 L56.5,343.4375 L53.2188,343.4375 L52.4688,346.5 L50.0313,346.5 L53.375,334.1094 Z " fill="#000000"/><text fill="#000000" font-family="sans-serif" font-size="12" font-style="italic" lengthAdjust="spacing" textLength="157" x="75.25" y="345.1543">ArmBaseResource&lt;void&gt;</text><line style="stroke:#A80036;stroke-width:1.5;" x1="8" x2="267" y1="357" y2="357"/><ellipse cx="18" cy="368" rx="3" ry="3" style="stroke:#038048;stroke-width:1.0;fill:none;"/><text fill="#000000" font-family="sans-serif" font-size="11" lengthAdjust="spacing" textLength="105" x="27" y="371.2104">apiVersion : string</text><ellipse cx="18" cy="380.8047" rx="3" ry="3" style="stroke:#038048;stroke-width:1.0;fill:none;"/><text fill="#000000" font-family="sans-serif" font-size="11" lengthAdjust="spacing" textLength="77" x="27" y="384.0151">name : string</text><ellipse cx="18" cy="393.6094" rx="3" ry="3" style="stroke:#038048;stroke-width:1.0;fill:none;"/><text fill="#000000" font-family="sans-serif" font-size="11" lengthAdjust="spacing" textLength="94" x="27" y="396.8198">properties : void</text><ellipse cx="18" cy="406.4141" rx="3" ry="3" style="stroke:#038048;stroke-width:1.0;fill:none;"/><text fill="#000000" font-family="sans-serif" font-size="11" lengthAdjust="spacing" textLength="69" x="27" y="409.6245">type : string</text><ellipse cx="18" cy="419.2188" rx="3" ry="3" style="stroke:#038048;stroke-width:1.0;fill:none;"/><text fill="#000000" font-family="sans-serif" font-size="11" lengthAdjust="spacing" textLength="163" x="27" y="422.4292">[ComponentHandle] : Handle</text><line style="stroke:#A80036;stroke-width:1.5;" x1="8" x2="267" y1="429.0234" y2="429.0234"/><ellipse cx="18" cy="440.0234" fill="#84BE84" rx="3" ry="3" style="stroke:#038048;stroke-width:1.0;"/><text fill="#000000" font-family="sans-serif" font-size="11" lengthAdjust="spacing" textLength="220" x="27" y="443.2339">[ComponentRender](output: any) : void</text><ellipse cx="18" cy="452.8281" fill="#84BE84" rx="3" ry="3" style="stroke:#038048;stroke-width:1.0;"/><text fill="#000000" font-family="sans-serif" font-size="11" lengthAdjust="spacing" textLength="221" x="27" y="456.0386">[ComponentUpdate]() : Promise&lt;void&gt;</text><ellipse cx="18" cy="465.6328" fill="#84BE84" rx="3" ry="3" style="stroke:#038048;stroke-width:1.0;"/><text fill="#000000" font-family="sans-serif" font-size="11" lengthAdjust="spacing" textLength="235" x="27" y="468.8433">[ComponentVerify]() : Promise&lt;boolean&gt;</text><!--MD5=[7868f996aea33918a9edc5d46c81b1ba]
class CfnBaseResource<PropsType>--><rect codeLine="28" fill="#FEFECE" filter="url(#fmqiwcyiw9a8g)" height="99.2188" id="CfnBaseResource&lt;PropsType&gt;" style="stroke:#A80036;stroke-width:1.5;" width="311" x="303" y="350.5"/><ellipse cx="358.25" cy="366.5" fill="#A9DCDF" rx="11" ry="11" style="stroke:#A80036;stroke-width:1.0;"/><path d="M358.3594,361.8438 L357.2031,366.9219 L359.5313,366.9219 L358.3594,361.8438 Z M356.875,359.6094 L359.8594,359.6094 L363.2188,372 L360.7656,372 L360,368.9375 L356.7188,368.9375 L355.9688,372 L353.5313,372 L356.875,359.6094 Z " fill="#000000"/><text fill="#000000" font-family="sans-serif" font-size="12" font-style="italic" lengthAdjust="spacing" textLength="192" x="378.75" y="370.6543">CfnBaseResource&lt;PropsType&gt;</text><line style="stroke:#A80036;stroke-width:1.5;" x1="304" x2="613" y1="382.5" y2="382.5"/><ellipse cx="314" cy="393.5" rx="3" ry="3" style="stroke:#038048;stroke-width:1.0;fill:none;"/><text fill="#000000" font-family="sans-serif" font-size="11" lengthAdjust="spacing" textLength="163" x="323" y="396.7104">[ComponentHandle] : Handle</text><line style="stroke:#A80036;stroke-width:1.5;" x1="304" x2="613" y1="403.3047" y2="403.3047"/><ellipse cx="314" cy="414.3047" fill="#84BE84" rx="3" ry="3" style="stroke:#038048;stroke-width:1.0;"/><text fill="#000000" font-family="sans-serif" font-size="11" lengthAdjust="spacing" textLength="285" x="323" y="417.5151">[ComponentRender](output: any) : Promise&lt;void&gt;</text><ellipse cx="314" cy="427.1094" fill="#84BE84" rx="3" ry="3" style="stroke:#038048;stroke-width:1.0;"/><text fill="#000000" font-family="sans-serif" font-size="11" lengthAdjust="spacing" textLength="221" x="323" y="430.3198">[ComponentUpdate]() : Promise&lt;void&gt;</text><ellipse cx="314" cy="439.9141" fill="#84BE84" rx="3" ry="3" style="stroke:#038048;stroke-width:1.0;"/><text fill="#000000" font-family="sans-serif" font-size="11" lengthAdjust="spacing" textLength="235" x="323" y="443.1245">[ComponentVerify]() : Promise&lt;boolean&gt;</text><!--MD5=[1db1c755ee50265688287d293ec3a29f]
class GdmBaseResource<PropsType>--><rect codeLine="35" fill="#FEFECE" filter="url(#fmqiwcyiw9a8g)" height="137.6328" id="GdmBaseResource&lt;PropsType&gt;" style="stroke:#A80036;stroke-width:1.5;" width="261" x="649" y="331"/><ellipse cx="677.05" cy="347" fill="#A9DCDF" rx="11" ry="11" style="stroke:#A80036;stroke-width:1.0;"/><path d="M677.1594,342.3438 L676.0031,347.4219 L678.3313,347.4219 L677.1594,342.3438 Z M675.675,340.1094 L678.6594,340.1094 L682.0188,352.5 L679.5656,352.5 L678.8,349.4375 L675.5188,349.4375 L674.7688,352.5 L672.3313,352.5 L675.675,340.1094 Z " fill="#000000"/><text fill="#000000" font-family="sans-serif" font-size="12" font-style="italic" lengthAdjust="spacing" textLength="200" x="693.95" y="351.1543">GdmBaseResource&lt;PropsType&gt;</text><line style="stroke:#A80036;stroke-width:1.5;" x1="650" x2="909" y1="363" y2="363"/><ellipse cx="660" cy="374" rx="3" ry="3" style="stroke:#038048;stroke-width:1.0;fill:none;"/><text fill="#000000" font-family="sans-serif" font-size="11" lengthAdjust="spacing" textLength="77" x="669" y="377.2104">name : string</text><ellipse cx="660" cy="386.8047" rx="3" ry="3" style="stroke:#038048;stroke-width:1.0;fill:none;"/><text fill="#000000" font-family="sans-serif" font-size="11" lengthAdjust="spacing" textLength="131" x="669" y="390.0151">properties : PropsType</text><ellipse cx="660" cy="399.6094" rx="3" ry="3" style="stroke:#038048;stroke-width:1.0;fill:none;"/><text fill="#000000" font-family="sans-serif" font-size="11" lengthAdjust="spacing" textLength="69" x="669" y="402.8198">type : string</text><ellipse cx="660" cy="412.4141" rx="3" ry="3" style="stroke:#038048;stroke-width:1.0;fill:none;"/><text fill="#000000" font-family="sans-serif" font-size="11" lengthAdjust="spacing" textLength="163" x="669" y="415.6245">[ComponentHandle] : Handle</text><line style="stroke:#A80036;stroke-width:1.5;" x1="650" x2="909" y1="422.2188" y2="422.2188"/><ellipse cx="660" cy="433.2188" fill="#84BE84" rx="3" ry="3" style="stroke:#038048;stroke-width:1.0;"/><text fill="#000000" font-family="sans-serif" font-size="11" lengthAdjust="spacing" textLength="220" x="669" y="436.4292">[ComponentRender](output: any) : void</text><ellipse cx="660" cy="446.0234" fill="#84BE84" rx="3" ry="3" style="stroke:#038048;stroke-width:1.0;"/><text fill="#000000" font-family="sans-serif" font-size="11" lengthAdjust="spacing" textLength="221" x="669" y="449.2339">[ComponentUpdate]() : Promise&lt;void&gt;</text><ellipse cx="660" cy="458.8281" fill="#84BE84" rx="3" ry="3" style="stroke:#038048;stroke-width:1.0;"/><text fill="#000000" font-family="sans-serif" font-size="11" lengthAdjust="spacing" textLength="235" x="669" y="462.0386">[ComponentVerify]() : Promise&lt;boolean&gt;</text><!--MD5=[832df375ac6a56e895c994d274b09fac]
class RosBaseResource<PropsType>--><rect codeLine="45" fill="#FEFECE" filter="url(#fmqiwcyiw9a8g)" height="99.2188" id="RosBaseResource&lt;PropsType&gt;" style="stroke:#A80036;stroke-width:1.5;" width="261" x="945" y="350.5"/><ellipse cx="975.75" cy="366.5" fill="#A9DCDF" rx="11" ry="11" style="stroke:#A80036;stroke-width:1.0;"/><path d="M975.8594,361.8438 L974.7031,366.9219 L977.0313,366.9219 L975.8594,361.8438 Z M974.375,359.6094 L977.3594,359.6094 L980.7188,372 L978.2656,372 L977.5,368.9375 L974.2188,368.9375 L973.4688,372 L971.0313,372 L974.375,359.6094 Z " fill="#000000"/><text fill="#000000" font-family="sans-serif" font-size="12" font-style="italic" lengthAdjust="spacing" textLength="194" x="993.25" y="370.6543">RosBaseResource&lt;PropsType&gt;</text><line style="stroke:#A80036;stroke-width:1.5;" x1="946" x2="1205" y1="382.5" y2="382.5"/><ellipse cx="956" cy="393.5" rx="3" ry="3" style="stroke:#038048;stroke-width:1.0;fill:none;"/><text fill="#000000" font-family="sans-serif" font-size="11" lengthAdjust="spacing" textLength="163" x="965" y="396.7104">[ComponentHandle] : Handle</text><line style="stroke:#A80036;stroke-width:1.5;" x1="946" x2="1205" y1="403.3047" y2="403.3047"/><ellipse cx="956" cy="414.3047" fill="#84BE84" rx="3" ry="3" style="stroke:#038048;stroke-width:1.0;"/><text fill="#000000" font-family="sans-serif" font-size="11" lengthAdjust="spacing" textLength="220" x="965" y="417.5151">[ComponentRender](output: any) : void</text><ellipse cx="956" cy="427.1094" fill="#84BE84" rx="3" ry="3" style="stroke:#038048;stroke-width:1.0;"/><text fill="#000000" font-family="sans-serif" font-size="11" lengthAdjust="spacing" textLength="221" x="965" y="430.3198">[ComponentUpdate]() : Promise&lt;void&gt;</text><ellipse cx="956" cy="439.9141" fill="#84BE84" rx="3" ry="3" style="stroke:#038048;stroke-width:1.0;"/><text fill="#000000" font-family="sans-serif" font-size="11" lengthAdjust="spacing" textLength="235" x="965" y="443.1245">[ComponentVerify]() : Promise&lt;boolean&gt;</text><!--MD5=[43e3e291d07608bc79def5292a0cb654]
reverse link Component to Resolvable--><path codeLine="16" d="M618.5,126.64 C618.5,139.91 618.5,153.54 618.5,165.98 " fill="none" id="Component-backto-Resolvable" style="stroke:#A80036;stroke-width:1.0;"/><polygon fill="none" points="611.5,126.32,618.5,106.32,625.5,126.32,611.5,126.32" style="stroke:#A80036;stroke-width:1.0;"/><!--MD5=[0aadde87c4f387e9498494c4c1845e4a]
reverse link Resolvable to ArmBaseResource<void>--><path codeLine="27" d="M433.68,271.32 C384.96,287.23 332.8,305.59 285.5,325 C279.79,327.34 273.99,329.82 268.16,332.38 " fill="none" id="Resolvable-backto-ArmBaseResource&lt;void&gt;" style="stroke:#A80036;stroke-width:1.0;"/><polygon fill="none" points="431.69,264.6,452.87,265.11,436,277.92,431.69,264.6" style="stroke:#A80036;stroke-width:1.0;"/><!--MD5=[018d1d17511a97ffc1fdc77c799dc0b9]
reverse link Resolvable to CfnBaseResource<PropsType>--><path codeLine="34" d="M562.17,280.75 C542.14,303.6 519.93,328.94 501.22,350.28 " fill="none" id="Resolvable-backto-CfnBaseResource&lt;PropsType&gt;" style="stroke:#A80036;stroke-width:1.0;"/><polygon fill="none" points="557.17,275.83,575.62,265.41,567.7,285.06,557.17,275.83" style="stroke:#A80036;stroke-width:1.0;"/><!--MD5=[8ce5ce1663a8de9989a48a02cf003006]
reverse link Resolvable to GdmBaseResource<PropsType>--><path codeLine="44" d="M674.98,280.52 C689.32,296.77 704.77,314.29 719.29,330.75 " fill="none" id="Resolvable-backto-GdmBaseResource&lt;PropsType&gt;" style="stroke:#A80036;stroke-width:1.0;"/><polygon fill="none" points="669.63,285.04,661.65,265.41,680.13,275.77,669.63,285.04" style="stroke:#A80036;stroke-width:1.0;"/><!--MD5=[2320e15a1e5d33ab20296180e50f5d66]
reverse link Resolvable to RosBaseResource<PropsType>--><path codeLine="51" d="M787.9,271.67 C833.66,287.73 882.85,306.09 927.5,325 C945.62,332.68 964.64,341.54 982.78,350.41 " fill="none" id="Resolvable-backto-RosBaseResource&lt;PropsType&gt;" style="stroke:#A80036;stroke-width:1.0;"/><polygon fill="none" points="785.46,278.23,768.87,265.04,790.06,265.01,785.46,278.23" style="stroke:#A80036;stroke-width:1.0;"/><!--MD5=[90ad0760409481ccebd0fd3e87cf0146]
@startuml
skinparam BackgroundColor transparent
hide empty methods
hide empty fields
abstract class "Resolvable" {
    +[ComponentHandle] : Handle
    {abstract} +[ComponentRender](out: any) : void | Promise<void>
    +[ComponentUpdate]() : Promise<void>
    +[ComponentVerify]() : Promise<boolean>
}
abstract class "Component" {
    +[ComponentHandle] : Handle
    {abstract} +[ComponentRender](out: any) : void | Promise<void>
    +[ComponentUpdate]() : Promise<void>
    +[ComponentVerify]() : Promise<boolean>
}
"Component" <|- - "Resolvable"
abstract class "ArmBaseResource<void>" {
    +apiVersion : string
    +name : string
    +properties : void
    +type : string
    +[ComponentHandle] : Handle
    +[ComponentRender](output: any) : void
    +[ComponentUpdate]() : Promise<void>
    +[ComponentVerify]() : Promise<boolean>
}
"Resolvable" <|- - "ArmBaseResource<void>"
abstract class "CfnBaseResource<PropsType>" {
    +[ComponentHandle] : Handle
    +[ComponentRender](output: any) : Promise<void>
    +[ComponentUpdate]() : Promise<void>
    +[ComponentVerify]() : Promise<boolean>
}
"Resolvable" <|- - "CfnBaseResource<PropsType>"
abstract class "GdmBaseResource<PropsType>" {
    +name : string
    +properties : PropsType
    +type : string
    +[ComponentHandle] : Handle
    +[ComponentRender](output: any) : void
    +[ComponentUpdate]() : Promise<void>
    +[ComponentVerify]() : Promise<boolean>
}
"Resolvable" <|- - "GdmBaseResource<PropsType>"
abstract class "RosBaseResource<PropsType>" {
    +[ComponentHandle] : Handle
    +[ComponentRender](output: any) : void
    +[ComponentUpdate]() : Promise<void>
    +[ComponentVerify]() : Promise<boolean>
}
"Resolvable" <|- - "RosBaseResource<PropsType>"
@enduml

PlantUML version 1.2021.14(Fri Nov 12 16:46:50 UTC 2021)
(GPL source distribution)
Java Runtime: OpenJDK Runtime Environment
JVM: OpenJDK 64-Bit Server VM
Default Encoding: UTF-8
Language: en
Country: null
--></g></svg>