<?xml version="1.0" encoding="UTF-8" standalone="no"?><svg xmlns="http://www.w3.org/2000/svg" xmlns:xlink="http://www.w3.org/1999/xlink" contentScriptType="application/ecmascript" contentStyleType="text/css" height="489px" preserveAspectRatio="none" style="width:1521px;height:489px;background:#00000000;" version="1.1" viewBox="0 0 1521 489" width="1521px" zoomAndPan="magnify"><defs><filter height="300%" id="f1rvotpwdser0g" width="300%" x="-1" y="-1"><feGaussianBlur result="blurOut" stdDeviation="2.0"/><feColorMatrix in="blurOut" result="blurOut2" type="matrix" values="0 0 0 0 0 0 0 0 0 0 0 0 0 0 0 0 0 0 .4 0"/><feOffset dx="4.0" dy="4.0" in="blurOut2" result="blurOut3"/><feBlend in="SourceGraphic" in2="blurOut3" mode="normal"/></filter></defs><g><!--MD5=[41d4fac774e0e723492089dc4b99a6f3]
class Resolvable--><rect codeLine="4" fill="#FEFECE" filter="url(#f1rvotpwdser0g)" height="99.2188" id="Resolvable" style="stroke:#A80036;stroke-width:1.5;" width="331" x="517" y="166"/><ellipse cx="645.25" cy="182" fill="#A9DCDF" rx="11" ry="11" style="stroke:#A80036;stroke-width:1.0;"/><path d="M645.3594,177.3438 L644.2031,182.4219 L646.5313,182.4219 L645.3594,177.3438 Z M643.875,175.1094 L646.8594,175.1094 L650.2188,187.5 L647.7656,187.5 L647,184.4375 L643.7188,184.4375 L642.9688,187.5 L640.5313,187.5 L643.875,175.1094 Z " fill="#000000"/><text fill="#000000" font-family="sans-serif" font-size="12" font-style="italic" lengthAdjust="spacing" textLength="66" x="665.75" y="186.1543">Resolvable</text><line style="stroke:#A80036;stroke-width:1.5;" x1="518" x2="847" y1="198" y2="198"/><ellipse cx="528" cy="209" rx="3" ry="3" style="stroke:#038048;stroke-width:1.0;fill:none;"/><text fill="#000000" font-family="sans-serif" font-size="11" lengthAdjust="spacing" textLength="163" x="537" y="212.2104">[ComponentHandle] : Handle</text><line style="stroke:#A80036;stroke-width:1.5;" x1="518" x2="847" y1="218.8047" y2="218.8047"/><ellipse cx="528" cy="229.8047" fill="#84BE84" rx="3" ry="3" style="stroke:#038048;stroke-width:1.0;"/><text fill="#000000" font-family="sans-serif" font-size="11" font-style="italic" lengthAdjust="spacing" textLength="305" x="537" y="233.0151">[ComponentRender](out: any) : void | Promise&lt;void&gt;</text><ellipse cx="528" cy="242.6094" fill="#84BE84" rx="3" ry="3" style="stroke:#038048;stroke-width:1.0;"/><text fill="#000000" font-family="sans-serif" font-size="11" lengthAdjust="spacing" textLength="221" x="537" y="245.8198">[ComponentUpdate]() : Promise&lt;void&gt;</text><ellipse cx="528" cy="255.4141" fill="#84BE84" rx="3" ry="3" style="stroke:#038048;stroke-width:1.0;"/><text fill="#000000" font-family="sans-serif" font-size="11" lengthAdjust="spacing" textLength="248" x="537" y="258.6245">[ComponentVerify]() : void | Promise&lt;void&gt;</text><!--MD5=[4e13963c9dc916a21a8436ef39422b32]
class Component--><rect codeLine="10" fill="#FEFECE" filter="url(#f1rvotpwdser0g)" height="99.2188" id="Component" style="stroke:#A80036;stroke-width:1.5;" width="331" x="517" y="7"/><ellipse cx="642.25" cy="23" fill="#A9DCDF" rx="11" ry="11" style="stroke:#A80036;stroke-width:1.0;"/><path d="M642.3594,18.3438 L641.2031,23.4219 L643.5313,23.4219 L642.3594,18.3438 Z M640.875,16.1094 L643.8594,16.1094 L647.2188,28.5 L644.7656,28.5 L644,25.4375 L640.7188,25.4375 L639.9688,28.5 L637.5313,28.5 L640.875,16.1094 Z " fill="#000000"/><text fill="#000000" font-family="sans-serif" font-size="12" font-style="italic" lengthAdjust="spacing" textLength="72" x="662.75" y="27.1543">Component</text><line style="stroke:#A80036;stroke-width:1.5;" x1="518" x2="847" y1="39" y2="39"/><ellipse cx="528" cy="50" rx="3" ry="3" style="stroke:#038048;stroke-width:1.0;fill:none;"/><text fill="#000000" font-family="sans-serif" font-size="11" lengthAdjust="spacing" textLength="163" x="537" y="53.2104">[ComponentHandle] : Handle</text><line style="stroke:#A80036;stroke-width:1.5;" x1="518" x2="847" y1="59.8047" y2="59.8047"/><ellipse cx="528" cy="70.8047" fill="#84BE84" rx="3" ry="3" style="stroke:#038048;stroke-width:1.0;"/><text fill="#000000" font-family="sans-serif" font-size="11" font-style="italic" lengthAdjust="spacing" textLength="305" x="537" y="74.0151">[ComponentRender](out: any) : void | Promise&lt;void&gt;</text><ellipse cx="528" cy="83.6094" fill="#84BE84" rx="3" ry="3" style="stroke:#038048;stroke-width:1.0;"/><text fill="#000000" font-family="sans-serif" font-size="11" lengthAdjust="spacing" textLength="221" x="537" y="86.8198">[ComponentUpdate]() : Promise&lt;void&gt;</text><ellipse cx="528" cy="96.4141" fill="#84BE84" rx="3" ry="3" style="stroke:#038048;stroke-width:1.0;"/><text fill="#000000" font-family="sans-serif" font-size="11" lengthAdjust="spacing" textLength="248" x="537" y="99.6245">[ComponentVerify]() : void | Promise&lt;void&gt;</text><!--MD5=[d895f236f4ab01a61772d583878a0d98]
class AzureResourceManagerComponent<void>--><rect codeLine="17" fill="#FEFECE" filter="url(#f1rvotpwdser0g)" height="150.4375" id="AzureResourceManagerComponent&lt;void&gt;" style="stroke:#A80036;stroke-width:1.5;" width="297" x="7" y="325"/><ellipse cx="22" cy="341" fill="#A9DCDF" rx="11" ry="11" style="stroke:#A80036;stroke-width:1.0;"/><path d="M22.1094,336.3438 L20.9531,341.4219 L23.2813,341.4219 L22.1094,336.3438 Z M20.625,334.1094 L23.6094,334.1094 L26.9688,346.5 L24.5156,346.5 L23.75,343.4375 L20.4688,343.4375 L19.7188,346.5 L17.2813,346.5 L20.625,334.1094 Z " fill="#000000"/><text fill="#000000" font-family="sans-serif" font-size="12" font-style="italic" lengthAdjust="spacing" textLength="265" x="36" y="345.1543">AzureResourceManagerComponent&lt;void&gt;</text><line style="stroke:#A80036;stroke-width:1.5;" x1="8" x2="303" y1="357" y2="357"/><ellipse cx="18" cy="368" rx="3" ry="3" style="stroke:#038048;stroke-width:1.0;fill:none;"/><text fill="#000000" font-family="sans-serif" font-size="11" lengthAdjust="spacing" textLength="105" x="27" y="371.2104">apiVersion : string</text><ellipse cx="18" cy="380.8047" rx="3" ry="3" style="stroke:#038048;stroke-width:1.0;fill:none;"/><text fill="#000000" font-family="sans-serif" font-size="11" lengthAdjust="spacing" textLength="77" x="27" y="384.0151">name : string</text><ellipse cx="18" cy="393.6094" rx="3" ry="3" style="stroke:#038048;stroke-width:1.0;fill:none;"/><text fill="#000000" font-family="sans-serif" font-size="11" lengthAdjust="spacing" textLength="94" x="27" y="396.8198">properties : void</text><ellipse cx="18" cy="406.4141" rx="3" ry="3" style="stroke:#038048;stroke-width:1.0;fill:none;"/><text fill="#000000" font-family="sans-serif" font-size="11" lengthAdjust="spacing" textLength="69" x="27" y="409.6245">type : string</text><ellipse cx="18" cy="419.2188" rx="3" ry="3" style="stroke:#038048;stroke-width:1.0;fill:none;"/><text fill="#000000" font-family="sans-serif" font-size="11" lengthAdjust="spacing" textLength="163" x="27" y="422.4292">[ComponentHandle] : Handle</text><line style="stroke:#A80036;stroke-width:1.5;" x1="8" x2="303" y1="429.0234" y2="429.0234"/><ellipse cx="18" cy="440.0234" fill="#84BE84" rx="3" ry="3" style="stroke:#038048;stroke-width:1.0;"/><text fill="#000000" font-family="sans-serif" font-size="11" lengthAdjust="spacing" textLength="220" x="27" y="443.2339">[ComponentRender](output: any) : void</text><ellipse cx="18" cy="452.8281" fill="#84BE84" rx="3" ry="3" style="stroke:#038048;stroke-width:1.0;"/><text fill="#000000" font-family="sans-serif" font-size="11" lengthAdjust="spacing" textLength="221" x="27" y="456.0386">[ComponentUpdate]() : Promise&lt;void&gt;</text><ellipse cx="18" cy="465.6328" fill="#84BE84" rx="3" ry="3" style="stroke:#038048;stroke-width:1.0;"/><text fill="#000000" font-family="sans-serif" font-size="11" lengthAdjust="spacing" textLength="248" x="27" y="468.8433">[ComponentVerify]() : void | Promise&lt;void&gt;</text><!--MD5=[f835b7ffeb4a4a7375770078f3ed013b]
class AWSCloudFormationComponent<PropsType>--><rect codeLine="28" fill="#FEFECE" filter="url(#f1rvotpwdser0g)" height="99.2188" id="AWSCloudFormationComponent&lt;PropsType&gt;" style="stroke:#A80036;stroke-width:1.5;" width="314" x="339.5" y="350.5"/><ellipse cx="354.5" cy="366.5" fill="#A9DCDF" rx="11" ry="11" style="stroke:#A80036;stroke-width:1.0;"/><path d="M354.6094,361.8438 L353.4531,366.9219 L355.7813,366.9219 L354.6094,361.8438 Z M353.125,359.6094 L356.1094,359.6094 L359.4688,372 L357.0156,372 L356.25,368.9375 L352.9688,368.9375 L352.2188,372 L349.7813,372 L353.125,359.6094 Z " fill="#000000"/><text fill="#000000" font-family="sans-serif" font-size="12" font-style="italic" lengthAdjust="spacing" textLength="282" x="368.5" y="370.6543">AWSCloudFormationComponent&lt;PropsType&gt;</text><line style="stroke:#A80036;stroke-width:1.5;" x1="340.5" x2="652.5" y1="382.5" y2="382.5"/><ellipse cx="350.5" cy="393.5" rx="3" ry="3" style="stroke:#038048;stroke-width:1.0;fill:none;"/><text fill="#000000" font-family="sans-serif" font-size="11" lengthAdjust="spacing" textLength="163" x="359.5" y="396.7104">[ComponentHandle] : Handle</text><line style="stroke:#A80036;stroke-width:1.5;" x1="340.5" x2="652.5" y1="403.3047" y2="403.3047"/><ellipse cx="350.5" cy="414.3047" fill="#84BE84" rx="3" ry="3" style="stroke:#038048;stroke-width:1.0;"/><text fill="#000000" font-family="sans-serif" font-size="11" lengthAdjust="spacing" textLength="285" x="359.5" y="417.5151">[ComponentRender](output: any) : Promise&lt;void&gt;</text><ellipse cx="350.5" cy="427.1094" fill="#84BE84" rx="3" ry="3" style="stroke:#038048;stroke-width:1.0;"/><text fill="#000000" font-family="sans-serif" font-size="11" lengthAdjust="spacing" textLength="221" x="359.5" y="430.3198">[ComponentUpdate]() : Promise&lt;void&gt;</text><ellipse cx="350.5" cy="439.9141" fill="#84BE84" rx="3" ry="3" style="stroke:#038048;stroke-width:1.0;"/><text fill="#000000" font-family="sans-serif" font-size="11" lengthAdjust="spacing" textLength="248" x="359.5" y="443.1245">[ComponentVerify]() : void | Promise&lt;void&gt;</text><!--MD5=[5aa95876f21f08a9468fa81cc52afafb]
class GoogleDeploymentManagerComponent<PropsType>--><rect codeLine="35" fill="#FEFECE" filter="url(#f1rvotpwdser0g)" height="137.6328" id="GoogleDeploymentManagerComponent&lt;PropsType&gt;" style="stroke:#A80036;stroke-width:1.5;" width="362" x="688.5" y="331"/><ellipse cx="703.5" cy="347" fill="#A9DCDF" rx="11" ry="11" style="stroke:#A80036;stroke-width:1.0;"/><path d="M703.6094,342.3438 L702.4531,347.4219 L704.7813,347.4219 L703.6094,342.3438 Z M702.125,340.1094 L705.1094,340.1094 L708.4688,352.5 L706.0156,352.5 L705.25,349.4375 L701.9688,349.4375 L701.2188,352.5 L698.7813,352.5 L702.125,340.1094 Z " fill="#000000"/><text fill="#000000" font-family="sans-serif" font-size="12" font-style="italic" lengthAdjust="spacing" textLength="330" x="717.5" y="351.1543">GoogleDeploymentManagerComponent&lt;PropsType&gt;</text><line style="stroke:#A80036;stroke-width:1.5;" x1="689.5" x2="1049.5" y1="363" y2="363"/><ellipse cx="699.5" cy="374" rx="3" ry="3" style="stroke:#038048;stroke-width:1.0;fill:none;"/><text fill="#000000" font-family="sans-serif" font-size="11" lengthAdjust="spacing" textLength="77" x="708.5" y="377.2104">name : string</text><ellipse cx="699.5" cy="386.8047" rx="3" ry="3" style="stroke:#038048;stroke-width:1.0;fill:none;"/><text fill="#000000" font-family="sans-serif" font-size="11" lengthAdjust="spacing" textLength="131" x="708.5" y="390.0151">properties : PropsType</text><ellipse cx="699.5" cy="399.6094" rx="3" ry="3" style="stroke:#038048;stroke-width:1.0;fill:none;"/><text fill="#000000" font-family="sans-serif" font-size="11" lengthAdjust="spacing" textLength="69" x="708.5" y="402.8198">type : string</text><ellipse cx="699.5" cy="412.4141" rx="3" ry="3" style="stroke:#038048;stroke-width:1.0;fill:none;"/><text fill="#000000" font-family="sans-serif" font-size="11" lengthAdjust="spacing" textLength="163" x="708.5" y="415.6245">[ComponentHandle] : Handle</text><line style="stroke:#A80036;stroke-width:1.5;" x1="689.5" x2="1049.5" y1="422.2188" y2="422.2188"/><ellipse cx="699.5" cy="433.2188" fill="#84BE84" rx="3" ry="3" style="stroke:#038048;stroke-width:1.0;"/><text fill="#000000" font-family="sans-serif" font-size="11" lengthAdjust="spacing" textLength="220" x="708.5" y="436.4292">[ComponentRender](output: any) : void</text><ellipse cx="699.5" cy="446.0234" fill="#84BE84" rx="3" ry="3" style="stroke:#038048;stroke-width:1.0;"/><text fill="#000000" font-family="sans-serif" font-size="11" lengthAdjust="spacing" textLength="221" x="708.5" y="449.2339">[ComponentUpdate]() : Promise&lt;void&gt;</text><ellipse cx="699.5" cy="458.8281" fill="#84BE84" rx="3" ry="3" style="stroke:#038048;stroke-width:1.0;"/><text fill="#000000" font-family="sans-serif" font-size="11" lengthAdjust="spacing" textLength="248" x="708.5" y="462.0386">[ComponentVerify]() : void | Promise&lt;void&gt;</text><!--MD5=[3298442fb4c503edc1a8b7df95e67ef8]
class AlibabaResourceOrchestrationServiceComponent<PropsType>--><rect codeLine="45" fill="#FEFECE" filter="url(#f1rvotpwdser0g)" height="99.2188" id="AlibabaResourceOrchestrationServiceComponent&lt;PropsType&gt;" style="stroke:#A80036;stroke-width:1.5;" width="421" x="1086" y="350.5"/><ellipse cx="1101" cy="366.5" fill="#A9DCDF" rx="11" ry="11" style="stroke:#A80036;stroke-width:1.0;"/><path d="M1101.1094,361.8438 L1099.9531,366.9219 L1102.2813,366.9219 L1101.1094,361.8438 Z M1099.625,359.6094 L1102.6094,359.6094 L1105.9688,372 L1103.5156,372 L1102.75,368.9375 L1099.4688,368.9375 L1098.7188,372 L1096.2813,372 L1099.625,359.6094 Z " fill="#000000"/><text fill="#000000" font-family="sans-serif" font-size="12" font-style="italic" lengthAdjust="spacing" textLength="389" x="1115" y="370.6543">AlibabaResourceOrchestrationServiceComponent&lt;PropsType&gt;</text><line style="stroke:#A80036;stroke-width:1.5;" x1="1087" x2="1506" y1="382.5" y2="382.5"/><ellipse cx="1097" cy="393.5" rx="3" ry="3" style="stroke:#038048;stroke-width:1.0;fill:none;"/><text fill="#000000" font-family="sans-serif" font-size="11" lengthAdjust="spacing" textLength="163" x="1106" y="396.7104">[ComponentHandle] : Handle</text><line style="stroke:#A80036;stroke-width:1.5;" x1="1087" x2="1506" y1="403.3047" y2="403.3047"/><ellipse cx="1097" cy="414.3047" fill="#84BE84" rx="3" ry="3" style="stroke:#038048;stroke-width:1.0;"/><text fill="#000000" font-family="sans-serif" font-size="11" lengthAdjust="spacing" textLength="220" x="1106" y="417.5151">[ComponentRender](output: any) : void</text><ellipse cx="1097" cy="427.1094" fill="#84BE84" rx="3" ry="3" style="stroke:#038048;stroke-width:1.0;"/><text fill="#000000" font-family="sans-serif" font-size="11" lengthAdjust="spacing" textLength="221" x="1106" y="430.3198">[ComponentUpdate]() : Promise&lt;void&gt;</text><ellipse cx="1097" cy="439.9141" fill="#84BE84" rx="3" ry="3" style="stroke:#038048;stroke-width:1.0;"/><text fill="#000000" font-family="sans-serif" font-size="11" lengthAdjust="spacing" textLength="248" x="1106" y="443.1245">[ComponentVerify]() : void | Promise&lt;void&gt;</text><!--MD5=[43e3e291d07608bc79def5292a0cb654]
reverse link Component to Resolvable--><path codeLine="16" d="M682.5,126.64 C682.5,139.91 682.5,153.54 682.5,165.98 " fill="none" id="Component-backto-Resolvable" style="stroke:#A80036;stroke-width:1.0;"/><polygon fill="none" points="675.5,126.32,682.5,106.32,689.5,126.32,675.5,126.32" style="stroke:#A80036;stroke-width:1.0;"/><!--MD5=[f9df9d661138c8d9d73cb56a0b57f1e6]
reverse link Resolvable to AzureResourceManagerComponent<void>--><path codeLine="27" d="M497.14,267.28 C440.29,284.17 377.87,304.06 321.5,325 C315.88,327.09 310.18,329.27 304.44,331.53 " fill="none" id="Resolvable-backto-AzureResourceManagerComponent&lt;void&gt;" style="stroke:#A80036;stroke-width:1.0;"/><polygon fill="none" points="495.44,260.49,516.6,261.55,499.39,273.92,495.44,260.49" style="stroke:#A80036;stroke-width:1.0;"/><!--MD5=[dcc0d93e8940dd6dd90ef1375141149f]
reverse link Resolvable to AWSCloudFormationComponent<PropsType>--><path codeLine="34" d="M618.36,279.44 C594.72,302.63 568.33,328.53 546.16,350.28 " fill="none" id="Resolvable-backto-AWSCloudFormationComponent&lt;PropsType&gt;" style="stroke:#A80036;stroke-width:1.0;"/><polygon fill="none" points="613.48,274.42,632.66,265.41,623.28,284.41,613.48,274.42" style="stroke:#A80036;stroke-width:1.0;"/><!--MD5=[19b988b97c59259d54281741915598f3]
reverse link Resolvable to GoogleDeploymentManagerComponent<PropsType>--><path codeLine="44" d="M747.07,279.52 C764.01,296.05 782.36,313.96 799.56,330.75 " fill="none" id="Resolvable-backto-GoogleDeploymentManagerComponent&lt;PropsType&gt;" style="stroke:#A80036;stroke-width:1.0;"/><polygon fill="none" points="742.04,284.39,732.61,265.41,751.82,274.37,742.04,284.39" style="stroke:#A80036;stroke-width:1.0;"/><!--MD5=[c0439b15b8e40a55c0631c8e54e46164]
reverse link Resolvable to AlibabaResourceOrchestrationServiceComponent<PropsType>--><path codeLine="51" d="M867.74,266.96 C931.52,284.76 1003.29,305.26 1068.5,325 C1094.89,332.99 1122.89,341.8 1149.9,350.47 " fill="none" id="Resolvable-backto-AlibabaResourceOrchestrationServiceComponent&lt;PropsType&gt;" style="stroke:#A80036;stroke-width:1.0;"/><polygon fill="none" points="865.61,273.63,848.22,261.52,869.36,260.14,865.61,273.63" style="stroke:#A80036;stroke-width:1.0;"/><!--MD5=[84826e442d76dcf34d4c847e31e526ec]
@startuml
skinparam BackgroundColor transparent
hide empty methods
hide empty fields
abstract class "Resolvable" {
    +[ComponentHandle] : Handle
    {abstract} +[ComponentRender](out: any) : void | Promise<void>
    +[ComponentUpdate]() : Promise<void>
    +[ComponentVerify]() : void | Promise<void>
}
abstract class "Component" {
    +[ComponentHandle] : Handle
    {abstract} +[ComponentRender](out: any) : void | Promise<void>
    +[ComponentUpdate]() : Promise<void>
    +[ComponentVerify]() : void | Promise<void>
}
"Component" <|- - "Resolvable"
abstract class "AzureResourceManagerComponent<void>" {
    +apiVersion : string
    +name : string
    +properties : void
    +type : string
    +[ComponentHandle] : Handle
    +[ComponentRender](output: any) : void
    +[ComponentUpdate]() : Promise<void>
    +[ComponentVerify]() : void | Promise<void>
}
"Resolvable" <|- - "AzureResourceManagerComponent<void>"
abstract class "AWSCloudFormationComponent<PropsType>" {
    +[ComponentHandle] : Handle
    +[ComponentRender](output: any) : Promise<void>
    +[ComponentUpdate]() : Promise<void>
    +[ComponentVerify]() : void | Promise<void>
}
"Resolvable" <|- - "AWSCloudFormationComponent<PropsType>"
abstract class "GoogleDeploymentManagerComponent<PropsType>" {
    +name : string
    +properties : PropsType
    +type : string
    +[ComponentHandle] : Handle
    +[ComponentRender](output: any) : void
    +[ComponentUpdate]() : Promise<void>
    +[ComponentVerify]() : void | Promise<void>
}
"Resolvable" <|- - "GoogleDeploymentManagerComponent<PropsType>"
abstract class "AlibabaResourceOrchestrationServiceComponent<PropsType>" {
    +[ComponentHandle] : Handle
    +[ComponentRender](output: any) : void
    +[ComponentUpdate]() : Promise<void>
    +[ComponentVerify]() : void | Promise<void>
}
"Resolvable" <|- - "AlibabaResourceOrchestrationServiceComponent<PropsType>"
@enduml

PlantUML version 1.2021.14(Fri Nov 12 16:46:50 UTC 2021)
(GPL source distribution)
Java Runtime: OpenJDK Runtime Environment
JVM: OpenJDK 64-Bit Server VM
Default Encoding: UTF-8
Language: en
Country: null
--></g></svg>