<?xml version="1.0" encoding="UTF-8" standalone="no"?><svg xmlns="http://www.w3.org/2000/svg" xmlns:xlink="http://www.w3.org/1999/xlink" contentScriptType="application/ecmascript" contentStyleType="text/css" height="257px" preserveAspectRatio="none" style="width:300px;height:257px;background:#00000000;" version="1.1" viewBox="0 0 300 257" width="300px" zoomAndPan="magnify"><defs><filter height="300%" id="fl3o94kr9ilkb" width="300%" x="-1" y="-1"><feGaussianBlur result="blurOut" stdDeviation="2.0"/><feColorMatrix in="blurOut" result="blurOut2" type="matrix" values="0 0 0 0 0 0 0 0 0 0 0 0 0 0 0 0 0 0 .4 0"/><feOffset dx="4.0" dy="4.0" in="blurOut2" result="blurOut3"/><feBlend in="SourceGraphic" in2="blurOut3" mode="normal"/></filter></defs><g><!--MD5=[2329f7cacab1176dd90b22c9456fec03]
class RosComponent--><rect codeLine="4" fill="#FEFECE" filter="url(#fl3o94kr9ilkb)" height="32" id="RosComponent" style="stroke:#A80036;stroke-width:1.5;" width="126" x="83.5" y="99"/><ellipse cx="98.5" cy="115" fill="#A9DCDF" rx="11" ry="11" style="stroke:#A80036;stroke-width:1.0;"/><path d="M98.6094,110.3438 L97.4531,115.4219 L99.7813,115.4219 L98.6094,110.3438 Z M97.125,108.1094 L100.1094,108.1094 L103.4688,120.5 L101.0156,120.5 L100.25,117.4375 L96.9688,117.4375 L96.2188,120.5 L93.7813,120.5 L97.125,108.1094 Z " fill="#000000"/><text fill="#000000" font-family="sans-serif" font-size="12" font-style="italic" lengthAdjust="spacing" textLength="94" x="112.5" y="119.1543">RosComponent</text><!--MD5=[bc00f38760f5c998ab68abb0e19452fc]
class CloudComponent--><rect codeLine="6" fill="#FEFECE" filter="url(#fl3o94kr9ilkb)" height="32" id="CloudComponent" style="stroke:#A80036;stroke-width:1.5;" width="139" x="77" y="7"/><ellipse cx="92" cy="23" fill="#A9DCDF" rx="11" ry="11" style="stroke:#A80036;stroke-width:1.0;"/><path d="M92.1094,18.3438 L90.9531,23.4219 L93.2813,23.4219 L92.1094,18.3438 Z M90.625,16.1094 L93.6094,16.1094 L96.9688,28.5 L94.5156,28.5 L93.75,25.4375 L90.4688,25.4375 L89.7188,28.5 L87.2813,28.5 L90.625,16.1094 Z " fill="#000000"/><text fill="#000000" font-family="sans-serif" font-size="12" font-style="italic" lengthAdjust="spacing" textLength="107" x="106" y="27.1543">CloudComponent</text><!--MD5=[506167376760ca5b8fa00a3b052b5335]
class RosResource<void>--><rect codeLine="9" fill="#FEFECE" filter="url(#fl3o94kr9ilkb)" height="52.8047" id="RosResource&lt;void&gt;" style="stroke:#A80036;stroke-width:1.5;" width="279" x="7" y="191"/><ellipse cx="79.75" cy="207" fill="#A9DCDF" rx="11" ry="11" style="stroke:#A80036;stroke-width:1.0;"/><path d="M79.8594,202.3438 L78.7031,207.4219 L81.0313,207.4219 L79.8594,202.3438 Z M78.375,200.1094 L81.3594,200.1094 L84.7188,212.5 L82.2656,212.5 L81.5,209.4375 L78.2188,209.4375 L77.4688,212.5 L75.0313,212.5 L78.375,200.1094 Z " fill="#000000"/><text fill="#000000" font-family="sans-serif" font-size="12" font-style="italic" lengthAdjust="spacing" textLength="125" x="100.25" y="211.1543">RosResource&lt;void&gt;</text><line style="stroke:#A80036;stroke-width:1.5;" x1="8" x2="285" y1="223" y2="223"/><ellipse cx="18" cy="234" fill="#84BE84" rx="3" ry="3" style="stroke:#038048;stroke-width:1.0;"/><text fill="#000000" font-family="sans-serif" font-size="11" lengthAdjust="spacing" textLength="253" x="27" y="237.2104">[ComponentRender](output: Template) : void</text><!--MD5=[72aae16b76cd3e59a5470f8f9f356aaa]
reverse link CloudComponent to RosComponent--><path codeLine="8" d="M146.5,59.61 C146.5,73.31 146.5,88.22 146.5,98.96 " fill="none" id="CloudComponent-backto-RosComponent" style="stroke:#A80036;stroke-width:1.0;"/><polygon fill="none" points="139.5,59.27,146.5,39.27,153.5,59.27,139.5,59.27" style="stroke:#A80036;stroke-width:1.0;"/><!--MD5=[319095f0dda7ce1578f102940eb65e1f]
reverse link RosComponent to RosResource<void>--><path codeLine="12" d="M146.5,151.64 C146.5,164.6 146.5,178.99 146.5,190.91 " fill="none" id="RosComponent-backto-RosResource&lt;void&gt;" style="stroke:#A80036;stroke-width:1.0;"/><polygon fill="none" points="139.5,151.26,146.5,131.26,153.5,151.26,139.5,151.26" style="stroke:#A80036;stroke-width:1.0;"/><!--MD5=[42bbf4094c34cb951a1df95d56f92bdb]
@startuml
skinparam BackgroundColor transparent
hide empty methods
hide empty fields
abstract class "RosComponent" {
}
abstract class "CloudComponent" {
}
"CloudComponent" <|- - "RosComponent"
abstract class "RosResource<void>" {
    +[ComponentRender](output: Template) : void
}
"RosComponent" <|- - "RosResource<void>"
@enduml

PlantUML version 1.2021.14(Fri Nov 12 16:46:50 UTC 2021)
(GPL source distribution)
Java Runtime: OpenJDK Runtime Environment
JVM: OpenJDK 64-Bit Server VM
Default Encoding: UTF-8
Language: en
Country: null
--></g></svg>