<?xml version="1.0" encoding="UTF-8" standalone="no"?><svg xmlns="http://www.w3.org/2000/svg" xmlns:xlink="http://www.w3.org/1999/xlink" contentScriptType="application/ecmascript" contentStyleType="text/css" height="279px" preserveAspectRatio="none" style="width:352px;height:279px;background:#00000000;" version="1.1" viewBox="0 0 352 279" width="352px" zoomAndPan="magnify"><defs><filter height="300%" id="f117ikd7s4ublu" width="300%" x="-1" y="-1"><feGaussianBlur result="blurOut" stdDeviation="2.0"/><feColorMatrix in="blurOut" result="blurOut2" type="matrix" values="0 0 0 0 0 0 0 0 0 0 0 0 0 0 0 0 0 0 .4 0"/><feOffset dx="4.0" dy="4.0" in="blurOut2" result="blurOut3"/><feBlend in="SourceGraphic" in2="blurOut3" mode="normal"/></filter></defs><g><!--MD5=[1d492029b27fe1c4b6c03d768b5dd52f]
class RosResource<PropsType>--><rect codeLine="4" fill="#FEFECE" filter="url(#f117ikd7s4ublu)" height="99.2188" id="RosResource&lt;PropsType&gt;" style="stroke:#A80036;stroke-width:1.5;" width="279" x="33" y="166"/><ellipse cx="86.25" cy="182" fill="#A9DCDF" rx="11" ry="11" style="stroke:#A80036;stroke-width:1.0;"/><path d="M86.3594,177.3438 L85.2031,182.4219 L87.5313,182.4219 L86.3594,177.3438 Z M84.875,175.1094 L87.8594,175.1094 L91.2188,187.5 L88.7656,187.5 L88,184.4375 L84.7188,184.4375 L83.9688,187.5 L81.5313,187.5 L84.875,175.1094 Z " fill="#000000"/><text fill="#000000" font-family="sans-serif" font-size="12" font-style="italic" lengthAdjust="spacing" textLength="164" x="106.75" y="186.1543">RosResource&lt;PropsType&gt;</text><line style="stroke:#A80036;stroke-width:1.5;" x1="34" x2="311" y1="198" y2="198"/><ellipse cx="44" cy="209" rx="3" ry="3" style="stroke:#038048;stroke-width:1.0;fill:none;"/><text fill="#000000" font-family="sans-serif" font-size="11" lengthAdjust="spacing" textLength="163" x="53" y="212.2104">[ComponentHandle] : Handle</text><line style="stroke:#A80036;stroke-width:1.5;" x1="34" x2="311" y1="218.8047" y2="218.8047"/><ellipse cx="44" cy="229.8047" fill="#84BE84" rx="3" ry="3" style="stroke:#038048;stroke-width:1.0;"/><text fill="#000000" font-family="sans-serif" font-size="11" lengthAdjust="spacing" textLength="253" x="53" y="233.0151">[ComponentRender](output: Template) : void</text><ellipse cx="44" cy="242.6094" fill="#84BE84" rx="3" ry="3" style="stroke:#038048;stroke-width:1.0;"/><text fill="#000000" font-family="sans-serif" font-size="11" lengthAdjust="spacing" textLength="221" x="53" y="245.8198">[ComponentUpdate]() : Promise&lt;void&gt;</text><ellipse cx="44" cy="255.4141" fill="#84BE84" rx="3" ry="3" style="stroke:#038048;stroke-width:1.0;"/><text fill="#000000" font-family="sans-serif" font-size="11" lengthAdjust="spacing" textLength="248" x="53" y="258.6245">[ComponentVerify]() : void | Promise&lt;void&gt;</text><!--MD5=[2329f7cacab1176dd90b22c9456fec03]
class RosComponent--><rect codeLine="10" fill="#FEFECE" filter="url(#f117ikd7s4ublu)" height="99.2188" id="RosComponent" style="stroke:#A80036;stroke-width:1.5;" width="331" x="7" y="7"/><ellipse cx="121.25" cy="23" fill="#A9DCDF" rx="11" ry="11" style="stroke:#A80036;stroke-width:1.0;"/><path d="M121.3594,18.3438 L120.2031,23.4219 L122.5313,23.4219 L121.3594,18.3438 Z M119.875,16.1094 L122.8594,16.1094 L126.2188,28.5 L123.7656,28.5 L123,25.4375 L119.7188,25.4375 L118.9688,28.5 L116.5313,28.5 L119.875,16.1094 Z " fill="#000000"/><text fill="#000000" font-family="sans-serif" font-size="12" font-style="italic" lengthAdjust="spacing" textLength="94" x="141.75" y="27.1543">RosComponent</text><line style="stroke:#A80036;stroke-width:1.5;" x1="8" x2="337" y1="39" y2="39"/><ellipse cx="18" cy="50" rx="3" ry="3" style="stroke:#038048;stroke-width:1.0;fill:none;"/><text fill="#000000" font-family="sans-serif" font-size="11" lengthAdjust="spacing" textLength="163" x="27" y="53.2104">[ComponentHandle] : Handle</text><line style="stroke:#A80036;stroke-width:1.5;" x1="8" x2="337" y1="59.8047" y2="59.8047"/><ellipse cx="18" cy="70.8047" fill="#84BE84" rx="3" ry="3" style="stroke:#038048;stroke-width:1.0;"/><text fill="#000000" font-family="sans-serif" font-size="11" font-style="italic" lengthAdjust="spacing" textLength="305" x="27" y="74.0151">[ComponentRender](out: any) : void | Promise&lt;void&gt;</text><ellipse cx="18" cy="83.6094" fill="#84BE84" rx="3" ry="3" style="stroke:#038048;stroke-width:1.0;"/><text fill="#000000" font-family="sans-serif" font-size="11" lengthAdjust="spacing" textLength="221" x="27" y="86.8198">[ComponentUpdate]() : Promise&lt;void&gt;</text><ellipse cx="18" cy="96.4141" fill="#84BE84" rx="3" ry="3" style="stroke:#038048;stroke-width:1.0;"/><text fill="#000000" font-family="sans-serif" font-size="11" lengthAdjust="spacing" textLength="248" x="27" y="99.6245">[ComponentVerify]() : void | Promise&lt;void&gt;</text><!--MD5=[282ef5a5373fb404ad270e2fcf614c80]
reverse link RosComponent to RosResource<PropsType>--><path codeLine="16" d="M172.5,126.64 C172.5,139.91 172.5,153.54 172.5,165.98 " fill="none" id="RosComponent-backto-RosResource&lt;PropsType&gt;" style="stroke:#A80036;stroke-width:1.0;"/><polygon fill="none" points="165.5,126.32,172.5,106.32,179.5,126.32,165.5,126.32" style="stroke:#A80036;stroke-width:1.0;"/><!--MD5=[f4bd307760a1e1295300a9fb0867ccae]
@startuml
skinparam BackgroundColor transparent
hide empty methods
hide empty fields
abstract class "RosResource<PropsType>" {
    +[ComponentHandle] : Handle
    +[ComponentRender](output: Template) : void
    +[ComponentUpdate]() : Promise<void>
    +[ComponentVerify]() : void | Promise<void>
}
abstract class "RosComponent" {
    +[ComponentHandle] : Handle
    {abstract} +[ComponentRender](out: any) : void | Promise<void>
    +[ComponentUpdate]() : Promise<void>
    +[ComponentVerify]() : void | Promise<void>
}
"RosComponent" <|- - "RosResource<PropsType>"
@enduml

PlantUML version 1.2021.14(Fri Nov 12 16:46:50 UTC 2021)
(GPL source distribution)
Java Runtime: OpenJDK Runtime Environment
JVM: OpenJDK 64-Bit Server VM
Default Encoding: UTF-8
Language: en
Country: null
--></g></svg>