<?xml version="1.0" encoding="UTF-8" standalone="no"?><svg xmlns="http://www.w3.org/2000/svg" xmlns:xlink="http://www.w3.org/1999/xlink" contentScriptType="application/ecmascript" contentStyleType="text/css" height="165px" preserveAspectRatio="none" style="width:300px;height:165px;background:#00000000;" version="1.1" viewBox="0 0 300 165" width="300px" zoomAndPan="magnify"><defs><filter height="300%" id="frlbc9h9tyklj" width="300%" x="-1" y="-1"><feGaussianBlur result="blurOut" stdDeviation="2.0"/><feColorMatrix in="blurOut" result="blurOut2" type="matrix" values="0 0 0 0 0 0 0 0 0 0 0 0 0 0 0 0 0 0 .4 0"/><feOffset dx="4.0" dy="4.0" in="blurOut2" result="blurOut3"/><feBlend in="SourceGraphic" in2="blurOut3" mode="normal"/></filter></defs><g><!--MD5=[1d492029b27fe1c4b6c03d768b5dd52f]
class RosResource<PropsType>--><rect codeLine="4" fill="#FEFECE" filter="url(#frlbc9h9tyklj)" height="52.8047" id="RosResource&lt;PropsType&gt;" style="stroke:#A80036;stroke-width:1.5;" width="279" x="7" y="99"/><ellipse cx="60.25" cy="115" fill="#A9DCDF" rx="11" ry="11" style="stroke:#A80036;stroke-width:1.0;"/><path d="M60.3594,110.3438 L59.2031,115.4219 L61.5313,115.4219 L60.3594,110.3438 Z M58.875,108.1094 L61.8594,108.1094 L65.2188,120.5 L62.7656,120.5 L62,117.4375 L58.7188,117.4375 L57.9688,120.5 L55.5313,120.5 L58.875,108.1094 Z " fill="#000000"/><text fill="#000000" font-family="sans-serif" font-size="12" font-style="italic" lengthAdjust="spacing" textLength="164" x="80.75" y="119.1543">RosResource&lt;PropsType&gt;</text><line style="stroke:#A80036;stroke-width:1.5;" x1="8" x2="285" y1="131" y2="131"/><ellipse cx="18" cy="142" fill="#84BE84" rx="3" ry="3" style="stroke:#038048;stroke-width:1.0;"/><text fill="#000000" font-family="sans-serif" font-size="11" lengthAdjust="spacing" textLength="253" x="27" y="145.2104">[ComponentRender](output: Template) : void</text><!--MD5=[2329f7cacab1176dd90b22c9456fec03]
class RosComponent--><rect codeLine="7" fill="#FEFECE" filter="url(#frlbc9h9tyklj)" height="32" id="RosComponent" style="stroke:#A80036;stroke-width:1.5;" width="126" x="83.5" y="7"/><ellipse cx="98.5" cy="23" fill="#A9DCDF" rx="11" ry="11" style="stroke:#A80036;stroke-width:1.0;"/><path d="M98.6094,18.3438 L97.4531,23.4219 L99.7813,23.4219 L98.6094,18.3438 Z M97.125,16.1094 L100.1094,16.1094 L103.4688,28.5 L101.0156,28.5 L100.25,25.4375 L96.9688,25.4375 L96.2188,28.5 L93.7813,28.5 L97.125,16.1094 Z " fill="#000000"/><text fill="#000000" font-family="sans-serif" font-size="12" font-style="italic" lengthAdjust="spacing" textLength="94" x="112.5" y="27.1543">RosComponent</text><!--MD5=[282ef5a5373fb404ad270e2fcf614c80]
reverse link RosComponent to RosResource<PropsType>--><path codeLine="9" d="M146.5,59.64 C146.5,72.6 146.5,86.99 146.5,98.91 " fill="none" id="RosComponent-backto-RosResource&lt;PropsType&gt;" style="stroke:#A80036;stroke-width:1.0;"/><polygon fill="none" points="139.5,59.26,146.5,39.26,153.5,59.26,139.5,59.26" style="stroke:#A80036;stroke-width:1.0;"/><!--MD5=[277802c14f7c1a0b7dbbe45f8991cb95]
@startuml
skinparam BackgroundColor transparent
hide empty methods
hide empty fields
abstract class "RosResource<PropsType>" {
    +[ComponentRender](output: Template) : void
}
abstract class "RosComponent" {
}
"RosComponent" <|- - "RosResource<PropsType>"
@enduml

PlantUML version 1.2021.14(Fri Nov 12 16:46:50 UTC 2021)
(GPL source distribution)
Java Runtime: OpenJDK Runtime Environment
JVM: OpenJDK 64-Bit Server VM
Default Encoding: UTF-8
Language: en
Country: null
--></g></svg>