<?xml version="1.0" encoding="UTF-8" standalone="no"?><svg xmlns="http://www.w3.org/2000/svg" xmlns:xlink="http://www.w3.org/1999/xlink" contentScriptType="application/ecmascript" contentStyleType="text/css" height="394px" preserveAspectRatio="none" style="width:368px;height:394px;background:#00000000;" version="1.1" viewBox="0 0 368 394" width="368px" zoomAndPan="magnify"><defs><filter height="300%" id="f9rfzyxhi3wh1" width="300%" x="-1" y="-1"><feGaussianBlur result="blurOut" stdDeviation="2.0"/><feColorMatrix in="blurOut" result="blurOut2" type="matrix" values="0 0 0 0 0 0 0 0 0 0 0 0 0 0 0 0 0 0 .4 0"/><feOffset dx="4.0" dy="4.0" in="blurOut2" result="blurOut3"/><feBlend in="SourceGraphic" in2="blurOut3" mode="normal"/></filter></defs><g><!--MD5=[5d8791e0b0f57b17cd74ab5b0f357d8a]
class RosScene--><rect codeLine="4" fill="#FEFECE" filter="url(#f9rfzyxhi3wh1)" height="163.2422" id="RosScene" style="stroke:#A80036;stroke-width:1.5;" width="266" x="47.5" y="217"/><ellipse cx="145.25" cy="233" fill="#ADD1B2" rx="11" ry="11" style="stroke:#A80036;stroke-width:1.0;"/><path d="M148.2188,238.6406 Q147.6406,238.9375 147,239.0781 Q146.3594,239.2344 145.6563,239.2344 Q143.1563,239.2344 141.8281,237.5938 Q140.5156,235.9375 140.5156,232.8125 Q140.5156,229.6875 141.8281,228.0313 Q143.1563,226.375 145.6563,226.375 Q146.3594,226.375 147,226.5313 Q147.6563,226.6875 148.2188,226.9844 L148.2188,229.7031 Q147.5938,229.125 147,228.8594 Q146.4063,228.5781 145.7813,228.5781 Q144.4375,228.5781 143.75,229.6563 Q143.0625,230.7188 143.0625,232.8125 Q143.0625,234.9063 143.75,235.9844 Q144.4375,237.0469 145.7813,237.0469 Q146.4063,237.0469 147,236.7813 Q147.5938,236.5 148.2188,235.9219 L148.2188,238.6406 Z " fill="#000000"/><text fill="#000000" font-family="sans-serif" font-size="12" lengthAdjust="spacing" textLength="62" x="165.75" y="237.1543">RosScene</text><line style="stroke:#A80036;stroke-width:1.5;" x1="48.5" x2="312.5" y1="249" y2="249"/><ellipse cx="58.5" cy="260" rx="3" ry="3" style="stroke:#038048;stroke-width:1.0;fill:none;"/><text fill="#000000" font-family="sans-serif" font-size="11" lengthAdjust="spacing" textLength="184" x="67.5" y="263.2104">components : Set&lt;Component&gt;</text><ellipse cx="58.5" cy="272.8047" rx="3" ry="3" style="stroke:#038048;stroke-width:1.0;fill:none;"/><text fill="#000000" font-family="sans-serif" font-size="11" lengthAdjust="spacing" textLength="97" x="67.5" y="276.0151">system : System</text><rect fill="none" height="6" style="stroke:#C82930;stroke-width:1.0;" width="6" x="55.5" y="282.6094"/><text fill="#000000" font-family="sans-serif" font-size="11" lengthAdjust="spacing" textLength="107" x="67.5" y="288.8198">_output : Template</text><line style="stroke:#A80036;stroke-width:1.5;" x1="48.5" x2="312.5" y1="295.4141" y2="295.4141"/><ellipse cx="58.5" cy="306.4141" fill="#84BE84" rx="3" ry="3" style="stroke:#038048;stroke-width:1.0;"/><text fill="#000000" font-family="sans-serif" font-size="11" lengthAdjust="spacing" textLength="108" x="67.5" y="309.6245">empty() : Template</text><ellipse cx="58.5" cy="319.2188" fill="#84BE84" rx="3" ry="3" style="stroke:#038048;stroke-width:1.0;"/><text fill="#000000" font-family="sans-serif" font-size="11" lengthAdjust="spacing" textLength="227" x="67.5" y="322.4292">filter(component: Component) : boolean</text><ellipse cx="58.5" cy="332.0234" fill="#84BE84" rx="3" ry="3" style="stroke:#038048;stroke-width:1.0;"/><text fill="#000000" font-family="sans-serif" font-size="11" lengthAdjust="spacing" textLength="80" x="67.5" y="335.2339">gizmos() : any</text><ellipse cx="58.5" cy="344.8281" fill="#84BE84" rx="3" ry="3" style="stroke:#038048;stroke-width:1.0;"/><text fill="#000000" font-family="sans-serif" font-size="11" lengthAdjust="spacing" textLength="240" x="67.5" y="348.0386">render(view: View) : void | Promise&lt;void&gt;</text><ellipse cx="58.5" cy="357.6328" fill="#84BE84" rx="3" ry="3" style="stroke:#038048;stroke-width:1.0;"/><text fill="#000000" font-family="sans-serif" font-size="11" lengthAdjust="spacing" textLength="221" x="67.5" y="360.8433">update(token: Token&lt;any, any&gt;) : void</text><ellipse cx="58.5" cy="370.4375" fill="#84BE84" rx="3" ry="3" style="stroke:#038048;stroke-width:1.0;"/><text fill="#000000" font-family="sans-serif" font-size="11" lengthAdjust="spacing" textLength="233" x="67.5" y="373.6479">verify(view: View) : void | Promise&lt;void&gt;</text><!--MD5=[effa4f851d4b5ff2cb787c330b681cb8]
class CloudScene--><rect codeLine="15" fill="#FEFECE" filter="url(#f9rfzyxhi3wh1)" height="150.4375" id="CloudScene" style="stroke:#A80036;stroke-width:1.5;" width="347" x="7" y="7"/><ellipse cx="139.25" cy="23" fill="#A9DCDF" rx="11" ry="11" style="stroke:#A80036;stroke-width:1.0;"/><path d="M139.3594,18.3438 L138.2031,23.4219 L140.5313,23.4219 L139.3594,18.3438 Z M137.875,16.1094 L140.8594,16.1094 L144.2188,28.5 L141.7656,28.5 L141,25.4375 L137.7188,25.4375 L136.9688,28.5 L134.5313,28.5 L137.875,16.1094 Z " fill="#000000"/><text fill="#000000" font-family="sans-serif" font-size="12" font-style="italic" lengthAdjust="spacing" textLength="74" x="159.75" y="27.1543">CloudScene</text><line style="stroke:#A80036;stroke-width:1.5;" x1="8" x2="353" y1="39" y2="39"/><ellipse cx="18" cy="50" rx="3" ry="3" style="stroke:#038048;stroke-width:1.0;fill:none;"/><text fill="#000000" font-family="sans-serif" font-size="11" lengthAdjust="spacing" textLength="184" x="27" y="53.2104">components : Set&lt;Component&gt;</text><ellipse cx="18" cy="62.8047" rx="3" ry="3" style="stroke:#038048;stroke-width:1.0;fill:none;"/><text fill="#000000" font-family="sans-serif" font-size="11" lengthAdjust="spacing" textLength="97" x="27" y="66.0151">system : System</text><line style="stroke:#A80036;stroke-width:1.5;" x1="8" x2="353" y1="72.6094" y2="72.6094"/><ellipse cx="18" cy="83.6094" fill="#84BE84" rx="3" ry="3" style="stroke:#038048;stroke-width:1.0;"/><text fill="#000000" font-family="sans-serif" font-size="11" lengthAdjust="spacing" textLength="75" x="27" y="86.8198">empty() : any</text><ellipse cx="18" cy="96.4141" fill="#84BE84" rx="3" ry="3" style="stroke:#038048;stroke-width:1.0;"/><text fill="#000000" font-family="sans-serif" font-size="11" font-style="italic" lengthAdjust="spacing" textLength="227" x="27" y="99.6245">filter(component: Component) : boolean</text><ellipse cx="18" cy="109.2188" fill="#84BE84" rx="3" ry="3" style="stroke:#038048;stroke-width:1.0;"/><text fill="#000000" font-family="sans-serif" font-size="11" lengthAdjust="spacing" textLength="80" x="27" y="112.4292">gizmos() : any</text><ellipse cx="18" cy="122.0234" fill="#84BE84" rx="3" ry="3" style="stroke:#038048;stroke-width:1.0;"/><text fill="#000000" font-family="sans-serif" font-size="11" lengthAdjust="spacing" textLength="240" x="27" y="125.2339">render(view: View) : void | Promise&lt;void&gt;</text><ellipse cx="18" cy="134.8281" fill="#84BE84" rx="3" ry="3" style="stroke:#038048;stroke-width:1.0;"/><text fill="#000000" font-family="sans-serif" font-size="11" lengthAdjust="spacing" textLength="321" x="27" y="138.0386">update(token: Token&lt;any, any&gt;) : void | Promise&lt;void&gt;</text><ellipse cx="18" cy="147.6328" fill="#84BE84" rx="3" ry="3" style="stroke:#038048;stroke-width:1.0;"/><text fill="#000000" font-family="sans-serif" font-size="11" lengthAdjust="spacing" textLength="233" x="27" y="150.8433">verify(view: View) : void | Promise&lt;void&gt;</text><!--MD5=[73fc246f228ee7038096cd574ebf572b]
reverse link CloudScene to RosScene--><path codeLine="25" d="M180.5,177.42 C180.5,190.55 180.5,203.94 180.5,216.78 " fill="none" id="CloudScene-backto-RosScene" style="stroke:#A80036;stroke-width:1.0;"/><polygon fill="none" points="173.5,177.12,180.5,157.12,187.5,177.12,173.5,177.12" style="stroke:#A80036;stroke-width:1.0;"/><!--MD5=[580650ed898e9e369fddd059182c1bf0]
@startuml
skinparam BackgroundColor transparent
hide empty methods
hide empty fields
class "RosScene" {
    +components : Set<Component>
    +system : System
    -_output : Template
    +empty() : Template
    +filter(component: Component) : boolean
    +gizmos() : any
    +render(view: View) : void | Promise<void>
    +update(token: Token<any, any>) : void
    +verify(view: View) : void | Promise<void>
}
abstract class "CloudScene" {
    +components : Set<Component>
    +system : System
    +empty() : any
    {abstract} +filter(component: Component) : boolean
    +gizmos() : any
    +render(view: View) : void | Promise<void>
    +update(token: Token<any, any>) : void | Promise<void>
    +verify(view: View) : void | Promise<void>
}
"CloudScene" <|- - "RosScene"
@enduml

PlantUML version 1.2021.14(Fri Nov 12 16:46:50 UTC 2021)
(GPL source distribution)
Java Runtime: OpenJDK Runtime Environment
JVM: OpenJDK 64-Bit Server VM
Default Encoding: UTF-8
Language: en
Country: null
--></g></svg>