<?xml version="1.0" encoding="UTF-8" standalone="no"?><svg xmlns="http://www.w3.org/2000/svg" xmlns:xlink="http://www.w3.org/1999/xlink" contentScriptType="application/ecmascript" contentStyleType="text/css" height="407px" preserveAspectRatio="none" style="width:1808px;height:407px;background:#00000000;" version="1.1" viewBox="0 0 1808 407" width="1808px" zoomAndPan="magnify"><defs><filter height="300%" id="f5r5gjg9nssxf" width="300%" x="-1" y="-1"><feGaussianBlur result="blurOut" stdDeviation="2.0"/><feColorMatrix in="blurOut" result="blurOut2" type="matrix" values="0 0 0 0 0 0 0 0 0 0 0 0 0 0 0 0 0 0 .4 0"/><feOffset dx="4.0" dy="4.0" in="blurOut2" result="blurOut3"/><feBlend in="SourceGraphic" in2="blurOut3" mode="normal"/></filter></defs><g><!--MD5=[e4faacc5b8aef66b11ab0c816bbbc7f8]
class Scene--><rect codeLine="4" fill="#FEFECE" filter="url(#f5r5gjg9nssxf)" height="150.4375" id="Scene" style="stroke:#A80036;stroke-width:1.5;" width="347" x="683" y="7"/><ellipse cx="832.75" cy="23" fill="#A9DCDF" rx="11" ry="11" style="stroke:#A80036;stroke-width:1.0;"/><path d="M832.8594,18.3438 L831.7031,23.4219 L834.0313,23.4219 L832.8594,18.3438 Z M831.375,16.1094 L834.3594,16.1094 L837.7188,28.5 L835.2656,28.5 L834.5,25.4375 L831.2188,25.4375 L830.4688,28.5 L828.0313,28.5 L831.375,16.1094 Z " fill="#000000"/><text fill="#000000" font-family="sans-serif" font-size="12" font-style="italic" lengthAdjust="spacing" textLength="39" x="853.25" y="27.1543">Scene</text><line style="stroke:#A80036;stroke-width:1.5;" x1="684" x2="1029" y1="39" y2="39"/><ellipse cx="694" cy="50" rx="3" ry="3" style="stroke:#038048;stroke-width:1.0;fill:none;"/><text fill="#000000" font-family="sans-serif" font-size="11" lengthAdjust="spacing" textLength="184" x="703" y="53.2104">components : Set&lt;Component&gt;</text><ellipse cx="694" cy="62.8047" rx="3" ry="3" style="stroke:#038048;stroke-width:1.0;fill:none;"/><text fill="#000000" font-family="sans-serif" font-size="11" lengthAdjust="spacing" textLength="97" x="703" y="66.0151">system : System</text><line style="stroke:#A80036;stroke-width:1.5;" x1="684" x2="1029" y1="72.6094" y2="72.6094"/><ellipse cx="694" cy="83.6094" fill="#84BE84" rx="3" ry="3" style="stroke:#038048;stroke-width:1.0;"/><text fill="#000000" font-family="sans-serif" font-size="11" lengthAdjust="spacing" textLength="75" x="703" y="86.8198">empty() : any</text><ellipse cx="694" cy="96.4141" fill="#84BE84" rx="3" ry="3" style="stroke:#038048;stroke-width:1.0;"/><text fill="#000000" font-family="sans-serif" font-size="11" font-style="italic" lengthAdjust="spacing" textLength="227" x="703" y="99.6245">filter(component: Component) : boolean</text><ellipse cx="694" cy="109.2188" fill="#84BE84" rx="3" ry="3" style="stroke:#038048;stroke-width:1.0;"/><text fill="#000000" font-family="sans-serif" font-size="11" lengthAdjust="spacing" textLength="80" x="703" y="112.4292">gizmos() : any</text><ellipse cx="694" cy="122.0234" fill="#84BE84" rx="3" ry="3" style="stroke:#038048;stroke-width:1.0;"/><text fill="#000000" font-family="sans-serif" font-size="11" lengthAdjust="spacing" textLength="240" x="703" y="125.2339">render(view: View) : void | Promise&lt;void&gt;</text><ellipse cx="694" cy="134.8281" fill="#84BE84" rx="3" ry="3" style="stroke:#038048;stroke-width:1.0;"/><text fill="#000000" font-family="sans-serif" font-size="11" lengthAdjust="spacing" textLength="321" x="703" y="138.0386">update(token: Token&lt;any, any&gt;) : void | Promise&lt;void&gt;</text><ellipse cx="694" cy="147.6328" fill="#84BE84" rx="3" ry="3" style="stroke:#038048;stroke-width:1.0;"/><text fill="#000000" font-family="sans-serif" font-size="11" lengthAdjust="spacing" textLength="233" x="703" y="150.8433">verify(view: View) : void | Promise&lt;void&gt;</text><!--MD5=[5e7d7a1aea2f0e1483d0fe7817583a8d]
class FileSystemScene--><rect codeLine="14" fill="#FEFECE" filter="url(#f5r5gjg9nssxf)" height="176.0469" id="FileSystemScene" style="stroke:#A80036;stroke-width:1.5;" width="259" x="7" y="217"/><ellipse cx="79.75" cy="233" fill="#ADD1B2" rx="11" ry="11" style="stroke:#A80036;stroke-width:1.0;"/><path d="M82.7188,238.6406 Q82.1406,238.9375 81.5,239.0781 Q80.8594,239.2344 80.1563,239.2344 Q77.6563,239.2344 76.3281,237.5938 Q75.0156,235.9375 75.0156,232.8125 Q75.0156,229.6875 76.3281,228.0313 Q77.6563,226.375 80.1563,226.375 Q80.8594,226.375 81.5,226.5313 Q82.1563,226.6875 82.7188,226.9844 L82.7188,229.7031 Q82.0938,229.125 81.5,228.8594 Q80.9063,228.5781 80.2813,228.5781 Q78.9375,228.5781 78.25,229.6563 Q77.5625,230.7188 77.5625,232.8125 Q77.5625,234.9063 78.25,235.9844 Q78.9375,237.0469 80.2813,237.0469 Q80.9063,237.0469 81.5,236.7813 Q82.0938,236.5 82.7188,235.9219 L82.7188,238.6406 Z " fill="#000000"/><text fill="#000000" font-family="sans-serif" font-size="12" lengthAdjust="spacing" textLength="105" x="100.25" y="237.1543">FileSystemScene</text><line style="stroke:#A80036;stroke-width:1.5;" x1="8" x2="265" y1="249" y2="249"/><ellipse cx="18" cy="260" rx="3" ry="3" style="stroke:#038048;stroke-width:1.0;fill:none;"/><text fill="#000000" font-family="sans-serif" font-size="11" lengthAdjust="spacing" textLength="184" x="27" y="263.2104">components : Set&lt;Component&gt;</text><ellipse cx="18" cy="272.8047" rx="3" ry="3" style="stroke:#038048;stroke-width:1.0;fill:none;"/><text fill="#000000" font-family="sans-serif" font-size="11" lengthAdjust="spacing" textLength="97" x="27" y="276.0151">system : System</text><rect fill="none" height="6" style="stroke:#C82930;stroke-width:1.0;" width="6" x="15" y="282.6094"/><text fill="#000000" font-family="sans-serif" font-size="11" lengthAdjust="spacing" textLength="83" x="27" y="288.8198">_fs : __module</text><rect fill="none" height="6" style="stroke:#C82930;stroke-width:1.0;" width="6" x="15" y="295.4141"/><text fill="#000000" font-family="sans-serif" font-size="11" lengthAdjust="spacing" textLength="169" x="27" y="301.6245">_output : Map&lt;string, string&gt;</text><line style="stroke:#A80036;stroke-width:1.5;" x1="8" x2="265" y1="308.2188" y2="308.2188"/><ellipse cx="18" cy="319.2188" fill="#84BE84" rx="3" ry="3" style="stroke:#038048;stroke-width:1.0;"/><text fill="#000000" font-family="sans-serif" font-size="11" lengthAdjust="spacing" textLength="170" x="27" y="322.4292">empty() : Map&lt;string, string&gt;</text><ellipse cx="18" cy="332.0234" fill="#84BE84" rx="3" ry="3" style="stroke:#038048;stroke-width:1.0;"/><text fill="#000000" font-family="sans-serif" font-size="11" lengthAdjust="spacing" textLength="227" x="27" y="335.2339">filter(component: Component) : boolean</text><ellipse cx="18" cy="344.8281" fill="#84BE84" rx="3" ry="3" style="stroke:#038048;stroke-width:1.0;"/><text fill="#000000" font-family="sans-serif" font-size="11" lengthAdjust="spacing" textLength="80" x="27" y="348.0386">gizmos() : any</text><ellipse cx="18" cy="357.6328" fill="#84BE84" rx="3" ry="3" style="stroke:#038048;stroke-width:1.0;"/><text fill="#000000" font-family="sans-serif" font-size="11" lengthAdjust="spacing" textLength="205" x="27" y="360.8433">render(view: View) : Promise&lt;void&gt;</text><ellipse cx="18" cy="370.4375" fill="#84BE84" rx="3" ry="3" style="stroke:#038048;stroke-width:1.0;"/><text fill="#000000" font-family="sans-serif" font-size="11" lengthAdjust="spacing" textLength="221" x="27" y="373.6479">update(token: Token&lt;any, any&gt;) : void</text><ellipse cx="18" cy="383.2422" fill="#84BE84" rx="3" ry="3" style="stroke:#038048;stroke-width:1.0;"/><text fill="#000000" font-family="sans-serif" font-size="11" lengthAdjust="spacing" textLength="233" x="27" y="386.4526">verify(view: View) : void | Promise&lt;void&gt;</text><!--MD5=[6b683f5ba6b4e0f839617a2f6d8c0742]
class AwsScene--><rect codeLine="27" fill="#FEFECE" filter="url(#f5r5gjg9nssxf)" height="163.2422" id="AwsScene" style="stroke:#A80036;stroke-width:1.5;" width="347" x="301" y="223.5"/><ellipse cx="438.75" cy="239.5" fill="#ADD1B2" rx="11" ry="11" style="stroke:#A80036;stroke-width:1.0;"/><path d="M441.7188,245.1406 Q441.1406,245.4375 440.5,245.5781 Q439.8594,245.7344 439.1563,245.7344 Q436.6563,245.7344 435.3281,244.0938 Q434.0156,242.4375 434.0156,239.3125 Q434.0156,236.1875 435.3281,234.5313 Q436.6563,232.875 439.1563,232.875 Q439.8594,232.875 440.5,233.0313 Q441.1563,233.1875 441.7188,233.4844 L441.7188,236.2031 Q441.0938,235.625 440.5,235.3594 Q439.9063,235.0781 439.2813,235.0781 Q437.9375,235.0781 437.25,236.1563 Q436.5625,237.2188 436.5625,239.3125 Q436.5625,241.4063 437.25,242.4844 Q437.9375,243.5469 439.2813,243.5469 Q439.9063,243.5469 440.5,243.2813 Q441.0938,243 441.7188,242.4219 L441.7188,245.1406 Z " fill="#000000"/><text fill="#000000" font-family="sans-serif" font-size="12" lengthAdjust="spacing" textLength="63" x="459.25" y="243.6543">AwsScene</text><line style="stroke:#A80036;stroke-width:1.5;" x1="302" x2="647" y1="255.5" y2="255.5"/><ellipse cx="312" cy="266.5" rx="3" ry="3" style="stroke:#038048;stroke-width:1.0;fill:none;"/><text fill="#000000" font-family="sans-serif" font-size="11" lengthAdjust="spacing" textLength="184" x="321" y="269.7104">components : Set&lt;Component&gt;</text><ellipse cx="312" cy="279.3047" rx="3" ry="3" style="stroke:#038048;stroke-width:1.0;fill:none;"/><text fill="#000000" font-family="sans-serif" font-size="11" lengthAdjust="spacing" textLength="97" x="321" y="282.5151">system : System</text><rect fill="none" height="6" style="stroke:#C82930;stroke-width:1.0;" width="6" x="309" y="289.1094"/><text fill="#000000" font-family="sans-serif" font-size="11" lengthAdjust="spacing" textLength="107" x="321" y="295.3198">_output : Template</text><line style="stroke:#A80036;stroke-width:1.5;" x1="302" x2="647" y1="301.9141" y2="301.9141"/><ellipse cx="312" cy="312.9141" fill="#84BE84" rx="3" ry="3" style="stroke:#038048;stroke-width:1.0;"/><text fill="#000000" font-family="sans-serif" font-size="11" lengthAdjust="spacing" textLength="108" x="321" y="316.1245">empty() : Template</text><ellipse cx="312" cy="325.7188" fill="#84BE84" rx="3" ry="3" style="stroke:#038048;stroke-width:1.0;"/><text fill="#000000" font-family="sans-serif" font-size="11" lengthAdjust="spacing" textLength="227" x="321" y="328.9292">filter(component: Component) : boolean</text><ellipse cx="312" cy="338.5234" fill="#84BE84" rx="3" ry="3" style="stroke:#038048;stroke-width:1.0;"/><text fill="#000000" font-family="sans-serif" font-size="11" lengthAdjust="spacing" textLength="80" x="321" y="341.7339">gizmos() : any</text><ellipse cx="312" cy="351.3281" fill="#84BE84" rx="3" ry="3" style="stroke:#038048;stroke-width:1.0;"/><text fill="#000000" font-family="sans-serif" font-size="11" lengthAdjust="spacing" textLength="240" x="321" y="354.5386">render(view: View) : void | Promise&lt;void&gt;</text><ellipse cx="312" cy="364.1328" fill="#84BE84" rx="3" ry="3" style="stroke:#038048;stroke-width:1.0;"/><text fill="#000000" font-family="sans-serif" font-size="11" lengthAdjust="spacing" textLength="321" x="321" y="367.3433">update(token: Token&lt;any, any&gt;) : void | Promise&lt;void&gt;</text><ellipse cx="312" cy="376.9375" fill="#84BE84" rx="3" ry="3" style="stroke:#038048;stroke-width:1.0;"/><text fill="#000000" font-family="sans-serif" font-size="11" lengthAdjust="spacing" textLength="233" x="321" y="380.1479">verify(view: View) : void | Promise&lt;void&gt;</text><!--MD5=[5d8791e0b0f57b17cd74ab5b0f357d8a]
class RosScene--><rect codeLine="39" fill="#FEFECE" filter="url(#f5r5gjg9nssxf)" height="163.2422" id="RosScene" style="stroke:#A80036;stroke-width:1.5;" width="347" x="683" y="223.5"/><ellipse cx="821.25" cy="239.5" fill="#ADD1B2" rx="11" ry="11" style="stroke:#A80036;stroke-width:1.0;"/><path d="M824.2188,245.1406 Q823.6406,245.4375 823,245.5781 Q822.3594,245.7344 821.6563,245.7344 Q819.1563,245.7344 817.8281,244.0938 Q816.5156,242.4375 816.5156,239.3125 Q816.5156,236.1875 817.8281,234.5313 Q819.1563,232.875 821.6563,232.875 Q822.3594,232.875 823,233.0313 Q823.6563,233.1875 824.2188,233.4844 L824.2188,236.2031 Q823.5938,235.625 823,235.3594 Q822.4063,235.0781 821.7813,235.0781 Q820.4375,235.0781 819.75,236.1563 Q819.0625,237.2188 819.0625,239.3125 Q819.0625,241.4063 819.75,242.4844 Q820.4375,243.5469 821.7813,243.5469 Q822.4063,243.5469 823,243.2813 Q823.5938,243 824.2188,242.4219 L824.2188,245.1406 Z " fill="#000000"/><text fill="#000000" font-family="sans-serif" font-size="12" lengthAdjust="spacing" textLength="62" x="841.75" y="243.6543">RosScene</text><line style="stroke:#A80036;stroke-width:1.5;" x1="684" x2="1029" y1="255.5" y2="255.5"/><ellipse cx="694" cy="266.5" rx="3" ry="3" style="stroke:#038048;stroke-width:1.0;fill:none;"/><text fill="#000000" font-family="sans-serif" font-size="11" lengthAdjust="spacing" textLength="184" x="703" y="269.7104">components : Set&lt;Component&gt;</text><ellipse cx="694" cy="279.3047" rx="3" ry="3" style="stroke:#038048;stroke-width:1.0;fill:none;"/><text fill="#000000" font-family="sans-serif" font-size="11" lengthAdjust="spacing" textLength="97" x="703" y="282.5151">system : System</text><rect fill="none" height="6" style="stroke:#C82930;stroke-width:1.0;" width="6" x="691" y="289.1094"/><text fill="#000000" font-family="sans-serif" font-size="11" lengthAdjust="spacing" textLength="107" x="703" y="295.3198">_output : Template</text><line style="stroke:#A80036;stroke-width:1.5;" x1="684" x2="1029" y1="301.9141" y2="301.9141"/><ellipse cx="694" cy="312.9141" fill="#84BE84" rx="3" ry="3" style="stroke:#038048;stroke-width:1.0;"/><text fill="#000000" font-family="sans-serif" font-size="11" lengthAdjust="spacing" textLength="108" x="703" y="316.1245">empty() : Template</text><ellipse cx="694" cy="325.7188" fill="#84BE84" rx="3" ry="3" style="stroke:#038048;stroke-width:1.0;"/><text fill="#000000" font-family="sans-serif" font-size="11" lengthAdjust="spacing" textLength="227" x="703" y="328.9292">filter(component: Component) : boolean</text><ellipse cx="694" cy="338.5234" fill="#84BE84" rx="3" ry="3" style="stroke:#038048;stroke-width:1.0;"/><text fill="#000000" font-family="sans-serif" font-size="11" lengthAdjust="spacing" textLength="80" x="703" y="341.7339">gizmos() : any</text><ellipse cx="694" cy="351.3281" fill="#84BE84" rx="3" ry="3" style="stroke:#038048;stroke-width:1.0;"/><text fill="#000000" font-family="sans-serif" font-size="11" lengthAdjust="spacing" textLength="240" x="703" y="354.5386">render(view: View) : void | Promise&lt;void&gt;</text><ellipse cx="694" cy="364.1328" fill="#84BE84" rx="3" ry="3" style="stroke:#038048;stroke-width:1.0;"/><text fill="#000000" font-family="sans-serif" font-size="11" lengthAdjust="spacing" textLength="321" x="703" y="367.3433">update(token: Token&lt;any, any&gt;) : void | Promise&lt;void&gt;</text><ellipse cx="694" cy="376.9375" fill="#84BE84" rx="3" ry="3" style="stroke:#038048;stroke-width:1.0;"/><text fill="#000000" font-family="sans-serif" font-size="11" lengthAdjust="spacing" textLength="233" x="703" y="380.1479">verify(view: View) : void | Promise&lt;void&gt;</text><!--MD5=[7cc8d463400a80c8d2dac75cb81a1a89]
class GdmScene--><rect codeLine="51" fill="#FEFECE" filter="url(#f5r5gjg9nssxf)" height="163.2422" id="GdmScene" style="stroke:#A80036;stroke-width:1.5;" width="347" x="1065" y="223.5"/><ellipse cx="1200.75" cy="239.5" fill="#ADD1B2" rx="11" ry="11" style="stroke:#A80036;stroke-width:1.0;"/><path d="M1203.7188,245.1406 Q1203.1406,245.4375 1202.5,245.5781 Q1201.8594,245.7344 1201.1563,245.7344 Q1198.6563,245.7344 1197.3281,244.0938 Q1196.0156,242.4375 1196.0156,239.3125 Q1196.0156,236.1875 1197.3281,234.5313 Q1198.6563,232.875 1201.1563,232.875 Q1201.8594,232.875 1202.5,233.0313 Q1203.1563,233.1875 1203.7188,233.4844 L1203.7188,236.2031 Q1203.0938,235.625 1202.5,235.3594 Q1201.9063,235.0781 1201.2813,235.0781 Q1199.9375,235.0781 1199.25,236.1563 Q1198.5625,237.2188 1198.5625,239.3125 Q1198.5625,241.4063 1199.25,242.4844 Q1199.9375,243.5469 1201.2813,243.5469 Q1201.9063,243.5469 1202.5,243.2813 Q1203.0938,243 1203.7188,242.4219 L1203.7188,245.1406 Z " fill="#000000"/><text fill="#000000" font-family="sans-serif" font-size="12" lengthAdjust="spacing" textLength="67" x="1221.25" y="243.6543">GdmScene</text><line style="stroke:#A80036;stroke-width:1.5;" x1="1066" x2="1411" y1="255.5" y2="255.5"/><ellipse cx="1076" cy="266.5" rx="3" ry="3" style="stroke:#038048;stroke-width:1.0;fill:none;"/><text fill="#000000" font-family="sans-serif" font-size="11" lengthAdjust="spacing" textLength="184" x="1085" y="269.7104">components : Set&lt;Component&gt;</text><ellipse cx="1076" cy="279.3047" rx="3" ry="3" style="stroke:#038048;stroke-width:1.0;fill:none;"/><text fill="#000000" font-family="sans-serif" font-size="11" lengthAdjust="spacing" textLength="97" x="1085" y="282.5151">system : System</text><rect fill="none" height="6" style="stroke:#C82930;stroke-width:1.0;" width="6" x="1073" y="289.1094"/><text fill="#000000" font-family="sans-serif" font-size="11" lengthAdjust="spacing" textLength="107" x="1085" y="295.3198">_output : Template</text><line style="stroke:#A80036;stroke-width:1.5;" x1="1066" x2="1411" y1="301.9141" y2="301.9141"/><ellipse cx="1076" cy="312.9141" fill="#84BE84" rx="3" ry="3" style="stroke:#038048;stroke-width:1.0;"/><text fill="#000000" font-family="sans-serif" font-size="11" lengthAdjust="spacing" textLength="108" x="1085" y="316.1245">empty() : Template</text><ellipse cx="1076" cy="325.7188" fill="#84BE84" rx="3" ry="3" style="stroke:#038048;stroke-width:1.0;"/><text fill="#000000" font-family="sans-serif" font-size="11" lengthAdjust="spacing" textLength="227" x="1085" y="328.9292">filter(component: Component) : boolean</text><ellipse cx="1076" cy="338.5234" fill="#84BE84" rx="3" ry="3" style="stroke:#038048;stroke-width:1.0;"/><text fill="#000000" font-family="sans-serif" font-size="11" lengthAdjust="spacing" textLength="80" x="1085" y="341.7339">gizmos() : any</text><ellipse cx="1076" cy="351.3281" fill="#84BE84" rx="3" ry="3" style="stroke:#038048;stroke-width:1.0;"/><text fill="#000000" font-family="sans-serif" font-size="11" lengthAdjust="spacing" textLength="240" x="1085" y="354.5386">render(view: View) : void | Promise&lt;void&gt;</text><ellipse cx="1076" cy="364.1328" fill="#84BE84" rx="3" ry="3" style="stroke:#038048;stroke-width:1.0;"/><text fill="#000000" font-family="sans-serif" font-size="11" lengthAdjust="spacing" textLength="321" x="1085" y="367.3433">update(token: Token&lt;any, any&gt;) : void | Promise&lt;void&gt;</text><ellipse cx="1076" cy="376.9375" fill="#84BE84" rx="3" ry="3" style="stroke:#038048;stroke-width:1.0;"/><text fill="#000000" font-family="sans-serif" font-size="11" lengthAdjust="spacing" textLength="233" x="1085" y="380.1479">verify(view: View) : void | Promise&lt;void&gt;</text><!--MD5=[af02f0d337078dcde1f9aa32f35b9ebc]
class ArmScene--><rect codeLine="63" fill="#FEFECE" filter="url(#f5r5gjg9nssxf)" height="163.2422" id="ArmScene" style="stroke:#A80036;stroke-width:1.5;" width="347" x="1447" y="223.5"/><ellipse cx="1584.75" cy="239.5" fill="#ADD1B2" rx="11" ry="11" style="stroke:#A80036;stroke-width:1.0;"/><path d="M1587.7188,245.1406 Q1587.1406,245.4375 1586.5,245.5781 Q1585.8594,245.7344 1585.1563,245.7344 Q1582.6563,245.7344 1581.3281,244.0938 Q1580.0156,242.4375 1580.0156,239.3125 Q1580.0156,236.1875 1581.3281,234.5313 Q1582.6563,232.875 1585.1563,232.875 Q1585.8594,232.875 1586.5,233.0313 Q1587.1563,233.1875 1587.7188,233.4844 L1587.7188,236.2031 Q1587.0938,235.625 1586.5,235.3594 Q1585.9063,235.0781 1585.2813,235.0781 Q1583.9375,235.0781 1583.25,236.1563 Q1582.5625,237.2188 1582.5625,239.3125 Q1582.5625,241.4063 1583.25,242.4844 Q1583.9375,243.5469 1585.2813,243.5469 Q1585.9063,243.5469 1586.5,243.2813 Q1587.0938,243 1587.7188,242.4219 L1587.7188,245.1406 Z " fill="#000000"/><text fill="#000000" font-family="sans-serif" font-size="12" lengthAdjust="spacing" textLength="63" x="1605.25" y="243.6543">ArmScene</text><line style="stroke:#A80036;stroke-width:1.5;" x1="1448" x2="1793" y1="255.5" y2="255.5"/><ellipse cx="1458" cy="266.5" rx="3" ry="3" style="stroke:#038048;stroke-width:1.0;fill:none;"/><text fill="#000000" font-family="sans-serif" font-size="11" lengthAdjust="spacing" textLength="184" x="1467" y="269.7104">components : Set&lt;Component&gt;</text><ellipse cx="1458" cy="279.3047" rx="3" ry="3" style="stroke:#038048;stroke-width:1.0;fill:none;"/><text fill="#000000" font-family="sans-serif" font-size="11" lengthAdjust="spacing" textLength="97" x="1467" y="282.5151">system : System</text><rect fill="none" height="6" style="stroke:#C82930;stroke-width:1.0;" width="6" x="1455" y="289.1094"/><text fill="#000000" font-family="sans-serif" font-size="11" lengthAdjust="spacing" textLength="107" x="1467" y="295.3198">_output : Template</text><line style="stroke:#A80036;stroke-width:1.5;" x1="1448" x2="1793" y1="301.9141" y2="301.9141"/><ellipse cx="1458" cy="312.9141" fill="#84BE84" rx="3" ry="3" style="stroke:#038048;stroke-width:1.0;"/><text fill="#000000" font-family="sans-serif" font-size="11" lengthAdjust="spacing" textLength="108" x="1467" y="316.1245">empty() : Template</text><ellipse cx="1458" cy="325.7188" fill="#84BE84" rx="3" ry="3" style="stroke:#038048;stroke-width:1.0;"/><text fill="#000000" font-family="sans-serif" font-size="11" lengthAdjust="spacing" textLength="227" x="1467" y="328.9292">filter(component: Component) : boolean</text><ellipse cx="1458" cy="338.5234" fill="#84BE84" rx="3" ry="3" style="stroke:#038048;stroke-width:1.0;"/><text fill="#000000" font-family="sans-serif" font-size="11" lengthAdjust="spacing" textLength="80" x="1467" y="341.7339">gizmos() : any</text><ellipse cx="1458" cy="351.3281" fill="#84BE84" rx="3" ry="3" style="stroke:#038048;stroke-width:1.0;"/><text fill="#000000" font-family="sans-serif" font-size="11" lengthAdjust="spacing" textLength="240" x="1467" y="354.5386">render(view: View) : void | Promise&lt;void&gt;</text><ellipse cx="1458" cy="364.1328" fill="#84BE84" rx="3" ry="3" style="stroke:#038048;stroke-width:1.0;"/><text fill="#000000" font-family="sans-serif" font-size="11" lengthAdjust="spacing" textLength="321" x="1467" y="367.3433">update(token: Token&lt;any, any&gt;) : void | Promise&lt;void&gt;</text><ellipse cx="1458" cy="376.9375" fill="#84BE84" rx="3" ry="3" style="stroke:#038048;stroke-width:1.0;"/><text fill="#000000" font-family="sans-serif" font-size="11" lengthAdjust="spacing" textLength="233" x="1467" y="380.1479">verify(view: View) : void | Promise&lt;void&gt;</text><!--MD5=[bd2670f95045d17d0dd635227e71bf1f]
reverse link Scene to FileSystemScene--><path codeLine="26" d="M663.08,113.04 C549.85,134.34 405.58,167.95 283.5,217 C277.72,219.32 271.9,221.85 266.09,224.53 " fill="none" id="Scene-backto-FileSystemScene" style="stroke:#A80036;stroke-width:1.0;"/><polygon fill="none" points="661.83,106.16,682.76,109.41,664.37,119.92,661.83,106.16" style="stroke:#A80036;stroke-width:1.0;"/><!--MD5=[16bee7dd06d6b59b7f739742d7895c1b]
reverse link Scene to AwsScene--><path codeLine="38" d="M710.99,167.18 C679.09,185.64 645.4,205.13 613.75,223.44 " fill="none" id="Scene-backto-AwsScene" style="stroke:#A80036;stroke-width:1.0;"/><polygon fill="none" points="707.69,161.01,728.5,157.05,714.7,173.13,707.69,161.01" style="stroke:#A80036;stroke-width:1.0;"/><!--MD5=[22189c675fbcff47b064d5fdfe3b3b3a]
reverse link Scene to RosScene--><path codeLine="50" d="M856.5,177.29 C856.5,192.56 856.5,208.25 856.5,223.16 " fill="none" id="Scene-backto-RosScene" style="stroke:#A80036;stroke-width:1.0;"/><polygon fill="none" points="849.5,177.2,856.5,157.2,863.5,177.2,849.5,177.2" style="stroke:#A80036;stroke-width:1.0;"/><!--MD5=[c517c3af2a79e247a5bcc972d88a7702]
reverse link Scene to GdmScene--><path codeLine="62" d="M1002.01,167.18 C1033.91,185.64 1067.6,205.13 1099.25,223.44 " fill="none" id="Scene-backto-GdmScene" style="stroke:#A80036;stroke-width:1.0;"/><polygon fill="none" points="998.3,173.13,984.5,157.05,1005.31,161.01,998.3,173.13" style="stroke:#A80036;stroke-width:1.0;"/><!--MD5=[d8d11c315606d864f98b5dc3dc35bac5]
reverse link Scene to ArmScene--><path codeLine="74" d="M1050.01,118.32 C1162.34,141.27 1305.67,174.78 1429.5,217 C1435.45,219.03 1441.46,221.18 1447.51,223.42 " fill="none" id="Scene-backto-ArmScene" style="stroke:#A80036;stroke-width:1.0;"/><polygon fill="none" points="1048.34,125.12,1030.12,114.3,1051.11,111.4,1048.34,125.12" style="stroke:#A80036;stroke-width:1.0;"/><!--MD5=[7f00ba78278ba4bc50a2945299c92ff5]
@startuml
skinparam BackgroundColor transparent
hide empty methods
hide empty fields
abstract class "Scene" {
    +components : Set<Component>
    +system : System
    +empty() : any
    {abstract} +filter(component: Component) : boolean
    +gizmos() : any
    +render(view: View) : void | Promise<void>
    +update(token: Token<any, any>) : void | Promise<void>
    +verify(view: View) : void | Promise<void>
}
class "FileSystemScene" {
    +components : Set<Component>
    +system : System
    -_fs : __module
    -_output : Map<string, string>
    +empty() : Map<string, string>
    +filter(component: Component) : boolean
    +gizmos() : any
    +render(view: View) : Promise<void>
    +update(token: Token<any, any>) : void
    +verify(view: View) : void | Promise<void>
}
"Scene" <|- - "FileSystemScene"
class "AwsScene" {
    +components : Set<Component>
    +system : System
    -_output : Template
    +empty() : Template
    +filter(component: Component) : boolean
    +gizmos() : any
    +render(view: View) : void | Promise<void>
    +update(token: Token<any, any>) : void | Promise<void>
    +verify(view: View) : void | Promise<void>
}
"Scene" <|- - "AwsScene"
class "RosScene" {
    +components : Set<Component>
    +system : System
    -_output : Template
    +empty() : Template
    +filter(component: Component) : boolean
    +gizmos() : any
    +render(view: View) : void | Promise<void>
    +update(token: Token<any, any>) : void | Promise<void>
    +verify(view: View) : void | Promise<void>
}
"Scene" <|- - "RosScene"
class "GdmScene" {
    +components : Set<Component>
    +system : System
    -_output : Template
    +empty() : Template
    +filter(component: Component) : boolean
    +gizmos() : any
    +render(view: View) : void | Promise<void>
    +update(token: Token<any, any>) : void | Promise<void>
    +verify(view: View) : void | Promise<void>
}
"Scene" <|- - "GdmScene"
class "ArmScene" {
    +components : Set<Component>
    +system : System
    -_output : Template
    +empty() : Template
    +filter(component: Component) : boolean
    +gizmos() : any
    +render(view: View) : void | Promise<void>
    +update(token: Token<any, any>) : void | Promise<void>
    +verify(view: View) : void | Promise<void>
}
"Scene" <|- - "ArmScene"
@enduml

PlantUML version 1.2021.14(Fri Nov 12 16:46:50 UTC 2021)
(GPL source distribution)
Java Runtime: OpenJDK Runtime Environment
JVM: OpenJDK 64-Bit Server VM
Default Encoding: UTF-8
Language: en
Country: null
--></g></svg>