<?xml version="1.0" encoding="UTF-8" standalone="no"?><svg xmlns="http://www.w3.org/2000/svg" xmlns:xlink="http://www.w3.org/1999/xlink" contentScriptType="application/ecmascript" contentStyleType="text/css" height="381px" preserveAspectRatio="none" style="width:750px;height:381px;background:#00000000;" version="1.1" viewBox="0 0 750 381" width="750px" zoomAndPan="magnify"><defs><filter height="300%" id="f18oh5ketpwcr1" width="300%" x="-1" y="-1"><feGaussianBlur result="blurOut" stdDeviation="2.0"/><feColorMatrix in="blurOut" result="blurOut2" type="matrix" values="0 0 0 0 0 0 0 0 0 0 0 0 0 0 0 0 0 0 .4 0"/><feOffset dx="4.0" dy="4.0" in="blurOut2" result="blurOut3"/><feBlend in="SourceGraphic" in2="blurOut3" mode="normal"/></filter></defs><g><!--MD5=[e4faacc5b8aef66b11ab0c816bbbc7f8]
class Scene--><rect codeLine="4" fill="#FEFECE" filter="url(#f18oh5ketpwcr1)" height="150.4375" id="Scene" style="stroke:#A80036;stroke-width:1.5;" width="347" x="198" y="7"/><ellipse cx="347.75" cy="23" fill="#A9DCDF" rx="11" ry="11" style="stroke:#A80036;stroke-width:1.0;"/><path d="M347.8594,18.3438 L346.7031,23.4219 L349.0313,23.4219 L347.8594,18.3438 Z M346.375,16.1094 L349.3594,16.1094 L352.7188,28.5 L350.2656,28.5 L349.5,25.4375 L346.2188,25.4375 L345.4688,28.5 L343.0313,28.5 L346.375,16.1094 Z " fill="#000000"/><text fill="#000000" font-family="sans-serif" font-size="12" font-style="italic" lengthAdjust="spacing" textLength="39" x="368.25" y="27.1543">Scene</text><line style="stroke:#A80036;stroke-width:1.5;" x1="199" x2="544" y1="39" y2="39"/><ellipse cx="209" cy="50" rx="3" ry="3" style="stroke:#038048;stroke-width:1.0;fill:none;"/><text fill="#000000" font-family="sans-serif" font-size="11" lengthAdjust="spacing" textLength="184" x="218" y="53.2104">components : Set&lt;Component&gt;</text><ellipse cx="209" cy="62.8047" rx="3" ry="3" style="stroke:#038048;stroke-width:1.0;fill:none;"/><text fill="#000000" font-family="sans-serif" font-size="11" lengthAdjust="spacing" textLength="97" x="218" y="66.0151">system : System</text><line style="stroke:#A80036;stroke-width:1.5;" x1="199" x2="544" y1="72.6094" y2="72.6094"/><ellipse cx="209" cy="83.6094" fill="#84BE84" rx="3" ry="3" style="stroke:#038048;stroke-width:1.0;"/><text fill="#000000" font-family="sans-serif" font-size="11" lengthAdjust="spacing" textLength="75" x="218" y="86.8198">empty() : any</text><ellipse cx="209" cy="96.4141" fill="#84BE84" rx="3" ry="3" style="stroke:#038048;stroke-width:1.0;"/><text fill="#000000" font-family="sans-serif" font-size="11" font-style="italic" lengthAdjust="spacing" textLength="227" x="218" y="99.6245">filter(component: Component) : boolean</text><ellipse cx="209" cy="109.2188" fill="#84BE84" rx="3" ry="3" style="stroke:#038048;stroke-width:1.0;"/><text fill="#000000" font-family="sans-serif" font-size="11" lengthAdjust="spacing" textLength="80" x="218" y="112.4292">gizmos() : any</text><ellipse cx="209" cy="122.0234" fill="#84BE84" rx="3" ry="3" style="stroke:#038048;stroke-width:1.0;"/><text fill="#000000" font-family="sans-serif" font-size="11" lengthAdjust="spacing" textLength="240" x="218" y="125.2339">render(view: View) : void | Promise&lt;void&gt;</text><ellipse cx="209" cy="134.8281" fill="#84BE84" rx="3" ry="3" style="stroke:#038048;stroke-width:1.0;"/><text fill="#000000" font-family="sans-serif" font-size="11" lengthAdjust="spacing" textLength="321" x="218" y="138.0386">update(token: Token&lt;any, any&gt;) : void | Promise&lt;void&gt;</text><ellipse cx="209" cy="147.6328" fill="#84BE84" rx="3" ry="3" style="stroke:#038048;stroke-width:1.0;"/><text fill="#000000" font-family="sans-serif" font-size="11" lengthAdjust="spacing" textLength="233" x="218" y="150.8433">verify(view: View) : void | Promise&lt;void&gt;</text><!--MD5=[6a84e6f5b4704aafa5c16dde6b3ccb57]
class LocalScene--><rect codeLine="14" fill="#FEFECE" filter="url(#f18oh5ketpwcr1)" height="150.4375" id="LocalScene" style="stroke:#A80036;stroke-width:1.5;" width="347" x="7" y="217"/><ellipse cx="140.25" cy="233" fill="#A9DCDF" rx="11" ry="11" style="stroke:#A80036;stroke-width:1.0;"/><path d="M140.3594,228.3438 L139.2031,233.4219 L141.5313,233.4219 L140.3594,228.3438 Z M138.875,226.1094 L141.8594,226.1094 L145.2188,238.5 L142.7656,238.5 L142,235.4375 L138.7188,235.4375 L137.9688,238.5 L135.5313,238.5 L138.875,226.1094 Z " fill="#000000"/><text fill="#000000" font-family="sans-serif" font-size="12" font-style="italic" lengthAdjust="spacing" textLength="72" x="160.75" y="237.1543">LocalScene</text><line style="stroke:#A80036;stroke-width:1.5;" x1="8" x2="353" y1="249" y2="249"/><ellipse cx="18" cy="260" rx="3" ry="3" style="stroke:#038048;stroke-width:1.0;fill:none;"/><text fill="#000000" font-family="sans-serif" font-size="11" lengthAdjust="spacing" textLength="184" x="27" y="263.2104">components : Set&lt;Component&gt;</text><ellipse cx="18" cy="272.8047" rx="3" ry="3" style="stroke:#038048;stroke-width:1.0;fill:none;"/><text fill="#000000" font-family="sans-serif" font-size="11" lengthAdjust="spacing" textLength="97" x="27" y="276.0151">system : System</text><line style="stroke:#A80036;stroke-width:1.5;" x1="8" x2="353" y1="282.6094" y2="282.6094"/><ellipse cx="18" cy="293.6094" fill="#84BE84" rx="3" ry="3" style="stroke:#038048;stroke-width:1.0;"/><text fill="#000000" font-family="sans-serif" font-size="11" lengthAdjust="spacing" textLength="75" x="27" y="296.8198">empty() : any</text><ellipse cx="18" cy="306.4141" fill="#84BE84" rx="3" ry="3" style="stroke:#038048;stroke-width:1.0;"/><text fill="#000000" font-family="sans-serif" font-size="11" font-style="italic" lengthAdjust="spacing" textLength="227" x="27" y="309.6245">filter(component: Component) : boolean</text><ellipse cx="18" cy="319.2188" fill="#84BE84" rx="3" ry="3" style="stroke:#038048;stroke-width:1.0;"/><text fill="#000000" font-family="sans-serif" font-size="11" lengthAdjust="spacing" textLength="80" x="27" y="322.4292">gizmos() : any</text><ellipse cx="18" cy="332.0234" fill="#84BE84" rx="3" ry="3" style="stroke:#038048;stroke-width:1.0;"/><text fill="#000000" font-family="sans-serif" font-size="11" lengthAdjust="spacing" textLength="240" x="27" y="335.2339">render(view: View) : void | Promise&lt;void&gt;</text><ellipse cx="18" cy="344.8281" fill="#84BE84" rx="3" ry="3" style="stroke:#038048;stroke-width:1.0;"/><text fill="#000000" font-family="sans-serif" font-size="11" lengthAdjust="spacing" textLength="321" x="27" y="348.0386">update(token: Token&lt;any, any&gt;) : void | Promise&lt;void&gt;</text><ellipse cx="18" cy="357.6328" fill="#84BE84" rx="3" ry="3" style="stroke:#038048;stroke-width:1.0;"/><text fill="#000000" font-family="sans-serif" font-size="11" lengthAdjust="spacing" textLength="233" x="27" y="360.8433">verify(view: View) : void | Promise&lt;void&gt;</text><!--MD5=[effa4f851d4b5ff2cb787c330b681cb8]
class CloudScene--><rect codeLine="25" fill="#FEFECE" filter="url(#f18oh5ketpwcr1)" height="150.4375" id="CloudScene" style="stroke:#A80036;stroke-width:1.5;" width="347" x="389" y="217"/><ellipse cx="521.25" cy="233" fill="#A9DCDF" rx="11" ry="11" style="stroke:#A80036;stroke-width:1.0;"/><path d="M521.3594,228.3438 L520.2031,233.4219 L522.5313,233.4219 L521.3594,228.3438 Z M519.875,226.1094 L522.8594,226.1094 L526.2188,238.5 L523.7656,238.5 L523,235.4375 L519.7188,235.4375 L518.9688,238.5 L516.5313,238.5 L519.875,226.1094 Z " fill="#000000"/><text fill="#000000" font-family="sans-serif" font-size="12" font-style="italic" lengthAdjust="spacing" textLength="74" x="541.75" y="237.1543">CloudScene</text><line style="stroke:#A80036;stroke-width:1.5;" x1="390" x2="735" y1="249" y2="249"/><ellipse cx="400" cy="260" rx="3" ry="3" style="stroke:#038048;stroke-width:1.0;fill:none;"/><text fill="#000000" font-family="sans-serif" font-size="11" lengthAdjust="spacing" textLength="184" x="409" y="263.2104">components : Set&lt;Component&gt;</text><ellipse cx="400" cy="272.8047" rx="3" ry="3" style="stroke:#038048;stroke-width:1.0;fill:none;"/><text fill="#000000" font-family="sans-serif" font-size="11" lengthAdjust="spacing" textLength="97" x="409" y="276.0151">system : System</text><line style="stroke:#A80036;stroke-width:1.5;" x1="390" x2="735" y1="282.6094" y2="282.6094"/><ellipse cx="400" cy="293.6094" fill="#84BE84" rx="3" ry="3" style="stroke:#038048;stroke-width:1.0;"/><text fill="#000000" font-family="sans-serif" font-size="11" lengthAdjust="spacing" textLength="75" x="409" y="296.8198">empty() : any</text><ellipse cx="400" cy="306.4141" fill="#84BE84" rx="3" ry="3" style="stroke:#038048;stroke-width:1.0;"/><text fill="#000000" font-family="sans-serif" font-size="11" font-style="italic" lengthAdjust="spacing" textLength="227" x="409" y="309.6245">filter(component: Component) : boolean</text><ellipse cx="400" cy="319.2188" fill="#84BE84" rx="3" ry="3" style="stroke:#038048;stroke-width:1.0;"/><text fill="#000000" font-family="sans-serif" font-size="11" lengthAdjust="spacing" textLength="80" x="409" y="322.4292">gizmos() : any</text><ellipse cx="400" cy="332.0234" fill="#84BE84" rx="3" ry="3" style="stroke:#038048;stroke-width:1.0;"/><text fill="#000000" font-family="sans-serif" font-size="11" lengthAdjust="spacing" textLength="240" x="409" y="335.2339">render(view: View) : void | Promise&lt;void&gt;</text><ellipse cx="400" cy="344.8281" fill="#84BE84" rx="3" ry="3" style="stroke:#038048;stroke-width:1.0;"/><text fill="#000000" font-family="sans-serif" font-size="11" lengthAdjust="spacing" textLength="321" x="409" y="348.0386">update(token: Token&lt;any, any&gt;) : void | Promise&lt;void&gt;</text><ellipse cx="400" cy="357.6328" fill="#84BE84" rx="3" ry="3" style="stroke:#038048;stroke-width:1.0;"/><text fill="#000000" font-family="sans-serif" font-size="11" lengthAdjust="spacing" textLength="233" x="409" y="360.8433">verify(view: View) : void | Promise&lt;void&gt;</text><!--MD5=[5fb5f9269759da5d1cab07817d482b13]
reverse link Scene to LocalScene--><path codeLine="24" d="M289.8,171.97 C276.07,186.92 261.96,202.29 248.62,216.82 " fill="none" id="Scene-backto-LocalScene" style="stroke:#A80036;stroke-width:1.0;"/><polygon fill="none" points="284.67,167.21,303.35,157.21,294.98,176.68,284.67,167.21" style="stroke:#A80036;stroke-width:1.0;"/><!--MD5=[3dcd8b67d58bc44d5ae980402595f4f8]
reverse link Scene to CloudScene--><path codeLine="35" d="M453.2,171.97 C466.93,186.92 481.04,202.29 494.38,216.82 " fill="none" id="Scene-backto-CloudScene" style="stroke:#A80036;stroke-width:1.0;"/><polygon fill="none" points="448.02,176.68,439.65,157.21,458.33,167.21,448.02,176.68" style="stroke:#A80036;stroke-width:1.0;"/><!--MD5=[d560f39659e5c93e73e7cf2de1704907]
@startuml
skinparam BackgroundColor transparent
hide empty methods
hide empty fields
abstract class "Scene" {
    +components : Set<Component>
    +system : System
    +empty() : any
    {abstract} +filter(component: Component) : boolean
    +gizmos() : any
    +render(view: View) : void | Promise<void>
    +update(token: Token<any, any>) : void | Promise<void>
    +verify(view: View) : void | Promise<void>
}
abstract class "LocalScene" {
    +components : Set<Component>
    +system : System
    +empty() : any
    {abstract} +filter(component: Component) : boolean
    +gizmos() : any
    +render(view: View) : void | Promise<void>
    +update(token: Token<any, any>) : void | Promise<void>
    +verify(view: View) : void | Promise<void>
}
"Scene" <|- - "LocalScene"
abstract class "CloudScene" {
    +components : Set<Component>
    +system : System
    +empty() : any
    {abstract} +filter(component: Component) : boolean
    +gizmos() : any
    +render(view: View) : void | Promise<void>
    +update(token: Token<any, any>) : void | Promise<void>
    +verify(view: View) : void | Promise<void>
}
"Scene" <|- - "CloudScene"
@enduml

PlantUML version 1.2021.14(Fri Nov 12 16:46:50 UTC 2021)
(GPL source distribution)
Java Runtime: OpenJDK Runtime Environment
JVM: OpenJDK 64-Bit Server VM
Default Encoding: UTF-8
Language: en
Country: null
--></g></svg>