<?xml version="1.0" encoding="UTF-8" standalone="no"?><svg xmlns="http://www.w3.org/2000/svg" xmlns:xlink="http://www.w3.org/1999/xlink" contentScriptType="application/ecmascript" contentStyleType="text/css" height="263px" preserveAspectRatio="none" style="width:368px;height:263px;background:#00000000;" version="1.1" viewBox="0 0 368 263" width="368px" zoomAndPan="magnify"><defs><filter height="300%" id="f13bvmhb3yfsbv" width="300%" x="-1" y="-1"><feGaussianBlur result="blurOut" stdDeviation="2.0"/><feColorMatrix in="blurOut" result="blurOut2" type="matrix" values="0 0 0 0 0 0 0 0 0 0 0 0 0 0 0 0 0 0 .4 0"/><feOffset dx="4.0" dy="4.0" in="blurOut2" result="blurOut3"/><feBlend in="SourceGraphic" in2="blurOut3" mode="normal"/></filter></defs><g><!--MD5=[e4faacc5b8aef66b11ab0c816bbbc7f8]
class Scene--><rect codeLine="4" fill="#FEFECE" filter="url(#f13bvmhb3yfsbv)" height="150.4375" id="Scene" style="stroke:#A80036;stroke-width:1.5;" width="347" x="7" y="7"/><ellipse cx="156.75" cy="23" fill="#A9DCDF" rx="11" ry="11" style="stroke:#A80036;stroke-width:1.0;"/><path d="M156.8594,18.3438 L155.7031,23.4219 L158.0313,23.4219 L156.8594,18.3438 Z M155.375,16.1094 L158.3594,16.1094 L161.7188,28.5 L159.2656,28.5 L158.5,25.4375 L155.2188,25.4375 L154.4688,28.5 L152.0313,28.5 L155.375,16.1094 Z " fill="#000000"/><text fill="#000000" font-family="sans-serif" font-size="12" font-style="italic" lengthAdjust="spacing" textLength="39" x="177.25" y="27.1543">Scene</text><line style="stroke:#A80036;stroke-width:1.5;" x1="8" x2="353" y1="39" y2="39"/><ellipse cx="18" cy="50" rx="3" ry="3" style="stroke:#038048;stroke-width:1.0;fill:none;"/><text fill="#000000" font-family="sans-serif" font-size="11" lengthAdjust="spacing" textLength="184" x="27" y="53.2104">components : Set&lt;Component&gt;</text><ellipse cx="18" cy="62.8047" rx="3" ry="3" style="stroke:#038048;stroke-width:1.0;fill:none;"/><text fill="#000000" font-family="sans-serif" font-size="11" lengthAdjust="spacing" textLength="97" x="27" y="66.0151">system : System</text><line style="stroke:#A80036;stroke-width:1.5;" x1="8" x2="353" y1="72.6094" y2="72.6094"/><ellipse cx="18" cy="83.6094" fill="#84BE84" rx="3" ry="3" style="stroke:#038048;stroke-width:1.0;"/><text fill="#000000" font-family="sans-serif" font-size="11" lengthAdjust="spacing" textLength="75" x="27" y="86.8198">empty() : any</text><ellipse cx="18" cy="96.4141" fill="#84BE84" rx="3" ry="3" style="stroke:#038048;stroke-width:1.0;"/><text fill="#000000" font-family="sans-serif" font-size="11" font-style="italic" lengthAdjust="spacing" textLength="227" x="27" y="99.6245">filter(component: Component) : boolean</text><ellipse cx="18" cy="109.2188" fill="#84BE84" rx="3" ry="3" style="stroke:#038048;stroke-width:1.0;"/><text fill="#000000" font-family="sans-serif" font-size="11" lengthAdjust="spacing" textLength="80" x="27" y="112.4292">gizmos() : any</text><ellipse cx="18" cy="122.0234" fill="#84BE84" rx="3" ry="3" style="stroke:#038048;stroke-width:1.0;"/><text fill="#000000" font-family="sans-serif" font-size="11" lengthAdjust="spacing" textLength="240" x="27" y="125.2339">render(view: View) : void | Promise&lt;void&gt;</text><ellipse cx="18" cy="134.8281" fill="#84BE84" rx="3" ry="3" style="stroke:#038048;stroke-width:1.0;"/><text fill="#000000" font-family="sans-serif" font-size="11" lengthAdjust="spacing" textLength="321" x="27" y="138.0386">update(token: Token&lt;any, any&gt;) : void | Promise&lt;void&gt;</text><ellipse cx="18" cy="147.6328" fill="#84BE84" rx="3" ry="3" style="stroke:#038048;stroke-width:1.0;"/><text fill="#000000" font-family="sans-serif" font-size="11" lengthAdjust="spacing" textLength="233" x="27" y="150.8433">verify(view: View) : void | Promise&lt;void&gt;</text><!--MD5=[6a84e6f5b4704aafa5c16dde6b3ccb57]
class LocalScene--><rect codeLine="14" fill="#FEFECE" filter="url(#f13bvmhb3yfsbv)" height="32" id="LocalScene" style="stroke:#A80036;stroke-width:1.5;" width="104" x="58.5" y="217"/><ellipse cx="73.5" cy="233" fill="#A9DCDF" rx="11" ry="11" style="stroke:#A80036;stroke-width:1.0;"/><path d="M73.6094,228.3438 L72.4531,233.4219 L74.7813,233.4219 L73.6094,228.3438 Z M72.125,226.1094 L75.1094,226.1094 L78.4688,238.5 L76.0156,238.5 L75.25,235.4375 L71.9688,235.4375 L71.2188,238.5 L68.7813,238.5 L72.125,226.1094 Z " fill="#000000"/><text fill="#000000" font-family="sans-serif" font-size="12" font-style="italic" lengthAdjust="spacing" textLength="72" x="87.5" y="237.1543">LocalScene</text><!--MD5=[effa4f851d4b5ff2cb787c330b681cb8]
class CloudScene--><rect codeLine="17" fill="#FEFECE" filter="url(#f13bvmhb3yfsbv)" height="32" id="CloudScene" style="stroke:#A80036;stroke-width:1.5;" width="106" x="197.5" y="217"/><ellipse cx="212.5" cy="233" fill="#A9DCDF" rx="11" ry="11" style="stroke:#A80036;stroke-width:1.0;"/><path d="M212.6094,228.3438 L211.4531,233.4219 L213.7813,233.4219 L212.6094,228.3438 Z M211.125,226.1094 L214.1094,226.1094 L217.4688,238.5 L215.0156,238.5 L214.25,235.4375 L210.9688,235.4375 L210.2188,238.5 L207.7813,238.5 L211.125,226.1094 Z " fill="#000000"/><text fill="#000000" font-family="sans-serif" font-size="12" font-style="italic" lengthAdjust="spacing" textLength="74" x="226.5" y="237.1543">CloudScene</text><!--MD5=[5fb5f9269759da5d1cab07817d482b13]
reverse link Scene to LocalScene--><path codeLine="16" d="M137.18,175.22 C129.6,191.34 122.58,206.28 117.65,216.78 " fill="none" id="Scene-backto-LocalScene" style="stroke:#A80036;stroke-width:1.0;"/><polygon fill="none" points="130.87,172.19,145.71,157.06,143.54,178.14,130.87,172.19" style="stroke:#A80036;stroke-width:1.0;"/><!--MD5=[3dcd8b67d58bc44d5ae980402595f4f8]
reverse link Scene to CloudScene--><path codeLine="19" d="M223.82,175.22 C231.4,191.34 238.42,206.28 243.35,216.78 " fill="none" id="Scene-backto-CloudScene" style="stroke:#A80036;stroke-width:1.0;"/><polygon fill="none" points="217.46,178.14,215.29,157.06,230.13,172.19,217.46,178.14" style="stroke:#A80036;stroke-width:1.0;"/><!--MD5=[d34eb7faa9f58edccd748f28e28b9c0b]
@startuml
skinparam BackgroundColor transparent
hide empty methods
hide empty fields
abstract class "Scene" {
    +components : Set<Component>
    +system : System
    +empty() : any
    {abstract} +filter(component: Component) : boolean
    +gizmos() : any
    +render(view: View) : void | Promise<void>
    +update(token: Token<any, any>) : void | Promise<void>
    +verify(view: View) : void | Promise<void>
}
abstract class "LocalScene" {
}
"Scene" <|- - "LocalScene"
abstract class "CloudScene" {
}
"Scene" <|- - "CloudScene"
@enduml

PlantUML version 1.2021.14(Fri Nov 12 16:46:50 UTC 2021)
(GPL source distribution)
Java Runtime: OpenJDK Runtime Environment
JVM: OpenJDK 64-Bit Server VM
Default Encoding: UTF-8
Language: en
Country: null
--></g></svg>