<?xml version="1.0" encoding="UTF-8" standalone="no"?><svg xmlns="http://www.w3.org/2000/svg" xmlns:xlink="http://www.w3.org/1999/xlink" contentScriptType="application/ecmascript" contentStyleType="text/css" height="225px" preserveAspectRatio="none" style="width:195px;height:225px;background:#00000000;" version="1.1" viewBox="0 0 195 225" width="195px" zoomAndPan="magnify"><defs><filter height="300%" id="fzecpnwau1foe" width="300%" x="-1" y="-1"><feGaussianBlur result="blurOut" stdDeviation="2.0"/><feColorMatrix in="blurOut" result="blurOut2" type="matrix" values="0 0 0 0 0 0 0 0 0 0 0 0 0 0 0 0 0 0 .4 0"/><feOffset dx="4.0" dy="4.0" in="blurOut2" result="blurOut3"/><feBlend in="SourceGraphic" in2="blurOut3" mode="normal"/></filter></defs><g><!--MD5=[b4c50975a76324a165b81644437ddac2]
class TextFileOptions--><rect codeLine="4" fill="#FEFECE" filter="url(#fzecpnwau1foe)" height="78.4141" id="TextFileOptions" style="stroke:#A80036;stroke-width:1.5;" width="126" x="31" y="133"/><ellipse cx="46" cy="149" fill="#B4A7E5" rx="11" ry="11" style="stroke:#A80036;stroke-width:1.0;"/><path d="M41.9219,144.7656 L41.9219,142.6094 L49.3125,142.6094 L49.3125,144.7656 L46.8438,144.7656 L46.8438,152.8438 L49.3125,152.8438 L49.3125,155 L41.9219,155 L41.9219,152.8438 L44.3906,152.8438 L44.3906,144.7656 L41.9219,144.7656 Z " fill="#000000"/><text fill="#000000" font-family="sans-serif" font-size="12" font-style="italic" lengthAdjust="spacing" textLength="94" x="60" y="153.1543">TextFileOptions</text><line style="stroke:#A80036;stroke-width:1.5;" x1="32" x2="156" y1="165" y2="165"/><ellipse cx="42" cy="176" rx="3" ry="3" style="stroke:#038048;stroke-width:1.0;fill:none;"/><text fill="#000000" font-family="sans-serif" font-size="11" lengthAdjust="spacing" textLength="87" x="51" y="179.2104">content : string</text><ellipse cx="42" cy="188.8047" rx="3" ry="3" style="stroke:#038048;stroke-width:1.0;fill:none;"/><text fill="#000000" font-family="sans-serif" font-size="11" lengthAdjust="spacing" textLength="95" x="51" y="192.0151">directory : string</text><ellipse cx="42" cy="201.6094" rx="3" ry="3" style="stroke:#038048;stroke-width:1.0;fill:none;"/><text fill="#000000" font-family="sans-serif" font-size="11" lengthAdjust="spacing" textLength="77" x="51" y="204.8198">name : string</text><!--MD5=[d881b4280032fdcfc20240edd3f5fae9]
class FileSystemBaseOptions--><rect codeLine="9" fill="#FEFECE" filter="url(#fzecpnwau1foe)" height="65.6094" id="FileSystemBaseOptions" style="stroke:#A80036;stroke-width:1.5;" width="174" x="7" y="7"/><ellipse cx="22" cy="23" fill="#B4A7E5" rx="11" ry="11" style="stroke:#A80036;stroke-width:1.0;"/><path d="M17.9219,18.7656 L17.9219,16.6094 L25.3125,16.6094 L25.3125,18.7656 L22.8438,18.7656 L22.8438,26.8438 L25.3125,26.8438 L25.3125,29 L17.9219,29 L17.9219,26.8438 L20.3906,26.8438 L20.3906,18.7656 L17.9219,18.7656 Z " fill="#000000"/><text fill="#000000" font-family="sans-serif" font-size="12" font-style="italic" lengthAdjust="spacing" textLength="142" x="36" y="27.1543">FileSystemBaseOptions</text><line style="stroke:#A80036;stroke-width:1.5;" x1="8" x2="180" y1="39" y2="39"/><ellipse cx="18" cy="50" rx="3" ry="3" style="stroke:#038048;stroke-width:1.0;fill:none;"/><text fill="#000000" font-family="sans-serif" font-size="11" lengthAdjust="spacing" textLength="95" x="27" y="53.2104">directory : string</text><ellipse cx="18" cy="62.8047" rx="3" ry="3" style="stroke:#038048;stroke-width:1.0;fill:none;"/><text fill="#000000" font-family="sans-serif" font-size="11" lengthAdjust="spacing" textLength="77" x="27" y="66.0151">name : string</text><!--MD5=[b81f7ff9c7be82cfb5d99ca1d97e6414]
reverse link FileSystemBaseOptions to TextFileOptions--><path codeLine="13" d="M94,93.51 C94,106.64 94,120.47 94,132.76 " fill="none" id="FileSystemBaseOptions-backto-TextFileOptions" style="stroke:#A80036;stroke-width:1.0;"/><polygon fill="none" points="87,93.13,94,73.13,101,93.13,87,93.13" style="stroke:#A80036;stroke-width:1.0;"/><!--MD5=[99f886b536c39b49b725c051a7b25de2]
@startuml
skinparam BackgroundColor transparent
hide empty methods
hide empty fields
interface "TextFileOptions" {
    +content : string
    +directory : string
    +name : string
}
interface "FileSystemBaseOptions" {
    +directory : string
    +name : string
}
"FileSystemBaseOptions" <|- - "TextFileOptions"
@enduml

PlantUML version 1.2021.14(Fri Nov 12 16:46:50 UTC 2021)
(GPL source distribution)
Java Runtime: OpenJDK Runtime Environment
JVM: OpenJDK 64-Bit Server VM
Default Encoding: UTF-8
Language: en
Country: null
--></g></svg>