<?xml version="1.0" encoding="UTF-8" standalone="no"?><svg xmlns="http://www.w3.org/2000/svg" xmlns:xlink="http://www.w3.org/1999/xlink" contentScriptType="application/ecmascript" contentStyleType="text/css" height="343px" preserveAspectRatio="none" style="width:352px;height:343px;background:#00000000;" version="1.1" viewBox="0 0 352 343" width="352px" zoomAndPan="magnify"><defs><filter height="300%" id="f1jxebus5j1g0g" width="300%" x="-1" y="-1"><feGaussianBlur result="blurOut" stdDeviation="2.0"/><feColorMatrix in="blurOut" result="blurOut2" type="matrix" values="0 0 0 0 0 0 0 0 0 0 0 0 0 0 0 0 0 0 .4 0"/><feOffset dx="4.0" dy="4.0" in="blurOut2" result="blurOut3"/><feBlend in="SourceGraphic" in2="blurOut3" mode="normal"/></filter></defs><g><!--MD5=[3fed11c3e57101741c7916d75e588464]
class TextFile--><rect codeLine="4" fill="#FEFECE" filter="url(#f1jxebus5j1g0g)" height="137.6328" id="TextFile" style="stroke:#A80036;stroke-width:1.5;" width="327" x="9" y="192"/><ellipse cx="144.25" cy="208" fill="#A9DCDF" rx="11" ry="11" style="stroke:#A80036;stroke-width:1.0;"/><path d="M144.3594,203.3438 L143.2031,208.4219 L145.5313,208.4219 L144.3594,203.3438 Z M142.875,201.1094 L145.8594,201.1094 L149.2188,213.5 L146.7656,213.5 L146,210.4375 L142.7188,210.4375 L141.9688,213.5 L139.5313,213.5 L142.875,201.1094 Z " fill="#000000"/><text fill="#000000" font-family="sans-serif" font-size="12" font-style="italic" lengthAdjust="spacing" textLength="48" x="164.75" y="212.1543">TextFile</text><line style="stroke:#A80036;stroke-width:1.5;" x1="10" x2="335" y1="224" y2="224"/><ellipse cx="20" cy="235" rx="3" ry="3" style="stroke:#038048;stroke-width:1.0;fill:none;"/><text fill="#000000" font-family="sans-serif" font-size="11" lengthAdjust="spacing" textLength="87" x="29" y="238.2104">content : string</text><ellipse cx="20" cy="247.8047" rx="3" ry="3" style="stroke:#038048;stroke-width:1.0;fill:none;"/><text fill="#000000" font-family="sans-serif" font-size="11" lengthAdjust="spacing" textLength="95" x="29" y="251.0151">directory : string</text><ellipse cx="20" cy="260.6094" rx="3" ry="3" style="stroke:#038048;stroke-width:1.0;fill:none;"/><text fill="#000000" font-family="sans-serif" font-size="11" lengthAdjust="spacing" textLength="77" x="29" y="263.8198">name : string</text><ellipse cx="20" cy="273.4141" rx="3" ry="3" style="stroke:#038048;stroke-width:1.0;fill:none;"/><text fill="#000000" font-family="sans-serif" font-size="11" lengthAdjust="spacing" textLength="163" x="29" y="276.6245">[ComponentHandle] : Handle</text><line style="stroke:#A80036;stroke-width:1.5;" x1="10" x2="335" y1="283.2188" y2="283.2188"/><ellipse cx="20" cy="294.2188" fill="#84BE84" rx="3" ry="3" style="stroke:#038048;stroke-width:1.0;"/><text fill="#000000" font-family="sans-serif" font-size="11" lengthAdjust="spacing" textLength="301" x="29" y="297.4292">[ComponentRender](out: __module) : Promise&lt;void&gt;</text><ellipse cx="20" cy="307.0234" fill="#84BE84" rx="3" ry="3" style="stroke:#038048;stroke-width:1.0;"/><text fill="#000000" font-family="sans-serif" font-size="11" lengthAdjust="spacing" textLength="221" x="29" y="310.2339">[ComponentUpdate]() : Promise&lt;void&gt;</text><ellipse cx="20" cy="319.8281" fill="#84BE84" rx="3" ry="3" style="stroke:#038048;stroke-width:1.0;"/><text fill="#000000" font-family="sans-serif" font-size="11" lengthAdjust="spacing" textLength="248" x="29" y="323.0386">[ComponentVerify]() : void | Promise&lt;void&gt;</text><!--MD5=[946cf32c4909f60ec87eb8fd56ac8dfa]
class FileSystemComponent--><rect codeLine="13" fill="#FEFECE" filter="url(#f1jxebus5j1g0g)" height="124.8281" id="FileSystemComponent" style="stroke:#A80036;stroke-width:1.5;" width="331" x="7" y="7"/><ellipse cx="99.25" cy="23" fill="#A9DCDF" rx="11" ry="11" style="stroke:#A80036;stroke-width:1.0;"/><path d="M99.3594,18.3438 L98.2031,23.4219 L100.5313,23.4219 L99.3594,18.3438 Z M97.875,16.1094 L100.8594,16.1094 L104.2188,28.5 L101.7656,28.5 L101,25.4375 L97.7188,25.4375 L96.9688,28.5 L94.5313,28.5 L97.875,16.1094 Z " fill="#000000"/><text fill="#000000" font-family="sans-serif" font-size="12" font-style="italic" lengthAdjust="spacing" textLength="138" x="119.75" y="27.1543">FileSystemComponent</text><line style="stroke:#A80036;stroke-width:1.5;" x1="8" x2="337" y1="39" y2="39"/><ellipse cx="18" cy="50" rx="3" ry="3" style="stroke:#038048;stroke-width:1.0;fill:none;"/><text fill="#000000" font-family="sans-serif" font-size="11" lengthAdjust="spacing" textLength="95" x="27" y="53.2104">directory : string</text><ellipse cx="18" cy="62.8047" rx="3" ry="3" style="stroke:#038048;stroke-width:1.0;fill:none;"/><text fill="#000000" font-family="sans-serif" font-size="11" lengthAdjust="spacing" textLength="77" x="27" y="66.0151">name : string</text><ellipse cx="18" cy="75.6094" rx="3" ry="3" style="stroke:#038048;stroke-width:1.0;fill:none;"/><text fill="#000000" font-family="sans-serif" font-size="11" lengthAdjust="spacing" textLength="163" x="27" y="78.8198">[ComponentHandle] : Handle</text><line style="stroke:#A80036;stroke-width:1.5;" x1="8" x2="337" y1="85.4141" y2="85.4141"/><ellipse cx="18" cy="96.4141" fill="#84BE84" rx="3" ry="3" style="stroke:#038048;stroke-width:1.0;"/><text fill="#000000" font-family="sans-serif" font-size="11" font-style="italic" lengthAdjust="spacing" textLength="305" x="27" y="99.6245">[ComponentRender](out: any) : void | Promise&lt;void&gt;</text><ellipse cx="18" cy="109.2188" fill="#84BE84" rx="3" ry="3" style="stroke:#038048;stroke-width:1.0;"/><text fill="#000000" font-family="sans-serif" font-size="11" lengthAdjust="spacing" textLength="221" x="27" y="112.4292">[ComponentUpdate]() : Promise&lt;void&gt;</text><ellipse cx="18" cy="122.0234" fill="#84BE84" rx="3" ry="3" style="stroke:#038048;stroke-width:1.0;"/><text fill="#000000" font-family="sans-serif" font-size="11" lengthAdjust="spacing" textLength="248" x="27" y="125.2339">[ComponentVerify]() : void | Promise&lt;void&gt;</text><!--MD5=[e9c0f2da9c5ccef4608f4755289239d6]
reverse link FileSystemComponent to TextFile--><path codeLine="21" d="M172.5,152.33 C172.5,165.53 172.5,179.07 172.5,191.9 " fill="none" id="FileSystemComponent-backto-TextFile" style="stroke:#A80036;stroke-width:1.0;"/><polygon fill="none" points="165.5,152.03,172.5,132.03,179.5,152.03,165.5,152.03" style="stroke:#A80036;stroke-width:1.0;"/><!--MD5=[f79d3e3a7aec0dd7d39cafb7de65598e]
@startuml
skinparam BackgroundColor transparent
hide empty methods
hide empty fields
abstract class "TextFile" {
    +content : string
    +directory : string
    +name : string
    +[ComponentHandle] : Handle
    +[ComponentRender](out: __module) : Promise<void>
    +[ComponentUpdate]() : Promise<void>
    +[ComponentVerify]() : void | Promise<void>
}
abstract class "FileSystemComponent" {
    +directory : string
    +name : string
    +[ComponentHandle] : Handle
    {abstract} +[ComponentRender](out: any) : void | Promise<void>
    +[ComponentUpdate]() : Promise<void>
    +[ComponentVerify]() : void | Promise<void>
}
"FileSystemComponent" <|- - "TextFile"
@enduml

PlantUML version 1.2021.14(Fri Nov 12 16:46:50 UTC 2021)
(GPL source distribution)
Java Runtime: OpenJDK Runtime Environment
JVM: OpenJDK 64-Bit Server VM
Default Encoding: UTF-8
Language: en
Country: null
--></g></svg>