<?xml version="1.0" encoding="UTF-8" standalone="no"?><svg xmlns="http://www.w3.org/2000/svg" xmlns:xlink="http://www.w3.org/1999/xlink" contentScriptType="application/ecmascript" contentStyleType="text/css" height="484px" preserveAspectRatio="none" style="width:324px;height:484px;background:#00000000;" version="1.1" viewBox="0 0 324 484" width="324px" zoomAndPan="magnify"><defs><filter height="300%" id="f1bpb1k50eqde1" width="300%" x="-1" y="-1"><feGaussianBlur result="blurOut" stdDeviation="2.0"/><feColorMatrix in="blurOut" result="blurOut2" type="matrix" values="0 0 0 0 0 0 0 0 0 0 0 0 0 0 0 0 0 0 .4 0"/><feOffset dx="4.0" dy="4.0" in="blurOut2" result="blurOut3"/><feBlend in="SourceGraphic" in2="blurOut3" mode="normal"/></filter></defs><g><!--MD5=[321b161cc896e375af73dbaab95832ad]
class Token<ConcreteType, UserDataType>--><rect codeLine="4" fill="#FEFECE" filter="url(#f1bpb1k50eqde1)" height="278.4844" id="Token&lt;ConcreteType, UserDataType&gt;" style="stroke:#A80036;stroke-width:1.5;" width="303" x="7" y="192"/><ellipse cx="35.95" cy="208" fill="#ADD1B2" rx="11" ry="11" style="stroke:#A80036;stroke-width:1.0;"/><path d="M38.9188,213.6406 Q38.3406,213.9375 37.7,214.0781 Q37.0594,214.2344 36.3563,214.2344 Q33.8563,214.2344 32.5281,212.5938 Q31.2156,210.9375 31.2156,207.8125 Q31.2156,204.6875 32.5281,203.0313 Q33.8563,201.375 36.3563,201.375 Q37.0594,201.375 37.7,201.5313 Q38.3563,201.6875 38.9188,201.9844 L38.9188,204.7031 Q38.2938,204.125 37.7,203.8594 Q37.1063,203.5781 36.4813,203.5781 Q35.1375,203.5781 34.45,204.6563 Q33.7625,205.7188 33.7625,207.8125 Q33.7625,209.9063 34.45,210.9844 Q35.1375,212.0469 36.4813,212.0469 Q37.1063,212.0469 37.7,211.7813 Q38.2938,211.5 38.9188,210.9219 L38.9188,213.6406 Z " fill="#000000"/><text fill="#000000" font-family="sans-serif" font-size="12" lengthAdjust="spacing" textLength="240" x="53.05" y="212.1543">Token&lt;ConcreteType, UserDataType&gt;</text><line style="stroke:#A80036;stroke-width:1.5;" x1="8" x2="309" y1="224" y2="224"/><ellipse cx="18" cy="235" rx="3" ry="3" style="stroke:#038048;stroke-width:1.0;fill:none;"/><text fill="#000000" font-family="sans-serif" font-size="11" lengthAdjust="spacing" textLength="77" x="27" y="238.2104">name : string</text><ellipse cx="18" cy="247.8047" rx="3" ry="3" style="stroke:#038048;stroke-width:1.0;fill:none;"/><text fill="#000000" font-family="sans-serif" font-size="11" lengthAdjust="spacing" textLength="75" x="27" y="251.0151">parent : Tree</text><ellipse cx="18" cy="260.6094" rx="3" ry="3" style="stroke:#038048;stroke-width:1.0;fill:none;"/><text fill="#000000" font-family="sans-serif" font-size="11" lengthAdjust="spacing" textLength="83" x="27" y="263.8198">_name : string</text><rect fill="none" height="6" style="stroke:#C82930;stroke-width:1.0;" width="6" x="15" y="270.4141"/><text fill="#000000" font-family="sans-serif" font-size="11" lengthAdjust="spacing" textLength="123" x="27" y="276.6245">_data : UserDataType</text><rect fill="none" height="6" style="stroke:#C82930;stroke-width:1.0;" width="6" x="15" y="283.2188"/><text fill="#000000" font-family="sans-serif" font-size="11" lengthAdjust="spacing" textLength="210" x="27" y="289.4292">_resolver : Resolver&lt;ConcreteType&gt;</text><line style="stroke:#A80036;stroke-width:1.5;" x1="8" x2="309" y1="296.0234" y2="296.0234"/><ellipse cx="18" cy="307.0234" fill="#84BE84" rx="3" ry="3" style="stroke:#038048;stroke-width:1.0;"/><text fill="#000000" font-family="sans-serif" font-size="11" lengthAdjust="spacing" textLength="99" x="27" y="310.2339">children() : Tree[]</text><ellipse cx="18" cy="319.8281" fill="#84BE84" rx="3" ry="3" style="stroke:#038048;stroke-width:1.0;"/><text fill="#000000" font-family="sans-serif" font-size="11" lengthAdjust="spacing" text-decoration="underline" textLength="204" x="27" y="323.0386">IsToken(serialized: string) : boolean</text><ellipse cx="18" cy="332.6328" fill="#84BE84" rx="3" ry="3" style="stroke:#038048;stroke-width:1.0;"/><text fill="#000000" font-family="sans-serif" font-size="11" lengthAdjust="spacing" text-decoration="underline" textLength="157" x="27" y="335.8433">IsToken(any: any) : boolean</text><ellipse cx="18" cy="345.4375" fill="#84BE84" rx="3" ry="3" style="stroke:#038048;stroke-width:1.0;"/><text fill="#000000" font-family="sans-serif" font-size="11" lengthAdjust="spacing" text-decoration="underline" textLength="262" x="27" y="348.6479">NameOf&lt;T&gt;(cb: Function, sep: string) : string</text><ellipse cx="18" cy="358.2422" fill="#84BE84" rx="3" ry="3" style="stroke:#038048;stroke-width:1.0;"/><text fill="#000000" font-family="sans-serif" font-size="11" lengthAdjust="spacing" textLength="180" x="27" y="361.4526">path(opts: PathOptions) : string</text><ellipse cx="18" cy="371.0469" fill="#84BE84" rx="3" ry="3" style="stroke:#038048;stroke-width:1.0;"/><text fill="#000000" font-family="sans-serif" font-size="11" lengthAdjust="spacing" textLength="245" x="27" y="374.2573">query&lt;T&gt;(cb: Function) : Token&lt;any, any&gt;</text><ellipse cx="18" cy="383.8516" fill="#84BE84" rx="3" ry="3" style="stroke:#038048;stroke-width:1.0;"/><text fill="#000000" font-family="sans-serif" font-size="11" lengthAdjust="spacing" textLength="273" x="27" y="387.062">reset(resolver: Resolver&lt;ConcreteType&gt;) : void</text><ellipse cx="18" cy="396.6563" fill="#84BE84" rx="3" ry="3" style="stroke:#038048;stroke-width:1.0;"/><text fill="#000000" font-family="sans-serif" font-size="11" lengthAdjust="spacing" textLength="205" x="27" y="399.8667">resolve() : Promise&lt;ConcreteType&gt;</text><ellipse cx="18" cy="409.4609" fill="#84BE84" rx="3" ry="3" style="stroke:#038048;stroke-width:1.0;"/><text fill="#000000" font-family="sans-serif" font-size="11" lengthAdjust="spacing" textLength="69" x="27" y="412.6714">root() : Tree</text><ellipse cx="18" cy="422.2656" fill="#84BE84" rx="3" ry="3" style="stroke:#038048;stroke-width:1.0;"/><text fill="#000000" font-family="sans-serif" font-size="11" lengthAdjust="spacing" textLength="100" x="27" y="425.4761">serialize() : string</text><ellipse cx="18" cy="435.0703" fill="#84BE84" rx="3" ry="3" style="stroke:#038048;stroke-width:1.0;"/><text fill="#000000" font-family="sans-serif" font-size="11" lengthAdjust="spacing" textLength="92" x="27" y="438.2808">toJSON() : string</text><ellipse cx="18" cy="447.875" fill="#84BE84" rx="3" ry="3" style="stroke:#038048;stroke-width:1.0;"/><text fill="#000000" font-family="sans-serif" font-size="11" lengthAdjust="spacing" textLength="98" x="27" y="451.0854">toString() : string</text><ellipse cx="18" cy="460.6797" fill="#84BE84" rx="3" ry="3" style="stroke:#038048;stroke-width:1.0;"/><text fill="#000000" font-family="sans-serif" font-size="11" lengthAdjust="spacing" text-decoration="underline" textLength="277" x="27" y="463.8901">Wrap(value: any, opts: Options&lt;any, any&gt;) : any</text><!--MD5=[bb7f1c801adcc1c297b2d9190618259c]
class Tree--><rect codeLine="24" fill="#FEFECE" filter="url(#f1bpb1k50eqde1)" height="124.8281" id="Tree" style="stroke:#A80036;stroke-width:1.5;" width="206" x="55.5" y="7"/><ellipse cx="140.25" cy="23" fill="#ADD1B2" rx="11" ry="11" style="stroke:#A80036;stroke-width:1.0;"/><path d="M143.2188,28.6406 Q142.6406,28.9375 142,29.0781 Q141.3594,29.2344 140.6563,29.2344 Q138.1563,29.2344 136.8281,27.5938 Q135.5156,25.9375 135.5156,22.8125 Q135.5156,19.6875 136.8281,18.0313 Q138.1563,16.375 140.6563,16.375 Q141.3594,16.375 142,16.5313 Q142.6563,16.6875 143.2188,16.9844 L143.2188,19.7031 Q142.5938,19.125 142,18.8594 Q141.4063,18.5781 140.7813,18.5781 Q139.4375,18.5781 138.75,19.6563 Q138.0625,20.7188 138.0625,22.8125 Q138.0625,24.9063 138.75,25.9844 Q139.4375,27.0469 140.7813,27.0469 Q141.4063,27.0469 142,26.7813 Q142.5938,26.5 143.2188,25.9219 L143.2188,28.6406 Z " fill="#000000"/><text fill="#000000" font-family="sans-serif" font-size="12" lengthAdjust="spacing" textLength="28" x="160.75" y="27.1543">Tree</text><line style="stroke:#A80036;stroke-width:1.5;" x1="56.5" x2="260.5" y1="39" y2="39"/><ellipse cx="66.5" cy="50" rx="3" ry="3" style="stroke:#038048;stroke-width:1.0;fill:none;"/><text fill="#000000" font-family="sans-serif" font-size="11" lengthAdjust="spacing" textLength="75" x="75.5" y="53.2104">parent : Tree</text><ellipse cx="66.5" cy="62.8047" rx="3" ry="3" style="stroke:#038048;stroke-width:1.0;fill:none;"/><text fill="#000000" font-family="sans-serif" font-size="11" lengthAdjust="spacing" textLength="83" x="75.5" y="66.0151">_name : string</text><rect fill="none" height="6" style="stroke:#C82930;stroke-width:1.0;" width="6" x="63.5" y="72.6094"/><text fill="#000000" font-family="sans-serif" font-size="11" lengthAdjust="spacing" textLength="126" x="75.5" y="78.8198">_children : Set&lt;Tree&gt;</text><line style="stroke:#A80036;stroke-width:1.5;" x1="56.5" x2="260.5" y1="85.4141" y2="85.4141"/><ellipse cx="66.5" cy="96.4141" fill="#84BE84" rx="3" ry="3" style="stroke:#038048;stroke-width:1.0;"/><text fill="#000000" font-family="sans-serif" font-size="11" lengthAdjust="spacing" textLength="99" x="75.5" y="99.6245">children() : Tree[]</text><ellipse cx="66.5" cy="109.2188" fill="#84BE84" rx="3" ry="3" style="stroke:#038048;stroke-width:1.0;"/><text fill="#000000" font-family="sans-serif" font-size="11" lengthAdjust="spacing" textLength="180" x="75.5" y="112.4292">path(opts: PathOptions) : string</text><ellipse cx="66.5" cy="122.0234" fill="#84BE84" rx="3" ry="3" style="stroke:#038048;stroke-width:1.0;"/><text fill="#000000" font-family="sans-serif" font-size="11" lengthAdjust="spacing" textLength="69" x="75.5" y="125.2339">root() : Tree</text><!--MD5=[a8c878b1220fe5d587d6c9708e2c1c82]
reverse link Tree to Token<ConcreteType, UserDataType>--><path codeLine="32" d="M158.5,152.74 C158.5,165.31 158.5,178.58 158.5,191.97 " fill="none" id="Tree-backto-Token&lt;ConcreteType, UserDataType&gt;" style="stroke:#A80036;stroke-width:1.0;"/><polygon fill="none" points="151.5,152.33,158.5,132.33,165.5,152.33,151.5,152.33" style="stroke:#A80036;stroke-width:1.0;"/><!--MD5=[6054a57319e6643eb28cc373d4da8d02]
@startuml
skinparam BackgroundColor transparent
hide empty methods
hide empty fields
class "Token<ConcreteType, UserDataType>" {
    +name : string
    +parent : Tree
    +_name : string
    -_data : UserDataType
    -_resolver : Resolver<ConcreteType>
    +children() : Tree[]
    {static} +IsToken(serialized: string) : boolean
    {static} +IsToken(any: any) : boolean
    {static} +NameOf<T>(cb: Function, sep: string) : string
    +path(opts: PathOptions) : string
    +query<T>(cb: Function) : Token<any, any>
    +reset(resolver: Resolver<ConcreteType>) : void
    +resolve() : Promise<ConcreteType>
    +root() : Tree
    +serialize() : string
    +toJSON() : string
    +toString() : string
    {static} +Wrap(value: any, opts: Options<any, any>) : any
}
class "Tree" {
    +parent : Tree
    +_name : string
    -_children : Set<Tree>
    +children() : Tree[]
    +path(opts: PathOptions) : string
    +root() : Tree
}
"Tree" <|- - "Token<ConcreteType, UserDataType>"
@enduml

PlantUML version 1.2021.14(Fri Nov 12 16:46:50 UTC 2021)
(GPL source distribution)
Java Runtime: OpenJDK Runtime Environment
JVM: OpenJDK 64-Bit Server VM
Default Encoding: UTF-8
Language: en
Country: null
--></g></svg>