<?xml version="1.0" encoding="UTF-8" standalone="no"?><svg xmlns="http://www.w3.org/2000/svg" xmlns:xlink="http://www.w3.org/1999/xlink" contentScriptType="application/ecmascript" contentStyleType="text/css" height="386px" preserveAspectRatio="none" style="width:384px;height:386px;background:#00000000;" version="1.1" viewBox="0 0 384 386" width="384px" zoomAndPan="magnify"><defs><filter height="300%" id="f13s1jnqccxrtu" width="300%" x="-1" y="-1"><feGaussianBlur result="blurOut" stdDeviation="2.0"/><feColorMatrix in="blurOut" result="blurOut2" type="matrix" values="0 0 0 0 0 0 0 0 0 0 0 0 0 0 0 0 0 0 .4 0"/><feOffset dx="4.0" dy="4.0" in="blurOut2" result="blurOut3"/><feBlend in="SourceGraphic" in2="blurOut3" mode="normal"/></filter></defs><g><!--MD5=[321b161cc896e375af73dbaab95832ad]
class Token<ConcreteType, UserDataType>--><rect codeLine="4" fill="#FEFECE" filter="url(#f13s1jnqccxrtu)" height="206.4609" id="Token&lt;ConcreteType, UserDataType&gt;" style="stroke:#A80036;stroke-width:1.5;" width="363" x="7" y="166"/><ellipse cx="64.25" cy="182" fill="#ADD1B2" rx="11" ry="11" style="stroke:#A80036;stroke-width:1.0;"/><path d="M67.2188,187.6406 Q66.6406,187.9375 66,188.0781 Q65.3594,188.2344 64.6563,188.2344 Q62.1563,188.2344 60.8281,186.5938 Q59.5156,184.9375 59.5156,181.8125 Q59.5156,178.6875 60.8281,177.0313 Q62.1563,175.375 64.6563,175.375 Q65.3594,175.375 66,175.5313 Q66.6563,175.6875 67.2188,175.9844 L67.2188,178.7031 Q66.5938,178.125 66,177.8594 Q65.4063,177.5781 64.7813,177.5781 Q63.4375,177.5781 62.75,178.6563 Q62.0625,179.7188 62.0625,181.8125 Q62.0625,183.9063 62.75,184.9844 Q63.4375,186.0469 64.7813,186.0469 Q65.4063,186.0469 66,185.7813 Q66.5938,185.5 67.2188,184.9219 L67.2188,187.6406 Z " fill="#000000"/><text fill="#000000" font-family="sans-serif" font-size="12" lengthAdjust="spacing" textLength="240" x="84.75" y="186.1543">Token&lt;ConcreteType, UserDataType&gt;</text><line style="stroke:#A80036;stroke-width:1.5;" x1="8" x2="369" y1="198" y2="198"/><ellipse cx="18" cy="209" fill="#84BE84" rx="3" ry="3" style="stroke:#038048;stroke-width:1.0;"/><text fill="#000000" font-family="sans-serif" font-size="11" lengthAdjust="spacing" text-decoration="underline" textLength="204" x="27" y="212.2104">IsToken(serialized: string) : boolean</text><ellipse cx="18" cy="221.8047" fill="#84BE84" rx="3" ry="3" style="stroke:#038048;stroke-width:1.0;"/><text fill="#000000" font-family="sans-serif" font-size="11" lengthAdjust="spacing" text-decoration="underline" textLength="157" x="27" y="225.0151">IsToken(any: any) : boolean</text><ellipse cx="18" cy="234.6094" fill="#84BE84" rx="3" ry="3" style="stroke:#038048;stroke-width:1.0;"/><text fill="#000000" font-family="sans-serif" font-size="11" lengthAdjust="spacing" text-decoration="underline" textLength="337" x="27" y="237.8198">Make&lt;T, U&gt;(options: Options&lt;T, U&gt;) : T &amp; Token&lt;T, any&gt;</text><ellipse cx="18" cy="247.4141" fill="#84BE84" rx="3" ry="3" style="stroke:#038048;stroke-width:1.0;"/><text fill="#000000" font-family="sans-serif" font-size="11" lengthAdjust="spacing" text-decoration="underline" textLength="262" x="27" y="250.6245">NameOf&lt;T&gt;(cb: Function, sep: string) : string</text><ellipse cx="18" cy="260.2188" fill="#84BE84" rx="3" ry="3" style="stroke:#038048;stroke-width:1.0;"/><text fill="#000000" font-family="sans-serif" font-size="11" lengthAdjust="spacing" text-decoration="underline" textLength="188" x="27" y="263.4292">of&lt;T&gt;(value: T) : Token&lt;T, any&gt;</text><ellipse cx="18" cy="273.0234" fill="#84BE84" rx="3" ry="3" style="stroke:#038048;stroke-width:1.0;"/><text fill="#000000" font-family="sans-serif" font-size="11" lengthAdjust="spacing" textLength="245" x="27" y="276.2339">query&lt;T&gt;(cb: Function) : Token&lt;any, any&gt;</text><ellipse cx="18" cy="285.8281" fill="#84BE84" rx="3" ry="3" style="stroke:#038048;stroke-width:1.0;"/><text fill="#000000" font-family="sans-serif" font-size="11" lengthAdjust="spacing" textLength="273" x="27" y="289.0386">reset(resolver: Resolver&lt;ConcreteType&gt;) : void</text><ellipse cx="18" cy="298.6328" fill="#84BE84" rx="3" ry="3" style="stroke:#038048;stroke-width:1.0;"/><text fill="#000000" font-family="sans-serif" font-size="11" lengthAdjust="spacing" textLength="205" x="27" y="301.8433">resolve() : Promise&lt;ConcreteType&gt;</text><ellipse cx="18" cy="311.4375" fill="#84BE84" rx="3" ry="3" style="stroke:#038048;stroke-width:1.0;"/><text fill="#000000" font-family="sans-serif" font-size="11" lengthAdjust="spacing" textLength="100" x="27" y="314.6479">serialize() : string</text><ellipse cx="18" cy="324.2422" fill="#84BE84" rx="3" ry="3" style="stroke:#038048;stroke-width:1.0;"/><text fill="#000000" font-family="sans-serif" font-size="11" lengthAdjust="spacing" textLength="63" x="27" y="327.4526">to&lt;T&gt;() : T</text><ellipse cx="18" cy="337.0469" fill="#84BE84" rx="3" ry="3" style="stroke:#038048;stroke-width:1.0;"/><text fill="#000000" font-family="sans-serif" font-size="11" lengthAdjust="spacing" textLength="92" x="27" y="340.2573">toJSON() : string</text><ellipse cx="18" cy="349.8516" fill="#84BE84" rx="3" ry="3" style="stroke:#038048;stroke-width:1.0;"/><text fill="#000000" font-family="sans-serif" font-size="11" lengthAdjust="spacing" textLength="98" x="27" y="353.062">toString() : string</text><ellipse cx="18" cy="362.6563" fill="#84BE84" rx="3" ry="3" style="stroke:#038048;stroke-width:1.0;"/><text fill="#000000" font-family="sans-serif" font-size="11" lengthAdjust="spacing" text-decoration="underline" textLength="276" x="27" y="365.8667">Wrap&lt;T&gt;(value: T, opts: Options&lt;any, any&gt;) : T</text><!--MD5=[bb7f1c801adcc1c297b2d9190618259c]
class Tree--><rect codeLine="19" fill="#FEFECE" filter="url(#f13s1jnqccxrtu)" height="99.2188" id="Tree" style="stroke:#A80036;stroke-width:1.5;" width="206" x="85.5" y="7"/><ellipse cx="170.25" cy="23" fill="#ADD1B2" rx="11" ry="11" style="stroke:#A80036;stroke-width:1.0;"/><path d="M173.2188,28.6406 Q172.6406,28.9375 172,29.0781 Q171.3594,29.2344 170.6563,29.2344 Q168.1563,29.2344 166.8281,27.5938 Q165.5156,25.9375 165.5156,22.8125 Q165.5156,19.6875 166.8281,18.0313 Q168.1563,16.375 170.6563,16.375 Q171.3594,16.375 172,16.5313 Q172.6563,16.6875 173.2188,16.9844 L173.2188,19.7031 Q172.5938,19.125 172,18.8594 Q171.4063,18.5781 170.7813,18.5781 Q169.4375,18.5781 168.75,19.6563 Q168.0625,20.7188 168.0625,22.8125 Q168.0625,24.9063 168.75,25.9844 Q169.4375,27.0469 170.7813,27.0469 Q171.4063,27.0469 172,26.7813 Q172.5938,26.5 173.2188,25.9219 L173.2188,28.6406 Z " fill="#000000"/><text fill="#000000" font-family="sans-serif" font-size="12" lengthAdjust="spacing" textLength="28" x="190.75" y="27.1543">Tree</text><line style="stroke:#A80036;stroke-width:1.5;" x1="86.5" x2="290.5" y1="39" y2="39"/><ellipse cx="96.5" cy="50" rx="3" ry="3" style="stroke:#038048;stroke-width:1.0;fill:none;"/><text fill="#000000" font-family="sans-serif" font-size="11" lengthAdjust="spacing" textLength="75" x="105.5" y="53.2104">parent : Tree</text><line style="stroke:#A80036;stroke-width:1.5;" x1="86.5" x2="290.5" y1="59.8047" y2="59.8047"/><ellipse cx="96.5" cy="70.8047" fill="#84BE84" rx="3" ry="3" style="stroke:#038048;stroke-width:1.0;"/><text fill="#000000" font-family="sans-serif" font-size="11" lengthAdjust="spacing" textLength="99" x="105.5" y="74.0151">children() : Tree[]</text><ellipse cx="96.5" cy="83.6094" fill="#84BE84" rx="3" ry="3" style="stroke:#038048;stroke-width:1.0;"/><text fill="#000000" font-family="sans-serif" font-size="11" lengthAdjust="spacing" textLength="180" x="105.5" y="86.8198">path(opts: PathOptions) : string</text><ellipse cx="96.5" cy="96.4141" fill="#84BE84" rx="3" ry="3" style="stroke:#038048;stroke-width:1.0;"/><text fill="#000000" font-family="sans-serif" font-size="11" lengthAdjust="spacing" textLength="69" x="105.5" y="99.6245">root() : Tree</text><!--MD5=[a8c878b1220fe5d587d6c9708e2c1c82]
reverse link Tree to Token<ConcreteType, UserDataType>--><path codeLine="25" d="M188.5,126.35 C188.5,138.94 188.5,152.33 188.5,165.65 " fill="none" id="Tree-backto-Token&lt;ConcreteType, UserDataType&gt;" style="stroke:#A80036;stroke-width:1.0;"/><polygon fill="none" points="181.5,126.06,188.5,106.06,195.5,126.06,181.5,126.06" style="stroke:#A80036;stroke-width:1.0;"/><!--MD5=[a0e7039fc49e43c8d0bbbc0f4a5e13c2]
@startuml
skinparam BackgroundColor transparent
hide empty methods
hide empty fields
class "Token<ConcreteType, UserDataType>" {
    {static} +IsToken(serialized: string) : boolean
    {static} +IsToken(any: any) : boolean
    {static} +Make<T, U>(options: Options<T, U>) : T & Token<T, any>
    {static} +NameOf<T>(cb: Function, sep: string) : string
    {static} +of<T>(value: T) : Token<T, any>
    +query<T>(cb: Function) : Token<any, any>
    +reset(resolver: Resolver<ConcreteType>) : void
    +resolve() : Promise<ConcreteType>
    +serialize() : string
    +to<T>() : T
    +toJSON() : string
    +toString() : string
    {static} +Wrap<T>(value: T, opts: Options<any, any>) : T
}
class "Tree" {
    +parent : Tree
    +children() : Tree[]
    +path(opts: PathOptions) : string
    +root() : Tree
}
"Tree" <|- - "Token<ConcreteType, UserDataType>"
@enduml

PlantUML version 1.2021.14(Fri Nov 12 16:46:50 UTC 2021)
(GPL source distribution)
Java Runtime: OpenJDK Runtime Environment
JVM: OpenJDK 64-Bit Server VM
Default Encoding: UTF-8
Language: en
Country: null
--></g></svg>