<?xml version="1.0" encoding="UTF-8" standalone="no"?><svg xmlns="http://www.w3.org/2000/svg" xmlns:xlink="http://www.w3.org/1999/xlink" contentScriptType="application/ecmascript" contentStyleType="text/css" height="484px" preserveAspectRatio="none" style="width:565px;height:484px;background:#00000000;" version="1.1" viewBox="0 0 565 484" width="565px" zoomAndPan="magnify"><defs><filter height="300%" id="f10j061491e1ql" width="300%" x="-1" y="-1"><feGaussianBlur result="blurOut" stdDeviation="2.0"/><feColorMatrix in="blurOut" result="blurOut2" type="matrix" values="0 0 0 0 0 0 0 0 0 0 0 0 0 0 0 0 0 0 .4 0"/><feOffset dx="4.0" dy="4.0" in="blurOut2" result="blurOut3"/><feBlend in="SourceGraphic" in2="blurOut3" mode="normal"/></filter></defs><g><!--MD5=[bb7f1c801adcc1c297b2d9190618259c]
class Tree--><rect codeLine="4" fill="#FEFECE" filter="url(#f10j061491e1ql)" height="124.8281" id="Tree" style="stroke:#A80036;stroke-width:1.5;" width="206" x="152" y="7"/><ellipse cx="236.75" cy="23" fill="#ADD1B2" rx="11" ry="11" style="stroke:#A80036;stroke-width:1.0;"/><path d="M239.7188,28.6406 Q239.1406,28.9375 238.5,29.0781 Q237.8594,29.2344 237.1563,29.2344 Q234.6563,29.2344 233.3281,27.5938 Q232.0156,25.9375 232.0156,22.8125 Q232.0156,19.6875 233.3281,18.0313 Q234.6563,16.375 237.1563,16.375 Q237.8594,16.375 238.5,16.5313 Q239.1563,16.6875 239.7188,16.9844 L239.7188,19.7031 Q239.0938,19.125 238.5,18.8594 Q237.9063,18.5781 237.2813,18.5781 Q235.9375,18.5781 235.25,19.6563 Q234.5625,20.7188 234.5625,22.8125 Q234.5625,24.9063 235.25,25.9844 Q235.9375,27.0469 237.2813,27.0469 Q237.9063,27.0469 238.5,26.7813 Q239.0938,26.5 239.7188,25.9219 L239.7188,28.6406 Z " fill="#000000"/><text fill="#000000" font-family="sans-serif" font-size="12" lengthAdjust="spacing" textLength="28" x="257.25" y="27.1543">Tree</text><line style="stroke:#A80036;stroke-width:1.5;" x1="153" x2="357" y1="39" y2="39"/><ellipse cx="163" cy="50" rx="3" ry="3" style="stroke:#038048;stroke-width:1.0;fill:none;"/><text fill="#000000" font-family="sans-serif" font-size="11" lengthAdjust="spacing" textLength="75" x="172" y="53.2104">parent : Tree</text><ellipse cx="163" cy="62.8047" rx="3" ry="3" style="stroke:#038048;stroke-width:1.0;fill:none;"/><text fill="#000000" font-family="sans-serif" font-size="11" lengthAdjust="spacing" textLength="83" x="172" y="66.0151">_name : string</text><rect fill="none" height="6" style="stroke:#C82930;stroke-width:1.0;" width="6" x="160" y="72.6094"/><text fill="#000000" font-family="sans-serif" font-size="11" lengthAdjust="spacing" textLength="126" x="172" y="78.8198">_children : Set&lt;Tree&gt;</text><line style="stroke:#A80036;stroke-width:1.5;" x1="153" x2="357" y1="85.4141" y2="85.4141"/><ellipse cx="163" cy="96.4141" fill="#84BE84" rx="3" ry="3" style="stroke:#038048;stroke-width:1.0;"/><text fill="#000000" font-family="sans-serif" font-size="11" lengthAdjust="spacing" textLength="99" x="172" y="99.6245">children() : Tree[]</text><ellipse cx="163" cy="109.2188" fill="#84BE84" rx="3" ry="3" style="stroke:#038048;stroke-width:1.0;"/><text fill="#000000" font-family="sans-serif" font-size="11" lengthAdjust="spacing" textLength="180" x="172" y="112.4292">path(opts: PathOptions) : string</text><ellipse cx="163" cy="122.0234" fill="#84BE84" rx="3" ry="3" style="stroke:#038048;stroke-width:1.0;"/><text fill="#000000" font-family="sans-serif" font-size="11" lengthAdjust="spacing" textLength="69" x="172" y="125.2339">root() : Tree</text><!--MD5=[be996cdb8e6bf2fc7cb89c555f2cd144]
class Entity--><rect codeLine="12" fill="#FEFECE" filter="url(#f10j061491e1ql)" height="176.0469" id="Entity" style="stroke:#A80036;stroke-width:1.5;" width="206" x="7" y="243"/><ellipse cx="88.25" cy="259" fill="#ADD1B2" rx="11" ry="11" style="stroke:#A80036;stroke-width:1.0;"/><path d="M91.2188,264.6406 Q90.6406,264.9375 90,265.0781 Q89.3594,265.2344 88.6563,265.2344 Q86.1563,265.2344 84.8281,263.5938 Q83.5156,261.9375 83.5156,258.8125 Q83.5156,255.6875 84.8281,254.0313 Q86.1563,252.375 88.6563,252.375 Q89.3594,252.375 90,252.5313 Q90.6563,252.6875 91.2188,252.9844 L91.2188,255.7031 Q90.5938,255.125 90,254.8594 Q89.4063,254.5781 88.7813,254.5781 Q87.4375,254.5781 86.75,255.6563 Q86.0625,256.7188 86.0625,258.8125 Q86.0625,260.9063 86.75,261.9844 Q87.4375,263.0469 88.7813,263.0469 Q89.4063,263.0469 90,262.7813 Q90.5938,262.5 91.2188,261.9219 L91.2188,264.6406 Z " fill="#000000"/><text fill="#000000" font-family="sans-serif" font-size="12" lengthAdjust="spacing" textLength="35" x="108.75" y="263.1543">Entity</text><line style="stroke:#A80036;stroke-width:1.5;" x1="8" x2="212" y1="275" y2="275"/><ellipse cx="18" cy="286" rx="3" ry="3" style="stroke:#038048;stroke-width:1.0;fill:none;"/><text fill="#000000" font-family="sans-serif" font-size="11" lengthAdjust="spacing" textLength="155" x="27" y="289.2104">components : Component[]</text><ellipse cx="18" cy="298.8047" rx="3" ry="3" style="stroke:#038048;stroke-width:1.0;fill:none;"/><text fill="#000000" font-family="sans-serif" font-size="11" lengthAdjust="spacing" textLength="77" x="27" y="302.0151">name : string</text><ellipse cx="18" cy="311.6094" rx="3" ry="3" style="stroke:#038048;stroke-width:1.0;fill:none;"/><text fill="#000000" font-family="sans-serif" font-size="11" lengthAdjust="spacing" textLength="75" x="27" y="314.8198">parent : Tree</text><ellipse cx="18" cy="324.4141" rx="3" ry="3" style="stroke:#038048;stroke-width:1.0;fill:none;"/><text fill="#000000" font-family="sans-serif" font-size="11" lengthAdjust="spacing" textLength="97" x="27" y="327.6245">system : System</text><ellipse cx="18" cy="337.2188" rx="3" ry="3" style="stroke:#038048;stroke-width:1.0;fill:none;"/><text fill="#000000" font-family="sans-serif" font-size="11" lengthAdjust="spacing" textLength="83" x="27" y="340.4292">_name : string</text><line style="stroke:#A80036;stroke-width:1.5;" x1="8" x2="212" y1="347.0234" y2="347.0234"/><ellipse cx="18" cy="358.0234" fill="#84BE84" rx="3" ry="3" style="stroke:#038048;stroke-width:1.0;"/><text fill="#000000" font-family="sans-serif" font-size="11" lengthAdjust="spacing" textLength="99" x="27" y="361.2339">children() : Tree[]</text><ellipse cx="18" cy="370.8281" fill="#84BE84" rx="3" ry="3" style="stroke:#038048;stroke-width:1.0;"/><text fill="#000000" font-family="sans-serif" font-size="11" lengthAdjust="spacing" textLength="180" x="27" y="374.0386">path(opts: PathOptions) : string</text><ellipse cx="18" cy="383.6328" fill="#84BE84" rx="3" ry="3" style="stroke:#038048;stroke-width:1.0;"/><text fill="#000000" font-family="sans-serif" font-size="11" lengthAdjust="spacing" textLength="81" x="27" y="386.8433">render() : void</text><ellipse cx="18" cy="396.4375" fill="#84BE84" rx="3" ry="3" style="stroke:#038048;stroke-width:1.0;"/><text fill="#000000" font-family="sans-serif" font-size="11" lengthAdjust="spacing" textLength="69" x="27" y="399.6479">root() : Tree</text><ellipse cx="18" cy="409.2422" fill="#84BE84" rx="3" ry="3" style="stroke:#038048;stroke-width:1.0;"/><text fill="#000000" font-family="sans-serif" font-size="11" lengthAdjust="spacing" textLength="147" x="27" y="412.4526">update() : Promise&lt;void&gt;</text><!--MD5=[766e642bfdcb5707363cbdd164a3539a]
class Token<any, any>--><rect codeLine="25" fill="#FEFECE" filter="url(#f10j061491e1ql)" height="278.4844" id="Token&lt;any, any&gt;" style="stroke:#A80036;stroke-width:1.5;" width="303" x="248.5" y="192"/><ellipse cx="340.75" cy="208" fill="#ADD1B2" rx="11" ry="11" style="stroke:#A80036;stroke-width:1.0;"/><path d="M343.7188,213.6406 Q343.1406,213.9375 342.5,214.0781 Q341.8594,214.2344 341.1563,214.2344 Q338.6563,214.2344 337.3281,212.5938 Q336.0156,210.9375 336.0156,207.8125 Q336.0156,204.6875 337.3281,203.0313 Q338.6563,201.375 341.1563,201.375 Q341.8594,201.375 342.5,201.5313 Q343.1563,201.6875 343.7188,201.9844 L343.7188,204.7031 Q343.0938,204.125 342.5,203.8594 Q341.9063,203.5781 341.2813,203.5781 Q339.9375,203.5781 339.25,204.6563 Q338.5625,205.7188 338.5625,207.8125 Q338.5625,209.9063 339.25,210.9844 Q339.9375,212.0469 341.2813,212.0469 Q341.9063,212.0469 342.5,211.7813 Q343.0938,211.5 343.7188,210.9219 L343.7188,213.6406 Z " fill="#000000"/><text fill="#000000" font-family="sans-serif" font-size="12" lengthAdjust="spacing" textLength="110" x="361.25" y="212.1543">Token&lt;any, any&gt;</text><line style="stroke:#A80036;stroke-width:1.5;" x1="249.5" x2="550.5" y1="224" y2="224"/><ellipse cx="259.5" cy="235" rx="3" ry="3" style="stroke:#038048;stroke-width:1.0;fill:none;"/><text fill="#000000" font-family="sans-serif" font-size="11" lengthAdjust="spacing" textLength="77" x="268.5" y="238.2104">name : string</text><ellipse cx="259.5" cy="247.8047" rx="3" ry="3" style="stroke:#038048;stroke-width:1.0;fill:none;"/><text fill="#000000" font-family="sans-serif" font-size="11" lengthAdjust="spacing" textLength="75" x="268.5" y="251.0151">parent : Tree</text><ellipse cx="259.5" cy="260.6094" rx="3" ry="3" style="stroke:#038048;stroke-width:1.0;fill:none;"/><text fill="#000000" font-family="sans-serif" font-size="11" lengthAdjust="spacing" textLength="83" x="268.5" y="263.8198">_name : string</text><rect fill="none" height="6" style="stroke:#C82930;stroke-width:1.0;" width="6" x="256.5" y="270.4141"/><text fill="#000000" font-family="sans-serif" font-size="11" lengthAdjust="spacing" textLength="63" x="268.5" y="276.6245">_data : any</text><rect fill="none" height="6" style="stroke:#C82930;stroke-width:1.0;" width="6" x="256.5" y="283.2188"/><text fill="#000000" font-family="sans-serif" font-size="11" lengthAdjust="spacing" textLength="152" x="268.5" y="289.4292">_resolver : Resolver&lt;any&gt;</text><line style="stroke:#A80036;stroke-width:1.5;" x1="249.5" x2="550.5" y1="296.0234" y2="296.0234"/><ellipse cx="259.5" cy="307.0234" fill="#84BE84" rx="3" ry="3" style="stroke:#038048;stroke-width:1.0;"/><text fill="#000000" font-family="sans-serif" font-size="11" lengthAdjust="spacing" textLength="99" x="268.5" y="310.2339">children() : Tree[]</text><ellipse cx="259.5" cy="319.8281" fill="#84BE84" rx="3" ry="3" style="stroke:#038048;stroke-width:1.0;"/><text fill="#000000" font-family="sans-serif" font-size="11" lengthAdjust="spacing" text-decoration="underline" textLength="204" x="268.5" y="323.0386">IsToken(serialized: string) : boolean</text><ellipse cx="259.5" cy="332.6328" fill="#84BE84" rx="3" ry="3" style="stroke:#038048;stroke-width:1.0;"/><text fill="#000000" font-family="sans-serif" font-size="11" lengthAdjust="spacing" text-decoration="underline" textLength="157" x="268.5" y="335.8433">IsToken(any: any) : boolean</text><ellipse cx="259.5" cy="345.4375" fill="#84BE84" rx="3" ry="3" style="stroke:#038048;stroke-width:1.0;"/><text fill="#000000" font-family="sans-serif" font-size="11" lengthAdjust="spacing" text-decoration="underline" textLength="262" x="268.5" y="348.6479">NameOf&lt;T&gt;(cb: Function, sep: string) : string</text><ellipse cx="259.5" cy="358.2422" fill="#84BE84" rx="3" ry="3" style="stroke:#038048;stroke-width:1.0;"/><text fill="#000000" font-family="sans-serif" font-size="11" lengthAdjust="spacing" textLength="180" x="268.5" y="361.4526">path(opts: PathOptions) : string</text><ellipse cx="259.5" cy="371.0469" fill="#84BE84" rx="3" ry="3" style="stroke:#038048;stroke-width:1.0;"/><text fill="#000000" font-family="sans-serif" font-size="11" lengthAdjust="spacing" textLength="245" x="268.5" y="374.2573">query&lt;T&gt;(cb: Function) : Token&lt;any, any&gt;</text><ellipse cx="259.5" cy="383.8516" fill="#84BE84" rx="3" ry="3" style="stroke:#038048;stroke-width:1.0;"/><text fill="#000000" font-family="sans-serif" font-size="11" lengthAdjust="spacing" textLength="215" x="268.5" y="387.062">reset(resolver: Resolver&lt;any&gt;) : void</text><ellipse cx="259.5" cy="396.6563" fill="#84BE84" rx="3" ry="3" style="stroke:#038048;stroke-width:1.0;"/><text fill="#000000" font-family="sans-serif" font-size="11" lengthAdjust="spacing" textLength="147" x="268.5" y="399.8667">resolve() : Promise&lt;any&gt;</text><ellipse cx="259.5" cy="409.4609" fill="#84BE84" rx="3" ry="3" style="stroke:#038048;stroke-width:1.0;"/><text fill="#000000" font-family="sans-serif" font-size="11" lengthAdjust="spacing" textLength="69" x="268.5" y="412.6714">root() : Tree</text><ellipse cx="259.5" cy="422.2656" fill="#84BE84" rx="3" ry="3" style="stroke:#038048;stroke-width:1.0;"/><text fill="#000000" font-family="sans-serif" font-size="11" lengthAdjust="spacing" textLength="100" x="268.5" y="425.4761">serialize() : string</text><ellipse cx="259.5" cy="435.0703" fill="#84BE84" rx="3" ry="3" style="stroke:#038048;stroke-width:1.0;"/><text fill="#000000" font-family="sans-serif" font-size="11" lengthAdjust="spacing" textLength="92" x="268.5" y="438.2808">toJSON() : string</text><ellipse cx="259.5" cy="447.875" fill="#84BE84" rx="3" ry="3" style="stroke:#038048;stroke-width:1.0;"/><text fill="#000000" font-family="sans-serif" font-size="11" lengthAdjust="spacing" textLength="98" x="268.5" y="451.0854">toString() : string</text><ellipse cx="259.5" cy="460.6797" fill="#84BE84" rx="3" ry="3" style="stroke:#038048;stroke-width:1.0;"/><text fill="#000000" font-family="sans-serif" font-size="11" lengthAdjust="spacing" text-decoration="underline" textLength="277" x="268.5" y="463.8901">Wrap(value: any, opts: Options&lt;any, any&gt;) : any</text><!--MD5=[8b4f67f469fa192496a1491a0151fc70]
reverse link Tree to Entity--><path codeLine="24" d="M210.58,149.99 C194.21,179.3 175.56,212.66 158.82,242.63 " fill="none" id="Tree-backto-Entity" style="stroke:#A80036;stroke-width:1.0;"/><polygon fill="none" points="204.59,146.37,220.45,132.33,216.81,153.2,204.59,146.37" style="stroke:#A80036;stroke-width:1.0;"/><!--MD5=[6e4a46860e9cfc5a7a2b36e581071cc9]
reverse link Tree to Token<any, any>--><path codeLine="45" d="M299.42,149.99 C306.89,163.37 314.84,177.6 322.87,191.97 " fill="none" id="Tree-backto-Token&lt;any, any&gt;" style="stroke:#A80036;stroke-width:1.0;"/><polygon fill="none" points="293.19,153.2,289.55,132.33,305.41,146.37,293.19,153.2" style="stroke:#A80036;stroke-width:1.0;"/><!--MD5=[63b047bbb15d611f4c911c1e7fbe40a1]
@startuml
skinparam BackgroundColor transparent
hide empty methods
hide empty fields
class "Tree" {
    +parent : Tree
    +_name : string
    -_children : Set<Tree>
    +children() : Tree[]
    +path(opts: PathOptions) : string
    +root() : Tree
}
class "Entity" {
    +components : Component[]
    +name : string
    +parent : Tree
    +system : System
    +_name : string
    +children() : Tree[]
    +path(opts: PathOptions) : string
    +render() : void
    +root() : Tree
    +update() : Promise<void>
}
"Tree" <|- - "Entity"
class "Token<any, any>" {
    +name : string
    +parent : Tree
    +_name : string
    -_data : any
    -_resolver : Resolver<any>
    +children() : Tree[]
    {static} +IsToken(serialized: string) : boolean
    {static} +IsToken(any: any) : boolean
    {static} +NameOf<T>(cb: Function, sep: string) : string
    +path(opts: PathOptions) : string
    +query<T>(cb: Function) : Token<any, any>
    +reset(resolver: Resolver<any>) : void
    +resolve() : Promise<any>
    +root() : Tree
    +serialize() : string
    +toJSON() : string
    +toString() : string
    {static} +Wrap(value: any, opts: Options<any, any>) : any
}
"Tree" <|- - "Token<any, any>"
@enduml

PlantUML version 1.2021.14(Fri Nov 12 16:46:50 UTC 2021)
(GPL source distribution)
Java Runtime: OpenJDK Runtime Environment
JVM: OpenJDK 64-Bit Server VM
Default Encoding: UTF-8
Language: en
Country: null
--></g></svg>