<?xml version="1.0" encoding="UTF-8" standalone="no"?><svg xmlns="http://www.w3.org/2000/svg" xmlns:xlink="http://www.w3.org/1999/xlink" contentScriptType="application/ecmascript" contentStyleType="text/css" height="368px" preserveAspectRatio="none" style="width:540px;height:368px;background:#00000000;" version="1.1" viewBox="0 0 540 368" width="540px" zoomAndPan="magnify"><defs><filter height="300%" id="f1dfxcgikalnfa" width="300%" x="-1" y="-1"><feGaussianBlur result="blurOut" stdDeviation="2.0"/><feColorMatrix in="blurOut" result="blurOut2" type="matrix" values="0 0 0 0 0 0 0 0 0 0 0 0 0 0 0 0 0 0 .4 0"/><feOffset dx="4.0" dy="4.0" in="blurOut2" result="blurOut3"/><feBlend in="SourceGraphic" in2="blurOut3" mode="normal"/></filter></defs><g><!--MD5=[bb7f1c801adcc1c297b2d9190618259c]
class Tree--><rect codeLine="4" fill="#FEFECE" filter="url(#f1dfxcgikalnfa)" height="99.2188" id="Tree" style="stroke:#A80036;stroke-width:1.5;" width="206" x="132.5" y="7"/><ellipse cx="217.25" cy="23" fill="#ADD1B2" rx="11" ry="11" style="stroke:#A80036;stroke-width:1.0;"/><path d="M220.2188,28.6406 Q219.6406,28.9375 219,29.0781 Q218.3594,29.2344 217.6563,29.2344 Q215.1563,29.2344 213.8281,27.5938 Q212.5156,25.9375 212.5156,22.8125 Q212.5156,19.6875 213.8281,18.0313 Q215.1563,16.375 217.6563,16.375 Q218.3594,16.375 219,16.5313 Q219.6563,16.6875 220.2188,16.9844 L220.2188,19.7031 Q219.5938,19.125 219,18.8594 Q218.4063,18.5781 217.7813,18.5781 Q216.4375,18.5781 215.75,19.6563 Q215.0625,20.7188 215.0625,22.8125 Q215.0625,24.9063 215.75,25.9844 Q216.4375,27.0469 217.7813,27.0469 Q218.4063,27.0469 219,26.7813 Q219.5938,26.5 220.2188,25.9219 L220.2188,28.6406 Z " fill="#000000"/><text fill="#000000" font-family="sans-serif" font-size="12" lengthAdjust="spacing" textLength="28" x="237.75" y="27.1543">Tree</text><line style="stroke:#A80036;stroke-width:1.5;" x1="133.5" x2="337.5" y1="39" y2="39"/><ellipse cx="143.5" cy="50" rx="3" ry="3" style="stroke:#038048;stroke-width:1.0;fill:none;"/><text fill="#000000" font-family="sans-serif" font-size="11" lengthAdjust="spacing" textLength="75" x="152.5" y="53.2104">parent : Tree</text><line style="stroke:#A80036;stroke-width:1.5;" x1="133.5" x2="337.5" y1="59.8047" y2="59.8047"/><ellipse cx="143.5" cy="70.8047" fill="#84BE84" rx="3" ry="3" style="stroke:#038048;stroke-width:1.0;"/><text fill="#000000" font-family="sans-serif" font-size="11" lengthAdjust="spacing" textLength="99" x="152.5" y="74.0151">children() : Tree[]</text><ellipse cx="143.5" cy="83.6094" fill="#84BE84" rx="3" ry="3" style="stroke:#038048;stroke-width:1.0;"/><text fill="#000000" font-family="sans-serif" font-size="11" lengthAdjust="spacing" textLength="180" x="152.5" y="86.8198">path(opts: PathOptions) : string</text><ellipse cx="143.5" cy="96.4141" fill="#84BE84" rx="3" ry="3" style="stroke:#038048;stroke-width:1.0;"/><text fill="#000000" font-family="sans-serif" font-size="11" lengthAdjust="spacing" textLength="69" x="152.5" y="99.6245">root() : Tree</text><!--MD5=[be996cdb8e6bf2fc7cb89c555f2cd144]
class Entity--><rect codeLine="10" fill="#FEFECE" filter="url(#f1dfxcgikalnfa)" height="112.0234" id="Entity" style="stroke:#A80036;stroke-width:1.5;" width="181" x="7" y="204.5"/><ellipse cx="75.75" cy="220.5" fill="#ADD1B2" rx="11" ry="11" style="stroke:#A80036;stroke-width:1.0;"/><path d="M78.7188,226.1406 Q78.1406,226.4375 77.5,226.5781 Q76.8594,226.7344 76.1563,226.7344 Q73.6563,226.7344 72.3281,225.0938 Q71.0156,223.4375 71.0156,220.3125 Q71.0156,217.1875 72.3281,215.5313 Q73.6563,213.875 76.1563,213.875 Q76.8594,213.875 77.5,214.0313 Q78.1563,214.1875 78.7188,214.4844 L78.7188,217.2031 Q78.0938,216.625 77.5,216.3594 Q76.9063,216.0781 76.2813,216.0781 Q74.9375,216.0781 74.25,217.1563 Q73.5625,218.2188 73.5625,220.3125 Q73.5625,222.4063 74.25,223.4844 Q74.9375,224.5469 76.2813,224.5469 Q76.9063,224.5469 77.5,224.2813 Q78.0938,224 78.7188,223.4219 L78.7188,226.1406 Z " fill="#000000"/><text fill="#000000" font-family="sans-serif" font-size="12" lengthAdjust="spacing" textLength="35" x="96.25" y="224.6543">Entity</text><line style="stroke:#A80036;stroke-width:1.5;" x1="8" x2="187" y1="236.5" y2="236.5"/><ellipse cx="18" cy="247.5" rx="3" ry="3" style="stroke:#038048;stroke-width:1.0;fill:none;"/><text fill="#000000" font-family="sans-serif" font-size="11" lengthAdjust="spacing" textLength="155" x="27" y="250.7104">components : Component[]</text><ellipse cx="18" cy="260.3047" rx="3" ry="3" style="stroke:#038048;stroke-width:1.0;fill:none;"/><text fill="#000000" font-family="sans-serif" font-size="11" lengthAdjust="spacing" textLength="77" x="27" y="263.5151">name : string</text><ellipse cx="18" cy="273.1094" rx="3" ry="3" style="stroke:#038048;stroke-width:1.0;fill:none;"/><text fill="#000000" font-family="sans-serif" font-size="11" lengthAdjust="spacing" textLength="97" x="27" y="276.3198">system : System</text><line style="stroke:#A80036;stroke-width:1.5;" x1="8" x2="187" y1="282.9141" y2="282.9141"/><ellipse cx="18" cy="293.9141" fill="#84BE84" rx="3" ry="3" style="stroke:#038048;stroke-width:1.0;"/><text fill="#000000" font-family="sans-serif" font-size="11" lengthAdjust="spacing" textLength="81" x="27" y="297.1245">render() : void</text><ellipse cx="18" cy="306.7188" fill="#84BE84" rx="3" ry="3" style="stroke:#038048;stroke-width:1.0;"/><text fill="#000000" font-family="sans-serif" font-size="11" lengthAdjust="spacing" textLength="147" x="27" y="309.9292">update() : Promise&lt;void&gt;</text><!--MD5=[766e642bfdcb5707363cbdd164a3539a]
class Token<any, any>--><rect codeLine="18" fill="#FEFECE" filter="url(#f1dfxcgikalnfa)" height="188.8516" id="Token&lt;any, any&gt;" style="stroke:#A80036;stroke-width:1.5;" width="303" x="223" y="166"/><ellipse cx="315.25" cy="182" fill="#ADD1B2" rx="11" ry="11" style="stroke:#A80036;stroke-width:1.0;"/><path d="M318.2188,187.6406 Q317.6406,187.9375 317,188.0781 Q316.3594,188.2344 315.6563,188.2344 Q313.1563,188.2344 311.8281,186.5938 Q310.5156,184.9375 310.5156,181.8125 Q310.5156,178.6875 311.8281,177.0313 Q313.1563,175.375 315.6563,175.375 Q316.3594,175.375 317,175.5313 Q317.6563,175.6875 318.2188,175.9844 L318.2188,178.7031 Q317.5938,178.125 317,177.8594 Q316.4063,177.5781 315.7813,177.5781 Q314.4375,177.5781 313.75,178.6563 Q313.0625,179.7188 313.0625,181.8125 Q313.0625,183.9063 313.75,184.9844 Q314.4375,186.0469 315.7813,186.0469 Q316.4063,186.0469 317,185.7813 Q317.5938,185.5 318.2188,184.9219 L318.2188,187.6406 Z " fill="#000000"/><text fill="#000000" font-family="sans-serif" font-size="12" lengthAdjust="spacing" textLength="110" x="335.75" y="186.1543">Token&lt;any, any&gt;</text><line style="stroke:#A80036;stroke-width:1.5;" x1="224" x2="525" y1="198" y2="198"/><ellipse cx="234" cy="209" rx="3" ry="3" style="stroke:#038048;stroke-width:1.0;fill:none;"/><text fill="#000000" font-family="sans-serif" font-size="11" lengthAdjust="spacing" textLength="77" x="243" y="212.2104">name : string</text><line style="stroke:#A80036;stroke-width:1.5;" x1="224" x2="525" y1="218.8047" y2="218.8047"/><ellipse cx="234" cy="229.8047" fill="#84BE84" rx="3" ry="3" style="stroke:#038048;stroke-width:1.0;"/><text fill="#000000" font-family="sans-serif" font-size="11" lengthAdjust="spacing" text-decoration="underline" textLength="204" x="243" y="233.0151">IsToken(serialized: string) : boolean</text><ellipse cx="234" cy="242.6094" fill="#84BE84" rx="3" ry="3" style="stroke:#038048;stroke-width:1.0;"/><text fill="#000000" font-family="sans-serif" font-size="11" lengthAdjust="spacing" text-decoration="underline" textLength="157" x="243" y="245.8198">IsToken(any: any) : boolean</text><ellipse cx="234" cy="255.4141" fill="#84BE84" rx="3" ry="3" style="stroke:#038048;stroke-width:1.0;"/><text fill="#000000" font-family="sans-serif" font-size="11" lengthAdjust="spacing" text-decoration="underline" textLength="262" x="243" y="258.6245">NameOf&lt;T&gt;(cb: Function, sep: string) : string</text><ellipse cx="234" cy="268.2188" fill="#84BE84" rx="3" ry="3" style="stroke:#038048;stroke-width:1.0;"/><text fill="#000000" font-family="sans-serif" font-size="11" lengthAdjust="spacing" textLength="245" x="243" y="271.4292">query&lt;T&gt;(cb: Function) : Token&lt;any, any&gt;</text><ellipse cx="234" cy="281.0234" fill="#84BE84" rx="3" ry="3" style="stroke:#038048;stroke-width:1.0;"/><text fill="#000000" font-family="sans-serif" font-size="11" lengthAdjust="spacing" textLength="215" x="243" y="284.2339">reset(resolver: Resolver&lt;any&gt;) : void</text><ellipse cx="234" cy="293.8281" fill="#84BE84" rx="3" ry="3" style="stroke:#038048;stroke-width:1.0;"/><text fill="#000000" font-family="sans-serif" font-size="11" lengthAdjust="spacing" textLength="147" x="243" y="297.0386">resolve() : Promise&lt;any&gt;</text><ellipse cx="234" cy="306.6328" fill="#84BE84" rx="3" ry="3" style="stroke:#038048;stroke-width:1.0;"/><text fill="#000000" font-family="sans-serif" font-size="11" lengthAdjust="spacing" textLength="100" x="243" y="309.8433">serialize() : string</text><ellipse cx="234" cy="319.4375" fill="#84BE84" rx="3" ry="3" style="stroke:#038048;stroke-width:1.0;"/><text fill="#000000" font-family="sans-serif" font-size="11" lengthAdjust="spacing" textLength="92" x="243" y="322.6479">toJSON() : string</text><ellipse cx="234" cy="332.2422" fill="#84BE84" rx="3" ry="3" style="stroke:#038048;stroke-width:1.0;"/><text fill="#000000" font-family="sans-serif" font-size="11" lengthAdjust="spacing" textLength="98" x="243" y="335.4526">toString() : string</text><ellipse cx="234" cy="345.0469" fill="#84BE84" rx="3" ry="3" style="stroke:#038048;stroke-width:1.0;"/><text fill="#000000" font-family="sans-serif" font-size="11" lengthAdjust="spacing" text-decoration="underline" textLength="277" x="243" y="348.2573">Wrap(value: any, opts: Options&lt;any, any&gt;) : any</text><!--MD5=[8b4f67f469fa192496a1491a0151fc70]
reverse link Tree to Entity--><path codeLine="17" d="M190.91,122.77 C172.97,149.03 152.51,178.98 135.32,204.15 " fill="none" id="Tree-backto-Entity" style="stroke:#A80036;stroke-width:1.0;"/><polygon fill="none" points="185.21,118.71,202.27,106.14,196.77,126.6,185.21,118.71" style="stroke:#A80036;stroke-width:1.0;"/><!--MD5=[6e4a46860e9cfc5a7a2b36e581071cc9]
reverse link Tree to Token<any, any>--><path codeLine="31" d="M280.48,122.87 C289.91,136.57 300.03,151.28 310.01,165.79 " fill="none" id="Tree-backto-Token&lt;any, any&gt;" style="stroke:#A80036;stroke-width:1.0;"/><polygon fill="none" points="274.54,126.59,268.97,106.14,286.08,118.65,274.54,126.59" style="stroke:#A80036;stroke-width:1.0;"/><!--MD5=[6ce8e75d39c53306804426222c49ca47]
@startuml
skinparam BackgroundColor transparent
hide empty methods
hide empty fields
class "Tree" {
    +parent : Tree
    +children() : Tree[]
    +path(opts: PathOptions) : string
    +root() : Tree
}
class "Entity" {
    +components : Component[]
    +name : string
    +system : System
    +render() : void
    +update() : Promise<void>
}
"Tree" <|- - "Entity"
class "Token<any, any>" {
    +name : string
    {static} +IsToken(serialized: string) : boolean
    {static} +IsToken(any: any) : boolean
    {static} +NameOf<T>(cb: Function, sep: string) : string
    +query<T>(cb: Function) : Token<any, any>
    +reset(resolver: Resolver<any>) : void
    +resolve() : Promise<any>
    +serialize() : string
    +toJSON() : string
    +toString() : string
    {static} +Wrap(value: any, opts: Options<any, any>) : any
}
"Tree" <|- - "Token<any, any>"
@enduml

PlantUML version 1.2021.14(Fri Nov 12 16:46:50 UTC 2021)
(GPL source distribution)
Java Runtime: OpenJDK Runtime Environment
JVM: OpenJDK 64-Bit Server VM
Default Encoding: UTF-8
Language: en
Country: null
--></g></svg>