<?xml version="1.0" encoding="UTF-8" standalone="no"?><svg xmlns="http://www.w3.org/2000/svg" xmlns:xlink="http://www.w3.org/1999/xlink" contentScriptType="application/ecmascript" contentStyleType="text/css" height="386px" preserveAspectRatio="none" style="width:600px;height:386px;background:#00000000;" version="1.1" viewBox="0 0 600 386" width="600px" zoomAndPan="magnify"><defs><filter height="300%" id="f6y9y5gt58y3e" width="300%" x="-1" y="-1"><feGaussianBlur result="blurOut" stdDeviation="2.0"/><feColorMatrix in="blurOut" result="blurOut2" type="matrix" values="0 0 0 0 0 0 0 0 0 0 0 0 0 0 0 0 0 0 .4 0"/><feOffset dx="4.0" dy="4.0" in="blurOut2" result="blurOut3"/><feBlend in="SourceGraphic" in2="blurOut3" mode="normal"/></filter></defs><g><!--MD5=[bb7f1c801adcc1c297b2d9190618259c]
class Tree--><rect codeLine="4" fill="#FEFECE" filter="url(#f6y9y5gt58y3e)" height="99.2188" id="Tree" style="stroke:#A80036;stroke-width:1.5;" width="206" x="147.5" y="7"/><ellipse cx="232.25" cy="23" fill="#ADD1B2" rx="11" ry="11" style="stroke:#A80036;stroke-width:1.0;"/><path d="M235.2188,28.6406 Q234.6406,28.9375 234,29.0781 Q233.3594,29.2344 232.6563,29.2344 Q230.1563,29.2344 228.8281,27.5938 Q227.5156,25.9375 227.5156,22.8125 Q227.5156,19.6875 228.8281,18.0313 Q230.1563,16.375 232.6563,16.375 Q233.3594,16.375 234,16.5313 Q234.6563,16.6875 235.2188,16.9844 L235.2188,19.7031 Q234.5938,19.125 234,18.8594 Q233.4063,18.5781 232.7813,18.5781 Q231.4375,18.5781 230.75,19.6563 Q230.0625,20.7188 230.0625,22.8125 Q230.0625,24.9063 230.75,25.9844 Q231.4375,27.0469 232.7813,27.0469 Q233.4063,27.0469 234,26.7813 Q234.5938,26.5 235.2188,25.9219 L235.2188,28.6406 Z " fill="#000000"/><text fill="#000000" font-family="sans-serif" font-size="12" lengthAdjust="spacing" textLength="28" x="252.75" y="27.1543">Tree</text><line style="stroke:#A80036;stroke-width:1.5;" x1="148.5" x2="352.5" y1="39" y2="39"/><ellipse cx="158.5" cy="50" rx="3" ry="3" style="stroke:#038048;stroke-width:1.0;fill:none;"/><text fill="#000000" font-family="sans-serif" font-size="11" lengthAdjust="spacing" textLength="75" x="167.5" y="53.2104">parent : Tree</text><line style="stroke:#A80036;stroke-width:1.5;" x1="148.5" x2="352.5" y1="59.8047" y2="59.8047"/><ellipse cx="158.5" cy="70.8047" fill="#84BE84" rx="3" ry="3" style="stroke:#038048;stroke-width:1.0;"/><text fill="#000000" font-family="sans-serif" font-size="11" lengthAdjust="spacing" textLength="99" x="167.5" y="74.0151">children() : Tree[]</text><ellipse cx="158.5" cy="83.6094" fill="#84BE84" rx="3" ry="3" style="stroke:#038048;stroke-width:1.0;"/><text fill="#000000" font-family="sans-serif" font-size="11" lengthAdjust="spacing" textLength="180" x="167.5" y="86.8198">path(opts: PathOptions) : string</text><ellipse cx="158.5" cy="96.4141" fill="#84BE84" rx="3" ry="3" style="stroke:#038048;stroke-width:1.0;"/><text fill="#000000" font-family="sans-serif" font-size="11" lengthAdjust="spacing" textLength="69" x="167.5" y="99.6245">root() : Tree</text><!--MD5=[be996cdb8e6bf2fc7cb89c555f2cd144]
class Entity--><rect codeLine="10" fill="#FEFECE" filter="url(#f6y9y5gt58y3e)" height="112.0234" id="Entity" style="stroke:#A80036;stroke-width:1.5;" width="181" x="7" y="213"/><ellipse cx="75.75" cy="229" fill="#ADD1B2" rx="11" ry="11" style="stroke:#A80036;stroke-width:1.0;"/><path d="M78.7188,234.6406 Q78.1406,234.9375 77.5,235.0781 Q76.8594,235.2344 76.1563,235.2344 Q73.6563,235.2344 72.3281,233.5938 Q71.0156,231.9375 71.0156,228.8125 Q71.0156,225.6875 72.3281,224.0313 Q73.6563,222.375 76.1563,222.375 Q76.8594,222.375 77.5,222.5313 Q78.1563,222.6875 78.7188,222.9844 L78.7188,225.7031 Q78.0938,225.125 77.5,224.8594 Q76.9063,224.5781 76.2813,224.5781 Q74.9375,224.5781 74.25,225.6563 Q73.5625,226.7188 73.5625,228.8125 Q73.5625,230.9063 74.25,231.9844 Q74.9375,233.0469 76.2813,233.0469 Q76.9063,233.0469 77.5,232.7813 Q78.0938,232.5 78.7188,231.9219 L78.7188,234.6406 Z " fill="#000000"/><text fill="#000000" font-family="sans-serif" font-size="12" lengthAdjust="spacing" textLength="35" x="96.25" y="233.1543">Entity</text><line style="stroke:#A80036;stroke-width:1.5;" x1="8" x2="187" y1="245" y2="245"/><ellipse cx="18" cy="256" rx="3" ry="3" style="stroke:#038048;stroke-width:1.0;fill:none;"/><text fill="#000000" font-family="sans-serif" font-size="11" lengthAdjust="spacing" textLength="155" x="27" y="259.2104">components : Component[]</text><ellipse cx="18" cy="268.8047" rx="3" ry="3" style="stroke:#038048;stroke-width:1.0;fill:none;"/><text fill="#000000" font-family="sans-serif" font-size="11" lengthAdjust="spacing" textLength="77" x="27" y="272.0151">name : string</text><ellipse cx="18" cy="281.6094" rx="3" ry="3" style="stroke:#038048;stroke-width:1.0;fill:none;"/><text fill="#000000" font-family="sans-serif" font-size="11" lengthAdjust="spacing" textLength="97" x="27" y="284.8198">system : System</text><line style="stroke:#A80036;stroke-width:1.5;" x1="8" x2="187" y1="291.4141" y2="291.4141"/><ellipse cx="18" cy="302.4141" fill="#84BE84" rx="3" ry="3" style="stroke:#038048;stroke-width:1.0;"/><text fill="#000000" font-family="sans-serif" font-size="11" lengthAdjust="spacing" textLength="81" x="27" y="305.6245">render() : void</text><ellipse cx="18" cy="315.2188" fill="#84BE84" rx="3" ry="3" style="stroke:#038048;stroke-width:1.0;"/><text fill="#000000" font-family="sans-serif" font-size="11" lengthAdjust="spacing" textLength="147" x="27" y="318.4292">update() : Promise&lt;void&gt;</text><!--MD5=[766e642bfdcb5707363cbdd164a3539a]
class Token<any, any>--><rect codeLine="18" fill="#FEFECE" filter="url(#f6y9y5gt58y3e)" height="206.4609" id="Token&lt;any, any&gt;" style="stroke:#A80036;stroke-width:1.5;" width="363" x="223" y="166"/><ellipse cx="345.25" cy="182" fill="#ADD1B2" rx="11" ry="11" style="stroke:#A80036;stroke-width:1.0;"/><path d="M348.2188,187.6406 Q347.6406,187.9375 347,188.0781 Q346.3594,188.2344 345.6563,188.2344 Q343.1563,188.2344 341.8281,186.5938 Q340.5156,184.9375 340.5156,181.8125 Q340.5156,178.6875 341.8281,177.0313 Q343.1563,175.375 345.6563,175.375 Q346.3594,175.375 347,175.5313 Q347.6563,175.6875 348.2188,175.9844 L348.2188,178.7031 Q347.5938,178.125 347,177.8594 Q346.4063,177.5781 345.7813,177.5781 Q344.4375,177.5781 343.75,178.6563 Q343.0625,179.7188 343.0625,181.8125 Q343.0625,183.9063 343.75,184.9844 Q344.4375,186.0469 345.7813,186.0469 Q346.4063,186.0469 347,185.7813 Q347.5938,185.5 348.2188,184.9219 L348.2188,187.6406 Z " fill="#000000"/><text fill="#000000" font-family="sans-serif" font-size="12" lengthAdjust="spacing" textLength="110" x="365.75" y="186.1543">Token&lt;any, any&gt;</text><line style="stroke:#A80036;stroke-width:1.5;" x1="224" x2="585" y1="198" y2="198"/><ellipse cx="234" cy="209" fill="#84BE84" rx="3" ry="3" style="stroke:#038048;stroke-width:1.0;"/><text fill="#000000" font-family="sans-serif" font-size="11" lengthAdjust="spacing" text-decoration="underline" textLength="204" x="243" y="212.2104">IsToken(serialized: string) : boolean</text><ellipse cx="234" cy="221.8047" fill="#84BE84" rx="3" ry="3" style="stroke:#038048;stroke-width:1.0;"/><text fill="#000000" font-family="sans-serif" font-size="11" lengthAdjust="spacing" text-decoration="underline" textLength="157" x="243" y="225.0151">IsToken(any: any) : boolean</text><ellipse cx="234" cy="234.6094" fill="#84BE84" rx="3" ry="3" style="stroke:#038048;stroke-width:1.0;"/><text fill="#000000" font-family="sans-serif" font-size="11" lengthAdjust="spacing" text-decoration="underline" textLength="337" x="243" y="237.8198">Make&lt;T, U&gt;(options: Options&lt;T, U&gt;) : T &amp; Token&lt;T, any&gt;</text><ellipse cx="234" cy="247.4141" fill="#84BE84" rx="3" ry="3" style="stroke:#038048;stroke-width:1.0;"/><text fill="#000000" font-family="sans-serif" font-size="11" lengthAdjust="spacing" text-decoration="underline" textLength="262" x="243" y="250.6245">NameOf&lt;T&gt;(cb: Function, sep: string) : string</text><ellipse cx="234" cy="260.2188" fill="#84BE84" rx="3" ry="3" style="stroke:#038048;stroke-width:1.0;"/><text fill="#000000" font-family="sans-serif" font-size="11" lengthAdjust="spacing" text-decoration="underline" textLength="188" x="243" y="263.4292">of&lt;T&gt;(value: T) : Token&lt;T, any&gt;</text><ellipse cx="234" cy="273.0234" fill="#84BE84" rx="3" ry="3" style="stroke:#038048;stroke-width:1.0;"/><text fill="#000000" font-family="sans-serif" font-size="11" lengthAdjust="spacing" textLength="245" x="243" y="276.2339">query&lt;T&gt;(cb: Function) : Token&lt;any, any&gt;</text><ellipse cx="234" cy="285.8281" fill="#84BE84" rx="3" ry="3" style="stroke:#038048;stroke-width:1.0;"/><text fill="#000000" font-family="sans-serif" font-size="11" lengthAdjust="spacing" textLength="215" x="243" y="289.0386">reset(resolver: Resolver&lt;any&gt;) : void</text><ellipse cx="234" cy="298.6328" fill="#84BE84" rx="3" ry="3" style="stroke:#038048;stroke-width:1.0;"/><text fill="#000000" font-family="sans-serif" font-size="11" lengthAdjust="spacing" textLength="147" x="243" y="301.8433">resolve() : Promise&lt;any&gt;</text><ellipse cx="234" cy="311.4375" fill="#84BE84" rx="3" ry="3" style="stroke:#038048;stroke-width:1.0;"/><text fill="#000000" font-family="sans-serif" font-size="11" lengthAdjust="spacing" textLength="100" x="243" y="314.6479">serialize() : string</text><ellipse cx="234" cy="324.2422" fill="#84BE84" rx="3" ry="3" style="stroke:#038048;stroke-width:1.0;"/><text fill="#000000" font-family="sans-serif" font-size="11" lengthAdjust="spacing" textLength="63" x="243" y="327.4526">to&lt;T&gt;() : T</text><ellipse cx="234" cy="337.0469" fill="#84BE84" rx="3" ry="3" style="stroke:#038048;stroke-width:1.0;"/><text fill="#000000" font-family="sans-serif" font-size="11" lengthAdjust="spacing" textLength="92" x="243" y="340.2573">toJSON() : string</text><ellipse cx="234" cy="349.8516" fill="#84BE84" rx="3" ry="3" style="stroke:#038048;stroke-width:1.0;"/><text fill="#000000" font-family="sans-serif" font-size="11" lengthAdjust="spacing" textLength="98" x="243" y="353.062">toString() : string</text><ellipse cx="234" cy="362.6563" fill="#84BE84" rx="3" ry="3" style="stroke:#038048;stroke-width:1.0;"/><text fill="#000000" font-family="sans-serif" font-size="11" lengthAdjust="spacing" text-decoration="underline" textLength="276" x="243" y="365.8667">Wrap&lt;T&gt;(value: T, opts: Options&lt;any, any&gt;) : T</text><!--MD5=[8b4f67f469fa192496a1491a0151fc70]
reverse link Tree to Entity--><path codeLine="17" d="M203.31,122.43 C182.32,151.31 157.86,184.96 137.75,212.63 " fill="none" id="Tree-backto-Entity" style="stroke:#A80036;stroke-width:1.0;"/><polygon fill="none" points="197.79,118.12,215.21,106.06,209.11,126.35,197.79,118.12" style="stroke:#A80036;stroke-width:1.0;"/><!--MD5=[6e4a46860e9cfc5a7a2b36e581071cc9]
reverse link Tree to Token<any, any>--><path codeLine="33" d="M297.86,122.23 C307.93,136 318.81,150.87 329.62,165.65 " fill="none" id="Tree-backto-Token&lt;any, any&gt;" style="stroke:#A80036;stroke-width:1.0;"/><polygon fill="none" points="292.18,126.33,286.02,106.06,303.48,118.07,292.18,126.33" style="stroke:#A80036;stroke-width:1.0;"/><!--MD5=[319ef626c4727d1dc31049d0d78dfc79]
@startuml
skinparam BackgroundColor transparent
hide empty methods
hide empty fields
class "Tree" {
    +parent : Tree
    +children() : Tree[]
    +path(opts: PathOptions) : string
    +root() : Tree
}
class "Entity" {
    +components : Component[]
    +name : string
    +system : System
    +render() : void
    +update() : Promise<void>
}
"Tree" <|- - "Entity"
class "Token<any, any>" {
    {static} +IsToken(serialized: string) : boolean
    {static} +IsToken(any: any) : boolean
    {static} +Make<T, U>(options: Options<T, U>) : T & Token<T, any>
    {static} +NameOf<T>(cb: Function, sep: string) : string
    {static} +of<T>(value: T) : Token<T, any>
    +query<T>(cb: Function) : Token<any, any>
    +reset(resolver: Resolver<any>) : void
    +resolve() : Promise<any>
    +serialize() : string
    +to<T>() : T
    +toJSON() : string
    +toString() : string
    {static} +Wrap<T>(value: T, opts: Options<any, any>) : T
}
"Tree" <|- - "Token<any, any>"
@enduml

PlantUML version 1.2021.14(Fri Nov 12 16:46:50 UTC 2021)
(GPL source distribution)
Java Runtime: OpenJDK Runtime Environment
JVM: OpenJDK 64-Bit Server VM
Default Encoding: UTF-8
Language: en
Country: null
--></g></svg>