<?xml version="1.0" encoding="UTF-8" standalone="no"?><svg xmlns="http://www.w3.org/2000/svg" xmlns:xlink="http://www.w3.org/1999/xlink" contentScriptType="application/ecmascript" contentStyleType="text/css" height="276px" preserveAspectRatio="none" style="width:251px;height:276px;background:#00000000;" version="1.1" viewBox="0 0 251 276" width="251px" zoomAndPan="magnify"><defs><filter height="300%" id="ffs6ekybvsi8d" width="300%" x="-1" y="-1"><feGaussianBlur result="blurOut" stdDeviation="2.0"/><feColorMatrix in="blurOut" result="blurOut2" type="matrix" values="0 0 0 0 0 0 0 0 0 0 0 0 0 0 0 0 0 0 .4 0"/><feOffset dx="4.0" dy="4.0" in="blurOut2" result="blurOut3"/><feBlend in="SourceGraphic" in2="blurOut3" mode="normal"/></filter></defs><g><!--MD5=[3c50f17c0d712295f16cbdc3a750fcba]
class WrapOptions<ConcreteType>--><rect codeLine="4" fill="#FEFECE" filter="url(#ffs6ekybvsi8d)" height="104.0234" id="WrapOptions&lt;ConcreteType&gt;" style="stroke:#A80036;stroke-width:1.5;" width="230" x="7" y="158"/><ellipse cx="27.4" cy="174" fill="#B4A7E5" rx="11" ry="11" style="stroke:#A80036;stroke-width:1.0;"/><path d="M23.3219,169.7656 L23.3219,167.6094 L30.7125,167.6094 L30.7125,169.7656 L28.2438,169.7656 L28.2438,177.8438 L30.7125,177.8438 L30.7125,180 L23.3219,180 L23.3219,177.8438 L25.7906,177.8438 L25.7906,169.7656 L23.3219,169.7656 Z " fill="#000000"/><text fill="#000000" font-family="sans-serif" font-size="12" font-style="italic" lengthAdjust="spacing" textLength="186" x="42.6" y="178.1543">WrapOptions&lt;ConcreteType&gt;</text><line style="stroke:#A80036;stroke-width:1.5;" x1="8" x2="236" y1="190" y2="190"/><ellipse cx="18" cy="201" rx="3" ry="3" style="stroke:#038048;stroke-width:1.0;fill:none;"/><text fill="#000000" font-family="sans-serif" font-size="11" lengthAdjust="spacing" textLength="77" x="27" y="204.2104">name : Name</text><ellipse cx="18" cy="213.8047" rx="3" ry="3" style="stroke:#038048;stroke-width:1.0;fill:none;"/><text fill="#000000" font-family="sans-serif" font-size="11" lengthAdjust="spacing" textLength="102" x="27" y="217.0151">registry : Registry</text><ellipse cx="18" cy="226.6094" rx="3" ry="3" style="stroke:#038048;stroke-width:1.0;fill:none;"/><text fill="#000000" font-family="sans-serif" font-size="11" lengthAdjust="spacing" textLength="204" x="27" y="229.8198">resolver : Resolver&lt;ConcreteType&gt;</text><ellipse cx="18" cy="239.4141" rx="3" ry="3" style="stroke:#038048;stroke-width:1.0;fill:none;"/><text fill="#000000" font-family="sans-serif" font-size="11" lengthAdjust="spacing" textLength="135" x="27" y="242.6245">root : Token&lt;any, any&gt;</text><ellipse cx="18" cy="252.2188" rx="3" ry="3" style="stroke:#038048;stroke-width:1.0;fill:none;"/><text fill="#000000" font-family="sans-serif" font-size="11" lengthAdjust="spacing" textLength="118" x="27" y="255.4292">wrap : ConcreteType</text><!--MD5=[79f0f4ae532647d45948a0e2f5e2989f]
class BaseOptions<ConcreteType>--><rect codeLine="11" fill="#FEFECE" filter="url(#ffs6ekybvsi8d)" height="91.2188" id="BaseOptions&lt;ConcreteType&gt;" style="stroke:#A80036;stroke-width:1.5;" width="230" x="7" y="7"/><ellipse cx="28.75" cy="23" fill="#B4A7E5" rx="11" ry="11" style="stroke:#A80036;stroke-width:1.0;"/><path d="M24.6719,18.7656 L24.6719,16.6094 L32.0625,16.6094 L32.0625,18.7656 L29.5938,18.7656 L29.5938,26.8438 L32.0625,26.8438 L32.0625,29 L24.6719,29 L24.6719,26.8438 L27.1406,26.8438 L27.1406,18.7656 L24.6719,18.7656 Z " fill="#000000"/><text fill="#000000" font-family="sans-serif" font-size="12" font-style="italic" lengthAdjust="spacing" textLength="183" x="44.25" y="27.1543">BaseOptions&lt;ConcreteType&gt;</text><line style="stroke:#A80036;stroke-width:1.5;" x1="8" x2="236" y1="39" y2="39"/><ellipse cx="18" cy="50" rx="3" ry="3" style="stroke:#038048;stroke-width:1.0;fill:none;"/><text fill="#000000" font-family="sans-serif" font-size="11" lengthAdjust="spacing" textLength="77" x="27" y="53.2104">name : Name</text><ellipse cx="18" cy="62.8047" rx="3" ry="3" style="stroke:#038048;stroke-width:1.0;fill:none;"/><text fill="#000000" font-family="sans-serif" font-size="11" lengthAdjust="spacing" textLength="102" x="27" y="66.0151">registry : Registry</text><ellipse cx="18" cy="75.6094" rx="3" ry="3" style="stroke:#038048;stroke-width:1.0;fill:none;"/><text fill="#000000" font-family="sans-serif" font-size="11" lengthAdjust="spacing" textLength="204" x="27" y="78.8198">resolver : Resolver&lt;ConcreteType&gt;</text><ellipse cx="18" cy="88.4141" rx="3" ry="3" style="stroke:#038048;stroke-width:1.0;fill:none;"/><text fill="#000000" font-family="sans-serif" font-size="11" lengthAdjust="spacing" textLength="135" x="27" y="91.6245">root : Token&lt;any, any&gt;</text><!--MD5=[92ccc64172b6212ecf5ededd707fb99e]
reverse link BaseOptions<ConcreteType> to WrapOptions<ConcreteType>--><path codeLine="17" d="M122,118.2 C122,131.43 122,145.18 122,157.85 " fill="none" id="BaseOptions&lt;ConcreteType&gt;-backto-WrapOptions&lt;ConcreteType&gt;" style="stroke:#A80036;stroke-width:1.0;"/><polygon fill="none" points="115,118.06,122,98.06,129,118.06,115,118.06" style="stroke:#A80036;stroke-width:1.0;"/><!--MD5=[a59a9679496bbc12118e1db625c3795a]
@startuml
skinparam BackgroundColor transparent
hide empty methods
hide empty fields
interface "WrapOptions<ConcreteType>" {
    +name : Name
    +registry : Registry
    +resolver : Resolver<ConcreteType>
    +root : Token<any, any>
    +wrap : ConcreteType
}
interface "BaseOptions<ConcreteType>" {
    +name : Name
    +registry : Registry
    +resolver : Resolver<ConcreteType>
    +root : Token<any, any>
}
"BaseOptions<ConcreteType>" <|- - "WrapOptions<ConcreteType>"
@enduml

PlantUML version 1.2021.14(Fri Nov 12 16:46:50 UTC 2021)
(GPL source distribution)
Java Runtime: OpenJDK Runtime Environment
JVM: OpenJDK 64-Bit Server VM
Default Encoding: UTF-8
Language: en
Country: null
--></g></svg>